<svg id="svg" xmlns="http://www.w3.org/2000/svg" xmlns:xlink="http://www.w3.org/1999/xlink" width="400" height="386.00000000000006" viewBox="0, 0, 400,386.00000000000006"><g id="svgg"><path id="path0" d="M123.233 10.482 C 118.704 14.736,114.938 18.158,114.862 18.085 C 114.787 18.013,111.437 14.696,107.418 10.714 L 100.111 3.475 52.359 3.475 L 4.606 3.475 5.065 4.344 C 5.714 5.570,15.157 22.430,21.231 33.205 C 24.044 38.195,27.758 44.790,29.485 47.860 L 32.625 53.442 32.819 188.014 L 33.012 322.587 34.038 326.301 C 37.762 339.770,47.781 350.723,60.425 355.147 C 66.927 357.421,63.523 357.274,115.637 357.538 C 168.628 357.808,164.854 357.619,173.239 360.420 C 183.061 363.702,192.983 370.881,198.233 378.504 C 200.076 381.179,199.924 381.180,201.770 378.496 C 207.723 369.841,218.947 362.343,230.518 359.294 C 237.028 357.578,238.544 357.529,284.978 357.529 C 333.163 357.529,332.518 357.555,338.975 355.340 C 352.028 350.862,362.218 339.938,365.927 326.448 L 366.988 322.587 367.181 188.031 L 367.375 53.475 369.547 49.614 C 370.741 47.490,377.040 36.301,383.543 24.749 C 390.046 13.197,395.367 3.685,395.367 3.610 C 395.367 3.536,373.933 3.475,347.736 3.475 L 300.105 3.475 292.519 10.852 L 284.933 18.230 281.752 15.181 C 280.003 13.504,276.290 10.010,273.502 7.417 L 268.433 2.703 199.950 2.725 L 131.467 2.747 123.233 10.482 M274.486 23.358 L 285.034 33.203 287.594 30.913 C 289.002 29.654,293.367 25.398,297.293 21.455 L 304.432 14.286 340.440 14.286 C 364.740 14.286,376.448 14.414,376.448 14.681 C 376.448 14.898,374.859 17.895,372.917 21.341 C 370.976 24.787,367.048 31.776,364.189 36.873 C 361.330 41.969,358.401 47.147,357.681 48.380 L 356.371 50.621 356.371 183.777 C 356.371 276.549,356.245 317.849,355.956 319.953 C 354.248 332.391,345.719 341.997,333.012 345.793 C 330.858 346.436,327.302 346.502,282.625 346.727 C 235.769 346.963,234.462 346.989,230.848 347.776 C 223.616 349.352,216.809 352.082,211.765 355.429 C 209.514 356.924,202.325 363.153,202.305 363.627 C 202.299 363.777,201.769 364.477,201.128 365.182 L 199.962 366.465 199.126 365.375 C 193.843 358.486,185.214 352.458,176.619 349.651 C 167.998 346.835,171.229 346.995,117.568 346.734 L 69.305 346.499 66.430 345.621 C 54.068 341.846,45.582 332.023,44.039 319.701 C 43.757 317.452,43.629 274.893,43.629 183.489 L 43.629 50.548 38.865 42.166 C 28.191 23.388,23.552 15.062,23.552 14.684 C 23.552 14.413,35.062 14.286,59.566 14.286 L 95.579 14.286 98.465 17.210 C 100.053 18.819,104.417 23.079,108.164 26.676 L 114.977 33.217 125.538 23.367 L 136.100 13.517 200.019 13.515 L 263.938 13.514 274.486 23.358 M55.598 76.448 L 55.598 103.089 59.841 103.089 L 64.084 103.089 64.185 86.488 L 64.286 69.886 67.042 76.352 C 68.558 79.909,71.758 87.379,74.154 92.954 L 78.510 103.089 82.691 103.089 L 86.873 103.089 86.873 76.448 L 86.873 49.807 82.630 49.807 L 78.387 49.807 78.286 66.289 L 78.185 82.771 72.062 68.509 C 68.694 60.665,65.500 53.248,64.963 52.027 L 63.987 49.807 59.793 49.807 L 55.598 49.807 55.598 76.448 M98.456 76.448 L 98.456 103.089 109.073 103.089 L 119.691 103.089 119.691 98.842 L 119.691 94.595 113.320 94.595 L 106.950 94.595 106.950 87.452 L 106.950 80.309 113.320 80.309 L 119.691 80.309 119.691 76.264 L 119.691 72.220 113.417 72.114 L 107.143 72.008 107.037 65.154 L 106.932 58.301 113.312 58.301 L 119.691 58.301 119.691 54.054 L 119.691 49.807 109.073 49.807 L 98.456 49.807 98.456 76.448 M128.375 50.676 C 128.487 51.153,129.699 58.494,131.068 66.988 C 135.485 94.398,136.693 101.724,136.907 102.413 C 137.093 103.010,137.690 103.089,142.044 103.089 L 146.971 103.089 148.445 94.305 C 150.387 82.739,151.622 76.049,151.858 75.812 C 152.117 75.553,152.214 76.070,154.436 89.575 C 155.502 96.052,156.463 101.742,156.573 102.220 C 156.775 103.104,166.795 103.658,166.795 102.786 C 166.795 102.619,168.707 90.988,171.042 76.939 C 173.378 62.890,175.290 51.038,175.290 50.601 C 175.290 49.309,167.295 49.380,166.994 50.676 C 166.787 51.566,163.814 69.875,162.668 77.317 C 161.679 83.741,161.874 84.377,158.315 63.127 C 157.249 56.757,156.284 51.153,156.173 50.676 C 155.956 49.749,148.245 49.285,147.700 50.166 C 147.578 50.363,146.308 57.487,144.878 65.995 C 143.448 74.504,142.171 81.466,142.039 81.467 C 141.908 81.467,141.441 79.252,141.002 76.544 C 140.562 73.837,139.381 66.713,138.378 60.714 L 136.553 49.807 132.362 49.807 C 128.212 49.807,128.173 49.816,128.375 50.676 M197.865 50.483 C 198.010 50.854,199.141 53.938,200.378 57.336 C 201.614 60.734,204.120 67.543,205.946 72.468 L 209.266 81.422 209.266 92.256 L 209.266 103.089 213.320 103.089 L 217.375 103.089 217.375 92.207 L 217.375 81.325 222.973 65.931 C 226.052 57.464,228.571 50.373,228.571 50.172 C 228.571 49.966,226.821 49.807,224.554 49.807 L 220.536 49.807 219.314 53.185 C 215.635 63.357,213.361 69.109,213.124 68.838 C 212.978 68.670,211.503 64.797,209.847 60.232 C 205.632 48.609,206.570 49.807,201.686 49.807 C 197.952 49.807,197.623 49.865,197.865 50.483 M242.210 50.343 C 234.799 52.752,234.170 54.809,234.170 76.641 L 234.170 93.629 235.082 95.648 C 239.399 105.194,255.244 105.318,259.912 95.841 L 260.811 94.015 260.811 76.255 L 260.811 58.494 259.749 56.480 C 256.787 50.861,248.998 48.136,242.210 50.343 M270.270 76.439 L 270.270 103.115 274.421 103.005 L 278.571 102.896 278.673 89.865 L 278.775 76.834 281.256 76.834 C 284.262 76.834,283.453 75.428,288.089 88.703 C 290.222 94.810,292.227 100.545,292.545 101.448 L 293.123 103.089 297.141 103.089 C 300.347 103.089,301.158 102.978,301.158 102.543 C 301.158 102.046,297.130 90.453,293.661 80.965 C 291.980 76.367,291.983 76.605,293.597 76.073 C 298.146 74.571,300.185 70.746,300.187 63.707 C 300.189 56.454,298.783 53.564,294.015 51.027 L 292.085 50.000 281.178 49.881 L 270.270 49.763 270.270 76.439 M311.197 76.448 L 311.197 103.089 315.444 103.089 L 319.691 103.089 319.691 92.274 L 319.691 81.459 321.672 78.278 C 322.762 76.528,323.704 75.037,323.767 74.964 C 323.983 74.713,325.263 77.448,330.877 90.154 L 336.507 102.896 340.647 103.005 C 342.924 103.066,344.788 102.967,344.788 102.786 C 344.788 102.605,343.896 100.471,342.806 98.043 C 341.717 95.616,338.155 87.566,334.891 80.156 L 328.956 66.682 333.976 58.481 C 336.737 53.970,338.996 50.173,338.996 50.043 C 338.996 49.913,337.201 49.807,335.008 49.807 L 331.019 49.807 325.452 58.710 L 319.884 67.614 319.781 58.710 L 319.677 49.807 315.437 49.807 L 311.197 49.807 311.197 76.448 M250.120 58.823 C 252.501 60.145,252.504 60.167,252.507 76.388 C 252.510 94.047,252.356 94.595,247.386 94.595 C 242.788 94.595,242.471 93.425,242.471 76.448 C 242.471 61.332,242.542 60.757,244.600 59.138 C 245.824 58.176,248.661 58.014,250.120 58.823 M290.616 59.233 C 291.648 60.121,291.699 60.323,291.699 63.514 C 291.699 68.464,291.320 68.726,284.148 68.726 L 278.764 68.726 278.764 63.514 L 278.764 58.301 284.148 58.301 C 289.283 58.301,289.582 58.344,290.616 59.233 M52.510 115.637 L 52.510 119.305 200.000 119.305 L 347.490 119.305 347.490 115.637 L 347.490 111.969 200.000 111.969 L 52.510 111.969 52.510 115.637 M141.525 130.460 C 141.727 130.650,144.324 132.531,147.297 134.641 C 150.270 136.751,160.174 143.835,169.305 150.383 C 178.436 156.932,191.902 166.576,199.228 171.815 C 206.554 177.054,216.979 184.524,222.394 188.416 C 227.809 192.307,238.234 199.780,245.560 205.023 C 252.886 210.266,262.703 217.303,267.375 220.660 C 272.046 224.018,278.475 228.618,281.660 230.882 C 284.846 233.146,293.620 239.427,301.158 244.841 C 308.697 250.254,321.988 259.783,330.695 266.015 C 339.402 272.247,346.742 277.513,347.008 277.717 C 347.386 278.007,347.487 277.305,347.476 274.468 L 347.461 270.849 346.028 269.845 C 345.240 269.292,341.815 266.846,338.417 264.409 C 307.445 242.192,269.376 214.912,261.197 209.073 C 257.587 206.496,249.595 200.765,243.436 196.337 C 237.278 191.910,230.241 186.869,227.799 185.134 C 223.898 182.364,217.797 177.991,195.946 162.305 C 192.973 160.171,182.548 152.698,172.780 145.698 C 163.012 138.697,154.130 132.328,153.043 131.543 L 151.066 130.116 146.112 130.116 C 143.192 130.116,141.309 130.257,141.525 130.460 M119.963 136.583 C 117.697 139.715,113.876 144.971,111.472 148.263 C 97.059 167.995,93.360 173.109,93.203 173.517 C 93.107 173.767,94.500 175.045,96.299 176.357 L 99.569 178.741 105.307 170.934 C 108.463 166.641,111.625 162.309,112.334 161.308 L 113.623 159.490 115.687 160.922 C 118.248 162.700,118.328 161.556,114.710 174.768 C 113.032 180.895,111.599 186.241,111.525 186.648 C 111.366 187.519,117.587 192.238,118.125 191.656 C 118.300 191.467,119.692 186.535,121.220 180.695 C 125.182 165.544,124.549 167.199,126.206 167.657 C 131.181 169.031,134.691 167.263,139.272 161.078 C 144.475 154.051,145.275 150.288,142.582 145.492 C 141.581 143.708,125.630 130.977,124.300 130.900 C 124.181 130.894,122.229 133.451,119.963 136.583 M129.731 145.178 C 135.961 149.587,136.334 150.658,133.190 155.121 C 129.426 160.463,128.653 160.542,122.738 156.184 C 117.940 152.649,118.008 153.704,122.201 147.781 C 126.269 142.033,125.609 142.261,129.731 145.178 M52.530 161.078 L 52.551 164.672 59.538 169.691 C 63.381 172.452,70.715 177.751,75.837 181.467 C 80.958 185.183,91.982 193.176,100.334 199.228 C 108.686 205.280,122.322 215.161,130.636 221.186 C 138.950 227.211,149.402 234.784,153.861 238.015 C 158.320 241.246,168.311 248.489,176.062 254.112 C 183.813 259.735,194.324 267.351,199.421 271.036 C 211.860 280.031,227.459 291.340,232.432 294.969 C 234.662 296.595,239.614 300.188,243.436 302.951 C 257.450 313.083,270.542 322.573,273.552 324.781 C 275.251 326.027,278.639 328.471,281.081 330.212 C 283.523 331.953,286.883 334.381,288.547 335.608 L 291.573 337.838 296.172 337.838 C 298.702 337.838,300.769 337.708,300.764 337.548 C 300.760 337.389,294.988 333.089,287.937 327.992 C 275.595 319.071,266.924 312.790,252.510 302.329 C 248.793 299.632,241.236 294.153,235.714 290.153 C 230.193 286.153,223.243 281.117,220.270 278.963 C 214.999 275.143,207.209 269.500,191.120 257.845 C 186.766 254.692,180.859 250.407,177.992 248.324 C 175.125 246.240,168.263 241.263,162.741 237.264 C 157.220 233.265,149.662 227.789,145.946 225.095 C 142.230 222.401,134.672 216.929,129.151 212.935 C 123.629 208.941,116.766 203.963,113.900 201.873 C 111.033 199.783,105.039 195.437,100.579 192.215 C 96.120 188.993,89.083 183.895,84.942 180.886 C 80.801 177.878,73.851 172.842,69.498 169.697 C 65.145 166.551,59.759 162.648,57.529 161.024 C 55.299 159.400,53.258 157.938,52.992 157.777 C 52.619 157.550,52.514 158.299,52.530 161.078 M154.214 169.429 C 148.251 174.245,138.654 181.980,132.888 186.619 L 122.406 195.052 124.620 196.670 C 125.838 197.560,127.380 198.672,128.048 199.141 L 129.262 199.994 133.795 196.532 C 136.631 194.367,138.515 193.175,138.826 193.350 C 140.757 194.436,149.781 201.456,149.792 201.882 C 149.800 202.174,149.019 204.587,148.055 207.244 C 145.979 212.971,145.797 212.122,149.726 215.027 L 152.927 217.394 153.502 216.018 C 153.819 215.260,155.449 210.869,157.126 206.259 C 158.803 201.648,160.895 195.965,161.776 193.629 C 162.657 191.293,164.772 185.560,166.478 180.888 C 168.183 176.216,170.161 170.799,170.873 168.850 L 172.167 165.306 169.024 162.962 C 167.296 161.673,165.697 160.630,165.470 160.646 C 165.243 160.661,160.178 164.614,154.214 169.429 M160.553 175.215 C 160.483 175.386,158.704 179.738,156.600 184.886 C 154.032 191.170,152.616 194.184,152.291 194.059 C 151.283 193.672,144.447 188.596,144.528 188.294 C 144.644 187.857,159.961 174.903,160.360 174.903 C 160.537 174.903,160.624 175.044,160.553 175.215 M182.625 188.515 C 178.697 194.062,173.474 201.391,171.019 204.802 C 162.171 217.093,158.987 221.664,159.155 221.832 C 159.248 221.925,160.771 223.033,162.537 224.294 L 165.749 226.585 175.176 213.389 C 184.272 200.657,185.452 199.145,185.109 200.654 C 183.565 207.452,177.606 234.665,177.606 234.919 C 177.606 235.640,184.314 239.786,184.747 239.334 C 185.235 238.824,193.523 227.318,200.982 216.795 C 202.939 214.035,206.905 208.475,209.795 204.440 C 215.983 195.803,215.759 196.838,212.008 194.231 C 208.290 191.647,208.690 191.603,206.372 194.840 C 205.309 196.323,201.056 202.271,196.919 208.058 C 192.783 213.846,189.347 218.429,189.286 218.243 C 189.173 217.904,191.452 207.104,194.761 192.303 C 195.731 187.964,196.525 184.128,196.525 183.780 C 196.525 183.292,191.023 178.858,189.976 178.501 C 189.862 178.462,186.554 182.969,182.625 188.515 M52.600 248.912 L 52.703 318.340 53.751 321.429 C 56.494 329.514,61.726 334.409,70.154 336.774 C 73.154 337.616,73.358 337.621,119.884 337.864 C 159.565 338.071,167.068 338.197,169.691 338.701 C 182.581 341.174,190.156 344.664,196.992 351.277 L 199.968 354.156 202.783 351.543 C 209.758 345.069,217.351 341.171,227.336 338.939 C 230.822 338.160,232.457 338.086,250.957 337.873 L 270.833 337.645 266.594 334.540 C 264.263 332.832,261.400 330.754,260.232 329.922 C 259.064 329.089,254.981 326.129,251.158 323.342 C 243.181 317.526,235.582 312.020,211.776 294.806 C 202.432 288.049,193.571 281.618,192.085 280.514 C 190.598 279.410,186.602 276.508,183.205 274.064 C 179.807 271.621,173.118 266.783,168.340 263.312 C 163.562 259.841,152.181 251.591,143.050 244.978 C 133.919 238.365,123.494 230.810,119.884 228.188 C 116.274 225.567,110.280 221.222,106.564 218.533 C 99.914 213.721,91.776 207.823,76.354 196.639 C 64.416 187.982,53.423 180.056,52.935 179.754 C 52.609 179.553,52.524 197.221,52.600 248.912 M224.903 209.393 C 221.641 210.672,220.249 211.939,216.763 216.795 C 199.001 241.544,199.437 240.819,199.681 245.181 C 200.023 251.286,205.921 257.579,212.183 258.517 C 213.794 258.759,213.900 258.850,213.903 259.986 C 213.907 260.990,214.215 261.409,215.703 262.439 L 217.499 263.681 219.173 261.474 C 220.094 260.260,221.857 257.963,223.091 256.371 C 226.338 252.180,233.626 241.946,233.625 241.579 C 233.625 241.331,222.434 233.044,220.595 231.929 C 220.080 231.617,216.434 236.481,216.772 237.029 C 216.889 237.218,218.376 238.374,220.076 239.598 C 223.731 242.230,223.659 241.536,220.699 245.560 C 216.295 251.547,212.620 252.112,209.328 247.308 C 207.280 244.320,207.275 244.330,218.819 228.311 C 226.769 217.279,227.374 216.795,231.097 218.486 C 235.695 220.575,236.151 224.118,232.462 229.111 C 230.517 231.744,230.311 231.172,234.208 233.960 C 237.312 236.180,237.564 236.290,238.058 235.639 C 243.422 228.572,244.206 226.838,243.932 222.648 C 243.394 214.407,232.129 206.560,224.903 209.393 M254.331 233.672 C 251.922 236.919,244.880 246.394,238.682 254.729 C 232.484 263.064,227.413 270.061,227.413 270.278 C 227.413 270.664,243.997 283.189,244.182 282.943 C 245.021 281.830,248.562 276.919,248.744 276.617 C 248.883 276.385,246.818 274.620,244.001 272.563 C 241.257 270.559,239.008 268.810,239.004 268.678 C 239.000 268.545,240.665 266.199,242.704 263.465 C 244.744 260.731,246.500 258.277,246.607 258.012 C 246.979 257.087,247.861 257.552,252.664 261.205 L 257.496 264.881 260.030 261.522 C 261.424 259.674,262.430 258.041,262.267 257.894 C 262.103 257.746,259.841 256.033,257.239 254.089 C 254.638 252.144,252.510 250.475,252.510 250.380 C 252.510 249.937,260.296 239.768,260.635 239.768 C 260.847 239.768,263.032 241.258,265.492 243.078 C 267.952 244.898,270.191 246.474,270.466 246.580 C 270.879 246.738,275.676 241.055,275.676 240.408 C 275.676 240.238,260.176 228.617,259.182 228.042 C 258.875 227.863,257.194 229.814,254.331 233.672 M284.910 249.339 C 283.911 250.774,267.221 273.638,259.484 284.170 C 257.222 287.249,255.244 289.976,255.089 290.229 C 254.835 290.646,259.745 294.670,261.181 295.221 C 261.571 295.371,271.622 282.233,275.355 276.693 C 275.505 276.470,276.509 276.985,277.745 277.918 L 279.876 279.527 279.159 282.138 C 276.842 290.579,273.296 304.305,273.414 304.382 C 273.490 304.431,274.916 305.480,276.583 306.714 C 280.252 309.429,279.810 309.882,282.191 300.965 C 286.183 286.017,286.697 284.355,287.283 284.499 C 293.248 285.957,296.608 284.348,301.354 277.759 C 305.232 272.375,305.772 271.151,305.783 267.740 C 305.799 262.470,304.774 261.248,293.321 252.891 C 285.477 247.167,286.207 247.475,284.910 249.339 M292.085 262.418 C 297.983 266.675,298.301 267.655,295.186 272.000 C 291.412 277.265,290.600 277.380,285.068 273.430 C 282.921 271.897,280.995 270.429,280.787 270.167 C 280.494 269.798,287.287 259.604,287.912 259.475 C 287.952 259.466,289.830 260.791,292.085 262.418 M316.783 273.880 C 306.392 277.259,304.009 285.107,308.968 299.614 C 313.161 311.877,312.670 316.352,307.074 316.889 C 303.440 317.238,297.002 313.110,296.868 310.345 C 296.744 307.775,297.518 305.556,299.586 302.549 C 301.073 300.390,301.195 300.756,298.290 298.683 C 295.225 296.495,295.331 296.491,293.456 298.863 C 287.244 306.721,287.396 312.602,293.980 319.120 C 300.069 325.149,306.187 326.736,312.092 323.818 C 320.740 319.543,322.020 312.128,316.771 296.703 C 313.589 287.352,315.243 281.467,321.052 281.467 C 327.875 281.467,330.619 288.090,326.048 293.524 L 325.066 294.691 328.156 296.959 C 331.979 299.765,331.698 299.790,333.855 296.456 C 338.528 289.232,338.339 284.508,333.155 278.966 C 328.942 274.462,321.808 272.246,316.783 273.880 " stroke="none" fill="#f6f9fa" fill-rule="evenodd"></path><path id="path1" d="M171.847 130.256 C 172.083 130.461,184.580 139.434,198.263 149.223 C 204.846 153.932,215.270 161.401,221.429 165.820 C 227.587 170.239,238.620 178.147,245.946 183.394 C 253.272 188.640,266.737 198.290,275.869 204.836 C 285.000 211.382,295.425 218.850,299.035 221.430 C 305.847 226.298,339.081 250.118,343.822 253.530 C 345.309 254.599,346.742 255.600,347.008 255.752 C 347.393 255.974,347.490 243.329,347.490 193.073 L 347.490 130.116 259.588 130.116 C 211.242 130.116,171.758 130.179,171.847 130.256 " stroke="none" fill="#d21444" fill-rule="evenodd"></path><path id="path2" d="M126.818 2.998 C 122.589 7.065,118.667 10.756,116.716 12.504 L 115.091 13.959 108.376 7.366 L 101.661 0.772 50.804 0.772 L -0.052 0.772 0.222 1.641 C 0.373 2.119,1.574 4.421,2.891 6.757 C 4.208 9.093,5.944 12.220,6.747 13.707 C 8.908 17.703,10.162 19.860,10.452 20.077 C 10.594 20.183,11.189 21.226,11.775 22.394 C 12.361 23.562,13.833 26.255,15.046 28.378 C 16.258 30.502,18.080 33.803,19.094 35.714 C 20.108 37.625,21.074 39.276,21.240 39.382 C 21.407 39.488,23.385 42.955,25.636 47.086 L 29.730 54.596 29.730 187.097 C 29.730 330.989,29.634 323.933,31.650 329.145 C 37.538 344.363,46.751 353.760,60.241 358.304 C 66.620 360.453,64.637 360.372,116.409 360.607 L 164.286 360.824 168.868 362.077 C 171.388 362.767,173.907 363.570,174.466 363.863 C 175.025 364.157,176.612 364.958,177.992 365.643 C 180.231 366.755,185.211 369.734,185.714 370.263 C 185.820 370.374,186.628 370.954,187.509 371.552 C 189.955 373.210,194.295 378.103,197.330 382.625 C 200.211 386.917,199.891 386.883,202.323 383.157 C 207.825 374.730,213.977 369.453,223.590 364.917 C 227.339 363.148,229.094 362.556,234.281 361.311 C 235.552 361.006,250.527 360.797,283.977 360.618 C 335.578 360.342,333.416 360.432,339.768 358.309 C 355.458 353.066,367.237 339.089,369.710 322.780 C 370.185 319.641,370.266 300.025,370.268 186.857 L 370.270 54.602 373.723 48.247 C 375.622 44.752,377.324 41.718,377.504 41.506 C 377.913 41.026,380.658 36.203,385.512 27.437 C 387.563 23.733,389.549 20.258,389.926 19.715 C 390.303 19.171,390.875 18.205,391.196 17.568 C 392.010 15.955,394.256 11.841,397.362 6.276 C 398.813 3.676,400.000 1.374,400.000 1.160 C 400.000 0.902,382.965 0.772,349.165 0.772 L 298.331 0.772 292.377 6.660 C 289.103 9.899,286.096 12.879,285.695 13.284 C 284.875 14.112,284.954 14.170,278.378 7.907 C 276.786 6.390,274.252 3.991,272.749 2.575 L 270.015 0.000 199.969 0.006 L 129.923 0.012 126.818 2.998 M273.775 7.243 C 281.293 14.390,284.602 17.375,285.008 17.375 C 285.205 17.375,288.645 14.160,292.654 10.232 L 299.942 3.089 347.847 3.089 C 381.232 3.089,395.753 3.212,395.753 3.497 C 395.753 3.721,393.169 8.456,390.012 14.018 C 381.436 29.125,374.427 41.556,372.771 44.595 C 371.961 46.081,370.461 48.733,369.437 50.487 L 367.576 53.677 367.460 187.746 C 367.332 334.612,367.522 322.543,365.234 329.426 C 360.874 342.544,349.771 352.908,336.058 356.661 L 332.239 357.706 284.363 357.932 C 231.113 358.183,234.836 357.998,226.373 360.815 C 217.613 363.731,208.460 370.401,202.451 378.245 C 199.825 381.674,200.149 381.658,197.780 378.475 C 191.626 370.207,181.558 363.133,171.815 360.232 C 164.597 358.082,167.302 358.193,115.444 357.926 C 68.164 357.683,67.327 357.666,64.479 356.868 C 48.434 352.372,37.145 340.744,33.455 324.912 L 32.643 321.429 32.441 187.259 L 32.239 53.089 31.019 51.158 C 30.348 50.097,27.719 45.492,25.176 40.927 C 20.040 31.707,9.771 13.458,6.418 7.593 C 5.224 5.505,4.247 3.637,4.247 3.443 C 4.247 3.230,23.402 3.089,52.193 3.089 L 100.139 3.089 106.150 8.980 C 109.457 12.221,112.806 15.462,113.594 16.183 L 115.025 17.494 116.683 16.123 C 117.594 15.369,121.293 11.957,124.903 8.541 L 131.467 2.330 200.030 2.324 L 268.592 2.317 273.775 7.243 M134.279 15.687 C 133.157 16.670,130.936 18.715,129.344 20.233 C 127.751 21.750,123.869 25.398,120.717 28.340 L 114.987 33.690 112.802 31.594 C 111.601 30.442,107.182 26.163,102.982 22.085 L 95.346 14.672 59.642 14.672 C 40.005 14.672,23.938 14.727,23.938 14.795 C 23.938 14.964,33.730 32.535,36.349 37.066 C 37.515 39.083,39.717 43.004,41.242 45.779 L 44.015 50.824 44.015 184.888 C 44.015 334.260,43.782 321.886,46.721 328.092 C 51.379 337.931,59.053 344.022,68.968 345.751 C 71.807 346.246,78.964 346.333,117.136 346.340 C 164.792 346.348,166.069 346.391,173.175 348.224 C 183.226 350.816,193.506 357.463,199.189 365.043 L 200.046 366.186 201.047 364.850 C 207.052 356.834,218.257 350.171,230.315 347.444 L 234.170 346.572 282.432 346.343 C 334.332 346.096,331.046 346.225,336.661 344.222 C 343.788 341.679,351.178 334.120,354.226 326.255 C 356.060 321.520,355.985 327.620,355.985 184.836 L 355.985 50.820 359.526 44.426 C 361.475 40.909,363.700 36.988,364.472 35.714 C 365.244 34.440,366.719 31.834,367.750 29.923 C 368.781 28.012,371.073 23.886,372.843 20.756 C 374.613 17.625,376.062 14.975,376.062 14.868 C 376.062 14.760,360.008 14.672,340.387 14.672 L 304.713 14.672 296.468 22.654 C 291.934 27.044,287.505 31.317,286.627 32.150 L 285.030 33.665 278.905 27.945 C 275.536 24.798,271.651 21.162,270.270 19.865 C 268.890 18.568,266.874 16.695,265.790 15.703 L 263.820 13.900 200.069 13.900 L 136.319 13.900 134.279 15.687 M68.153 58.687 C 70.341 63.678,73.528 71.062,75.237 75.097 L 78.343 82.432 78.361 65.927 L 78.378 49.421 82.819 49.421 L 87.259 49.421 87.259 76.460 L 87.259 103.499 82.805 103.391 L 78.351 103.282 76.795 99.807 C 75.273 96.407,70.597 85.484,66.712 76.255 C 65.640 73.707,64.612 71.457,64.427 71.255 C 64.238 71.047,64.093 77.966,64.093 87.194 L 64.093 103.500 59.749 103.391 L 55.405 103.282 55.305 76.834 C 55.250 62.288,55.291 50.163,55.395 49.891 C 55.537 49.519,56.659 49.423,59.880 49.505 L 64.176 49.614 68.153 58.687 M119.993 53.958 L 119.884 58.494 113.610 58.600 L 107.336 58.706 107.336 65.058 L 107.336 71.409 113.610 71.516 L 119.884 71.622 119.993 76.158 L 120.102 80.695 113.719 80.695 L 107.336 80.695 107.336 87.452 L 107.336 94.208 113.707 94.208 L 120.077 94.208 120.077 98.842 L 120.077 103.475 109.266 103.475 L 98.456 103.475 98.456 76.448 L 98.456 49.421 109.279 49.421 L 120.102 49.421 119.993 53.958 M136.906 49.949 C 137.018 50.239,138.198 57.228,139.529 65.479 C 142.368 83.077,141.786 83.226,144.957 64.093 C 146.136 56.979,147.192 50.767,147.303 50.290 C 147.498 49.451,147.660 49.421,151.893 49.421 L 156.281 49.421 157.053 53.571 C 157.478 55.854,158.669 62.705,159.699 68.795 C 160.730 74.886,161.624 79.817,161.688 79.754 C 161.795 79.647,162.502 75.614,165.737 56.660 L 166.973 49.421 171.324 49.421 C 175.096 49.421,175.676 49.505,175.676 50.053 C 175.676 51.230,171.055 79.614,167.420 100.772 L 166.988 103.282 161.865 103.390 C 157.973 103.472,156.700 103.379,156.569 103.004 C 156.474 102.732,155.686 98.427,154.817 93.436 C 152.102 77.844,151.899 76.877,151.614 78.185 C 151.476 78.822,150.485 84.626,149.413 91.082 C 148.340 97.539,147.372 102.968,147.261 103.148 C 147.071 103.455,136.680 103.638,136.680 103.334 C 136.680 102.871,132.285 75.936,131.663 72.587 C 129.982 63.535,127.837 50.059,128.027 49.750 C 128.391 49.161,136.675 49.346,136.906 49.949 M209.436 58.301 C 211.173 63.079,212.769 67.299,212.982 67.679 C 213.290 68.231,213.925 66.823,216.133 60.690 C 217.654 56.466,219.244 52.202,219.667 51.215 L 220.436 49.421 224.697 49.421 C 229.896 49.421,229.756 48.617,226.209 58.108 C 224.701 62.143,222.183 68.968,220.614 73.276 L 217.761 81.108 217.761 92.292 L 217.761 103.475 213.320 103.475 L 208.880 103.475 208.880 92.548 L 208.880 81.621 204.437 69.286 C 201.994 62.501,199.393 55.404,198.659 53.514 C 196.996 49.238,196.883 49.374,202.011 49.505 L 206.277 49.614 209.436 58.301 M254.130 50.466 C 256.441 51.516,259.282 54.350,260.359 56.681 C 261.662 59.501,261.668 93.030,260.366 95.753 C 256.258 104.341,243.571 106.079,237.052 98.947 C 233.931 95.531,233.928 95.513,234.058 75.621 L 234.170 58.494 235.170 56.371 C 236.859 52.785,238.922 50.918,242.471 49.762 C 244.466 49.113,252.174 49.578,254.130 50.466 M292.631 50.026 C 297.716 51.536,300.106 55.515,300.315 62.819 C 300.530 70.331,298.914 73.965,294.506 75.882 C 293.599 76.277,292.805 76.632,292.741 76.672 C 292.677 76.712,294.632 82.554,297.085 89.653 C 299.537 96.753,301.544 102.773,301.544 103.031 C 301.544 103.378,300.411 103.472,297.201 103.391 L 292.857 103.282 289.900 94.788 C 288.274 90.116,286.197 84.252,285.283 81.757 L 283.623 77.220 281.194 77.220 L 278.764 77.220 278.764 90.347 L 278.764 103.475 274.324 103.475 L 269.884 103.475 269.884 76.448 L 269.884 49.421 280.239 49.421 C 288.515 49.421,291.002 49.542,292.631 50.026 M320.077 58.085 L 320.270 66.555 323.911 60.594 C 325.913 57.316,328.301 53.460,329.217 52.027 L 330.883 49.421 335.110 49.421 C 337.435 49.421,339.422 49.559,339.527 49.729 C 339.632 49.898,338.085 52.592,336.091 55.715 C 334.097 58.838,331.755 62.588,330.889 64.047 L 329.312 66.700 332.177 73.215 C 343.056 97.959,345.174 102.833,345.174 103.135 C 345.174 103.322,343.209 103.475,340.807 103.475 L 336.439 103.475 334.091 98.166 C 325.718 79.235,324.104 75.682,323.876 75.679 C 323.736 75.677,322.867 76.848,321.946 78.282 L 320.270 80.888 320.077 92.085 L 319.884 103.282 315.541 103.391 L 311.197 103.500 311.197 76.448 L 311.197 49.396 315.541 49.505 L 319.884 49.614 320.077 58.085 M245.367 59.052 C 243.011 60.016,243.060 59.667,242.941 76.321 L 242.831 91.557 244.157 92.883 C 245.985 94.711,248.752 94.795,250.670 93.082 L 251.931 91.955 251.931 76.448 L 251.931 60.941 250.670 59.814 C 249.360 58.644,247.142 58.326,245.367 59.052 M278.849 63.610 L 278.958 68.533 284.301 68.533 L 289.644 68.533 290.575 67.450 C 291.963 65.834,291.953 61.030,290.558 59.635 C 289.642 58.719,289.431 58.687,284.176 58.687 L 278.741 58.687 278.849 63.610 M347.876 115.637 L 347.876 119.305 200.000 119.305 L 52.124 119.305 52.124 115.637 L 52.124 111.969 200.000 111.969 L 347.876 111.969 347.876 115.637 M151.396 130.060 C 151.902 130.453,155.270 132.855,158.880 135.398 C 162.490 137.940,168.832 142.456,172.973 145.433 C 177.114 148.411,183.108 152.705,186.293 154.977 C 189.479 157.248,194.344 160.746,197.104 162.751 C 199.865 164.755,204.730 168.253,207.915 170.524 C 211.100 172.795,217.230 177.186,221.537 180.280 C 225.844 183.375,231.937 187.732,235.077 189.961 C 238.218 192.191,245.119 197.130,250.413 200.937 C 255.707 204.743,262.992 209.958,266.602 212.525 C 270.212 215.091,274.122 217.915,275.290 218.800 C 276.458 219.685,279.601 221.941,282.276 223.814 C 284.950 225.688,291.596 230.434,297.044 234.363 C 302.493 238.292,309.642 243.417,312.931 245.753 C 316.220 248.089,325.428 254.673,333.394 260.384 L 347.876 270.768 347.876 274.573 C 347.876 276.666,347.775 278.378,347.652 278.378 C 347.529 278.378,346.008 277.364,344.274 276.123 C 342.539 274.883,338.253 271.814,334.749 269.304 C 331.245 266.794,325.685 262.833,322.394 260.502 C 319.102 258.171,315.801 255.791,315.058 255.212 C 314.315 254.634,311.014 252.255,307.722 249.926 C 304.431 247.597,297.307 242.506,291.892 238.614 C 286.477 234.721,279.365 229.633,276.088 227.307 C 272.811 224.981,268.901 222.173,267.401 221.066 C 265.900 219.959,262.587 217.577,260.039 215.772 C 257.490 213.968,250.975 209.304,245.560 205.410 C 240.145 201.515,233.716 196.914,231.274 195.186 C 228.832 193.458,225.010 190.712,222.780 189.083 C 220.550 187.455,216.091 184.250,212.872 181.961 C 209.652 179.672,203.160 175.019,198.444 171.622 C 193.729 168.224,189.153 164.939,188.276 164.323 C 185.045 162.052,177.218 156.468,170.077 151.337 C 166.042 148.438,160.135 144.206,156.950 141.934 C 145.359 133.665,140.550 130.028,140.759 129.689 C 141.209 128.960,150.393 129.280,151.396 130.060 M347.781 192.954 C 347.846 235.108,347.749 256.371,347.492 256.371 C 347.279 256.371,346.106 255.616,344.885 254.695 C 342.715 253.057,319.143 236.177,310.131 229.808 C 307.638 228.046,304.122 225.530,302.317 224.218 C 297.091 220.418,282.857 210.218,277.799 206.649 C 275.251 204.850,271.342 202.042,269.112 200.408 C 266.882 198.774,262.026 195.278,258.320 192.638 C 254.615 189.998,248.672 185.753,245.114 183.205 C 241.556 180.656,236.450 177.008,233.765 175.097 C 231.081 173.185,226.599 169.962,223.806 167.933 C 221.012 165.904,215.694 162.081,211.988 159.438 C 208.282 156.796,202.337 152.548,198.775 150.000 C 195.214 147.452,190.253 143.906,187.752 142.120 C 182.592 138.437,174.178 132.381,172.290 130.993 C 171.596 130.483,171.129 129.903,171.252 129.704 C 171.390 129.480,205.098 129.379,259.579 129.439 L 347.683 129.537 347.781 192.954 M130.018 134.625 C 142.359 143.559,142.745 143.940,143.861 148.296 C 144.908 152.381,144.041 155.061,139.736 161.048 C 135.308 167.208,133.223 168.503,128.087 168.281 L 124.988 168.147 123.698 172.587 C 122.988 175.029,121.510 180.502,120.413 184.749 C 119.316 188.996,118.369 192.532,118.309 192.606 C 118.195 192.746,114.160 189.905,112.193 188.301 L 111.066 187.382 114.241 175.296 C 117.756 161.912,117.682 162.748,115.491 161.230 C 113.545 159.881,113.782 159.707,109.623 165.539 C 105.333 171.555,100.015 178.710,99.685 178.911 C 99.387 179.093,92.937 174.371,92.761 173.841 C 92.698 173.654,93.737 172.007,95.069 170.183 C 96.401 168.358,98.608 165.329,99.975 163.452 C 115.390 142.273,124.049 130.502,124.214 130.502 C 124.273 130.502,126.884 132.358,130.018 134.625 M122.532 147.862 C 120.651 150.430,119.063 152.673,119.003 152.846 C 118.794 153.455,127.263 159.073,128.389 159.073 C 131.153 159.073,135.929 151.642,134.574 149.450 C 134.274 148.964,127.174 143.662,126.453 143.385 C 126.145 143.267,124.629 144.998,122.532 147.862 M58.683 161.471 C 61.664 163.656,66.531 167.181,69.498 169.305 C 72.466 171.429,78.840 176.033,83.663 179.537 C 103.256 193.771,107.830 197.087,114.479 201.882 C 118.301 204.638,125.425 209.800,130.309 213.352 C 135.193 216.905,141.361 221.374,144.015 223.285 C 146.670 225.195,150.405 227.920,152.317 229.341 C 154.228 230.761,158.137 233.599,161.004 235.648 C 163.871 237.697,170.386 242.407,175.483 246.115 C 180.579 249.823,187.529 254.865,190.927 257.321 C 194.324 259.777,198.234 262.603,199.614 263.600 C 210.532 271.491,222.826 280.401,227.992 284.165 C 231.390 286.641,236.316 290.217,238.938 292.113 C 241.561 294.009,244.775 296.335,246.081 297.282 C 247.387 298.229,252.973 302.270,258.494 306.263 C 264.015 310.255,270.618 315.052,273.166 316.924 C 275.714 318.795,280.145 322.004,283.012 324.056 C 295.760 333.179,301.303 337.293,301.450 337.741 C 301.572 338.111,300.428 338.224,296.569 338.224 L 291.530 338.224 286.788 334.735 C 284.180 332.816,279.266 329.249,275.869 326.808 C 269.046 321.908,261.016 316.095,246.566 305.598 C 241.304 301.776,235.233 297.380,233.075 295.830 C 230.916 294.280,226.544 291.111,223.359 288.788 C 220.174 286.465,212.963 281.236,207.336 277.167 C 201.708 273.098,194.932 268.175,192.278 266.226 C 189.624 264.277,186.496 262.014,185.328 261.197 C 184.160 260.379,181.033 258.120,178.378 256.175 C 172.914 252.172,162.735 244.791,153.624 238.224 C 145.481 232.355,132.527 222.975,122.973 216.027 C 118.726 212.939,112.384 208.340,108.880 205.807 C 102.611 201.275,95.581 196.179,78.768 183.977 C 74.087 180.579,68.392 176.458,66.113 174.819 C 63.834 173.179,59.758 170.225,57.056 168.255 L 52.143 164.672 52.133 160.866 C 52.122 156.290,51.544 156.237,58.683 161.471 M169.341 162.804 C 171.126 164.218,172.587 165.401,172.587 165.432 C 172.587 165.464,171.273 168.954,169.668 173.189 C 168.062 177.423,165.090 185.492,163.064 191.120 C 161.038 196.747,158.467 203.697,157.351 206.564 C 156.236 209.431,154.839 213.126,154.248 214.777 L 153.172 217.778 152.165 217.136 C 150.978 216.379,145.946 212.703,145.946 212.592 C 145.946 212.550,146.730 210.178,147.688 207.321 C 149.778 201.092,150.055 201.964,144.720 197.986 C 137.703 192.753,139.121 192.895,133.780 196.898 C 131.070 198.929,129.016 200.217,128.779 200.034 C 128.559 199.863,127.032 198.736,125.386 197.530 C 123.740 196.323,122.394 195.174,122.394 194.975 C 122.394 194.653,128.712 189.473,141.927 178.958 C 147.507 174.518,153.570 169.627,159.984 164.390 C 165.996 159.482,165.299 159.600,169.341 162.804 M155.155 179.427 C 152.744 181.519,149.426 184.334,147.780 185.683 C 144.145 188.661,144.052 188.087,148.678 191.235 L 152.536 193.860 153.527 191.621 C 155.500 187.167,159.876 175.963,159.708 175.796 C 159.614 175.702,157.565 177.336,155.155 179.427 M193.563 180.613 C 195.226 181.773,196.673 182.949,196.780 183.227 C 196.962 183.700,192.561 204.823,190.516 213.295 C 190.006 215.405,189.644 217.186,189.712 217.253 C 189.779 217.321,193.970 211.598,199.025 204.537 C 204.080 197.476,208.439 191.721,208.711 191.747 C 208.984 191.774,210.702 192.876,212.530 194.195 L 215.853 196.594 214.409 198.587 C 213.615 199.683,211.174 203.098,208.985 206.178 C 206.796 209.257,203.364 214.035,201.359 216.795 C 199.354 219.556,196.360 223.737,194.706 226.087 C 187.169 236.796,184.726 240.136,184.422 240.145 C 184.012 240.157,178.255 236.117,177.718 235.441 C 177.438 235.088,178.369 230.045,180.911 218.151 C 182.885 208.916,184.461 201.321,184.414 201.274 C 184.323 201.183,182.964 203.061,174.004 215.653 C 170.976 219.908,167.874 224.209,167.110 225.209 L 165.721 227.029 162.687 224.869 C 158.043 221.562,158.153 222.276,161.552 217.499 C 184.711 184.952,189.741 178.048,190.135 178.273 C 190.358 178.400,191.901 179.453,193.563 180.613 M56.970 182.219 C 59.295 183.906,64.411 187.608,68.340 190.445 C 72.268 193.282,79.044 198.190,83.398 201.353 C 87.751 204.515,94.701 209.554,98.842 212.550 C 102.983 215.546,107.847 219.070,109.653 220.381 C 111.458 221.693,115.019 224.277,117.568 226.124 C 131.933 236.537,136.653 239.952,141.496 243.436 C 144.448 245.560,148.872 248.781,151.327 250.594 C 153.783 252.408,158.398 255.759,161.583 258.041 C 164.768 260.324,170.936 264.783,175.290 267.950 C 179.643 271.117,186.593 276.159,190.734 279.153 C 194.875 282.147,201.664 287.063,205.821 290.078 C 219.754 300.184,229.123 306.971,232.625 309.495 C 234.537 310.873,238.707 313.898,241.892 316.218 C 256.988 327.211,268.317 335.417,269.608 336.293 C 272.507 338.261,272.830 338.224,252.719 338.224 C 222.662 338.224,214.586 340.541,201.850 352.820 L 200.032 354.573 197.024 351.707 C 189.475 344.514,180.273 340.470,167.620 338.786 C 164.292 338.343,155.393 338.237,120.656 338.230 C 92.673 338.225,76.593 338.078,74.324 337.808 C 62.909 336.450,55.645 330.247,52.899 319.510 C 52.083 316.320,51.628 179.151,52.433 179.151 C 52.603 179.151,54.645 180.531,56.970 182.219 M234.046 209.997 C 241.640 213.764,245.336 219.699,244.024 226.018 C 243.597 228.076,239.064 235.729,237.815 236.501 C 237.487 236.703,230.502 231.864,230.502 231.435 C 230.502 231.353,231.458 229.955,232.625 228.327 C 235.696 224.048,235.498 221.486,231.917 219.164 C 228.457 216.921,226.823 217.748,222.315 224.023 C 220.341 226.771,217.003 231.394,214.898 234.297 C 208.314 243.375,208.687 242.752,208.687 244.669 C 208.687 246.269,208.846 246.563,210.544 248.099 C 214.175 251.387,216.345 250.832,220.223 245.624 C 223.245 241.564,223.310 242.012,219.317 239.390 C 215.756 237.052,215.775 237.105,217.561 234.592 C 220.141 230.963,219.820 231.057,222.730 233.091 C 231.011 238.880,233.976 241.089,233.968 241.467 C 233.957 242.030,227.733 250.886,223.766 255.985 C 222.031 258.214,220.028 260.864,219.314 261.873 C 217.780 264.040,217.454 264.089,215.218 262.483 C 213.892 261.531,213.514 261.016,213.514 260.166 C 213.514 259.366,213.325 259.073,212.810 259.073 C 208.962 259.073,203.089 254.706,200.813 250.153 C 197.805 244.133,198.584 241.441,206.495 230.514 C 208.729 227.428,212.427 222.279,214.713 219.070 C 222.208 208.550,226.793 206.399,234.046 209.997 M262.864 230.257 C 264.920 231.821,268.533 234.511,270.892 236.234 C 273.252 237.957,275.389 239.616,275.641 239.920 C 276.234 240.634,271.264 247.667,270.498 247.200 C 270.238 247.041,267.994 245.377,265.513 243.501 C 260.140 239.440,261.109 239.242,256.529 245.338 L 252.780 250.328 253.900 251.240 C 254.515 251.742,256.704 253.363,258.762 254.843 C 263.508 258.254,263.370 257.731,260.537 261.569 C 257.646 265.486,258.187 265.506,252.246 261.253 C 249.681 259.417,247.493 257.915,247.383 257.915 C 247.179 257.915,241.210 265.772,240.018 267.610 L 239.364 268.618 243.903 272.050 C 246.400 273.938,248.690 275.674,248.992 275.908 C 249.478 276.283,246.983 280.196,244.369 283.158 C 244.204 283.345,240.610 280.913,236.381 277.753 C 232.152 274.593,228.205 271.655,227.610 271.224 L 226.528 270.440 230.590 265.046 C 232.824 262.080,238.065 255.048,242.236 249.421 C 246.408 243.793,251.235 237.330,252.963 235.057 C 254.691 232.785,256.643 230.141,257.300 229.182 C 258.809 226.979,258.467 226.913,262.864 230.257 M293.150 252.373 C 296.811 255.059,300.376 257.677,301.071 258.191 C 307.929 263.267,308.019 269.380,301.365 278.300 C 296.922 284.256,293.792 285.961,289.034 285.017 C 286.599 284.533,287.343 282.885,283.639 296.968 C 281.285 305.920,280.311 309.063,279.900 309.035 C 279.083 308.980,272.973 304.545,272.973 304.008 C 272.973 303.756,274.001 299.928,275.259 295.501 C 276.516 291.074,277.914 285.975,278.366 284.170 C 278.819 282.365,279.267 280.620,279.363 280.292 C 279.623 279.407,275.709 276.488,275.278 277.244 C 275.103 277.549,273.117 280.319,270.864 283.398 C 268.610 286.477,265.687 290.509,264.368 292.358 C 263.049 294.208,261.767 295.728,261.520 295.737 C 261.069 295.753,255.087 291.470,254.715 290.864 C 254.513 290.535,256.025 288.341,263.322 278.378 C 272.910 265.288,282.215 252.521,283.934 250.097 C 286.232 246.855,285.319 246.630,293.150 252.373 M286.011 262.642 C 280.056 270.763,280.203 269.357,284.939 272.937 C 290.382 277.052,290.998 277.024,294.319 272.505 C 297.390 268.327,297.503 266.783,294.876 264.856 C 294.190 264.353,292.377 263.018,290.847 261.891 L 288.065 259.840 286.011 262.642 M325.271 273.621 C 334.449 276.816,339.774 285.287,336.791 291.946 C 335.749 294.272,332.142 299.614,331.613 299.614 C 331.063 299.614,324.884 294.979,324.974 294.634 C 325.013 294.484,325.648 293.466,326.386 292.370 C 329.687 287.465,327.377 282.316,321.712 281.953 C 315.476 281.553,313.874 287.256,317.350 297.477 C 321.727 310.342,320.982 317.583,314.761 322.655 C 308.678 327.613,300.936 326.397,293.825 319.368 C 287.174 312.793,287.094 305.624,293.589 298.243 L 295.270 296.333 298.049 298.249 C 301.491 300.621,301.438 300.526,300.215 302.129 C 295.582 308.203,296.238 312.343,302.326 315.449 C 310.583 319.661,313.808 313.125,309.283 301.351 C 304.398 288.641,304.518 283.447,309.823 278.139 C 314.572 273.385,320.019 271.792,325.271 273.621 " stroke="none" fill="#046cac" fill-rule="evenodd"></path><path id="path3" d="M165.734 2.606 C 184.580 2.662,215.420 2.662,234.266 2.606 C 253.113 2.551,237.693 2.505,200.000 2.505 C 162.307 2.505,146.887 2.551,165.734 2.606 M4.475 3.418 C 4.363 3.599,4.536 4.077,4.860 4.480 C 5.417 5.174,5.426 5.166,5.025 4.341 L 4.603 3.469 52.458 3.568 C 78.778 3.623,100.232 3.538,100.133 3.378 C 99.883 2.974,4.725 3.013,4.475 3.418 M298.248 5.116 L 296.332 7.143 298.279 5.306 L 300.226 3.469 347.952 3.568 C 374.202 3.623,395.599 3.538,395.500 3.378 C 395.402 3.219,373.911 3.089,347.743 3.089 L 300.164 3.089 298.248 5.116 M271.236 5.405 C 272.281 6.467,273.224 7.336,273.330 7.336 C 273.436 7.336,272.667 6.467,271.622 5.405 C 270.576 4.344,269.633 3.475,269.527 3.475 C 269.421 3.475,270.190 4.344,271.236 5.405 M127.978 5.888 L 126.062 7.915 128.089 5.999 C 129.972 4.219,130.293 3.861,130.005 3.861 C 129.944 3.861,129.032 4.773,127.978 5.888 M110.039 13.320 C 112.687 15.975,114.940 18.147,115.046 18.147 C 115.153 18.147,113.073 15.975,110.425 13.320 C 107.777 10.666,105.523 8.494,105.417 8.494 C 105.311 8.494,107.391 10.666,110.039 13.320 M276.834 10.618 C 277.554 11.361,278.231 11.969,278.337 11.969 C 278.443 11.969,277.940 11.361,277.220 10.618 C 276.500 9.875,275.823 9.266,275.717 9.266 C 275.611 9.266,276.114 9.875,276.834 10.618 M121.987 11.486 L 120.656 12.934 122.104 11.604 C 122.901 10.872,123.552 10.220,123.552 10.156 C 123.552 9.861,123.225 10.139,121.987 11.486 M288.409 14.575 L 284.749 18.340 288.514 14.679 C 290.584 12.666,292.278 10.972,292.278 10.915 C 292.278 10.635,291.809 11.079,288.409 14.575 M135.774 13.803 C 135.676 13.962,164.577 14.093,200.000 14.093 C 235.423 14.093,264.324 13.962,264.226 13.803 C 263.992 13.424,136.008 13.424,135.774 13.803 M59.455 14.575 L 95.552 14.676 99.996 19.017 L 104.440 23.359 100.006 18.822 L 95.572 14.286 59.466 14.380 L 23.359 14.475 59.455 14.575 M116.988 16.023 C 116.051 16.979,115.370 17.761,115.476 17.761 C 115.582 17.761,116.437 16.979,117.375 16.023 C 118.312 15.068,118.993 14.286,118.887 14.286 C 118.780 14.286,117.926 15.068,116.988 16.023 M282.609 15.927 C 284.209 17.631,284.556 17.938,284.556 17.648 C 284.556 17.586,283.731 16.761,282.722 15.814 L 280.888 14.093 282.609 15.927 M299.030 19.788 L 293.629 25.290 299.038 19.983 L 304.446 14.676 340.544 14.575 L 376.641 14.475 340.535 14.380 L 304.430 14.286 299.030 19.788 M267.954 17.568 C 269.107 18.736,270.138 19.691,270.244 19.691 C 270.350 19.691,269.493 18.736,268.340 17.568 C 267.186 16.400,266.156 15.444,266.050 15.444 C 265.943 15.444,266.800 16.400,267.954 17.568 M131.067 18.243 L 129.151 20.270 131.178 18.354 C 132.292 17.300,133.205 16.388,133.205 16.327 C 133.205 16.039,132.847 16.360,131.067 18.243 M273.729 22.876 C 275.329 24.581,275.676 24.888,275.676 24.598 C 275.676 24.536,274.850 23.711,273.842 22.764 L 272.008 21.042 273.729 22.876 M125.275 23.649 L 123.359 25.676 125.386 23.760 C 126.501 22.706,127.413 21.794,127.413 21.733 C 127.413 21.445,127.055 21.765,125.275 23.649 M16.795 25.869 C 17.125 26.506,17.481 27.027,17.587 27.027 C 17.694 27.027,17.511 26.506,17.181 25.869 C 16.852 25.232,16.496 24.710,16.389 24.710 C 16.283 24.710,16.466 25.232,16.795 25.869 M279.537 28.378 C 280.690 29.546,281.721 30.502,281.827 30.502 C 281.933 30.502,281.076 29.546,279.923 28.378 C 278.769 27.210,277.739 26.255,277.633 26.255 C 277.526 26.255,278.383 27.210,279.537 28.378 M111.197 29.923 C 112.993 31.728,114.549 33.205,114.655 33.205 C 114.761 33.205,113.379 31.728,111.583 29.923 C 109.787 28.118,108.231 26.641,108.125 26.641 C 108.019 26.641,109.401 28.118,111.197 29.923 M119.486 29.054 L 117.181 31.467 119.595 29.163 C 120.922 27.895,122.008 26.809,122.008 26.750 C 122.008 26.464,121.627 26.812,119.486 29.054 M286.269 32.143 L 285.135 33.398 286.390 32.264 C 287.080 31.640,287.645 31.075,287.645 31.009 C 287.645 30.711,287.326 30.973,286.269 32.143 M27.220 44.402 C 27.550 45.039,27.906 45.560,28.012 45.560 C 28.118 45.560,27.936 45.039,27.606 44.402 C 27.277 43.764,26.920 43.243,26.814 43.243 C 26.708 43.243,26.891 43.764,27.220 44.402 M28.764 47.104 C 29.094 47.741,29.450 48.263,29.557 48.263 C 29.663 48.263,29.480 47.741,29.151 47.104 C 28.821 46.467,28.465 45.946,28.359 45.946 C 28.252 45.946,28.435 46.467,28.764 47.104 M59.638 49.703 C 62.381 49.788,63.989 50.000,64.204 50.303 C 64.443 50.639,64.493 50.607,64.380 50.193 C 64.252 49.723,63.393 49.610,59.814 49.593 L 55.405 49.571 59.638 49.703 M82.719 49.702 L 86.867 49.833 86.970 76.364 L 87.074 102.896 87.070 76.255 L 87.066 49.614 82.819 49.592 L 78.571 49.571 82.719 49.702 M109.061 49.707 L 119.666 49.819 119.794 53.964 L 119.922 58.108 119.903 53.861 L 119.884 49.614 109.170 49.605 L 98.455 49.595 109.061 49.707 M130.226 49.707 C 131.455 49.783,133.366 49.783,134.474 49.705 C 135.581 49.627,134.575 49.564,132.239 49.565 C 129.903 49.566,128.998 49.630,130.226 49.707 M147.750 49.698 C 147.646 49.864,149.396 49.945,151.638 49.877 C 154.684 49.786,155.804 49.884,156.072 50.264 C 156.352 50.663,156.396 50.648,156.272 50.193 C 156.100 49.560,148.124 49.096,147.750 49.698 M166.980 49.820 C 166.836 50.053,166.822 50.349,166.950 50.476 C 167.077 50.604,167.181 50.505,167.181 50.257 C 167.181 49.345,175.204 49.664,175.411 50.585 C 175.556 51.232,175.577 51.216,175.534 50.489 C 175.476 49.496,167.563 48.877,166.980 49.820 M201.544 49.704 C 204.783 49.801,205.696 49.955,206.081 50.469 C 206.347 50.823,206.564 50.941,206.564 50.730 C 206.564 49.679,205.522 49.423,201.564 49.502 L 197.490 49.584 201.544 49.704 M224.459 49.709 L 228.648 49.834 228.412 50.882 C 228.213 51.761,228.243 51.817,228.598 51.231 C 229.529 49.695,228.856 49.416,224.433 49.503 L 220.270 49.585 224.459 49.709 M245.849 49.704 C 246.752 49.785,248.229 49.785,249.131 49.704 C 250.034 49.622,249.295 49.556,247.490 49.556 C 245.685 49.556,244.947 49.622,245.849 49.704 M270.062 49.903 C 269.960 50.169,269.924 62.288,269.980 76.834 L 270.083 103.282 270.176 76.551 L 270.270 49.820 280.405 49.710 L 290.541 49.601 280.393 49.511 C 272.564 49.441,270.204 49.531,270.062 49.903 M313.224 49.706 C 314.445 49.783,316.443 49.783,317.664 49.706 C 318.885 49.630,317.886 49.567,315.444 49.567 C 313.002 49.567,312.003 49.630,313.224 49.706 M334.882 49.709 C 338.649 49.821,339.043 49.900,338.816 50.496 C 338.624 51.001,338.672 51.052,339.017 50.709 C 340.006 49.728,338.938 49.421,334.823 49.503 L 330.695 49.585 334.882 49.709 M292.696 50.337 C 293.094 50.693,295.367 51.737,295.367 51.564 C 295.367 51.342,293.226 50.193,292.812 50.193 C 292.660 50.193,292.608 50.258,292.696 50.337 M43.820 184.170 C 43.820 257.751,43.865 287.852,43.919 251.062 C 43.973 214.271,43.973 154.069,43.919 117.278 C 43.865 80.487,43.820 110.589,43.820 184.170 M356.175 184.556 C 356.175 258.137,356.220 288.238,356.274 251.448 C 356.328 214.657,356.328 154.455,356.274 117.664 C 356.220 80.874,356.175 110.975,356.175 184.556 M32.623 184.942 C 32.623 257.249,32.668 286.829,32.722 250.676 C 32.776 214.522,32.776 155.362,32.722 119.208 C 32.668 83.055,32.623 112.635,32.623 184.942 M367.372 185.328 C 367.372 257.847,367.417 287.514,367.471 251.255 C 367.525 214.995,367.525 155.661,367.471 119.402 C 367.417 83.142,367.372 112.809,367.372 185.328 M259.728 56.559 C 260.081 57.299,260.439 57.837,260.522 57.753 C 260.699 57.576,259.527 55.212,259.263 55.212 C 259.165 55.212,259.375 55.818,259.728 56.559 M107.129 65.154 L 107.143 72.008 113.404 72.114 L 119.665 72.220 119.796 76.361 L 119.927 80.502 119.906 76.255 L 119.884 72.008 113.619 71.902 L 107.354 71.796 107.234 65.048 L 107.115 58.300 107.129 65.154 M291.632 63.514 C 291.634 65.000,291.704 65.561,291.788 64.760 C 291.871 63.959,291.870 62.742,291.784 62.057 C 291.699 61.372,291.631 62.027,291.632 63.514 M261.180 76.448 C 261.180 84.836,261.231 88.267,261.293 84.073 C 261.355 79.879,261.355 73.016,261.293 68.822 C 261.231 64.628,261.180 68.060,261.180 76.448 M242.646 76.448 C 242.646 84.411,242.697 87.669,242.760 83.687 C 242.823 79.706,242.823 73.190,242.760 69.208 C 242.697 65.227,242.646 68.485,242.646 76.448 M297.080 73.842 L 295.946 75.097 297.201 73.963 C 297.891 73.339,298.456 72.774,298.456 72.708 C 298.456 72.409,298.137 72.672,297.080 73.842 M325.510 78.571 C 325.510 78.784,325.758 79.392,326.062 79.923 C 326.365 80.454,326.614 80.714,326.614 80.502 C 326.614 80.290,326.365 79.681,326.062 79.151 C 325.758 78.620,325.510 78.359,325.510 78.571 M161.659 80.461 C 161.501 80.863,161.463 81.283,161.574 81.394 C 161.926 81.746,162.236 81.169,162.088 80.436 C 161.953 79.764,161.932 79.765,161.659 80.461 M107.037 87.548 L 107.124 94.788 107.239 87.751 L 107.353 80.715 113.426 80.598 L 119.498 80.481 113.224 80.395 L 106.950 80.309 107.037 87.548 M217.545 91.892 C 217.545 98.156,217.598 100.719,217.663 97.587 C 217.728 94.455,217.728 89.329,217.663 86.197 C 217.598 83.065,217.545 85.627,217.545 91.892 M209.051 92.085 C 209.051 98.243,209.104 100.708,209.169 97.563 C 209.234 94.418,209.234 89.379,209.169 86.366 C 209.104 83.353,209.051 85.927,209.051 92.085 M327.054 82.046 C 327.054 82.259,327.303 82.867,327.606 83.398 C 327.910 83.929,328.158 84.189,328.158 83.977 C 328.158 83.764,327.910 83.156,327.606 82.625 C 327.303 82.095,327.054 81.834,327.054 82.046 M119.837 98.842 C 119.837 101.284,119.900 102.283,119.976 101.062 C 120.053 99.841,120.053 97.843,119.976 96.622 C 119.900 95.401,119.837 96.400,119.837 98.842 M258.133 98.372 C 256.772 100.003,256.745 100.072,257.876 99.035 C 258.948 98.052,260.124 96.496,259.763 96.538 C 259.702 96.545,258.969 97.370,258.133 98.372 M236.293 98.190 C 236.293 98.257,236.858 98.821,237.548 99.445 L 238.803 100.579 237.669 99.324 C 236.612 98.155,236.293 97.892,236.293 98.190 M52.265 115.637 C 52.266 117.761,52.330 118.580,52.409 117.458 C 52.487 116.336,52.486 114.599,52.407 113.597 C 52.328 112.596,52.264 113.514,52.265 115.637 M347.631 115.637 C 347.632 117.761,347.697 118.580,347.775 117.458 C 347.854 116.336,347.853 114.599,347.774 113.597 C 347.694 112.596,347.630 113.514,347.631 115.637 M140.926 130.019 C 140.925 130.179,142.446 130.262,144.304 130.205 C 150.570 130.014,151.187 129.869,146.042 129.799 C 143.229 129.761,140.926 129.860,140.926 130.019 M52.261 161.197 C 52.259 163.108,52.325 163.939,52.406 163.043 C 52.487 162.146,52.488 160.583,52.408 159.568 C 52.328 158.553,52.262 159.286,52.261 161.197 M138.996 161.390 C 138.543 162.027,138.258 162.548,138.364 162.548 C 138.471 162.548,138.929 162.027,139.382 161.390 C 139.836 160.753,140.120 160.232,140.014 160.232 C 139.908 160.232,139.450 160.753,138.996 161.390 M128.479 168.227 C 128.960 168.319,129.655 168.316,130.024 168.219 C 130.393 168.122,130.000 168.047,129.151 168.051 C 128.301 168.055,127.999 168.134,128.479 168.227 M52.312 247.297 C 52.312 284.459,52.358 299.605,52.413 280.954 C 52.469 262.303,52.469 231.898,52.413 213.386 C 52.358 194.875,52.312 210.135,52.312 247.297 M116.939 191.602 C 117.522 192.346,118.533 192.515,118.533 191.869 C 118.533 191.644,118.351 191.572,118.130 191.709 C 117.908 191.846,117.430 191.726,117.068 191.443 C 116.475 190.978,116.462 190.994,116.939 191.602 M101.544 192.805 C 101.544 192.911,102.066 193.369,102.703 193.822 C 103.340 194.276,103.861 194.560,103.861 194.454 C 103.861 194.348,103.340 193.890,102.703 193.436 C 102.066 192.983,101.544 192.698,101.544 192.805 M205.405 195.753 C 204.952 196.390,204.667 196.911,204.774 196.911 C 204.880 196.911,205.338 196.390,205.792 195.753 C 206.245 195.116,206.529 194.595,206.423 194.595 C 206.317 194.595,205.859 195.116,205.405 195.753 M227.703 208.767 C 228.181 208.859,228.962 208.859,229.440 208.767 C 229.918 208.675,229.527 208.599,228.571 208.599 C 227.616 208.599,227.225 208.675,227.703 208.767 M219.474 212.838 L 218.340 214.093 219.595 212.959 C 220.285 212.335,220.849 211.770,220.849 211.704 C 220.849 211.406,220.531 211.668,219.474 212.838 M216.602 216.602 C 216.149 217.239,215.864 217.761,215.971 217.761 C 216.077 217.761,216.535 217.239,216.988 216.602 C 217.442 215.965,217.726 215.444,217.620 215.444 C 217.514 215.444,217.056 215.965,216.602 216.602 M244.105 223.552 C 244.105 224.295,244.184 224.599,244.282 224.228 C 244.379 223.856,244.379 223.248,244.282 222.876 C 244.184 222.505,244.105 222.809,244.105 223.552 M130.888 236.048 C 130.888 236.154,131.409 236.612,132.046 237.066 C 132.683 237.519,133.205 237.804,133.205 237.697 C 133.205 237.591,132.683 237.133,132.046 236.680 C 131.409 236.226,130.888 235.942,130.888 236.048 M178.764 236.048 C 178.764 236.154,179.286 236.612,179.923 237.066 C 180.560 237.519,181.081 237.804,181.081 237.697 C 181.081 237.591,180.560 237.133,179.923 236.680 C 179.286 236.226,178.764 235.942,178.764 236.048 M271.414 246.157 C 271.142 246.485,270.643 246.648,270.305 246.520 C 269.810 246.332,269.786 246.381,270.178 246.777 C 270.571 247.173,270.829 247.103,271.519 246.414 C 271.988 245.944,272.268 245.560,272.141 245.560 C 272.013 245.560,271.686 245.828,271.414 246.157 M217.929 248.745 L 216.795 250.000 218.050 248.866 C 218.740 248.242,219.305 247.678,219.305 247.611 C 219.305 247.313,218.986 247.575,217.929 248.745 M213.996 250.459 C 214.368 250.556,214.976 250.556,215.347 250.459 C 215.719 250.362,215.415 250.283,214.672 250.283 C 213.929 250.283,213.625 250.362,213.996 250.459 M207.336 256.969 C 207.336 257.252,209.700 258.350,210.047 258.228 C 210.235 258.162,209.702 257.817,208.862 257.461 C 208.023 257.105,207.336 256.884,207.336 256.969 M301.544 258.808 C 301.544 258.875,302.109 259.439,302.799 260.063 L 304.054 261.197 302.920 259.942 C 301.863 258.772,301.544 258.510,301.544 258.808 M305.911 267.761 C 305.913 269.035,305.985 269.509,306.071 268.815 C 306.157 268.122,306.155 267.079,306.067 266.499 C 305.979 265.919,305.909 266.486,305.911 267.761 M344.788 268.866 C 344.788 268.973,345.309 269.431,345.946 269.884 C 346.583 270.338,347.104 270.622,347.104 270.516 C 347.104 270.410,346.583 269.952,345.946 269.498 C 345.309 269.044,344.788 268.760,344.788 268.866 M347.630 274.517 C 347.630 276.535,347.695 277.360,347.774 276.351 C 347.854 275.343,347.854 273.692,347.774 272.683 C 347.695 271.675,347.630 272.500,347.630 274.517 M320.179 273.250 C 320.766 273.339,321.635 273.336,322.110 273.245 C 322.584 273.153,322.104 273.081,321.042 273.083 C 319.981 273.086,319.592 273.161,320.179 273.250 M309.821 278.089 L 308.687 279.344 309.942 278.210 C 310.632 277.586,311.197 277.021,311.197 276.955 C 311.197 276.657,310.878 276.919,309.821 278.089 M332.802 278.475 C 333.749 279.484,334.574 280.309,334.636 280.309 C 334.926 280.309,334.620 279.962,332.915 278.362 L 331.081 276.641 332.802 278.475 M212.741 280.835 C 212.741 280.942,213.263 281.400,213.900 281.853 C 214.537 282.307,215.058 282.591,215.058 282.485 C 215.058 282.379,214.537 281.921,213.900 281.467 C 213.263 281.014,212.741 280.729,212.741 280.835 M320.174 281.744 C 320.758 281.832,321.713 281.832,322.297 281.744 C 322.881 281.655,322.403 281.583,321.236 281.583 C 320.068 281.583,319.590 281.655,320.174 281.744 M305.915 287.645 C 305.915 289.025,305.985 289.590,306.071 288.900 C 306.156 288.209,306.156 287.080,306.071 286.390 C 305.985 285.700,305.915 286.264,305.915 287.645 M328.283 287.838 C 328.287 288.687,328.366 288.989,328.458 288.509 C 328.551 288.029,328.547 287.334,328.451 286.965 C 328.354 286.595,328.278 286.988,328.283 287.838 M256.371 292.032 C 256.371 292.139,256.892 292.597,257.529 293.050 C 258.166 293.504,258.687 293.788,258.687 293.682 C 258.687 293.576,258.166 293.118,257.529 292.664 C 256.892 292.210,256.371 291.926,256.371 292.032 M283.232 296.746 C 283.090 297.312,283.048 297.849,283.139 297.940 C 283.230 298.031,283.421 297.643,283.563 297.077 C 283.705 296.511,283.747 295.973,283.656 295.882 C 283.565 295.791,283.374 296.180,283.232 296.746 M294.179 297.587 L 293.243 298.649 294.402 297.683 C 295.039 297.153,295.632 296.675,295.721 296.622 C 295.809 296.569,295.709 296.525,295.498 296.525 C 295.288 296.525,294.694 297.003,294.179 297.587 M311.688 310.425 C 311.688 311.380,311.763 311.771,311.855 311.293 C 311.948 310.816,311.948 310.034,311.855 309.556 C 311.763 309.078,311.688 309.469,311.688 310.425 M309.534 315.649 C 308.939 316.173,308.604 316.602,308.791 316.602 C 308.979 316.602,309.540 316.168,310.039 315.637 C 311.193 314.409,310.937 314.415,309.534 315.649 M293.436 319.112 C 294.157 319.855,294.833 320.463,294.939 320.463 C 295.045 320.463,294.543 319.855,293.822 319.112 C 293.102 318.369,292.426 317.761,292.320 317.761 C 292.213 317.761,292.716 318.369,293.436 319.112 M315.999 321.332 L 314.865 322.587 316.120 321.453 C 316.810 320.829,317.375 320.264,317.375 320.198 C 317.375 319.900,317.056 320.162,315.999 321.332 M311.969 323.938 C 311.226 324.345,310.757 324.685,310.927 324.694 C 311.336 324.716,313.514 323.583,313.514 323.349 C 313.514 323.096,313.491 323.105,311.969 323.938 M252.896 324.445 C 252.896 324.541,253.534 325.105,254.313 325.700 C 255.093 326.295,255.609 326.584,255.460 326.343 C 255.154 325.849,252.896 324.177,252.896 324.445 M63.320 334.166 C 63.320 334.430,65.685 335.602,65.861 335.426 C 65.945 335.342,65.408 334.985,64.667 334.631 C 63.926 334.278,63.320 334.069,63.320 334.166 M160.907 338.110 C 161.385 338.202,162.167 338.202,162.645 338.110 C 163.123 338.018,162.732 337.943,161.776 337.943 C 160.820 337.943,160.430 338.018,160.907 338.110 M234.846 338.114 C 235.430 338.203,236.385 338.203,236.969 338.114 C 237.553 338.026,237.075 337.954,235.907 337.954 C 234.739 337.954,234.262 338.026,234.846 338.114 M356.153 344.112 L 355.019 345.367 356.274 344.233 C 356.964 343.609,357.529 343.044,357.529 342.978 C 357.529 342.680,357.210 342.942,356.153 344.112 M45.946 346.453 C 45.946 346.519,46.511 347.084,47.201 347.708 L 48.456 348.842 47.322 347.587 C 46.265 346.417,45.946 346.155,45.946 346.453 M93.726 346.622 C 106.096 346.678,126.337 346.678,138.707 346.622 C 151.076 346.565,140.956 346.519,116.216 346.519 C 91.477 346.519,81.356 346.565,93.726 346.622 M261.709 346.622 C 274.095 346.678,294.250 346.678,306.497 346.622 C 318.744 346.565,308.610 346.519,283.977 346.519 C 259.344 346.519,249.323 346.565,261.709 346.622 M352.678 347.587 L 351.544 348.842 352.799 347.708 C 353.489 347.084,354.054 346.519,354.054 346.453 C 354.054 346.155,353.735 346.417,352.678 347.587 M163.228 346.991 C 163.709 347.084,164.404 347.080,164.773 346.983 C 165.142 346.887,164.749 346.811,163.900 346.816 C 163.050 346.820,162.748 346.899,163.228 346.991 M235.815 346.991 C 236.296 347.084,236.991 347.080,237.360 346.983 C 237.729 346.887,237.336 346.811,236.486 346.816 C 235.637 346.820,235.335 346.899,235.815 346.991 M201.868 352.324 C 200.666 353.488,199.803 354.440,199.951 354.440 C 200.098 354.440,201.163 353.485,202.317 352.317 C 205.028 349.571,204.707 349.577,201.868 352.324 M93.756 357.818 C 106.142 357.875,126.296 357.875,138.543 357.818 C 150.790 357.762,140.656 357.716,116.023 357.716 C 91.390 357.716,81.370 357.762,93.756 357.818 M261.709 357.818 C 274.095 357.875,294.250 357.875,306.497 357.818 C 318.744 357.762,308.610 357.716,283.977 357.716 C 259.344 357.716,249.323 357.762,261.709 357.818 M162.259 358.181 C 162.630 358.278,163.238 358.278,163.610 358.181 C 163.982 358.084,163.678 358.005,162.934 358.005 C 162.191 358.005,161.887 358.084,162.259 358.181 M206.732 359.170 L 205.598 360.425 206.853 359.291 C 207.543 358.667,208.108 358.102,208.108 358.036 C 208.108 357.738,207.790 358.000,206.732 359.170 M236.588 358.188 C 237.068 358.280,237.763 358.277,238.132 358.180 C 238.501 358.084,238.108 358.008,237.259 358.012 C 236.409 358.017,236.107 358.096,236.588 358.188 M194.788 360.618 C 195.833 361.680,196.776 362.548,196.882 362.548 C 196.988 362.548,196.220 361.680,195.174 360.618 C 194.128 359.556,193.185 358.687,193.079 358.687 C 192.973 358.687,193.742 359.556,194.788 360.618 M193.034 372.683 C 194.634 374.388,194.981 374.695,194.981 374.405 C 194.981 374.343,194.155 373.517,193.147 372.571 L 191.313 370.849 193.034 372.683 M206.352 373.069 L 204.826 374.710 206.467 373.184 C 207.370 372.345,208.108 371.606,208.108 371.543 C 208.108 371.251,207.772 371.543,206.352 373.069 " stroke="none" fill="#5098c4" fill-rule="evenodd"></path><path id="path4" d="M319.856 58.108 C 319.856 62.780,319.912 64.638,319.980 62.237 C 320.047 59.837,320.047 56.014,319.979 53.743 C 319.911 51.472,319.855 53.436,319.856 58.108 M55.395 76.448 C 55.395 90.994,55.443 96.945,55.502 89.672 C 55.561 82.399,55.561 70.497,55.502 63.224 C 55.443 55.951,55.395 61.902,55.395 76.448 M319.860 92.278 C 319.860 98.118,319.914 100.507,319.980 97.587 C 320.045 94.667,320.045 89.889,319.980 86.969 C 319.914 84.049,319.860 86.438,319.860 92.278 M110.347 94.496 C 112.109 94.568,114.888 94.567,116.524 94.495 C 118.160 94.423,116.718 94.364,113.320 94.365 C 109.923 94.365,108.585 94.424,110.347 94.496 M57.640 103.375 C 58.868 103.451,60.780 103.451,61.887 103.373 C 62.994 103.295,61.988 103.232,59.653 103.233 C 57.317 103.234,56.411 103.298,57.640 103.375 M80.806 103.375 C 82.034 103.451,83.946 103.451,85.053 103.373 C 86.160 103.295,85.154 103.232,82.819 103.233 C 80.483 103.234,79.577 103.298,80.806 103.375 M103.958 103.377 C 106.877 103.443,111.655 103.443,114.575 103.377 C 117.495 103.312,115.106 103.258,109.266 103.258 C 103.427 103.258,101.038 103.312,103.958 103.377 M139.495 103.375 C 140.937 103.450,143.196 103.449,144.514 103.374 C 145.833 103.299,144.653 103.238,141.892 103.239 C 139.131 103.239,138.053 103.301,139.495 103.375 M159.170 103.375 C 160.603 103.449,162.949 103.449,164.382 103.375 C 165.816 103.301,164.643 103.240,161.776 103.240 C 158.909 103.240,157.736 103.301,159.170 103.375 M211.308 103.375 C 212.536 103.451,214.448 103.451,215.555 103.373 C 216.662 103.295,215.656 103.232,213.320 103.233 C 210.985 103.234,210.079 103.298,211.308 103.375 M246.429 103.365 C 247.013 103.454,247.968 103.454,248.552 103.365 C 249.136 103.277,248.658 103.205,247.490 103.205 C 246.322 103.205,245.845 103.277,246.429 103.365 M272.311 103.375 C 273.540 103.451,275.451 103.451,276.558 103.373 C 277.666 103.295,276.660 103.232,274.324 103.233 C 271.988 103.234,271.083 103.298,272.311 103.375 M295.270 103.373 C 296.385 103.451,298.209 103.451,299.324 103.373 C 300.439 103.295,299.527 103.232,297.297 103.232 C 295.068 103.232,294.155 103.295,295.270 103.373 M313.238 103.375 C 314.467 103.451,316.378 103.451,317.485 103.373 C 318.592 103.295,317.587 103.232,315.251 103.233 C 312.915 103.234,312.009 103.298,313.238 103.375 M338.721 103.375 C 339.949 103.451,341.861 103.451,342.968 103.373 C 344.075 103.295,343.069 103.232,340.734 103.233 C 338.398 103.234,337.492 103.298,338.721 103.375 M96.815 338.127 C 106.848 338.185,123.267 338.185,133.301 338.127 C 143.335 338.070,135.125 338.023,115.058 338.023 C 94.990 338.023,86.781 338.070,96.815 338.127 M249.350 338.127 C 253.452 338.190,260.054 338.189,264.022 338.127 C 267.989 338.064,264.633 338.013,256.564 338.013 C 248.494 338.013,245.248 338.064,249.350 338.127 M294.112 338.124 C 295.439 338.199,297.611 338.199,298.938 338.124 C 300.265 338.048,299.180 337.987,296.525 337.987 C 293.871 337.987,292.785 338.048,294.112 338.124 " stroke="none" fill="#4494c4" fill-rule="evenodd"></path><path id="path5" d="M100.386 3.596 C 100.386 3.662,100.951 4.227,101.641 4.851 L 102.896 5.985 101.762 4.730 C 100.705 3.560,100.386 3.297,100.386 3.596 M297.297 5.598 C 296.359 6.554,295.679 7.336,295.785 7.336 C 295.891 7.336,296.746 6.554,297.683 5.598 C 298.621 4.643,299.302 3.861,299.196 3.861 C 299.089 3.861,298.235 4.643,297.297 5.598 M272.957 6.660 C 274.557 8.365,274.903 8.671,274.903 8.382 C 274.903 8.320,274.078 7.494,273.069 6.548 L 271.236 4.826 272.957 6.660 M125.869 7.529 C 124.931 8.485,124.250 9.266,124.357 9.266 C 124.463 9.266,125.317 8.485,126.255 7.529 C 127.193 6.573,127.873 5.792,127.767 5.792 C 127.661 5.792,126.807 6.573,125.869 7.529 M95.367 14.793 C 95.367 14.859,95.931 15.424,96.622 16.047 L 97.876 17.181 96.742 15.927 C 95.685 14.757,95.367 14.494,95.367 14.793 M302.878 16.313 L 301.351 17.954 302.992 16.427 C 304.518 15.008,304.811 14.672,304.519 14.672 C 304.455 14.672,303.717 15.410,302.878 16.313 M113.608 16.408 L 115.054 17.937 115.924 16.994 L 116.795 16.052 115.918 16.781 C 115.046 17.505,115.032 17.502,113.602 16.195 L 112.162 14.880 113.608 16.408 M284.073 16.992 L 284.942 17.932 285.811 16.992 L 286.680 16.052 285.811 16.773 C 284.963 17.477,284.922 17.477,284.073 16.773 L 283.205 16.052 284.073 16.992 M276.448 25.603 C 276.448 25.670,277.013 26.235,277.703 26.858 L 278.958 27.992 277.824 26.737 C 276.766 25.568,276.448 25.305,276.448 25.603 M108.880 27.992 C 109.601 28.736,110.277 29.344,110.383 29.344 C 110.489 29.344,109.987 28.736,109.266 27.992 C 108.546 27.249,107.870 26.641,107.764 26.641 C 107.657 26.641,108.160 27.249,108.880 27.992 M289.941 28.861 L 288.610 30.309 290.058 28.978 C 291.406 27.740,291.683 27.413,291.388 27.413 C 291.324 27.413,290.672 28.065,289.941 28.861 M110.328 58.588 C 112.080 58.660,114.947 58.660,116.699 58.588 C 118.451 58.517,117.017 58.458,113.514 58.458 C 110.010 58.458,108.576 58.517,110.328 58.588 M281.371 58.587 C 282.698 58.662,284.870 58.662,286.197 58.587 C 287.524 58.512,286.438 58.450,283.784 58.450 C 281.129 58.450,280.043 58.512,281.371 58.587 M252.298 76.448 C 252.298 84.199,252.350 87.370,252.413 83.494 C 252.476 79.619,252.476 73.277,252.413 69.402 C 252.350 65.526,252.298 68.697,252.298 76.448 M110.328 71.716 C 112.080 71.787,114.947 71.787,116.699 71.716 C 118.451 71.644,117.017 71.586,113.514 71.586 C 110.010 71.586,108.576 71.644,110.328 71.716 M280.219 77.114 C 280.913 77.200,281.956 77.198,282.536 77.110 C 283.116 77.022,282.548 76.951,281.274 76.954 C 280.000 76.956,279.525 77.028,280.219 77.114 M140.792 129.633 C 140.693 129.792,142.116 129.876,143.955 129.819 C 150.124 129.628,150.809 129.483,145.872 129.413 C 143.177 129.375,140.891 129.474,140.792 129.633 M337.541 287.645 C 337.541 288.388,337.621 288.692,337.718 288.320 C 337.815 287.949,337.815 287.341,337.718 286.969 C 337.621 286.597,337.541 286.902,337.541 287.645 M52.896 337.645 C 53.616 338.388,54.292 338.996,54.399 338.996 C 54.505 338.996,54.002 338.388,53.282 337.645 C 52.561 336.902,51.885 336.293,51.779 336.293 C 51.673 336.293,52.175 336.902,52.896 337.645 M76.931 338.104 C 77.302 338.201,77.910 338.201,78.282 338.104 C 78.653 338.007,78.349 337.927,77.606 337.927 C 76.863 337.927,76.559 338.007,76.931 338.104 M153.392 338.124 C 154.621 338.200,156.532 338.200,157.640 338.122 C 158.747 338.044,157.741 337.981,155.405 337.982 C 153.069 337.983,152.164 338.047,153.392 338.124 M240.062 338.111 C 240.543 338.203,241.238 338.200,241.607 338.103 C 241.976 338.006,241.583 337.931,240.734 337.935 C 239.884 337.939,239.582 338.019,240.062 338.111 M355.005 345.656 L 353.089 347.683 355.116 345.767 C 356.999 343.987,357.320 343.629,357.032 343.629 C 356.971 343.629,356.059 344.542,355.005 345.656 M45.174 346.139 C 45.894 346.882,46.570 347.490,46.677 347.490 C 46.783 347.490,46.280 346.882,45.560 346.139 C 44.839 345.396,44.163 344.788,44.057 344.788 C 43.951 344.788,44.453 345.396,45.174 346.139 M197.490 352.124 C 198.320 352.973,199.085 353.668,199.191 353.668 C 199.298 353.668,198.706 352.973,197.876 352.124 C 197.047 351.274,196.282 350.579,196.175 350.579 C 196.069 350.579,196.661 351.274,197.490 352.124 M193.050 373.166 C 194.204 374.334,195.234 375.290,195.340 375.290 C 195.447 375.290,194.590 374.334,193.436 373.166 C 192.283 371.998,191.252 371.042,191.146 371.042 C 191.040 371.042,191.897 371.998,193.050 373.166 M206.742 373.069 L 204.826 375.097 206.853 373.181 C 207.968 372.127,208.880 371.215,208.880 371.154 C 208.880 370.865,208.523 371.186,206.742 373.069 " stroke="none" fill="#3588bc" fill-rule="evenodd"></path><path id="path6" d="M171.429 130.019 C 171.429 130.179,211.042 130.265,259.459 130.211 L 347.490 130.113 347.490 193.071 C 347.490 240.563,347.381 255.962,347.045 255.755 C 346.768 255.584,346.704 255.649,346.874 255.925 C 347.026 256.170,347.313 256.371,347.513 256.371 C 347.739 256.371,347.876 232.359,347.876 193.050 L 347.876 129.730 259.653 129.730 C 211.129 129.730,171.429 129.860,171.429 130.019 M181.853 137.592 C 181.853 137.698,182.375 138.156,183.012 138.610 C 183.649 139.064,184.170 139.348,184.170 139.242 C 184.170 139.136,183.649 138.678,183.012 138.224 C 182.375 137.770,181.853 137.486,181.853 137.592 M196.911 148.403 C 196.911 148.509,197.432 148.967,198.069 149.421 C 198.707 149.874,199.228 150.159,199.228 150.053 C 199.228 149.946,198.707 149.488,198.069 149.035 C 197.432 148.581,196.911 148.297,196.911 148.403 M211.969 159.214 C 211.969 159.320,212.490 159.778,213.127 160.232 C 213.764 160.685,214.286 160.970,214.286 160.863 C 214.286 160.757,213.764 160.299,213.127 159.846 C 212.490 159.392,211.969 159.108,211.969 159.214 M225.483 168.866 C 225.483 168.973,226.004 169.431,226.641 169.884 C 227.278 170.338,227.799 170.622,227.799 170.516 C 227.799 170.410,227.278 169.952,226.641 169.498 C 226.004 169.044,225.483 168.760,225.483 168.866 M228.185 170.797 C 228.185 170.903,228.707 171.361,229.344 171.815 C 229.981 172.268,230.502 172.553,230.502 172.446 C 230.502 172.340,229.981 171.882,229.344 171.429 C 228.707 170.975,228.185 170.691,228.185 170.797 M256.850 191.345 C 256.976 191.549,257.906 192.309,258.916 193.034 C 259.926 193.760,260.650 194.187,260.524 193.983 C 260.398 193.779,259.469 193.019,258.458 192.294 C 257.448 191.568,256.725 191.141,256.850 191.345 M271.815 202.071 C 271.815 202.177,272.336 202.635,272.973 203.089 C 273.610 203.542,274.131 203.827,274.131 203.721 C 274.131 203.614,273.610 203.156,272.973 202.703 C 272.336 202.249,271.815 201.965,271.815 202.071 M285.328 211.723 C 285.328 211.830,285.849 212.288,286.486 212.741 C 287.124 213.195,287.645 213.479,287.645 213.373 C 287.645 213.267,287.124 212.809,286.486 212.355 C 285.849 211.902,285.328 211.617,285.328 211.723 M289.575 214.812 C 289.575 214.918,290.097 215.376,290.734 215.830 C 291.371 216.284,291.892 216.568,291.892 216.462 C 291.892 216.356,291.371 215.898,290.734 215.444 C 290.097 214.990,289.575 214.706,289.575 214.812 M303.089 224.465 C 303.089 224.571,303.610 225.029,304.247 225.483 C 304.884 225.936,305.405 226.221,305.405 226.114 C 305.405 226.008,304.884 225.550,304.247 225.097 C 303.610 224.643,303.089 224.359,303.089 224.465 M318.147 235.276 C 318.147 235.382,318.668 235.840,319.305 236.293 C 319.942 236.747,320.463 237.031,320.463 236.925 C 320.463 236.819,319.942 236.361,319.305 235.907 C 318.668 235.454,318.147 235.169,318.147 235.276 " stroke="none" fill="#40508c" fill-rule="evenodd"></path><path id="path7" d="" stroke="none" fill="#305494" fill-rule="evenodd"></path><path id="path8" d="M215.347 129.633 C 239.609 129.688,279.310 129.688,303.571 129.633 C 327.833 129.578,307.983 129.533,259.459 129.533 C 210.936 129.533,191.086 129.578,215.347 129.633 " stroke="none" fill="#2c5c94" fill-rule="evenodd"></path></g></svg>