<svg id="svg" xmlns="http://www.w3.org/2000/svg" xmlns:xlink="http://www.w3.org/1999/xlink" width="400" height="319.6875" viewBox="0, 0, 400,319.6875"><g id="svgg"><path id="path0" d="M17.500 9.820 C 17.500 9.896,44.641 54.288,77.812 108.469 C 110.984 162.650,138.078 207.026,138.021 207.083 C 137.964 207.140,135.890 206.847,133.412 206.431 C 84.240 198.191,37.188 223.086,37.188 257.344 C 37.188 289.749,79.957 314.443,127.031 309.217 C 171.035 304.333,199.880 275.189,190.083 245.514 C 188.692 241.302,187.124 238.605,166.895 205.626 C 144.755 169.531,146.612 172.643,147.386 172.948 C 155.566 176.179,172.047 179.347,181.985 179.598 L 188.814 179.770 185.404 175.276 C 179.965 168.109,177.343 164.063,178.138 164.062 C 178.497 164.062,181.418 164.272,184.630 164.527 C 202.508 165.949,234.464 165.765,241.806 164.198 C 242.433 164.064,241.716 163.197,235.869 157.012 C 232.211 153.143,229.172 149.842,229.115 149.676 C 229.050 149.490,231.097 149.375,234.460 149.375 C 262.983 149.375,288.151 141.024,303.695 126.401 C 306.222 124.024,310.000 119.615,310.000 119.044 C 310.000 118.869,306.876 118.743,302.266 118.732 L 294.531 118.715 297.813 117.685 C 316.529 111.812,331.614 102.677,338.884 92.813 C 340.314 90.872,342.813 86.305,342.813 85.632 C 342.813 85.424,340.290 85.313,335.554 85.313 L 328.296 85.313 331.651 83.447 C 348.812 73.903,360.992 62.016,362.955 52.895 L 363.173 51.885 354.193 51.802 L 345.214 51.719 347.841 50.112 C 360.417 42.424,373.377 30.419,379.909 20.407 C 381.745 17.594,384.993 11.100,384.997 10.234 C 385.000 9.714,377.709 9.688,236.250 9.688 C 154.437 9.688,87.500 9.740,87.500 9.804 C 87.500 9.868,88.851 12.153,90.503 14.882 C 106.548 41.396,103.025 54.408,79.776 54.508 L 74.397 54.531 60.708 32.188 L 47.020 9.844 32.260 9.763 C 24.142 9.718,17.500 9.744,17.500 9.820 M58.377 36.458 L 72.009 58.697 75.614 58.929 C 104.261 60.773,112.300 43.930,96.097 16.016 L 94.964 14.063 236.724 14.063 L 378.483 14.063 377.471 15.859 C 370.963 27.405,356.370 40.553,338.758 50.739 L 335.173 52.813 222.914 52.813 L 110.655 52.813 111.655 54.525 L 112.656 56.238 234.799 56.244 C 350.994 56.250,356.932 56.277,356.737 56.797 C 354.291 63.328,341.754 73.183,322.813 83.464 L 317.969 86.094 224.625 86.250 L 131.282 86.406 132.229 88.047 L 133.177 89.687 234.245 89.688 C 294.004 89.688,335.313 89.803,335.313 89.969 C 335.313 90.591,332.315 94.181,330.056 96.265 C 321.104 104.524,303.490 112.437,282.411 117.670 C 279.280 118.447,276.438 119.181,276.094 119.302 C 275.750 119.422,247.607 119.593,213.554 119.682 L 151.639 119.844 152.692 121.484 L 153.744 123.125 227.419 123.139 L 301.094 123.153 299.219 124.892 C 284.040 138.967,251.287 147.573,222.792 144.973 C 220.744 144.786,218.945 144.681,218.792 144.738 C 218.640 144.796,221.862 148.359,225.951 152.656 L 233.388 160.469 231.616 160.754 C 228.807 161.206,197.339 161.156,190.313 160.688 C 182.044 160.138,172.910 159.411,171.484 159.190 C 170.840 159.090,170.313 159.113,170.313 159.241 C 170.313 160.274,176.196 170.189,179.091 174.035 L 180.129 175.414 177.123 175.202 C 169.811 174.689,151.550 170.229,139.246 165.953 C 138.229 165.600,137.374 165.346,137.344 165.390 C 137.315 165.433,147.461 182.063,159.891 202.344 C 183.717 241.219,185.094 243.584,186.359 247.813 C 199.093 290.383,127.144 321.643,72.899 297.107 C 29.064 277.280,31.500 233.865,77.470 215.631 C 97.314 207.760,126.623 206.879,145.596 213.583 C 146.353 213.850,147.035 214.007,147.111 213.931 C 147.186 213.855,139.688 201.444,130.447 186.350 C 121.206 171.256,93.890 126.633,69.745 87.188 C 45.600 47.742,25.638 15.150,25.384 14.761 L 24.922 14.054 34.834 14.136 L 44.745 14.219 58.377 36.458 " stroke="none" fill="#fab417" fill-rule="evenodd"></path><path id="path1" d="M10.625 6.081 C 10.625 6.163,37.484 50.127,70.312 103.779 C 103.141 157.432,130.000 201.467,130.000 201.636 C 130.000 201.805,129.684 201.864,129.297 201.769 C 125.324 200.786,106.258 200.741,99.531 201.699 C 59.338 207.422,33.290 229.303,33.290 257.344 C 33.290 284.191,58.171 306.243,95.313 312.316 C 148.144 320.954,197.212 293.458,195.854 255.976 C 195.442 244.603,195.530 244.787,172.980 207.986 C 163.435 192.408,155.625 179.625,155.625 179.578 C 155.625 179.532,157.668 180.018,160.166 180.658 C 169.145 182.961,177.261 183.943,184.844 183.644 C 188.787 183.489,195.017 182.587,195.502 182.102 C 195.568 182.037,193.303 178.981,190.469 175.313 C 187.635 171.644,185.350 168.616,185.392 168.584 C 185.434 168.552,186.875 168.645,188.594 168.791 C 205.454 170.224,248.274 168.624,250.166 166.491 C 250.208 166.444,247.519 163.523,244.191 160.000 C 240.863 156.477,238.137 153.488,238.133 153.359 C 238.128 153.230,239.113 153.125,240.321 153.125 C 245.286 153.125,257.097 151.510,264.531 149.815 C 287.980 144.467,305.270 134.451,315.442 120.323 C 318.119 116.605,318.316 116.877,312.924 116.860 L 308.281 116.845 311.094 116.100 C 326.427 112.035,339.768 101.184,347.508 86.481 L 349.111 83.437 344.165 83.435 L 339.219 83.433 341.961 81.813 C 354.849 74.197,365.637 60.905,368.604 48.984 L 368.818 48.125 363.471 48.125 C 360.115 48.125,358.125 48.009,358.125 47.813 C 358.125 47.641,358.242 47.500,358.384 47.500 C 358.526 47.500,360.238 46.222,362.187 44.660 C 374.965 34.423,384.683 22.266,390.007 9.858 C 390.862 7.864,391.563 6.166,391.563 6.085 C 391.563 6.004,321.602 5.938,236.094 5.938 C 150.586 5.938,80.625 6.009,80.625 6.097 C 80.625 6.185,81.800 8.119,83.237 10.394 C 101.240 38.907,100.620 50.191,81.036 50.418 L 76.604 50.469 63.018 28.281 L 49.432 6.094 30.029 6.013 C 19.357 5.969,10.625 6.000,10.625 6.081 M60.708 32.188 L 74.397 54.531 79.776 54.508 C 103.025 54.408,106.548 41.396,90.503 14.882 C 88.851 12.153,87.500 9.868,87.500 9.804 C 87.500 9.740,154.437 9.688,236.250 9.688 C 377.709 9.688,385.000 9.714,384.997 10.234 C 384.993 11.100,381.745 17.594,379.909 20.407 C 373.377 30.419,360.417 42.424,347.841 50.112 L 345.214 51.719 354.193 51.802 L 363.173 51.885 362.955 52.895 C 360.992 62.016,348.812 73.903,331.651 83.447 L 328.296 85.313 335.554 85.313 C 340.290 85.313,342.813 85.424,342.813 85.632 C 342.813 86.305,340.314 90.872,338.884 92.813 C 331.614 102.677,316.529 111.812,297.813 117.685 L 294.531 118.715 302.266 118.732 C 306.876 118.743,310.000 118.869,310.000 119.044 C 310.000 119.615,306.222 124.024,303.695 126.401 C 288.151 141.024,262.983 149.375,234.460 149.375 C 231.097 149.375,229.050 149.490,229.115 149.676 C 229.172 149.842,232.211 153.143,235.869 157.012 C 241.716 163.197,242.433 164.064,241.806 164.198 C 234.464 165.765,202.508 165.949,184.630 164.527 C 181.418 164.272,178.497 164.062,178.138 164.062 C 177.343 164.063,179.965 168.109,185.404 175.276 L 188.814 179.770 181.985 179.598 C 172.047 179.347,155.566 176.179,147.386 172.948 C 146.612 172.643,144.755 169.531,166.895 205.626 C 187.124 238.605,188.692 241.302,190.083 245.514 C 199.880 275.189,171.035 304.333,127.031 309.217 C 90.238 313.301,54.049 298.792,41.586 274.960 C 20.946 235.490,73.367 196.368,133.412 206.431 C 135.890 206.847,137.964 207.140,138.021 207.083 C 138.078 207.026,110.984 162.650,77.812 108.469 C 44.641 54.288,17.500 9.896,17.500 9.820 C 17.500 9.744,24.142 9.718,32.260 9.763 L 47.020 9.844 60.708 32.188 " stroke="none" fill="#f8f8f8" fill-rule="evenodd"></path><path id="path2" d="M25.714 14.781 C 25.801 15.009,31.421 24.257,38.203 35.332 C 60.481 71.717,144.226 208.533,145.931 211.330 C 147.957 214.653,148.115 214.514,143.750 213.241 C 111.436 203.812,73.456 211.182,53.800 230.696 C 25.427 258.865,48.710 297.031,98.750 304.376 C 150.832 312.021,197.162 281.448,185.887 246.875 C 184.741 243.359,183.657 241.517,160.165 203.127 C 147.528 182.475,137.188 165.464,137.188 165.325 C 137.187 165.187,139.332 165.769,141.953 166.620 C 158.802 172.091,180.909 176.873,179.322 174.705 C 176.213 170.457,171.207 162.197,170.307 159.829 L 169.980 158.968 172.568 159.164 C 173.992 159.271,177.898 159.568,181.250 159.824 C 199.331 161.206,232.813 161.537,232.813 160.335 C 232.812 160.212,229.496 156.629,225.443 152.373 C 221.390 148.117,218.137 144.572,218.214 144.495 C 218.291 144.418,220.023 144.518,222.064 144.717 C 250.281 147.472,283.600 138.923,298.750 125.041 L 300.469 123.466 227.105 123.452 L 153.742 123.437 152.652 121.734 C 152.053 120.797,151.562 119.883,151.562 119.703 C 151.563 119.475,170.375 119.375,213.009 119.375 L 274.456 119.375 278.038 118.572 C 304.812 112.567,329.321 100.530,334.783 90.703 L 335.348 89.688 234.158 89.681 L 132.969 89.675 131.968 87.963 L 130.967 86.250 223.927 86.250 L 316.886 86.250 320.084 84.647 C 333.248 78.049,346.093 69.376,351.995 63.103 C 353.986 60.987,356.563 57.406,356.563 56.756 C 356.563 56.650,301.717 56.563,234.684 56.563 L 112.805 56.563 111.715 54.859 C 111.115 53.922,110.625 53.078,110.625 52.984 C 110.625 52.890,161.065 52.813,222.714 52.813 L 334.803 52.813 337.949 51.022 C 354.766 41.445,370.043 27.957,376.636 16.865 L 378.115 14.375 236.678 14.375 L 95.241 14.375 95.721 15.109 C 107.540 33.146,107.545 49.778,95.735 55.726 C 90.068 58.580,74.809 60.489,72.131 58.679 C 71.807 58.460,65.511 48.438,58.139 36.406 L 44.735 14.531 35.145 14.449 C 27.276 14.381,25.583 14.440,25.714 14.781 " stroke="none" fill="#042c83" fill-rule="evenodd"></path><path id="path3" d="M0.086 0.391 C 0.169 0.605,13.122 21.841,28.869 47.581 C 44.616 73.321,57.500 94.508,57.500 94.664 C 57.500 94.820,57.611 94.995,57.748 95.052 C 58.062 95.184,90.000 147.408,90.000 147.790 C 90.000 147.945,90.110 148.120,90.245 148.177 C 90.509 148.290,109.062 178.544,109.063 178.863 C 109.063 178.969,109.271 179.303,109.527 179.606 C 109.782 179.909,112.007 183.461,114.471 187.500 L 118.952 194.844 110.960 195.044 C 51.512 196.535,12.517 237.877,32.153 278.594 C 56.164 328.382,154.093 334.559,190.685 288.594 C 202.932 273.210,205.348 253.201,197.024 236.094 C 196.272 234.547,189.482 223.227,181.937 210.938 C 174.392 198.648,168.232 188.571,168.250 188.543 C 168.267 188.515,169.828 188.710,171.719 188.976 C 181.992 190.421,195.301 189.248,203.203 186.201 C 206.153 185.064,206.310 185.811,201.939 180.200 L 198.253 175.469 211.548 175.463 C 225.433 175.457,229.928 175.183,240.057 173.728 C 247.454 172.665,260.958 169.671,260.927 169.101 C 260.921 168.994,258.742 166.594,256.083 163.768 C 253.425 160.942,251.250 158.537,251.250 158.423 C 251.250 158.308,252.378 158.121,253.758 158.006 C 280.000 155.817,308.077 140.791,326.113 119.283 L 328.788 116.094 327.494 115.996 L 326.200 115.899 328.905 114.287 C 340.708 107.251,351.587 95.562,357.183 83.906 C 359.671 78.724,359.615 79.063,357.992 79.062 L 356.629 79.062 358.974 76.797 C 364.848 71.121,370.201 62.984,373.470 54.765 C 374.356 52.535,376.563 45.329,376.563 44.663 C 376.563 44.504,375.687 44.375,374.616 44.375 L 372.670 44.375 373.913 43.360 C 387.572 32.208,397.803 15.695,399.856 1.484 L 400.071 0.000 234.723 0.000 C 143.782 0.000,69.375 0.060,69.375 0.133 C 69.375 0.205,71.133 3.020,73.281 6.388 C 75.430 9.755,77.187 12.637,77.187 12.792 C 77.187 12.946,77.304 13.120,77.447 13.177 C 77.767 13.306,82.188 20.518,82.188 20.912 C 82.187 21.069,82.299 21.245,82.436 21.302 C 82.790 21.450,85.298 25.885,87.285 29.878 C 92.410 40.174,91.280 44.123,83.074 44.587 L 80.156 44.751 66.454 22.376 L 52.752 -0.000 26.343 -0.000 C 5.342 -0.000,-0.036 0.080,0.086 0.391 M62.774 27.528 C 70.100 39.489,76.313 49.601,76.582 49.999 L 77.069 50.724 81.623 50.362 C 101.161 48.811,101.042 38.305,81.139 7.422 L 79.981 5.625 235.928 5.625 C 321.699 5.625,391.875 5.703,391.875 5.799 C 391.875 6.313,389.412 11.843,387.916 14.688 C 381.973 25.986,371.154 38.389,360.200 46.463 L 358.369 47.812 363.722 47.812 L 369.074 47.812 368.868 48.672 C 365.931 60.913,355.516 73.865,342.146 81.900 L 339.588 83.438 344.325 83.438 C 346.931 83.438,349.063 83.511,349.063 83.601 C 349.063 84.117,346.196 89.340,344.521 91.875 C 336.720 103.686,325.382 112.136,312.188 115.973 L 309.219 116.837 313.542 116.856 C 316.217 116.868,317.825 116.992,317.760 117.181 C 317.372 118.323,313.051 123.830,310.317 126.667 C 295.344 142.208,272.690 150.787,239.440 153.510 C 238.414 153.593,238.432 153.617,244.362 159.908 C 247.635 163.381,250.313 166.352,250.313 166.510 C 250.313 167.240,236.658 168.850,225.781 169.403 C 218.038 169.797,198.250 169.610,190.334 169.068 C 187.853 168.899,185.798 168.793,185.767 168.833 C 185.737 168.873,187.999 171.859,190.796 175.469 C 193.980 179.578,195.745 182.105,195.518 182.229 C 190.567 184.938,173.403 184.272,160.093 180.855 C 157.824 180.272,156.012 179.877,156.066 179.976 C 156.121 180.075,163.868 192.738,173.282 208.115 C 196.396 245.870,196.057 245.133,196.048 257.500 C 196.022 294.845,146.596 321.412,94.063 312.319 C 26.916 300.697,10.665 238.114,67.656 210.632 C 83.819 202.838,108.156 198.925,126.374 201.191 C 128.075 201.402,129.532 201.510,129.612 201.430 C 129.692 201.350,102.943 157.458,70.170 103.893 C 37.396 50.328,10.506 6.303,10.413 6.061 C 10.268 5.684,13.083 5.632,29.849 5.701 L 49.455 5.781 62.774 27.528 " stroke="none" fill="#042454" fill-rule="evenodd"></path><path id="path4" d="M231.180 145.229 C 231.915 145.295,233.040 145.294,233.680 145.227 C 234.320 145.160,233.719 145.106,232.344 145.107 C 230.969 145.108,230.445 145.163,231.180 145.229 M47.188 289.785 C 47.188 289.839,47.645 290.296,48.203 290.801 L 49.219 291.719 48.301 290.703 C 47.445 289.756,47.188 289.544,47.188 289.785 " stroke="none" fill="#596876" fill-rule="evenodd"></path><path id="path5" d="M204.301 169.596 C 204.689 169.671,205.252 169.668,205.551 169.590 C 205.849 169.511,205.531 169.450,204.844 169.454 C 204.156 169.457,203.912 169.521,204.301 169.596 M47.483 224.609 L 46.406 225.781 47.578 224.704 C 48.669 223.702,48.894 223.438,48.655 223.438 C 48.603 223.438,48.075 223.965,47.483 224.609 M32.891 257.344 C 32.895 258.031,32.959 258.276,33.034 257.887 C 33.108 257.498,33.105 256.936,33.027 256.637 C 32.949 256.338,32.888 256.656,32.891 257.344 M181.546 289.922 L 180.469 291.094 181.641 290.017 C 182.731 289.014,182.956 288.750,182.718 288.750 C 182.665 288.750,182.138 289.277,181.546 289.922 " stroke="none" fill="#778ca4" fill-rule="evenodd"></path><path id="path6" d="M73.828 58.965 C 74.129 59.044,74.621 59.044,74.922 58.965 C 75.223 58.887,74.977 58.823,74.375 58.823 C 73.773 58.823,73.527 58.887,73.828 58.965 M225.707 145.224 C 226.182 145.296,226.886 145.294,227.270 145.220 C 227.654 145.146,227.266 145.087,226.406 145.089 C 225.547 145.092,225.232 145.152,225.707 145.224 M235.540 145.226 C 236.095 145.295,237.079 145.296,237.727 145.228 C 238.376 145.160,237.922 145.104,236.719 145.103 C 235.516 145.101,234.985 145.157,235.540 145.226 M222.031 148.750 C 222.703 149.438,223.322 150.000,223.408 150.000 C 223.494 150.000,223.015 149.438,222.344 148.750 C 221.672 148.063,221.053 147.500,220.967 147.500 C 220.881 147.500,221.360 148.063,222.031 148.750 M227.969 155.000 C 228.640 155.688,229.260 156.250,229.346 156.250 C 229.432 156.250,228.953 155.688,228.281 155.000 C 227.610 154.313,226.990 153.750,226.904 153.750 C 226.818 153.750,227.297 154.313,227.969 155.000 M193.363 160.846 C 193.752 160.921,194.314 160.918,194.613 160.840 C 194.912 160.761,194.594 160.700,193.906 160.704 C 193.219 160.707,192.974 160.771,193.363 160.846 M200.859 161.164 C 201.418 161.233,202.332 161.233,202.891 161.164 C 203.449 161.094,202.992 161.038,201.875 161.038 C 200.758 161.038,200.301 161.094,200.859 161.164 M223.047 161.158 C 223.434 161.233,224.066 161.233,224.453 161.158 C 224.840 161.084,224.523 161.023,223.750 161.023 C 222.977 161.023,222.660 161.084,223.047 161.158 M107.266 209.278 C 107.566 209.357,108.059 209.357,108.359 209.278 C 108.660 209.199,108.414 209.135,107.813 209.135 C 107.211 209.135,106.965 209.199,107.266 209.278 M120.703 209.278 C 121.004 209.357,121.496 209.357,121.797 209.278 C 122.098 209.199,121.852 209.135,121.250 209.135 C 120.648 209.135,120.402 209.199,120.703 209.278 M41.361 257.344 C 41.360 258.891,41.413 259.563,41.478 258.838 C 41.544 258.112,41.545 256.847,41.480 256.025 C 41.415 255.203,41.362 255.797,41.361 257.344 M175.625 283.906 C 174.866 284.680,174.315 285.313,174.401 285.313 C 174.487 285.313,175.178 284.680,175.938 283.906 C 176.697 283.133,177.247 282.500,177.161 282.500 C 177.075 282.500,176.384 283.133,175.625 283.906 M106.953 305.528 C 107.254 305.607,107.746 305.607,108.047 305.528 C 108.348 305.449,108.102 305.385,107.500 305.385 C 106.898 305.385,106.652 305.449,106.953 305.528 M121.016 305.528 C 121.316 305.607,121.809 305.607,122.109 305.528 C 122.410 305.449,122.164 305.385,121.563 305.385 C 120.961 305.385,120.715 305.449,121.016 305.528 " stroke="none" fill="#7c744c" fill-rule="evenodd"></path><path id="path7" d="M10.312 5.859 C 10.312 6.072,24.274 6.069,42.500 5.852 C 46.367 5.807,40.707 5.737,29.922 5.697 C 19.137 5.657,10.312 5.730,10.312 5.859 M80.312 5.859 C 80.312 6.071,184.305 6.071,335.469 5.858 C 366.406 5.815,321.652 5.745,236.016 5.702 C 150.379 5.660,80.312 5.730,80.312 5.859 M358.124 47.891 C 358.125 48.020,360.551 48.098,363.516 48.066 C 369.013 48.006,368.376 47.884,361.796 47.738 C 359.776 47.693,358.124 47.762,358.124 47.891 M238.676 153.346 C 239.064 153.421,239.627 153.418,239.926 153.340 C 240.224 153.261,239.906 153.200,239.219 153.204 C 238.531 153.207,238.287 153.271,238.676 153.346 M196.328 169.278 C 196.629 169.357,197.121 169.357,197.422 169.278 C 197.723 169.199,197.477 169.135,196.875 169.135 C 196.273 169.135,196.027 169.199,196.328 169.278 M209.158 169.608 C 211.015 169.664,213.968 169.663,215.720 169.608 C 217.472 169.552,215.953 169.507,212.344 169.507 C 208.734 169.508,207.301 169.553,209.158 169.608 M112.434 200.857 C 113.515 200.918,115.203 200.917,116.184 200.856 C 117.166 200.794,116.281 200.744,114.219 200.744 C 112.156 200.745,111.353 200.795,112.434 200.857 M112.280 313.983 C 113.620 314.041,115.729 314.041,116.967 313.982 C 118.206 313.923,117.109 313.875,114.531 313.875 C 111.953 313.875,110.940 313.924,112.280 313.983 " stroke="none" fill="#7c94ac" fill-rule="evenodd"></path><path id="path8" d="M25.312 14.297 C 25.312 14.426,28.160 14.495,31.640 14.451 C 43.695 14.299,44.799 14.196,35.078 14.129 C 29.707 14.093,25.312 14.168,25.312 14.297 M166.041 14.297 C 205.028 14.341,268.731 14.341,307.604 14.297 C 346.476 14.253,314.578 14.217,236.719 14.217 C 158.859 14.217,127.054 14.253,166.041 14.297 M173.672 56.484 C 207.230 56.528,262.145 56.528,295.703 56.484 C 329.262 56.441,301.805 56.405,234.688 56.405 C 167.570 56.405,140.113 56.441,173.672 56.484 M354.677 72.109 L 352.969 73.906 354.766 72.198 C 355.754 71.259,356.563 70.450,356.563 70.401 C 356.563 70.169,356.264 70.440,354.677 72.109 M337.637 100.391 L 336.719 101.406 337.734 100.488 C 338.681 99.633,338.894 99.375,338.652 99.375 C 338.598 99.375,338.141 99.832,337.637 100.391 M182.109 119.609 C 198.996 119.654,226.629 119.654,243.516 119.609 C 260.402 119.565,246.586 119.528,212.813 119.528 C 179.039 119.528,165.223 119.565,182.109 119.609 M190.391 123.359 C 210.629 123.404,243.746 123.404,263.984 123.359 C 284.223 123.315,267.664 123.279,227.188 123.279 C 186.711 123.279,170.152 123.315,190.391 123.359 M218.438 145.098 C 218.438 145.152,218.895 145.609,219.453 146.113 L 220.469 147.031 219.551 146.016 C 218.695 145.069,218.438 144.856,218.438 145.098 M205.859 161.164 C 206.418 161.233,207.332 161.233,207.891 161.164 C 208.449 161.094,207.992 161.038,206.875 161.038 C 205.758 161.038,205.301 161.094,205.859 161.164 M218.832 161.162 C 219.307 161.234,220.011 161.232,220.395 161.157 C 220.779 161.083,220.391 161.025,219.531 161.027 C 218.672 161.029,218.357 161.090,218.832 161.162 M201.328 169.590 C 201.629 169.669,202.121 169.669,202.422 169.590 C 202.723 169.512,202.477 169.448,201.875 169.448 C 201.273 169.448,201.027 169.512,201.328 169.590 M221.328 169.590 C 221.629 169.669,222.121 169.669,222.422 169.590 C 222.723 169.512,222.477 169.448,221.875 169.448 C 221.273 169.448,221.027 169.512,221.328 169.590 M180.238 183.971 C 180.627 184.046,181.189 184.043,181.488 183.965 C 181.787 183.886,181.469 183.825,180.781 183.829 C 180.094 183.832,179.849 183.896,180.238 183.971 M183.828 183.965 C 184.129 184.044,184.621 184.044,184.922 183.965 C 185.223 183.887,184.977 183.823,184.375 183.823 C 183.773 183.823,183.527 183.887,183.828 183.965 M52.324 231.953 L 51.406 232.969 52.422 232.051 C 53.369 231.195,53.581 230.938,53.340 230.938 C 53.286 230.938,52.829 231.395,52.324 231.953 " stroke="none" fill="#3c5c7c" fill-rule="evenodd"></path></g></svg>