<svg id="svg" xmlns="http://www.w3.org/2000/svg" xmlns:xlink="http://www.w3.org/1999/xlink" width="400" height="474.6234067207416" viewBox="0, 0, 400,474.6234067207416"><g id="svgg"><path id="path0" d="M7.867 9.067 C 7.720 9.213,7.600 81.022,7.600 168.642 L 7.600 327.950 19.100 336.295 C 25.425 340.884,33.454 346.700,36.943 349.220 C 40.431 351.739,45.831 355.649,48.943 357.909 C 52.054 360.168,55.050 362.327,55.600 362.705 C 56.563 363.367,66.153 370.288,73.200 375.406 C 75.070 376.764,82.180 381.893,89.000 386.804 C 95.820 391.715,102.300 396.398,103.400 397.211 C 104.500 398.024,111.340 402.978,118.600 408.221 C 125.860 413.463,134.500 419.708,137.800 422.099 C 141.100 424.490,144.790 427.151,146.000 428.012 C 147.210 428.873,148.920 430.092,149.800 430.719 C 150.680 431.347,157.700 436.421,165.400 441.996 C 181.165 453.409,186.846 457.514,193.556 462.340 C 196.110 464.177,198.399 465.842,198.642 466.040 C 199.041 466.367,203.052 463.561,227.600 445.781 C 229.250 444.586,238.340 438.020,247.800 431.191 C 257.260 424.361,265.810 418.178,266.800 417.450 C 267.790 416.723,274.180 412.109,281.000 407.197 C 287.820 402.285,294.660 397.344,296.200 396.216 C 297.740 395.088,300.350 393.196,302.000 392.012 C 303.650 390.827,305.900 389.198,307.000 388.390 C 308.100 387.583,316.200 381.736,325.000 375.396 C 333.800 369.057,341.900 363.206,343.000 362.395 C 344.100 361.584,350.580 356.903,357.400 351.993 C 369.296 343.430,371.867 341.571,375.400 338.979 C 377.243 337.627,386.681 330.821,388.885 329.255 L 390.370 328.200 390.385 168.500 L 390.400 8.800 199.267 8.800 C 94.143 8.800,8.013 8.920,7.867 9.067 M377.600 126.800 L 377.600 232.001 199.100 231.900 L 20.600 231.800 20.499 126.700 L 20.398 21.600 198.999 21.600 L 377.600 21.600 377.600 126.800 M46.000 64.426 C 46.000 64.661,46.211 65.246,46.469 65.726 C 46.920 66.567,48.690 72.040,49.857 76.200 C 50.165 77.300,50.766 80.000,51.191 82.200 C 51.616 84.400,52.144 87.041,52.364 88.068 C 54.678 98.879,55.408 129.200,53.795 147.496 C 52.614 160.893,49.687 174.845,46.571 181.927 C 46.250 182.658,46.090 183.423,46.217 183.627 C 46.358 183.855,71.777 184.000,111.540 184.000 L 176.634 184.000 178.773 179.700 C 179.950 177.335,181.138 174.950,181.414 174.400 C 181.690 173.850,182.307 172.050,182.784 170.400 C 183.262 168.750,183.907 166.680,184.217 165.800 C 184.776 164.217,185.728 159.172,186.161 155.500 C 186.409 153.390,186.049 153.130,184.437 154.259 C 178.553 158.380,167.152 162.665,157.400 164.420 C 149.442 165.853,144.837 165.997,107.100 165.999 L 70.000 166.000 70.000 139.727 C 70.000 125.277,70.175 111.912,70.389 110.027 C 70.603 108.142,71.066 103.201,71.419 99.047 C 71.773 94.892,72.299 90.122,72.590 88.447 C 73.476 83.337,75.560 73.848,75.982 73.000 C 76.396 72.167,78.800 64.712,78.800 64.259 C 78.800 64.116,71.420 64.000,62.400 64.000 C 51.059 64.000,46.000 64.131,46.000 64.426 M205.600 64.412 C 205.600 64.639,206.037 65.863,206.572 67.134 C 208.779 72.376,211.833 86.130,213.173 96.857 C 214.857 110.333,214.635 144.795,212.807 153.800 C 212.584 154.900,211.879 158.860,211.241 162.600 C 210.047 169.596,208.083 177.369,206.791 180.214 C 206.388 181.102,205.936 182.317,205.786 182.914 L 205.513 184.000 217.557 184.000 L 229.600 184.000 229.600 160.600 L 229.600 137.200 278.797 137.200 L 327.994 137.200 328.097 160.500 L 328.200 183.800 340.100 183.906 C 353.662 184.027,352.651 184.364,351.011 180.265 C 348.362 173.642,346.408 164.354,344.392 148.800 C 343.101 138.843,343.104 109.385,344.397 99.000 C 345.016 94.033,346.825 82.264,347.194 80.811 C 348.941 73.931,350.025 70.198,350.932 67.932 C 351.519 66.464,352.000 64.979,352.000 64.632 C 352.000 64.058,345.236 64.000,278.800 64.000 C 228.839 64.000,205.600 64.131,205.600 64.412 M328.000 100.600 L 328.000 119.600 278.800 119.600 L 229.600 119.600 229.600 100.600 L 229.600 81.600 278.800 81.600 L 328.000 81.600 328.000 100.600 M377.600 282.555 L 377.600 321.511 372.948 324.855 C 370.389 326.695,367.644 328.689,366.848 329.287 C 366.052 329.884,364.500 331.004,363.400 331.775 C 362.300 332.546,360.410 333.907,359.200 334.800 C 357.990 335.692,356.545 336.732,355.988 337.111 C 354.508 338.119,349.653 341.597,347.780 342.993 C 346.888 343.657,345.651 344.560,345.030 345.000 C 342.610 346.714,332.869 353.778,329.002 356.624 C 328.122 357.271,326.811 358.204,326.087 358.698 C 325.363 359.192,324.552 359.776,324.285 359.996 C 324.018 360.217,322.630 361.239,321.200 362.268 C 319.770 363.297,317.700 364.794,316.600 365.595 C 315.500 366.396,314.210 367.310,313.733 367.626 C 312.137 368.683,304.603 374.174,304.400 374.428 C 304.290 374.566,303.548 375.111,302.751 375.640 C 301.410 376.529,300.045 377.500,294.525 381.497 C 293.384 382.324,290.594 384.335,288.325 385.967 C 286.056 387.599,282.850 389.926,281.200 391.137 C 275.866 395.053,272.748 397.310,266.200 401.995 C 263.780 403.726,261.170 405.623,260.400 406.210 C 258.833 407.405,252.343 412.072,250.800 413.113 C 250.250 413.484,248.096 415.051,246.014 416.594 C 243.931 418.137,241.828 419.670,241.339 420.000 C 239.117 421.501,232.969 425.916,231.591 427.000 C 230.753 427.660,228.656 429.187,226.933 430.394 C 225.210 431.600,222.598 433.490,221.128 434.594 C 219.659 435.697,216.869 437.724,214.928 439.097 C 212.988 440.470,208.647 443.566,205.283 445.977 L 199.166 450.361 197.465 449.280 C 196.530 448.686,195.232 447.780,194.582 447.268 C 193.460 446.383,186.197 441.083,183.200 438.962 C 182.430 438.417,180.450 436.995,178.800 435.803 C 177.150 434.611,174.990 433.053,174.000 432.342 C 170.736 429.996,168.223 428.170,166.616 426.976 C 165.744 426.329,164.629 425.530,164.137 425.200 C 163.645 424.870,161.150 423.070,158.591 421.200 C 156.032 419.330,153.158 417.260,152.205 416.600 C 148.790 414.236,142.989 410.016,142.400 409.468 C 142.070 409.161,141.080 408.438,140.200 407.861 C 139.320 407.285,137.610 406.085,136.400 405.195 C 135.190 404.305,133.300 402.952,132.200 402.189 C 131.100 401.425,129.672 400.395,129.028 399.900 C 127.923 399.052,123.777 396.025,121.624 394.494 C 121.087 394.112,119.647 393.070,118.424 392.178 C 115.996 390.406,113.726 388.777,105.400 382.833 C 103.860 381.734,101.970 380.367,101.200 379.796 C 99.027 378.184,96.441 376.307,93.600 374.278 C 92.170 373.258,90.370 371.950,89.600 371.373 C 88.830 370.796,86.755 369.304,84.988 368.057 C 83.221 366.811,80.701 364.983,79.386 363.996 C 78.072 363.008,76.227 361.660,75.286 361.000 C 73.148 359.499,70.940 357.910,65.009 353.600 C 62.436 351.730,59.912 349.924,59.400 349.587 C 58.888 349.249,57.959 348.584,57.335 348.109 C 55.093 346.402,48.961 341.946,47.000 340.598 C 45.900 339.842,44.010 338.495,42.800 337.605 C 41.590 336.715,39.882 335.495,39.004 334.893 C 38.127 334.292,35.877 332.651,34.004 331.247 C 32.132 329.843,30.195 328.509,29.700 328.283 C 29.205 328.057,28.800 327.731,28.800 327.558 C 28.800 327.386,28.125 326.830,27.300 326.323 C 26.475 325.815,24.585 324.512,23.100 323.427 L 20.400 321.455 20.400 282.527 L 20.400 243.600 199.000 243.600 L 377.600 243.600 377.600 282.555 M190.314 277.897 L 188.827 280.664 190.314 282.123 C 191.131 282.925,192.314 284.540,192.943 285.712 L 194.087 287.842 192.095 291.421 C 190.999 293.389,189.572 295.900,188.923 297.000 L 187.743 299.000 181.772 299.000 C 175.984 299.000,175.702 298.961,172.613 297.720 C 168.745 296.166,168.914 295.697,171.283 301.400 C 174.108 308.199,174.152 307.601,170.723 308.949 C 164.551 311.377,159.040 314.973,153.942 319.901 L 150.884 322.857 144.988 314.928 C 141.745 310.568,139.055 306.954,139.011 306.898 C 138.932 306.800,136.397 307.617,136.403 307.739 C 136.406 307.826,137.681 315.080,139.610 326.000 C 142.069 339.913,143.872 350.255,145.017 357.000 C 145.577 360.300,146.571 365.970,147.226 369.600 C 147.881 373.230,148.508 376.767,148.619 377.459 C 149.316 381.809,200.983 384.973,226.400 382.223 C 244.707 380.242,249.059 379.421,249.373 377.886 C 249.473 377.399,249.741 376.100,249.969 375.000 C 250.197 373.900,250.938 369.760,251.616 365.800 C 252.294 361.840,253.571 354.460,254.455 349.400 C 255.339 344.340,256.575 337.230,257.202 333.600 C 257.830 329.970,259.076 322.799,259.971 317.664 C 261.909 306.556,261.856 307.767,260.427 307.269 L 259.253 306.860 253.423 314.630 C 246.695 323.596,247.589 323.069,244.388 319.957 C 239.547 315.249,233.479 311.354,227.294 308.983 C 224.803 308.028,224.423 307.757,224.636 307.087 C 224.772 306.657,225.753 304.211,226.814 301.652 C 229.069 296.220,229.189 296.410,224.624 298.202 C 222.174 299.164,220.964 299.465,220.775 299.159 C 220.581 298.845,219.029 298.799,215.511 299.001 L 210.523 299.289 209.328 297.345 C 208.671 296.275,207.205 293.677,206.070 291.571 L 204.007 287.741 205.412 285.371 C 206.184 284.067,207.366 282.526,208.037 281.947 L 209.257 280.894 207.824 278.047 C 206.238 274.898,206.349 274.949,202.100 275.459 L 200.000 275.711 200.000 277.282 C 200.000 279.234,199.285 280.778,198.763 279.954 C 198.570 279.649,198.407 278.770,198.400 278.000 C 198.382 275.910,198.054 275.673,194.792 275.390 L 191.800 275.131 190.314 277.897 M195.584 279.800 C 195.703 280.240,196.506 281.843,197.369 283.361 L 198.937 286.123 199.805 285.035 C 200.282 284.436,201.249 282.788,201.953 281.373 C 202.837 279.597,203.463 278.800,203.974 278.800 C 205.037 278.800,205.269 279.798,204.457 280.874 C 203.217 282.520,200.400 287.524,200.400 288.083 C 200.400 288.381,201.189 289.970,202.153 291.613 C 203.117 293.256,204.927 296.355,206.176 298.500 L 208.447 302.400 211.600 302.400 C 214.812 302.400,215.392 302.635,214.959 303.764 C 214.760 304.282,214.034 304.399,211.057 304.395 L 207.400 304.390 205.627 301.295 C 204.652 299.593,202.786 296.351,201.479 294.092 L 199.103 289.984 194.896 297.192 L 190.688 304.400 187.187 304.400 C 184.363 304.400,183.639 304.278,183.443 303.767 C 182.966 302.524,183.242 302.400,186.500 302.399 L 189.800 302.399 193.925 295.180 L 198.049 287.960 195.615 283.895 C 194.275 281.659,193.274 279.585,193.388 279.287 C 193.695 278.488,195.332 278.871,195.584 279.800 M200.704 293.708 C 201.340 294.858,203.014 297.780,204.425 300.200 C 206.405 303.597,207.036 305.070,207.195 306.663 L 207.400 308.726 211.600 306.831 C 225.652 300.494,224.626 300.647,222.631 305.184 C 220.728 309.512,220.646 309.306,224.882 310.785 C 233.482 313.788,241.922 319.604,245.798 325.198 C 247.263 327.311,246.729 327.731,252.611 319.829 C 255.465 315.994,257.854 313.092,257.920 313.378 C 258.038 313.892,256.694 322.202,253.584 340.200 C 252.710 345.260,251.364 353.090,250.592 357.600 C 249.821 362.110,248.778 368.135,248.274 370.988 L 247.359 376.176 245.979 376.471 C 238.431 378.087,224.492 379.804,216.000 380.166 L 211.000 380.379 218.115 379.029 C 226.379 377.461,230.382 376.521,231.211 375.955 C 231.644 375.658,231.482 375.610,230.600 375.773 C 227.918 376.267,221.872 376.782,216.400 376.981 L 210.600 377.192 218.009 375.667 C 224.601 374.310,229.753 372.768,225.600 373.395 C 222.914 373.800,213.862 374.400,211.042 374.359 L 208.200 374.317 214.600 373.017 C 226.743 370.551,227.641 370.042,221.600 369.050 C 211.264 367.353,193.432 366.804,184.800 367.916 C 177.381 368.872,172.400 369.699,172.400 369.975 C 172.400 370.462,176.654 371.619,183.533 373.003 L 190.200 374.344 187.000 374.359 C 185.240 374.368,181.010 374.127,177.600 373.824 C 168.893 373.050,169.377 373.481,179.400 375.425 C 182.260 375.980,185.230 376.602,186.000 376.808 C 187.973 377.335,177.052 376.899,171.200 376.217 C 168.670 375.923,166.552 375.726,166.494 375.781 C 166.176 376.076,172.988 377.733,178.200 378.628 C 188.119 380.332,188.265 380.379,183.000 380.166 C 174.361 379.815,164.737 378.708,153.321 376.750 L 150.841 376.325 150.423 374.263 C 150.017 372.261,149.003 366.391,146.197 349.800 C 145.453 345.400,144.109 337.570,143.212 332.400 C 140.572 317.193,139.970 313.488,140.088 313.157 C 140.150 312.986,142.540 315.981,145.400 319.813 C 151.441 327.908,150.614 327.388,152.859 324.500 C 157.222 318.885,165.478 313.385,173.684 310.627 C 177.184 309.451,177.175 309.478,175.443 305.200 C 173.783 301.096,173.754 301.113,178.667 303.334 C 180.830 304.312,184.400 305.916,186.600 306.897 L 190.600 308.681 190.838 306.625 C 190.970 305.486,191.520 303.863,192.071 302.985 C 192.619 302.113,193.694 300.320,194.462 299.000 C 198.232 292.520,199.017 291.287,199.272 291.444 C 199.424 291.538,200.068 292.557,200.704 293.708 M219.146 313.527 C 218.172 316.052,217.119 318.656,214.020 326.200 C 212.213 330.600,210.308 335.280,209.787 336.600 C 209.266 337.920,207.858 341.340,206.658 344.200 L 204.476 349.400 206.295 349.719 C 207.296 349.894,209.032 349.984,210.153 349.919 L 212.190 349.800 214.549 345.430 C 216.078 342.599,216.783 340.894,216.554 340.586 C 215.025 338.538,214.691 337.792,214.691 336.422 C 214.691 332.431,218.799 329.938,222.350 331.774 C 226.855 334.104,227.695 339.898,223.785 341.679 C 223.226 341.934,222.848 342.348,222.945 342.600 C 223.041 342.852,223.513 345.133,223.992 347.669 L 224.864 352.280 226.729 352.707 C 229.221 353.277,229.618 352.561,230.499 345.898 C 231.654 337.163,228.110 328.960,221.334 324.684 C 219.111 323.281,218.759 322.606,220.664 323.397 C 231.089 327.727,236.531 339.841,233.676 352.358 C 233.120 354.796,233.104 354.744,234.416 354.891 C 235.723 355.038,236.311 352.682,236.661 345.886 C 236.921 340.835,236.942 340.749,238.301 339.005 L 239.677 337.238 239.034 335.303 C 237.099 329.478,231.836 323.841,225.150 320.433 C 220.871 318.252,221.132 317.758,225.710 319.373 C 231.361 321.368,238.124 326.857,241.021 331.800 L 242.127 333.687 243.448 332.144 C 245.095 330.220,245.105 329.750,243.550 327.560 C 239.979 322.533,233.963 318.097,226.323 314.859 C 220.457 312.373,219.649 312.223,219.146 313.527 M173.018 314.425 C 164.513 317.865,157.256 323.248,154.057 328.490 L 153.147 329.979 154.393 331.790 C 155.929 334.023,155.721 334.056,157.470 331.300 C 160.735 326.157,167.472 320.951,173.142 319.190 C 177.169 317.939,177.242 318.257,173.382 320.237 C 163.218 325.449,156.565 334.797,159.928 339.142 C 160.969 340.489,161.091 341.027,161.523 346.200 C 162.196 354.260,162.723 355.870,164.353 354.837 C 164.820 354.542,164.825 354.057,164.386 351.743 C 162.577 342.225,164.880 333.407,170.561 328.099 C 172.603 326.191,177.240 323.200,178.156 323.200 C 178.840 323.200,178.238 323.905,176.974 324.586 C 173.232 326.601,168.967 332.749,167.963 337.574 C 167.189 341.294,168.118 351.851,169.326 353.059 C 169.841 353.574,173.223 352.244,173.416 351.451 C 173.529 350.983,174.048 348.577,174.568 346.104 L 175.513 341.607 173.957 340.051 C 170.435 336.529,172.933 330.880,177.832 331.286 C 182.728 331.692,185.739 337.524,182.693 340.703 L 181.587 341.858 183.813 345.917 C 186.479 350.779,185.876 350.374,189.908 350.013 C 194.064 349.641,193.932 349.870,192.271 345.930 C 191.499 344.098,189.940 340.350,188.808 337.600 C 187.676 334.850,186.117 331.070,185.343 329.200 C 184.570 327.330,183.351 324.360,182.635 322.600 C 177.965 311.117,179.006 312.003,173.018 314.425 M216.658 333.381 C 214.521 335.362,215.979 340.442,218.669 340.384 C 219.135 340.374,218.939 340.168,218.131 339.817 C 215.720 338.768,215.173 335.507,217.075 333.522 C 218.399 332.140,218.105 332.041,216.658 333.381 M174.925 339.700 C 175.345 340.085,175.984 340.389,176.344 340.375 C 176.759 340.359,176.640 340.206,176.022 339.959 C 175.483 339.744,174.845 339.440,174.603 339.284 C 174.360 339.128,174.506 339.315,174.925 339.700 M221.400 339.814 C 220.740 340.117,220.481 340.372,220.824 340.382 C 221.166 340.392,221.796 340.136,222.224 339.813 C 223.172 339.096,222.969 339.096,221.400 339.814 M147.600 342.772 C 152.497 343.751,153.660 349.468,149.481 352.016 C 148.633 352.533,148.435 352.798,148.894 352.799 C 150.051 352.801,152.017 350.715,152.379 349.100 C 153.182 345.523,151.050 342.360,147.894 342.446 L 146.200 342.492 147.600 342.772 M247.138 344.017 C 244.709 346.571,245.172 350.648,248.076 352.259 C 249.589 353.099,249.907 352.855,248.485 351.945 C 244.546 349.422,245.638 343.678,250.224 342.795 L 251.800 342.492 250.238 342.446 C 248.905 342.407,248.451 342.637,247.138 344.017 M249.689 346.223 C 248.649 346.951,248.537 348.084,249.430 348.825 C 250.249 349.504,250.785 348.747,250.794 346.900 C 250.801 345.391,250.841 345.415,249.689 346.223 M147.357 346.633 C 147.491 346.981,147.600 347.701,147.600 348.233 C 147.600 349.314,148.677 349.586,149.056 348.599 C 149.479 347.495,148.843 346.000,147.950 346.000 C 147.352 346.000,147.184 346.180,147.357 346.633 " stroke="none" fill="#d5d5d5" fill-rule="evenodd"></path><path id="path1" d="M0.000 165.954 L 0.000 331.908 3.100 334.158 C 4.805 335.395,6.560 336.682,7.000 337.017 C 9.743 339.109,13.533 341.752,14.300 342.109 C 14.795 342.340,15.200 342.672,15.200 342.847 C 15.200 343.023,16.010 343.641,17.000 344.221 C 17.990 344.801,18.800 345.400,18.800 345.552 C 18.800 345.703,19.385 346.167,20.100 346.583 C 20.815 346.998,22.421 348.117,23.670 349.069 C 24.918 350.021,26.124 350.800,26.350 350.800 C 26.576 350.800,26.904 351.044,27.080 351.342 C 27.256 351.640,28.120 352.361,29.000 352.944 C 29.880 353.527,31.410 354.621,32.400 355.375 C 33.390 356.130,34.324 356.759,34.475 356.773 C 34.627 356.788,35.342 357.340,36.064 358.000 C 36.787 358.660,37.599 359.200,37.869 359.200 C 38.139 359.200,38.504 359.444,38.680 359.742 C 38.856 360.040,39.720 360.739,40.600 361.295 C 41.480 361.851,42.722 362.762,43.361 363.318 C 43.999 363.875,44.989 364.571,45.561 364.865 C 46.132 365.159,47.109 365.895,47.731 366.500 C 48.353 367.105,49.090 367.600,49.369 367.600 C 49.648 367.600,50.200 367.958,50.596 368.395 C 50.992 368.833,52.235 369.774,53.358 370.486 C 54.481 371.199,55.580 371.991,55.800 372.247 C 56.020 372.504,56.920 373.188,57.800 373.768 C 59.784 375.076,61.979 376.643,62.891 377.402 C 63.271 377.718,64.351 378.467,65.291 379.065 C 66.231 379.664,67.180 380.360,67.400 380.611 C 67.620 380.863,68.571 381.554,69.514 382.148 C 70.456 382.742,71.536 383.496,71.914 383.825 C 73.441 385.156,78.048 388.439,78.992 388.869 C 79.546 389.122,80.000 389.462,80.000 389.625 C 80.000 389.788,80.585 390.278,81.300 390.714 C 82.015 391.150,82.960 391.798,83.400 392.154 C 84.841 393.321,89.374 396.607,90.600 397.375 C 91.260 397.788,91.944 398.368,92.120 398.663 C 92.296 398.958,92.616 399.200,92.832 399.200 C 93.048 399.200,94.974 400.505,97.112 402.101 C 99.251 403.697,101.540 405.349,102.200 405.774 C 103.554 406.644,111.087 412.128,111.986 412.898 C 112.308 413.174,113.354 413.898,114.309 414.506 C 115.264 415.114,116.404 415.945,116.841 416.353 C 117.279 416.760,118.259 417.429,119.019 417.838 C 119.778 418.247,120.400 418.706,120.400 418.858 C 120.400 419.010,121.075 419.549,121.900 420.055 C 122.725 420.561,124.418 421.746,125.662 422.687 C 126.907 423.629,128.021 424.400,128.138 424.400 C 128.255 424.400,128.942 424.940,129.664 425.600 C 130.387 426.260,131.199 426.800,131.469 426.800 C 131.739 426.800,132.104 427.042,132.280 427.337 C 132.456 427.632,133.140 428.216,133.800 428.633 C 134.460 429.051,136.018 430.159,137.262 431.096 C 138.507 432.033,139.715 432.800,139.948 432.800 C 140.181 432.800,140.544 433.122,140.755 433.516 C 140.966 433.910,141.647 434.490,142.269 434.805 C 142.891 435.121,143.960 435.834,144.645 436.390 C 146.803 438.142,150.971 441.054,151.700 441.320 C 152.085 441.460,152.400 441.745,152.400 441.953 C 152.400 442.161,153.329 442.903,154.465 443.602 C 155.600 444.300,156.765 445.108,157.054 445.397 C 157.343 445.686,158.259 446.335,159.089 446.840 C 159.920 447.345,160.706 447.912,160.837 448.100 C 160.967 448.288,161.957 449.053,163.037 449.800 C 165.806 451.716,168.640 453.722,171.200 455.577 C 172.410 456.455,174.120 457.658,175.000 458.252 C 175.880 458.845,176.780 459.536,177.000 459.786 C 177.220 460.037,178.210 460.772,179.200 461.421 C 180.190 462.069,181.360 462.927,181.800 463.326 C 182.240 463.726,183.185 464.331,183.900 464.672 C 184.615 465.013,185.200 465.446,185.200 465.635 C 185.200 465.825,185.695 466.239,186.300 466.556 C 186.905 466.873,187.760 467.465,188.200 467.873 C 188.640 468.280,190.042 469.331,191.315 470.207 C 192.588 471.083,194.476 472.385,195.510 473.100 C 198.306 475.033,202.955 474.287,204.800 471.610 C 204.910 471.450,205.810 470.818,206.800 470.205 C 207.790 469.592,208.870 468.841,209.200 468.536 C 209.740 468.037,213.025 465.637,216.800 462.984 C 217.570 462.442,220.161 460.551,222.559 458.780 C 224.956 457.009,227.431 455.294,228.059 454.970 C 228.686 454.645,229.200 454.243,229.200 454.076 C 229.200 453.909,229.785 453.428,230.500 453.007 C 231.557 452.385,237.157 448.324,241.000 445.393 C 241.964 444.657,245.200 442.396,247.400 440.919 C 248.280 440.329,249.180 439.640,249.400 439.389 C 249.620 439.138,250.448 438.498,251.240 437.966 C 255.836 434.884,257.443 433.751,257.800 433.343 C 258.020 433.092,258.920 432.419,259.800 431.847 C 260.680 431.275,261.938 430.401,262.596 429.904 C 266.960 426.607,268.379 425.599,268.670 425.589 C 268.851 425.583,269.525 425.043,270.167 424.389 C 270.808 423.735,271.530 423.200,271.771 423.200 C 272.011 423.200,272.656 422.795,273.204 422.300 C 273.752 421.805,275.010 420.860,276.000 420.200 C 276.990 419.540,278.054 418.759,278.364 418.465 C 278.674 418.170,279.577 417.520,280.370 417.019 C 281.163 416.518,282.056 415.814,282.355 415.454 C 282.654 415.094,283.070 414.800,283.279 414.800 C 283.616 414.800,284.936 413.872,289.404 410.496 C 290.062 409.999,291.320 409.115,292.200 408.531 C 293.080 407.947,293.980 407.256,294.200 406.996 C 294.420 406.736,295.238 406.143,296.018 405.679 C 296.798 405.216,297.873 404.457,298.408 403.993 C 298.943 403.529,300.060 402.768,300.890 402.301 C 301.721 401.835,302.400 401.310,302.400 401.137 C 302.400 400.963,302.950 400.536,303.621 400.189 C 304.293 399.842,305.154 399.252,305.534 398.879 C 306.154 398.271,307.403 397.382,312.389 394.000 C 313.200 393.450,314.119 392.773,314.432 392.495 C 315.531 391.518,320.612 387.918,321.664 387.371 C 322.249 387.066,322.789 386.678,322.864 386.508 C 322.939 386.339,323.765 385.702,324.700 385.094 C 325.635 384.486,326.400 383.811,326.400 383.594 C 326.400 383.377,326.589 383.200,326.819 383.200 C 327.186 383.200,333.316 378.970,334.839 377.665 C 335.147 377.401,336.930 376.107,338.800 374.789 C 340.670 373.472,342.560 372.122,343.000 371.789 C 343.821 371.169,346.883 368.966,351.300 365.818 C 352.675 364.839,354.109 363.765,354.486 363.432 C 354.864 363.099,355.944 362.343,356.886 361.751 C 357.829 361.160,359.339 360.074,360.241 359.338 C 361.144 358.602,362.080 358.000,362.321 358.000 C 362.563 358.000,362.904 357.756,363.080 357.458 C 363.256 357.160,364.120 356.442,365.000 355.862 C 365.880 355.282,367.138 354.401,367.796 353.904 C 372.228 350.555,373.582 349.600,373.895 349.600 C 374.090 349.600,374.768 349.060,375.400 348.400 C 376.032 347.740,376.743 347.200,376.979 347.200 C 377.215 347.200,377.856 346.795,378.404 346.300 C 378.952 345.805,380.210 344.860,381.200 344.200 C 382.190 343.540,383.448 342.595,383.996 342.100 C 384.544 341.605,385.189 341.200,385.429 341.200 C 385.670 341.200,386.392 340.665,387.033 340.011 C 387.675 339.357,388.343 338.817,388.518 338.811 C 388.821 338.801,393.031 335.777,395.250 333.976 C 395.827 333.507,396.727 332.911,397.250 332.650 L 398.200 332.176 398.300 166.088 L 398.401 0.000 199.200 0.000 L 0.000 0.000 0.000 165.954 M390.600 168.381 L 390.600 328.561 389.152 329.581 C 388.356 330.141,385.591 332.130,383.008 334.000 C 375.536 339.410,374.320 340.284,372.200 341.770 C 371.100 342.542,367.860 344.877,365.000 346.959 C 362.140 349.042,358.990 351.333,358.000 352.049 C 357.010 352.766,355.300 354.004,354.200 354.800 C 353.100 355.596,351.341 356.867,350.291 357.624 C 346.198 360.574,341.937 363.672,338.300 366.341 C 337.145 367.189,333.950 369.482,331.200 371.437 C 328.450 373.393,326.110 375.093,326.000 375.216 C 325.890 375.339,323.045 377.411,319.677 379.820 C 316.310 382.229,312.620 384.880,311.477 385.712 C 310.335 386.543,308.500 387.854,307.400 388.625 C 306.300 389.396,304.680 390.565,303.800 391.223 C 301.809 392.713,298.068 395.416,295.804 397.000 C 294.115 398.182,290.028 401.138,279.800 408.573 C 273.950 412.825,272.956 413.543,269.000 416.367 C 267.460 417.466,265.570 418.835,264.800 419.409 C 263.616 420.291,259.018 423.635,253.200 427.847 C 252.430 428.404,250.243 429.971,248.339 431.330 C 245.203 433.568,237.380 439.214,232.447 442.800 C 231.388 443.570,228.829 445.423,226.761 446.917 C 224.692 448.412,220.660 451.342,217.800 453.428 C 214.940 455.514,210.890 458.424,208.800 459.893 C 206.710 461.363,203.748 463.523,202.217 464.693 C 198.892 467.236,200.072 467.616,191.151 461.127 C 187.124 458.197,183.427 455.530,182.936 455.200 C 181.931 454.525,173.471 448.382,171.248 446.713 C 170.452 446.116,168.900 445.013,167.800 444.263 C 166.700 443.512,164.498 441.931,162.906 440.749 C 161.314 439.567,158.614 437.613,156.906 436.406 C 155.198 435.200,152.598 433.310,151.128 432.206 C 149.659 431.103,146.810 429.030,144.796 427.600 C 142.783 426.170,140.205 424.324,139.068 423.497 C 135.417 420.845,132.646 418.854,130.800 417.558 C 129.810 416.863,128.910 416.179,128.800 416.038 C 128.690 415.897,128.060 415.438,127.400 415.018 C 126.740 414.598,124.461 412.982,122.336 411.427 C 120.211 409.872,116.719 407.340,114.576 405.800 C 112.433 404.260,109.761 402.336,108.639 401.525 C 107.518 400.714,105.790 399.464,104.800 398.749 C 103.810 398.033,102.100 396.796,101.000 396.000 C 99.900 395.204,98.190 393.970,97.200 393.258 C 94.962 391.650,90.289 388.274,86.600 385.600 C 82.911 382.926,78.238 379.550,76.000 377.942 C 75.010 377.230,73.300 375.996,72.200 375.200 C 67.520 371.812,66.458 371.048,63.800 369.157 C 62.260 368.062,59.650 366.170,58.000 364.953 C 56.350 363.736,53.380 361.583,51.400 360.167 C 46.581 356.722,39.039 351.258,37.248 349.913 C 36.452 349.316,34.900 348.213,33.800 347.463 C 32.700 346.712,30.496 345.131,28.903 343.949 C 24.940 341.009,15.918 334.464,13.810 333.000 C 12.859 332.340,10.983 331.028,9.641 330.085 L 7.200 328.370 7.200 168.418 C 7.200 40.831,7.301 8.426,7.700 8.265 C 7.975 8.154,94.240 8.094,199.400 8.131 L 390.600 8.200 390.600 168.381 M31.600 124.000 L 31.600 215.200 199.000 215.200 L 366.400 215.200 366.400 124.000 L 366.400 32.800 199.000 32.800 L 31.600 32.800 31.600 124.000 M83.600 61.411 C 83.600 61.528,83.085 62.653,82.456 63.911 C 81.827 65.170,80.903 67.460,80.403 69.000 C 79.903 70.540,79.357 71.980,79.189 72.200 C 79.022 72.420,78.312 75.114,77.612 78.187 C 76.912 81.260,76.274 83.881,76.193 84.012 C 75.919 84.454,74.422 96.153,73.712 103.400 C 73.117 109.462,73.005 114.773,73.003 137.000 L 73.000 163.400 108.200 163.388 C 149.493 163.374,153.409 163.121,165.000 159.717 C 174.345 156.973,185.252 151.512,188.000 148.200 C 189.791 146.042,190.000 150.048,188.595 159.600 C 187.391 167.784,182.918 179.589,178.704 185.700 L 177.946 186.800 109.773 186.800 C 63.331 186.800,41.600 186.669,41.600 186.389 C 41.600 186.162,42.115 184.947,42.744 183.689 C 47.206 174.758,50.552 157.453,51.578 138.000 C 51.816 133.490,52.074 128.630,52.152 127.200 C 52.470 121.315,51.228 101.005,49.999 92.000 C 48.554 81.409,45.450 69.624,42.652 64.103 C 42.073 62.961,41.600 61.841,41.600 61.613 C 41.600 61.334,48.416 61.200,62.600 61.200 C 74.150 61.200,83.600 61.295,83.600 61.411 M356.400 61.528 C 356.400 61.709,355.691 63.516,354.824 65.544 C 343.153 92.851,343.141 155.277,354.801 182.306 C 355.680 184.345,356.400 186.192,356.400 186.411 C 356.400 186.670,350.992 186.773,340.900 186.705 L 325.400 186.600 325.297 163.300 L 325.194 140.000 278.797 140.000 L 232.400 140.000 232.400 163.400 L 232.400 186.800 216.800 186.800 C 207.817 186.800,201.200 186.647,201.200 186.440 C 201.200 186.242,201.900 184.558,202.755 182.697 C 214.316 157.555,214.473 91.029,203.030 65.890 C 202.307 64.301,201.587 62.595,201.430 62.100 L 201.146 61.200 278.773 61.200 C 321.468 61.200,356.400 61.348,356.400 61.528 M232.400 100.800 L 232.400 117.200 278.800 117.200 L 325.200 117.200 325.200 100.800 L 325.200 84.400 278.800 84.400 L 232.400 84.400 232.400 100.800 M31.600 289.184 C 31.600 309.799,31.709 315.661,32.100 315.992 C 32.693 316.493,39.363 321.336,40.800 322.308 C 41.894 323.047,46.209 326.172,50.600 329.403 C 52.140 330.537,56.370 333.595,60.000 336.201 C 63.630 338.806,67.601 341.672,68.824 342.569 C 70.047 343.466,71.555 344.560,72.174 345.000 C 75.192 347.144,78.338 349.430,79.600 350.397 C 80.370 350.987,81.720 351.940,82.600 352.514 C 84.186 353.549,93.307 360.146,96.000 362.206 C 96.770 362.795,99.020 364.433,101.000 365.845 C 108.312 371.061,112.676 374.199,115.600 376.341 C 118.702 378.615,121.294 380.502,124.400 382.751 C 125.390 383.467,128.540 385.760,131.400 387.846 C 134.260 389.933,137.050 391.945,137.599 392.320 C 138.149 392.694,140.039 394.036,141.799 395.302 C 143.560 396.569,146.800 398.894,149.000 400.470 C 151.200 402.045,154.350 404.326,156.000 405.537 C 161.299 409.428,165.328 412.346,169.400 415.243 C 170.940 416.338,173.550 418.222,175.200 419.428 C 176.850 420.635,179.820 422.785,181.800 424.207 C 188.046 428.691,196.959 435.155,198.041 435.983 L 199.082 436.781 201.241 435.209 C 202.428 434.344,204.210 433.054,205.200 432.342 C 207.627 430.597,210.397 428.582,214.000 425.941 C 215.650 424.731,217.876 423.125,218.947 422.371 C 220.018 421.617,221.761 420.370,222.821 419.600 C 226.896 416.640,237.157 409.212,242.990 405.000 C 246.341 402.580,251.819 398.620,255.163 396.200 C 258.507 393.780,262.178 391.126,263.322 390.302 C 264.465 389.478,266.326 388.128,267.457 387.302 C 268.588 386.476,271.468 384.411,273.857 382.713 C 276.246 381.015,280.540 377.918,283.400 375.830 C 286.260 373.743,290.292 370.812,292.361 369.317 C 294.429 367.823,297.039 365.936,298.161 365.125 C 299.282 364.314,301.010 363.064,302.000 362.349 C 305.132 360.085,307.932 358.050,310.100 356.461 C 314.049 353.567,328.158 343.401,329.059 342.800 C 329.870 342.260,341.164 334.091,346.200 330.403 C 350.769 327.057,353.390 325.159,359.727 320.607 L 366.400 315.814 366.400 289.307 L 366.400 262.800 199.000 262.800 L 31.600 262.800 31.600 289.184 M195.900 275.195 L 198.400 275.200 198.400 276.767 C 198.400 277.629,198.509 278.618,198.642 278.965 C 199.084 280.118,199.600 279.178,199.600 277.219 L 199.600 275.285 202.900 275.113 C 206.794 274.911,206.629 274.818,208.405 278.186 L 209.800 280.833 208.354 282.172 C 207.558 282.909,206.371 284.504,205.714 285.716 L 204.520 287.920 207.098 292.460 C 208.516 294.957,209.844 297.432,210.050 297.959 L 210.425 298.919 215.813 298.693 C 219.028 298.558,221.200 298.617,221.200 298.839 C 221.200 299.043,221.875 298.918,222.700 298.560 C 224.668 297.706,228.918 296.000,229.076 296.000 C 229.587 296.000,226.048 305.499,225.083 306.717 C 224.554 307.385,224.998 307.777,227.000 308.407 C 228.646 308.926,235.643 312.303,236.000 312.751 C 236.110 312.889,237.191 313.649,238.402 314.440 C 239.613 315.231,242.097 317.283,243.922 318.999 C 245.767 320.735,247.382 321.961,247.560 321.760 C 248.104 321.150,253.725 313.595,255.088 311.644 C 255.796 310.630,257.062 309.010,257.902 308.045 L 259.428 306.291 260.714 306.956 C 261.421 307.321,261.999 307.931,261.997 308.310 C 261.994 309.160,260.519 317.795,260.212 318.763 C 260.089 319.150,259.363 323.231,258.599 327.833 C 255.615 345.796,254.461 352.463,254.236 353.051 C 254.107 353.388,253.539 356.664,252.973 360.331 C 252.408 363.999,251.704 367.990,251.409 369.200 C 251.114 370.410,250.648 373.020,250.374 375.000 C 249.750 379.507,249.840 379.406,245.890 379.998 C 244.081 380.269,241.392 380.737,239.917 381.037 C 221.855 384.707,176.817 384.314,154.238 380.288 C 147.907 379.159,148.410 379.844,146.832 370.200 C 144.849 358.072,143.700 351.386,142.606 345.600 C 142.044 342.630,141.130 337.500,140.573 334.200 C 137.899 318.327,136.798 312.068,136.426 310.600 C 135.777 308.047,135.887 307.641,137.431 306.905 C 138.846 306.230,138.871 306.233,139.646 307.211 C 140.466 308.245,144.094 313.041,145.427 314.851 C 147.573 317.766,150.889 322.000,151.027 322.000 C 151.113 322.000,151.952 321.164,152.892 320.142 C 156.827 315.862,165.297 310.367,171.000 308.394 C 173.327 307.589,173.403 307.151,171.800 303.764 C 170.473 300.958,168.793 296.274,169.029 296.037 C 169.135 295.932,170.611 296.429,172.311 297.142 C 176.165 298.759,187.356 299.501,187.866 298.172 C 188.008 297.802,189.027 295.946,190.130 294.049 C 191.233 292.152,192.500 289.951,192.946 289.157 L 193.757 287.714 192.394 285.557 C 191.644 284.371,190.399 282.840,189.626 282.155 C 188.340 281.015,188.265 280.829,188.730 279.955 C 189.010 279.430,189.521 278.460,189.866 277.800 C 191.271 275.111,191.641 274.717,192.534 274.957 C 193.010 275.085,194.525 275.192,195.900 275.195 M193.861 279.501 C 193.758 279.667,194.282 280.792,195.025 282.001 C 195.768 283.211,196.834 285.055,197.395 286.100 L 198.413 288.000 197.354 290.100 C 196.772 291.255,196.162 292.290,195.999 292.400 C 195.836 292.510,195.095 293.741,194.352 295.136 C 193.608 296.532,192.726 298.152,192.391 298.736 C 192.056 299.321,191.348 300.565,190.817 301.500 L 189.853 303.200 186.726 303.200 C 184.909 303.200,183.600 303.367,183.600 303.600 C 183.600 303.835,184.991 304.000,186.973 304.000 L 190.346 304.000 192.315 300.700 C 193.398 298.885,195.302 295.651,196.547 293.514 C 199.099 289.131,199.346 289.052,200.918 292.113 C 201.508 293.261,202.802 295.550,203.795 297.200 C 204.787 298.850,206.053 301.055,206.606 302.100 L 207.613 304.000 211.007 304.000 C 213.002 304.000,214.400 303.835,214.400 303.600 C 214.400 303.369,213.146 303.200,211.437 303.200 L 208.475 303.200 206.671 300.100 C 205.678 298.395,204.434 296.280,203.904 295.400 C 203.375 294.520,202.187 292.525,201.265 290.967 L 199.589 288.134 201.634 284.567 C 202.758 282.605,203.931 280.715,204.240 280.368 C 204.549 280.020,204.681 279.615,204.534 279.468 C 204.101 279.035,203.200 279.161,203.200 279.655 C 203.200 280.261,199.564 286.400,199.205 286.400 C 198.673 286.400,197.694 284.994,196.210 282.100 C 194.807 279.363,194.296 278.798,193.861 279.501 M197.759 294.080 C 197.180 295.224,196.304 296.799,195.814 297.580 C 192.123 303.456,191.600 304.616,191.600 306.924 C 191.600 309.667,191.527 309.683,187.542 307.838 C 177.045 302.977,174.541 301.989,174.915 302.854 C 177.639 309.148,177.892 310.000,177.036 310.000 C 171.498 310.000,156.530 319.801,151.743 326.561 L 150.920 327.723 149.071 325.361 C 148.053 324.063,145.845 321.146,144.164 318.880 C 142.482 316.614,141.035 314.832,140.948 314.919 C 140.762 315.105,143.054 329.948,143.586 331.998 C 143.786 332.769,144.417 336.443,144.990 340.163 C 145.562 343.882,146.111 347.055,146.209 347.214 C 146.307 347.373,147.030 351.440,147.817 356.251 C 149.864 368.782,151.060 375.596,151.242 375.760 C 151.329 375.838,153.020 376.192,155.000 376.547 C 156.980 376.902,159.410 377.359,160.400 377.562 C 165.719 378.658,179.514 379.620,175.200 378.595 C 166.903 376.623,164.126 375.838,163.600 375.315 C 163.068 374.787,163.136 374.746,164.200 374.956 C 169.124 375.925,182.144 376.703,178.400 375.805 C 174.211 374.800,168.733 373.266,168.500 373.034 C 167.960 372.493,168.897 372.492,174.402 373.023 C 177.591 373.331,180.830 373.568,181.600 373.551 L 183.000 373.520 181.400 373.164 C 180.520 372.968,178.900 372.548,177.800 372.230 C 176.700 371.912,174.765 371.365,173.500 371.015 C 169.927 370.025,170.964 369.543,180.000 367.990 C 191.157 366.072,212.645 366.616,223.940 369.101 C 228.355 370.073,227.372 370.642,217.200 373.007 C 213.487 373.870,218.873 373.668,228.200 372.594 C 231.290 372.239,229.491 373.394,225.644 374.237 C 223.970 374.604,222.420 375.016,222.200 375.152 C 221.980 375.288,220.900 375.605,219.800 375.855 C 216.219 376.670,228.775 375.900,233.795 374.997 C 237.604 374.312,232.977 376.157,227.400 377.548 C 222.551 378.757,221.416 379.150,222.717 379.172 C 224.692 379.204,234.434 378.169,237.400 377.611 C 244.359 376.302,246.615 375.858,246.727 375.774 C 246.969 375.594,248.047 370.174,248.829 365.200 C 249.262 362.450,250.067 357.770,250.617 354.800 C 251.774 348.557,253.158 340.423,254.804 330.200 C 255.441 326.240,256.151 322.280,256.380 321.400 C 256.922 319.325,257.625 314.691,257.428 314.494 C 257.294 314.360,252.394 320.632,250.823 322.949 C 247.874 327.296,246.953 327.845,245.823 325.932 C 244.625 323.903,239.643 319.160,236.600 317.152 C 231.612 313.859,230.078 313.125,222.107 310.219 C 220.270 309.550,220.276 309.587,221.546 306.763 C 223.379 302.689,223.460 302.265,222.339 302.610 C 221.394 302.900,215.914 305.312,210.458 307.838 C 206.756 309.552,206.800 309.558,206.800 307.389 C 206.800 305.604,205.590 302.684,203.418 299.227 C 202.925 298.442,201.754 296.495,200.815 294.900 C 198.782 291.446,199.057 291.520,197.759 294.080 M200.928 303.500 C 201.699 304.545,203.066 306.349,203.965 307.508 C 204.864 308.668,205.600 309.782,205.600 309.984 C 205.600 310.377,199.163 318.105,198.994 317.914 C 192.546 310.581,192.246 310.030,193.685 308.154 C 199.414 300.687,199.032 300.932,200.928 303.500 M186.360 308.160 C 188.648 309.173,190.766 310.206,191.065 310.454 C 191.699 310.980,191.682 338.784,191.047 338.822 C 190.655 338.845,189.558 336.323,185.038 325.000 C 184.247 323.020,183.423 321.040,183.206 320.600 C 182.713 319.600,180.790 314.921,178.931 310.200 C 178.152 308.220,177.271 306.128,176.973 305.551 C 175.975 303.616,176.311 303.709,186.360 308.160 M220.794 306.448 C 219.957 308.606,217.587 314.351,216.607 316.600 C 216.319 317.260,214.441 321.850,212.434 326.800 C 210.426 331.750,208.382 336.610,207.892 337.600 L 207.000 339.400 206.895 325.019 C 206.798 311.729,206.842 310.606,207.484 310.219 C 209.255 309.151,221.297 303.971,221.515 304.184 C 221.578 304.246,221.254 305.264,220.794 306.448 M198.111 308.500 C 197.230 309.639,197.210 310.010,197.985 310.785 C 199.143 311.943,200.800 311.363,200.800 309.800 C 200.800 308.464,198.863 307.528,198.111 308.500 M180.171 315.400 C 184.658 326.480,186.900 331.949,187.385 333.000 C 187.690 333.660,188.337 335.280,188.823 336.600 C 189.309 337.920,189.847 339.180,190.018 339.400 C 190.189 339.620,190.956 341.420,191.722 343.400 C 192.489 345.380,193.353 347.582,193.643 348.294 C 194.376 350.092,193.992 350.299,189.629 350.460 L 185.859 350.600 184.562 348.200 C 183.849 346.880,182.758 344.843,182.137 343.674 L 181.008 341.548 181.857 340.874 C 183.755 339.368,184.102 337.107,182.767 334.947 C 181.736 333.279,181.515 333.235,182.063 334.810 C 183.187 338.033,179.968 341.912,176.847 341.096 C 176.066 340.892,175.501 342.787,174.253 349.800 L 173.754 352.600 171.655 353.164 C 168.998 353.877,168.708 353.616,167.841 349.721 C 165.816 340.625,167.664 332.940,173.255 327.209 C 175.877 324.520,175.790 324.469,172.600 326.825 C 165.820 331.832,162.986 340.997,164.902 351.723 C 165.493 355.029,165.282 355.600,163.475 355.600 C 162.030 355.600,161.259 352.152,161.167 345.285 C 161.112 341.202,161.101 341.157,159.714 339.497 C 156.557 335.718,161.226 327.362,169.520 321.947 C 172.834 319.784,172.922 319.633,170.192 320.804 C 165.859 322.661,160.845 327.017,157.883 331.500 C 155.916 334.475,156.025 334.453,154.227 332.259 C 152.378 330.003,152.406 329.785,154.949 326.541 C 159.140 321.195,166.605 316.084,173.545 313.809 C 174.725 313.422,176.165 312.856,176.745 312.550 C 178.408 311.674,178.792 311.993,180.171 315.400 M221.655 312.555 C 222.235 312.858,223.675 313.420,224.855 313.805 C 234.147 316.833,246.309 327.157,244.820 330.753 C 243.442 334.080,241.863 334.444,240.473 331.756 C 238.681 328.291,233.483 323.579,228.861 321.228 C 226.204 319.877,226.472 320.492,229.360 322.374 C 233.638 325.161,237.058 329.297,238.964 333.989 C 240.282 337.231,240.275 337.330,238.600 339.374 C 237.251 341.020,237.200 341.203,237.200 344.384 C 237.200 351.299,235.884 355.998,234.124 355.370 C 232.869 354.922,232.838 354.635,233.612 350.600 C 235.440 341.075,232.063 331.589,225.000 326.414 C 221.841 324.099,221.627 324.090,224.113 326.377 C 230.100 331.883,232.213 338.835,230.581 347.656 C 229.494 353.531,229.400 353.703,227.460 353.382 C 224.431 352.880,224.394 352.817,223.201 346.200 C 222.963 344.880,222.681 343.391,222.575 342.892 C 222.423 342.184,222.677 341.810,223.727 341.190 C 226.041 339.825,226.643 337.260,225.204 334.900 C 224.163 333.191,224.084 333.247,224.303 335.534 C 224.602 338.639,222.627 341.105,219.740 341.233 C 219.226 341.255,219.372 341.429,220.215 341.799 C 221.460 342.346,221.920 343.739,223.518 351.800 L 223.835 353.400 228.507 354.631 C 231.076 355.308,233.642 356.073,234.208 356.331 C 235.691 357.007,235.969 356.929,236.453 355.700 C 237.128 353.986,237.994 347.706,237.997 344.503 C 238.000 341.802,238.097 341.479,239.435 339.703 C 240.224 338.657,241.203 337.350,241.610 336.800 C 254.194 319.790,255.473 318.140,255.811 318.478 C 256.015 318.682,254.538 328.243,254.221 328.774 C 254.146 328.898,253.700 331.610,253.228 334.800 C 252.756 337.990,252.259 340.870,252.124 341.200 C 251.988 341.530,251.860 342.062,251.839 342.383 C 251.817 342.703,251.260 343.077,250.600 343.213 C 247.703 343.812,246.085 345.996,246.581 348.641 C 246.811 349.867,248.753 352.000,249.640 352.000 C 250.156 352.000,249.794 355.910,248.835 360.685 C 248.402 362.838,247.739 366.670,247.361 369.200 C 246.534 374.728,246.706 374.584,242.657 373.139 C 234.563 370.252,226.133 368.398,212.957 366.608 C 207.310 365.841,191.634 365.700,187.075 366.376 C 185.494 366.611,181.517 367.176,178.237 367.632 C 171.664 368.547,161.940 370.890,155.886 373.018 C 153.066 374.009,151.930 374.255,151.822 373.897 C 150.942 370.994,148.275 354.125,148.611 353.582 C 148.741 353.372,148.657 353.200,148.424 353.200 C 148.191 353.200,148.000 352.930,148.000 352.600 C 148.000 352.270,148.251 352.000,148.559 352.000 C 149.544 352.000,151.600 349.273,151.600 347.966 C 151.600 345.543,149.485 343.200,147.297 343.200 C 146.523 343.200,145.047 336.535,143.399 325.600 C 143.051 323.290,142.615 320.837,142.429 320.149 C 141.625 317.168,143.090 318.737,151.235 329.579 L 159.870 341.073 160.129 345.889 C 160.418 351.267,161.791 356.671,162.827 356.512 C 163.584 356.395,172.803 353.752,173.696 353.395 C 174.498 353.075,174.890 351.757,175.840 346.200 C 176.649 341.465,176.570 341.588,178.601 341.863 C 180.073 342.061,183.200 345.853,183.200 347.438 C 183.200 347.599,183.753 348.591,184.428 349.644 L 185.656 351.558 190.528 351.328 C 196.528 351.045,196.203 351.503,194.370 345.916 L 192.832 341.231 193.594 339.116 C 196.176 331.947,198.821 325.600,199.226 325.600 C 199.376 325.600,200.038 327.085,200.698 328.900 C 201.358 330.715,202.695 334.252,203.670 336.761 L 205.442 341.321 204.173 345.161 C 203.475 347.272,202.787 349.495,202.644 350.100 L 202.385 351.200 204.892 351.203 C 206.272 351.204,208.584 351.318,210.032 351.454 L 212.663 351.703 215.523 346.376 C 218.074 341.625,218.750 339.890,217.606 341.034 C 217.279 341.361,214.827 345.687,212.922 349.300 C 212.292 350.494,207.458 350.935,205.046 350.018 L 204.040 349.635 205.461 346.118 C 206.242 344.183,207.427 341.160,208.094 339.400 C 208.760 337.640,209.452 336.014,209.630 335.786 C 209.809 335.558,210.436 334.028,211.024 332.386 C 211.612 330.744,212.238 329.218,212.415 328.996 C 212.593 328.774,213.277 327.154,213.936 325.396 C 214.595 323.638,215.972 320.220,216.996 317.800 C 218.021 315.380,218.957 313.085,219.076 312.700 C 219.337 311.860,220.226 311.810,221.655 312.555 M184.300 312.832 C 183.392 313.361,183.407 314.501,184.331 315.338 C 185.269 316.186,185.720 316.172,186.538 315.269 C 188.074 313.571,186.316 311.658,184.300 312.832 M210.229 313.029 C 209.389 313.869,209.437 314.528,210.402 315.401 C 212.029 316.875,214.274 314.434,212.720 312.880 C 212.056 312.216,210.977 312.280,210.229 313.029 M187.973 314.600 C 187.836 315.549,187.507 315.900,186.400 316.277 L 185.000 316.755 186.286 316.777 C 187.726 316.803,188.556 315.771,188.298 314.279 C 188.173 313.559,188.114 313.617,187.973 314.600 M213.713 315.568 C 213.446 315.995,212.727 316.420,212.114 316.512 C 211.020 316.677,211.023 316.681,212.251 316.740 C 213.502 316.800,214.599 315.996,214.337 315.210 C 214.260 314.980,213.979 315.141,213.713 315.568 M174.982 333.782 C 172.846 335.918,174.570 340.000,177.609 340.000 C 179.267 340.000,181.200 338.023,181.200 336.327 C 181.200 333.368,177.081 331.682,174.982 333.782 M217.900 333.232 C 215.825 334.440,215.584 336.864,217.360 338.640 C 219.088 340.368,220.799 340.474,222.219 338.942 C 225.038 335.900,221.454 331.162,217.900 333.232 M197.900 338.832 C 197.096 339.300,196.973 340.813,197.680 341.520 C 199.234 343.074,201.675 340.829,200.201 339.202 C 199.393 338.308,198.928 338.233,197.900 338.832 M249.864 338.977 C 249.436 340.092,249.552 340.400,250.400 340.400 C 251.335 340.400,251.406 340.034,250.664 339.020 C 250.164 338.337,250.111 338.334,249.864 338.977 M147.443 339.433 C 147.091 340.350,147.119 340.400,148.000 340.400 C 148.440 340.400,148.800 340.325,148.800 340.233 C 148.800 339.745,148.272 338.800,148.000 338.800 C 147.827 338.800,147.576 339.085,147.443 339.433 M245.330 340.161 C 245.478 340.548,245.600 341.031,245.600 341.233 C 245.600 341.673,246.676 341.727,246.935 341.300 C 247.035 341.135,246.654 340.653,246.088 340.228 C 245.155 339.529,245.085 339.522,245.330 340.161 M151.644 340.547 C 151.299 340.963,151.335 341.214,151.795 341.596 C 152.159 341.898,152.400 341.932,152.400 341.682 C 152.400 341.453,152.509 340.981,152.643 340.633 C 152.941 339.856,152.265 339.798,151.644 340.547 M201.654 340.569 C 201.625 340.991,201.302 341.666,200.938 342.069 C 200.574 342.471,200.462 342.800,200.689 342.800 C 201.418 342.800,202.067 341.672,201.885 340.722 C 201.747 340.001,201.697 339.968,201.654 340.569 M154.000 344.176 C 154.000 345.131,154.649 345.230,155.409 344.391 C 156.104 343.622,156.094 343.600,155.062 343.600 C 154.404 343.600,154.000 343.819,154.000 344.176 M242.800 344.200 C 243.074 344.530,243.456 344.800,243.649 344.800 C 243.842 344.800,244.000 344.530,244.000 344.200 C 244.000 343.855,243.639 343.600,243.151 343.600 C 242.442 343.600,242.384 343.699,242.800 344.200 M149.120 346.080 C 149.863 346.823,149.688 348.597,148.791 349.409 C 147.754 350.347,147.340 349.909,146.987 347.500 C 146.695 345.500,147.802 344.762,149.120 346.080 M250.974 347.500 C 250.622 349.925,250.513 350.089,249.580 349.590 C 247.826 348.651,248.330 345.600,250.239 345.600 C 251.216 345.600,251.240 345.662,250.974 347.500 M244.893 347.600 C 244.893 348.370,244.975 348.685,245.076 348.300 C 245.176 347.915,245.176 347.285,245.076 346.900 C 244.975 346.515,244.893 346.830,244.893 347.600 M154.800 348.443 C 154.800 349.047,154.979 349.217,155.433 349.043 C 155.781 348.909,156.276 348.794,156.533 348.787 C 157.043 348.773,155.650 347.600,155.124 347.600 C 154.946 347.600,154.800 347.979,154.800 348.443 M241.813 348.141 C 241.116 348.651,241.135 348.694,242.136 348.886 C 242.980 349.047,243.200 348.935,243.200 348.345 C 243.200 347.461,242.819 347.405,241.813 348.141 M153.639 351.528 C 153.375 352.021,153.338 352.400,153.553 352.400 C 153.763 352.400,154.219 352.509,154.567 352.643 C 155.345 352.941,155.382 352.402,154.653 351.404 C 154.124 350.681,154.090 350.685,153.639 351.528 M243.293 352.000 C 242.893 352.641,242.893 352.799,243.297 352.794 C 244.144 352.784,244.918 352.115,244.628 351.645 C 244.228 350.997,243.857 351.096,243.293 352.000 M150.189 354.418 C 149.926 354.844,150.659 356.000,151.194 356.000 C 151.356 356.000,151.403 355.550,151.298 355.000 C 151.098 353.954,150.628 353.707,150.189 354.418 M246.800 355.003 C 246.800 355.907,246.880 355.957,247.600 355.507 C 248.565 354.905,248.610 354.566,247.767 354.243 C 246.834 353.885,246.800 353.911,246.800 355.003 M185.900 356.832 C 184.082 357.891,185.746 360.992,187.600 360.000 C 188.669 359.428,188.686 357.381,187.626 356.814 C 186.705 356.321,186.778 356.321,185.900 356.832 M208.800 357.200 C 207.648 358.352,208.379 360.400,209.943 360.400 C 211.611 360.400,212.300 357.603,210.826 356.814 C 209.794 356.262,209.725 356.275,208.800 357.200 M189.333 359.429 C 189.081 359.963,189.026 360.400,189.211 360.400 C 189.558 360.400,190.181 358.847,189.932 358.599 C 189.855 358.522,189.585 358.895,189.333 359.429 M212.272 359.709 L 211.545 361.000 212.419 360.142 C 212.901 359.670,213.228 359.089,213.147 358.851 C 213.066 358.613,212.673 358.999,212.272 359.709 M165.429 360.629 C 164.220 361.837,164.916 363.600,166.600 363.600 C 168.284 363.600,168.980 361.837,167.771 360.629 C 167.426 360.283,166.899 360.000,166.600 360.000 C 166.301 360.000,165.774 360.283,165.429 360.629 M228.713 361.031 C 228.133 362.305,228.672 363.340,230.018 363.538 C 231.650 363.778,232.562 361.819,231.371 360.629 C 230.425 359.682,229.247 359.860,228.713 361.031 M169.254 362.067 C 169.225 362.434,169.084 363.064,168.941 363.467 C 168.741 364.033,168.795 364.096,169.175 363.746 C 169.446 363.497,169.587 362.867,169.488 362.346 C 169.390 361.826,169.284 361.700,169.254 362.067 " stroke="none" fill="#131313" fill-rule="evenodd"></path><path id="path2" d="M390.598 168.400 C 390.598 256.290,390.644 292.245,390.700 248.300 C 390.756 204.355,390.756 132.445,390.700 88.500 C 390.644 44.555,390.598 80.510,390.598 168.400 M366.400 123.880 C 366.290 174.304,366.335 215.425,366.501 215.259 C 366.666 215.094,366.756 173.838,366.701 123.579 L 366.600 32.200 366.400 123.880 M49.200 61.489 C 68.248 61.768,83.107 61.773,82.938 61.500 C 82.836 61.335,73.538 61.241,62.276 61.291 C 51.014 61.340,45.130 61.430,49.200 61.489 M229.600 61.497 C 303.576 61.770,356.400 61.771,356.400 61.500 C 356.400 61.335,321.615 61.244,279.100 61.297 C 236.585 61.351,214.310 61.441,229.600 61.497 M232.183 84.501 C 232.077 84.776,232.040 92.291,232.100 101.201 L 232.209 117.400 232.305 100.902 L 232.400 84.403 278.900 84.300 L 325.400 84.197 278.887 84.098 C 241.948 84.020,232.335 84.103,232.183 84.501 M211.293 106.400 C 211.293 107.170,211.375 107.485,211.476 107.100 C 211.576 106.715,211.576 106.085,211.476 105.700 C 211.375 105.315,211.293 105.630,211.293 106.400 M346.109 108.800 C 346.109 109.790,346.187 110.195,346.282 109.700 C 346.378 109.205,346.378 108.395,346.282 107.900 C 346.187 107.405,346.109 107.810,346.109 108.800 M72.893 109.200 C 72.893 109.970,72.975 110.285,73.076 109.900 C 73.176 109.515,73.176 108.885,73.076 108.500 C 72.975 108.115,72.893 108.430,72.893 109.200 M211.714 113.400 C 211.717 114.500,211.795 114.903,211.887 114.295 C 211.979 113.686,211.977 112.786,211.882 112.295 C 211.787 111.803,211.711 112.300,211.714 113.400 M345.746 117.800 C 345.747 120.000,345.814 120.849,345.895 119.687 C 345.976 118.524,345.976 116.724,345.893 115.687 C 345.811 114.649,345.745 115.600,345.746 117.800 M72.586 142.200 C 72.587 154.080,72.638 158.882,72.700 152.872 C 72.762 146.861,72.762 137.141,72.700 131.272 C 72.637 125.402,72.586 130.320,72.586 142.200 M345.746 130.200 C 345.747 132.400,345.814 133.249,345.895 132.087 C 345.976 130.924,345.976 129.124,345.893 128.087 C 345.811 127.049,345.745 128.000,345.746 130.200 M211.714 134.600 C 211.717 135.700,211.795 136.103,211.887 135.495 C 211.979 134.886,211.977 133.986,211.882 133.495 C 211.787 133.003,211.711 133.500,211.714 134.600 M346.101 139.000 C 346.105 139.880,346.187 140.193,346.283 139.695 C 346.379 139.198,346.375 138.478,346.275 138.095 C 346.175 137.713,346.096 138.120,346.101 139.000 M232.187 163.000 C 232.187 175.760,232.238 181.038,232.300 174.729 C 232.362 168.419,232.362 157.979,232.300 151.529 C 232.238 145.078,232.187 150.240,232.187 163.000 M211.293 141.600 C 211.293 142.370,211.375 142.685,211.476 142.300 C 211.576 141.915,211.576 141.285,211.476 140.900 C 211.375 140.515,211.293 140.830,211.293 141.600 M115.533 262.700 C 161.586 262.756,236.826 262.756,282.733 262.700 C 328.640 262.644,290.960 262.598,199.000 262.598 C 107.040 262.598,69.480 262.644,115.533 262.700 M366.589 289.400 C 366.589 304.140,366.639 310.112,366.700 302.671 C 366.761 295.230,366.761 283.170,366.700 275.871 C 366.639 268.572,366.589 274.660,366.589 289.400 M196.808 308.191 C 196.033 309.124,196.530 309.762,197.336 308.870 C 197.737 308.427,197.885 307.976,197.671 307.844 C 197.462 307.715,197.073 307.871,196.808 308.191 M201.091 309.625 C 201.201 310.046,201.450 310.292,201.645 310.172 C 202.172 309.846,202.075 309.314,201.445 309.073 C 201.057 308.924,200.951 309.089,201.091 309.625 M196.400 310.538 C 196.400 311.078,197.629 312.400,198.131 312.400 C 198.699 312.400,198.362 311.461,197.539 310.747 C 196.512 309.856,196.400 309.836,196.400 310.538 M206.886 324.500 C 206.839 332.145,206.935 338.400,207.100 338.400 C 207.373 338.401,207.366 327.490,207.085 315.400 C 207.023 312.760,206.934 316.855,206.886 324.500 M199.784 311.627 C 199.315 312.386,199.999 312.573,200.695 311.876 C 201.319 311.253,201.320 311.200,200.709 311.200 C 200.345 311.200,199.929 311.392,199.784 311.627 M211.200 311.643 C 211.200 311.886,210.933 311.983,210.606 311.858 C 210.244 311.719,209.835 311.975,209.557 312.515 C 209.182 313.245,209.195 313.312,209.631 312.900 C 210.412 312.161,213.197 312.282,214.169 313.097 C 214.755 313.589,214.711 313.468,214.019 312.685 C 213.480 312.075,212.805 311.666,212.519 311.776 C 212.234 311.885,212.000 311.801,212.000 311.587 C 212.000 311.374,211.820 311.200,211.600 311.200 C 211.380 311.200,211.200 311.399,211.200 311.643 M183.566 312.240 C 183.308 312.552,183.786 312.669,185.198 312.640 C 186.296 312.618,187.142 312.439,187.078 312.242 C 186.908 311.722,183.997 311.721,183.566 312.240 M209.206 314.433 C 209.209 314.965,209.389 315.670,209.606 316.000 C 209.882 316.422,209.923 316.185,209.742 315.200 C 209.425 313.475,209.198 313.149,209.206 314.433 M254.749 319.477 C 254.442 319.855,254.407 320.029,254.670 319.872 C 254.944 319.708,255.217 319.884,255.325 320.295 C 255.427 320.683,255.492 320.505,255.468 319.900 C 255.418 318.602,255.446 318.618,254.749 319.477 M173.604 332.995 C 173.328 333.328,173.169 333.614,173.251 333.631 C 174.479 333.883,174.828 333.879,174.994 333.610 C 175.413 332.931,174.129 332.363,173.604 332.995 M214.800 336.400 C 214.800 337.060,214.949 337.600,215.131 337.600 C 215.313 337.600,215.382 337.060,215.285 336.400 C 215.188 335.740,215.040 335.200,214.955 335.200 C 214.870 335.200,214.800 335.740,214.800 336.400 M173.440 339.135 C 173.313 339.341,173.461 339.718,173.769 339.974 C 174.100 340.249,174.423 340.286,174.560 340.065 C 174.687 339.859,174.539 339.482,174.231 339.226 C 173.900 338.951,173.577 338.914,173.440 339.135 M250.200 340.400 L 249.000 340.705 250.076 340.753 C 250.668 340.779,251.264 340.620,251.400 340.400 C 251.536 340.180,251.592 340.021,251.524 340.047 C 251.456 340.073,250.860 340.232,250.200 340.400 M159.720 343.600 C 159.720 344.810,159.795 345.305,159.887 344.700 C 159.978 344.095,159.978 343.105,159.887 342.500 C 159.795 341.895,159.720 342.390,159.720 343.600 M234.093 345.200 C 234.093 345.970,234.175 346.285,234.276 345.900 C 234.376 345.515,234.376 344.885,234.276 344.500 C 234.175 344.115,234.093 344.430,234.093 345.200 M247.809 355.591 C 247.415 356.025,246.937 356.285,246.747 356.167 C 246.556 356.049,246.400 356.143,246.400 356.376 C 246.400 357.077,247.005 356.859,248.000 355.800 C 248.517 355.250,248.846 354.800,248.732 354.800 C 248.617 354.800,248.202 355.156,247.809 355.591 M211.771 358.620 C 211.755 359.357,211.890 359.868,212.071 359.756 C 212.483 359.502,212.505 357.712,212.100 357.463 C 211.935 357.362,211.787 357.883,211.771 358.620 M187.462 360.583 C 187.292 361.026,187.476 361.198,188.113 361.194 C 188.601 361.191,188.820 361.053,188.600 360.889 C 188.380 360.725,188.087 360.450,187.949 360.278 C 187.812 360.106,187.592 360.243,187.462 360.583 M231.520 360.480 C 231.784 360.744,232.000 361.374,232.000 361.880 C 232.000 362.386,232.174 362.800,232.387 362.800 C 232.601 362.800,232.664 362.512,232.529 362.160 C 232.394 361.807,232.476 361.400,232.711 361.255 C 232.960 361.101,232.699 360.783,232.089 360.495 C 231.305 360.125,231.161 360.121,231.520 360.480 M168.000 363.400 C 167.722 363.735,167.679 364.000,167.902 364.000 C 168.122 364.000,168.526 363.730,168.800 363.400 C 169.078 363.065,169.121 362.800,168.898 362.800 C 168.678 362.800,168.274 363.070,168.000 363.400 M183.109 376.865 C 182.804 377.058,183.280 377.190,184.300 377.194 C 185.235 377.197,186.000 377.130,186.000 377.045 C 186.000 376.711,183.589 376.560,183.109 376.865 M213.600 376.800 C 213.134 377.101,213.251 377.189,214.124 377.194 C 214.772 377.197,215.143 377.031,215.000 376.800 C 214.693 376.303,214.369 376.303,213.600 376.800 M190.900 383.476 C 191.285 383.576,191.915 383.576,192.300 383.476 C 192.685 383.375,192.370 383.293,191.600 383.293 C 190.830 383.293,190.515 383.375,190.900 383.476 M206.500 383.476 C 206.885 383.576,207.515 383.576,207.900 383.476 C 208.285 383.375,207.970 383.293,207.200 383.293 C 206.430 383.293,206.115 383.375,206.500 383.476 " stroke="none" fill="#656665" fill-rule="evenodd"></path><path id="path3" d="M325.600 100.720 L 325.800 117.400 325.904 101.025 C 325.962 92.018,325.872 84.512,325.705 84.344 C 325.537 84.177,325.490 91.546,325.600 100.720 M72.524 118.600 C 72.526 119.920,72.601 120.412,72.690 119.693 C 72.779 118.974,72.777 117.894,72.686 117.293 C 72.595 116.692,72.522 117.280,72.524 118.600 M255.500 139.900 C 268.315 139.959,289.285 139.959,302.100 139.900 C 314.915 139.841,304.430 139.793,278.800 139.793 C 253.170 139.793,242.685 139.841,255.500 139.900 M325.787 163.000 C 325.787 175.760,325.838 181.038,325.900 174.729 C 325.962 168.419,325.962 157.979,325.900 151.529 C 325.838 145.078,325.787 150.240,325.787 163.000 M89.530 163.900 C 98.841 163.960,113.961 163.960,123.130 163.900 C 132.298 163.840,124.680 163.791,106.200 163.791 C 87.720 163.791,80.218 163.840,89.530 163.900 M199.693 277.600 C 199.693 278.370,199.775 278.685,199.876 278.300 C 199.976 277.915,199.976 277.285,199.876 276.900 C 199.775 276.515,199.693 276.830,199.693 277.600 M206.914 307.000 C 206.917 308.100,206.995 308.503,207.087 307.895 C 207.179 307.286,207.177 306.386,207.082 305.895 C 206.987 305.403,206.911 305.900,206.914 307.000 M184.546 311.687 C 184.440 311.859,184.813 312.000,185.376 312.000 C 185.939 312.000,186.400 311.831,186.400 311.625 C 186.400 311.181,184.826 311.234,184.546 311.687 M190.711 324.400 C 190.650 331.660,190.735 337.600,190.900 337.600 C 191.065 337.600,191.200 331.660,191.200 324.400 C 191.200 317.140,191.115 311.200,191.011 311.200 C 190.906 311.200,190.771 317.140,190.711 324.400 M186.662 312.800 C 186.916 313.130,187.206 313.850,187.307 314.400 L 187.491 315.400 187.546 314.349 C 187.576 313.770,187.286 313.052,186.900 312.749 C 186.291 312.271,186.260 312.278,186.662 312.800 M208.923 314.962 C 208.965 315.381,209.316 315.771,209.702 315.827 C 210.088 315.884,210.301 315.763,210.174 315.558 C 210.048 315.354,209.791 315.282,209.603 315.398 C 209.414 315.515,209.167 315.293,209.053 314.905 C 208.877 314.305,208.857 314.314,208.923 314.962 M176.000 332.156 C 176.000 332.477,178.856 332.632,179.048 332.323 C 179.158 332.145,178.517 332.000,177.624 332.000 C 176.731 332.000,176.000 332.070,176.000 332.156 M197.113 367.095 C 198.276 367.176,200.076 367.176,201.113 367.093 C 202.151 367.011,201.200 366.945,199.000 366.946 C 196.800 366.947,195.951 367.014,197.113 367.095 M193.300 383.476 C 193.685 383.576,194.315 383.576,194.700 383.476 C 195.085 383.375,194.770 383.293,194.000 383.293 C 193.230 383.293,192.915 383.375,193.300 383.476 " stroke="none" fill="#848484" fill-rule="evenodd"></path><path id="path4" d="M7.862 8.700 C 7.694 8.971,135.479 8.970,321.400 8.699 C 359.460 8.643,304.526 8.553,199.324 8.499 C 94.122 8.444,7.964 8.535,7.862 8.700 M20.499 126.700 L 20.600 231.800 199.100 231.900 L 377.600 232.001 377.600 126.800 L 377.600 21.600 198.999 21.600 L 20.398 21.600 20.499 126.700 M366.800 124.000 L 366.800 215.600 199.200 215.600 L 31.600 215.600 31.600 124.000 L 31.600 32.400 199.200 32.400 L 366.800 32.400 366.800 124.000 M43.444 64.669 C 55.252 90.579,55.463 155.174,43.829 182.335 C 43.043 184.170,42.400 185.835,42.400 186.035 C 42.400 186.253,69.633 186.400,110.128 186.400 L 177.857 186.400 179.690 183.100 C 184.905 173.709,187.229 166.684,188.582 156.217 C 189.585 148.455,189.479 147.701,187.600 149.233 C 181.902 153.879,172.071 158.453,162.628 160.850 C 151.380 163.706,144.367 164.072,103.800 163.918 L 72.600 163.800 72.479 142.600 C 72.277 107.317,73.875 87.714,78.005 74.783 C 78.433 73.446,78.981 71.597,79.225 70.676 C 79.468 69.754,80.372 67.425,81.234 65.499 C 82.095 63.574,82.800 61.909,82.800 61.799 C 82.800 61.690,73.630 61.600,62.423 61.600 L 42.046 61.600 43.444 64.669 M201.600 61.814 C 201.600 61.932,201.864 62.431,202.186 62.922 C 208.227 72.143,212.302 99.649,211.878 128.352 C 211.655 143.451,211.461 146.041,209.599 158.800 C 208.310 167.635,204.310 181.836,202.207 185.045 C 201.319 186.400,201.319 186.400,217.063 186.400 L 231.994 186.400 232.097 163.100 L 232.200 139.800 278.200 139.690 C 303.500 139.630,324.605 139.678,325.100 139.798 L 326.000 140.015 326.000 163.208 L 326.000 186.400 341.000 186.400 C 349.250 186.400,356.000 186.303,356.000 186.184 C 356.000 186.065,355.636 185.255,355.192 184.384 C 342.537 159.578,342.541 88.413,355.200 63.601 C 355.640 62.738,356.000 61.935,356.000 61.816 C 356.000 61.697,321.260 61.600,278.800 61.600 C 236.340 61.600,201.600 61.696,201.600 61.814 M78.800 64.259 C 78.800 64.712,76.396 72.167,75.982 73.000 C 75.560 73.848,73.476 83.337,72.590 88.447 C 72.299 90.122,71.773 94.892,71.419 99.047 C 71.066 103.201,70.603 108.142,70.389 110.027 C 70.175 111.912,70.000 125.277,70.000 139.727 L 70.000 166.000 107.100 165.999 C 144.837 165.997,149.442 165.853,157.400 164.420 C 167.152 162.665,178.553 158.380,184.437 154.259 C 186.049 153.130,186.409 153.390,186.161 155.500 C 185.728 159.172,184.776 164.217,184.217 165.800 C 183.907 166.680,183.262 168.750,182.784 170.400 C 182.307 172.050,181.690 173.850,181.414 174.400 C 181.138 174.950,179.950 177.335,178.773 179.700 L 176.634 184.000 111.540 184.000 C 71.777 184.000,46.358 183.855,46.217 183.627 C 46.090 183.423,46.250 182.658,46.571 181.927 C 49.687 174.845,52.614 160.893,53.795 147.496 C 55.408 129.200,54.678 98.879,52.364 88.068 C 52.144 87.041,51.616 84.400,51.191 82.200 C 50.766 80.000,50.165 77.300,49.857 76.200 C 48.690 72.040,46.920 66.567,46.469 65.726 C 46.211 65.246,46.000 64.661,46.000 64.426 C 46.000 64.131,51.059 64.000,62.400 64.000 C 71.420 64.000,78.800 64.116,78.800 64.259 M352.000 64.632 C 352.000 64.979,351.519 66.464,350.932 67.932 C 350.025 70.198,348.941 73.931,347.194 80.811 C 346.825 82.264,345.016 94.033,344.397 99.000 C 343.104 109.385,343.101 138.843,344.392 148.800 C 346.408 164.354,348.362 173.642,351.011 180.265 C 352.651 184.364,353.662 184.027,340.100 183.906 L 328.200 183.800 328.097 160.500 L 327.994 137.200 278.797 137.200 L 229.600 137.200 229.600 160.600 L 229.600 184.000 217.557 184.000 L 205.513 184.000 205.786 182.914 C 205.936 182.317,206.388 181.102,206.791 180.214 C 208.083 177.369,210.047 169.596,211.241 162.600 C 211.879 158.860,212.584 154.900,212.807 153.800 C 214.635 144.795,214.857 110.333,213.173 96.857 C 211.833 86.130,208.779 72.376,206.572 67.134 C 206.037 65.863,205.600 64.639,205.600 64.412 C 205.600 64.131,228.839 64.000,278.800 64.000 C 345.236 64.000,352.000 64.058,352.000 64.632 M229.600 100.600 L 229.600 119.600 278.800 119.600 L 328.000 119.600 328.000 100.600 L 328.000 81.600 278.800 81.600 L 229.600 81.600 229.600 100.600 M325.904 100.700 L 326.009 117.200 279.004 117.200 L 232.000 117.200 232.000 100.867 C 232.000 91.883,232.121 84.413,232.268 84.265 C 232.416 84.117,253.521 84.042,279.168 84.098 L 325.800 84.200 325.904 100.700 M20.400 282.527 L 20.400 321.455 23.100 323.427 C 24.585 324.512,26.475 325.815,27.300 326.323 C 28.125 326.830,28.800 327.386,28.800 327.558 C 28.800 327.731,29.205 328.057,29.700 328.283 C 30.195 328.509,32.132 329.843,34.004 331.247 C 35.877 332.651,38.127 334.292,39.004 334.893 C 39.882 335.495,41.590 336.715,42.800 337.605 C 44.010 338.495,45.900 339.842,47.000 340.598 C 48.961 341.946,55.093 346.402,57.335 348.109 C 57.959 348.584,58.888 349.249,59.400 349.587 C 59.912 349.924,62.436 351.730,65.009 353.600 C 70.940 357.910,73.148 359.499,75.286 361.000 C 76.227 361.660,78.072 363.008,79.386 363.996 C 80.701 364.983,83.221 366.811,84.988 368.057 C 86.755 369.304,88.830 370.796,89.600 371.373 C 90.370 371.950,92.170 373.258,93.600 374.278 C 96.441 376.307,99.027 378.184,101.200 379.796 C 101.970 380.367,103.860 381.734,105.400 382.833 C 113.726 388.777,115.996 390.406,118.424 392.178 C 119.647 393.070,121.087 394.112,121.624 394.494 C 123.777 396.025,127.923 399.052,129.028 399.900 C 129.672 400.395,131.100 401.425,132.200 402.189 C 133.300 402.952,135.190 404.305,136.400 405.195 C 137.610 406.085,139.320 407.285,140.200 407.861 C 141.080 408.438,142.070 409.161,142.400 409.468 C 142.989 410.016,148.790 414.236,152.205 416.600 C 153.158 417.260,156.032 419.330,158.591 421.200 C 161.150 423.070,163.645 424.870,164.137 425.200 C 164.629 425.530,165.744 426.329,166.616 426.976 C 168.223 428.170,170.736 429.996,174.000 432.342 C 174.990 433.053,177.150 434.611,178.800 435.803 C 180.450 436.995,182.430 438.417,183.200 438.962 C 186.197 441.083,193.460 446.383,194.582 447.268 C 195.232 447.780,196.530 448.686,197.465 449.280 L 199.166 450.361 205.283 445.977 C 208.647 443.566,212.988 440.470,214.928 439.097 C 216.869 437.724,219.659 435.697,221.128 434.594 C 222.598 433.490,225.210 431.600,226.933 430.394 C 228.656 429.187,230.753 427.660,231.591 427.000 C 232.969 425.916,239.117 421.501,241.339 420.000 C 241.828 419.670,243.931 418.137,246.014 416.594 C 248.096 415.051,250.250 413.484,250.800 413.113 C 252.343 412.072,258.833 407.405,260.400 406.210 C 261.170 405.623,263.780 403.726,266.200 401.995 C 272.748 397.310,275.866 395.053,281.200 391.137 C 282.850 389.926,286.056 387.599,288.325 385.967 C 290.594 384.335,293.384 382.324,294.525 381.497 C 300.045 377.500,301.410 376.529,302.751 375.640 C 303.548 375.111,304.290 374.566,304.400 374.428 C 304.603 374.174,312.137 368.683,313.733 367.626 C 314.210 367.310,315.500 366.396,316.600 365.595 C 317.700 364.794,319.770 363.297,321.200 362.268 C 322.630 361.239,324.018 360.217,324.285 359.996 C 324.552 359.776,325.363 359.192,326.087 358.698 C 326.811 358.204,328.122 357.271,329.002 356.624 C 332.869 353.778,342.610 346.714,345.030 345.000 C 345.651 344.560,346.888 343.657,347.780 342.993 C 349.653 341.597,354.508 338.119,355.988 337.111 C 356.545 336.732,357.990 335.692,359.200 334.800 C 360.410 333.907,362.300 332.546,363.400 331.775 C 364.500 331.004,366.052 329.884,366.848 329.287 C 367.644 328.689,370.389 326.695,372.948 324.855 L 377.600 321.511 377.600 282.555 L 377.600 243.600 199.000 243.600 L 20.400 243.600 20.400 282.527 M366.703 289.295 L 366.806 315.990 363.903 318.125 C 362.306 319.299,359.200 321.554,357.000 323.135 C 352.850 326.117,344.704 332.010,336.859 337.704 C 334.362 339.517,331.932 341.269,331.459 341.598 C 330.987 341.927,327.810 344.216,324.400 346.684 C 320.990 349.152,316.508 352.393,314.439 353.886 C 312.371 355.379,309.813 357.230,308.754 358.000 C 307.695 358.770,305.085 360.660,302.954 362.200 C 300.822 363.740,298.071 365.734,296.839 366.632 C 292.562 369.749,279.791 378.960,278.200 380.076 C 277.320 380.693,274.684 382.593,272.342 384.299 C 270.000 386.004,265.860 389.001,263.142 390.959 C 260.424 392.916,257.300 395.184,256.200 395.998 C 255.100 396.812,246.010 403.386,236.000 410.606 C 225.990 417.826,216.792 424.469,215.561 425.367 C 214.329 426.265,211.629 428.221,209.561 429.713 C 207.492 431.205,204.310 433.509,202.488 434.832 L 199.176 437.238 194.560 433.919 C 192.021 432.094,189.433 430.240,188.810 429.800 C 188.186 429.360,185.572 427.470,183.000 425.600 C 180.429 423.730,177.937 421.930,177.462 421.600 C 176.988 421.271,172.820 418.267,168.200 414.926 C 163.580 411.584,158.990 408.265,158.000 407.549 C 155.156 405.493,152.351 403.462,150.400 402.045 C 149.410 401.327,143.740 397.235,137.800 392.954 C 131.860 388.672,126.190 384.572,125.200 383.843 C 124.210 383.114,121.690 381.291,119.600 379.791 C 117.510 378.292,114.900 376.403,113.800 375.594 C 111.530 373.925,83.657 353.823,80.600 351.651 C 79.500 350.869,76.980 349.038,75.000 347.583 C 73.020 346.127,65.820 340.918,59.000 336.007 C 52.180 331.095,45.970 326.610,45.200 326.039 C 44.430 325.467,41.542 323.380,38.783 321.400 C 36.023 319.420,33.278 317.414,32.683 316.942 L 31.600 316.085 31.600 289.242 L 31.600 262.399 199.100 262.500 L 366.600 262.600 366.703 289.295 M195.885 306.043 L 192.793 310.025 195.876 313.612 C 199.562 317.901,198.784 317.906,202.337 313.572 L 205.273 309.990 202.394 306.192 C 200.810 304.103,199.393 302.320,199.246 302.228 C 199.098 302.137,197.585 303.854,195.885 306.043 M184.700 302.693 C 185.635 302.777,187.165 302.777,188.100 302.693 C 189.035 302.609,188.270 302.540,186.400 302.540 C 184.530 302.540,183.765 302.609,184.700 302.693 M211.588 302.689 C 213.295 302.775,214.723 303.045,214.919 303.319 C 215.160 303.659,215.213 303.624,215.098 303.200 C 214.972 302.734,214.227 302.593,211.768 302.570 L 208.600 302.540 211.588 302.689 M177.963 306.700 C 178.676 308.485,179.877 311.411,183.011 319.000 C 183.738 320.760,184.960 323.730,185.726 325.600 C 189.174 334.011,190.415 336.948,190.600 337.134 C 190.710 337.243,190.800 331.285,190.800 323.894 L 190.800 310.454 189.900 310.177 C 189.066 309.920,181.690 306.652,179.039 305.364 C 177.262 304.501,177.143 304.649,177.963 306.700 M215.800 306.880 C 213.380 307.982,210.455 309.270,209.301 309.742 L 207.202 310.600 207.201 324.167 C 207.200 331.628,207.265 337.658,207.345 337.567 C 207.528 337.357,209.240 333.263,215.192 318.800 C 216.324 316.050,217.675 312.810,218.195 311.600 C 219.084 309.532,220.799 305.120,220.800 304.900 C 220.800 304.655,219.926 305.001,215.800 306.880 M190.914 307.000 C 190.917 308.100,190.995 308.503,191.087 307.895 C 191.179 307.286,191.177 306.386,191.082 305.895 C 190.987 305.403,190.911 305.900,190.914 307.000 M201.333 308.102 C 202.763 309.795,201.460 312.533,199.224 312.533 C 196.264 312.533,195.241 308.751,197.800 307.268 C 198.857 306.656,200.424 307.026,201.333 308.102 M187.569 312.236 C 189.213 313.619,189.277 315.567,187.717 316.794 C 186.297 317.911,183.084 317.159,183.866 315.893 C 184.012 315.658,183.931 315.595,183.682 315.749 C 183.082 316.120,182.297 314.555,182.601 313.595 C 183.311 311.359,185.738 310.695,187.569 312.236 M213.840 312.560 C 215.452 314.172,215.555 315.281,214.218 316.618 C 212.350 318.486,209.035 317.005,208.957 314.268 C 208.872 311.282,211.605 310.325,213.840 312.560 M212.980 315.569 C 212.771 315.772,212.060 316.015,211.400 316.109 L 210.200 316.280 211.451 316.340 C 212.141 316.373,212.926 316.131,213.200 315.800 C 213.745 315.143,213.588 314.978,212.980 315.569 M153.200 320.200 C 152.228 321.190,151.523 322.000,151.633 322.000 C 151.743 322.000,152.628 321.190,153.600 320.200 C 154.572 319.210,155.277 318.400,155.167 318.400 C 155.057 318.400,154.172 319.210,153.200 320.200 M142.800 319.698 C 142.800 320.048,143.236 322.555,143.768 325.268 C 144.300 327.980,145.042 332.270,145.416 334.800 C 146.179 339.952,146.459 340.588,147.191 338.822 C 147.800 337.351,148.230 337.269,148.555 338.563 C 148.688 339.092,148.907 339.812,149.041 340.163 C 149.237 340.673,148.978 340.811,147.743 340.854 C 146.690 340.892,146.518 340.962,147.200 341.077 C 154.196 342.251,156.265 350.892,150.160 353.442 C 148.597 354.096,148.583 354.187,149.438 358.317 C 149.789 360.013,150.495 364.071,151.007 367.335 C 151.518 370.599,152.025 373.359,152.134 373.467 C 152.242 373.575,154.911 372.851,158.065 371.856 C 186.023 363.043,217.470 363.485,243.934 373.064 C 246.034 373.825,246.171 373.693,246.719 370.400 C 246.957 368.970,247.612 365.100,248.174 361.800 C 249.457 354.275,249.459 354.402,248.078 355.725 C 246.586 357.155,246.400 357.091,246.400 355.153 C 246.400 353.768,246.511 353.542,247.100 353.727 C 249.359 354.439,249.740 354.409,248.336 353.630 C 242.450 350.365,244.108 341.200,250.584 341.200 C 251.143 341.200,251.600 341.056,251.600 340.880 C 251.600 340.704,250.942 340.637,250.138 340.731 C 248.884 340.878,248.713 340.804,248.939 340.214 C 249.085 339.835,249.312 339.092,249.445 338.563 C 249.773 337.255,250.355 337.352,250.860 338.800 C 251.714 341.251,251.754 341.105,254.232 326.239 C 254.779 322.961,255.175 320.126,255.113 319.940 C 255.051 319.754,253.811 321.176,252.357 323.101 C 249.288 327.163,243.502 334.897,240.552 338.877 L 238.505 341.640 238.297 346.720 C 238.083 351.946,236.888 357.200,235.913 357.200 C 235.662 357.200,233.452 356.574,231.001 355.809 C 228.549 355.043,225.837 354.271,224.972 354.092 L 223.400 353.766 222.719 350.383 C 222.345 348.522,221.846 346.008,221.611 344.795 C 221.222 342.794,221.061 342.552,219.862 342.177 L 218.542 341.764 216.257 345.982 C 212.687 352.572,213.500 352.051,207.461 351.621 C 201.160 351.173,201.543 351.705,203.406 345.982 C 204.955 341.224,204.962 341.172,204.314 339.493 C 203.954 338.562,202.725 335.370,201.582 332.400 C 198.971 325.614,199.152 325.740,197.686 329.681 C 197.007 331.506,195.728 334.870,194.842 337.157 C 193.770 339.924,193.344 341.528,193.567 341.957 C 193.751 342.310,194.370 344.240,194.942 346.243 C 195.514 348.247,196.086 350.158,196.213 350.490 C 196.405 350.990,195.808 351.140,192.722 351.365 C 190.675 351.515,188.175 351.738,187.167 351.861 L 185.334 352.085 182.832 347.543 C 179.931 342.278,180.175 342.576,178.505 342.264 C 177.393 342.056,177.182 342.148,177.017 342.911 C 174.445 354.785,174.686 354.000,173.616 354.000 C 173.211 354.000,170.566 354.722,167.740 355.604 C 164.913 356.486,162.386 357.126,162.125 357.026 C 161.187 356.667,159.607 348.399,159.602 343.828 C 159.600 341.199,160.288 342.336,152.192 331.600 C 150.450 329.290,147.624 325.524,145.912 323.230 C 144.200 320.937,142.800 319.347,142.800 319.698 M219.825 323.628 C 220.661 324.551,220.667 324.553,220.667 323.829 C 220.667 323.515,220.320 323.168,219.897 323.057 C 219.160 322.864,219.157 322.890,219.825 323.628 M232.000 324.925 C 232.000 324.994,232.585 325.579,233.300 326.225 L 234.600 327.400 233.425 326.100 C 232.330 324.888,232.000 324.616,232.000 324.925 M218.700 331.886 C 217.343 332.221,218.023 332.600,219.980 332.600 C 221.069 332.600,221.834 332.488,221.680 332.352 C 221.249 331.969,219.481 331.693,218.700 331.886 M178.833 332.504 C 178.925 332.562,179.405 332.950,179.900 333.366 C 180.395 333.783,180.800 334.019,180.800 333.891 C 180.800 333.487,179.563 332.400,179.105 332.400 C 178.864 332.400,178.742 332.447,178.833 332.504 M223.180 334.258 C 224.172 336.109,224.187 336.478,223.338 338.120 C 222.751 339.256,222.748 339.340,223.312 338.872 C 224.664 337.751,224.345 333.955,222.821 333.013 C 222.567 332.856,222.729 333.417,223.180 334.258 M173.614 334.374 C 172.703 336.076,173.107 338.073,174.589 339.200 C 175.277 339.723,175.264 339.651,174.489 338.646 C 173.538 337.412,173.340 335.633,174.014 334.374 C 174.242 333.948,174.338 333.600,174.228 333.600 C 174.118 333.600,173.842 333.948,173.614 334.374 M181.300 336.200 C 181.300 336.750,181.458 337.200,181.650 337.200 C 181.843 337.200,182.000 336.750,182.000 336.200 C 182.000 335.650,181.843 335.200,181.650 335.200 C 181.458 335.200,181.300 335.650,181.300 336.200 M200.408 338.610 C 200.686 338.945,201.007 339.127,201.120 339.013 C 202.179 337.954,202.780 341.317,201.738 342.469 C 201.057 343.222,198.955 343.519,199.400 342.800 C 199.538 342.577,199.231 342.400,198.704 342.400 C 197.488 342.400,196.800 341.695,196.800 340.451 C 196.800 338.439,199.235 337.196,200.408 338.610 M153.194 340.300 C 153.184 342.076,152.714 342.526,151.464 341.956 C 150.126 341.347,150.131 341.067,151.500 340.046 C 152.958 338.958,153.201 338.994,153.194 340.300 M246.438 339.886 C 247.813 340.698,247.918 341.402,246.757 342.023 C 245.750 342.562,245.387 342.235,245.063 340.500 C 244.783 339.000,244.871 338.960,246.438 339.886 M167.334 342.400 C 167.334 344.050,167.405 344.725,167.491 343.900 C 167.578 343.075,167.578 341.725,167.491 340.900 C 167.405 340.075,167.334 340.750,167.334 342.400 M176.600 340.400 C 176.460 340.627,176.796 340.800,177.376 340.800 C 177.939 340.800,178.400 340.620,178.400 340.400 C 178.400 340.180,178.051 340.000,177.624 340.000 C 177.197 340.000,176.736 340.180,176.600 340.400 M219.000 340.400 C 218.864 340.620,219.123 340.800,219.576 340.800 C 220.029 340.800,220.400 340.620,220.400 340.400 C 220.400 340.180,220.141 340.000,219.824 340.000 C 219.507 340.000,219.136 340.180,219.000 340.400 M155.778 344.423 L 154.605 345.647 153.903 344.779 C 152.836 343.462,153.031 343.200,155.075 343.200 L 156.950 343.200 155.778 344.423 M244.800 343.724 C 244.800 345.286,243.710 345.843,242.632 344.830 C 241.223 343.507,241.330 343.200,243.200 343.200 C 244.252 343.200,244.800 343.379,244.800 343.724 M163.701 345.000 C 163.705 345.880,163.787 346.193,163.883 345.695 C 163.979 345.198,163.975 344.478,163.875 344.095 C 163.775 343.713,163.696 344.120,163.701 345.000 M161.293 346.800 C 161.293 347.570,161.375 347.885,161.476 347.500 C 161.576 347.115,161.576 346.485,161.476 346.100 C 161.375 345.715,161.293 346.030,161.293 346.800 M156.734 347.939 L 157.667 348.536 156.734 349.054 C 154.905 350.068,153.245 348.488,154.656 347.078 C 154.916 346.817,155.092 346.890,156.734 347.939 M243.927 348.503 C 244.072 349.761,243.399 349.906,241.400 349.050 L 240.200 348.536 241.400 347.879 C 243.012 346.996,243.774 347.185,243.927 348.503 M211.000 350.000 L 209.800 350.305 210.876 350.353 C 211.468 350.379,212.064 350.220,212.200 350.000 C 212.336 349.780,212.392 349.621,212.324 349.647 C 212.256 349.673,211.660 349.832,211.000 350.000 M155.986 352.900 C 156.006 353.319,153.921 353.264,153.232 352.828 C 152.750 352.523,152.771 352.303,153.375 351.382 L 154.087 350.296 155.029 351.448 C 155.547 352.082,155.978 352.735,155.986 352.900 M244.817 351.231 C 245.471 352.453,245.042 353.084,243.431 353.272 C 241.752 353.468,241.759 353.485,242.833 351.747 C 243.798 350.185,244.201 350.081,244.817 351.231 M151.600 355.200 C 151.600 357.037,151.406 357.133,150.126 355.930 C 148.968 354.843,148.963 354.469,150.100 354.012 C 151.519 353.442,151.600 353.506,151.600 355.200 M188.541 356.818 C 189.304 357.269,190.030 357.900,190.153 358.222 C 190.780 359.855,188.355 362.231,187.356 360.963 C 187.112 360.653,186.627 360.400,186.279 360.400 C 185.703 360.400,184.400 358.988,184.400 358.365 C 184.400 356.543,186.651 355.703,188.541 356.818 M211.777 356.840 C 214.955 358.714,212.938 362.186,209.549 360.676 C 207.449 359.741,206.994 358.206,208.400 356.800 C 209.412 355.788,210.007 355.795,211.777 356.840 M167.911 360.223 C 168.400 360.565,168.800 360.723,168.800 360.574 C 168.800 360.424,169.070 360.526,169.400 360.800 C 171.916 362.888,168.591 365.767,165.700 364.004 C 163.655 362.757,164.300 359.600,166.600 359.600 C 166.832 359.600,167.422 359.880,167.911 360.223 M231.703 360.185 C 234.308 361.274,234.101 364.864,231.438 364.771 C 228.681 364.675,226.933 361.593,228.867 360.238 C 229.977 359.460,229.969 359.461,231.703 360.185 M189.700 367.476 C 190.085 367.576,190.715 367.576,191.100 367.476 C 191.485 367.375,191.170 367.293,190.400 367.293 C 189.630 367.293,189.315 367.375,189.700 367.476 M206.900 367.476 C 207.285 367.576,207.915 367.576,208.300 367.476 C 208.685 367.375,208.370 367.293,207.600 367.293 C 206.830 367.293,206.515 367.375,206.900 367.476 M183.400 380.000 C 182.691 380.305,182.725 380.347,183.700 380.372 C 184.305 380.387,184.800 380.220,184.800 380.000 C 184.800 379.531,184.493 379.531,183.400 380.000 M213.790 379.984 C 213.932 380.213,214.517 380.400,215.090 380.400 C 216.344 380.400,216.199 380.208,214.666 379.840 C 213.923 379.662,213.621 379.711,213.790 379.984 M197.516 383.497 C 198.899 383.575,201.059 383.574,202.316 383.495 C 203.572 383.416,202.440 383.352,199.800 383.353 C 197.160 383.353,196.132 383.418,197.516 383.497 " stroke="none" fill="#8c8c89" fill-rule="evenodd"></path><path id="path5" d="M7.398 168.600 C 7.398 256.380,7.444 292.230,7.500 248.267 C 7.556 204.304,7.556 132.484,7.500 88.667 C 7.444 44.850,7.398 80.820,7.398 168.600 M211.737 118.200 C 211.739 119.960,211.809 120.630,211.893 119.689 C 211.978 118.749,211.977 117.309,211.891 116.489 C 211.805 115.670,211.736 116.440,211.737 118.200 M345.728 124.000 C 345.728 125.430,345.801 126.015,345.889 125.300 C 345.978 124.585,345.978 123.415,345.889 122.700 C 345.801 121.985,345.728 122.570,345.728 124.000 M211.737 129.800 C 211.739 131.560,211.809 132.230,211.893 131.289 C 211.978 130.349,211.977 128.909,211.891 128.089 C 211.805 127.270,211.736 128.040,211.737 129.800 M41.941 186.501 C 42.107 186.667,72.743 186.757,110.021 186.701 L 177.800 186.600 109.720 186.400 C 72.276 186.290,41.775 186.336,41.941 186.501 M201.462 186.500 C 201.564 186.665,208.466 186.800,216.800 186.800 C 225.134 186.800,232.036 186.665,232.138 186.500 C 232.240 186.335,225.338 186.200,216.800 186.200 C 208.262 186.200,201.360 186.335,201.462 186.500 M333.500 186.699 C 337.735 186.764,344.665 186.764,348.900 186.699 C 353.135 186.635,349.670 186.582,341.200 186.582 C 332.730 186.582,329.265 186.635,333.500 186.699 M115.100 215.500 C 161.135 215.556,236.465 215.556,282.500 215.500 C 328.535 215.444,290.870 215.398,198.800 215.398 C 106.730 215.398,69.065 215.444,115.100 215.500 M246.200 351.600 C 246.064 351.820,246.008 352.014,246.076 352.031 C 247.393 352.357,247.617 352.303,247.173 351.768 C 246.613 351.093,246.523 351.077,246.200 351.600 " stroke="none" fill="#4a4c4a" fill-rule="evenodd"></path><path id="path6" d="" stroke="none" fill="#848c84" fill-rule="evenodd"></path><path id="path7" d="M211.734 124.000 C 211.734 125.650,211.805 126.325,211.891 125.500 C 211.978 124.675,211.978 123.325,211.891 122.500 C 211.805 121.675,211.734 122.350,211.734 124.000 M189.293 149.200 C 189.293 149.970,189.375 150.285,189.476 149.900 C 189.576 149.515,189.576 148.885,189.476 148.500 C 189.375 148.115,189.293 148.430,189.293 149.200 M184.900 303.091 C 185.725 303.178,187.075 303.178,187.900 303.091 C 188.725 303.005,188.050 302.934,186.400 302.934 C 184.750 302.934,184.075 303.005,184.900 303.091 M209.600 303.046 C 211.988 303.346,214.710 303.376,214.539 303.100 C 214.436 302.935,213.058 302.827,211.476 302.860 C 209.894 302.893,209.050 302.976,209.600 303.046 M191.314 307.000 C 191.317 308.100,191.395 308.503,191.487 307.895 C 191.579 307.286,191.577 306.386,191.482 305.895 C 191.387 305.403,191.311 305.900,191.314 307.000 M187.600 313.976 C 187.600 314.649,187.669 315.200,187.753 315.200 C 188.093 315.200,188.269 313.166,187.946 312.967 C 187.756 312.849,187.600 313.303,187.600 313.976 M236.893 342.400 C 236.893 343.170,236.975 343.485,237.076 343.100 C 237.176 342.715,237.176 342.085,237.076 341.700 C 236.975 341.315,236.893 341.630,236.893 342.400 M238.124 343.800 C 238.126 345.120,238.201 345.612,238.290 344.893 C 238.379 344.174,238.377 343.094,238.286 342.493 C 238.195 341.892,238.122 342.480,238.124 343.800 M152.909 347.591 C 152.943 348.036,153.112 348.400,153.285 348.400 C 153.727 348.400,153.679 347.296,153.224 347.015 C 153.018 346.887,152.876 347.147,152.909 347.591 " stroke="none" fill="#444444" fill-rule="evenodd"></path><path id="path8" d="M103.500 8.300 C 156.135 8.356,242.265 8.356,294.900 8.300 C 347.535 8.244,304.470 8.198,199.200 8.198 C 93.930 8.198,50.865 8.244,103.500 8.300 M115.333 32.700 C 161.496 32.756,236.916 32.756,282.933 32.700 C 328.950 32.644,291.180 32.598,199.000 32.598 C 106.820 32.598,69.170 32.644,115.333 32.700 M325.383 100.600 C 325.383 109.620,325.435 113.367,325.499 108.927 C 325.564 104.487,325.564 97.107,325.500 92.527 C 325.435 87.947,325.383 91.580,325.383 100.600 M73.701 101.800 C 73.705 102.680,73.787 102.993,73.883 102.495 C 73.979 101.998,73.975 101.278,73.875 100.895 C 73.775 100.513,73.696 100.920,73.701 101.800 M51.293 104.800 C 51.293 105.570,51.375 105.885,51.476 105.500 C 51.576 105.115,51.576 104.485,51.476 104.100 C 51.375 103.715,51.293 104.030,51.293 104.800 M73.293 106.400 C 73.293 107.170,73.375 107.485,73.476 107.100 C 73.576 106.715,73.576 106.085,73.476 105.700 C 73.375 105.315,73.293 105.630,73.293 106.400 M51.731 110.600 C 51.733 112.140,51.805 112.721,51.892 111.891 C 51.979 111.061,51.977 109.801,51.889 109.091 C 51.800 108.381,51.729 109.060,51.731 110.600 M211.301 111.400 C 211.305 112.280,211.387 112.593,211.483 112.095 C 211.579 111.598,211.575 110.878,211.475 110.495 C 211.375 110.113,211.296 110.520,211.301 111.400 M346.101 114.600 C 346.105 115.480,346.187 115.793,346.283 115.295 C 346.379 114.798,346.375 114.078,346.275 113.695 C 346.175 113.313,346.096 113.720,346.101 114.600 M52.131 119.800 C 52.133 121.340,52.205 121.921,52.292 121.091 C 52.379 120.261,52.377 119.001,52.289 118.291 C 52.200 117.581,52.129 118.260,52.131 119.800 M52.131 128.200 C 52.133 129.740,52.205 130.321,52.292 129.491 C 52.379 128.661,52.377 127.401,52.289 126.691 C 52.200 125.981,52.129 126.660,52.131 128.200 M346.101 133.400 C 346.105 134.280,346.187 134.593,346.283 134.095 C 346.379 133.598,346.375 132.878,346.275 132.495 C 346.175 132.113,346.096 132.520,346.101 133.400 M51.731 137.400 C 51.733 138.940,51.805 139.521,51.892 138.691 C 51.979 137.861,51.977 136.601,51.889 135.891 C 51.800 135.181,51.729 135.860,51.731 137.400 M211.301 136.200 C 211.305 137.080,211.387 137.393,211.483 136.895 C 211.579 136.398,211.575 135.678,211.475 135.295 C 211.375 134.913,211.296 135.320,211.301 136.200 M325.292 163.076 C 325.241 175.878,325.335 186.436,325.500 186.538 C 325.772 186.707,325.768 169.915,325.491 148.200 C 325.432 143.580,325.342 150.274,325.292 163.076 M51.293 143.200 C 51.293 143.970,51.375 144.285,51.476 143.900 C 51.576 143.515,51.576 142.885,51.476 142.500 C 51.375 142.115,51.293 142.430,51.293 143.200 M146.705 163.083 C 147.202 163.179,147.922 163.175,148.305 163.075 C 148.687 162.975,148.280 162.896,147.400 162.901 C 146.520 162.905,146.207 162.987,146.705 163.083 M139.100 163.493 C 140.035 163.577,141.565 163.577,142.500 163.493 C 143.435 163.409,142.670 163.340,140.800 163.340 C 138.930 163.340,138.165 163.409,139.100 163.493 M187.400 304.000 L 184.200 304.253 187.276 304.327 C 188.980 304.367,190.463 304.222,190.600 304.000 C 190.736 303.780,190.792 303.633,190.724 303.673 C 190.656 303.714,189.160 303.861,187.400 304.000 M209.511 304.293 C 210.451 304.378,211.891 304.377,212.711 304.291 C 213.530 304.205,212.760 304.136,211.000 304.137 C 209.240 304.139,208.570 304.209,209.511 304.293 M191.295 324.724 C 191.224 335.277,191.083 338.775,190.738 338.562 C 190.441 338.378,190.385 338.453,190.583 338.773 C 191.433 340.148,191.602 337.526,191.500 324.575 L 191.389 310.600 191.295 324.724 M214.001 313.954 C 214.453 315.590,214.800 316.019,214.800 314.943 C 214.800 314.509,214.536 313.804,214.213 313.376 C 213.675 312.666,213.658 312.715,214.001 313.954 M154.575 318.500 L 153.400 319.800 154.700 318.625 C 155.912 317.530,156.184 317.200,155.875 317.200 C 155.806 317.200,155.221 317.785,154.575 318.500 M155.600 321.800 C 154.628 322.790,153.923 323.600,154.033 323.600 C 154.143 323.600,155.028 322.790,156.000 321.800 C 156.972 320.810,157.677 320.000,157.567 320.000 C 157.457 320.000,156.572 320.810,155.600 321.800 M157.178 323.900 L 155.800 325.400 157.300 324.022 C 158.696 322.738,158.984 322.400,158.678 322.400 C 158.612 322.400,157.937 323.075,157.178 323.900 M232.400 325.000 C 233.146 325.770,233.847 326.400,233.957 326.400 C 234.067 326.400,233.546 325.770,232.800 325.000 C 232.054 324.230,231.353 323.600,231.243 323.600 C 231.133 323.600,231.654 324.230,232.400 325.000 M161.775 326.500 L 160.600 327.800 161.900 326.625 C 163.112 325.530,163.384 325.200,163.075 325.200 C 163.006 325.200,162.421 325.785,161.775 326.500 M174.487 332.700 C 173.868 333.305,173.730 333.510,174.181 333.155 C 174.631 332.800,175.360 332.310,175.800 332.067 C 176.240 331.823,176.378 331.619,176.106 331.612 C 175.835 331.605,175.106 332.095,174.487 332.700 M172.643 335.033 C 172.315 335.887,172.347 337.297,172.706 337.862 C 172.868 338.116,173.000 337.441,173.000 336.362 C 173.000 334.181,172.987 334.135,172.643 335.033 M216.000 339.381 C 216.000 339.809,217.574 341.166,217.744 340.885 C 217.840 340.728,217.486 340.277,216.959 339.881 C 216.431 339.486,216.000 339.261,216.000 339.381 M230.934 342.400 C 230.934 344.050,231.005 344.725,231.091 343.900 C 231.178 343.075,231.178 341.725,231.091 340.900 C 231.005 340.075,230.934 340.750,230.934 342.400 M249.600 341.755 C 249.600 341.840,250.130 341.987,250.779 342.082 C 251.427 342.177,251.867 342.108,251.755 341.928 C 251.557 341.607,249.600 341.450,249.600 341.755 M246.399 343.402 C 245.883 343.951,245.582 344.400,245.730 344.400 C 246.118 344.400,247.699 342.765,247.502 342.568 C 247.411 342.477,246.914 342.852,246.399 343.402 M164.128 345.200 C 164.128 346.630,164.201 347.215,164.289 346.500 C 164.378 345.785,164.378 344.615,164.289 343.900 C 164.201 343.185,164.128 343.770,164.128 345.200 M242.000 343.552 C 242.000 343.942,243.555 345.398,243.723 345.164 C 243.787 345.074,243.426 344.601,242.920 344.114 C 242.414 343.627,242.000 343.374,242.000 343.552 M236.931 346.200 C 236.933 347.740,237.005 348.321,237.092 347.491 C 237.179 346.661,237.177 345.401,237.089 344.691 C 237.000 343.981,236.929 344.660,236.931 346.200 M246.198 351.537 C 246.634 352.052,247.353 352.659,247.796 352.886 C 248.645 353.321,248.521 353.187,246.603 351.594 C 245.448 350.635,245.434 350.633,246.198 351.537 M150.296 352.550 C 148.375 353.731,147.838 354.289,149.400 353.481 C 150.654 352.833,152.345 351.626,152.000 351.625 C 151.890 351.625,151.123 352.041,150.296 352.550 M195.500 365.882 C 195.995 365.978,196.805 365.978,197.300 365.882 C 197.795 365.787,197.390 365.709,196.400 365.709 C 195.410 365.709,195.005 365.787,195.500 365.882 M200.905 365.887 C 201.514 365.979,202.414 365.977,202.905 365.882 C 203.397 365.787,202.900 365.711,201.800 365.714 C 200.700 365.717,200.297 365.795,200.905 365.887 M182.552 373.677 C 182.442 373.855,183.083 374.000,183.976 374.000 C 184.869 374.000,185.600 373.930,185.600 373.844 C 185.600 373.523,182.744 373.368,182.552 373.677 M214.200 373.627 C 213.549 373.885,213.641 373.949,214.700 373.972 C 216.052 374.001,216.358 373.820,215.500 373.498 C 215.225 373.395,214.640 373.453,214.200 373.627 M180.741 376.501 C 180.943 376.703,181.533 376.801,182.054 376.719 C 182.855 376.593,182.798 376.537,181.687 376.352 C 180.893 376.221,180.519 376.279,180.741 376.501 M216.200 376.400 C 215.093 376.682,215.077 376.709,216.000 376.747 C 216.550 376.769,217.270 376.613,217.600 376.400 C 218.281 375.960,217.929 375.960,216.200 376.400 M177.000 379.200 C 176.864 379.420,177.134 379.600,177.600 379.600 C 178.066 379.600,178.336 379.420,178.200 379.200 C 178.064 378.980,177.794 378.800,177.600 378.800 C 177.406 378.800,177.136 378.980,177.000 379.200 " stroke="none" fill="#373737" fill-rule="evenodd"></path></g></svg>