<svg id="svg" xmlns="http://www.w3.org/2000/svg" xmlns:xlink="http://www.w3.org/1999/xlink" width="400" height="346.23837700760777" viewBox="0, 0, 400,346.23837700760777"><g id="svgg"><path id="path0" d="M194.881 8.115 C 192.671 12.671,188.659 20.987,185.964 26.594 L 181.065 36.788 179.374 37.016 C 69.546 51.815,-10.449 119.959,0.820 189.120 C 6.440 223.619,30.046 249.234,68.762 262.847 C 69.594 263.139,70.845 259.843,55.460 297.887 C 39.690 336.881,40.545 334.742,40.723 334.742 C 40.800 334.742,58.085 321.152,79.136 304.542 L 117.409 274.341 119.313 274.601 C 123.256 275.140,134.717 276.254,142.199 276.826 C 152.024 277.577,188.283 277.687,197.971 276.996 C 212.567 275.954,234.045 273.664,238.244 272.702 C 238.809 272.573,247.627 280.165,280.836 309.372 C 303.870 329.630,322.761 346.159,322.817 346.104 C 322.872 346.049,316.511 326.645,308.681 302.985 C 300.851 279.324,294.496 259.926,294.559 259.878 C 294.623 259.829,296.729 259.068,299.239 258.186 C 305.259 256.070,316.679 251.503,319.865 249.937 L 322.401 248.690 361.242 159.326 C 382.605 110.176,400.005 69.884,399.909 69.788 C 399.813 69.692,396.942 71.202,393.528 73.143 C 359.709 92.373,309.935 116.526,283.009 126.774 C 280.687 127.658,273.713 132.939,336.105 86.562 C 365.751 64.527,389.782 46.456,389.509 46.405 C 389.235 46.353,373.573 48.960,354.704 52.197 L 320.396 58.082 317.396 56.391 C 293.202 42.753,257.712 34.557,221.978 34.356 L 210.820 34.293 205.241 17.882 C 202.172 8.856,199.490 1.102,199.280 0.651 C 198.929 -0.103,198.574 0.499,194.881 8.115 M202.504 30.769 L 205.989 41.082 218.886 41.089 C 245.552 41.104,267.591 44.376,289.122 51.515 C 297.517 54.298,308.567 58.916,308.211 59.492 C 308.132 59.618,291.330 66.477,270.872 74.734 C 250.413 82.991,233.719 89.791,233.774 89.846 C 233.828 89.900,237.739 88.956,242.465 87.746 C 247.190 86.537,262.088 82.727,275.571 79.278 C 289.053 75.830,303.280 72.188,307.185 71.185 C 311.090 70.181,325.089 66.598,338.292 63.221 C 351.496 59.845,363.935 56.653,365.934 56.129 C 367.933 55.605,369.563 55.277,369.556 55.399 C 369.549 55.521,341.420 75.097,307.047 98.901 L 244.550 142.181 245.745 145.562 C 246.403 147.422,246.969 148.984,247.005 149.034 C 247.193 149.302,266.104 142.285,277.768 137.619 C 310.537 124.513,348.138 106.626,379.004 89.460 C 382.590 87.466,385.568 85.883,385.622 85.943 C 385.675 86.003,370.276 121.582,351.400 165.007 L 317.080 243.962 314.499 245.106 C 306.673 248.575,292.904 253.600,287.489 254.964 C 286.513 255.210,285.714 255.560,285.714 255.742 C 285.714 255.924,291.585 272.189,298.760 291.886 C 305.935 311.583,311.738 327.766,311.656 327.848 C 311.573 327.931,295.679 313.942,276.336 296.761 L 241.166 265.524 238.166 265.975 C 215.261 269.414,197.409 270.663,171.090 270.666 C 148.640 270.668,139.006 270.143,121.724 267.975 L 115.469 267.190 114.117 268.279 C 113.373 268.877,99.095 280.437,82.389 293.968 C 65.683 307.498,51.948 318.502,51.868 318.422 C 51.788 318.342,57.815 304.994,65.260 288.760 C 72.706 272.526,78.757 259.216,78.706 259.182 C 78.655 259.148,76.484 258.386,73.880 257.488 C 28.239 241.748,4.554 211.101,6.803 170.694 C 9.846 116.006,73.802 64.781,161.454 46.827 C 165.469 46.004,177.648 43.977,177.780 44.109 C 177.920 44.248,163.840 73.121,155.610 89.574 L 149.620 101.548 120.982 113.233 C 105.232 119.660,92.395 124.967,92.456 125.028 C 92.595 125.168,153.499 107.891,154.184 107.517 C 154.463 107.365,163.205 89.540,173.611 67.906 C 184.016 46.272,193.739 26.080,195.216 23.034 L 197.902 17.498 198.460 18.977 C 198.768 19.791,200.587 25.097,202.504 30.769 M181.235 84.005 L 167.203 117.611 158.073 119.949 C 153.052 121.235,135.896 125.545,119.949 129.527 C 104.003 133.509,90.955 136.844,90.955 136.938 C 90.956 137.032,102.786 139.990,117.245 143.510 C 131.703 147.031,143.644 149.967,143.780 150.035 C 143.916 150.103,141.739 154.732,138.942 160.323 C 136.146 165.914,133.905 170.528,133.962 170.578 C 134.019 170.627,134.979 170.750,136.095 170.850 C 137.210 170.950,137.776 170.958,137.351 170.867 C 136.615 170.710,136.823 170.221,141.699 160.668 L 146.820 150.634 155.658 144.140 C 160.520 140.569,168.141 134.957,172.595 131.670 C 177.049 128.384,180.457 126.056,180.168 126.499 C 179.879 126.941,173.893 136.205,166.865 147.084 C 159.837 157.963,153.530 167.705,152.849 168.733 L 151.611 170.601 152.644 170.510 C 164.199 169.493,173.553 168.358,178.949 167.320 L 180.891 166.946 180.978 146.399 L 181.065 125.852 191.040 141.758 C 196.526 150.506,201.640 158.702,202.404 159.972 C 203.169 161.242,203.873 162.202,203.969 162.106 C 204.065 162.010,206.482 161.322,209.341 160.576 C 216.559 158.694,233.755 153.696,234.239 153.340 C 234.288 153.304,233.033 149.867,231.450 145.702 C 229.867 141.538,228.571 138.034,228.571 137.915 C 228.571 137.797,247.878 125.090,271.475 109.678 C 295.072 94.266,314.344 81.618,314.303 81.571 C 314.261 81.524,291.584 86.971,263.909 93.675 C 236.234 100.380,213.484 105.744,213.352 105.595 C 213.220 105.447,209.174 92.963,204.360 77.853 C 199.546 62.743,195.531 50.385,195.437 50.390 C 195.343 50.396,188.952 65.522,181.235 84.005 M202.535 83.344 C 206.255 95.988,209.298 106.487,209.297 106.675 C 209.297 106.937,195.558 116.057,181.862 124.887 C 181.188 125.322,180.938 125.374,181.046 125.056 C 181.132 124.804,184.337 110.296,188.169 92.815 C 195.494 59.394,195.474 59.483,195.657 60.017 C 195.720 60.203,198.816 70.700,202.535 83.344 M296.528 91.073 C 295.881 91.510,287.667 96.708,278.276 102.625 C 241.911 125.538,226.579 134.904,225.408 134.922 C 224.345 134.939,181.560 125.681,181.763 125.479 C 181.985 125.256,296.543 90.361,297.204 90.314 C 297.480 90.295,297.176 90.636,296.528 91.073 M52.904 106.593 L 51.226 108.369 53.001 106.691 C 53.977 105.768,54.776 104.969,54.776 104.916 C 54.776 104.663,54.463 104.944,52.904 106.593 M177.154 123.461 C 180.645 125.370,180.670 125.392,179.521 125.591 C 176.081 126.186,108.995 135.255,108.624 135.175 C 108.382 135.123,121.768 131.415,138.369 126.936 L 168.555 118.792 171.090 120.162 C 172.485 120.916,175.214 122.401,177.154 123.461 M92.934 150.380 C 89.459 159.092,100.187 167.243,118.179 169.561 L 119.874 169.779 122.488 163.953 C 123.926 160.748,125.065 158.095,125.020 158.057 C 124.863 157.928,93.938 149.451,93.622 149.451 C 93.448 149.451,93.138 149.869,92.934 150.380 M330.613 160.270 C 330.694 160.828,330.820 161.285,330.892 161.285 C 330.964 161.285,331.023 160.828,331.023 160.270 C 331.023 159.713,330.897 159.256,330.743 159.256 C 330.590 159.256,330.531 159.713,330.613 160.270 M294.933 169.642 C 295.447 169.720,296.208 169.718,296.623 169.638 C 297.039 169.558,296.619 169.494,295.689 169.497 C 294.759 169.499,294.419 169.565,294.933 169.642 M144.638 170.997 C 145.246 171.073,146.159 171.071,146.667 170.994 C 147.175 170.917,146.678 170.855,145.562 170.857 C 144.446 170.859,144.031 170.922,144.638 170.997 M16.660 173.119 C 16.660 173.956,16.726 174.298,16.807 173.880 C 16.887 173.462,16.887 172.777,16.807 172.358 C 16.726 171.940,16.660 172.282,16.660 173.119 M276.741 178.276 L 275.063 180.051 276.839 178.373 C 278.488 176.814,278.769 176.500,278.516 176.500 C 278.463 176.500,277.664 177.299,276.741 178.276 M320.918 189.245 C 320.897 190.210,320.996 191.072,321.139 191.160 C 321.282 191.249,321.350 190.687,321.290 189.912 C 321.115 187.637,320.960 187.360,320.918 189.245 M234.405 192.223 C 234.409 192.967,234.478 193.232,234.559 192.811 C 234.640 192.390,234.636 191.782,234.552 191.458 C 234.467 191.135,234.401 191.479,234.405 192.223 M129.590 196.692 C 130.104 196.770,130.865 196.768,131.281 196.688 C 131.697 196.607,131.276 196.544,130.347 196.546 C 129.417 196.549,129.076 196.615,129.590 196.692 M138.720 196.692 C 139.234 196.770,139.995 196.768,140.410 196.688 C 140.826 196.607,140.406 196.544,139.476 196.546 C 138.546 196.549,138.206 196.615,138.720 196.692 M299.221 198.394 L 298.056 199.662 299.324 198.497 C 300.504 197.412,300.747 197.126,300.489 197.126 C 300.432 197.126,299.862 197.697,299.221 198.394 M202.155 206.489 C 201.887 206.819,201.860 206.960,202.091 206.821 C 202.359 206.660,202.537 206.946,202.629 207.686 C 202.749 208.652,202.773 208.610,202.820 207.354 C 202.880 205.750,202.819 205.670,202.155 206.489 M117.751 209.531 C 118.077 209.617,118.609 209.617,118.935 209.531 C 119.260 209.446,118.994 209.377,118.343 209.377 C 117.692 209.377,117.426 209.446,117.751 209.531 M133.474 209.537 C 133.893 209.618,134.577 209.618,134.996 209.537 C 135.414 209.456,135.072 209.390,134.235 209.390 C 133.398 209.390,133.056 209.456,133.474 209.537 M247.981 214.761 C 247.832 215.002,247.888 215.059,248.130 214.910 C 248.392 214.748,248.521 215.002,248.521 215.683 C 248.521 216.241,248.638 216.769,248.781 216.858 C 248.923 216.946,248.984 216.423,248.914 215.694 C 248.788 214.373,248.438 214.022,247.981 214.761 M309.447 217.498 C 309.392 219.472,309.463 219.780,309.975 219.775 C 310.374 219.772,310.435 219.686,310.163 219.513 C 309.941 219.372,309.703 218.348,309.635 217.236 L 309.511 215.216 309.447 217.498 M140.410 230.505 C 140.924 230.582,141.685 230.580,142.101 230.500 C 142.517 230.420,142.096 230.356,141.167 230.359 C 140.237 230.361,139.896 230.427,140.410 230.505 M165.934 230.501 C 166.352 230.581,167.037 230.581,167.456 230.501 C 167.874 230.420,167.532 230.354,166.695 230.354 C 165.858 230.354,165.516 230.420,165.934 230.501 M142.773 247.063 C 143.098 247.148,143.631 247.148,143.956 247.063 C 144.281 246.978,144.015 246.909,143.364 246.909 C 142.713 246.909,142.447 246.978,142.773 247.063 M177.261 247.063 C 177.587 247.148,178.119 247.148,178.445 247.063 C 178.770 246.978,178.504 246.909,177.853 246.909 C 177.202 246.909,176.936 246.978,177.261 247.063 M153.593 247.417 C 154.476 247.486,155.921 247.486,156.805 247.417 C 157.688 247.347,156.965 247.290,155.199 247.290 C 153.432 247.290,152.709 247.347,153.593 247.417 M165.943 247.416 C 166.738 247.488,167.956 247.487,168.648 247.414 C 169.340 247.341,168.690 247.283,167.202 247.284 C 165.714 247.285,165.148 247.345,165.943 247.416 M272.020 263.245 C 267.898 265.323,267.715 264.199,273.726 273.751 C 280.293 284.188,280.061 283.748,278.257 282.314 C 277.451 281.674,274.044 278.982,270.686 276.332 L 264.582 271.515 264.185 272.782 C 263.967 273.479,263.787 274.277,263.785 274.556 C 263.782 274.988,286.380 293.185,286.658 292.974 C 286.731 292.919,277.047 266.841,275.393 262.637 C 275.071 261.819,274.725 261.882,272.020 263.245 M81.842 274.283 C 78.613 280.849,75.828 286.506,75.652 286.854 C 75.404 287.347,75.435 287.425,75.790 287.206 C 77.186 286.349,98.732 270.073,98.732 269.876 C 98.732 268.305,93.651 263.398,92.023 263.398 C 91.852 263.398,89.470 266.898,86.729 271.175 C 83.988 275.452,81.681 278.952,81.603 278.952 C 81.525 278.952,83.284 275.342,85.513 270.930 C 87.741 266.519,89.535 262.879,89.498 262.843 C 88.175 261.519,87.965 261.832,81.842 274.283 " stroke="none" fill="#c6cacb" fill-rule="evenodd"></path><path id="path1" d="M208.284 47.972 C 208.284 48.135,208.801 49.694,209.432 51.438 L 210.580 54.607 211.884 54.518 C 220.762 53.913,224.857 53.771,233.649 53.767 C 250.418 53.758,265.661 55.093,280.006 57.827 C 285.608 58.894,285.383 58.629,278.763 56.361 C 266.030 52.000,249.269 49.085,230.816 48.023 C 223.439 47.598,208.284 47.564,208.284 47.972 M170.583 52.296 C 119.552 62.910,69.290 85.947,57.072 104.321 C 30.924 143.645,58.208 187.048,114.117 195.063 C 144.904 199.476,184.115 193.150,238.546 174.987 C 262.965 166.838,265.206 165.749,286.105 151.862 C 296.834 144.733,315.131 131.365,315.131 130.655 C 315.131 130.576,312.266 131.946,308.765 133.698 C 237.558 169.340,166.994 186.943,121.071 180.523 C 87.445 175.822,63.383 158.823,63.446 139.814 C 63.549 109.032,101.558 79.650,164.468 61.721 C 167.428 60.877,169.883 60.149,169.924 60.102 C 169.965 60.055,170.930 58.153,172.069 55.875 C 174.385 51.240,174.486 51.484,170.583 52.296 M52.300 106.040 C 38.768 116.818,27.862 131.088,22.160 145.475 L 20.587 149.445 20.948 153.971 C 24.298 195.924,60.768 222.957,122.232 229.046 C 136.484 230.458,168.284 230.666,183.263 229.445 C 196.685 228.351,209.912 226.814,208.960 226.459 C 208.681 226.354,206.323 225.865,203.719 225.371 C 192.757 223.290,169.694 217.598,164.159 215.607 C 162.823 215.127,162.816 215.117,163.652 214.781 C 164.117 214.595,166.019 213.832,167.878 213.086 C 175.094 210.193,195.607 201.207,195.034 201.190 C 194.906 201.187,192.547 201.704,189.793 202.340 C 145.728 212.517,106.181 212.210,79.039 201.479 C 34.689 183.945,21.966 138.553,52.539 106.934 C 54.563 104.840,56.160 103.128,56.088 103.128 C 56.015 103.128,54.311 104.438,52.300 106.040 M292.646 173.017 C 277.031 175.088,266.627 195.861,277.566 203.128 C 291.368 212.297,314.055 188.138,302.838 176.217 C 301.080 174.349,296.276 172.510,293.998 172.834 C 293.812 172.861,293.204 172.943,292.646 173.017 M16.923 178.934 C 16.895 181.063,17.900 187.997,18.751 191.547 C 26.504 223.869,54.741 245.471,101.775 255.062 C 158.354 266.599,242.792 260.869,294.759 241.965 C 301.500 239.513,306.917 237.209,306.135 237.125 C 305.783 237.088,301.691 236.891,297.041 236.688 C 287.868 236.287,278.029 235.625,268.964 234.797 L 263.203 234.272 259.835 235.123 C 204.330 249.163,140.089 251.410,95.263 240.882 C 52.815 230.911,25.265 209.536,17.735 180.727 C 17.121 178.378,16.936 177.969,16.923 178.934 " stroke="none" fill="#ca1424" fill-rule="evenodd"></path><path id="path2" d="M195.635 22.684 C 184.593 45.750,154.818 107.363,154.614 107.567 C 154.315 107.866,88.854 126.498,88.687 126.332 C 88.627 126.271,102.084 120.701,118.591 113.954 C 135.099 107.207,148.898 101.506,149.256 101.284 C 149.976 100.838,169.783 60.758,169.366 60.588 C 168.412 60.200,145.963 67.542,135.772 71.575 C 89.789 89.772,64.668 113.015,63.663 138.292 C 62.836 159.108,88.071 176.749,124.598 180.888 C 169.900 186.021,239.212 168.319,307.439 134.192 C 312.227 131.797,316.145 129.901,316.145 129.979 C 316.145 130.216,307.899 136.581,301.437 141.330 C 269.077 165.117,220.327 191.483,170.929 211.914 C 166.648 213.685,163.112 215.159,163.073 215.190 C 162.984 215.259,170.791 217.475,176.500 219.000 C 208.697 227.604,254.537 234.460,292.477 236.344 C 296.475 236.543,301.341 236.794,303.289 236.903 L 306.832 237.100 305.618 237.723 C 286.858 247.347,242.154 257.045,203.719 259.828 C 126.131 265.446,67.031 253.355,38.580 226.044 C 3.297 192.173,11.429 134.980,56.065 103.083 C 57.610 101.979,60.525 99.665,62.541 97.942 C 84.749 78.962,124.356 61.990,167.878 52.805 L 173.964 51.521 175.767 48.047 C 176.758 46.137,177.503 44.507,177.421 44.426 C 176.464 43.469,146.114 50.212,132.460 54.416 C 50.427 79.675,-0.024 133.153,7.557 186.813 C 12.231 219.899,34.093 243.163,73.692 257.188 L 79.089 259.100 78.636 260.150 C 78.387 260.728,72.519 273.525,65.595 288.588 C 58.671 303.652,52.788 316.485,52.521 317.106 C 51.969 318.392,48.570 321.080,89.579 287.805 L 115.131 267.072 117.160 267.256 C 118.276 267.358,121.090 267.671,123.415 267.953 C 156.543 271.970,198.319 271.332,234.317 266.260 C 237.570 265.802,240.494 265.427,240.815 265.427 C 241.135 265.427,257.086 279.363,276.261 296.396 C 295.436 313.429,311.177 327.313,311.240 327.250 C 311.303 327.186,305.510 311.088,298.366 291.477 C 283.476 250.602,284.995 255.409,286.813 254.932 C 293.105 253.283,309.423 247.287,315.061 244.553 L 316.991 243.618 349.017 169.907 C 366.631 129.366,382.026 93.949,383.228 91.204 C 384.430 88.458,385.310 86.271,385.183 86.344 C 349.603 106.979,288.296 135.134,250.832 148.046 L 246.887 149.405 245.640 145.903 C 244.953 143.977,244.481 142.257,244.589 142.082 C 244.697 141.907,272.630 122.466,306.661 98.881 C 340.692 75.295,368.485 55.946,368.423 55.884 C 368.360 55.821,337.377 63.689,299.572 73.367 C 261.767 83.046,230.785 90.915,230.723 90.853 C 230.662 90.792,247.917 83.764,269.067 75.237 C 290.218 66.709,307.645 59.629,307.794 59.503 C 308.315 59.060,297.139 54.400,289.489 51.870 C 267.151 44.483,242.764 40.975,215.980 41.299 C 207.279 41.404,205.898 41.352,205.726 40.913 C 205.617 40.634,203.847 35.461,201.793 29.417 C 199.738 23.373,198.001 18.365,197.931 18.289 C 197.862 18.212,196.829 20.190,195.635 22.684 M232.804 48.025 C 251.803 49.254,269.782 52.704,282.441 57.550 C 285.960 58.897,285.650 58.965,280.405 57.994 C 258.798 53.996,233.325 52.726,212.680 54.618 L 210.482 54.819 209.383 51.643 C 208.779 49.896,208.284 48.289,208.284 48.071 C 208.284 47.558,225.102 47.527,232.804 48.025 M204.538 77.585 C 209.403 92.827,213.451 105.364,213.533 105.447 C 213.616 105.529,236.444 100.082,264.263 93.342 C 292.083 86.602,314.913 81.157,314.998 81.242 C 315.083 81.327,295.862 93.991,272.285 109.384 C 248.707 124.777,229.276 137.499,229.103 137.655 C 228.838 137.895,230.992 144.136,234.015 151.887 L 234.636 153.477 230.674 154.715 C 203.695 163.141,180.763 168.085,158.472 170.281 C 151.618 170.955,133.559 171.330,133.559 170.797 C 133.559 170.584,135.828 165.873,138.602 160.328 L 143.645 150.247 135.305 148.194 C 130.718 147.065,118.635 144.109,108.453 141.625 C 98.272 139.141,89.941 137.032,89.941 136.938 C 89.941 136.845,107.206 132.453,128.309 127.178 C 149.411 121.904,166.816 117.416,166.987 117.205 C 167.157 116.994,173.311 102.443,180.662 84.869 C 196.162 47.815,195.417 49.570,195.572 49.741 C 195.638 49.814,199.673 62.344,204.538 77.585 M340.989 128.006 L 341.230 130.579 342.297 130.390 C 342.884 130.285,344.582 130.103,346.069 129.984 L 348.774 129.768 345.393 131.870 C 343.533 133.026,341.948 134.031,341.870 134.104 C 341.792 134.177,342.051 135.638,342.446 137.352 C 343.330 141.197,343.456 141.116,340.145 138.836 C 336.851 136.566,337.674 136.551,333.399 138.963 C 329.149 141.361,329.170 141.370,331.343 138.150 C 333.707 134.646,333.714 134.880,331.203 133.546 C 328.373 132.042,328.354 132.070,332.620 131.504 L 336.246 131.023 338.284 128.102 C 340.674 124.674,340.677 124.674,340.989 128.006 M304.241 149.343 L 304.818 151.348 307.692 150.780 C 310.206 150.283,311.190 150.214,310.707 150.568 C 310.630 150.625,309.463 151.476,308.115 152.460 C 305.290 154.521,305.423 154.142,306.506 157.018 C 307.495 159.647,307.395 159.691,304.284 158.011 L 301.978 156.765 299.090 158.687 C 297.502 159.744,296.115 160.609,296.007 160.609 C 295.899 160.609,296.442 159.465,297.214 158.067 L 298.617 155.525 297.322 154.983 C 296.610 154.686,295.647 154.290,295.182 154.104 C 294.162 153.696,294.364 153.603,297.878 152.859 L 300.406 152.325 301.921 149.718 C 302.755 148.284,303.488 147.162,303.551 147.225 C 303.613 147.288,303.924 148.241,304.241 149.343 M109.552 153.532 C 117.828 155.797,124.783 157.749,125.009 157.868 C 125.340 158.044,120.621 169.263,119.923 169.961 C 119.856 170.028,117.990 169.774,115.776 169.396 C 103.229 167.254,95.610 163.290,93.004 157.546 C 91.715 154.705,92.359 148.785,93.907 149.238 C 94.236 149.334,101.276 151.266,109.552 153.532 M331.631 162.964 C 331.947 162.958,333.269 162.817,334.568 162.649 C 337.658 162.251,337.650 162.288,334.235 164.209 L 331.317 165.850 331.541 168.022 C 331.665 169.216,331.843 170.396,331.938 170.642 C 332.236 171.420,331.560 171.137,329.447 169.600 L 327.398 168.109 324.270 169.787 C 320.476 171.821,320.480 171.824,322.717 168.885 L 324.512 166.526 322.656 165.462 C 320.537 164.248,320.622 164.172,324.503 163.812 L 326.943 163.585 328.898 161.167 L 330.854 158.749 330.954 160.862 C 331.037 162.593,331.159 162.973,331.631 162.964 M300.024 169.905 C 316.937 174.311,312.043 198.661,292.564 207.019 C 280.519 212.187,269.164 206.505,269.077 195.266 C 268.965 180.657,286.411 166.360,300.024 169.905 M267.794 172.105 C 267.794 173.992,267.667 173.933,270.752 173.493 C 273.082 173.161,272.993 173.371,270.144 174.922 C 268.392 175.876,267.806 176.366,267.920 176.782 C 268.240 177.947,268.503 180.558,268.301 180.558 C 268.186 180.558,267.394 180.025,266.541 179.374 C 264.652 177.932,264.913 177.931,262.003 179.396 C 259.099 180.858,259.021 180.816,260.707 178.688 C 262.352 176.612,262.354 176.673,260.609 175.774 L 259.172 175.034 260.186 174.785 C 260.744 174.648,261.921 174.436,262.802 174.315 C 264.238 174.116,264.553 173.902,265.841 172.254 C 267.608 169.991,267.794 169.977,267.794 172.105 M321.217 189.195 L 321.217 191.070 322.316 190.901 C 327.400 190.117,327.449 190.155,323.969 192.196 L 321.310 193.755 321.587 195.187 C 321.739 195.974,321.871 197.043,321.879 197.561 L 321.893 198.504 319.821 197.097 L 317.749 195.689 315.066 197.119 C 311.882 198.816,311.582 198.719,313.303 196.553 C 314.013 195.659,314.729 194.743,314.895 194.517 C 315.106 194.227,314.735 193.882,313.642 193.350 C 311.604 192.360,311.677 192.168,314.201 191.876 C 317.178 191.533,317.577 191.320,319.231 189.203 C 321.056 186.866,321.217 186.865,321.217 189.195 M236.112 193.521 C 236.893 193.436,237.798 193.314,238.123 193.249 C 239.214 193.033,238.731 193.578,236.814 194.724 L 234.913 195.861 235.126 197.677 C 235.376 199.803,235.372 199.805,233.488 198.452 L 232.038 197.411 229.933 198.474 C 227.531 199.687,227.203 199.645,228.312 198.267 C 230.133 196.005,230.103 196.186,228.773 195.552 C 227.088 194.748,227.236 194.536,229.670 194.264 C 231.717 194.035,231.826 193.973,233.136 192.285 L 234.489 190.542 234.590 192.109 L 234.692 193.676 236.112 193.521 M257.988 194.783 L 257.988 196.160 259.932 195.948 L 261.877 195.735 259.950 196.954 L 258.024 198.173 258.227 199.887 C 258.450 201.773,258.321 201.795,256.312 200.209 C 255.483 199.554,255.479 199.555,253.532 200.538 C 251.013 201.809,250.985 201.798,252.276 200.001 C 252.877 199.164,253.305 198.423,253.227 198.355 C 253.149 198.286,252.629 197.993,252.071 197.704 C 250.923 197.109,251.137 196.963,253.650 196.627 C 255.017 196.445,255.382 196.215,256.355 194.922 C 257.752 193.067,257.988 193.047,257.988 194.783 M205.009 208.504 L 207.101 208.295 206.255 208.950 C 205.790 209.310,204.864 209.852,204.197 210.155 L 202.983 210.704 203.257 212.434 C 203.603 214.626,203.529 214.678,201.893 213.383 L 200.543 212.313 198.462 213.364 C 195.915 214.650,195.682 214.501,197.250 212.588 L 198.463 211.107 197.246 210.526 C 195.763 209.819,195.918 209.618,198.218 209.261 C 199.779 209.018,200.168 208.786,201.352 207.388 L 202.705 205.792 202.811 207.253 L 202.917 208.714 205.009 208.504 M227.918 213.289 C 230.368 213.112,230.366 213.100,228.026 214.421 L 226.129 215.492 226.286 217.129 C 226.470 219.038,226.466 219.039,224.783 217.873 L 223.495 216.980 221.563 217.854 C 219.199 218.924,219.065 218.833,220.444 217.091 L 221.527 215.724 220.487 215.131 C 219.040 214.308,219.164 214.139,221.346 213.958 C 223.104 213.812,223.343 213.687,224.473 212.322 L 225.697 210.844 225.805 212.139 L 225.912 213.434 227.918 213.289 M250.789 216.489 C 253.042 216.257,252.981 216.613,250.575 217.739 L 248.866 218.540 249.085 220.405 L 249.304 222.270 248.202 221.448 C 247.595 220.995,246.917 220.494,246.695 220.332 C 246.442 220.149,245.508 220.434,244.194 221.098 C 241.766 222.323,241.685 222.256,243.264 220.328 L 244.432 218.903 243.218 218.249 C 241.840 217.507,242.299 217.180,244.814 217.109 C 245.809 217.081,246.236 216.805,247.350 215.469 L 248.690 213.863 248.792 215.274 L 248.895 216.685 250.789 216.489 M311.681 219.258 C 312.742 219.156,314.028 219.007,314.539 218.927 C 316.104 218.684,315.591 219.207,312.772 220.728 C 309.526 222.481,309.742 222.136,310.096 224.999 C 310.458 227.929,310.452 227.933,308.293 226.315 C 307.312 225.580,306.325 224.869,306.101 224.735 C 305.876 224.602,304.303 225.191,302.600 226.046 C 298.837 227.936,298.841 227.938,301.160 225.082 C 302.188 223.816,302.975 222.736,302.909 222.682 C 302.843 222.628,302.029 222.145,301.099 221.608 L 299.409 220.632 300.930 220.390 C 301.767 220.257,303.173 220.057,304.054 219.944 C 305.540 219.755,305.798 219.568,307.604 217.370 L 309.552 214.999 309.652 217.222 L 309.752 219.444 311.681 219.258 M277.937 217.969 L 277.937 219.538 279.966 219.326 C 282.492 219.062,282.508 219.328,280.045 220.662 L 278.107 221.713 278.194 223.621 C 278.297 225.855,278.319 225.845,276.374 224.448 L 274.869 223.367 272.644 224.464 C 269.953 225.791,269.814 225.721,271.337 223.806 C 272.787 221.982,272.786 222.055,271.365 221.289 C 269.993 220.551,270.102 220.118,271.660 220.118 C 273.973 220.118,274.760 219.754,276.103 218.058 C 277.728 216.006,277.937 215.996,277.937 217.969 M281.229 277.458 C 284.435 285.997,287.017 293.112,286.968 293.268 C 286.903 293.471,271.221 281.316,263.454 275.042 C 263.092 274.749,264.969 269.372,265.954 267.878 C 267.550 265.458,273.698 261.365,275.057 261.818 C 275.245 261.881,278.022 268.919,281.229 277.458 M92.068 263.063 C 94.659 264.032,99.070 268.384,99.070 269.970 C 99.070 270.180,75.163 288.081,74.883 288.081 C 74.795 288.081,77.615 282.299,81.150 275.232 L 87.576 262.384 88.915 262.384 C 89.651 262.384,91.070 262.689,92.068 263.063 " stroke="none" fill="#042454" fill-rule="evenodd"></path><path id="path3" d="M215.151 41.166 C 217.533 41.224,221.337 41.224,223.604 41.165 C 225.871 41.107,223.922 41.059,219.273 41.060 C 214.624 41.060,212.769 41.108,215.151 41.166 M232.883 41.490 C 233.301 41.570,233.986 41.570,234.404 41.490 C 234.822 41.409,234.480 41.343,233.643 41.343 C 232.806 41.343,232.464 41.409,232.883 41.490 M238.123 41.822 C 238.449 41.907,238.981 41.907,239.307 41.822 C 239.632 41.737,239.366 41.668,238.715 41.668 C 238.064 41.668,237.798 41.737,238.123 41.822 M38.715 107.185 C 36.489 109.417,34.744 111.243,34.837 111.243 C 34.930 111.243,36.827 109.417,39.053 107.185 C 41.279 104.954,43.024 103.128,42.931 103.128 C 42.838 103.128,40.941 104.954,38.715 107.185 M133.559 170.828 C 133.559 170.972,134.167 171.090,134.911 171.090 C 135.655 171.090,136.264 171.030,136.264 170.957 C 136.264 170.883,135.655 170.765,134.911 170.694 C 134.167 170.623,133.559 170.684,133.559 170.828 M267.374 171.682 C 267.581 173.857,267.714 174.034,267.755 172.189 C 267.776 171.213,267.672 170.414,267.524 170.414 C 267.375 170.414,267.308 170.985,267.374 171.682 M6.841 182.249 C 6.841 182.899,6.910 183.166,6.996 182.840 C 7.081 182.515,7.081 181.982,6.996 181.657 C 6.910 181.331,6.841 181.598,6.841 182.249 M310.160 183.263 C 310.160 184.286,310.224 184.704,310.301 184.193 C 310.379 183.681,310.379 182.844,310.301 182.333 C 310.224 181.822,310.160 182.240,310.160 183.263 M29.248 231.276 C 30.914 232.950,32.353 234.320,32.446 234.320 C 32.539 234.320,31.252 232.950,29.586 231.276 C 27.920 229.603,26.481 228.233,26.388 228.233 C 26.295 228.233,27.582 229.603,29.248 231.276 M138.377 269.717 C 138.702 269.802,139.235 269.802,139.560 269.717 C 139.886 269.632,139.620 269.563,138.969 269.563 C 138.318 269.563,138.052 269.632,138.377 269.717 M203.808 269.724 C 204.228 269.804,204.837 269.801,205.160 269.717 C 205.484 269.632,205.139 269.566,204.396 269.570 C 203.652 269.573,203.387 269.643,203.808 269.724 M142.946 270.062 C 143.366 270.143,143.975 270.139,144.298 270.055 C 144.621 269.970,144.277 269.904,143.533 269.908 C 142.790 269.912,142.525 269.981,142.946 270.062 M198.736 270.062 C 199.157 270.143,199.765 270.139,200.088 270.055 C 200.412 269.970,200.068 269.904,199.324 269.908 C 198.580 269.912,198.315 269.981,198.736 270.062 M148.694 270.400 C 149.114 270.481,149.723 270.478,150.046 270.393 C 150.369 270.308,150.025 270.242,149.281 270.246 C 148.538 270.250,148.273 270.319,148.694 270.400 M192.143 270.403 C 192.657 270.481,193.418 270.479,193.834 270.399 C 194.250 270.318,193.829 270.255,192.899 270.257 C 191.970 270.260,191.629 270.326,192.143 270.403 M156.814 270.747 C 157.609 270.818,158.826 270.817,159.519 270.745 C 160.211 270.672,159.560 270.613,158.073 270.615 C 156.585 270.616,156.018 270.675,156.814 270.747 M182.511 270.747 C 183.306 270.818,184.524 270.817,185.216 270.745 C 185.909 270.672,185.258 270.613,183.770 270.615 C 182.282 270.616,181.716 270.675,182.511 270.747 " stroke="none" fill="#4c647e" fill-rule="evenodd"></path><path id="path4" d="M227.642 47.908 C 227.967 47.994,228.500 47.994,228.825 47.908 C 229.150 47.823,228.884 47.754,228.233 47.754 C 227.582 47.754,227.316 47.823,227.642 47.908 M221.893 53.995 C 222.219 54.080,222.751 54.080,223.077 53.995 C 223.402 53.910,223.136 53.840,222.485 53.840 C 221.834 53.840,221.568 53.910,221.893 53.995 M244.548 53.995 C 244.873 54.080,245.406 54.080,245.731 53.995 C 246.057 53.910,245.790 53.840,245.139 53.840 C 244.489 53.840,244.222 53.910,244.548 53.995 M78.765 106.086 L 77.599 107.354 78.867 106.189 C 80.047 105.104,80.291 104.818,80.033 104.818 C 79.976 104.818,79.405 105.389,78.765 106.086 M63.337 139.983 C 63.337 141.192,63.399 141.686,63.474 141.082 C 63.549 140.478,63.549 139.489,63.474 138.884 C 63.399 138.280,63.337 138.774,63.337 139.983 M72.020 159.024 C 72.020 159.082,72.515 159.577,73.119 160.123 L 74.218 161.116 73.225 160.017 C 72.299 158.993,72.020 158.763,72.020 159.024 M16.653 176.669 C 16.657 177.413,16.726 177.678,16.807 177.257 C 16.888 176.837,16.885 176.228,16.800 175.905 C 16.716 175.581,16.650 175.926,16.653 176.669 M135.165 181.811 C 135.583 181.891,136.268 181.891,136.686 181.811 C 137.105 181.730,136.762 181.664,135.926 181.664 C 135.089 181.664,134.746 181.730,135.165 181.811 M146.492 181.814 C 147.003 181.892,147.840 181.892,148.352 181.814 C 148.863 181.737,148.445 181.674,147.422 181.674 C 146.399 181.674,145.981 181.737,146.492 181.814 M287.151 236.243 C 287.477 236.328,288.009 236.328,288.335 236.243 C 288.660 236.158,288.394 236.089,287.743 236.089 C 287.092 236.089,286.826 236.158,287.151 236.243 M293.238 236.581 C 293.563 236.666,294.096 236.666,294.421 236.581 C 294.746 236.496,294.480 236.427,293.829 236.427 C 293.178 236.427,292.912 236.496,293.238 236.581 M300.849 236.926 C 301.270 237.006,301.878 237.003,302.202 236.919 C 302.525 236.834,302.181 236.768,301.437 236.772 C 300.693 236.775,300.429 236.845,300.849 236.926 M146.154 260.588 C 146.479 260.673,147.012 260.673,147.337 260.588 C 147.663 260.503,147.396 260.433,146.746 260.433 C 146.095 260.433,145.828 260.503,146.154 260.588 M190.621 260.594 C 191.042 260.675,191.650 260.672,191.974 260.587 C 192.297 260.503,191.953 260.437,191.209 260.440 C 190.465 260.444,190.200 260.513,190.621 260.594 M154.776 260.932 C 155.194 261.012,155.879 261.012,156.298 260.932 C 156.716 260.851,156.374 260.785,155.537 260.785 C 154.700 260.785,154.358 260.851,154.776 260.932 M180.818 260.938 C 181.425 261.013,182.338 261.012,182.846 260.935 C 183.354 260.858,182.857 260.796,181.741 260.798 C 180.626 260.800,180.210 260.863,180.818 260.938 M178.787 270.738 C 179.207 270.819,179.816 270.816,180.139 270.731 C 180.462 270.646,180.118 270.580,179.374 270.584 C 178.631 270.588,178.366 270.657,178.787 270.738 " stroke="none" fill="#364b6c" fill-rule="evenodd"></path><path id="path5" d="M46.785 135.418 C 46.785 137.278,46.842 137.996,46.911 137.013 C 46.979 136.031,46.979 134.509,46.909 133.632 C 46.840 132.755,46.784 133.559,46.785 135.418 M35.959 144.379 C 35.959 145.959,36.017 146.606,36.089 145.816 C 36.160 145.025,36.160 143.732,36.089 142.942 C 36.017 142.151,35.959 142.798,35.959 144.379 M20.718 153.170 C 20.718 154.007,20.784 154.349,20.864 153.931 C 20.945 153.512,20.945 152.828,20.864 152.409 C 20.784 151.991,20.718 152.333,20.718 153.170 M60.524 169.168 C 60.524 169.226,61.019 169.720,61.623 170.266 L 62.722 171.260 61.729 170.161 C 60.803 169.136,60.524 168.906,60.524 169.168 M305.768 184.108 C 305.770 185.224,305.833 185.640,305.909 185.032 C 305.984 184.424,305.982 183.511,305.905 183.003 C 305.828 182.495,305.766 182.992,305.768 184.108 M124.687 196.351 C 125.108 196.432,125.716 196.429,126.039 196.344 C 126.363 196.259,126.019 196.193,125.275 196.197 C 124.531 196.201,124.266 196.270,124.687 196.351 M143.787 196.345 C 144.112 196.430,144.645 196.430,144.970 196.345 C 145.296 196.260,145.030 196.190,144.379 196.190 C 143.728 196.190,143.462 196.260,143.787 196.345 M133.305 196.698 C 134.189 196.768,135.634 196.768,136.517 196.698 C 137.401 196.629,136.678 196.572,134.911 196.572 C 133.145 196.572,132.422 196.629,133.305 196.698 M142.773 209.193 C 143.098 209.278,143.631 209.278,143.956 209.193 C 144.281 209.108,144.015 209.039,143.364 209.039 C 142.713 209.039,142.447 209.108,142.773 209.193 M115.723 209.531 C 116.048 209.617,116.581 209.617,116.906 209.531 C 117.232 209.446,116.965 209.377,116.314 209.377 C 115.664 209.377,115.397 209.446,115.723 209.531 M136.353 209.541 C 136.867 209.619,137.628 209.617,138.044 209.536 C 138.459 209.456,138.039 209.393,137.109 209.395 C 136.179 209.398,135.839 209.463,136.353 209.541 M124.683 209.875 C 125.101 209.956,125.786 209.956,126.205 209.875 C 126.623 209.795,126.281 209.729,125.444 209.729 C 124.607 209.729,124.265 209.795,124.683 209.875 M129.248 229.819 C 129.573 229.904,130.106 229.904,130.431 229.819 C 130.757 229.734,130.490 229.664,129.839 229.664 C 129.189 229.664,128.922 229.734,129.248 229.819 M178.787 229.825 C 179.207 229.906,179.816 229.903,180.139 229.818 C 180.462 229.733,180.118 229.667,179.374 229.671 C 178.631 229.675,178.366 229.744,178.787 229.825 M134.662 230.167 C 135.176 230.244,135.937 230.242,136.353 230.162 C 136.769 230.082,136.348 230.018,135.418 230.021 C 134.489 230.023,134.148 230.089,134.662 230.167 M171.851 230.166 C 172.363 230.244,173.199 230.244,173.711 230.166 C 174.222 230.089,173.804 230.025,172.781 230.025 C 171.758 230.025,171.340 230.089,171.851 230.166 M148.161 230.515 C 151.264 230.571,156.437 230.571,159.657 230.515 C 162.877 230.460,160.338 230.414,154.015 230.414 C 147.692 230.414,145.058 230.459,148.161 230.515 M130.600 246.387 C 130.926 246.472,131.458 246.472,131.784 246.387 C 132.109 246.302,131.843 246.232,131.192 246.232 C 130.541 246.232,130.275 246.302,130.600 246.387 M134.996 246.725 C 135.321 246.810,135.854 246.810,136.179 246.725 C 136.505 246.640,136.238 246.570,135.587 246.570 C 134.937 246.570,134.670 246.640,134.996 246.725 M184.873 246.731 C 185.294 246.812,185.902 246.809,186.225 246.724 C 186.549 246.640,186.205 246.573,185.461 246.577 C 184.717 246.581,184.452 246.650,184.873 246.731 M140.579 247.069 C 140.999 247.150,141.608 247.147,141.931 247.062 C 142.255 246.978,141.910 246.912,141.167 246.915 C 140.423 246.919,140.158 246.988,140.579 247.069 M179.290 247.063 C 179.615 247.148,180.148 247.148,180.473 247.063 C 180.799 246.978,180.533 246.909,179.882 246.909 C 179.231 246.909,178.964 246.978,179.290 247.063 M148.361 247.416 C 149.156 247.488,150.373 247.487,151.066 247.414 C 151.758 247.341,151.107 247.283,149.620 247.284 C 148.132 247.285,147.565 247.345,148.361 247.416 M170.660 247.412 C 171.260 247.487,172.326 247.488,173.027 247.415 C 173.729 247.342,173.238 247.281,171.936 247.279 C 170.634 247.278,170.060 247.338,170.660 247.412 " stroke="none" fill="#dc5c6c" fill-rule="evenodd"></path><path id="path6" d="M195.338 60.355 C 195.227 60.727,192.000 75.334,188.169 92.815 C 184.337 110.296,181.132 124.804,181.046 125.056 C 180.938 125.374,181.188 125.322,181.862 124.887 C 195.558 116.057,209.297 106.937,209.297 106.675 C 209.298 106.413,196.189 61.573,195.657 60.017 C 195.593 59.831,195.450 59.983,195.338 60.355 M239.319 107.828 C 207.758 117.441,181.857 125.384,181.763 125.479 C 181.560 125.681,224.345 134.939,225.408 134.922 C 226.579 134.904,241.911 125.538,278.276 102.625 C 297.689 90.393,297.885 90.266,297.204 90.314 C 296.929 90.334,270.880 98.215,239.319 107.828 M54.423 105.400 C 24.343 134.224,32.171 177.759,71.006 197.615 C 96.191 210.492,130.826 212.970,175.272 205.076 C 195.297 201.519,196.144 201.213,222.558 187.977 C 237.561 180.460,259.626 168.558,259.252 168.185 C 259.188 168.120,256.176 169.131,252.560 170.431 C 188.857 193.341,141.659 201.022,107.185 194.089 C 56.326 183.861,31.981 141.494,56.178 105.325 C 58.562 101.763,58.554 101.775,58.367 101.775 C 58.278 101.775,56.503 103.406,54.423 105.400 M138.369 126.936 C 121.768 131.415,108.382 135.123,108.624 135.175 C 108.995 135.255,176.081 126.186,179.521 125.591 C 180.791 125.371,181.118 125.582,171.090 120.162 L 168.555 118.792 138.369 126.936 M163.605 138.234 L 146.822 150.634 141.709 160.650 L 136.596 170.667 137.698 170.889 C 139.906 171.336,151.421 170.705,151.923 170.110 C 152.174 169.812,158.514 160.059,166.012 148.436 C 173.509 136.813,179.867 126.961,180.140 126.543 C 180.413 126.124,180.580 125.794,180.512 125.808 C 180.444 125.823,172.836 131.414,163.605 138.234 M180.896 146.343 L 180.896 167.016 181.995 166.816 C 193.439 164.734,203.614 162.276,203.374 161.652 C 203.205 161.212,181.381 126.219,181.020 125.810 C 180.952 125.733,180.896 134.972,180.896 146.343 M338.239 128.602 L 336.158 131.466 333.506 131.712 C 329.402 132.093,329.262 132.232,331.690 133.526 C 334.036 134.777,334.026 134.678,332.104 137.538 C 331.388 138.604,330.679 139.686,330.528 139.942 C 330.284 140.355,335.606 137.677,336.693 136.839 C 336.998 136.604,337.951 137.061,339.998 138.423 C 343.240 140.580,343.023 140.785,341.977 136.553 C 341.717 135.503,341.505 134.487,341.505 134.293 C 341.505 134.100,342.836 133.137,344.463 132.152 C 347.699 130.193,347.627 129.996,343.848 130.460 C 340.896 130.822,340.834 130.800,340.809 129.397 C 340.798 128.803,340.684 127.737,340.555 127.027 L 340.321 125.737 338.239 128.602 M302.174 149.872 C 300.710 152.489,300.484 152.648,297.430 153.211 C 294.942 153.669,294.929 153.813,297.295 154.693 C 299.213 155.407,299.177 155.102,297.663 157.811 C 296.981 159.029,296.563 159.966,296.733 159.894 C 296.902 159.822,298.127 159.030,299.454 158.133 L 301.867 156.504 304.264 157.711 C 305.582 158.375,306.730 158.918,306.813 158.918 C 306.897 158.918,306.597 157.976,306.146 156.825 C 305.067 154.073,305.013 154.239,307.560 152.503 C 309.985 150.850,309.938 150.556,307.338 151.113 C 304.944 151.627,304.316 151.580,304.285 150.888 C 304.271 150.562,304.076 149.689,303.852 148.947 L 303.446 147.597 302.174 149.872 M19.672 153.110 C 13.464 175.396,18.477 193.499,35.638 210.757 C 72.478 247.806,162.676 258.033,256.197 235.765 C 261.943 234.397,262.196 234.178,258.420 233.843 C 250.324 233.124,230.060 230.235,217.582 228.020 C 213.410 227.279,210.237 226.882,209.298 226.983 C 208.462 227.073,204.353 227.540,200.169 228.020 C 156.082 233.083,113.910 230.925,84.574 222.104 C 45.508 210.357,22.088 184.714,20.537 151.986 L 20.456 150.296 19.672 153.110 M328.887 161.571 C 327.991 162.716,327.231 163.663,327.197 163.677 C 327.162 163.691,325.852 163.881,324.284 164.100 L 321.433 164.497 323.188 165.449 L 324.942 166.402 323.418 168.382 C 321.408 170.994,321.462 171.051,324.413 169.430 C 327.472 167.752,327.373 167.753,329.652 169.401 C 331.838 170.981,331.793 170.999,331.363 168.732 C 330.812 165.830,330.803 165.849,333.559 164.328 C 336.210 162.864,336.604 162.521,335.334 162.780 C 334.915 162.865,333.799 163.022,332.853 163.128 L 331.134 163.322 330.825 161.406 L 330.516 159.491 328.887 161.571 M289.772 170.543 C 269.935 176.554,261.804 201.318,277.599 207.619 C 290.757 212.868,310.082 198.384,310.055 183.293 C 310.037 173.168,300.627 167.253,289.772 170.543 M265.872 172.627 C 264.423 174.419,263.644 174.761,260.862 174.826 C 259.947 174.847,259.909 174.889,260.480 175.252 C 260.827 175.474,261.435 175.907,261.830 176.215 L 262.548 176.775 261.452 178.139 C 259.963 179.992,260.032 180.035,262.519 178.808 L 264.683 177.741 266.408 178.980 C 267.356 179.661,268.123 180.029,268.112 179.797 C 268.101 179.564,267.971 178.640,267.823 177.743 L 267.555 176.112 269.365 175.090 C 271.633 173.810,271.629 173.649,269.333 173.919 L 267.491 174.135 267.389 172.506 L 267.287 170.877 265.872 172.627 M299.619 173.694 C 314.348 180.308,301.136 206.148,283.527 205.167 C 268.273 204.316,269.897 182.994,285.824 175.014 C 290.550 172.646,296.102 172.114,299.619 173.694 M319.111 189.741 C 317.673 191.478,317.350 191.693,315.899 191.882 C 312.476 192.326,312.469 192.332,314.073 193.289 C 315.036 193.863,315.407 194.270,315.209 194.535 C 315.046 194.751,314.321 195.669,313.595 196.575 L 312.277 198.223 315.079 196.814 L 317.882 195.405 319.465 196.536 C 321.917 198.290,321.830 198.283,321.523 196.694 C 320.949 193.729,321.013 193.579,323.415 192.236 C 325.804 190.900,326.122 190.548,324.683 190.831 C 324.172 190.932,323.145 191.058,322.401 191.111 L 321.048 191.209 320.879 189.509 L 320.710 187.809 319.111 189.741 M233.136 192.703 C 232.120 194.090,231.911 194.197,229.438 194.598 L 228.107 194.813 229.184 195.495 L 230.261 196.177 229.570 197.149 C 229.189 197.683,228.733 198.210,228.556 198.319 C 227.302 199.094,228.619 198.970,230.219 198.162 L 232.204 197.160 233.607 198.192 L 235.010 199.223 234.800 197.414 L 234.590 195.604 236.463 194.598 C 237.493 194.044,238.307 193.569,238.272 193.541 C 238.237 193.514,237.405 193.598,236.424 193.728 C 234.509 193.981,234.578 194.038,234.248 191.940 C 234.172 191.455,233.928 191.623,233.136 192.703 M256.378 195.329 C 255.420 196.543,255.047 196.757,253.523 196.966 L 251.771 197.207 252.682 197.685 C 253.772 198.256,253.797 198.465,252.916 199.585 C 251.910 200.865,252.073 200.941,253.871 200.030 L 255.502 199.204 256.492 200.012 C 257.870 201.139,258.104 201.049,257.893 199.475 C 257.715 198.145,257.757 198.074,259.286 197.085 L 260.862 196.066 259.278 196.275 L 257.693 196.485 257.587 195.208 L 257.481 193.932 256.378 195.329 M201.183 207.935 C 200.158 209.127,199.752 209.344,198.140 209.565 L 196.281 209.818 197.380 210.276 C 198.741 210.842,198.744 211.064,197.410 212.748 L 196.342 214.096 198.443 213.036 L 200.543 211.975 201.895 213.046 L 203.247 214.116 203.018 212.392 C 202.795 210.710,202.816 210.654,203.871 210.068 C 206.168 208.794,206.218 208.666,204.397 208.731 C 202.732 208.790,202.706 208.776,202.538 207.675 L 202.367 206.559 201.183 207.935 M224.595 212.573 C 223.643 213.778,223.258 214.002,221.780 214.205 C 220.096 214.437,220.081 214.449,220.854 214.970 C 221.286 215.260,221.696 215.542,221.765 215.595 C 221.834 215.648,221.391 216.322,220.780 217.093 L 219.670 218.495 221.466 217.585 C 223.363 216.624,223.649 216.651,225.443 217.956 L 226.203 218.509 225.990 216.957 C 225.786 215.471,225.824 215.378,226.862 214.803 C 228.965 213.636,229.025 213.511,227.421 213.638 L 225.911 213.759 225.804 212.467 L 225.697 211.176 224.595 212.573 M247.293 215.896 C 246.358 217.064,246.024 217.240,244.419 217.408 L 242.604 217.599 243.718 218.199 L 244.832 218.799 243.781 220.126 L 242.730 221.453 244.635 220.581 C 246.532 219.712,246.544 219.711,247.277 220.370 C 248.794 221.733,248.972 221.697,248.788 220.061 C 248.619 218.564,248.632 218.541,250.175 217.635 L 251.733 216.720 250.211 216.807 C 248.715 216.893,248.687 216.875,248.521 215.734 L 248.352 214.574 247.293 215.896 M307.460 217.946 C 305.634 220.107,304.812 220.456,301.559 220.456 C 300.201 220.456,300.356 220.999,301.944 221.809 C 303.591 222.649,303.589 222.545,302.002 224.467 C 300.004 226.887,300.048 226.933,303.034 225.540 C 305.309 224.480,305.942 224.309,306.415 224.628 C 306.735 224.844,307.685 225.524,308.526 226.139 L 310.054 227.257 309.841 224.743 L 309.629 222.230 311.281 221.291 C 312.190 220.775,313.390 220.077,313.948 219.739 L 314.962 219.124 313.779 219.269 C 313.128 219.349,311.880 219.493,311.005 219.589 L 309.415 219.763 309.314 217.817 L 309.214 215.871 307.460 217.946 M276.131 218.442 C 274.906 219.966,274.713 220.073,272.789 220.296 L 270.746 220.533 271.806 221.204 C 273.107 222.028,273.107 222.039,271.827 223.592 C 270.587 225.096,270.634 225.110,273.016 223.942 L 274.873 223.031 276.451 224.165 L 278.029 225.298 277.808 223.469 L 277.586 221.640 279.537 220.535 L 281.488 219.429 279.564 219.641 L 277.639 219.853 277.535 218.339 L 277.430 216.824 276.131 218.442 M85.527 270.921 C 83.256 275.431,81.528 278.999,81.686 278.850 C 83.047 277.568,91.779 263.198,91.318 262.999 C 89.886 262.381,89.699 262.637,85.527 270.921 M267.126 266.653 C 265.556 268.441,264.303 271.221,264.844 271.716 C 265.072 271.924,268.225 274.419,271.851 277.261 C 275.478 280.103,278.737 282.673,279.094 282.972 C 279.941 283.681,280.177 284.089,274.125 274.387 C 267.898 264.405,268.508 265.078,267.126 266.653 " stroke="none" fill="#ffffff" fill-rule="evenodd"></path><path id="path7" d="" stroke="none" fill="#445c84" fill-rule="evenodd"></path><path id="path8" d="M277.696 217.921 C 277.699 218.850,277.764 219.191,277.842 218.677 C 277.920 218.163,277.918 217.402,277.837 216.986 C 277.757 216.570,277.693 216.991,277.696 217.921 M166.798 270.751 C 168.994 270.810,172.494 270.810,174.575 270.751 C 176.657 270.692,174.861 270.643,170.583 270.644 C 166.306 270.644,164.603 270.692,166.798 270.751 " stroke="none" fill="#24446c" fill-rule="evenodd"></path></g></svg>