<svg id="svg" xmlns="http://www.w3.org/2000/svg" xmlns:xlink="http://www.w3.org/1999/xlink" width="400" height="363.4427684117125" viewBox="0, 0, 400,363.4427684117125"><g id="svgg"><path id="path0" d="M197.465 89.487 C 193.476 89.774,191.053 90.045,186.683 90.692 C 184.824 90.967,182.787 91.231,182.157 91.279 C 180.853 91.379,180.924 91.124,180.835 96.007 C 180.758 100.226,180.311 110.961,180.118 113.221 C 180.043 114.099,179.884 116.075,179.765 117.612 C 179.646 119.149,179.491 120.906,179.421 121.516 C 179.351 122.127,179.196 123.585,179.076 124.756 C 178.800 127.455,178.548 129.480,178.348 130.612 C 178.262 131.100,178.092 132.458,177.970 133.629 C 177.847 134.800,177.533 136.717,177.272 137.888 C 177.010 139.059,176.698 140.703,176.577 141.540 C 176.052 145.200,174.637 148.555,173.470 148.905 C 173.030 149.037,170.994 149.934,168.944 150.898 C 163.208 153.596,161.390 154.436,160.426 154.835 C 159.938 155.037,159.059 155.407,158.474 155.658 C 155.872 156.773,154.866 157.169,154.037 157.406 C 153.549 157.546,152.231 158.065,151.107 158.560 L 149.064 159.460 144.896 156.676 C 142.603 155.145,140.648 153.787,140.550 153.659 C 140.401 153.463,132.094 147.874,130.298 146.761 C 129.983 146.566,129.645 146.316,129.547 146.207 C 129.450 146.097,126.974 144.432,124.046 142.507 C 121.118 140.581,118.642 138.907,118.545 138.785 C 115.820 135.387,115.637 136.936,117.869 144.519 C 121.499 156.853,124.225 166.880,124.032 167.192 C 123.924 167.368,121.886 168.662,119.504 170.069 C 117.122 171.475,114.843 172.916,114.440 173.270 C 114.037 173.623,113.518 173.913,113.287 173.913 C 113.055 173.913,112.866 174.073,112.866 174.268 C 112.866 174.463,112.626 174.623,112.334 174.623 C 112.041 174.623,111.801 174.783,111.801 174.978 C 111.801 175.173,111.562 175.333,111.269 175.333 C 110.976 175.333,110.735 175.453,110.734 175.599 C 110.733 175.745,110.134 176.263,109.403 176.750 C 103.879 180.431,99.445 184.244,91.439 192.199 C 85.855 197.748,84.534 199.162,81.988 202.318 C 81.500 202.922,80.759 203.810,80.341 204.291 C 79.923 204.772,79.205 205.719,78.744 206.396 C 78.283 207.072,77.786 207.627,77.640 207.628 C 77.493 207.630,77.374 207.870,77.374 208.163 C 77.374 208.456,77.254 208.696,77.107 208.697 C 76.961 208.698,76.282 209.576,75.599 210.648 C 74.916 211.719,74.237 212.597,74.091 212.598 C 73.944 212.599,73.824 212.766,73.824 212.969 C 73.824 213.346,72.608 215.189,71.754 216.106 C 71.493 216.385,71.134 216.949,70.956 217.358 C 70.574 218.234,69.833 219.447,69.526 219.698 C 69.407 219.796,68.629 221.154,67.797 222.715 C 66.965 224.277,66.096 225.794,65.866 226.087 C 65.429 226.642,61.713 234.183,60.357 237.267 C 59.928 238.243,59.428 239.319,59.247 239.658 C 59.066 239.997,58.917 240.417,58.917 240.591 C 58.917 240.765,58.647 241.526,58.317 242.281 C 57.987 243.037,57.137 245.393,56.429 247.516 L 55.140 251.377 55.793 254.438 C 56.152 256.121,56.507 257.817,56.581 258.208 C 56.921 260.003,58.008 263.773,59.315 267.698 C 61.050 272.907,61.610 274.436,62.987 277.728 C 63.232 278.314,63.596 279.193,63.797 279.681 C 64.460 281.294,69.570 291.546,70.374 292.874 C 70.808 293.591,71.879 295.348,72.754 296.778 C 73.629 298.209,74.557 299.778,74.814 300.266 C 75.072 300.754,75.724 301.713,76.264 302.396 C 76.803 303.079,77.548 304.157,77.918 304.791 C 78.288 305.426,78.706 305.945,78.846 305.945 C 78.986 305.945,79.191 306.224,79.301 306.566 C 79.411 306.908,80.065 307.826,80.754 308.607 C 82.715 310.830,82.853 310.999,83.230 311.648 C 84.734 314.237,97.868 327.307,102.041 330.367 C 102.236 330.511,103.304 331.343,104.414 332.217 C 105.524 333.091,106.962 334.173,107.608 334.620 C 108.255 335.068,109.610 336.026,110.620 336.750 C 111.630 337.474,112.987 338.383,113.637 338.772 C 114.287 339.160,115.377 339.837,116.060 340.276 C 116.744 340.716,117.622 341.238,118.012 341.437 C 118.403 341.635,119.521 342.269,120.497 342.845 C 123.016 344.332,133.685 349.601,134.175 349.601 C 134.400 349.601,135.008 349.826,135.526 350.101 C 138.597 351.733,148.231 355.063,155.102 356.868 C 159.286 357.967,161.439 358.516,162.023 358.632 C 162.413 358.710,163.771 359.014,165.040 359.309 C 166.309 359.603,167.986 359.936,168.767 360.048 C 169.547 360.160,170.586 360.334,171.074 360.434 C 171.562 360.534,172.360 360.696,172.848 360.795 C 173.336 360.894,174.860 361.123,176.235 361.304 C 177.609 361.484,179.207 361.711,179.784 361.808 C 180.808 361.980,181.777 362.094,186.158 362.558 C 187.329 362.683,188.846 362.874,189.530 362.984 C 191.558 363.309,225.679 363.412,228.571 363.101 C 230.035 362.944,232.511 362.706,234.073 362.571 C 235.634 362.437,239.867 361.866,243.478 361.302 C 247.090 360.739,250.683 360.180,251.464 360.059 C 252.245 359.938,253.602 359.678,254.481 359.481 C 255.359 359.284,256.454 359.050,256.913 358.962 C 259.812 358.405,268.530 356.176,272.050 355.092 C 275.575 354.006,284.564 351.046,285.571 350.639 C 286.138 350.410,286.921 350.098,287.311 349.947 C 290.107 348.863,294.104 347.186,296.292 346.179 C 297.718 345.523,298.963 344.987,299.059 344.987 C 299.245 344.987,307.400 340.917,310.401 339.326 C 311.387 338.803,313.620 337.507,315.361 336.446 C 317.103 335.385,318.691 334.437,318.891 334.339 C 319.360 334.110,322.394 332.095,322.626 331.858 C 322.724 331.758,323.060 331.517,323.372 331.322 C 324.899 330.368,326.793 329.024,327.544 328.362 L 328.379 327.626 327.246 325.215 C 326.622 323.889,325.791 322.085,325.399 321.207 C 325.007 320.328,324.472 319.130,324.210 318.545 C 323.948 317.959,323.235 316.362,322.626 314.996 C 322.018 313.629,321.302 312.032,321.036 311.446 C 320.769 310.861,320.159 309.503,319.680 308.429 C 318.045 304.770,316.902 302.220,316.420 301.154 C 316.154 300.568,315.545 299.210,315.066 298.137 C 313.431 294.477,312.288 291.927,311.806 290.861 C 311.540 290.275,310.938 288.917,310.468 287.844 C 309.997 286.770,309.006 284.614,308.266 283.052 C 307.525 281.491,306.694 279.577,306.419 278.799 C 306.143 278.021,305.710 277.063,305.455 276.670 C 305.201 276.276,304.880 275.499,304.743 274.943 C 304.444 273.727,304.023 273.783,300.176 275.556 C 296.684 277.166,289.290 280.246,288.199 280.546 C 287.711 280.680,286.992 280.931,286.602 281.102 C 285.003 281.806,273.723 285.414,271.616 285.896 C 271.269 285.975,269.388 286.449,267.436 286.950 C 261.003 288.599,247.215 291.118,242.059 291.587 C 240.790 291.702,239.352 291.863,238.864 291.944 C 233.273 292.872,210.183 292.873,204.791 291.946 C 204.303 291.862,203.265 291.702,202.484 291.591 C 196.378 290.723,187.282 288.124,181.899 285.709 C 177.027 283.524,173.466 281.608,173.262 281.062 C 173.197 280.888,172.948 280.745,172.708 280.745 C 172.468 280.745,171.961 280.455,171.580 280.100 C 171.199 279.746,170.632 279.307,170.319 279.124 C 166.776 277.062,156.522 266.175,156.522 264.476 C 156.522 264.249,156.381 264.064,156.208 264.064 C 156.036 264.064,155.802 263.784,155.689 263.443 C 155.576 263.101,155.245 262.502,154.953 262.112 C 154.426 261.405,154.487 261.402,169.758 261.361 C 185.630 261.318,192.138 260.892,195.918 259.647 C 196.406 259.486,210.426 252.591,227.072 244.325 L 257.339 229.296 258.838 229.787 C 260.021 230.175,263.816 231.325,264.774 231.586 C 266.290 231.999,268.223 232.655,268.500 232.850 C 268.696 232.987,269.752 233.357,270.847 233.671 C 271.943 233.985,273.301 234.482,273.864 234.776 C 274.428 235.070,275.091 235.312,275.338 235.313 C 275.584 235.314,276.063 235.456,276.402 235.629 C 276.741 235.801,277.418 236.100,277.906 236.293 C 278.394 236.486,279.672 237.046,280.745 237.537 C 281.819 238.028,284.055 239.040,285.714 239.786 C 287.374 240.532,289.450 241.529,290.328 242.003 C 293.910 243.933,294.454 244.239,295.475 244.893 C 296.060 245.269,297.051 245.838,297.677 246.157 C 298.302 246.477,299.000 246.963,299.229 247.238 C 299.457 247.512,299.771 247.737,299.927 247.737 C 300.623 247.737,307.890 253.583,310.221 256.019 C 310.822 256.646,310.885 256.623,312.032 255.341 C 314.003 253.139,314.571 252.492,316.238 250.542 C 317.116 249.515,318.345 248.129,318.968 247.463 C 319.591 246.797,320.946 245.290,321.980 244.116 C 323.014 242.941,324.181 241.629,324.574 241.200 C 324.967 240.771,326.087 239.494,327.063 238.362 C 328.039 237.231,329.317 235.783,329.902 235.145 C 330.488 234.506,331.846 232.981,332.919 231.756 C 333.993 230.530,335.039 229.352,335.244 229.138 C 336.418 227.910,338.565 223.279,339.188 220.631 C 339.459 219.480,339.923 214.977,339.834 214.374 C 339.790 214.082,339.641 213.043,339.504 212.067 C 338.835 207.320,334.016 200.945,327.418 196.078 C 326.637 195.502,325.812 194.871,325.585 194.676 C 325.358 194.481,324.703 193.963,324.129 193.524 C 323.552 193.084,322.405 191.378,321.562 189.709 C 320.725 188.049,319.903 186.690,319.736 186.690 C 319.569 186.690,319.432 186.519,319.432 186.310 C 319.432 186.101,319.232 185.715,318.988 185.453 C 318.744 185.191,318.155 184.468,317.679 183.847 C 316.649 182.503,312.975 178.819,311.045 177.194 C 309.496 175.890,309.580 175.953,307.179 174.278 C 306.207 173.601,305.253 172.916,305.058 172.756 C 303.678 171.625,298.182 168.519,293.373 166.154 C 288.240 163.628,286.637 162.881,283.052 161.345 C 282.467 161.094,281.225 160.545,280.292 160.125 C 279.360 159.705,278.445 159.361,278.260 159.361 C 278.075 159.361,276.878 158.882,275.599 158.296 C 274.320 157.711,273.169 157.232,273.041 157.232 C 272.831 157.232,268.115 155.443,266.371 154.701 C 265.313 154.251,260.919 152.629,259.095 152.015 C 258.217 151.720,256.655 151.095,255.624 150.628 C 254.593 150.161,253.608 149.778,253.434 149.778 C 253.261 149.778,252.667 149.544,252.114 149.258 C 251.561 148.973,249.592 148.019,247.737 147.138 C 244.225 145.471,240.995 143.020,240.992 142.019 C 240.990 141.699,240.751 140.979,240.459 140.420 C 240.167 139.860,239.859 139.022,239.775 138.558 C 239.691 138.095,239.310 136.796,238.928 135.672 C 238.546 134.548,237.806 132.192,237.283 130.435 C 236.760 128.678,236.121 126.602,235.861 125.821 C 235.602 125.040,235.032 123.203,234.595 121.739 C 234.158 120.275,233.583 118.358,233.316 117.480 C 233.050 116.602,232.826 115.765,232.817 115.622 C 232.809 115.478,232.557 114.679,232.257 113.847 C 231.957 113.015,231.649 112.031,231.572 111.661 C 231.495 111.290,231.234 110.412,230.993 109.708 C 230.751 109.005,230.536 108.350,230.515 108.252 C 229.931 105.555,227.666 100.778,226.049 98.835 C 224.438 96.899,221.393 94.055,220.931 94.055 C 220.676 94.055,220.414 93.935,220.349 93.789 C 220.017 93.041,216.612 91.608,212.245 90.379 C 209.131 89.502,202.668 89.112,197.465 89.487 M210.293 96.382 C 219.771 98.299,222.041 101.498,227.832 121.102 C 231.950 135.043,234.498 142.866,235.665 145.154 C 237.753 149.247,244.979 153.322,260.515 159.167 C 298.153 173.328,310.408 180.994,316.616 194.259 C 317.580 196.320,317.999 196.754,321.655 199.483 C 331.703 206.982,334.578 211.780,333.131 218.634 C 332.241 222.847,331.396 224.033,320.774 235.982 L 310.736 247.272 308.075 245.220 C 298.358 237.728,283.126 230.787,262.174 224.302 L 256.558 222.563 225.325 238.180 L 194.093 253.797 190.480 254.405 C 186.631 255.053,150.069 255.329,146.673 254.736 C 144.771 254.404,144.771 254.389,146.741 259.212 C 155.173 279.852,175.580 293.982,202.662 297.933 C 228.883 301.758,266.765 296.129,296.689 283.961 C 299.114 282.975,301.121 282.207,301.150 282.255 C 301.250 282.422,319.534 323.521,320.022 324.674 L 320.512 325.834 316.512 328.427 C 264.048 362.427,181.243 367.277,127.856 339.478 C 94.720 322.224,70.327 290.938,62.305 255.406 L 61.432 251.539 63.064 247.242 C 74.508 217.122,95.784 191.333,122.348 175.381 C 126.406 172.944,126.612 172.879,126.772 173.997 C 126.895 174.860,128.293 175.272,131.233 175.312 C 133.398 175.342,133.133 175.691,129.636 177.419 C 103.579 190.296,81.486 215.744,68.556 247.777 L 66.750 252.253 67.775 256.295 C 75.236 285.710,95.284 313.113,121.310 329.471 C 166.457 357.847,235.550 360.175,292.635 335.245 C 301.432 331.404,314.315 324.347,313.980 323.553 C 313.889 323.336,310.432 315.652,306.298 306.477 C 302.164 297.303,298.703 289.604,298.606 289.370 C 298.477 289.058,297.937 289.141,296.597 289.678 C 258.106 305.100,210.620 308.667,182.431 298.255 C 151.235 286.733,133.214 258.274,139.093 229.814 C 139.456 228.057,139.718 226.578,139.675 226.528 C 139.592 226.429,112.818 237.238,111.965 237.715 C 111.563 237.940,111.880 238.429,113.400 239.930 C 115.342 241.848,115.698 242.413,114.966 242.413 C 114.435 242.413,105.029 246.218,100.177 248.395 C 97.981 249.381,96.186 250.075,96.188 249.938 C 96.189 249.801,98.392 245.697,101.081 240.816 L 105.972 231.943 102.409 231.646 C 98.775 231.342,98.227 231.206,98.884 230.770 C 100.156 229.926,126.361 209.652,126.278 209.576 C 126.222 209.525,124.259 208.811,121.917 207.990 C 115.729 205.821,115.248 206.149,127.421 204.237 C 130.836 203.700,133.734 203.166,133.862 203.050 C 133.991 202.934,133.321 200.963,132.373 198.669 C 131.426 196.375,130.785 194.499,130.948 194.499 C 131.112 194.499,133.272 195.556,135.748 196.849 C 138.230 198.144,140.380 199.060,140.537 198.890 C 140.695 198.719,142.386 193.629,144.296 187.578 L 147.769 176.575 152.933 171.347 C 156.104 168.136,157.964 165.998,157.753 165.806 C 157.564 165.635,156.798 165.090,156.051 164.595 C 155.304 164.100,154.825 163.615,154.986 163.516 C 155.148 163.417,158.394 162.107,162.201 160.604 C 172.729 156.448,178.177 153.715,179.287 152.032 C 182.993 146.415,186.127 126.646,186.913 103.929 C 187.193 95.855,186.539 96.812,192.192 96.205 C 199.487 95.421,205.848 95.483,210.293 96.382 M206.092 120.852 C 204.702 149.934,205.384 147.410,197.516 152.618 C 193.662 155.169,193.665 155.160,197.030 154.173 C 206.463 151.409,209.638 151.324,220.941 153.536 C 221.548 153.655,220.689 153.065,218.938 152.160 C 210.157 147.623,209.928 147.055,207.149 122.981 L 206.330 115.883 206.092 120.852 M136.952 155.850 C 145.471 161.727,152.655 166.739,152.917 166.987 C 153.520 167.558,147.259 176.417,146.288 176.367 C 145.963 176.350,142.201 175.431,137.928 174.326 L 130.159 172.316 125.601 159.006 C 120.954 145.438,120.868 145.164,121.247 145.164 C 121.367 145.164,128.434 149.973,136.952 155.850 M163.620 173.549 C 155.877 177.899,151.065 180.803,151.135 181.085 C 151.423 182.234,157.352 196.272,157.546 196.263 C 157.666 196.258,161.949 189.550,167.063 181.357 C 172.178 173.163,176.330 166.462,176.291 166.466 C 176.252 166.469,170.550 169.656,163.620 173.549 M170.658 173.282 C 170.180 173.922,166.948 178.319,163.476 183.052 C 160.004 187.786,157.053 191.659,156.918 191.659 C 156.522 191.659,154.376 181.596,154.702 181.270 C 155.214 180.758,171.244 171.835,171.389 171.981 C 171.465 172.057,171.136 172.643,170.658 173.282 M142.556 177.628 C 142.446 177.915,141.271 181.609,139.946 185.836 C 138.621 190.064,137.360 193.591,137.145 193.673 C 136.930 193.756,134.084 192.282,130.821 190.398 C 127.557 188.514,124.826 187.034,124.752 187.109 C 124.677 187.183,126.192 190.469,128.119 194.410 L 131.622 201.575 130.318 201.814 C 129.602 201.945,124.824 202.868,119.702 203.865 L 110.389 205.679 116.774 208.159 C 120.286 209.522,123.159 210.725,123.159 210.830 C 123.159 210.935,116.478 215.968,108.312 222.015 L 93.464 233.008 96.772 233.110 L 100.080 233.211 97.296 238.788 C 94.667 244.056,89.763 257.405,90.270 257.913 C 90.376 258.019,95.366 258.723,101.357 259.476 C 107.349 260.229,112.330 260.925,112.427 261.022 C 112.524 261.119,111.479 265.557,110.104 270.883 C 108.728 276.210,107.630 280.586,107.662 280.607 C 107.693 280.629,110.195 279.472,113.221 278.036 C 116.247 276.600,118.873 275.475,119.058 275.535 C 119.243 275.596,120.767 280.586,122.446 286.625 L 125.498 297.604 132.083 297.469 L 138.667 297.333 138.895 298.711 C 139.020 299.469,139.125 302.804,139.128 306.122 L 139.134 312.156 142.593 313.990 C 175.359 331.360,214.141 334.480,260.272 323.457 C 266.856 321.884,266.884 321.607,260.320 322.969 C 221.075 331.110,184.479 328.289,156.179 314.940 C 151.354 312.664,146.592 309.928,146.348 309.291 C 146.252 309.042,145.409 305.466,144.474 301.346 C 143.540 297.226,142.703 293.783,142.616 293.695 C 142.528 293.608,140.151 293.834,137.333 294.199 C 134.515 294.563,132.099 294.759,131.965 294.635 C 131.830 294.511,129.771 289.459,127.389 283.407 C 125.007 277.356,122.961 272.303,122.842 272.179 C 122.724 272.054,120.590 272.556,118.101 273.294 C 114.844 274.260,113.576 274.507,113.576 274.175 C 113.576 273.922,114.534 270.398,115.705 266.345 C 116.875 262.291,117.793 258.935,117.745 258.887 C 117.696 258.838,112.799 257.907,106.861 256.817 C 100.923 255.726,96.006 254.776,95.934 254.704 C 95.245 254.015,107.408 247.174,112.972 245.122 C 116.330 243.883,119.048 242.727,119.013 242.553 C 118.978 242.379,118.551 241.340,118.063 240.244 L 117.177 238.252 125.390 235.558 C 129.907 234.076,133.632 232.896,133.668 232.936 C 133.703 232.975,133.576 234.605,133.384 236.557 C 130.781 263.030,149.650 290.109,178.893 301.867 C 206.300 312.887,249.443 311.093,289.973 297.248 C 294.574 295.677,295.891 295.348,296.116 295.716 C 298.383 299.420,307.970 322.097,307.443 322.508 C 304.018 325.184,283.930 333.996,273.292 337.490 C 226.004 353.020,171.227 350.463,133.097 330.945 C 103.326 315.706,80.869 288.071,72.732 256.662 L 71.688 252.632 73.696 247.789 C 87.530 214.419,111.056 189.402,139.130 178.206 C 142.164 176.996,142.842 176.882,142.556 177.628 M267.301 178.044 C 264.885 179.286,264.646 182.286,266.687 185.768 C 270.296 191.927,283.138 196.987,299.201 198.579 C 313.084 199.956,327.382 209.235,327.900 217.204 C 328.079 219.962,328.601 219.206,328.627 216.149 C 328.662 212.225,326.681 209.687,319.093 203.934 C 313.309 199.549,313.444 199.621,310.559 199.320 C 294.135 197.601,280.805 192.539,278.787 187.255 C 276.365 180.914,290.175 183.753,298.225 191.251 C 300.270 193.156,300.412 192.712,298.523 190.322 C 292.636 182.874,272.957 175.136,267.301 178.044 M158.855 199.728 L 151.427 203.879 166.308 205.899 C 174.493 207.011,181.233 207.878,181.286 207.826 C 181.411 207.706,166.737 195.561,166.478 195.570 C 166.370 195.574,162.940 197.445,158.855 199.728 M170.308 201.645 C 176.877 205.477,177.573 206.022,175.510 205.714 C 173.899 205.473,156.628 203.372,156.263 203.372 C 155.564 203.372,163.175 198.885,164.629 198.440 C 164.696 198.420,167.251 199.862,170.308 201.645 M131.059 212.694 C 121.474 219.182,113.739 224.523,113.870 224.564 C 114.220 224.672,145.824 219.869,145.998 219.681 C 146.160 219.506,148.680 201.117,148.560 200.981 C 148.520 200.935,140.645 206.206,131.059 212.694 M207.172 202.847 C 183.093 205.761,161.213 218.927,145.526 239.942 C 141.957 244.724,138.597 250.092,139.890 248.948 C 140.351 248.540,142.363 246.755,144.363 244.981 C 158.596 232.349,175.271 222.557,188.319 219.167 C 190.220 218.673,191.950 218.134,192.161 217.969 C 192.373 217.805,196.814 214.366,202.030 210.327 C 207.246 206.289,211.607 202.832,211.723 202.646 C 211.965 202.254,212.148 202.245,207.172 202.847 M287.311 204.943 C 283.631 205.540,280.194 206.583,274.712 208.768 C 270.240 210.550,257.043 216.639,256.521 217.162 C 256.366 217.316,257.880 217.896,259.885 218.451 C 278.412 223.572,298.519 232.301,309.585 240.025 C 310.127 240.404,310.460 240.183,312.139 238.331 L 314.070 236.202 313.292 235.543 C 308.790 231.723,291.578 223.469,277.146 218.209 C 273.344 216.823,271.311 215.917,271.617 215.745 C 272.739 215.118,285.484 210.438,287.882 209.774 C 294.117 208.046,299.180 210.109,318.167 222.116 L 323.468 225.468 324.822 224.016 C 326.602 222.108,326.768 222.394,322.005 219.161 C 304.032 206.962,295.762 203.573,287.311 204.943 M146.118 205.788 C 146.009 206.337,145.482 209.331,144.948 212.443 C 144.415 215.555,143.957 218.136,143.932 218.178 C 143.807 218.389,121.572 221.779,121.406 221.613 C 121.300 221.507,121.451 221.280,121.742 221.108 C 122.033 220.937,127.542 217.196,133.984 212.795 C 146.536 204.220,146.418 204.288,146.118 205.788 M288.827 211.503 C 285.118 212.449,285.102 212.388,289.532 214.140 C 293.489 215.705,293.160 215.694,296.005 214.348 C 298.589 213.126,298.565 213.056,295.164 211.893 C 292.287 210.910,291.373 210.854,288.827 211.503 M280.124 214.661 C 276.820 215.878,276.740 215.768,282.334 217.724 C 287.395 219.493,287.643 219.508,290.062 218.173 C 291.950 217.131,291.740 216.696,288.820 215.599 C 287.405 215.067,285.708 214.414,285.050 214.148 C 283.476 213.512,283.152 213.546,280.124 214.661 M297.516 215.095 C 295.201 216.422,295.108 216.170,298.616 218.083 C 302.036 219.946,302.981 220.047,305.151 218.775 C 306.983 217.702,307.032 217.777,303.076 215.654 C 299.472 213.720,299.847 213.758,297.516 215.095 M291.298 219.119 L 289.251 220.294 293.340 222.180 L 297.429 224.067 299.202 222.859 C 301.401 221.360,301.374 221.287,297.931 219.443 C 294.553 217.633,293.941 217.604,291.298 219.119 M306.382 219.738 C 304.547 221.038,304.523 220.994,308.142 223.044 C 310.687 224.486,311.170 224.646,311.961 224.309 C 312.946 223.890,314.649 222.583,314.425 222.418 C 313.497 221.734,308.342 218.638,308.152 218.649 C 308.012 218.658,307.215 219.148,306.382 219.738 M301.068 223.519 C 299.133 224.766,299.135 224.770,303.111 226.621 C 307.138 228.495,307.235 228.505,308.798 227.155 C 310.263 225.890,310.159 225.753,306.220 223.751 C 303.349 222.292,302.997 222.276,301.068 223.519 M314.490 224.521 C 313.017 225.761,313.005 225.740,316.261 227.877 L 319.123 229.756 320.365 228.514 L 321.608 227.271 318.813 225.437 C 315.544 223.291,315.871 223.360,314.490 224.521 M310.257 228.219 C 308.411 229.556,308.251 229.236,311.928 231.557 C 315.629 233.891,315.434 233.859,316.878 232.370 C 318.342 230.860,318.445 231.075,315.241 228.971 C 311.983 226.832,312.139 226.855,310.257 228.219 " stroke="none" fill="#a8a8a8" fill-rule="evenodd"></path><path id="path1" d="M192.014 0.766 C 189.455 2.498,189.609 0.841,188.963 33.632 L 188.381 63.158 189.221 64.847 C 190.755 67.930,190.681 67.914,205.141 68.224 C 220.159 68.546,220.982 68.394,222.412 65.037 C 223.060 63.517,224.196 6.464,223.621 4.330 C 222.606 0.558,221.531 0.296,206.211 0.095 L 193.256 -0.075 192.014 0.766 M152.440 3.329 C 139.415 5.239,138.431 5.728,138.418 10.293 C 138.408 13.751,145.873 67.448,146.595 69.112 C 148.076 72.526,149.211 72.623,164.118 70.601 C 180.719 68.349,180.186 68.989,178.128 53.795 C 177.518 49.292,176.970 45.552,176.910 45.484 C 176.802 45.361,168.740 46.359,167.318 46.672 L 166.579 46.834 167.585 53.821 C 168.138 57.665,168.550 60.840,168.501 60.877 C 168.256 61.063,156.092 62.511,155.952 62.370 C 155.822 62.240,149.068 13.973,149.068 13.171 C 149.068 12.926,161.445 11.181,161.630 11.400 C 161.693 11.474,162.118 14.292,162.575 17.663 C 163.033 21.033,163.514 23.963,163.645 24.175 C 163.840 24.491,173.396 23.350,173.782 22.965 C 173.966 22.781,171.480 5.778,171.151 4.969 C 169.683 1.362,167.284 1.152,152.440 3.329 M243.656 3.283 C 242.950 6.232,232.831 64.169,232.831 65.259 C 232.831 69.189,234.260 69.835,248.715 72.435 C 263.196 75.041,264.459 74.944,266.060 71.111 C 266.473 70.124,277.659 8.458,277.450 8.327 C 277.408 8.301,275.093 7.883,272.307 7.398 L 267.240 6.517 267.071 7.251 C 266.978 7.655,264.655 20.681,261.909 36.198 C 259.162 51.715,256.857 64.468,256.788 64.537 C 256.640 64.685,244.114 62.511,243.905 62.302 C 243.828 62.225,246.006 49.493,248.745 34.009 C 251.484 18.525,253.776 5.464,253.837 4.985 C 253.946 4.135,253.837 4.093,249.512 3.316 C 243.936 2.314,243.887 2.314,243.656 3.283 M213.506 9.366 C 213.516 9.388,213.330 18.829,213.092 30.346 C 212.854 41.863,212.646 53.083,212.629 55.280 L 212.600 59.272 207.325 59.272 C 204.425 59.272,201.350 59.176,200.493 59.059 L 198.935 58.846 199.346 36.788 C 199.572 24.656,199.771 13.408,199.789 11.792 L 199.823 8.854 206.655 9.090 C 210.413 9.220,213.496 9.344,213.506 9.366 M113.324 11.046 C 110.480 11.962,109.045 12.590,109.147 12.875 C 109.914 15.013,119.955 49.107,119.849 49.213 C 119.772 49.290,114.014 42.019,107.054 33.054 L 94.398 16.756 90.233 17.995 C 87.943 18.677,85.976 19.339,85.862 19.466 C 85.708 19.639,104.196 82.060,105.078 84.347 C 105.209 84.686,111.274 83.083,114.398 81.884 C 114.810 81.726,113.773 77.897,109.139 62.464 C 105.963 51.892,103.483 43.374,103.628 43.537 C 103.772 43.700,109.589 51.295,116.556 60.414 C 123.522 69.534,129.346 77.071,129.496 77.164 C 129.983 77.465,138.455 74.780,138.299 74.375 C 138.195 74.103,122.822 22.887,119.037 10.204 C 118.787 9.366,118.338 9.432,113.324 11.046 M288.755 12.384 C 288.271 15.499,280.391 78.562,280.399 79.259 C 280.408 80.020,289.672 83.472,290.224 82.920 C 290.831 82.313,323.323 22.837,323.208 22.542 C 323.070 22.186,313.806 18.988,313.588 19.222 C 313.525 19.289,308.575 28.846,302.587 40.461 C 296.599 52.076,291.786 61.100,291.892 60.515 C 292.829 55.297,298.913 14.500,298.774 14.362 C 298.675 14.262,296.425 13.488,293.774 12.642 L 288.954 11.104 288.755 12.384 M319.825 57.776 C 311.795 74.702,305.347 88.594,305.496 88.648 C 305.646 88.702,311.437 91.454,318.367 94.763 L 330.967 100.780 332.842 96.815 C 333.873 94.635,334.652 92.682,334.572 92.477 C 334.493 92.271,330.892 90.434,326.570 88.394 C 322.247 86.354,318.753 84.574,318.805 84.439 C 318.857 84.304,320.872 80.036,323.282 74.955 L 327.664 65.716 331.090 67.324 C 341.009 71.979,341.561 72.211,341.709 71.767 C 341.791 71.521,342.647 69.706,343.612 67.733 C 344.577 65.761,345.294 64.076,345.207 63.988 C 345.119 63.900,342.199 62.475,338.717 60.819 C 335.235 59.164,332.241 57.666,332.064 57.490 C 331.717 57.147,339.592 40.106,340.098 40.106 C 340.446 40.106,342.927 41.247,350.407 44.844 L 356.005 47.536 357.955 43.401 C 359.028 41.127,359.783 39.146,359.633 38.999 C 359.387 38.757,338.175 28.617,335.536 27.479 L 334.425 27.001 319.825 57.776 M52.186 33.758 C 49.753 34.926,47.705 35.939,47.634 36.010 C 47.520 36.124,64.907 102.973,65.108 103.195 C 65.153 103.244,67.252 102.290,69.773 101.073 C 72.294 99.857,74.391 98.851,74.432 98.838 C 74.474 98.824,73.717 96.186,72.750 92.974 C 71.784 89.762,70.991 86.972,70.989 86.774 C 70.987 86.576,73.442 85.188,76.444 83.691 L 81.903 80.968 85.564 86.269 C 87.577 89.185,89.313 91.561,89.422 91.548 C 89.530 91.536,91.665 90.538,94.167 89.330 L 98.715 87.134 78.191 59.454 C 66.903 44.230,57.430 31.743,57.139 31.705 C 56.848 31.666,54.620 32.591,52.186 33.758 M25.610 47.774 C 23.264 49.317,21.654 50.603,21.753 50.855 C 21.846 51.092,25.876 60.390,30.708 71.517 C 35.541 82.644,39.717 92.307,39.988 92.990 L 40.482 94.232 39.673 93.297 C 32.533 85.040,8.611 58.942,8.295 59.064 C 7.329 59.434,-0.000 64.334,0.000 64.609 C 0.000 64.917,47.093 114.384,47.561 114.566 C 47.706 114.623,49.749 113.419,52.101 111.891 L 56.378 109.113 45.051 81.087 C 30.269 44.510,30.503 45.071,30.037 45.100 C 29.817 45.114,27.824 46.317,25.610 47.774 M365.468 60.430 C 360.548 67.890,352.099 80.697,346.694 88.891 L 336.867 103.788 341.015 106.552 C 343.297 108.072,345.290 109.316,345.443 109.316 C 345.597 109.317,349.400 103.767,353.895 96.983 C 362.867 83.443,362.305 84.119,363.751 85.149 L 364.780 85.881 360.927 101.237 C 358.808 109.683,357.076 116.752,357.078 116.948 C 357.081 117.339,365.662 122.960,366.145 122.887 C 366.311 122.862,368.061 115.884,370.035 107.380 C 374.156 89.630,373.540 91.237,375.701 92.608 C 381.449 96.253,382.054 95.811,392.191 80.561 C 403.140 64.088,403.596 66.109,386.370 54.750 L 374.414 46.865 365.468 60.430 M68.147 61.224 C 72.496 67.471,76.211 72.783,76.404 73.029 C 76.820 73.557,68.612 77.639,68.141 77.139 C 67.881 76.862,59.982 50.433,59.982 49.839 C 59.982 49.470,59.400 48.658,68.147 61.224 M383.458 63.709 C 386.691 65.842,388.256 67.080,388.168 67.436 C 387.995 68.134,377.333 84.264,376.956 84.398 C 376.573 84.534,366.815 78.162,366.815 77.776 C 366.815 77.312,378.144 60.346,378.394 60.435 C 378.517 60.479,380.795 61.952,383.458 63.709 M196.628 96.037 C 195.945 96.116,193.622 96.357,191.465 96.572 L 187.545 96.964 187.119 105.713 C 185.814 132.579,182.437 150.646,178.151 153.698 C 176.481 154.887,170.390 157.647,162.910 160.604 C 154.735 163.836,155.054 163.614,156.862 164.811 C 158.627 165.978,158.628 165.916,156.788 167.798 L 155.280 169.341 157.764 168.123 C 160.611 166.728,163.377 165.515,169.654 162.909 C 178.925 159.060,182.254 156.916,184.176 153.558 C 187.914 147.023,190.650 131.117,191.736 109.602 L 192.161 101.178 193.241 100.937 C 195.532 100.425,206.290 100.679,209.228 101.314 C 217.720 103.149,218.845 105.139,226.081 131.107 C 230.386 146.556,230.629 147.182,233.485 150.210 C 238.009 155.006,245.642 159.097,260.515 164.697 C 282.802 173.089,290.848 176.683,297.924 181.405 C 304.791 185.988,310.492 192.246,312.750 197.679 C 313.457 199.380,313.964 199.875,318.519 203.304 C 330.183 212.085,331.525 215.913,325.544 223.334 C 324.386 224.770,323.453 225.628,323.209 225.480 C 322.986 225.344,320.244 223.614,317.115 221.635 C 302.235 212.222,294.456 208.591,290.569 209.247 C 288.184 209.649,271.256 215.666,271.600 215.990 C 271.652 216.039,274.607 217.135,278.167 218.425 C 292.141 223.491,308.086 231.247,314.056 235.882 C 314.246 236.030,313.379 237.178,311.714 238.985 L 310.210 240.617 306.426 238.153 C 296.019 231.379,277.856 223.714,260.546 218.791 L 255.786 217.438 251.495 219.649 C 214.045 238.952,193.606 248.884,190.020 249.520 C 187.114 250.036,158.171 250.396,153.893 249.969 L 151.086 249.689 160.991 242.042 C 166.439 237.836,175.209 231.066,180.479 226.998 C 191.714 218.327,191.509 218.502,190.062 218.824 C 176.783 221.787,158.984 232.143,143.647 245.828 C 141.266 247.952,139.212 249.655,139.081 249.612 C 138.173 249.316,141.364 258.969,143.918 264.241 C 152.828 282.640,169.317 295.147,192.084 300.774 C 219.974 307.668,262.880 303.003,296.451 289.428 C 298.453 288.619,298.500 288.616,298.861 289.291 C 299.195 289.915,312.810 320.179,313.969 322.873 L 314.456 324.007 311.301 325.959 C 263.865 355.302,190.672 361.168,140.195 339.673 C 104.438 324.446,77.920 294.496,67.935 258.060 C 66.434 252.586,66.436 252.373,68.017 248.356 C 80.524 216.577,101.665 191.809,128.234 177.809 L 132.068 175.789 130.403 175.561 C 129.488 175.435,128.285 175.333,127.730 175.333 C 126.950 175.333,126.671 175.131,126.499 174.445 C 126.213 173.306,126.599 173.172,121.810 176.075 C 95.592 191.967,73.021 219.724,62.859 248.571 L 61.752 251.712 62.671 255.847 C 69.873 288.256,92.563 318.730,122.551 336.268 C 175.301 367.120,261.379 363.538,316.327 328.204 C 318.425 326.855,320.142 325.724,320.142 325.691 C 320.142 324.911,300.854 282.727,300.533 282.805 C 300.289 282.865,297.933 283.764,295.297 284.805 C 264.849 296.825,228.766 301.997,202.307 298.134 C 177.054 294.446,157.652 281.890,148.200 263.117 C 146.586 259.913,144.670 254.857,144.959 254.568 C 145.040 254.487,151.149 254.610,158.534 254.843 C 168.553 255.159,173.988 255.167,179.947 254.875 C 193.664 254.202,189.294 255.842,225.210 237.884 L 256.433 222.272 260.515 223.470 C 280.390 229.304,298.028 237.183,307.799 244.594 C 309.306 245.737,310.616 246.673,310.708 246.673 C 311.349 246.673,331.014 223.883,331.687 222.360 C 335.451 213.849,332.951 208.313,321.475 199.742 C 317.745 196.956,317.586 196.781,315.980 193.671 C 309.513 181.149,297.564 173.480,265.839 161.488 C 248.235 154.834,244.314 153.085,239.714 149.838 C 235.311 146.729,234.781 145.497,227.862 122.260 C 222.301 103.589,221.302 101.633,215.832 98.718 C 211.785 96.561,202.856 95.314,196.628 96.037 M121.384 145.639 C 121.384 145.873,130.324 171.932,130.457 172.085 C 130.682 172.344,145.999 176.070,146.428 175.970 C 147.099 175.814,153.072 167.477,152.732 167.171 C 152.571 167.027,145.892 162.392,137.888 156.872 C 129.885 151.352,122.897 146.528,122.360 146.153 C 121.823 145.778,121.384 145.546,121.384 145.639 M162.796 176.918 C 158.537 179.327,154.967 181.383,154.863 181.487 C 154.760 181.590,155.188 183.856,155.814 186.522 C 156.441 189.189,157.074 191.235,157.221 191.071 C 158.223 189.951,170.875 172.471,170.651 172.515 C 170.591 172.527,167.056 174.508,162.796 176.918 M137.989 179.035 C 134.080 180.636,126.443 184.487,124.965 185.602 L 124.134 186.229 130.429 189.831 C 133.891 191.813,136.840 193.434,136.982 193.434 C 137.123 193.434,137.828 191.557,138.547 189.264 C 139.266 186.970,140.395 183.376,141.057 181.278 C 141.719 179.179,142.155 177.465,142.026 177.469 C 141.898 177.473,140.081 178.177,137.989 179.035 M119.963 188.838 C 100.488 202.049,83.583 223.890,73.681 248.634 L 72.043 252.727 72.930 256.226 C 79.187 280.911,95.245 304.581,116.374 320.262 C 158.571 351.581,229.406 356.279,288.199 331.659 C 293.013 329.643,306.800 322.786,307.282 322.168 C 307.509 321.877,305.760 317.644,301.826 308.962 C 298.642 301.934,295.981 296.039,295.914 295.862 C 295.847 295.684,293.700 296.274,291.143 297.172 C 247.324 312.572,200.293 313.353,172.039 299.152 C 146.286 286.208,129.623 258.623,133.233 234.911 L 133.483 233.264 125.748 235.751 C 121.493 237.119,117.940 238.306,117.851 238.387 C 117.690 238.536,117.961 239.314,119.020 241.744 L 119.579 243.026 113.270 245.344 C 107.570 247.439,106.451 247.996,101.662 251.128 L 96.362 254.593 107.075 256.578 C 112.967 257.669,117.872 258.649,117.973 258.754 C 118.075 258.859,117.155 262.396,115.927 266.614 L 113.696 274.283 115.499 273.760 C 116.491 273.473,118.571 272.854,120.120 272.386 C 121.670 271.917,122.966 271.570,122.999 271.614 C 123.033 271.658,125.098 276.846,127.588 283.141 C 130.078 289.437,132.160 294.587,132.213 294.587 C 132.266 294.587,134.673 294.272,137.562 293.886 C 140.451 293.500,142.848 293.220,142.890 293.264 C 142.932 293.309,143.712 296.699,144.625 300.799 C 145.537 304.898,146.359 308.521,146.450 308.849 C 146.657 309.592,150.822 312.054,156.174 314.595 C 189.491 330.420,233.434 331.412,281.278 317.422 C 281.668 317.308,281.895 317.313,281.782 317.434 C 280.534 318.771,253.836 325.551,241.881 327.567 C 205.007 333.785,169.319 328.945,142.052 314.028 C 138.697 312.193,138.776 312.420,138.776 304.556 L 138.776 297.797 131.987 297.701 L 125.198 297.604 122.192 286.779 C 120.539 280.825,119.122 275.888,119.044 275.807 C 118.965 275.726,116.322 276.887,113.169 278.387 C 110.017 279.887,107.389 281.065,107.329 281.005 C 107.269 280.945,108.343 276.530,109.715 271.194 C 111.088 265.858,112.078 261.377,111.917 261.236 C 111.756 261.095,106.752 260.382,100.799 259.651 C 94.845 258.920,89.899 258.248,89.809 258.159 C 89.337 257.693,94.368 243.937,96.766 239.135 C 98.203 236.258,99.379 233.828,99.379 233.735 C 99.379 233.642,97.831 233.520,95.939 233.464 L 92.499 233.363 107.605 222.183 C 115.914 216.034,122.649 210.933,122.573 210.847 C 122.496 210.761,119.523 209.545,115.965 208.145 L 109.496 205.598 111.270 205.224 C 112.245 205.018,116.957 204.098,121.739 203.180 C 126.522 202.261,130.581 201.375,130.760 201.210 C 131.034 200.958,124.167 186.335,123.775 186.335 C 123.707 186.335,121.992 187.461,119.963 188.838 M160.613 200.895 C 158.383 202.088,156.942 203.051,157.241 203.148 C 157.850 203.345,175.803 205.505,175.913 205.394 C 176.001 205.307,164.788 198.745,164.621 198.785 C 164.559 198.800,162.755 199.750,160.613 200.895 M133.879 213.205 C 127.397 217.622,122.137 221.280,122.191 221.333 C 122.330 221.473,143.333 218.098,143.526 217.906 C 143.739 217.692,145.930 205.439,145.782 205.291 C 145.718 205.227,140.362 208.788,133.879 213.205 M293.996 211.357 C 295.119 211.650,296.630 212.197,297.354 212.573 L 298.669 213.257 296.281 214.348 C 293.276 215.721,293.325 215.723,289.175 214.117 C 285.090 212.537,285.061 212.478,287.933 211.568 C 290.651 210.707,291.399 210.681,293.996 211.357 M287.040 214.744 C 291.752 216.512,292.176 216.861,290.802 217.837 C 288.073 219.776,287.770 219.776,282.236 217.838 C 276.311 215.763,276.389 215.886,280.124 214.486 C 281.735 213.883,283.090 213.371,283.136 213.350 C 283.182 213.328,284.939 213.955,287.040 214.744 M306.741 217.539 C 307.291 218.035,303.199 220.131,302.148 219.891 C 300.837 219.593,295.904 216.781,295.894 216.327 C 295.889 216.131,296.741 215.455,297.786 214.823 L 299.687 213.674 303.082 215.487 C 304.950 216.485,306.596 217.408,306.741 217.539 M297.814 219.202 C 301.488 221.099,301.592 221.394,299.172 223.024 L 297.368 224.239 293.582 222.473 C 288.741 220.214,288.829 220.365,291.457 218.870 C 294.273 217.267,294.046 217.256,297.814 219.202 M314.286 222.253 C 314.741 222.693,312.458 224.667,311.496 224.667 C 310.545 224.667,304.879 221.534,304.884 221.011 C 304.886 220.777,305.623 220.077,306.522 219.455 L 308.157 218.325 311.044 220.118 C 312.632 221.104,314.091 222.065,314.286 222.253 M307.170 224.087 C 310.599 225.958,310.658 226.095,308.631 227.490 L 307.020 228.599 303.022 226.701 L 299.024 224.804 300.586 223.671 C 302.676 222.154,303.753 222.222,307.170 224.087 M318.915 225.261 L 321.941 227.274 320.629 228.618 C 319.907 229.357,319.143 229.860,318.931 229.736 C 316.824 228.505,313.398 225.980,313.398 225.658 C 313.398 225.336,315.415 223.322,315.798 223.262 C 315.848 223.254,317.251 224.154,318.915 225.261 M315.606 229.024 L 318.295 230.895 316.962 232.459 L 315.629 234.022 312.029 231.797 C 307.826 229.199,308.054 229.586,309.938 228.252 C 311.992 226.797,312.507 226.867,315.606 229.024 " stroke="none" fill="#041c5c" fill-rule="evenodd"></path><path id="path2" d="M195.497 100.752 C 191.711 101.046,192.208 99.866,191.717 109.740 C 190.654 131.100,187.914 147.024,184.176 153.558 C 182.253 156.919,178.895 159.079,169.654 162.902 C 156.577 168.312,155.658 168.831,151.322 173.259 L 148.075 176.575 144.469 187.924 C 142.485 194.167,140.782 199.354,140.684 199.452 C 140.586 199.550,138.439 198.544,135.914 197.217 C 133.388 195.889,131.323 194.934,131.324 195.094 C 131.325 195.255,132.046 197.127,132.927 199.255 C 133.807 201.383,134.473 203.178,134.407 203.245 C 134.340 203.311,130.545 203.985,125.972 204.742 C 121.399 205.499,117.897 206.218,118.190 206.339 C 118.483 206.461,120.473 207.181,122.612 207.939 C 124.751 208.698,126.538 209.458,126.582 209.628 C 126.626 209.799,120.499 214.639,112.968 220.385 C 98.049 231.766,98.461 231.314,102.928 231.411 C 106.813 231.495,106.902 230.926,101.474 240.728 C 98.798 245.559,96.690 249.512,96.788 249.512 C 96.886 249.512,98.907 248.654,101.278 247.605 C 103.650 246.557,107.715 244.853,110.312 243.819 L 115.033 241.940 112.994 239.879 C 111.872 238.745,111.025 237.764,111.112 237.698 C 111.681 237.261,139.926 226.055,140.077 226.206 C 140.181 226.309,140.094 226.924,139.884 227.572 C 138.533 231.739,137.713 245.693,138.650 248.583 L 138.982 249.606 140.311 247.341 C 154.419 223.299,180.864 205.713,207.505 202.654 C 213.703 201.943,216.861 199.080,181.366 226.347 C 175.608 230.771,166.439 237.833,160.991 242.040 L 151.086 249.689 153.893 249.969 C 158.160 250.395,187.113 250.036,190.009 249.522 C 193.631 248.879,214.904 238.594,245.075 222.899 C 289.836 199.615,293.399 199.412,321.352 218.550 C 326.555 222.112,327.109 222.273,327.641 220.375 C 330.397 210.523,316.248 200.875,295.120 198.200 C 277.735 196.000,265.149 188.974,265.132 181.461 C 265.121 176.785,271.629 176.088,281.810 179.675 C 289.338 182.328,297.861 188.049,299.769 191.730 C 300.560 193.255,300.405 193.200,297.830 191.041 C 290.323 184.744,278.616 181.463,278.616 185.656 C 278.616 190.863,288.785 195.781,304.880 198.359 C 310.522 199.262,313.398 199.600,313.398 199.360 C 313.398 197.438,308.699 190.560,304.945 186.987 C 297.112 179.533,288.676 175.301,260.515 164.697 C 245.642 159.097,238.009 155.006,233.485 150.210 C 230.629 147.182,230.386 146.556,226.081 131.107 C 219.975 109.192,218.079 104.770,213.956 102.820 C 210.259 101.073,202.533 100.207,195.497 100.752 M206.566 115.422 C 206.566 117.518,208.392 132.147,209.435 138.408 C 210.951 147.503,211.423 148.161,219.264 152.120 C 223.352 154.183,223.342 154.190,217.733 153.155 C 208.689 151.486,206.520 151.595,197.604 154.166 C 195.311 154.828,193.434 155.327,193.434 155.275 C 193.434 155.223,195.231 153.980,197.427 152.512 C 202.961 148.812,203.950 147.719,204.403 144.809 C 205.005 140.938,205.500 133.026,205.740 123.425 C 205.867 118.398,206.104 114.286,206.268 114.286 C 206.432 114.286,206.566 114.797,206.566 115.422 M176.752 166.257 C 176.752 166.502,158.251 196.051,157.782 196.554 C 157.444 196.916,156.640 195.292,153.914 188.748 C 152.021 184.203,150.595 180.440,150.746 180.385 C 150.897 180.330,156.690 177.098,163.620 173.203 C 175.420 166.570,176.752 165.865,176.752 166.257 M90.661 192.458 L 89.618 193.611 90.772 192.569 C 91.847 191.597,92.089 191.304,91.814 191.304 C 91.753 191.304,91.234 191.823,90.661 192.458 M173.570 200.897 C 177.322 204.026,180.796 206.903,181.289 207.291 C 181.781 207.679,182.120 208.060,182.041 208.139 C 181.888 208.293,151.181 204.183,150.980 203.982 C 150.852 203.854,166.129 195.236,166.515 195.219 C 166.643 195.213,169.818 197.768,173.570 200.897 M148.940 201.154 C 148.844 201.495,148.247 205.768,147.614 210.648 C 146.982 215.528,146.354 219.650,146.219 219.808 C 145.957 220.115,113.686 225.095,112.980 224.938 C 112.553 224.843,148.236 200.532,148.803 200.532 C 148.975 200.532,149.037 200.812,148.940 201.154 " stroke="none" fill="#041c2c" fill-rule="evenodd"></path><path id="path3" d="M99.898 198.846 L 98.137 200.710 100.000 198.949 C 101.025 197.980,101.863 197.141,101.863 197.085 C 101.863 196.820,101.535 197.115,99.898 198.846 M94.144 233.430 C 94.485 233.519,95.044 233.519,95.386 233.430 C 95.728 233.341,95.448 233.268,94.765 233.268 C 94.082 233.268,93.802 233.341,94.144 233.430 M134.434 297.684 C 135.072 297.763,136.030 297.761,136.564 297.680 C 137.097 297.599,136.575 297.535,135.404 297.537 C 134.232 297.539,133.796 297.605,134.434 297.684 M100.621 313.398 C 101.384 314.179,102.087 314.818,102.185 314.818 C 102.282 314.818,101.739 314.179,100.976 313.398 C 100.214 312.618,99.510 311.979,99.412 311.979 C 99.315 311.979,99.859 312.618,100.621 313.398 M220.324 327.491 C 220.765 327.576,221.404 327.573,221.743 327.484 C 222.083 327.395,221.721 327.326,220.941 327.330 C 220.160 327.334,219.882 327.407,220.324 327.491 M208.244 330.336 C 208.874 330.414,209.992 330.416,210.729 330.339 C 211.465 330.262,210.949 330.198,209.583 330.196 C 208.217 330.195,207.614 330.258,208.244 330.336 " stroke="none" fill="#7b848e" fill-rule="evenodd"></path><path id="path4" d="M187.152 99.379 C 187.152 100.453,187.218 100.892,187.299 100.355 C 187.381 99.818,187.381 98.940,187.299 98.403 C 187.218 97.866,187.152 98.305,187.152 99.379 M156.683 167.613 L 155.280 169.122 156.788 167.719 C 158.191 166.414,158.459 166.105,158.191 166.105 C 158.133 166.105,157.454 166.783,156.683 167.613 M308.429 183.607 C 308.429 183.668,308.949 184.187,309.583 184.761 L 310.736 185.803 309.694 184.650 C 308.722 183.574,308.429 183.333,308.429 183.607 M320.297 228.660 L 319.255 229.814 320.408 228.771 C 321.043 228.198,321.562 227.679,321.562 227.618 C 321.562 227.344,321.269 227.585,320.297 228.660 M96.988 233.440 C 97.528 233.522,98.326 233.520,98.763 233.435 C 99.199 233.351,98.758 233.284,97.782 233.287 C 96.806 233.290,96.449 233.359,96.988 233.440 M113.221 240.106 C 114.281 241.180,115.229 242.059,115.326 242.059 C 115.424 242.059,114.636 241.180,113.576 240.106 C 112.516 239.033,111.568 238.154,111.471 238.154 C 111.373 238.154,112.161 239.033,113.221 240.106 M157.857 255.087 C 158.298 255.172,158.937 255.169,159.277 255.080 C 159.616 254.991,159.255 254.921,158.474 254.925 C 157.693 254.929,157.415 255.002,157.857 255.087 M159.006 278.083 C 159.668 278.767,160.290 279.326,160.388 279.326 C 160.485 279.326,160.023 278.767,159.361 278.083 C 158.699 277.400,158.077 276.841,157.980 276.841 C 157.882 276.841,158.344 277.400,159.006 278.083 M138.877 305.413 C 138.880 306.389,138.949 306.746,139.030 306.206 C 139.112 305.667,139.110 304.868,139.025 304.432 C 138.941 303.995,138.874 304.437,138.877 305.413 M102.928 308.962 C 103.988 310.035,104.936 310.914,105.033 310.914 C 105.131 310.914,104.343 310.035,103.283 308.962 C 102.223 307.888,101.275 307.010,101.178 307.010 C 101.080 307.010,101.868 307.888,102.928 308.962 M215.350 327.500 C 216.180 327.575,217.538 327.575,218.367 327.500 C 219.197 327.426,218.518 327.364,216.859 327.364 C 215.200 327.364,214.521 327.426,215.350 327.500 M205.417 330.331 C 205.858 330.416,206.497 330.413,206.836 330.324 C 207.176 330.235,206.815 330.165,206.034 330.169 C 205.253 330.173,204.975 330.246,205.417 330.331 M212.511 330.330 C 212.950 330.415,213.669 330.415,214.108 330.330 C 214.547 330.246,214.188 330.177,213.310 330.177 C 212.431 330.177,212.072 330.246,212.511 330.330 M200.976 347.361 C 201.318 347.450,201.877 347.450,202.218 347.361 C 202.560 347.272,202.280 347.199,201.597 347.199 C 200.914 347.199,200.634 347.272,200.976 347.361 M218.367 347.361 C 218.709 347.450,219.268 347.450,219.610 347.361 C 219.951 347.272,219.672 347.199,218.988 347.199 C 218.305 347.199,218.026 347.272,218.367 347.361 " stroke="none" fill="#5c687f" fill-rule="evenodd"></path><path id="path5" d="M200.799 95.731 C 201.433 95.810,202.471 95.810,203.106 95.731 C 203.740 95.653,203.221 95.588,201.952 95.588 C 200.683 95.588,200.164 95.653,200.799 95.731 M96.354 195.652 L 93.523 198.580 96.451 195.749 C 99.170 193.120,99.541 192.724,99.282 192.724 C 99.228 192.724,97.911 194.042,96.354 195.652 M103.092 202.396 L 101.331 204.259 103.194 202.498 C 104.219 201.529,105.058 200.691,105.058 200.634 C 105.058 200.370,104.729 200.664,103.092 202.396 M328.128 205.146 C 329.089 206.122,329.956 206.921,330.053 206.921 C 330.151 206.921,329.444 206.122,328.483 205.146 C 327.521 204.170,326.655 203.372,326.557 203.372 C 326.460 203.372,327.166 204.170,328.128 205.146 M137.807 242.768 C 137.807 243.647,137.877 244.006,137.961 243.567 C 138.046 243.128,138.046 242.409,137.961 241.970 C 137.877 241.531,137.807 241.890,137.807 242.768 M157.504 261.482 C 158.142 261.561,159.100 261.559,159.634 261.478 C 160.167 261.397,159.645 261.332,158.474 261.334 C 157.303 261.336,156.866 261.403,157.504 261.482 M177.196 261.469 C 177.538 261.558,178.097 261.558,178.438 261.469 C 178.780 261.380,178.500 261.307,177.817 261.307 C 177.134 261.307,176.854 261.380,177.196 261.469 M153.327 279.082 C 153.327 279.143,153.846 279.662,154.481 280.235 L 155.634 281.278 154.592 280.124 C 153.620 279.049,153.327 278.808,153.327 279.082 M152.440 285.004 C 153.203 285.785,153.906 286.424,154.004 286.424 C 154.101 286.424,153.557 285.785,152.795 285.004 C 152.033 284.224,151.329 283.585,151.231 283.585 C 151.134 283.585,151.678 284.224,152.440 285.004 M130.530 297.684 C 131.168 297.763,132.126 297.761,132.659 297.680 C 133.193 297.599,132.671 297.535,131.500 297.537 C 130.328 297.539,129.892 297.605,130.530 297.684 M138.865 300.444 C 138.869 301.224,138.942 301.502,139.027 301.061 C 139.111 300.619,139.108 299.980,139.019 299.641 C 138.931 299.302,138.861 299.663,138.865 300.444 M94.040 314.197 C 95.511 315.764,95.830 316.046,95.830 315.779 C 95.830 315.722,95.071 314.964,94.144 314.093 L 92.458 312.511 94.040 314.197 M98.492 318.722 C 99.254 319.503,99.958 320.142,100.055 320.142 C 100.153 320.142,99.609 319.503,98.846 318.722 C 98.084 317.941,97.380 317.303,97.283 317.303 C 97.185 317.303,97.729 317.941,98.492 318.722 M210.559 327.485 C 210.901 327.574,211.460 327.574,211.801 327.485 C 212.143 327.396,211.863 327.323,211.180 327.323 C 210.497 327.323,210.217 327.396,210.559 327.485 " stroke="none" fill="#848494" fill-rule="evenodd"></path><path id="path6" d="M187.135 102.396 C 187.139 103.177,187.211 103.454,187.296 103.013 C 187.381 102.571,187.378 101.932,187.289 101.593 C 187.200 101.254,187.131 101.615,187.135 102.396 M205.856 115.765 C 205.856 117.516,206.032 117.460,206.316 115.617 C 206.430 114.879,206.373 114.286,206.189 114.286 C 206.006 114.286,205.856 114.951,205.856 115.765 M151.901 172.405 L 148.536 175.865 151.996 172.500 C 155.211 169.375,155.618 168.944,155.361 168.944 C 155.309 168.944,153.751 170.501,151.901 172.405 M105.039 200.799 L 103.815 202.130 105.146 200.906 C 106.385 199.768,106.641 199.468,106.370 199.468 C 106.310 199.468,105.711 200.067,105.039 200.799 M101.844 203.993 L 100.621 205.324 101.952 204.101 C 103.191 202.962,103.446 202.662,103.175 202.662 C 103.116 202.662,102.517 203.261,101.844 203.993 M132.858 242.591 C 132.860 243.957,132.924 244.473,133.001 243.737 C 133.078 243.000,133.076 241.882,132.998 241.252 C 132.920 240.622,132.857 241.224,132.858 242.591 M160.520 255.091 C 161.059 255.172,161.858 255.170,162.294 255.086 C 162.731 255.001,162.289 254.935,161.313 254.937 C 160.337 254.940,159.980 255.009,160.520 255.091 M178.261 255.081 C 178.602 255.170,179.161 255.170,179.503 255.081 C 179.845 254.991,179.565 254.918,178.882 254.918 C 178.199 254.918,177.919 254.991,178.261 255.081 M218.554 299.462 C 219.389 299.537,220.667 299.536,221.394 299.459 C 222.120 299.383,221.437 299.322,219.876 299.323 C 218.314 299.324,217.719 299.387,218.554 299.462 M215.173 304.060 C 215.515 304.149,216.074 304.149,216.415 304.060 C 216.757 303.971,216.477 303.898,215.794 303.898 C 215.111 303.898,214.831 303.971,215.173 304.060 M224.579 304.066 C 225.018 304.151,225.736 304.151,226.176 304.066 C 226.615 303.981,226.256 303.912,225.377 303.912 C 224.499 303.912,224.139 303.981,224.579 304.066 M138.877 308.607 C 138.880 309.583,138.949 309.940,139.030 309.401 C 139.112 308.861,139.110 308.063,139.025 307.626 C 138.941 307.189,138.874 307.631,138.877 308.607 M218.722 309.398 C 219.454 309.474,220.652 309.474,221.384 309.398 C 222.116 309.321,221.517 309.259,220.053 309.259 C 218.589 309.259,217.990 309.321,218.722 309.398 M203.106 330.325 C 203.447 330.414,204.006 330.414,204.348 330.325 C 204.689 330.235,204.410 330.162,203.727 330.162 C 203.043 330.162,202.764 330.235,203.106 330.325 M215.173 330.325 C 215.515 330.414,216.074 330.414,216.415 330.325 C 216.757 330.235,216.477 330.162,215.794 330.162 C 215.111 330.162,214.831 330.235,215.173 330.325 M203.106 347.361 C 203.447 347.450,204.006 347.450,204.348 347.361 C 204.689 347.272,204.410 347.199,203.727 347.199 C 203.043 347.199,202.764 347.272,203.106 347.361 M216.238 347.361 C 216.579 347.450,217.138 347.450,217.480 347.361 C 217.822 347.272,217.542 347.199,216.859 347.199 C 216.176 347.199,215.896 347.272,216.238 347.361 M207.704 352.703 C 209.013 352.771,211.249 352.771,212.673 352.704 C 214.097 352.636,213.026 352.581,210.293 352.580 C 207.560 352.580,206.395 352.635,207.704 352.703 M203.287 357.305 C 203.729 357.390,204.368 357.387,204.707 357.298 C 205.046 357.209,204.685 357.140,203.904 357.144 C 203.123 357.148,202.846 357.220,203.287 357.305 M215.705 357.305 C 216.145 357.389,216.863 357.389,217.303 357.305 C 217.742 357.220,217.382 357.151,216.504 357.151 C 215.626 357.151,215.266 357.220,215.705 357.305 " stroke="none" fill="#3c5474" fill-rule="evenodd"></path><path id="path7" d="" stroke="none" fill="#647c9c" fill-rule="evenodd"></path><path id="path8" d="M205.590 357.299 C 205.932 357.388,206.491 357.388,206.832 357.299 C 207.174 357.210,206.894 357.136,206.211 357.136 C 205.528 357.136,205.248 357.210,205.590 357.299 " stroke="none" fill="#385080" fill-rule="evenodd"></path></g></svg>