<svg id="svg" xmlns="http://www.w3.org/2000/svg" xmlns:xlink="http://www.w3.org/1999/xlink" width="400" height="414.5748987854251" viewBox="0, 0, 400,414.5748987854251"><g id="svgg"><path id="path0" d="M355.600 6.835 C 351.339 8.055,350.847 8.398,328.400 25.805 C 323.890 29.302,318.302 33.612,315.982 35.382 C 313.662 37.152,309.098 40.670,305.840 43.200 C 298.476 48.918,286.799 57.958,284.400 59.800 C 283.410 60.559,279.872 63.300,276.537 65.890 C 273.202 68.481,266.380 73.750,261.376 77.600 C 256.373 81.450,250.077 86.326,247.386 88.436 L 242.493 92.272 236.947 92.541 C 231.777 92.792,219.833 94.222,214.800 95.193 C 211.061 95.914,205.488 97.203,203.600 97.783 C 202.610 98.088,200.180 98.811,198.200 99.392 C 196.220 99.972,194.240 100.613,193.800 100.816 C 193.360 101.019,191.560 101.712,189.800 102.357 C 164.070 111.787,142.224 130.294,125.839 156.542 C 124.620 158.495,123.423 159.521,107.800 172.007 C 99.440 178.688,92.510 184.265,92.400 184.399 C 92.290 184.534,86.260 189.393,79.000 195.198 C 71.740 201.002,64.906 206.482,63.814 207.375 C 62.721 208.269,61.587 209.180,61.294 209.400 C 61.001 209.620,60.455 210.082,60.081 210.427 C 59.706 210.772,52.222 216.802,43.449 223.827 C 16.833 245.139,8.213 252.056,7.915 252.339 C 7.666 252.576,11.631 258.819,12.920 260.219 C 13.184 260.505,14.116 261.608,14.992 262.670 C 30.774 281.808,57.927 292.081,81.600 287.870 C 83.470 287.537,87.070 286.900,89.600 286.454 C 92.130 286.007,96.270 285.267,98.800 284.808 C 112.366 282.349,111.366 282.299,111.989 285.475 C 112.240 286.754,112.697 288.700,113.004 289.800 C 113.312 290.900,114.037 293.510,114.615 295.600 C 115.193 297.690,115.904 300.120,116.195 301.000 C 116.487 301.880,117.205 304.130,117.791 306.000 C 118.377 307.870,119.021 309.760,119.221 310.200 C 119.421 310.640,120.132 312.530,120.800 314.400 C 121.468 316.270,122.180 318.160,122.382 318.600 C 122.584 319.040,123.590 321.380,124.618 323.800 C 126.197 327.516,130.416 336.303,131.925 339.017 C 136.723 347.649,143.329 357.829,146.969 362.200 C 147.701 363.080,149.419 365.150,150.785 366.800 C 159.470 377.286,171.267 387.254,182.875 393.916 C 186.988 396.276,196.280 400.800,197.014 400.800 C 197.160 400.800,197.846 401.049,198.540 401.352 C 202.311 403.005,207.600 404.542,207.600 403.985 C 207.600 403.803,206.902 402.247,206.049 400.527 C 204.657 397.720,203.447 395.126,201.754 391.325 C 199.389 386.015,194.618 372.458,193.337 367.408 C 191.830 361.468,191.136 358.351,190.578 355.000 C 190.248 353.020,189.782 350.410,189.544 349.200 C 188.893 345.900,188.625 328.836,189.161 324.800 C 190.213 316.879,190.624 315.062,193.009 307.800 C 195.334 300.723,195.408 300.705,197.401 306.700 C 199.054 311.672,201.630 318.594,202.574 320.600 C 202.885 321.260,203.643 322.970,204.259 324.400 C 214.670 348.568,231.033 365.777,245.900 368.194 C 248.013 368.537,248.048 368.763,245.288 364.321 C 240.507 356.629,236.485 346.921,234.962 339.400 C 234.650 337.860,234.174 335.610,233.904 334.400 C 232.949 330.131,233.238 310.225,234.333 304.800 C 236.471 294.204,241.200 280.200,242.639 280.200 C 242.880 280.200,244.298 282.000,245.789 284.200 C 256.225 299.599,272.192 309.966,285.519 309.997 L 286.838 310.000 285.619 308.228 C 284.949 307.253,284.400 306.361,284.400 306.246 C 284.400 306.130,283.872 305.139,283.226 304.045 C 282.581 302.950,281.490 300.737,280.803 299.127 C 280.115 297.517,279.385 295.840,279.180 295.400 C 274.441 285.242,272.499 266.517,274.928 254.400 C 276.071 248.696,276.774 245.952,277.219 245.456 C 277.391 245.265,282.195 245.312,288.064 245.563 C 293.859 245.811,304.360 246.191,311.400 246.406 C 318.440 246.622,328.541 247.009,333.847 247.266 L 343.494 247.734 347.447 246.032 C 349.621 245.096,351.967 244.076,352.660 243.765 C 353.354 243.454,354.039 243.200,354.182 243.200 C 354.326 243.200,355.289 242.821,356.322 242.358 C 357.355 241.895,358.740 241.274,359.400 240.979 C 360.060 240.684,362.310 239.740,364.400 238.881 C 374.065 234.910,373.317 235.351,374.606 232.863 C 375.251 231.619,376.435 229.430,377.238 228.000 C 378.885 225.064,385.004 213.923,387.047 210.140 C 387.788 208.768,388.914 206.763,389.551 205.684 C 391.507 202.365,391.497 202.226,389.210 201.242 C 387.195 200.376,378.939 196.568,377.267 195.734 C 377.194 195.697,377.418 193.881,377.765 191.697 C 378.257 188.602,378.310 187.043,378.003 184.624 C 377.370 179.629,376.744 176.412,376.359 176.174 C 376.161 176.053,376.000 175.640,376.000 175.257 C 376.000 173.801,371.521 166.061,370.027 164.937 C 369.498 164.538,369.338 164.838,368.887 167.071 C 367.923 171.839,363.558 179.897,359.306 184.756 L 357.769 186.513 353.220 184.156 L 348.671 181.800 347.718 179.200 C 347.193 177.770,346.515 175.880,346.212 175.000 C 345.908 174.120,344.749 171.000,343.637 168.067 L 341.614 162.734 342.963 159.867 C 344.770 156.030,350.576 143.909,356.696 131.200 C 358.127 128.230,359.929 124.450,360.702 122.800 C 361.475 121.150,363.492 116.920,365.183 113.400 C 366.875 109.880,369.228 104.975,370.412 102.500 C 371.596 100.025,372.687 98.000,372.837 98.000 C 373.389 98.000,374.888 101.135,376.181 104.993 C 376.392 105.625,376.646 105.299,377.423 103.393 C 379.733 97.730,381.092 89.783,380.696 84.248 C 380.522 81.806,380.628 81.223,381.607 79.242 C 382.217 78.009,383.558 75.205,384.589 73.010 L 386.462 69.021 386.017 63.410 C 385.773 60.325,385.222 52.490,384.793 46.000 C 383.167 21.375,383.217 21.913,382.342 19.825 C 378.325 10.247,365.478 4.007,355.600 6.835 M353.998 15.200 C 354.054 18.574,356.907 21.110,361.197 21.600 C 365.777 22.122,367.701 23.383,369.550 27.073 C 370.472 28.912,372.400 35.929,372.400 37.444 C 372.400 39.181,373.074 38.440,373.967 35.722 C 375.355 31.493,377.283 26.800,377.632 26.800 C 378.057 26.800,378.273 28.794,378.800 37.600 C 380.100 59.332,380.387 63.609,380.601 64.464 C 380.771 65.143,380.107 66.758,378.183 70.344 L 375.530 75.288 375.994 77.744 C 376.544 80.660,377.022 92.661,376.647 94.155 C 376.404 95.123,375.600 95.652,375.600 94.843 C 375.600 94.302,372.162 88.360,371.082 87.036 L 370.133 85.872 369.300 87.636 C 365.607 95.452,364.000 98.902,364.000 99.017 C 364.000 99.141,362.315 102.778,359.005 109.800 C 358.279 111.340,357.025 114.040,356.218 115.800 C 355.412 117.560,354.360 119.855,353.882 120.900 C 353.403 121.945,352.874 122.800,352.706 122.800 C 352.243 122.800,352.337 122.060,352.975 120.660 C 353.291 119.967,354.031 117.960,354.619 116.200 C 355.208 114.440,355.917 112.460,356.197 111.800 C 357.076 109.723,363.199 92.617,363.214 92.199 C 363.221 91.979,363.575 91.080,364.000 90.200 C 364.425 89.320,364.779 88.357,364.786 88.060 C 364.794 87.764,365.043 86.954,365.340 86.260 C 366.029 84.653,366.732 82.748,370.988 70.948 L 374.469 61.296 373.795 57.948 C 373.424 56.107,372.911 53.444,372.656 52.032 C 372.029 48.562,372.128 48.539,364.938 53.766 C 358.193 58.669,358.503 58.326,354.044 65.808 L 352.847 67.815 353.815 71.808 C 355.378 78.256,355.624 87.921,354.272 89.769 C 353.870 90.319,353.495 89.893,351.746 86.901 C 350.617 84.968,348.837 82.336,347.791 81.053 L 345.890 78.719 344.723 80.660 C 344.081 81.727,342.766 83.860,341.801 85.400 C 340.835 86.940,339.391 89.280,338.592 90.600 C 337.794 91.920,336.389 94.208,335.470 95.685 C 332.394 100.632,327.955 107.792,327.475 108.582 C 327.214 109.012,326.062 110.853,324.915 112.672 C 323.769 114.491,322.548 116.479,322.203 117.090 C 321.858 117.700,321.266 118.689,320.888 119.286 C 320.510 119.884,318.130 123.713,315.600 127.795 C 313.070 131.877,310.248 136.428,309.330 137.908 C 308.411 139.389,307.010 141.680,306.217 143.000 C 305.423 144.320,303.253 147.830,301.396 150.800 C 297.989 156.247,297.672 157.041,298.400 158.305 C 298.621 158.687,299.331 160.440,299.978 162.200 C 300.625 163.960,301.985 167.560,302.999 170.200 C 305.031 175.487,306.767 180.059,309.123 186.322 C 310.994 191.298,310.829 191.135,315.800 192.917 C 318.000 193.706,320.790 194.738,322.000 195.211 C 327.140 197.221,326.621 197.269,329.155 194.548 C 333.014 190.404,336.662 184.388,338.538 179.075 C 340.097 174.661,341.652 188.732,340.800 199.537 L 340.600 202.074 344.400 203.448 C 346.490 204.203,348.767 205.086,349.460 205.410 C 350.154 205.735,350.929 206.000,351.182 206.000 C 351.436 206.000,352.462 206.373,353.461 206.828 C 356.095 208.028,360.270 207.527,368.946 204.973 C 370.016 204.658,371.276 204.387,371.746 204.372 C 374.490 204.282,374.123 203.798,368.561 200.182 C 365.531 198.212,361.114 195.340,358.746 193.800 C 356.377 192.260,352.625 189.842,350.408 188.426 C 343.391 183.948,344.685 184.001,353.898 188.569 C 356.373 189.796,358.718 190.800,359.110 190.800 C 361.465 190.800,368.769 180.654,370.585 174.860 C 372.006 170.327,373.951 185.068,372.823 191.823 C 372.568 193.350,372.262 195.230,372.144 196.000 L 371.929 197.400 376.940 199.600 C 384.520 202.927,384.328 201.654,378.726 211.479 C 377.447 213.722,376.400 215.634,376.400 215.728 C 376.400 215.821,375.050 218.284,373.400 221.200 C 371.750 224.116,370.397 226.614,370.394 226.751 C 370.391 226.888,367.826 228.058,364.694 229.352 C 357.271 232.418,352.307 234.515,347.490 236.618 L 343.580 238.326 326.690 237.778 C 317.400 237.477,306.290 237.047,302.000 236.822 C 297.710 236.598,289.587 236.296,283.950 236.150 L 273.699 235.887 273.224 237.443 C 272.962 238.300,272.507 239.630,272.212 240.400 C 266.593 255.078,267.571 278.594,274.470 294.709 C 276.112 298.544,276.016 298.553,270.735 295.079 C 259.205 287.493,248.117 273.973,245.776 264.645 C 245.389 263.107,245.004 263.320,242.787 266.300 C 238.908 271.514,232.500 285.681,230.892 292.600 C 226.205 312.761,227.323 335.096,233.792 350.500 C 234.652 352.550,231.274 349.488,227.503 344.800 C 213.271 327.108,200.801 296.975,200.800 280.276 C 200.800 274.446,189.800 295.532,186.441 307.800 C 180.060 331.113,184.154 364.923,196.275 389.000 C 198.322 393.065,198.372 392.996,194.696 391.148 C 157.966 372.680,133.347 337.511,120.172 284.686 C 119.361 281.432,119.060 281.773,123.200 281.245 C 125.070 281.007,129.300 280.449,132.600 280.007 C 135.900 279.564,141.475 278.831,144.989 278.378 C 152.643 277.392,152.193 277.747,149.489 274.827 C 143.258 268.097,138.466 259.854,134.591 249.200 L 132.772 244.200 132.970 248.000 C 133.243 253.217,135.160 262.082,137.359 268.290 C 138.150 270.522,140.197 269.999,115.800 273.798 C 109.420 274.791,102.535 275.873,100.500 276.202 C 98.465 276.531,95.135 277.065,93.100 277.390 C 91.065 277.714,87.060 278.365,84.200 278.836 C 61.577 282.559,34.780 272.544,21.344 255.343 C 18.118 251.213,17.989 251.664,23.683 247.200 C 26.349 245.110,31.258 241.240,34.592 238.600 C 37.926 235.960,43.863 231.280,47.785 228.200 C 51.708 225.120,57.185 220.797,59.958 218.593 C 66.040 213.760,95.042 190.803,110.571 178.531 C 116.744 173.652,121.852 169.719,121.922 169.789 C 121.993 169.859,121.777 172.051,121.443 174.659 C 120.154 184.729,120.376 185.648,122.591 179.400 C 134.356 146.216,161.046 119.944,196.184 106.957 C 202.379 104.668,202.466 104.785,197.538 108.777 C 189.174 115.551,180.298 125.219,172.727 135.800 C 169.550 140.240,163.422 149.955,163.653 150.186 C 163.746 150.279,165.887 148.319,168.411 145.831 C 178.959 135.429,197.313 119.180,197.877 119.744 C 197.948 119.815,197.304 121.395,196.445 123.254 C 194.038 128.463,192.226 135.320,191.386 142.400 L 191.125 144.600 193.862 141.978 C 201.357 134.799,219.284 119.951,219.815 120.482 C 219.899 120.566,219.798 122.247,219.591 124.217 C 219.384 126.188,219.223 130.500,219.233 133.800 L 219.252 139.800 221.007 134.606 C 224.271 124.945,230.243 114.256,237.101 105.800 C 242.865 98.693,241.076 100.226,265.800 81.201 C 270.200 77.816,276.140 73.228,279.000 71.006 C 292.144 60.795,292.000 60.888,292.000 62.635 C 292.000 64.944,301.917 80.200,303.417 80.200 C 303.635 80.200,303.921 77.263,304.081 73.400 C 304.367 66.502,305.801 53.827,306.504 52.000 L 306.888 51.000 307.390 52.400 C 308.583 55.727,316.066 66.800,317.121 66.800 C 317.292 66.800,317.646 63.335,317.907 59.100 C 318.168 54.865,318.651 49.600,318.981 47.400 C 320.132 39.714,320.143 39.692,321.358 42.646 C 322.768 46.074,328.961 54.800,329.985 54.800 C 330.145 54.800,330.388 52.055,330.524 48.700 C 330.742 43.345,332.114 31.353,332.559 30.908 C 332.648 30.819,333.296 31.883,334.000 33.273 C 335.404 36.049,339.139 41.427,340.644 42.841 L 341.600 43.739 341.600 41.945 C 341.600 37.926,343.138 23.912,343.842 21.517 C 343.953 21.142,346.133 19.199,348.687 17.200 C 353.284 13.602,353.967 13.345,353.998 15.200 M338.191 70.500 C 334.808 74.047,320.706 88.506,288.445 121.504 C 275.486 134.759,273.270 136.861,271.845 137.248 C 258.827 140.787,240.819 150.481,227.803 160.956 L 226.607 161.919 227.403 164.259 C 232.444 179.069,216.863 210.435,192.960 233.600 C 175.106 250.903,158.492 257.383,148.079 251.105 C 146.321 250.045,146.134 250.380,147.244 252.602 C 150.666 259.455,159.575 262.674,169.372 260.599 C 172.833 259.866,172.734 259.568,170.570 264.199 C 157.892 291.330,156.831 320.586,167.553 347.400 C 169.445 352.133,169.647 351.966,168.055 346.984 C 161.878 327.646,162.233 308.340,169.150 287.400 C 170.022 284.760,171.034 281.880,171.399 281.000 C 171.764 280.120,172.363 278.680,172.730 277.800 C 177.041 267.457,185.392 253.416,194.142 241.800 C 210.356 220.277,240.828 192.083,261.100 179.851 C 263.830 178.203,263.879 178.093,262.996 175.589 C 261.171 170.417,254.979 165.770,246.220 162.998 C 242.658 161.871,242.654 161.812,245.946 158.707 C 250.911 154.023,261.614 147.702,272.923 142.775 C 277.044 140.979,277.324 140.730,284.355 132.591 C 285.984 130.706,294.130 121.494,294.800 120.780 C 295.130 120.429,296.300 119.078,297.400 117.779 C 298.500 116.480,300.138 114.603,301.040 113.608 C 302.530 111.966,315.593 97.143,321.134 90.809 C 322.380 89.384,324.839 86.594,326.598 84.609 C 328.357 82.624,330.265 80.460,330.839 79.800 C 332.647 77.719,339.233 70.252,340.365 69.000 C 341.514 67.728,342.155 66.800,341.883 66.800 C 341.793 66.800,340.132 68.465,338.191 70.500 M234.400 99.423 C 234.400 100.126,230.810 104.014,229.800 104.406 C 227.347 105.356,224.550 106.634,222.420 107.777 L 220.226 108.954 222.165 109.449 C 224.410 110.022,224.930 110.428,224.733 111.458 C 224.603 112.135,223.980 112.222,217.595 112.456 C 213.748 112.598,209.812 112.926,208.849 113.186 C 205.350 114.130,206.042 113.004,210.854 109.924 C 213.366 108.316,215.776 106.770,216.210 106.490 C 218.402 105.074,226.781 101.183,229.315 100.404 C 230.902 99.916,232.380 99.460,232.600 99.390 C 233.293 99.170,234.400 99.191,234.400 99.423 M300.586 139.659 C 297.294 143.651,292.943 148.916,290.918 151.359 L 287.237 155.800 288.673 158.400 C 290.926 162.477,294.132 168.336,295.787 171.400 C 297.195 174.008,301.980 182.818,303.716 186.000 C 305.133 188.599,296.585 164.133,294.421 159.400 C 292.977 156.239,293.030 155.602,295.006 152.448 C 295.229 152.091,296.742 149.550,298.369 146.800 C 299.996 144.050,302.351 140.090,303.603 138.000 C 306.114 133.808,306.893 132.400,306.700 132.400 C 306.630 132.400,303.879 135.667,300.586 139.659 M336.597 149.449 C 335.588 152.062,334.389 155.096,333.932 156.190 C 332.782 158.941,332.792 158.998,335.759 166.322 C 337.211 169.909,338.400 172.966,338.400 173.114 C 338.400 173.401,335.048 168.805,330.868 162.787 C 327.920 158.543,327.779 159.422,332.487 152.700 C 334.529 149.785,336.646 146.736,337.191 145.924 C 338.694 143.686,338.596 144.268,336.597 149.449 M102.509 197.900 C 87.160 210.253,84.400 212.535,84.400 212.867 C 84.400 213.049,83.788 214.054,83.039 215.099 C 75.945 225.010,73.563 243.781,77.811 256.293 C 78.588 258.581,78.586 258.582,75.322 258.029 C 70.469 257.209,65.072 255.101,60.685 252.314 C 58.363 250.839,58.270 250.911,58.326 254.172 C 58.397 258.354,61.876 264.548,67.382 270.298 C 69.459 272.468,73.447 272.505,84.600 270.460 C 89.440 269.573,97.090 268.197,101.600 267.403 C 115.988 264.870,125.386 263.147,125.514 263.020 C 125.582 262.952,125.134 262.774,124.519 262.625 C 119.280 261.355,109.035 256.641,104.387 253.361 C 83.947 238.938,85.638 218.226,109.290 193.300 C 112.327 190.100,111.520 190.647,102.509 197.900 " stroke="none" fill="#141414" fill-rule="evenodd"></path><path id="path1" d="M348.687 17.200 C 346.133 19.199,343.953 21.142,343.842 21.517 C 343.138 23.912,341.600 37.926,341.600 41.945 L 341.600 43.739 340.644 42.841 C 339.139 41.427,335.404 36.049,334.000 33.273 C 333.296 31.883,332.648 30.819,332.559 30.908 C 332.114 31.353,330.742 43.345,330.524 48.700 C 330.388 52.055,330.145 54.800,329.985 54.800 C 328.961 54.800,322.768 46.074,321.358 42.646 C 320.143 39.692,320.132 39.714,318.981 47.400 C 318.651 49.600,318.168 54.865,317.907 59.100 C 317.646 63.335,317.292 66.800,317.121 66.800 C 316.066 66.800,308.583 55.727,307.390 52.400 L 306.888 51.000 306.504 52.000 C 305.801 53.827,304.367 66.502,304.081 73.400 C 303.921 77.263,303.635 80.200,303.417 80.200 C 301.917 80.200,292.000 64.944,292.000 62.635 C 292.000 61.319,291.035 61.684,287.701 64.260 C 285.776 65.749,281.860 68.784,279.000 71.006 C 276.140 73.228,270.200 77.816,265.800 81.201 C 241.076 100.226,242.865 98.693,237.101 105.800 C 230.243 114.256,224.271 124.945,221.007 134.606 L 219.252 139.800 219.233 133.800 C 219.223 130.500,219.384 126.188,219.591 124.217 C 219.798 122.247,219.899 120.566,219.815 120.482 C 219.284 119.951,201.357 134.799,193.862 141.978 L 191.125 144.600 191.386 142.400 C 192.226 135.320,194.038 128.463,196.445 123.254 C 197.304 121.395,197.948 119.815,197.877 119.744 C 197.313 119.180,178.959 135.429,168.411 145.831 C 165.887 148.319,163.746 150.279,163.653 150.186 C 163.422 149.955,169.550 140.240,172.727 135.800 C 180.298 125.219,189.174 115.551,197.538 108.777 C 202.466 104.785,202.379 104.668,196.184 106.957 C 161.046 119.944,134.356 146.216,122.591 179.400 C 120.376 185.648,120.154 184.729,121.443 174.659 C 121.777 172.051,121.993 169.859,121.922 169.789 C 121.852 169.719,116.744 173.652,110.571 178.531 C 95.042 190.803,66.040 213.760,59.958 218.593 C 57.185 220.797,51.708 225.120,47.785 228.200 C 43.863 231.280,37.926 235.960,34.592 238.600 C 31.258 241.240,26.349 245.110,23.683 247.200 C 17.989 251.664,18.118 251.213,21.344 255.343 C 34.780 272.544,61.577 282.559,84.200 278.836 C 87.060 278.365,91.065 277.714,93.100 277.390 C 95.135 277.065,98.465 276.531,100.500 276.202 C 102.535 275.873,109.420 274.791,115.800 273.798 C 140.197 269.999,138.150 270.522,137.359 268.290 C 135.160 262.082,133.243 253.217,132.970 248.000 L 132.772 244.200 134.591 249.200 C 138.466 259.854,143.258 268.097,149.489 274.827 C 152.193 277.747,152.643 277.392,144.989 278.378 C 141.475 278.831,135.900 279.564,132.600 280.007 C 129.300 280.449,125.070 281.007,123.200 281.245 C 119.060 281.773,119.361 281.432,120.172 284.686 C 132.546 334.298,153.865 366.765,187.400 387.067 C 194.994 391.664,197.996 392.866,195.163 390.175 C 191.295 386.500,183.680 376.911,178.982 369.800 C 176.352 365.819,169.923 353.410,170.297 353.037 C 170.427 352.907,170.323 352.800,170.067 352.800 C 169.810 352.800,169.600 352.455,169.600 352.033 C 169.600 351.612,169.453 351.207,169.274 351.133 C 168.903 350.981,166.092 343.894,164.859 340.000 C 157.113 315.541,159.138 288.663,170.570 264.199 C 172.734 259.568,172.833 259.866,169.372 260.599 C 159.575 262.674,150.666 259.455,147.244 252.602 C 146.134 250.380,146.321 250.045,148.079 251.105 C 158.492 257.383,175.106 250.903,192.960 233.600 C 216.863 210.435,232.444 179.069,227.403 164.259 L 226.607 161.919 227.803 160.956 C 240.819 150.481,258.827 140.787,271.845 137.248 C 273.592 136.773,274.522 135.845,319.188 90.003 C 327.871 81.092,337.141 71.639,339.788 68.997 C 342.435 66.355,345.831 62.807,347.337 61.111 C 350.058 58.045,351.486 57.045,358.800 53.089 C 360.230 52.316,363.905 50.308,366.967 48.629 C 370.029 46.949,372.651 45.715,372.794 45.887 C 372.937 46.059,373.571 47.550,374.202 49.200 C 374.834 50.850,375.466 52.380,375.606 52.600 C 375.747 52.820,376.828 55.470,378.009 58.488 C 379.191 61.507,380.207 63.926,380.269 63.865 C 380.330 63.803,380.124 59.534,379.811 54.377 C 379.499 49.219,379.043 41.670,378.800 37.600 C 378.273 28.794,378.057 26.800,377.632 26.800 C 377.283 26.800,375.355 31.493,373.967 35.722 C 373.074 38.440,372.400 39.181,372.400 37.444 C 372.400 35.929,370.472 28.912,369.550 27.073 C 367.701 23.383,365.777 22.122,361.197 21.600 C 356.907 21.110,354.054 18.574,353.998 15.200 C 353.967 13.345,353.284 13.602,348.687 17.200 M337.191 145.924 C 336.646 146.736,334.529 149.785,332.487 152.700 C 327.779 159.422,327.920 158.543,330.868 162.787 C 335.048 168.805,338.400 173.401,338.400 173.114 C 338.400 172.966,337.211 169.909,335.759 166.322 C 332.792 158.998,332.782 158.941,333.932 156.190 C 335.613 152.165,338.427 144.693,338.306 144.573 C 338.238 144.505,337.736 145.113,337.191 145.924 M109.290 193.300 C 85.638 218.226,83.947 238.938,104.387 253.361 C 109.035 256.641,119.280 261.355,124.519 262.625 C 125.134 262.774,125.582 262.952,125.514 263.020 C 125.386 263.147,115.988 264.870,101.600 267.403 C 97.090 268.197,89.440 269.573,84.600 270.460 C 76.782 271.894,75.398 272.043,72.200 271.798 C 70.220 271.646,68.051 271.543,67.380 271.568 C 66.709 271.594,64.009 271.176,61.380 270.640 C 47.630 267.836,38.378 262.537,33.715 254.796 L 32.830 253.326 39.315 248.175 C 44.717 243.884,65.318 227.533,88.400 209.217 C 91.150 207.035,97.323 202.089,102.118 198.225 C 111.527 190.644,112.342 190.084,109.290 193.300 M355.800 226.606 L 344.200 237.988 347.800 236.453 C 352.660 234.382,357.902 232.170,364.507 229.405 C 368.353 227.795,369.905 226.964,369.650 226.650 C 369.450 226.402,369.204 225.390,369.103 224.400 C 368.752 220.934,367.821 215.200,367.612 215.212 C 367.495 215.219,362.180 220.347,355.800 226.606 M245.253 252.100 C 243.419 255.895,241.779 259.276,241.610 259.614 C 241.265 260.298,237.974 268.694,236.832 271.800 C 235.595 275.165,234.924 277.240,233.794 281.200 C 233.197 283.290,232.460 285.796,232.156 286.768 C 231.151 289.977,231.813 288.844,233.603 284.287 C 237.037 275.551,243.709 263.600,245.155 263.600 C 245.352 263.600,245.631 264.070,245.776 264.645 C 248.169 274.181,259.695 288.114,271.200 295.379 L 274.200 297.273 270.318 293.621 C 262.461 286.229,256.382 278.314,253.099 271.203 C 252.235 269.331,251.370 267.498,251.178 267.128 C 249.673 264.238,248.646 258.033,248.623 251.700 C 248.610 248.125,248.597 245.200,248.593 245.200 C 248.590 245.200,247.086 248.305,245.253 252.100 M203.525 262.683 C 202.512 264.214,198.077 272.400,196.739 275.211 C 191.916 285.337,188.873 294.307,186.364 305.800 C 185.065 311.752,185.113 312.035,186.584 307.095 C 189.166 298.422,193.202 289.509,197.520 282.947 C 200.412 278.552,200.800 278.236,200.800 280.276 C 200.801 293.038,209.158 317.136,218.772 332.100 C 221.864 336.912,222.086 336.996,219.829 332.500 C 217.444 327.751,216.792 326.216,214.177 319.200 C 213.657 317.803,212.210 312.965,211.068 308.800 C 209.653 303.644,207.435 292.123,206.986 287.600 C 206.844 286.170,206.570 284.266,206.378 283.369 C 206.185 282.472,205.743 277.252,205.395 271.769 C 205.047 266.286,204.719 261.644,204.665 261.453 C 204.612 261.262,204.099 261.816,203.525 262.683 " stroke="none" fill="#8a2434" fill-rule="evenodd"></path><path id="path2" d="M357.700 5.876 C 358.085 5.976,358.715 5.976,359.100 5.876 C 359.485 5.775,359.170 5.693,358.400 5.693 C 357.630 5.693,357.315 5.775,357.700 5.876 M377.800 12.800 C 378.659 13.680,379.452 14.400,379.562 14.400 C 379.672 14.400,379.059 13.680,378.200 12.800 C 377.341 11.920,376.548 11.200,376.438 11.200 C 376.328 11.200,376.941 11.920,377.800 12.800 M383.693 23.200 C 383.693 23.970,383.775 24.285,383.876 23.900 C 383.976 23.515,383.976 22.885,383.876 22.500 C 383.775 22.115,383.693 22.430,383.693 23.200 M384.928 41.200 C 384.928 42.630,385.001 43.215,385.089 42.500 C 385.178 41.785,385.178 40.615,385.089 39.900 C 385.001 39.185,384.928 39.770,384.928 41.200 M385.293 46.800 C 385.293 47.570,385.375 47.885,385.476 47.500 C 385.576 47.115,385.576 46.485,385.476 46.100 C 385.375 45.715,385.293 46.030,385.293 46.800 M369.800 47.497 C 368.480 48.256,366.050 49.605,364.400 50.495 C 362.750 51.384,360.050 52.875,358.400 53.807 C 356.750 54.739,354.264 56.097,352.875 56.825 C 351.282 57.660,349.732 58.890,348.675 60.159 C 347.343 61.759,335.564 75.180,326.845 85.033 C 326.050 85.931,324.410 87.803,323.200 89.192 C 321.038 91.675,316.279 97.075,311.384 102.600 C 310.019 104.140,307.325 107.200,305.397 109.400 C 303.468 111.600,301.412 113.940,300.828 114.600 C 300.244 115.260,297.523 118.331,294.783 121.424 C 292.042 124.518,289.111 127.848,288.269 128.824 C 281.380 136.816,276.949 141.626,276.281 141.838 C 275.844 141.976,273.937 142.803,272.043 143.674 C 258.938 149.704,251.055 154.447,245.700 159.525 C 243.711 161.412,243.603 161.897,245.100 162.228 C 254.514 164.313,263.130 171.141,263.859 177.094 C 264.041 178.579,264.006 178.623,261.408 180.200 C 258.799 181.784,250.774 187.337,248.750 188.959 C 248.173 189.421,247.201 190.160,246.591 190.600 C 245.283 191.544,241.026 194.911,239.600 196.130 C 239.050 196.600,237.520 197.880,236.200 198.974 C 218.593 213.569,199.094 234.546,188.904 249.855 C 188.631 250.265,187.724 251.590,186.889 252.800 C 186.053 254.010,184.781 255.990,184.063 257.200 C 183.344 258.410,182.258 260.210,181.649 261.200 C 179.769 264.255,176.066 271.574,173.958 276.400 C 172.853 278.930,171.792 281.360,171.600 281.800 C 171.407 282.240,171.129 283.050,170.981 283.600 C 170.832 284.150,170.482 285.140,170.202 285.800 C 169.062 288.490,167.266 295.129,165.603 302.800 C 164.341 308.619,164.055 327.830,165.149 333.200 C 165.351 334.190,165.723 336.080,165.977 337.400 C 168.759 351.893,177.407 368.955,188.800 382.431 C 191.752 385.923,196.479 391.200,196.653 391.200 C 196.743 391.200,196.475 390.525,196.057 389.700 C 176.911 351.851,178.896 305.056,201.307 265.908 C 205.140 259.213,205.200 259.168,205.200 263.010 C 205.200 282.498,212.094 316.858,218.385 328.729 C 218.581 329.098,219.498 330.930,220.425 332.800 C 222.899 337.796,226.588 343.249,230.447 347.616 C 232.572 350.021,233.606 350.706,232.780 349.163 C 227.440 339.184,225.988 312.559,229.826 295.000 C 230.825 290.432,232.045 285.562,232.833 283.000 C 233.239 281.680,234.012 279.160,234.552 277.400 C 235.579 274.050,238.141 266.773,238.778 265.400 C 238.982 264.960,239.991 262.620,241.020 260.200 C 242.049 257.780,244.054 253.460,245.476 250.600 C 249.143 243.222,249.983 242.273,249.202 246.390 C 246.369 261.329,257.916 284.760,273.674 296.048 L 274.747 296.817 273.744 294.308 C 266.712 276.724,266.143 256.933,272.158 239.200 L 273.447 235.400 279.824 235.516 C 283.331 235.580,289.530 235.808,293.600 236.023 C 297.670 236.238,309.190 236.678,319.200 237.001 C 329.210 237.324,338.799 237.708,340.508 237.854 L 343.616 238.119 351.508 230.306 C 365.689 216.268,367.713 214.353,368.022 214.679 C 368.190 214.855,368.608 217.325,368.950 220.166 C 369.567 225.294,370.093 226.896,370.656 225.367 C 370.811 224.945,371.987 222.742,373.269 220.470 C 374.551 218.199,375.600 216.277,375.600 216.200 C 375.600 216.123,376.655 214.201,377.944 211.930 C 380.472 207.474,382.800 203.170,382.800 202.951 C 382.800 202.877,381.585 202.262,380.100 201.585 C 372.273 198.016,371.200 197.430,371.364 196.818 C 373.108 190.327,373.023 176.527,371.233 175.420 C 371.091 175.333,370.357 176.642,369.601 178.331 C 367.962 181.993,365.914 185.075,362.923 188.380 C 359.730 191.908,359.714 191.912,356.083 190.148 C 349.151 186.780,348.605 186.608,352.100 188.898 C 353.255 189.654,355.884 191.382,357.942 192.737 C 359.999 194.091,361.731 195.200,361.788 195.200 C 361.846 195.200,363.910 196.550,366.374 198.200 C 368.838 199.850,370.926 201.200,371.015 201.200 C 371.104 201.200,372.002 201.782,373.011 202.493 L 374.846 203.787 373.723 204.258 C 373.105 204.517,370.980 205.095,369.000 205.542 C 367.020 205.989,363.372 206.839,360.893 207.431 L 356.386 208.507 353.093 207.195 C 351.282 206.473,349.080 205.650,348.200 205.365 C 345.810 204.592,340.347 202.481,340.102 202.235 C 339.984 202.118,340.120 199.750,340.403 196.975 C 341.141 189.732,340.344 179.956,339.013 179.935 C 338.800 179.932,338.148 181.107,337.565 182.547 C 335.060 188.732,328.117 197.473,326.028 197.073 C 324.838 196.845,321.962 195.824,320.140 194.982 C 319.446 194.662,318.704 194.400,318.490 194.400 C 318.277 194.400,317.314 194.067,316.351 193.660 C 315.388 193.253,313.747 192.608,312.704 192.228 C 310.385 191.383,310.926 192.450,305.393 177.800 C 304.645 175.820,303.206 172.040,302.194 169.400 C 301.183 166.760,299.825 163.160,299.178 161.400 C 298.531 159.640,297.811 157.873,297.580 157.472 C 297.183 156.787,299.287 152.923,304.186 145.339 C 304.634 144.646,305.866 142.666,306.925 140.939 C 307.983 139.213,310.543 135.100,312.613 131.800 C 314.683 128.500,317.021 124.720,317.810 123.400 C 318.599 122.080,320.090 119.634,321.122 117.965 C 322.155 116.295,325.154 111.435,327.786 107.165 C 330.418 102.894,332.938 98.828,333.386 98.130 C 334.230 96.812,334.627 96.173,340.783 86.200 C 342.820 82.900,344.738 79.801,345.044 79.313 C 345.976 77.830,349.139 81.154,352.455 87.099 L 353.935 89.752 354.268 88.176 C 355.081 84.319,354.390 75.706,352.772 69.540 C 352.303 67.754,352.333 67.602,353.520 65.740 C 354.201 64.673,355.382 62.720,356.146 61.400 C 357.921 58.330,357.852 58.393,365.288 52.979 C 373.144 47.259,372.265 47.213,373.417 53.400 C 373.745 55.160,374.222 57.698,374.477 59.040 C 374.957 61.559,374.737 62.580,372.589 67.800 C 372.318 68.460,370.625 73.140,368.827 78.200 C 367.029 83.260,365.207 88.303,364.779 89.408 C 364.350 90.512,364.000 91.565,364.000 91.747 C 364.000 91.930,363.753 92.646,363.452 93.340 C 362.515 95.491,354.797 116.977,354.808 117.400 C 354.814 117.620,355.552 116.180,356.449 114.200 C 357.345 112.220,358.871 108.920,359.839 106.868 C 360.808 104.815,361.600 103.078,361.600 103.008 C 361.600 102.939,362.605 100.749,363.834 98.141 C 365.063 95.533,366.895 91.645,367.906 89.500 C 368.917 87.355,369.879 85.600,370.045 85.600 C 370.576 85.600,373.068 88.919,374.537 91.584 C 375.395 93.140,376.036 93.935,376.149 93.584 C 376.786 91.611,376.751 89.143,375.993 82.634 C 375.031 74.366,374.857 75.434,378.187 69.213 C 380.456 64.975,380.625 66.244,376.381 55.642 C 372.108 44.968,372.770 45.788,369.800 47.497 M386.520 64.000 C 386.520 65.210,386.595 65.705,386.687 65.100 C 386.778 64.495,386.778 63.505,386.687 62.900 C 386.595 62.295,386.520 62.790,386.520 64.000 M239.500 91.882 C 239.995 91.978,240.805 91.978,241.300 91.882 C 241.795 91.787,241.390 91.709,240.400 91.709 C 239.410 91.709,239.005 91.787,239.500 91.882 M233.107 92.290 C 233.826 92.379,234.906 92.377,235.507 92.286 C 236.108 92.195,235.520 92.122,234.200 92.124 C 232.880 92.126,232.388 92.201,233.107 92.290 M231.000 100.274 C 230.560 100.373,229.660 100.698,229.000 100.996 C 228.340 101.294,227.286 101.667,226.657 101.823 C 223.300 102.660,206.684 112.448,208.141 112.731 C 208.548 112.810,209.628 112.690,210.541 112.464 C 211.453 112.239,214.945 111.927,218.300 111.771 C 221.655 111.616,224.400 111.338,224.400 111.154 C 224.400 110.556,222.074 109.600,220.620 109.600 C 219.839 109.600,219.200 109.435,219.200 109.234 C 219.200 108.805,228.788 104.000,229.643 104.000 C 229.962 104.000,230.556 103.595,230.964 103.100 C 231.372 102.605,232.166 101.705,232.728 101.100 L 233.750 100.000 232.775 100.046 C 232.239 100.072,231.440 100.174,231.000 100.274 M145.591 130.300 L 142.200 133.800 145.700 130.409 C 148.951 127.259,149.382 126.800,149.091 126.800 C 149.031 126.800,147.456 128.375,145.591 130.300 M308.800 129.848 C 308.800 130.057,306.477 134.122,303.956 138.326 C 302.809 140.238,296.723 150.525,295.155 153.200 L 293.632 155.800 299.835 172.752 C 306.577 191.177,307.151 193.441,303.236 186.165 C 299.203 178.669,298.709 177.758,295.256 171.472 C 293.465 168.211,292.000 165.480,292.000 165.403 C 292.000 165.326,291.145 163.764,290.100 161.932 C 289.055 160.099,287.896 157.942,287.525 157.138 L 286.849 155.677 290.925 150.676 C 297.983 142.016,303.746 135.029,304.515 134.200 C 304.923 133.760,305.911 132.545,306.711 131.500 C 308.023 129.785,308.800 129.171,308.800 129.848 M378.537 187.000 C 378.539 188.760,378.609 189.430,378.693 188.489 C 378.778 187.549,378.777 186.109,378.691 185.289 C 378.605 184.470,378.536 185.240,378.537 187.000 M58.320 233.533 C 45.186 244.020,34.233 252.807,33.980 253.060 C 32.836 254.205,38.146 260.289,43.000 263.395 C 48.525 266.930,56.474 269.663,64.400 270.751 C 67.705 271.205,67.689 271.248,65.228 268.554 C 62.835 265.937,59.740 261.341,59.113 259.477 C 58.877 258.775,58.485 257.947,58.242 257.639 C 57.682 256.928,57.660 251.382,58.215 250.826 C 58.502 250.539,59.070 250.710,60.059 251.382 C 64.008 254.065,68.957 256.134,73.999 257.210 C 77.973 258.058,77.840 258.112,77.224 255.914 C 74.403 245.848,74.939 230.421,78.366 223.000 C 79.874 219.735,81.334 216.800,81.999 215.700 C 83.253 213.623,83.325 213.568,58.320 233.533 M282.305 245.883 C 282.802 245.979,283.522 245.975,283.905 245.875 C 284.287 245.775,283.880 245.696,283.000 245.701 C 282.120 245.705,281.807 245.787,282.305 245.883 M289.315 246.296 C 290.588 246.376,292.568 246.375,293.715 246.294 C 294.862 246.214,293.820 246.149,291.400 246.150 C 288.980 246.151,288.042 246.216,289.315 246.296 M299.700 246.691 C 300.525 246.778,301.875 246.778,302.700 246.691 C 303.525 246.605,302.850 246.534,301.200 246.534 C 299.550 246.534,298.875 246.605,299.700 246.691 M312.905 247.087 C 313.514 247.179,314.414 247.177,314.905 247.082 C 315.397 246.987,314.900 246.911,313.800 246.914 C 312.700 246.917,312.297 246.995,312.905 247.087 M326.700 247.482 C 327.195 247.578,328.005 247.578,328.500 247.482 C 328.995 247.387,328.590 247.309,327.600 247.309 C 326.610 247.309,326.205 247.387,326.700 247.482 M332.100 247.896 C 333.365 247.975,335.435 247.975,336.700 247.896 C 337.965 247.816,336.930 247.751,334.400 247.751 C 331.870 247.751,330.835 247.816,332.100 247.896 M109.300 283.476 C 109.685 283.576,110.315 283.576,110.700 283.476 C 111.085 283.375,110.770 283.293,110.000 283.293 C 109.230 283.293,108.915 283.375,109.300 283.476 M250.400 291.400 C 251.146 292.170,251.847 292.800,251.957 292.800 C 252.067 292.800,251.546 292.170,250.800 291.400 C 250.054 290.630,249.353 290.000,249.243 290.000 C 249.133 290.000,249.654 290.630,250.400 291.400 M257.200 298.200 C 257.946 298.970,258.647 299.600,258.757 299.600 C 258.867 299.600,258.346 298.970,257.600 298.200 C 256.854 297.430,256.153 296.800,256.043 296.800 C 255.933 296.800,256.454 297.430,257.200 298.200 M278.400 309.582 C 278.730 309.805,279.345 309.991,279.767 309.994 C 280.790 310.002,280.471 309.773,279.000 309.444 C 278.124 309.248,277.962 309.285,278.400 309.582 M233.709 314.000 C 233.709 314.990,233.787 315.395,233.882 314.900 C 233.978 314.405,233.978 313.595,233.882 313.100 C 233.787 312.605,233.709 313.010,233.709 314.000 M233.350 321.000 C 233.351 323.420,233.416 324.358,233.496 323.085 C 233.576 321.812,233.575 319.832,233.494 318.685 C 233.414 317.538,233.349 318.580,233.350 321.000 M233.701 327.800 C 233.705 328.680,233.787 328.993,233.883 328.495 C 233.979 327.998,233.975 327.278,233.875 326.895 C 233.775 326.513,233.696 326.920,233.701 327.800 M224.200 356.400 C 225.283 357.500,226.260 358.400,226.370 358.400 C 226.480 358.400,225.683 357.500,224.600 356.400 C 223.517 355.300,222.540 354.400,222.430 354.400 C 222.320 354.400,223.117 355.300,224.200 356.400 M152.400 369.725 C 152.400 369.794,152.985 370.379,153.700 371.025 L 155.000 372.200 153.825 370.900 C 152.730 369.688,152.400 369.416,152.400 369.725 " stroke="none" fill="#e3d3b3" fill-rule="evenodd"></path><path id="path3" d="M352.500 0.663 C 351.125 0.989,350.000 1.423,350.000 1.628 C 350.000 1.832,349.738 2.000,349.418 2.000 C 349.098 2.000,348.153 2.453,347.318 3.007 C 346.483 3.561,345.459 4.236,345.043 4.507 C 344.627 4.778,343.835 5.405,343.285 5.900 C 342.734 6.395,342.156 6.800,342.000 6.800 C 341.844 6.800,341.258 7.205,340.697 7.700 C 340.136 8.195,339.205 8.960,338.629 9.400 C 338.052 9.840,337.359 10.384,337.090 10.609 C 336.820 10.835,335.385 11.904,333.900 12.987 C 332.415 14.069,331.200 15.104,331.200 15.287 C 331.200 15.470,330.750 15.791,330.200 16.000 C 329.650 16.209,329.200 16.536,329.200 16.726 C 329.200 16.916,328.713 17.294,328.117 17.565 C 327.522 17.836,326.792 18.405,326.495 18.829 C 326.198 19.253,325.710 19.600,325.411 19.600 C 325.111 19.600,324.807 19.735,324.733 19.900 C 324.583 20.238,322.719 21.795,321.022 23.000 C 320.403 23.440,319.478 24.160,318.967 24.600 C 318.456 25.040,317.575 25.760,317.009 26.200 C 316.443 26.640,315.759 27.183,315.490 27.406 C 315.220 27.629,313.695 28.771,312.100 29.944 C 310.505 31.116,309.200 32.239,309.200 32.438 C 309.200 32.637,308.975 32.802,308.700 32.805 C 308.154 32.811,306.410 34.082,305.002 35.500 C 304.510 35.995,303.949 36.404,303.754 36.409 C 303.559 36.414,302.754 36.999,301.964 37.709 C 301.174 38.419,300.022 39.360,299.403 39.800 C 298.784 40.240,297.946 40.915,297.539 41.300 C 297.133 41.685,296.622 42.000,296.403 42.000 C 296.185 42.000,295.782 42.360,295.507 42.800 C 295.232 43.240,294.800 43.600,294.546 43.600 C 294.292 43.600,293.660 44.047,293.142 44.593 C 292.624 45.139,292.035 45.589,291.834 45.593 C 291.445 45.600,291.109 45.873,288.660 48.161 C 287.813 48.952,287.003 49.600,286.860 49.600 C 286.717 49.601,286.060 50.043,285.400 50.583 C 284.740 51.124,283.778 51.889,283.261 52.283 C 282.745 52.677,281.864 53.405,281.303 53.900 C 280.742 54.395,280.156 54.800,280.000 54.800 C 279.844 54.800,279.196 55.255,278.558 55.811 C 277.921 56.368,277.220 56.957,277.000 57.121 C 275.436 58.290,271.310 61.450,270.910 61.788 C 270.410 62.208,269.821 62.662,267.000 64.800 C 264.255 66.880,263.595 67.387,263.090 67.806 C 262.665 68.158,260.069 70.176,258.472 71.396 C 258.181 71.618,257.646 72.115,257.283 72.500 C 256.920 72.885,256.463 73.200,256.267 73.200 C 256.072 73.200,255.527 73.560,255.056 74.000 C 254.260 74.743,247.224 80.206,244.925 81.866 C 243.902 82.604,243.212 83.155,241.000 84.999 C 239.910 85.907,239.460 85.999,236.095 86.000 C 234.057 86.000,232.077 86.163,231.695 86.363 C 231.313 86.563,228.217 86.932,224.816 87.184 C 221.414 87.436,218.444 87.785,218.216 87.960 C 217.987 88.135,215.953 88.506,213.695 88.785 C 211.438 89.063,209.506 89.428,209.403 89.596 C 209.299 89.763,207.771 90.124,206.007 90.399 C 204.243 90.673,202.800 91.025,202.800 91.180 C 202.800 91.335,201.589 91.685,200.109 91.958 C 198.629 92.230,197.234 92.598,197.009 92.774 C 196.784 92.951,195.654 93.317,194.499 93.588 C 193.343 93.859,192.297 94.242,192.175 94.440 C 192.053 94.638,191.684 94.800,191.354 94.800 C 191.025 94.800,190.001 95.140,189.078 95.555 C 188.155 95.970,186.815 96.434,186.100 96.586 C 185.385 96.739,184.800 97.006,184.800 97.180 C 184.800 97.354,183.990 97.723,183.000 98.000 C 182.010 98.277,181.200 98.641,181.200 98.809 C 181.200 98.976,180.705 99.233,180.100 99.379 C 178.666 99.725,171.600 103.257,171.600 103.628 C 171.600 103.785,171.119 104.034,170.532 104.181 C 169.944 104.329,169.020 104.798,168.478 105.225 C 167.936 105.651,167.246 106.000,166.946 106.000 C 166.646 106.000,166.400 106.158,166.400 106.351 C 166.400 106.545,165.860 106.927,165.200 107.200 C 164.540 107.473,164.000 107.855,164.000 108.049 C 164.000 108.242,163.792 108.400,163.538 108.400 C 163.284 108.400,162.519 108.818,161.838 109.329 C 161.157 109.841,160.285 110.375,159.900 110.517 C 159.515 110.659,159.200 110.961,159.200 111.187 C 159.200 111.414,158.975 111.600,158.700 111.600 C 158.242 111.601,156.869 112.581,155.100 114.171 C 154.715 114.517,154.294 114.800,154.164 114.800 C 153.833 114.800,149.470 118.491,149.080 119.100 C 148.904 119.375,148.562 119.600,148.320 119.600 C 148.078 119.600,144.892 122.631,141.240 126.334 C 134.362 133.310,132.603 135.256,129.600 139.210 C 129.050 139.934,128.375 140.755,128.100 141.035 C 127.825 141.314,127.600 141.644,127.600 141.767 C 127.600 141.890,126.790 143.056,125.800 144.358 C 124.810 145.660,124.000 146.902,124.000 147.120 C 124.000 147.337,123.730 147.618,123.400 147.745 C 123.070 147.871,122.800 148.153,122.800 148.370 C 122.800 148.710,121.449 150.965,120.506 152.200 C 120.338 152.420,119.955 153.075,119.656 153.656 C 119.357 154.237,118.645 154.925,118.073 155.185 C 117.502 155.445,116.792 156.005,116.495 156.429 C 116.198 156.853,115.779 157.200,115.564 157.200 C 115.349 157.200,114.645 157.740,114.000 158.400 C 113.355 159.060,112.665 159.600,112.468 159.600 C 112.271 159.600,111.680 160.019,111.155 160.531 C 110.630 161.043,109.210 162.233,108.000 163.175 C 106.790 164.118,105.656 165.139,105.480 165.444 C 105.304 165.750,104.908 166.000,104.600 166.000 C 104.292 166.000,103.896 166.226,103.720 166.502 C 103.544 166.779,102.680 167.530,101.800 168.173 C 100.185 169.352,99.662 169.773,98.193 171.081 C 97.749 171.477,96.579 172.427,95.593 173.194 C 94.607 173.961,93.589 174.771,93.332 174.994 C 93.075 175.217,92.390 175.760,91.810 176.200 C 91.230 176.640,90.121 177.585,89.344 178.300 C 88.567 179.015,87.807 179.600,87.655 179.600 C 87.503 179.600,86.753 180.144,85.989 180.809 C 85.225 181.475,84.402 182.177,84.159 182.370 C 83.917 182.563,82.225 183.926,80.400 185.400 C 78.575 186.874,76.821 188.286,76.503 188.540 C 76.185 188.793,75.516 189.405,75.016 189.900 C 74.517 190.395,73.913 190.800,73.674 190.800 C 73.435 190.800,73.096 191.026,72.920 191.302 C 72.744 191.579,71.880 192.330,71.000 192.972 C 70.120 193.613,69.092 194.422,68.716 194.769 C 68.339 195.116,67.543 195.760,66.947 196.200 C 66.350 196.640,65.245 197.585,64.491 198.300 C 63.737 199.015,62.998 199.600,62.849 199.600 C 62.613 199.600,61.942 200.140,59.200 202.535 C 58.870 202.823,57.886 203.586,57.013 204.230 C 56.140 204.873,55.131 205.670,54.769 206.000 C 54.408 206.330,53.421 207.140,52.577 207.800 C 51.732 208.460,50.652 209.405,50.175 209.900 C 49.698 210.395,49.113 210.800,48.874 210.800 C 48.635 210.800,48.296 211.026,48.120 211.302 C 47.944 211.579,47.080 212.330,46.200 212.973 C 45.320 213.615,44.330 214.376,44.000 214.663 C 43.670 214.950,42.879 215.638,42.242 216.192 C 41.604 216.747,40.974 217.205,40.842 217.211 C 40.709 217.217,39.839 217.892,38.909 218.711 C 37.979 219.530,36.744 220.560,36.165 221.000 C 35.585 221.440,34.486 222.385,33.721 223.100 C 32.957 223.815,32.207 224.400,32.055 224.400 C 31.903 224.400,31.153 224.942,30.389 225.605 C 29.625 226.268,28.730 227.045,28.400 227.331 C 28.070 227.616,26.639 228.739,25.221 229.825 C 23.802 230.911,22.349 232.070,21.992 232.400 C 21.635 232.730,20.655 233.540,19.815 234.200 C 18.975 234.860,17.992 235.670,17.631 236.000 C 17.269 236.330,16.260 237.126,15.387 237.769 C 14.514 238.412,13.492 239.222,13.116 239.569 C 12.739 239.916,12.019 240.510,11.516 240.890 C 8.837 242.907,5.761 245.461,5.480 245.900 C 5.304 246.175,4.965 246.400,4.726 246.400 C 4.487 246.400,3.893 246.805,3.405 247.300 C 2.918 247.795,1.952 248.625,1.260 249.145 C -0.636 250.567,0.179 254.313,3.074 257.485 C 3.334 257.771,3.662 258.364,3.801 258.802 C 3.940 259.241,4.210 259.600,4.400 259.600 C 4.590 259.600,4.854 259.940,4.986 260.355 C 5.118 260.771,5.675 261.626,6.224 262.255 C 6.773 262.885,7.358 263.580,7.522 263.800 C 10.144 267.301,17.197 274.652,19.983 276.787 C 20.691 277.330,21.750 278.190,22.336 278.698 C 23.896 280.053,24.152 280.240,25.225 280.804 C 25.761 281.086,26.344 281.561,26.520 281.858 C 26.696 282.156,27.101 282.400,27.420 282.400 C 27.739 282.400,28.000 282.570,28.000 282.778 C 28.000 282.986,28.438 283.391,28.973 283.678 C 29.509 283.965,31.113 284.875,32.538 285.700 C 33.964 286.525,35.326 287.200,35.565 287.200 C 35.804 287.200,36.000 287.351,36.000 287.536 C 36.000 287.721,36.720 288.110,37.600 288.400 C 38.480 288.690,39.200 289.065,39.200 289.232 C 39.200 289.400,39.785 289.658,40.500 289.807 C 41.215 289.957,42.188 290.324,42.663 290.624 C 43.137 290.924,44.397 291.383,45.463 291.643 C 46.528 291.903,47.580 292.253,47.800 292.422 C 48.020 292.590,48.920 292.860,49.800 293.022 C 50.680 293.183,51.495 293.461,51.612 293.639 C 51.728 293.816,53.528 294.166,55.612 294.416 C 57.695 294.666,59.732 295.046,60.138 295.262 C 61.091 295.768,77.473 295.796,78.116 295.292 C 78.382 295.084,80.580 294.687,83.000 294.412 C 85.420 294.136,87.580 293.770,87.800 293.600 C 88.020 293.429,89.370 293.159,90.800 293.000 C 92.230 292.841,93.580 292.571,93.800 292.400 C 94.020 292.230,96.135 291.863,98.500 291.587 C 100.865 291.310,102.800 290.930,102.800 290.742 C 102.800 290.554,103.660 290.400,104.712 290.400 L 106.623 290.400 107.142 293.695 C 107.427 295.508,107.797 297.173,107.964 297.395 C 108.131 297.618,108.498 298.880,108.778 300.200 C 109.059 301.520,109.422 302.780,109.585 303.000 C 109.747 303.220,110.112 304.525,110.395 305.900 C 110.678 307.275,111.036 308.400,111.191 308.400 C 111.346 308.400,111.694 309.387,111.964 310.593 C 112.233 311.799,112.622 312.890,112.827 313.017 C 113.032 313.144,113.200 313.516,113.200 313.846 C 113.200 314.175,113.540 315.199,113.955 316.122 C 114.370 317.045,114.834 318.385,114.986 319.100 C 115.139 319.815,115.390 320.400,115.544 320.400 C 115.699 320.400,116.074 321.255,116.378 322.300 C 116.682 323.345,117.036 324.290,117.165 324.400 C 117.452 324.644,119.118 328.513,119.706 330.300 C 119.942 331.015,120.284 331.600,120.467 331.600 C 120.650 331.600,120.800 331.795,120.800 332.034 C 120.800 332.518,123.262 337.686,123.642 338.000 C 123.775 338.110,124.100 338.863,124.365 339.674 C 124.629 340.485,124.970 341.205,125.122 341.274 C 125.275 341.343,125.940 342.434,126.600 343.699 C 127.260 344.963,127.899 345.998,128.020 345.999 C 128.140 345.999,128.467 346.630,128.746 347.400 C 129.024 348.170,129.401 348.800,129.583 348.800 C 129.764 348.800,130.023 349.237,130.157 349.772 C 130.291 350.307,130.648 350.990,130.949 351.292 C 131.250 351.593,131.792 352.370,132.153 353.020 C 133.142 354.796,133.596 355.483,136.096 358.984 C 140.130 364.634,142.347 367.528,144.800 370.347 C 145.130 370.726,146.259 372.052,147.309 373.293 C 150.049 376.531,159.636 386.000,160.175 386.000 C 160.312 386.000,161.003 386.630,161.710 387.400 C 162.416 388.170,163.155 388.800,163.351 388.800 C 163.548 388.800,164.110 389.205,164.602 389.700 C 165.790 390.897,167.726 392.388,168.100 392.395 C 168.265 392.398,168.747 392.715,169.171 393.100 C 170.442 394.253,171.001 394.666,172.025 395.206 C 172.561 395.488,173.090 395.834,173.200 395.974 C 173.532 396.395,177.802 399.127,178.938 399.645 C 179.522 399.911,180.000 400.265,180.000 400.432 C 180.000 400.600,180.542 400.855,181.204 401.001 C 181.866 401.146,182.652 401.510,182.951 401.808 C 183.584 402.442,188.462 404.800,189.139 404.800 C 189.392 404.800,189.600 404.957,189.600 405.148 C 189.600 405.339,190.410 405.723,191.400 406.000 C 192.390 406.277,193.200 406.628,193.200 406.780 C 193.200 406.931,194.100 407.300,195.200 407.600 C 196.300 407.900,197.200 408.278,197.200 408.441 C 197.200 408.603,197.785 408.862,198.500 409.014 C 199.215 409.167,199.980 409.435,200.200 409.609 C 200.613 409.936,203.462 410.780,208.000 411.920 C 209.430 412.279,210.690 412.689,210.800 412.831 C 211.084 413.199,219.961 414.573,220.241 414.293 C 220.368 414.165,220.195 413.552,219.857 412.930 C 219.518 412.309,218.916 411.170,218.520 410.400 C 218.124 409.630,217.665 408.940,217.500 408.867 C 217.335 408.793,217.200 408.491,217.200 408.195 C 217.200 407.899,216.957 407.414,216.660 407.118 C 216.364 406.821,215.900 405.908,215.629 405.089 C 215.359 404.270,215.000 403.600,214.832 403.600 C 214.664 403.600,214.311 402.880,214.047 402.000 C 213.784 401.120,213.419 400.400,213.236 400.400 C 213.053 400.400,212.677 399.590,212.400 398.600 C 212.123 397.610,211.753 396.800,211.579 396.800 C 211.405 396.800,211.045 396.125,210.779 395.300 C 210.513 394.475,210.163 393.620,210.000 393.400 C 209.837 393.180,209.487 392.325,209.221 391.500 C 208.955 390.675,208.594 390.000,208.419 390.000 C 208.244 390.000,207.992 389.460,207.860 388.800 C 207.643 387.717,207.117 386.392,205.371 382.540 C 205.057 381.846,204.800 381.064,204.800 380.800 C 204.800 380.536,204.546 379.754,204.234 379.060 C 203.923 378.367,203.450 377.080,203.182 376.200 C 202.915 375.320,202.566 374.420,202.408 374.200 C 202.249 373.980,201.888 372.675,201.605 371.300 C 201.322 369.925,200.968 368.800,200.819 368.800 C 200.669 368.800,200.310 367.585,200.021 366.100 C 199.732 364.615,199.355 363.220,199.183 363.000 C 199.011 362.780,198.643 361.115,198.366 359.300 C 198.089 357.485,197.740 356.000,197.591 356.000 C 197.442 356.000,197.087 353.795,196.803 351.100 C 196.519 348.405,196.148 346.020,195.979 345.800 C 195.501 345.178,195.153 332.261,195.494 327.832 C 195.805 323.793,196.478 322.425,196.995 324.779 C 197.143 325.450,197.410 326.000,197.588 326.000 C 197.767 326.000,198.031 326.495,198.176 327.100 C 198.320 327.705,199.555 330.416,200.919 333.124 C 204.413 340.058,204.887 340.932,205.477 341.528 C 205.764 341.818,206.109 342.493,206.243 343.028 C 206.377 343.563,206.602 344.003,206.743 344.008 C 206.885 344.012,207.540 344.934,208.200 346.057 C 208.860 347.179,209.715 348.386,210.100 348.738 C 210.485 349.090,210.800 349.613,210.800 349.901 C 210.800 350.189,211.063 350.526,211.385 350.650 C 211.706 350.773,212.072 351.197,212.198 351.592 C 212.323 351.988,212.825 352.760,213.313 353.309 C 213.801 353.858,214.830 355.066,215.600 355.993 C 218.145 359.058,222.748 363.546,226.285 366.411 C 226.552 366.627,227.227 367.012,227.785 367.266 C 228.343 367.520,228.800 367.867,228.800 368.037 C 228.800 368.207,229.159 368.460,229.598 368.599 C 230.036 368.738,230.621 369.066,230.898 369.326 C 231.688 370.071,235.735 371.967,237.133 372.247 C 237.830 372.386,238.400 372.637,238.400 372.805 C 238.400 372.973,239.075 373.237,239.900 373.391 C 240.725 373.545,241.593 373.831,241.829 374.026 C 243.045 375.030,255.471 375.418,258.500 374.547 C 259.407 374.287,259.397 372.997,258.481 372.081 C 258.086 371.686,257.156 370.426,256.414 369.281 C 255.672 368.137,254.916 367.200,254.733 367.200 C 254.550 367.200,254.400 366.992,254.400 366.738 C 254.400 366.484,253.950 365.686,253.400 364.964 C 252.850 364.243,252.400 363.497,252.400 363.307 C 252.400 363.116,252.183 362.743,251.918 362.478 C 250.836 361.396,246.663 353.389,246.182 351.471 C 246.034 350.882,245.773 350.400,245.601 350.400 C 245.429 350.400,245.178 349.815,245.042 349.100 C 244.907 348.385,244.551 347.331,244.252 346.758 C 243.952 346.185,243.480 344.745,243.201 343.558 C 242.923 342.371,242.551 341.217,242.375 340.993 C 242.200 340.768,241.851 339.328,241.602 337.793 C 241.352 336.257,240.987 334.640,240.790 334.200 C 239.349 330.977,239.347 306.877,240.788 305.000 C 240.957 304.780,241.331 303.115,241.620 301.300 C 241.908 299.485,242.267 298.000,242.417 298.000 C 242.568 298.000,242.920 296.920,243.200 295.600 C 243.637 293.541,244.400 292.292,244.400 293.636 C 244.400 294.548,250.260 300.913,252.400 302.326 C 252.950 302.689,253.635 303.304,253.923 303.693 C 254.210 304.082,254.604 304.400,254.798 304.400 C 254.992 304.400,255.747 304.947,256.475 305.615 C 257.204 306.283,258.205 306.932,258.700 307.058 C 259.195 307.184,259.600 307.457,259.600 307.664 C 259.600 307.872,260.140 308.230,260.800 308.460 C 261.460 308.690,262.000 309.029,262.000 309.213 C 262.000 309.397,262.630 309.776,263.400 310.054 C 264.170 310.333,264.800 310.685,264.800 310.837 C 264.800 310.989,265.289 311.236,265.886 311.386 C 266.483 311.536,267.705 311.992,268.600 312.400 C 269.495 312.808,270.762 313.270,271.414 313.426 C 272.066 313.582,272.780 313.849,273.000 314.018 C 273.220 314.187,274.570 314.548,276.000 314.820 C 277.430 315.092,278.799 315.469,279.041 315.658 C 279.284 315.846,281.135 316.118,283.155 316.261 C 285.175 316.404,286.922 316.674,287.038 316.861 C 287.338 317.348,297.502 317.281,298.426 316.786 C 299.388 316.271,299.415 315.417,298.500 314.492 C 298.115 314.103,296.951 312.618,295.913 311.192 C 294.875 309.767,293.865 308.409,293.667 308.175 C 293.470 307.941,293.077 307.311,292.794 306.775 C 292.512 306.239,292.155 305.710,292.002 305.600 C 291.686 305.373,291.219 304.521,289.100 300.302 C 288.275 298.660,287.600 297.110,287.600 296.858 C 287.600 296.606,287.420 296.400,287.200 296.400 C 286.980 296.400,286.800 296.135,286.800 295.812 C 286.800 295.488,286.350 294.240,285.800 293.037 C 285.250 291.835,284.799 290.615,284.798 290.326 C 284.796 290.037,284.543 289.317,284.235 288.727 C 283.927 288.137,283.558 287.057,283.414 286.327 C 283.271 285.597,282.995 284.640,282.801 284.200 C 282.317 283.103,281.600 279.410,281.600 278.014 C 281.600 277.383,281.380 276.793,281.111 276.704 C 280.443 276.481,280.386 258.389,281.051 257.562 C 281.298 257.253,281.626 255.965,281.779 254.700 L 282.058 252.400 284.729 252.393 C 292.966 252.373,324.323 253.325,325.000 253.616 C 326.377 254.208,346.501 254.286,346.698 253.700 C 346.791 253.425,347.167 253.198,347.533 253.196 C 347.900 253.194,349.100 252.750,350.200 252.209 C 351.300 251.668,352.353 251.219,352.540 251.213 C 352.726 251.206,353.446 250.946,354.140 250.635 C 354.833 250.324,356.570 249.566,358.000 248.951 C 359.430 248.335,360.690 247.717,360.800 247.577 C 360.910 247.438,361.537 247.191,362.194 247.030 C 362.850 246.869,364.341 246.302,365.506 245.769 C 366.671 245.236,367.888 244.800,368.212 244.800 C 368.535 244.800,368.800 244.637,368.800 244.437 C 368.800 244.237,369.700 243.843,370.800 243.561 C 371.900 243.279,372.800 242.926,372.800 242.776 C 372.800 242.627,373.610 242.277,374.600 242.000 C 375.590 241.723,376.400 241.383,376.400 241.246 C 376.400 241.108,376.903 240.772,377.519 240.500 C 378.213 240.193,378.830 239.472,379.145 238.602 C 379.424 237.831,379.792 237.200,379.963 237.200 C 380.134 237.200,380.489 236.480,380.753 235.600 C 381.016 234.720,381.383 234.000,381.568 234.000 C 381.752 234.000,382.140 233.415,382.429 232.700 C 382.718 231.985,383.055 231.310,383.177 231.200 C 383.409 230.992,384.026 229.869,386.144 225.800 C 386.832 224.480,387.609 223.174,387.871 222.898 C 388.133 222.621,388.474 221.991,388.628 221.498 C 388.782 221.004,389.019 220.510,389.154 220.400 C 389.289 220.290,390.030 218.946,390.800 217.412 C 391.570 215.879,392.425 214.381,392.700 214.084 C 392.975 213.786,393.200 213.299,393.200 213.000 C 393.200 212.701,393.432 212.219,393.715 211.929 C 394.191 211.440,394.738 210.464,397.265 205.600 C 397.779 204.610,398.328 203.704,398.484 203.586 C 399.947 202.486,400.315 198.894,399.000 198.564 C 398.450 198.426,398.000 198.153,398.000 197.957 C 398.000 197.760,397.825 197.600,397.612 197.600 C 397.227 197.600,394.458 196.424,390.600 194.622 C 389.500 194.108,387.754 193.296,386.721 192.818 L 384.842 191.949 384.678 186.474 C 384.525 181.337,383.886 176.709,383.203 175.800 C 383.038 175.580,382.666 174.455,382.376 173.300 C 382.086 172.145,381.710 171.200,381.540 171.200 C 381.371 171.200,381.016 170.480,380.753 169.600 C 380.489 168.720,380.134 168.000,379.964 168.000 C 379.793 168.000,379.534 167.621,379.387 167.159 C 379.240 166.696,378.685 165.661,378.153 164.859 C 377.621 164.056,376.964 163.057,376.693 162.637 C 374.658 159.486,365.764 150.806,364.564 150.802 C 364.290 150.801,363.956 153.042,363.660 156.864 C 363.403 160.199,363.038 163.124,362.849 163.364 C 362.660 163.604,362.281 165.015,362.007 166.500 C 361.734 167.985,361.373 169.200,361.207 169.200 C 361.040 169.200,360.677 170.010,360.400 171.000 C 360.123 171.990,359.739 172.800,359.548 172.800 C 359.357 172.800,359.200 173.035,359.200 173.322 C 359.200 173.610,358.795 174.403,358.300 175.085 C 357.805 175.767,357.135 176.702,356.812 177.163 C 355.978 178.350,354.956 178.200,354.336 176.800 C 354.044 176.140,353.689 175.600,353.547 175.600 C 353.405 175.600,353.166 174.925,353.015 174.100 C 352.864 173.275,352.513 172.240,352.234 171.800 C 351.955 171.360,351.595 170.466,351.434 169.814 C 351.273 169.162,350.795 167.866,350.371 166.936 C 349.947 166.005,349.600 164.975,349.600 164.646 C 349.600 164.316,349.420 163.936,349.200 163.800 C 348.684 163.481,348.678 162.000,349.192 162.000 C 349.408 162.000,349.698 161.550,349.836 161.000 C 349.974 160.450,350.247 160.000,350.443 160.000 C 350.640 160.000,350.800 159.820,350.800 159.601 C 350.800 159.245,351.435 157.792,354.045 152.174 C 354.460 151.279,354.800 150.334,354.800 150.074 C 354.800 149.813,354.973 149.600,355.184 149.600 C 355.395 149.600,355.784 148.880,356.047 148.000 C 356.311 147.120,356.649 146.400,356.799 146.400 C 356.949 146.400,357.310 145.680,357.600 144.800 C 357.890 143.920,358.256 143.200,358.412 143.200 C 358.568 143.200,358.923 142.390,359.200 141.400 C 359.477 140.410,359.846 139.600,360.020 139.600 C 360.194 139.600,360.455 139.060,360.600 138.400 C 360.745 137.740,361.022 137.200,361.216 137.200 C 361.409 137.200,361.784 136.480,362.047 135.600 C 362.311 134.720,362.649 134.000,362.799 134.000 C 362.949 134.000,363.310 133.280,363.600 132.400 C 363.890 131.520,364.256 130.800,364.412 130.800 C 364.568 130.800,364.923 129.990,365.200 129.000 C 365.477 128.010,365.832 127.200,365.989 127.200 C 366.145 127.200,366.489 126.480,366.753 125.600 C 367.016 124.720,367.381 124.000,367.564 124.000 C 367.747 124.000,368.123 123.190,368.400 122.200 C 368.677 121.210,369.053 120.400,369.236 120.400 C 369.419 120.400,369.784 119.680,370.047 118.800 C 370.311 117.920,370.659 117.200,370.820 117.200 C 370.981 117.200,371.226 116.750,371.364 116.200 C 371.802 114.457,372.277 115.107,372.826 118.200 C 373.119 119.850,373.503 121.200,373.680 121.200 C 373.856 121.200,374.000 121.650,374.000 122.200 C 374.000 123.720,375.107 123.429,375.906 121.700 C 376.288 120.875,376.710 120.110,376.844 120.000 C 376.978 119.890,377.329 119.125,377.624 118.300 C 377.919 117.475,378.276 116.800,378.416 116.800 C 378.557 116.800,378.910 116.080,379.200 115.200 C 379.490 114.320,379.850 113.600,380.000 113.600 C 380.150 113.600,380.510 112.880,380.800 112.000 C 381.090 111.120,381.463 110.400,381.627 110.400 C 381.792 110.400,382.157 109.500,382.439 108.400 C 382.721 107.300,383.097 106.400,383.276 106.400 C 383.454 106.400,383.601 106.175,383.602 105.900 C 383.604 105.625,383.866 104.900,384.185 104.289 C 384.503 103.678,384.981 102.058,385.246 100.689 C 385.512 99.320,385.859 98.110,386.019 98.000 C 386.437 97.711,387.200 90.134,387.198 86.284 C 387.197 83.345,387.341 82.706,388.577 80.200 C 390.390 76.524,392.000 72.866,392.000 72.421 C 392.000 72.226,392.224 71.992,392.498 71.901 C 393.057 71.714,392.992 62.138,392.427 61.404 C 392.256 61.182,391.898 55.960,391.632 49.800 C 391.365 43.640,390.994 38.240,390.806 37.800 C 390.619 37.360,390.286 33.060,390.066 28.244 C 389.846 23.428,389.508 19.378,389.314 19.244 C 389.120 19.110,388.738 18.235,388.464 17.300 C 388.191 16.365,387.815 15.600,387.627 15.600 C 387.440 15.600,387.168 15.125,387.022 14.545 C 386.468 12.340,380.514 5.876,378.300 5.078 C 377.915 4.939,377.600 4.668,377.600 4.477 C 377.600 4.285,376.880 3.890,376.000 3.600 C 375.120 3.310,374.400 2.921,374.400 2.736 C 374.400 2.551,374.175 2.399,373.900 2.398 C 373.625 2.396,372.860 2.110,372.200 1.762 C 368.900 0.020,357.820 -0.598,352.500 0.663 M366.600 6.360 C 373.393 8.171,379.538 12.800,382.055 18.000 C 382.534 18.990,383.114 20.160,383.344 20.600 C 383.573 21.040,383.983 24.910,384.255 29.200 C 384.526 33.490,385.139 42.490,385.617 49.200 C 386.095 55.910,386.573 63.255,386.680 65.522 L 386.874 69.643 384.889 73.722 C 381.088 81.533,381.298 80.751,381.064 88.000 C 380.822 95.500,379.758 100.213,377.110 105.509 C 376.360 107.007,375.397 105.562,374.103 101.000 C 373.164 97.690,373.811 96.606,362.399 120.600 C 361.248 123.020,359.267 127.160,357.996 129.800 C 355.787 134.389,353.400 139.374,348.802 149.000 C 347.646 151.420,345.716 155.450,344.514 157.955 C 343.146 160.804,342.404 162.826,342.533 163.355 C 342.793 164.429,347.084 175.933,347.623 177.000 C 347.845 177.440,348.258 178.610,348.541 179.600 C 349.028 181.307,355.172 185.404,357.487 185.566 C 359.329 185.695,366.959 172.814,368.193 167.491 C 369.281 162.801,369.214 162.837,371.475 165.731 C 376.939 172.728,379.522 182.124,378.432 191.042 C 377.909 195.325,378.143 196.319,379.690 196.387 C 380.267 196.413,392.000 201.901,392.000 202.146 C 392.000 202.386,386.117 213.151,383.953 216.870 C 383.099 218.338,382.400 219.634,382.400 219.748 C 382.400 219.863,381.795 221.002,381.055 222.279 C 380.316 223.555,378.960 226.013,378.043 227.739 C 375.132 233.219,373.442 236.000,373.015 236.014 C 372.787 236.021,371.880 236.375,371.000 236.800 C 370.120 237.225,369.240 237.579,369.044 237.586 C 368.848 237.594,367.903 237.960,366.944 238.400 C 365.985 238.840,364.415 239.560,363.456 240.000 C 362.497 240.440,361.579 240.800,361.417 240.800 C 361.254 240.800,360.554 241.057,359.860 241.372 C 359.167 241.687,356.620 242.781,354.200 243.805 C 351.780 244.828,349.233 245.921,348.540 246.233 C 347.846 246.545,347.161 246.800,347.018 246.800 C 346.874 246.800,346.001 247.127,345.078 247.526 C 343.581 248.174,342.668 248.222,336.600 247.976 C 332.860 247.824,321.070 247.413,310.400 247.061 C 299.730 246.710,288.300 246.236,285.000 246.008 C 281.700 245.781,278.700 245.596,278.333 245.597 C 275.952 245.607,273.468 266.182,274.758 275.200 C 276.100 284.572,276.791 287.300,279.823 295.200 C 281.513 299.603,282.732 302.136,285.331 306.639 C 286.359 308.421,287.200 310.045,287.200 310.249 C 287.200 310.803,280.037 310.180,277.846 309.436 C 276.815 309.086,275.781 308.800,275.546 308.800 C 270.915 308.800,250.361 293.890,248.976 289.524 C 248.850 289.126,248.609 288.800,248.440 288.800 C 248.272 288.800,247.529 287.855,246.790 286.700 C 246.050 285.545,245.343 284.510,245.218 284.400 C 245.094 284.290,244.492 283.429,243.881 282.486 C 242.857 280.905,242.019 280.569,241.986 281.724 C 241.979 281.986,241.625 282.920,241.200 283.800 C 240.775 284.680,240.421 285.553,240.414 285.740 C 240.406 285.926,240.151 286.646,239.848 287.340 C 232.907 303.180,231.758 327.632,237.130 345.200 C 238.489 349.645,239.107 351.216,241.532 356.400 C 242.399 358.253,246.888 366.145,247.220 366.400 C 247.526 366.635,248.400 368.245,248.400 368.574 C 248.400 370.442,236.571 366.231,231.692 362.626 C 219.921 353.931,212.302 343.355,202.630 322.285 C 201.844 320.571,201.194 318.951,201.186 318.685 C 201.179 318.418,200.825 317.480,200.400 316.600 C 199.975 315.720,199.621 314.847,199.614 314.660 C 199.606 314.474,199.344 313.754,199.032 313.060 C 198.720 312.367,197.882 310.000,197.171 307.800 C 195.574 302.862,195.618 302.940,195.041 304.070 C 186.783 320.243,187.686 351.202,197.192 377.800 C 197.663 379.120,198.292 380.920,198.590 381.800 C 199.249 383.753,201.812 390.152,202.594 391.800 C 208.263 403.739,208.896 405.224,208.300 405.195 C 207.362 405.151,197.609 401.845,195.400 400.823 C 185.566 396.273,177.067 391.521,173.000 388.299 C 172.780 388.124,171.070 386.803,169.200 385.362 C 159.195 377.654,147.995 365.478,140.539 354.204 C 139.083 352.002,137.585 349.750,137.210 349.200 C 135.756 347.066,130.056 336.821,128.419 333.400 C 125.349 326.985,124.464 325.052,123.198 322.000 C 122.513 320.350,121.788 318.640,121.587 318.200 C 121.386 317.760,120.966 316.680,120.653 315.800 C 120.340 314.920,119.342 312.130,118.434 309.600 C 117.526 307.070,116.525 304.100,116.211 303.000 C 115.896 301.900,115.251 299.740,114.778 298.200 C 113.616 294.417,112.442 290.002,111.666 286.500 C 110.922 283.140,111.190 283.242,105.600 284.200 C 97.766 285.544,89.323 287.062,83.400 288.190 C 60.803 292.496,36.402 284.851,19.373 268.131 C 14.399 263.248,7.200 254.000,7.200 252.494 C 7.200 252.305,12.285 248.084,18.500 243.114 C 24.715 238.144,30.190 233.745,30.666 233.339 C 32.261 231.979,32.938 231.433,48.200 219.211 C 56.560 212.516,63.600 206.849,63.844 206.619 C 64.089 206.389,64.978 205.660,65.820 205.000 C 68.248 203.098,70.548 201.248,71.200 200.674 C 71.530 200.383,77.200 195.838,83.800 190.575 C 90.400 185.312,95.980 180.809,96.200 180.568 C 96.420 180.326,97.770 179.245,99.200 178.165 C 100.630 177.084,101.980 176.000,102.200 175.756 C 102.420 175.513,107.100 171.747,112.600 167.388 C 121.728 160.153,125.600 156.755,125.600 155.975 C 125.600 155.143,134.863 142.061,137.620 139.000 C 138.215 138.340,140.275 136.037,142.198 133.882 C 144.122 131.727,147.339 128.509,149.348 126.731 C 151.357 124.953,153.540 123.021,154.200 122.437 C 159.466 117.776,171.797 109.827,179.200 106.322 C 186.923 102.665,187.610 102.389,196.000 99.591 C 203.633 97.045,210.655 95.216,215.200 94.592 C 216.190 94.455,217.540 94.181,218.200 93.981 C 219.663 93.538,228.957 92.526,236.724 91.963 L 242.447 91.548 247.148 87.874 C 249.734 85.853,252.458 83.750,253.201 83.200 C 253.945 82.650,255.824 81.200,257.377 79.979 C 258.929 78.757,262.145 76.271,264.522 74.456 C 266.900 72.640,269.150 70.906,269.522 70.602 C 269.895 70.298,272.540 68.241,275.400 66.031 C 278.260 63.821,280.960 61.733,281.400 61.391 C 281.840 61.048,282.722 60.370,283.360 59.884 C 284.594 58.944,294.053 51.636,295.400 50.583 C 300.115 46.895,309.413 39.699,312.600 37.271 C 314.800 35.595,318.692 32.598,321.248 30.612 C 323.805 28.625,329.171 24.480,333.173 21.400 C 337.175 18.320,342.374 14.319,344.725 12.510 C 347.076 10.700,349.185 9.080,349.411 8.910 C 353.321 5.963,360.897 4.840,366.600 6.360 " stroke="none" fill="#fbfbfb" fill-rule="evenodd"></path><path id="path4" d="M354.914 83.000 C 354.917 84.100,354.995 84.503,355.087 83.895 C 355.179 83.286,355.177 82.386,355.082 81.895 C 354.987 81.403,354.911 81.900,354.914 83.000 M372.920 184.800 C 372.920 186.010,372.995 186.505,373.087 185.900 C 373.178 185.295,373.178 184.305,373.087 183.700 C 372.995 183.095,372.920 183.590,372.920 184.800 M323.905 237.483 C 324.402 237.579,325.122 237.575,325.505 237.475 C 325.887 237.375,325.480 237.296,324.600 237.301 C 323.720 237.305,323.407 237.387,323.905 237.483 M310.305 246.683 C 310.802 246.779,311.522 246.775,311.905 246.675 C 312.287 246.575,311.880 246.496,311.000 246.501 C 310.120 246.505,309.807 246.587,310.305 246.683 M319.700 247.076 C 320.085 247.176,320.715 247.176,321.100 247.076 C 321.485 246.975,321.170 246.893,320.400 246.893 C 319.630 246.893,319.315 246.975,319.700 247.076 " stroke="none" fill="#7d7a77" fill-rule="evenodd"></path><path id="path5" d="M370.711 46.591 C 368.484 47.869,368.307 48.296,370.502 47.095 L 372.403 46.055 373.027 47.127 C 373.370 47.717,373.549 47.870,373.425 47.467 C 373.301 47.064,373.200 46.589,373.200 46.410 C 373.200 45.701,372.125 45.779,370.711 46.591 M365.673 49.284 C 364.503 49.942,363.630 50.563,363.733 50.666 C 363.923 50.857,368.400 48.455,368.400 48.162 C 368.400 47.846,367.774 48.104,365.673 49.284 M373.835 49.200 C 373.981 49.750,374.354 50.650,374.664 51.200 L 375.229 52.200 374.965 51.200 C 374.819 50.650,374.446 49.750,374.136 49.200 L 373.571 48.200 373.835 49.200 M361.900 51.429 C 360.405 52.240,360.496 52.578,362.000 51.800 C 362.660 51.459,363.200 51.094,363.200 50.990 C 363.200 50.732,363.157 50.747,361.900 51.429 M356.100 54.632 C 352.376 56.644,350.892 57.629,352.700 56.887 C 353.882 56.402,360.400 52.746,360.400 52.568 C 360.400 52.306,360.431 52.291,356.100 54.632 M375.435 53.200 C 375.581 53.750,375.954 54.650,376.264 55.200 L 376.829 56.200 376.565 55.200 C 376.419 54.650,376.046 53.750,375.736 53.200 L 375.171 52.200 375.435 53.200 M377.035 57.200 C 377.181 57.750,377.554 58.650,377.864 59.200 L 378.429 60.200 378.165 59.200 C 378.019 58.650,377.646 57.750,377.336 57.200 L 376.771 56.200 377.035 57.200 M350.087 58.300 C 349.130 59.235,349.114 59.281,349.981 58.606 C 351.688 57.276,351.769 57.200,351.486 57.200 C 351.336 57.200,350.706 57.695,350.087 58.300 M378.635 61.200 C 378.781 61.750,379.154 62.650,379.464 63.200 L 380.029 64.200 379.765 63.200 C 379.619 62.650,379.246 61.750,378.936 61.200 L 378.371 60.200 378.635 61.200 M344.975 64.100 L 343.800 65.400 345.100 64.225 C 345.815 63.579,346.400 62.994,346.400 62.925 C 346.400 62.616,346.070 62.888,344.975 64.100 M376.493 86.000 C 376.493 86.770,376.575 87.085,376.676 86.700 C 376.776 86.315,376.776 85.685,376.676 85.300 C 376.575 84.915,376.493 85.230,376.493 86.000 M353.873 119.087 C 352.988 121.476,353.187 121.620,354.281 119.382 C 354.757 118.409,355.013 117.531,354.850 117.431 C 354.688 117.331,354.248 118.076,353.873 119.087 M340.944 190.800 C 340.944 192.890,341.012 193.745,341.094 192.700 C 341.176 191.655,341.176 189.945,341.094 188.900 C 341.012 187.855,340.944 188.710,340.944 190.800 M361.785 189.300 L 359.800 191.400 361.900 189.415 C 363.851 187.571,364.183 187.200,363.885 187.200 C 363.822 187.200,362.877 188.145,361.785 189.300 M340.493 196.400 C 340.493 197.170,340.575 197.485,340.676 197.100 C 340.776 196.715,340.776 196.085,340.676 195.700 C 340.575 195.315,340.493 195.630,340.493 196.400 M228.575 205.300 L 227.400 206.600 228.700 205.425 C 229.415 204.779,230.000 204.194,230.000 204.125 C 230.000 203.816,229.670 204.088,228.575 205.300 M223.375 210.100 L 222.200 211.400 223.500 210.225 C 224.712 209.130,224.984 208.800,224.675 208.800 C 224.606 208.800,224.021 209.385,223.375 210.100 M78.062 217.411 C 75.168 219.732,72.800 221.742,72.800 221.877 C 72.800 222.013,73.115 221.856,73.500 221.528 C 78.626 217.166,83.232 213.777,82.562 214.862 C 82.384 215.150,82.452 215.215,82.745 215.034 C 83.002 214.875,83.119 214.593,83.004 214.407 C 82.889 214.221,83.021 213.988,83.298 213.889 C 83.574 213.790,83.693 213.593,83.562 213.450 C 83.431 213.307,80.956 215.089,78.062 217.411 M365.415 216.602 C 364.140 217.828,363.176 218.909,363.272 219.005 C 363.368 219.101,364.426 218.187,365.623 216.974 L 367.800 214.768 368.277 217.484 L 368.754 220.200 368.550 217.600 C 368.274 214.092,368.089 214.033,365.415 216.602 M210.378 223.100 L 209.000 224.600 210.500 223.222 C 211.896 221.938,212.184 221.600,211.878 221.600 C 211.812 221.600,211.137 222.275,210.378 223.100 M64.200 228.442 C 59.800 231.969,55.840 235.223,55.400 235.674 C 54.481 236.614,70.592 223.924,71.789 222.764 C 73.614 220.996,71.752 222.389,64.200 228.442 M351.596 230.285 C 347.528 234.402,344.321 237.687,344.469 237.585 C 345.205 237.077,359.485 222.800,359.257 222.800 C 359.111 222.800,355.664 226.168,351.596 230.285 M369.246 224.667 C 369.183 225.860,369.606 226.844,370.061 226.562 C 370.297 226.416,370.298 226.155,370.062 225.864 C 369.855 225.609,369.598 225.040,369.489 224.600 C 369.306 223.852,369.290 223.857,369.246 224.667 M273.452 235.516 C 273.344 235.690,273.918 235.767,274.728 235.687 C 276.942 235.469,277.205 235.267,275.324 235.232 C 274.402 235.214,273.559 235.342,273.452 235.516 M285.300 235.891 C 286.125 235.978,287.475 235.978,288.300 235.891 C 289.125 235.805,288.450 235.734,286.800 235.734 C 285.150 235.734,284.475 235.805,285.300 235.891 M292.105 236.287 C 292.714 236.379,293.614 236.377,294.105 236.282 C 294.597 236.187,294.100 236.111,293.000 236.114 C 291.900 236.117,291.497 236.195,292.105 236.287 M303.700 236.687 C 304.305 236.778,305.295 236.778,305.900 236.687 C 306.505 236.595,306.010 236.520,304.800 236.520 C 303.590 236.520,303.095 236.595,303.700 236.687 M316.707 237.090 C 317.426 237.179,318.506 237.177,319.107 237.086 C 319.708 236.995,319.120 236.922,317.800 236.924 C 316.480 236.926,315.988 237.001,316.707 237.090 M326.705 237.483 C 327.202 237.579,327.922 237.575,328.305 237.475 C 328.687 237.375,328.280 237.296,327.400 237.301 C 326.520 237.305,326.207 237.387,326.705 237.483 M334.700 237.882 C 335.195 237.978,336.005 237.978,336.500 237.882 C 336.995 237.787,336.590 237.709,335.600 237.709 C 334.610 237.709,334.205 237.787,334.700 237.882 M247.556 246.500 C 246.026 249.320,245.542 250.400,245.807 250.400 C 245.907 250.400,246.613 249.185,247.375 247.700 C 248.703 245.113,248.761 245.057,248.780 246.367 C 248.805 248.111,249.018 247.862,249.349 245.700 C 249.713 243.324,249.139 243.580,247.556 246.500 M248.534 252.000 C 248.534 253.650,248.605 254.325,248.691 253.500 C 248.778 252.675,248.778 251.325,248.691 250.500 C 248.605 249.675,248.534 250.350,248.534 252.000 M244.786 251.901 C 243.942 253.594,243.939 253.600,244.166 253.600 C 244.465 253.600,245.695 251.162,245.497 250.963 C 245.408 250.874,245.088 251.296,244.786 251.901 M33.817 252.781 C 33.156 253.511,34.152 256.400,35.065 256.400 C 35.175 256.400,34.871 255.761,34.388 254.981 C 33.547 253.620,33.540 253.529,34.217 252.781 C 34.606 252.351,34.834 252.000,34.724 252.000 C 34.614 252.000,34.206 252.351,33.817 252.781 M243.072 255.419 C 242.132 257.389,242.264 257.724,243.247 255.862 C 243.693 255.016,243.987 254.254,243.901 254.167 C 243.814 254.081,243.441 254.644,243.072 255.419 M248.879 257.400 C 248.878 258.060,249.117 259.500,249.410 260.600 L 249.944 262.600 249.741 260.794 C 249.420 257.949,248.883 255.830,248.879 257.400 M37.400 259.200 C 38.483 260.300,39.460 261.200,39.570 261.200 C 39.680 261.200,38.883 260.300,37.800 259.200 C 36.717 258.100,35.740 257.200,35.630 257.200 C 35.520 257.200,36.317 258.100,37.400 259.200 M241.472 259.019 C 240.532 260.989,240.664 261.324,241.647 259.462 C 242.093 258.616,242.387 257.854,242.301 257.767 C 242.214 257.681,241.841 258.244,241.472 259.019 M204.511 260.500 C 203.610 261.666,203.409 262.230,204.094 261.675 C 204.659 261.218,204.764 261.295,204.911 262.275 C 205.034 263.095,205.096 262.939,205.140 261.700 C 205.204 259.882,205.117 259.716,204.511 260.500 M240.065 262.217 C 239.395 263.688,239.523 264.002,240.247 262.665 C 240.586 262.040,240.788 261.454,240.696 261.363 C 240.605 261.271,240.321 261.656,240.065 262.217 M268.142 265.400 C 268.141 267.380,268.208 268.240,268.292 267.312 C 268.376 266.384,268.377 264.764,268.295 263.712 C 268.212 262.660,268.143 263.420,268.142 265.400 M42.174 263.158 C 42.323 263.399,42.816 263.795,43.271 264.038 C 43.862 264.354,44.020 264.356,43.826 264.042 C 43.677 263.801,43.184 263.405,42.729 263.162 C 42.138 262.846,41.980 262.844,42.174 263.158 M250.448 264.400 C 250.442 264.730,250.683 265.540,250.986 266.200 C 251.693 267.745,251.703 267.026,251.000 265.200 C 250.703 264.430,250.455 264.070,250.448 264.400 M201.400 265.600 C 201.059 266.260,200.869 266.800,200.979 266.800 C 201.089 266.800,201.459 266.260,201.800 265.600 C 202.141 264.940,202.331 264.400,202.221 264.400 C 202.111 264.400,201.741 264.940,201.400 265.600 M238.411 266.171 C 237.817 267.734,237.934 267.980,238.647 266.665 C 238.986 266.040,239.164 265.430,239.042 265.309 C 238.921 265.188,238.637 265.576,238.411 266.171 M47.600 266.231 C 47.600 266.501,49.678 267.256,49.876 267.057 C 49.967 266.967,49.492 266.701,48.820 266.467 C 48.149 266.233,47.600 266.127,47.600 266.231 M199.800 268.400 C 199.459 269.060,199.269 269.600,199.379 269.600 C 199.489 269.600,199.859 269.060,200.200 268.400 C 200.541 267.740,200.731 267.200,200.621 267.200 C 200.511 267.200,200.141 267.740,199.800 268.400 M52.200 268.214 C 52.860 268.517,53.670 268.758,54.000 268.752 C 54.330 268.745,53.970 268.497,53.200 268.200 C 51.374 267.497,50.655 267.507,52.200 268.214 M251.600 267.746 C 251.600 268.254,252.755 270.800,252.985 270.800 C 253.109 270.800,252.933 270.134,252.593 269.321 C 251.965 267.819,251.600 267.240,251.600 267.746 M205.320 270.000 C 205.320 271.210,205.395 271.705,205.487 271.100 C 205.578 270.495,205.578 269.505,205.487 268.900 C 205.395 268.295,205.320 268.790,205.320 270.000 M236.844 270.444 C 236.598 271.151,236.466 271.800,236.552 271.885 C 236.638 271.971,236.909 271.462,237.156 270.756 C 237.402 270.049,237.534 269.400,237.448 269.315 C 237.362 269.229,237.091 269.738,236.844 270.444 M58.400 270.000 C 58.950 270.176,59.760 270.320,60.200 270.320 C 60.833 270.320,60.792 270.254,60.000 270.000 C 59.450 269.824,58.640 269.680,58.200 269.680 C 57.567 269.680,57.608 269.746,58.400 270.000 M198.414 270.774 C 197.907 271.721,197.884 272.119,198.352 271.830 C 198.705 271.612,199.255 270.000,198.977 270.000 C 198.895 270.000,198.642 270.348,198.414 270.774 M64.100 271.076 C 64.485 271.176,65.115 271.176,65.500 271.076 C 65.885 270.975,65.570 270.893,64.800 270.893 C 64.030 270.893,63.715 270.975,64.100 271.076 M253.200 271.353 C 253.200 271.782,254.390 274.000,254.621 274.000 C 254.731 274.000,254.523 273.415,254.159 272.700 C 253.417 271.240,253.200 270.936,253.200 271.353 M205.862 276.800 C 205.982 279.110,206.227 281.810,206.408 282.800 C 206.805 284.980,206.473 279.199,205.970 275.200 C 205.720 273.205,205.695 273.578,205.862 276.800 M196.814 273.974 C 196.307 274.921,196.284 275.319,196.752 275.030 C 197.105 274.812,197.655 273.200,197.377 273.200 C 197.295 273.200,197.042 273.548,196.814 273.974 M235.240 275.040 C 235.010 275.873,234.889 276.622,234.971 276.704 C 235.053 276.786,235.336 276.199,235.600 275.400 C 235.864 274.601,235.985 273.852,235.869 273.736 C 235.753 273.620,235.470 274.207,235.240 275.040 M195.211 277.371 C 194.617 278.934,194.734 279.180,195.447 277.865 C 195.786 277.240,195.964 276.630,195.842 276.509 C 195.721 276.388,195.437 276.776,195.211 277.371 M256.667 277.606 C 257.059 278.270,257.798 279.305,258.310 279.906 C 258.821 280.508,258.575 279.965,257.763 278.700 C 256.224 276.303,255.428 275.507,256.667 277.606 M233.673 280.073 C 233.435 281.009,233.310 281.843,233.394 281.927 C 233.478 282.012,233.751 281.324,234.000 280.400 C 234.249 279.476,234.374 278.641,234.279 278.545 C 234.183 278.450,233.910 279.137,233.673 280.073 M193.611 280.971 C 193.017 282.534,193.134 282.780,193.847 281.465 C 194.186 280.840,194.364 280.230,194.242 280.109 C 194.121 279.988,193.837 280.376,193.611 280.971 M259.609 281.800 C 262.967 286.511,275.200 298.700,275.200 297.335 C 275.200 297.136,274.705 296.678,274.100 296.317 C 272.576 295.409,265.501 288.424,262.436 284.800 C 259.758 281.634,258.659 280.468,259.609 281.800 M192.025 285.025 C 191.556 286.279,191.242 287.375,191.327 287.461 C 191.413 287.546,191.873 286.596,192.350 285.350 C 192.827 284.104,193.141 283.008,193.048 282.914 C 192.954 282.821,192.494 283.771,192.025 285.025 M232.446 284.039 C 232.201 284.743,232.018 285.608,232.040 285.960 C 232.061 286.312,232.329 285.803,232.635 284.829 C 233.275 282.788,233.115 282.120,232.446 284.039 M190.446 289.239 C 190.201 289.943,190.013 290.718,190.028 290.960 C 190.044 291.202,190.314 290.696,190.630 289.835 C 190.945 288.974,191.133 288.200,191.048 288.115 C 190.962 288.029,190.692 288.535,190.446 289.239 M207.249 288.767 C 207.188 289.981,208.078 295.143,208.255 294.600 C 208.327 294.380,208.141 292.760,207.842 291.000 C 207.542 289.240,207.276 288.235,207.249 288.767 M231.029 289.429 C 230.881 290.015,230.838 290.572,230.932 290.666 C 231.027 290.760,231.224 290.358,231.371 289.771 C 231.519 289.185,231.562 288.628,231.468 288.534 C 231.373 288.440,231.176 288.842,231.029 289.429 M188.840 294.240 C 188.297 296.208,188.577 296.488,189.200 294.600 C 189.464 293.801,189.585 293.052,189.469 292.936 C 189.353 292.820,189.070 293.407,188.840 294.240 M208.538 297.000 C 208.666 297.660,208.981 299.330,209.239 300.712 C 209.498 302.094,209.789 303.145,209.887 303.047 C 210.119 302.815,208.901 296.364,208.565 296.045 C 208.423 295.910,208.411 296.340,208.538 297.000 M187.400 299.200 C 187.248 299.891,187.214 300.547,187.324 300.657 C 187.434 300.767,187.648 300.291,187.800 299.600 C 187.952 298.909,187.986 298.253,187.876 298.143 C 187.766 298.033,187.552 298.509,187.400 299.200 M186.008 305.167 C 185.743 306.273,185.600 307.400,185.691 307.672 C 185.782 307.945,186.068 307.110,186.328 305.817 C 186.911 302.913,186.667 302.418,186.008 305.167 M210.280 305.000 C 210.411 305.880,210.752 307.320,211.038 308.200 L 211.557 309.800 211.320 308.200 C 211.189 307.320,210.848 305.880,210.562 305.000 L 210.043 303.400 210.280 305.000 M227.714 311.000 C 227.717 312.100,227.795 312.503,227.887 311.895 C 227.979 311.286,227.977 310.386,227.882 309.895 C 227.787 309.403,227.711 309.900,227.714 311.000 M211.850 311.200 C 211.990 311.970,212.261 312.960,212.454 313.400 C 212.694 313.949,212.724 313.761,212.550 312.800 C 212.410 312.030,212.139 311.040,211.946 310.600 C 211.706 310.051,211.676 310.239,211.850 311.200 M184.600 312.400 C 184.446 313.310,184.404 314.138,184.507 314.240 C 184.610 314.343,184.813 313.677,184.960 312.760 C 185.107 311.843,185.148 311.015,185.053 310.920 C 184.958 310.824,184.754 311.490,184.600 312.400 M213.230 316.000 C 213.233 316.330,213.491 317.140,213.802 317.800 L 214.367 319.000 214.130 317.800 C 213.832 316.298,213.221 315.075,213.230 316.000 M215.029 321.200 C 215.176 321.750,215.464 322.470,215.667 322.800 C 215.925 323.217,215.957 323.095,215.771 322.400 C 215.624 321.850,215.336 321.130,215.133 320.800 C 214.875 320.383,214.843 320.505,215.029 321.200 M216.235 324.400 C 216.381 324.950,216.754 325.850,217.064 326.400 L 217.629 327.400 217.365 326.400 C 217.219 325.850,216.846 324.950,216.536 324.400 L 215.971 323.400 216.235 324.400 M183.293 325.200 C 183.293 325.970,183.375 326.285,183.476 325.900 C 183.576 325.515,183.576 324.885,183.476 324.500 C 183.375 324.115,183.293 324.430,183.293 325.200 M227.714 325.800 C 227.717 326.900,227.795 327.303,227.887 326.695 C 227.979 326.086,227.977 325.186,227.882 324.695 C 227.787 324.203,227.711 324.700,227.714 325.800 M182.961 333.600 C 182.961 337.010,183.022 338.405,183.097 336.700 C 183.172 334.995,183.172 332.205,183.097 330.500 C 183.022 328.795,182.961 330.190,182.961 333.600 M218.014 328.620 C 218.022 328.829,218.299 329.450,218.631 330.000 L 219.233 331.000 218.972 330.000 C 218.699 328.957,217.989 327.933,218.014 328.620 M220.400 333.600 C 221.066 334.920,221.702 336.000,221.812 336.000 C 221.922 336.000,221.466 334.920,220.800 333.600 C 220.134 332.280,219.498 331.200,219.388 331.200 C 219.278 331.200,219.734 332.280,220.400 333.600 M183.293 341.600 C 183.293 342.370,183.375 342.685,183.476 342.300 C 183.576 341.915,183.576 341.285,183.476 340.900 C 183.375 340.515,183.293 340.830,183.293 341.600 M175.965 364.630 C 178.430 369.199,185.236 379.081,186.425 379.816 C 186.650 379.954,185.764 378.645,184.456 376.907 C 181.441 372.897,178.371 368.212,176.325 364.500 C 175.447 362.905,174.638 361.600,174.529 361.600 C 174.420 361.600,175.066 362.963,175.965 364.630 M190.060 384.472 C 193.049 388.042,197.170 392.222,197.185 391.700 C 197.193 391.425,197.009 391.200,196.776 391.200 C 196.543 391.200,196.481 390.992,196.638 390.738 C 196.803 390.472,196.749 390.384,196.511 390.531 C 196.153 390.753,192.294 386.740,189.742 383.492 C 189.271 382.891,188.759 382.400,188.605 382.400 C 188.451 382.400,189.106 383.332,190.060 384.472 " stroke="none" fill="#a98575" fill-rule="evenodd"></path><path id="path6" d="M372.893 188.000 C 372.893 188.770,372.975 189.085,373.076 188.700 C 373.176 188.315,373.176 187.685,373.076 187.300 C 372.975 186.915,372.893 187.230,372.893 188.000 M304.654 187.912 C 304.519 188.131,304.677 188.532,305.004 188.804 C 305.655 189.343,305.791 188.920,305.244 188.057 C 305.035 187.728,304.804 187.671,304.654 187.912 M279.300 235.887 C 279.905 235.978,280.895 235.978,281.500 235.887 C 282.105 235.795,281.610 235.720,280.400 235.720 C 279.190 235.720,278.695 235.795,279.300 235.887 M288.705 236.283 C 289.202 236.379,289.922 236.375,290.305 236.275 C 290.687 236.175,290.280 236.096,289.400 236.101 C 288.520 236.105,288.207 236.187,288.705 236.283 M320.700 237.482 C 321.195 237.578,322.005 237.578,322.500 237.482 C 322.995 237.387,322.590 237.309,321.600 237.309 C 320.610 237.309,320.205 237.387,320.700 237.482 M204.893 264.400 C 204.893 265.170,204.975 265.485,205.076 265.100 C 205.176 264.715,205.176 264.085,205.076 263.700 C 204.975 263.315,204.893 263.630,204.893 264.400 M227.748 318.800 C 227.748 321.110,227.814 322.055,227.895 320.900 C 227.976 319.745,227.976 317.855,227.895 316.700 C 227.814 315.545,227.748 316.490,227.748 318.800 M163.693 320.000 C 163.693 320.770,163.775 321.085,163.876 320.700 C 163.976 320.315,163.976 319.685,163.876 319.300 C 163.775 318.915,163.693 319.230,163.693 320.000 " stroke="none" fill="#796c5c" fill-rule="evenodd"></path><path id="path7" d="M383.293 24.400 C 383.293 25.170,383.375 25.485,383.476 25.100 C 383.576 24.715,383.576 24.085,383.476 23.700 C 383.375 23.315,383.293 23.630,383.293 24.400 M383.714 30.600 C 383.717 31.700,383.795 32.103,383.887 31.495 C 383.979 30.886,383.977 29.986,383.882 29.495 C 383.787 29.003,383.711 29.500,383.714 30.600 M384.093 34.800 C 384.093 35.570,384.175 35.885,384.276 35.500 C 384.376 35.115,384.376 34.485,384.276 34.100 C 384.175 33.715,384.093 34.030,384.093 34.800 M384.893 48.400 C 384.893 49.170,384.975 49.485,385.076 49.100 C 385.176 48.715,385.176 48.085,385.076 47.700 C 384.975 47.315,384.893 47.630,384.893 48.400 M385.320 54.400 C 385.320 55.610,385.395 56.105,385.487 55.500 C 385.578 54.895,385.578 53.905,385.487 53.300 C 385.395 52.695,385.320 53.190,385.320 54.400 M333.375 76.900 L 332.200 78.200 333.500 77.025 C 334.215 76.379,334.800 75.794,334.800 75.725 C 334.800 75.416,334.470 75.688,333.375 76.900 M380.649 81.015 C 380.512 81.373,380.415 81.966,380.434 82.333 C 380.453 82.700,380.627 82.469,380.821 81.820 C 381.198 80.558,381.065 79.933,380.649 81.015 M380.924 86.200 C 380.926 87.520,381.001 88.012,381.090 87.293 C 381.179 86.574,381.177 85.494,381.086 84.893 C 380.995 84.292,380.922 84.880,380.924 86.200 M380.493 90.800 C 380.493 91.570,380.575 91.885,380.676 91.500 C 380.776 91.115,380.776 90.485,380.676 90.100 C 380.575 89.715,380.493 90.030,380.493 90.800 M220.267 108.667 C 219.700 109.233,220.046 109.598,221.100 109.546 C 222.052 109.498,222.078 109.468,221.294 109.317 C 220.796 109.221,220.491 108.976,220.618 108.771 C 220.883 108.342,220.658 108.275,220.267 108.667 M220.800 112.000 L 217.000 112.247 220.676 112.323 C 222.783 112.367,224.458 112.229,224.600 112.000 C 224.736 111.780,224.792 111.634,224.724 111.677 C 224.656 111.719,222.890 111.864,220.800 112.000 M354.048 119.900 C 353.833 120.285,353.524 120.510,353.361 120.400 C 352.982 120.142,352.231 122.364,352.580 122.713 C 353.010 123.143,353.519 121.978,353.288 121.093 C 353.148 120.558,353.227 120.369,353.517 120.549 C 353.761 120.699,354.155 120.457,354.394 120.011 C 354.924 119.022,354.598 118.917,354.048 119.900 M306.430 132.164 C 306.127 132.528,306.103 132.816,306.361 132.976 C 306.580 133.111,306.955 132.857,307.194 132.411 C 307.688 131.489,307.138 131.311,306.430 132.164 M378.093 185.200 C 378.093 185.970,378.175 186.285,378.276 185.900 C 378.376 185.515,378.376 184.885,378.276 184.500 C 378.175 184.115,378.093 184.430,378.093 185.200 M358.278 185.413 C 357.660 185.956,357.314 186.400,357.508 186.400 C 357.702 186.400,358.283 185.950,358.800 185.400 C 359.995 184.128,359.731 184.134,358.278 185.413 M361.619 188.981 C 360.658 189.960,359.495 190.835,359.036 190.926 C 358.219 191.087,358.218 191.092,359.015 191.146 C 359.510 191.179,360.604 190.415,361.800 189.200 C 362.883 188.100,363.679 187.200,363.568 187.200 C 363.457 187.200,362.580 188.001,361.619 188.981 M222.981 210.100 L 221.400 211.800 223.100 210.219 C 224.681 208.748,224.984 208.400,224.681 208.400 C 224.616 208.400,223.851 209.165,222.981 210.100 M209.978 223.100 L 208.600 224.600 210.100 223.222 C 211.496 221.938,211.784 221.600,211.478 221.600 C 211.412 221.600,210.737 222.275,209.978 223.100 M275.107 235.890 C 275.826 235.979,276.906 235.977,277.507 235.886 C 278.108 235.795,277.520 235.722,276.200 235.724 C 274.880 235.726,274.388 235.801,275.107 235.890 M285.905 236.283 C 286.402 236.379,287.122 236.375,287.505 236.275 C 287.887 236.175,287.480 236.096,286.600 236.101 C 285.720 236.105,285.407 236.187,285.905 236.283 M298.500 236.676 C 298.885 236.776,299.515 236.776,299.900 236.676 C 300.285 236.575,299.970 236.493,299.200 236.493 C 298.430 236.493,298.115 236.575,298.500 236.676 M307.113 237.095 C 308.276 237.176,310.076 237.176,311.113 237.093 C 312.151 237.011,311.200 236.945,309.000 236.946 C 306.800 236.947,305.951 237.014,307.113 237.095 M316.707 237.490 C 317.426 237.579,318.506 237.577,319.107 237.486 C 319.708 237.395,319.120 237.322,317.800 237.324 C 316.480 237.326,315.988 237.401,316.707 237.490 M328.705 237.883 C 329.202 237.979,329.922 237.975,330.305 237.875 C 330.687 237.775,330.280 237.696,329.400 237.701 C 328.520 237.705,328.207 237.787,328.705 237.883 M340.900 238.276 C 341.285 238.376,341.915 238.376,342.300 238.276 C 342.685 238.175,342.370 238.093,341.600 238.093 C 340.830 238.093,340.515 238.175,340.900 238.276 M277.061 245.500 C 276.958 245.665,277.982 245.750,279.337 245.688 C 283.478 245.500,283.969 245.323,280.524 245.260 C 278.722 245.227,277.163 245.335,277.061 245.500 M289.500 245.882 C 289.995 245.978,290.805 245.978,291.300 245.882 C 291.795 245.787,291.390 245.709,290.400 245.709 C 289.410 245.709,289.005 245.787,289.500 245.882 M302.707 246.290 C 303.426 246.379,304.506 246.377,305.107 246.286 C 305.708 246.195,305.120 246.122,303.800 246.124 C 302.480 246.126,301.988 246.201,302.707 246.290 M313.900 246.693 C 314.835 246.777,316.365 246.777,317.300 246.693 C 318.235 246.609,317.470 246.540,315.600 246.540 C 313.730 246.540,312.965 246.609,313.900 246.693 M323.312 247.095 C 324.364 247.177,325.984 247.176,326.912 247.092 C 327.840 247.008,326.980 246.941,325.000 246.942 C 323.020 246.943,322.260 247.012,323.312 247.095 M333.900 247.482 C 334.395 247.578,335.205 247.578,335.700 247.482 C 336.195 247.387,335.790 247.309,334.800 247.309 C 333.810 247.309,333.405 247.387,333.900 247.482 M274.093 259.600 C 274.093 260.370,274.175 260.685,274.276 260.300 C 274.376 259.915,274.376 259.285,274.276 258.900 C 274.175 258.515,274.093 258.830,274.093 259.600 M273.744 267.200 C 273.744 269.290,273.812 270.145,273.894 269.100 C 273.976 268.055,273.976 266.345,273.894 265.300 C 273.812 264.255,273.744 265.110,273.744 267.200 M274.093 274.800 C 274.093 275.570,274.175 275.885,274.276 275.500 C 274.376 275.115,274.376 274.485,274.276 274.100 C 274.175 273.715,274.093 274.030,274.093 274.800 M64.300 288.689 C 65.015 288.778,66.185 288.778,66.900 288.689 C 67.615 288.601,67.030 288.528,65.600 288.528 C 64.170 288.528,63.585 288.601,64.300 288.689 M75.300 288.687 C 75.905 288.778,76.895 288.778,77.500 288.687 C 78.105 288.595,77.610 288.520,76.400 288.520 C 75.190 288.520,74.695 288.595,75.300 288.687 M284.900 310.276 C 285.285 310.376,285.915 310.376,286.300 310.276 C 286.685 310.175,286.370 310.093,285.600 310.093 C 284.830 310.093,284.515 310.175,284.900 310.276 M163.714 317.000 C 163.717 318.100,163.795 318.503,163.887 317.895 C 163.979 317.286,163.977 316.386,163.882 315.895 C 163.787 315.403,163.711 315.900,163.714 317.000 M163.693 322.400 C 163.693 323.170,163.775 323.485,163.876 323.100 C 163.976 322.715,163.976 322.085,163.876 321.700 C 163.775 321.315,163.693 321.630,163.693 322.400 M189.293 323.600 C 189.293 324.370,189.375 324.685,189.476 324.300 C 189.576 323.915,189.576 323.285,189.476 322.900 C 189.375 322.515,189.293 322.830,189.293 323.600 M188.893 327.200 C 188.893 327.970,188.975 328.285,189.076 327.900 C 189.176 327.515,189.176 326.885,189.076 326.500 C 188.975 326.115,188.893 326.430,188.893 327.200 M183.351 333.200 C 183.351 335.730,183.416 336.765,183.496 335.500 C 183.575 334.235,183.575 332.165,183.496 330.900 C 183.416 329.635,183.351 330.670,183.351 333.200 M164.493 331.600 C 164.493 332.370,164.575 332.685,164.676 332.300 C 164.776 331.915,164.776 331.285,164.676 330.900 C 164.575 330.515,164.493 330.830,164.493 331.600 M188.893 342.800 C 188.893 343.570,188.975 343.885,189.076 343.500 C 189.176 343.115,189.176 342.485,189.076 342.100 C 188.975 341.715,188.893 342.030,188.893 342.800 M189.301 346.600 C 189.305 347.480,189.387 347.793,189.483 347.295 C 189.579 346.798,189.575 346.078,189.475 345.695 C 189.375 345.313,189.296 345.720,189.301 346.600 M220.400 351.725 C 220.400 351.794,220.985 352.379,221.700 353.025 L 223.000 354.200 221.825 352.900 C 220.730 351.688,220.400 351.416,220.400 351.725 M155.400 372.400 C 156.259 373.280,157.052 374.000,157.162 374.000 C 157.272 374.000,156.659 373.280,155.800 372.400 C 154.941 371.520,154.148 370.800,154.038 370.800 C 153.928 370.800,154.541 371.520,155.400 372.400 M159.800 376.800 C 161.106 378.120,162.265 379.200,162.375 379.200 C 162.485 379.200,161.506 378.120,160.200 376.800 C 158.894 375.480,157.735 374.400,157.625 374.400 C 157.515 374.400,158.494 375.480,159.800 376.800 " stroke="none" fill="#646464" fill-rule="evenodd"></path><path id="path8" d="M360.305 5.883 C 360.802 5.979,361.522 5.975,361.905 5.875 C 362.287 5.775,361.880 5.696,361.000 5.701 C 360.120 5.705,359.807 5.787,360.305 5.883 M383.701 25.800 C 383.705 26.680,383.787 26.993,383.883 26.495 C 383.979 25.998,383.975 25.278,383.875 24.895 C 383.775 24.513,383.696 24.920,383.701 25.800 M384.893 44.800 C 384.893 45.570,384.975 45.885,385.076 45.500 C 385.176 45.115,385.176 44.485,385.076 44.100 C 384.975 43.715,384.893 44.030,384.893 44.800 M385.301 49.400 C 385.305 50.280,385.387 50.593,385.483 50.095 C 385.579 49.598,385.575 48.878,385.475 48.495 C 385.375 48.113,385.296 48.520,385.301 49.400 M386.514 67.800 C 386.517 68.900,386.595 69.303,386.687 68.695 C 386.779 68.086,386.777 67.186,386.682 66.695 C 386.587 66.203,386.511 66.700,386.514 67.800 M237.305 92.287 C 237.914 92.379,238.814 92.377,239.305 92.282 C 239.797 92.187,239.300 92.111,238.200 92.114 C 237.100 92.117,236.697 92.195,237.305 92.287 M219.312 111.895 C 220.364 111.977,221.984 111.976,222.912 111.892 C 223.840 111.808,222.980 111.741,221.000 111.742 C 219.020 111.743,218.260 111.812,219.312 111.895 M212.100 112.276 C 212.485 112.376,213.115 112.376,213.500 112.276 C 213.885 112.175,213.570 112.093,212.800 112.093 C 212.030 112.093,211.715 112.175,212.100 112.276 M148.175 128.100 L 147.000 129.400 148.300 128.225 C 149.015 127.579,149.600 126.994,149.600 126.925 C 149.600 126.616,149.270 126.888,148.175 128.100 M295.300 236.276 C 295.685 236.376,296.315 236.376,296.700 236.276 C 297.085 236.175,296.770 236.093,296.000 236.093 C 295.230 236.093,294.915 236.175,295.300 236.276 M337.700 237.876 C 338.085 237.976,338.715 237.976,339.100 237.876 C 339.485 237.775,339.170 237.693,338.400 237.693 C 337.630 237.693,337.315 237.775,337.700 237.876 M75.334 240.800 C 75.334 242.450,75.405 243.125,75.491 242.300 C 75.578 241.475,75.578 240.125,75.491 239.300 C 75.405 238.475,75.334 239.150,75.334 240.800 M285.100 245.882 C 285.595 245.978,286.405 245.978,286.900 245.882 C 287.395 245.787,286.990 245.709,286.000 245.709 C 285.010 245.709,284.605 245.787,285.100 245.882 M296.707 246.290 C 297.426 246.379,298.506 246.377,299.107 246.286 C 299.708 246.195,299.120 246.122,297.800 246.124 C 296.480 246.126,295.988 246.201,296.707 246.290 M305.300 246.691 C 306.125 246.778,307.475 246.778,308.300 246.691 C 309.125 246.605,308.450 246.534,306.800 246.534 C 305.150 246.534,304.475 246.605,305.300 246.691 M316.505 247.087 C 317.114 247.179,318.014 247.177,318.505 247.082 C 318.997 246.987,318.500 246.911,317.400 246.914 C 316.300 246.917,315.897 246.995,316.505 247.087 M329.700 247.476 C 330.085 247.576,330.715 247.576,331.100 247.476 C 331.485 247.375,331.170 247.293,330.400 247.293 C 329.630 247.293,329.315 247.375,329.700 247.476 M339.700 247.887 C 340.305 247.978,341.295 247.978,341.900 247.887 C 342.505 247.795,342.010 247.720,340.800 247.720 C 339.590 247.720,339.095 247.795,339.700 247.887 M274.155 267.000 C 274.156 269.860,274.220 270.978,274.297 269.483 C 274.374 267.989,274.374 265.649,274.296 264.283 C 274.218 262.918,274.155 264.140,274.155 267.000 M68.500 289.096 C 69.765 289.175,71.835 289.175,73.100 289.096 C 74.365 289.016,73.330 288.951,70.800 288.951 C 68.270 288.951,67.235 289.016,68.500 289.096 M253.800 294.800 C 254.883 295.900,255.860 296.800,255.970 296.800 C 256.080 296.800,255.283 295.900,254.200 294.800 C 253.117 293.700,252.140 292.800,252.030 292.800 C 251.920 292.800,252.717 293.700,253.800 294.800 M164.153 318.200 C 164.153 320.840,164.218 321.868,164.297 320.484 C 164.375 319.101,164.374 316.941,164.295 315.684 C 164.216 314.428,164.152 315.560,164.153 318.200 M233.293 315.600 C 233.293 316.370,233.375 316.685,233.476 316.300 C 233.576 315.915,233.576 315.285,233.476 314.900 C 233.375 314.515,233.293 314.830,233.293 315.600 M188.955 335.000 C 188.956 337.860,189.020 338.978,189.097 337.483 C 189.174 335.989,189.174 333.649,189.096 332.283 C 189.018 330.918,188.955 332.140,188.955 335.000 M247.762 367.938 C 247.953 368.248,247.612 368.420,246.724 368.460 C 245.444 368.518,245.438 368.526,246.549 368.691 C 247.831 368.882,248.776 368.280,247.973 367.783 C 247.653 367.585,247.578 367.641,247.762 367.938 M156.000 373.325 C 156.000 373.394,156.585 373.979,157.300 374.625 L 158.600 375.800 157.425 374.500 C 156.330 373.288,156.000 373.016,156.000 373.325 " stroke="none" fill="#949494" fill-rule="evenodd"></path></g></svg>