<svg id="svg" xmlns="http://www.w3.org/2000/svg" xmlns:xlink="http://www.w3.org/1999/xlink" width="400" height="409.6" viewBox="0, 0, 400,409.6"><g id="svgg"><path id="path0" d="M330.590 9.300 C 344.457 25.489,345.671 35.811,334.161 39.652 C 328.426 41.565,275.998 41.209,269.535 39.213 C 257.306 35.435,260.482 22.301,276.771 9.293 C 277.738 8.521,277.721 8.520,273.371 9.048 C 256.298 11.121,239.589 16.857,227.927 24.648 L 223.466 27.629 219.833 27.207 C 179.802 22.553,134.586 35.417,100.644 61.118 C 33.155 112.222,13.542 207.621,55.536 280.521 C 58.459 285.595,58.422 285.344,56.365 286.167 C 45.492 290.518,39.370 284.137,37.590 266.600 C 37.322 263.960,37.054 261.744,36.995 261.676 C 36.746 261.394,30.593 270.254,27.578 275.234 C 9.236 305.534,3.477 336.943,10.421 368.800 C 12.308 377.453,17.247 392.563,19.177 395.583 C 19.473 396.046,20.319 395.425,23.275 392.577 C 46.279 370.416,82.923 356.016,116.364 355.998 L 120.600 355.995 114.781 353.098 C 97.288 344.387,87.124 333.666,89.151 326.061 C 89.859 323.405,89.932 323.401,92.803 325.855 C 161.312 384.416,262.769 379.812,325.652 315.288 C 379.218 260.325,389.237 175.823,350.010 109.842 C 348.455 107.226,347.236 105.031,347.301 104.965 C 347.367 104.900,349.066 104.487,351.076 104.048 C 373.900 99.067,388.923 85.106,392.451 65.600 C 398.301 33.252,372.514 7.600,334.146 7.600 L 329.134 7.600 330.590 9.300 M349.800 16.090 C 372.977 21.331,385.765 35.731,385.775 56.600 C 385.787 81.053,367.141 97.024,336.861 98.496 L 334.722 98.600 301.811 185.600 C 266.971 277.698,267.520 276.302,263.609 282.801 C 246.777 310.777,218.840 325.783,183.600 325.778 C 166.443 325.775,161.397 324.669,138.200 315.829 C 113.218 306.309,97.167 306.351,87.556 315.961 C 77.712 325.806,80.984 339.660,95.387 349.115 L 98.396 351.091 94.498 351.364 C 73.290 352.850,46.575 364.398,25.379 381.243 C 23.702 382.575,22.257 383.591,22.167 383.501 C 22.077 383.411,21.299 381.166,20.437 378.513 C 10.489 347.890,13.391 318.091,29.474 285.691 C 33.097 278.393,32.918 278.548,33.991 281.773 C 35.720 286.970,40.420 292.446,44.286 293.771 C 50.798 296.002,55.551 294.877,66.770 288.449 C 80.716 280.460,99.735 278.060,131.000 280.346 C 148.155 281.600,152.106 281.730,157.882 281.232 C 167.391 280.412,173.000 278.332,177.694 273.884 C 180.058 271.644,195.565 255.414,197.318 253.345 C 197.952 252.597,178.128 214.991,170.825 203.087 L 170.142 201.973 159.225 230.887 C 153.220 246.789,148.246 259.867,148.171 259.949 C 148.097 260.031,146.003 259.720,143.518 259.258 C 119.871 254.861,96.827 255.464,76.593 261.010 C 73.780 261.781,71.396 262.329,71.295 262.228 C 71.136 262.070,115.062 145.247,119.248 134.696 C 129.599 108.603,145.946 97.642,164.441 104.391 C 174.789 108.168,176.192 109.619,205.794 147.162 L 228.946 176.523 229.429 175.162 C 229.695 174.413,236.246 157.060,243.988 136.600 C 251.729 116.140,258.094 99.220,258.132 99.000 C 258.174 98.750,254.976 98.507,249.600 98.351 C 225.004 97.639,211.851 86.508,211.842 66.400 C 211.833 44.784,227.562 27.646,254.603 19.810 C 259.127 18.499,259.030 18.462,257.431 20.900 C 250.650 31.243,256.206 43.124,269.493 46.691 L 273.400 47.740 299.400 47.903 C 332.722 48.111,335.777 47.825,341.584 43.947 C 350.248 38.161,351.652 24.920,344.469 16.739 C 342.464 14.456,342.537 14.447,349.800 16.090 M209.466 44.500 C 203.577 57.929,203.158 73.090,208.382 83.778 C 214.280 95.848,227.754 103.931,244.636 105.525 C 247.114 105.759,247.771 105.952,247.668 106.412 C 247.502 107.156,227.214 160.837,226.861 161.466 C 226.710 161.735,218.666 151.870,207.800 138.090 C 185.082 109.279,181.234 105.098,173.400 100.714 C 150.732 88.030,128.112 98.007,115.165 126.400 C 113.911 129.150,102.134 159.840,88.993 194.600 C 61.640 266.958,64.668 259.409,63.807 257.381 C 42.083 206.232,48.672 149.430,81.449 105.305 C 108.142 69.370,148.748 47.504,194.800 44.266 C 200.373 43.875,209.676 44.023,209.466 44.500 M336.891 122.500 C 361.322 166.450,362.495 219.904,340.014 264.800 C 301.228 342.257,205.438 372.121,130.115 330.238 C 121.900 325.670,108.739 316.727,109.343 316.123 C 110.632 314.834,125.238 318.545,137.600 323.302 C 158.809 331.463,166.199 333.011,183.800 332.979 C 217.353 332.917,243.520 320.879,262.874 296.600 C 271.716 285.508,271.449 286.137,305.047 197.300 C 321.293 154.345,334.691 119.200,334.821 119.200 C 334.951 119.200,335.882 120.685,336.891 122.500 M180.574 235.570 C 185.329 244.243,189.171 251.471,189.110 251.633 C 188.811 252.432,171.621 269.829,170.318 270.651 C 164.467 274.346,156.114 274.979,134.800 273.346 C 109.682 271.422,86.720 272.693,75.523 276.629 L 74.046 277.148 72.223 274.039 C 70.137 270.481,70.067 270.166,71.300 269.898 C 71.795 269.791,73.730 269.249,75.600 268.694 C 96.928 262.363,119.617 261.821,145.570 267.023 C 149.972 267.906,152.631 268.274,152.786 268.022 C 152.922 267.803,157.156 256.727,162.195 243.410 C 167.234 230.093,171.485 219.332,171.642 219.498 C 171.799 219.664,175.818 226.896,180.574 235.570 " stroke="none" fill="#050404" fill-rule="evenodd"></path><path id="path1" d="M282.400 0.265 C 257.140 2.741,239.300 8.086,224.360 17.653 L 221.319 19.600 215.960 19.149 C 200.606 17.856,178.557 19.675,162.199 23.585 C 63.869 47.084,4.772 148.275,32.611 245.475 L 34.465 251.950 30.264 257.570 C -3.850 303.211,-9.291 354.386,14.684 404.100 C 17.795 410.550,17.601 410.475,20.919 406.498 C 42.145 381.049,77.350 365.149,115.800 363.646 C 121.723 363.414,123.682 363.200,124.679 362.675 C 125.979 361.990,128.000 359.684,128.000 358.886 C 128.000 357.929,128.847 358.099,132.841 359.857 C 184.601 382.642,246.562 378.514,295.363 349.030 C 374.831 301.017,404.068 200.364,362.727 117.119 C 360.760 113.158,359.206 109.876,359.275 109.826 C 359.344 109.776,360.840 109.234,362.600 108.620 C 380.401 102.413,393.612 89.362,398.656 72.998 C 400.343 67.525,400.589 47.556,399.044 41.508 C 391.966 13.797,367.226 -0.000,324.612 0.000 L 312.220 0.000 315.050 2.900 C 328.876 17.069,336.389 28.848,333.466 31.771 L 332.436 32.800 303.418 32.800 C 274.933 32.800,274.385 32.785,273.600 32.000 C 270.531 28.931,275.921 20.352,292.009 2.700 L 294.470 0.000 289.135 0.064 C 286.201 0.099,283.170 0.190,282.400 0.265 M342.100 7.796 C 377.051 11.884,397.210 34.406,392.816 64.457 C 389.894 84.438,374.212 99.416,351.169 104.236 C 349.316 104.623,347.733 104.991,347.651 105.053 C 347.569 105.115,348.866 107.482,350.534 110.313 C 385.969 170.470,380.818 247.469,337.714 301.944 C 277.559 377.968,165.589 389.199,93.272 326.462 C 91.662 325.065,90.291 323.985,90.226 324.061 C 89.591 324.809,89.200 326.293,89.200 327.959 C 89.200 335.869,98.388 344.696,115.487 353.214 L 120.775 355.848 112.887 356.319 C 77.316 358.441,46.082 371.032,24.197 392.071 C 21.573 394.594,19.421 396.367,19.234 396.162 C 16.999 393.710,10.578 372.575,8.855 362.000 C 3.449 328.816,12.926 293.159,34.927 263.900 C 37.397 260.615,37.599 260.585,37.602 263.500 C 37.606 266.668,38.626 273.232,39.637 276.590 C 42.405 285.779,46.486 288.593,54.149 286.597 C 58.315 285.511,58.249 285.693,55.936 281.697 C 25.872 229.741,25.714 164.562,55.525 112.400 C 88.508 54.687,152.470 20.958,217.856 26.797 L 223.511 27.302 227.532 24.626 C 239.889 16.399,264.298 8.400,277.042 8.400 L 278.182 8.400 276.591 9.689 C 259.647 23.413,257.527 36.143,271.600 39.651 C 275.434 40.607,331.079 40.443,333.976 39.467 C 345.406 35.617,343.754 23.317,329.871 8.900 L 328.233 7.200 332.619 7.200 C 335.031 7.200,339.298 7.468,342.100 7.796 M190.000 44.842 C 99.006 53.813,36.472 137.732,54.393 226.821 C 56.356 236.578,61.244 251.952,64.141 257.481 C 64.578 258.316,66.401 253.722,81.991 212.505 C 112.212 132.609,113.472 129.334,115.923 124.317 C 128.615 98.329,149.510 88.828,171.095 99.230 C 180.306 103.669,183.616 107.141,207.584 137.511 C 218.025 150.741,226.603 161.528,226.646 161.483 C 226.735 161.388,247.600 106.326,247.600 106.185 C 247.600 106.135,246.385 105.970,244.900 105.819 C 218.397 103.124,203.310 87.268,204.540 63.400 C 204.874 56.911,206.075 52.012,209.075 44.900 C 209.322 44.313,195.781 44.272,190.000 44.842 M305.004 197.910 C 274.689 278.102,273.197 281.816,268.252 289.382 C 249.505 318.068,219.890 333.390,183.200 333.384 C 167.347 333.381,159.266 331.688,139.400 324.205 C 124.936 318.758,116.328 316.400,110.901 316.400 L 109.481 316.400 112.040 318.335 C 166.590 359.568,243.097 358.974,297.127 316.897 C 352.221 273.991,371.177 198.601,342.863 135.003 C 340.168 128.950,335.293 119.592,334.843 119.610 C 334.709 119.615,321.282 154.850,305.004 197.910 M162.239 243.929 C 157.201 257.278,152.963 268.334,152.821 268.498 C 152.680 268.661,150.593 268.349,148.182 267.804 C 128.461 263.343,108.639 262.505,91.400 265.405 C 82.550 266.893,70.177 270.062,70.547 270.746 C 72.561 274.472,74.205 276.807,74.687 276.622 C 85.861 272.334,106.297 271.208,135.800 273.253 C 162.980 275.138,167.253 274.167,177.189 263.853 C 189.859 250.700,188.987 251.729,188.456 250.563 C 187.796 249.114,171.975 220.262,171.658 219.929 C 171.516 219.779,167.278 230.579,162.239 243.929 " stroke="none" fill="#fbfbfb" fill-rule="evenodd"></path><path id="path2" d="M345.367 17.729 C 353.376 29.673,348.758 42.946,335.148 47.103 C 332.332 47.963,279.376 48.377,273.430 47.586 C 257.476 45.462,249.530 32.372,257.232 20.900 C 258.658 18.775,258.415 18.748,253.028 20.432 C 226.131 28.839,211.191 46.167,212.109 67.891 C 212.927 87.248,226.018 97.667,250.300 98.286 C 254.755 98.399,258.400 98.616,258.400 98.767 C 258.400 99.236,229.291 176.042,229.005 176.328 C 228.856 176.477,228.524 176.317,228.267 175.972 C 221.961 167.509,180.909 116.130,178.695 113.930 C 159.161 94.518,135.755 100.408,122.414 128.095 C 120.328 132.423,77.643 244.352,71.778 260.873 L 71.255 262.345 73.127 261.759 C 93.743 255.308,119.756 254.359,144.000 259.172 C 146.090 259.587,147.910 259.808,148.045 259.663 C 148.180 259.518,153.106 246.620,158.994 231.000 C 164.881 215.380,169.821 202.368,169.973 202.085 C 170.137 201.778,175.896 211.842,184.278 227.085 L 198.308 252.600 195.871 255.200 C 184.235 267.616,176.101 275.724,174.003 276.998 C 166.683 281.445,156.494 282.439,134.800 280.825 C 97.644 278.059,81.530 280.103,64.965 289.682 C 49.691 298.515,39.084 295.893,33.859 281.995 L 32.920 279.498 31.099 282.849 C 18.003 306.944,12.404 334.796,15.949 358.213 C 17.169 366.277,21.111 381.962,22.212 383.137 C 22.283 383.212,24.149 381.905,26.359 380.231 C 48.660 363.342,73.887 352.511,93.810 351.270 L 98.147 351.000 95.589 349.423 C 84.473 342.572,78.982 330.568,83.045 322.000 C 90.468 306.346,109.219 304.441,139.836 316.231 C 158.259 323.325,166.284 325.269,179.600 325.866 C 215.829 327.489,248.282 310.118,264.943 280.185 C 267.963 274.760,267.963 274.761,303.408 180.967 L 334.560 98.534 339.380 98.068 C 369.087 95.194,385.742 80.293,385.729 56.600 C 385.716 34.972,370.053 18.922,345.506 15.384 L 343.611 15.111 345.367 17.729 " stroke="none" fill="#cb1424" fill-rule="evenodd"></path><path id="path3" d="M328.800 7.530 C 328.800 7.712,329.295 8.297,329.900 8.830 L 331.000 9.800 330.046 8.717 L 329.093 7.634 332.446 7.498 L 335.800 7.363 332.300 7.281 C 330.375 7.237,328.800 7.349,328.800 7.530 M290.500 40.700 C 297.485 40.761,308.915 40.761,315.900 40.700 C 322.885 40.639,317.170 40.588,303.200 40.588 C 289.230 40.588,283.515 40.639,290.500 40.700 M204.524 66.200 C 204.526 67.520,204.601 68.012,204.690 67.293 C 204.779 66.574,204.777 65.494,204.686 64.893 C 204.595 64.292,204.522 64.880,204.524 66.200 M128.000 106.600 C 127.028 107.590,126.323 108.400,126.433 108.400 C 126.543 108.400,127.428 107.590,128.400 106.600 C 129.372 105.610,130.077 104.800,129.967 104.800 C 129.857 104.800,128.972 105.610,128.000 106.600 M183.983 108.900 C 184.964 109.945,185.819 110.800,185.883 110.800 C 186.184 110.800,185.866 110.441,184.100 108.783 L 182.200 107.000 183.983 108.900 M33.350 196.600 C 33.351 199.020,33.416 199.958,33.496 198.685 C 33.576 197.412,33.575 195.432,33.494 194.285 C 33.414 193.138,33.349 194.180,33.350 196.600 M373.701 202.200 C 373.705 203.080,373.787 203.393,373.883 202.895 C 373.979 202.398,373.975 201.678,373.875 201.295 C 373.775 200.913,373.696 201.320,373.701 202.200 M179.775 261.300 L 178.600 262.600 179.900 261.425 C 181.112 260.330,181.384 260.000,181.075 260.000 C 181.006 260.000,180.421 260.585,179.775 261.300 M110.700 263.489 C 111.415 263.578,112.585 263.578,113.300 263.489 C 114.015 263.401,113.430 263.328,112.000 263.328 C 110.570 263.328,109.985 263.401,110.700 263.489 M149.913 274.295 C 151.076 274.376,152.876 274.376,153.913 274.293 C 154.951 274.211,154.000 274.145,151.800 274.146 C 149.600 274.147,148.751 274.214,149.913 274.295 M323.986 317.100 L 321.800 319.400 324.100 317.214 C 326.237 315.182,326.583 314.800,326.286 314.800 C 326.224 314.800,325.189 315.835,323.986 317.100 M181.491 333.489 C 182.201 333.577,183.461 333.579,184.291 333.492 C 185.121 333.405,184.540 333.333,183.000 333.331 C 181.460 333.329,180.781 333.400,181.491 333.489 M7.324 340.600 C 7.326 341.920,7.401 342.412,7.490 341.693 C 7.579 340.974,7.577 339.894,7.486 339.293 C 7.395 338.692,7.322 339.280,7.324 340.600 M7.320 345.200 C 7.320 346.410,7.395 346.905,7.487 346.300 C 7.578 345.695,7.578 344.705,7.487 344.100 C 7.395 343.495,7.320 343.990,7.320 345.200 M202.100 367.091 C 202.925 367.178,204.275 367.178,205.100 367.091 C 205.925 367.005,205.250 366.934,203.600 366.934 C 201.950 366.934,201.275 367.005,202.100 367.091 " stroke="none" fill="#744145" fill-rule="evenodd"></path><path id="path4" d="M202.707 26.290 C 203.426 26.379,204.506 26.377,205.107 26.286 C 205.708 26.195,205.120 26.122,203.800 26.124 C 202.480 26.126,201.988 26.201,202.707 26.290 M341.693 30.000 C 341.693 30.770,341.775 31.085,341.876 30.700 C 341.976 30.315,341.976 29.685,341.876 29.300 C 341.775 28.915,341.693 29.230,341.693 30.000 M201.715 44.296 C 202.988 44.376,204.968 44.375,206.115 44.294 C 207.262 44.214,206.220 44.149,203.800 44.150 C 201.380 44.151,200.442 44.216,201.715 44.296 M98.975 85.700 L 97.800 87.000 99.100 85.825 C 100.312 84.730,100.584 84.400,100.275 84.400 C 100.206 84.400,99.621 84.985,98.975 85.700 M33.301 189.400 C 33.305 190.280,33.387 190.593,33.483 190.095 C 33.579 189.598,33.575 188.878,33.475 188.495 C 33.375 188.113,33.296 188.520,33.301 189.400 M51.309 191.200 C 51.309 192.190,51.387 192.595,51.482 192.100 C 51.578 191.605,51.578 190.795,51.482 190.300 C 51.387 189.805,51.309 190.210,51.309 191.200 M51.301 201.800 C 51.305 202.680,51.387 202.993,51.483 202.495 C 51.579 201.998,51.575 201.278,51.475 200.895 C 51.375 200.513,51.296 200.920,51.301 201.800 M33.301 203.800 C 33.305 204.680,33.387 204.993,33.483 204.495 C 33.579 203.998,33.575 203.278,33.475 202.895 C 33.375 202.513,33.296 202.920,33.301 203.800 M184.575 256.100 L 183.400 257.400 184.700 256.225 C 185.912 255.130,186.184 254.800,185.875 254.800 C 185.806 254.800,185.221 255.385,184.575 256.100 M175.775 265.300 L 174.600 266.600 175.900 265.425 C 177.112 264.330,177.384 264.000,177.075 264.000 C 177.006 264.000,176.421 264.585,175.775 265.300 M106.512 272.295 C 107.564 272.377,109.184 272.376,110.112 272.292 C 111.040 272.208,110.180 272.141,108.200 272.142 C 106.220 272.143,105.460 272.212,106.512 272.295 M113.700 272.291 C 114.525 272.378,115.875 272.378,116.700 272.291 C 117.525 272.205,116.850 272.134,115.200 272.134 C 113.550 272.134,112.875 272.205,113.700 272.291 M177.300 333.476 C 177.685 333.576,178.315 333.576,178.700 333.476 C 179.085 333.375,178.770 333.293,178.000 333.293 C 177.230 333.293,176.915 333.375,177.300 333.476 M187.700 333.476 C 188.085 333.576,188.715 333.576,189.100 333.476 C 189.485 333.375,189.170 333.293,188.400 333.293 C 187.630 333.293,187.315 333.375,187.700 333.476 M201.100 349.096 C 202.475 349.174,204.725 349.174,206.100 349.096 C 207.475 349.018,206.350 348.954,203.600 348.954 C 200.850 348.954,199.725 349.018,201.100 349.096 M197.105 367.083 C 197.602 367.179,198.322 367.175,198.705 367.075 C 199.087 366.975,198.680 366.896,197.800 366.901 C 196.920 366.905,196.607 366.987,197.105 367.083 M209.105 367.083 C 209.602 367.179,210.322 367.175,210.705 367.075 C 211.087 366.975,210.680 366.896,209.800 366.901 C 208.920 366.905,208.607 366.987,209.105 367.083 M22.185 393.700 L 20.200 395.800 22.300 393.815 C 23.455 392.723,24.400 391.778,24.400 391.715 C 24.400 391.417,24.029 391.749,22.185 393.700 " stroke="none" fill="#8c8c8c" fill-rule="evenodd"></path><path id="path5" d="M380.175 89.300 L 379.000 90.600 380.300 89.425 C 381.015 88.779,381.600 88.194,381.600 88.125 C 381.600 87.816,381.270 88.088,380.175 89.300 " stroke="none" fill="#848484" fill-rule="evenodd"></path><path id="path6" d="M343.200 15.138 C 343.200 15.324,343.605 15.819,344.100 16.238 C 344.999 16.999,344.999 16.999,344.299 16.168 C 343.914 15.710,343.719 15.215,343.866 15.068 C 344.013 14.920,343.923 14.800,343.667 14.800 C 343.410 14.800,343.200 14.952,343.200 15.138 M254.524 30.200 C 254.526 31.520,254.601 32.012,254.690 31.293 C 254.779 30.574,254.777 29.494,254.686 28.893 C 254.595 28.292,254.522 28.880,254.524 30.200 M374.000 28.125 C 374.000 28.194,374.585 28.779,375.300 29.425 L 376.600 30.600 375.425 29.300 C 374.330 28.088,374.000 27.816,374.000 28.125 M275.705 47.887 C 276.314 47.979,277.214 47.977,277.705 47.882 C 278.197 47.787,277.700 47.711,276.600 47.714 C 275.500 47.717,275.097 47.795,275.705 47.887 M328.900 47.876 C 329.285 47.976,329.915 47.976,330.300 47.876 C 330.685 47.775,330.370 47.693,329.600 47.693 C 328.830 47.693,328.515 47.775,328.900 47.876 M385.693 53.200 C 385.693 53.970,385.775 54.285,385.876 53.900 C 385.976 53.515,385.976 52.885,385.876 52.500 C 385.775 52.115,385.693 52.430,385.693 53.200 M385.693 60.400 C 385.693 61.170,385.775 61.485,385.876 61.100 C 385.976 60.715,385.976 60.085,385.876 59.700 C 385.775 59.315,385.693 59.630,385.693 60.400 M211.737 66.200 C 211.739 67.960,211.809 68.630,211.893 67.689 C 211.978 66.749,211.977 65.309,211.891 64.489 C 211.805 63.670,211.736 64.440,211.737 66.200 M153.100 102.689 C 153.815 102.778,154.985 102.778,155.700 102.689 C 156.415 102.601,155.830 102.528,154.400 102.528 C 152.970 102.528,152.385 102.601,153.100 102.689 M108.520 256.298 C 110.455 256.372,113.515 256.371,115.320 256.297 C 117.124 256.223,115.540 256.163,111.800 256.164 C 108.060 256.164,106.584 256.225,108.520 256.298 M123.300 256.676 C 123.685 256.776,124.315 256.776,124.700 256.676 C 125.085 256.575,124.770 256.493,124.000 256.493 C 123.230 256.493,122.915 256.575,123.300 256.676 M191.387 259.700 L 189.000 262.200 191.500 259.813 C 193.822 257.595,194.183 257.200,193.887 257.200 C 193.826 257.200,192.701 258.325,191.387 259.700 M183.387 268.100 L 181.000 270.600 183.500 268.213 C 185.822 265.995,186.183 265.600,185.887 265.600 C 185.826 265.600,184.701 266.725,183.387 268.100 M100.700 279.882 C 101.195 279.978,102.005 279.978,102.500 279.882 C 102.995 279.787,102.590 279.709,101.600 279.709 C 100.610 279.709,100.205 279.787,100.700 279.882 M119.705 279.887 C 120.314 279.979,121.214 279.977,121.705 279.882 C 122.197 279.787,121.700 279.711,120.600 279.714 C 119.500 279.717,119.097 279.795,119.705 279.887 M126.500 280.276 C 126.885 280.376,127.515 280.376,127.900 280.276 C 128.285 280.175,127.970 280.093,127.200 280.093 C 126.430 280.093,126.115 280.175,126.500 280.276 M132.100 280.676 C 132.485 280.776,133.115 280.776,133.500 280.676 C 133.885 280.575,133.570 280.493,132.800 280.493 C 132.030 280.493,131.715 280.575,132.100 280.676 M137.700 281.076 C 138.085 281.176,138.715 281.176,139.100 281.076 C 139.485 280.975,139.170 280.893,138.400 280.893 C 137.630 280.893,137.315 280.975,137.700 281.076 M144.105 281.487 C 144.714 281.579,145.614 281.577,146.105 281.482 C 146.597 281.387,146.100 281.311,145.000 281.314 C 143.900 281.317,143.497 281.395,144.105 281.487 M156.705 281.483 C 157.202 281.579,157.922 281.575,158.305 281.475 C 158.687 281.375,158.280 281.296,157.400 281.301 C 156.520 281.305,156.207 281.387,156.705 281.483 M249.992 299.900 L 246.200 303.800 250.100 300.008 C 253.722 296.486,254.182 296.000,253.892 296.000 C 253.833 296.000,252.078 297.755,249.992 299.900 M87.375 315.700 L 86.200 317.000 87.500 315.825 C 88.712 314.730,88.984 314.400,88.675 314.400 C 88.606 314.400,88.021 314.985,87.375 315.700 M175.700 325.876 C 176.085 325.976,176.715 325.976,177.100 325.876 C 177.485 325.775,177.170 325.693,176.400 325.693 C 175.630 325.693,175.315 325.775,175.700 325.876 M189.500 325.882 C 189.995 325.978,190.805 325.978,191.300 325.882 C 191.795 325.787,191.390 325.709,190.400 325.709 C 189.410 325.709,189.005 325.787,189.500 325.882 M14.534 342.000 C 14.534 343.650,14.605 344.325,14.691 343.500 C 14.778 342.675,14.778 341.325,14.691 340.500 C 14.605 339.675,14.534 340.350,14.534 342.000 " stroke="none" fill="#a30c1e" fill-rule="evenodd"></path><path id="path7" d="" stroke="none" fill="#c84c54" fill-rule="evenodd"></path><path id="path8" d="" stroke="none" fill="#c85014" fill-rule="evenodd"></path></g></svg>