<svg id="svg" xmlns="http://www.w3.org/2000/svg" xmlns:xlink="http://www.w3.org/1999/xlink" width="400" height="328.4683239775461" viewBox="0, 0, 400,328.4683239775461"><g id="svgg"><path id="path0" d="M192.995 93.851 C 189.148 110.068,185.928 123.589,185.841 123.897 C 185.692 124.424,186.328 124.459,196.005 124.459 L 206.328 124.459 206.143 123.095 C 206.041 122.346,204.720 109.246,203.208 93.986 C 201.696 78.725,200.354 65.818,200.225 65.303 C 200.046 64.587,198.344 71.309,192.995 93.851 M216.283 124.689 C 216.771 124.763,217.493 124.761,217.887 124.685 C 218.282 124.608,217.883 124.548,217.001 124.550 C 216.119 124.553,215.796 124.615,216.283 124.689 M119.710 179.223 L 95.876 219.246 80.093 226.945 L 64.310 234.643 92.540 234.804 C 119.581 234.957,120.696 234.987,119.006 235.502 C 115.154 236.677,113.380 237.158,113.128 237.097 C 112.982 237.062,112.945 237.166,113.045 237.328 C 113.177 237.540,82.726 265.669,73.307 274.036 C 72.359 274.877,70.613 275.797,110.725 254.325 L 147.191 234.804 153.387 234.801 C 165.981 234.795,181.962 233.248,191.820 231.081 C 217.206 225.499,234.994 213.844,247.772 194.418 C 259.993 175.840,263.426 159.437,257.882 146.120 C 257.322 144.775,256.744 143.718,256.597 143.770 C 252.961 145.060,235.782 153.922,235.892 154.451 C 235.966 154.804,236.254 156.103,236.532 157.338 C 238.063 164.136,236.380 173.588,232.078 182.358 C 222.631 201.612,203.502 214.354,178.669 217.934 C 171.076 219.028,167.242 219.117,131.705 219.021 L 96.450 218.925 112.254 211.172 L 128.057 203.418 129.094 201.709 C 129.664 200.769,135.061 191.947,141.088 182.104 C 147.114 172.261,152.045 164.168,152.045 164.121 C 152.045 164.074,149.311 161.878,145.970 159.243 C 142.629 156.607,139.887 154.334,139.876 154.192 C 139.844 153.777,197.705 154.144,200.160 154.575 C 208.354 156.011,214.595 159.967,214.595 163.723 C 214.595 164.149,234.411 154.802,235.230 153.989 C 236.443 152.787,230.669 146.312,226.081 143.730 C 218.686 139.568,217.376 139.448,177.546 139.315 L 143.545 139.200 119.710 179.223 M59.022 143.862 C 59.022 143.926,66.347 149.863,75.301 157.055 C 84.254 164.247,93.069 171.338,94.890 172.815 C 96.711 174.291,98.386 175.570,98.614 175.657 C 98.995 175.803,108.991 159.558,108.695 159.275 C 108.632 159.215,104.611 157.935,99.759 156.430 C 94.908 154.925,84.370 151.659,76.343 149.171 C 68.316 146.683,61.135 144.444,60.385 144.196 C 59.635 143.947,59.022 143.797,59.022 143.862 M290.778 150.308 C 276.488 153.908,264.561 156.800,264.274 156.735 C 263.861 156.641,263.976 157.102,264.822 158.934 C 266.096 161.689,267.367 165.931,267.687 168.488 C 267.813 169.500,267.961 170.329,268.016 170.329 C 268.211 170.329,316.447 144.244,316.744 143.978 C 317.120 143.641,320.965 142.704,290.778 150.308 M186.127 232.779 C 186.435 232.860,186.941 232.860,187.249 232.779 C 187.558 232.699,187.306 232.633,186.688 232.633 C 186.071 232.633,185.818 232.699,186.127 232.779 M209.944 232.893 C 208.003 233.017,204.852 233.136,202.940 233.159 C 201.029 233.181,199.513 233.320,199.572 233.466 C 199.883 234.241,221.150 274.226,221.216 274.160 C 221.314 274.062,217.192 234.268,216.982 233.280 C 216.809 232.468,216.691 232.462,209.944 232.893 M193.986 233.105 C 194.383 233.182,195.032 233.182,195.429 233.105 C 195.826 233.029,195.501 232.966,194.707 232.966 C 193.913 232.966,193.589 233.029,193.986 233.105 " stroke="none" fill="#8c8c8c" fill-rule="evenodd"></path><path id="path1" d="M181.793 94.226 L 163.640 124.298 146.696 124.459 L 129.751 124.619 124.056 134.082 L 118.360 143.545 88.813 143.705 L 59.265 143.865 76.224 149.129 C 85.552 152.024,96.648 155.466,100.882 156.777 C 105.116 158.088,108.633 159.211,108.696 159.273 C 108.760 159.335,106.721 162.895,104.165 167.183 C 101.609 171.471,99.199 175.547,98.810 176.240 C 97.486 178.598,64.385 233.999,64.028 234.455 C 63.735 234.829,63.785 234.854,64.314 234.597 C 64.667 234.425,71.912 230.901,80.414 226.765 L 95.873 219.246 119.709 179.223 L 143.545 139.200 177.546 139.315 C 210.532 139.425,211.653 139.449,215.076 140.104 C 225.014 142.007,231.611 146.091,234.770 152.296 C 235.684 154.093,236.552 153.487,225.018 159.108 L 214.871 164.053 215.077 165.155 C 217.484 177.986,204.021 195.088,187.315 200.422 C 179.222 203.005,174.532 203.366,149.006 203.367 L 128.164 203.368 112.306 211.147 L 96.448 218.925 131.704 219.021 C 167.242 219.117,171.076 219.028,178.669 217.934 C 203.502 214.354,222.631 201.612,232.078 182.358 C 236.380 173.588,238.063 164.136,236.532 157.338 C 236.254 156.103,235.966 154.804,235.892 154.451 C 235.776 153.893,237.102 153.160,246.056 148.837 C 251.720 146.103,256.411 143.775,256.479 143.665 C 257.010 142.812,251.452 136.353,247.960 133.765 C 238.128 126.479,230.064 124.809,203.448 124.552 C 193.701 124.457,185.727 124.362,185.727 124.339 C 185.728 124.317,188.950 110.766,192.887 94.226 C 196.824 77.686,200.023 64.154,199.996 64.154 C 199.969 64.154,191.778 77.686,181.793 94.226 M257.110 144.266 C 257.244 144.575,257.801 145.982,258.350 147.394 C 258.898 148.805,259.944 150.754,260.673 151.724 C 261.402 152.694,262.460 154.246,263.024 155.172 C 264.290 157.253,260.500 157.918,290.778 150.300 L 316.760 143.763 286.814 143.734 C 258.409 143.706,256.880 143.734,257.110 144.266 M176.746 233.300 C 173.588 233.719,171.510 234.131,171.591 234.322 C 171.704 234.587,181.120 242.219,220.035 273.586 L 221.466 274.739 220.490 272.975 C 219.953 272.005,215.003 262.678,209.490 252.249 L 199.465 233.286 193.959 233.076 C 190.930 232.960,187.009 232.806,185.245 232.732 C 183.073 232.642,180.328 232.826,176.746 233.300 M102.646 240.045 L 91.901 242.983 88.023 249.399 C 85.890 252.927,81.670 259.897,78.646 264.888 C 75.622 269.879,73.337 273.848,73.567 273.709 C 74.608 273.080,114.052 236.872,113.472 237.077 C 113.428 237.093,108.557 238.428,102.646 240.045 " stroke="none" fill="#f8f8f8" fill-rule="evenodd"></path><path id="path2" d="M212.602 2.786 C 211.647 4.341,197.538 27.662,181.249 54.611 L 151.634 103.609 134.726 103.609 L 117.818 103.609 112.125 113.232 L 106.432 122.855 53.177 122.855 C 8.259 122.855,-0.022 122.923,0.284 123.292 C 0.484 123.532,16.591 136.560,36.079 152.241 C 60.684 172.041,71.460 180.898,71.343 181.226 C 71.251 181.486,61.296 198.258,49.221 218.497 C 37.145 238.736,27.265 255.375,27.265 255.474 C 27.265 255.573,34.567 255.654,43.491 255.654 C 52.415 255.654,59.669 255.771,59.610 255.916 C 59.551 256.060,49.709 272.380,37.738 292.183 C 25.767 311.987,16.053 328.269,16.150 328.366 C 16.247 328.463,46.971 312.156,84.426 292.127 L 152.526 255.712 158.408 255.574 L 164.290 255.436 205.561 288.718 C 228.260 307.023,246.874 321.823,246.924 321.607 C 246.975 321.391,245.062 301.831,242.674 278.140 C 237.584 227.648,237.929 233.978,240.181 232.413 C 252.228 224.041,263.504 210.550,271.992 194.352 L 273.943 190.628 336.731 157.028 C 371.264 138.549,399.656 123.300,399.824 123.142 C 400.003 122.973,372.821 122.855,333.805 122.855 L 267.482 122.855 265.016 120.686 C 254.993 111.871,243.544 106.788,229.030 104.711 C 227.001 104.421,225.285 104.131,225.218 104.067 C 225.150 104.003,222.751 80.629,219.887 52.125 C 217.023 23.620,214.603 0.222,214.510 0.128 C 214.416 0.035,213.557 1.230,212.602 2.786 M214.109 65.597 C 216.503 89.591,218.569 109.583,218.700 110.024 C 218.929 110.792,219.083 110.836,222.300 111.064 C 238.265 112.197,251.881 117.743,261.257 126.932 L 264.135 129.751 318.073 129.912 L 372.011 130.072 321.963 156.856 C 294.437 171.588,271.124 184.074,270.156 184.603 C 268.407 185.560,268.382 185.595,265.616 191.018 C 257.471 206.992,246.752 219.486,233.441 228.523 C 230.673 230.402,230.645 230.434,230.811 231.570 C 231.122 233.704,238.349 305.784,238.260 305.868 C 238.211 305.914,222.079 292.985,202.410 277.137 L 166.649 248.321 158.515 248.510 L 150.380 248.698 92.967 279.439 C 61.389 296.346,35.391 310.279,35.193 310.401 C 34.734 310.685,33.554 312.666,54.327 278.268 L 72.148 248.757 55.833 248.597 L 39.518 248.436 60.222 213.823 C 77.519 184.906,80.848 179.151,80.451 178.859 C 80.190 178.666,66.443 167.610,49.902 154.290 L 19.828 130.072 65.148 129.912 L 110.469 129.751 116.151 120.289 L 121.833 110.826 138.778 110.666 L 155.723 110.505 180.028 70.249 C 210.925 19.072,209.563 21.305,209.668 21.666 C 209.718 21.835,211.716 41.604,214.109 65.597 " stroke="none" fill="#046b43" fill-rule="evenodd"></path><path id="path3" d="M206.955 25.675 C 205.513 28.049,193.395 48.107,180.028 70.249 L 155.723 110.505 138.778 110.666 L 121.833 110.826 116.151 120.289 L 110.469 129.751 65.148 129.912 L 19.828 130.072 49.902 154.290 C 66.443 167.610,80.190 178.666,80.451 178.859 C 80.848 179.151,77.519 184.906,60.222 213.823 L 39.518 248.436 55.833 248.597 L 72.148 248.757 54.327 278.268 C 33.554 312.666,34.734 310.685,35.193 310.401 C 35.391 310.279,61.389 296.346,92.967 279.439 L 150.380 248.698 158.515 248.510 L 166.649 248.321 202.410 277.137 C 222.079 292.985,238.211 305.914,238.260 305.868 C 238.349 305.784,231.122 233.704,230.811 231.570 C 230.645 230.434,230.673 230.402,233.441 228.523 C 246.752 219.486,257.471 206.992,265.616 191.018 C 268.382 185.595,268.407 185.560,270.156 184.603 C 271.124 184.074,294.437 171.588,321.963 156.856 L 372.011 130.072 318.073 129.912 L 264.135 129.751 261.257 126.932 C 251.881 117.743,238.265 112.197,222.300 111.064 C 219.083 110.836,218.929 110.792,218.700 110.024 C 218.569 109.583,216.503 89.591,214.109 65.597 C 211.716 41.604,209.718 21.835,209.668 21.666 C 209.619 21.497,208.398 23.301,206.955 25.675 M203.385 94.387 L 206.395 124.459 212.983 124.459 C 233.701 124.459,248.919 130.552,255.654 141.544 L 256.776 143.376 287.233 143.380 C 308.329 143.383,317.588 143.487,317.357 143.718 C 316.944 144.130,268.502 170.329,268.152 170.329 C 268.013 170.329,267.804 169.715,267.687 168.966 C 266.884 163.801,264.206 157.005,261.396 153.000 C 259.809 150.737,259.710 150.740,260.163 153.035 C 264.181 173.433,245.723 205.655,221.898 219.834 C 212.715 225.298,194.239 231.770,186.340 232.288 C 185.914 232.316,186.864 232.445,188.452 232.575 C 192.879 232.937,208.837 232.913,213.108 232.538 C 215.202 232.355,216.950 232.248,216.993 232.301 C 217.166 232.514,221.370 273.650,221.274 274.194 C 221.195 274.639,215.152 269.923,195.990 254.465 L 170.810 234.152 169.527 234.322 C 167.690 234.565,154.445 235.117,150.341 235.121 L 146.872 235.124 109.771 254.993 C 89.365 265.920,72.629 274.821,72.579 274.771 C 72.430 274.622,91.429 243.330,91.883 242.976 C 92.114 242.796,98.420 240.992,105.895 238.967 L 119.487 235.285 91.511 235.124 L 63.536 234.964 80.892 205.934 C 90.439 189.968,98.310 176.679,98.384 176.404 C 98.478 176.056,92.360 170.956,78.375 159.724 L 58.230 143.545 88.253 143.463 L 118.275 143.381 123.947 133.923 L 129.619 124.464 146.514 124.381 L 163.409 124.298 181.670 94.047 C 191.713 77.409,200.031 63.913,200.153 64.055 C 200.276 64.198,201.730 77.847,203.385 94.387 M140.497 154.406 C 140.497 154.488,143.161 156.682,146.418 159.281 C 151.785 163.566,152.305 164.068,151.990 164.657 C 151.627 165.335,131.754 197.846,129.529 201.400 L 128.251 203.442 150.172 203.267 C 172.249 203.091,174.971 202.959,181.297 201.760 C 197.770 198.638,211.922 186.037,214.771 171.955 C 216.621 162.810,212.696 157.577,202.211 155.209 C 199.236 154.538,140.497 153.773,140.497 154.406 " stroke="none" fill="#131414" fill-rule="evenodd"></path><path id="path4" d="M152.767 154.210 C 159.956 154.258,171.720 154.258,178.909 154.210 C 186.099 154.162,180.217 154.123,165.838 154.123 C 151.460 154.123,145.577 154.162,152.767 154.210 M198.957 233.116 C 199.972 233.180,201.632 233.180,202.646 233.116 C 203.661 233.052,202.831 233.000,200.802 233.000 C 198.773 233.000,197.943 233.052,198.957 233.116 M151.006 235.030 C 151.405 235.107,151.983 235.104,152.289 235.024 C 152.596 234.944,152.269 234.881,151.564 234.884 C 150.858 234.888,150.607 234.954,151.006 235.030 " stroke="none" fill="#61615f" fill-rule="evenodd"></path><path id="path5" d="" stroke="none" fill="#848484" fill-rule="evenodd"></path><path id="path6" d="M192.221 154.191 C 192.530 154.271,193.035 154.271,193.344 154.191 C 193.653 154.110,193.400 154.044,192.783 154.044 C 192.165 154.044,191.913 154.110,192.221 154.191 M78.188 235.044 C 85.994 235.092,98.769 235.092,106.576 235.044 C 114.383 234.996,107.995 234.957,92.382 234.957 C 76.768 234.957,70.381 234.996,78.188 235.044 M147.800 235.036 C 148.377 235.107,149.243 235.106,149.725 235.033 C 150.207 234.960,149.735 234.901,148.677 234.903 C 147.618 234.905,147.224 234.965,147.800 235.036 " stroke="none" fill="#7c7c7c" fill-rule="evenodd"></path><path id="path7" d="M73.697 143.625 C 81.856 143.672,95.209 143.672,103.368 143.625 C 111.528 143.577,104.852 143.538,88.532 143.538 C 72.213 143.538,65.537 143.577,73.697 143.625 M271.933 143.625 C 280.269 143.672,293.909 143.672,302.245 143.625 C 310.581 143.577,303.761 143.538,287.089 143.538 C 270.417 143.538,263.597 143.577,271.933 143.625 M153.087 235.025 C 153.396 235.105,153.901 235.105,154.210 235.025 C 154.519 234.944,154.266 234.878,153.649 234.878 C 153.031 234.878,152.779 234.944,153.087 235.025 " stroke="none" fill="#444444" fill-rule="evenodd"></path><path id="path8" d="M155.012 235.025 C 155.321 235.105,155.826 235.105,156.135 235.025 C 156.443 234.944,156.191 234.878,155.573 234.878 C 154.956 234.878,154.703 234.944,155.012 235.025 " stroke="none" fill="#383838" fill-rule="evenodd"></path></g></svg>