<svg id="svg" xmlns="http://www.w3.org/2000/svg" xmlns:xlink="http://www.w3.org/1999/xlink" width="400" height="340.4821280133001" viewBox="0, 0, 400,340.4821280133001"><g id="svgg"><path id="path0" d="M274.979 4.192 C 253.954 6.049,238.131 11.325,204.323 27.749 C 182.418 38.391,173.631 41.131,167.492 39.235 C 163.325 37.948,156.401 32.265,150.678 25.436 L 149.285 23.774 147.502 25.694 C 142.202 31.402,141.218 40.384,144.926 49.210 C 146.191 52.221,146.302 52.155,143.306 50.163 C 115.443 31.638,77.673 38.385,64.360 64.265 L 63.144 66.630 60.265 67.743 C 53.183 70.481,48.030 73.836,40.280 80.756 C 31.712 88.406,27.635 90.606,20.713 91.315 C 19.562 91.433,18.620 91.624,18.620 91.740 C 18.620 92.645,20.208 97.327,21.156 99.215 C 25.838 108.543,34.203 113.728,46.467 114.901 C 49.329 115.175,49.288 115.022,47.264 117.903 C 40.533 127.481,27.419 134.293,9.848 137.339 C 5.467 138.098,5.645 137.935,7.080 139.889 C 18.657 155.661,50.581 160.018,72.984 148.884 C 74.778 147.992,74.141 148.552,71.304 150.360 C 63.074 155.607,59.236 161.300,55.661 173.566 C 51.626 187.408,48.068 192.467,38.670 197.722 L 36.433 198.973 38.416 199.890 C 40.831 201.007,46.873 203.007,48.757 203.314 L 50.133 203.537 50.357 206.424 C 51.120 216.270,53.053 227.056,55.535 235.323 C 56.049 237.038,56.371 238.395,56.249 238.339 C 56.127 238.284,54.901 237.682,53.525 237.004 C 48.891 234.718,42.085 233.670,36.305 234.351 C 32.805 234.764,32.882 234.522,35.218 237.781 C 40.781 245.539,43.492 253.021,44.403 263.127 C 46.902 290.856,60.284 308.668,80.312 310.922 C 87.871 311.772,97.123 309.723,103.066 305.882 C 105.364 304.397,105.500 304.603,104.089 307.428 C 101.296 313.016,94.604 318.580,84.873 323.406 C 82.451 324.607,80.548 325.717,80.645 325.873 C 82.205 328.398,94.012 333.927,100.748 335.288 C 114.515 338.069,122.438 335.166,137.814 321.709 C 156.871 305.031,166.544 304.016,195.844 315.620 C 223.151 326.435,236.823 328.613,258.937 325.675 C 293.841 321.037,326.840 300.323,352.563 266.906 C 368.588 246.087,381.691 218.844,384.223 201.079 L 384.448 199.499 337.995 199.583 L 291.542 199.667 290.422 202.443 C 279.990 228.304,261.990 240.575,242.228 235.301 C 215.987 228.297,207.367 195.335,221.302 155.278 C 234.946 116.058,265.046 89.161,291.354 92.681 C 307.354 94.822,313.576 112.825,306.295 135.910 L 305.639 137.988 348.803 137.988 L 391.967 137.988 392.472 135.744 C 406.572 73.150,370.024 17.819,306.899 6.189 C 298.105 4.569,282.073 3.566,274.979 4.192 M292.436 13.300 C 337.355 17.378,372.981 45.888,383.408 86.100 C 386.875 99.474,387.202 117.821,384.162 128.429 C 384.004 128.978,382.126 129.011,350.729 129.011 L 317.462 129.011 317.627 128.263 C 317.718 127.851,318.041 126.617,318.346 125.520 C 322.954 108.914,314.070 90.025,299.097 84.590 C 291.570 81.858,280.525 82.275,270.334 85.676 C 222.441 101.659,189.450 179.665,212.192 223.152 C 217.557 233.412,226.833 241.111,237.569 244.214 C 261.750 251.205,282.764 240.267,295.841 213.882 L 298.354 208.811 335.046 208.811 L 371.737 208.811 371.735 209.559 C 371.722 214.367,364.794 231.247,358.534 241.729 C 326.017 296.171,269.684 326.262,222.278 314.512 C 216.590 313.102,209.946 310.801,199.830 306.736 C 167.211 293.631,153.214 295.018,133.685 313.293 C 124.274 322.100,121.068 324.479,116.043 326.384 C 111.694 328.033,103.650 327.777,98.520 325.827 C 97.670 325.504,97.717 325.453,100.214 323.991 C 107.393 319.789,110.834 314.750,116.201 300.582 C 123.035 282.543,129.007 275.985,143.130 271.010 C 144.770 270.433,146.161 269.909,146.223 269.847 C 146.285 269.786,145.081 269.281,143.547 268.726 C 137.902 266.683,133.206 266.566,121.031 268.166 C 108.608 269.798,101.483 269.614,94.926 267.495 C 75.159 261.104,60.403 237.937,58.976 211.056 C 58.724 206.300,58.848 206.091,60.485 208.504 C 67.454 218.776,80.219 224.876,93.599 224.328 C 101.067 224.022,104.805 222.942,115.378 218.033 C 123.932 214.062,128.973 212.340,134.996 211.334 L 139.485 210.584 136.991 208.111 C 132.762 203.918,126.463 201.215,115.046 198.694 C 105.275 196.538,103.293 195.538,94.929 188.549 C 82.681 178.313,79.007 178.238,69.327 188.031 C 62.852 194.581,60.777 195.847,56.100 196.106 L 53.367 196.257 54.780 195.127 C 59.006 191.748,61.072 187.309,63.790 175.769 C 67.725 159.062,79.643 151.291,96.207 154.629 C 100.480 155.490,105.886 157.316,112.308 160.066 C 119.391 163.100,124.413 164.607,124.335 163.674 C 124.323 163.537,123.172 162.602,121.776 161.596 C 118.186 159.009,111.443 152.236,107.211 146.966 C 99.071 136.829,95.727 134.885,86.451 134.898 C 79.516 134.907,77.347 135.619,66.168 141.551 C 53.275 148.392,38.875 149.143,27.764 143.554 C 24.740 142.033,24.584 142.266,29.691 140.672 C 38.710 137.857,45.250 133.237,53.430 123.903 C 68.130 107.128,76.601 103.089,97.091 103.088 C 107.251 103.088,112.582 104.067,123.691 107.973 C 134.235 111.681,139.987 113.065,144.755 113.040 L 146.800 113.030 145.802 112.293 C 136.012 105.062,128.121 96.702,118.850 83.737 C 109.574 70.765,105.210 66.630,98.421 64.384 C 89.758 61.517,79.769 63.011,72.895 68.201 C 70.546 69.974,70.529 69.827,72.707 66.566 C 83.198 50.858,104.328 44.022,123.139 50.252 C 127.547 51.712,133.157 54.547,141.480 59.523 C 157.555 69.133,166.813 72.531,179.884 73.620 L 182.045 73.800 179.636 72.665 C 164.687 65.617,153.690 52.807,152.086 40.572 L 151.848 38.750 153.789 40.847 C 165.269 53.247,177.010 51.765,215.295 33.084 C 242.995 19.568,256.664 14.961,274.314 13.191 C 277.006 12.921,289.058 12.994,292.436 13.300 M82.627 73.827 C 92.179 75.185,101.208 80.075,108.672 87.933 C 111.555 90.969,111.549 90.997,108.185 90.144 C 96.765 87.249,91.249 88.467,79.246 96.534 C 68.685 103.632,62.281 105.732,51.091 105.767 C 41.591 105.796,33.944 102.943,30.134 97.948 C 28.960 96.409,29.018 96.217,30.727 95.982 C 34.541 95.460,38.511 93.138,46.749 86.611 C 60.535 75.689,70.571 72.113,82.627 73.827 M84.289 190.810 C 85.021 191.143,87.116 192.655,88.944 194.169 C 95.946 199.969,103.611 204.190,112.469 207.125 C 115.279 208.055,115.294 207.990,111.804 210.053 C 94.333 220.382,74.848 217.308,66.421 202.893 L 65.842 201.904 67.601 201.043 C 68.854 200.430,70.550 198.957,73.499 195.920 C 79.004 190.252,80.991 189.311,84.289 190.810 M51.797 245.826 C 55.786 248.195,58.010 250.723,63.845 259.518 C 73.037 273.372,77.685 277.144,87.008 278.316 C 92.321 278.983,95.294 278.411,106.068 274.647 C 115.952 271.194,121.133 270.717,127.283 272.695 L 128.382 273.048 125.122 275.035 C 118.873 278.844,115.097 282.102,108.172 289.664 C 98.438 300.294,93.420 302.855,83.006 302.505 C 66.635 301.956,54.563 285.651,52.532 261.348 C 52.040 255.465,51.352 252.056,49.851 248.070 C 49.133 246.163,48.545 244.544,48.545 244.473 C 48.545 244.181,50.152 244.850,51.797 245.826 " stroke="none" fill="#f3ba53" fill-rule="evenodd"></path><path id="path1" d="M269.437 0.516 C 250.097 2.627,234.151 7.947,205.985 21.685 C 174.764 36.913,170.062 37.950,162.116 31.354 C 159.531 29.208,155.391 24.332,152.535 20.069 L 150.477 16.997 149.137 17.726 C 142.865 21.135,138.323 29.100,138.057 37.157 C 137.899 41.926,137.924 41.882,135.969 40.885 C 126.936 36.277,109.432 33.949,98.204 35.861 C 82.127 38.601,66.491 49.108,60.676 61.079 C 59.735 63.015,59.730 63.020,56.574 64.344 C 49.511 67.306,43.766 71.052,37.143 77.016 C 28.525 84.776,23.895 87.153,15.784 87.985 C 13.289 88.240,13.239 88.372,14.104 92.436 C 16.930 105.719,25.882 115.105,38.852 118.381 C 40.628 118.830,40.453 119.104,36.514 122.042 C 29.758 127.082,18.313 131.439,6.318 133.537 C 3.666 134.000,1.141 134.451,0.707 134.538 C -1.002 134.881,0.574 139.364,3.872 143.541 C 13.274 155.446,34.156 162.127,53.152 159.307 C 56.565 158.801,56.442 158.628,54.840 161.686 C 53.251 164.717,52.658 166.384,50.681 173.367 C 47.279 185.384,41.909 191.948,31.172 197.213 C 28.474 198.537,28.493 198.395,30.743 200.401 C 33.163 202.558,36.917 204.512,41.747 206.127 L 45.719 207.456 45.807 208.716 C 46.206 214.416,47.789 224.422,49.020 229.025 C 49.452 230.643,49.445 230.771,48.935 230.617 C 44.131 229.167,33.529 229.494,28.001 231.263 C 24.175 232.488,24.221 232.344,26.822 234.952 C 34.830 242.983,38.736 251.808,39.904 264.505 C 42.757 295.549,59.169 314.562,83.919 315.498 L 89.535 315.711 86.247 317.581 C 83.537 319.123,76.462 322.441,74.050 323.302 C 73.130 323.630,73.784 324.563,77.603 328.375 C 86.221 336.976,94.954 340.324,108.728 340.306 C 120.844 340.291,124.905 338.472,139.125 326.690 C 159.365 309.920,168.341 308.921,195.844 320.372 C 211.993 327.096,220.257 329.362,232.751 330.492 C 287.553 335.447,344.190 299.805,374.593 241.230 C 382.309 226.363,389.692 204.031,389.692 195.557 L 389.692 194.846 338.975 194.846 C 290.966 194.846,288.248 194.877,288.072 195.428 C 278.040 226.735,255.475 240.150,235.060 226.943 C 208.751 209.924,217.025 150.692,250.599 115.699 C 269.725 95.764,296.343 91.202,302.199 106.855 C 305.153 114.751,303.869 130.986,299.415 142.062 C 299.193 142.614,301.608 142.643,347.376 142.643 L 395.570 142.643 396.284 139.978 C 408.405 94.691,392.314 47.705,355.897 22.044 C 332.253 5.384,299.515 -2.768,269.437 0.516 M296.259 4.519 C 365.034 11.427,406.566 67.353,392.890 134.636 L 392.174 138.155 348.833 138.239 L 305.491 138.323 305.666 137.574 C 305.762 137.162,306.305 135.046,306.871 132.873 C 314.283 104.448,302.543 88.333,278.344 93.713 C 255.995 98.681,235.309 119.880,223.452 149.967 C 204.709 197.526,217.668 236.389,252.203 236.187 C 267.826 236.095,282.250 223.175,290.465 201.912 L 291.396 199.501 338.042 199.501 L 384.688 199.501 384.504 200.582 C 378.287 237.112,347.439 281.938,312.552 305.138 C 291.293 319.275,269.644 326.260,245.553 326.754 C 228.197 327.110,219.017 325.066,195.179 315.541 C 180.070 309.505,173.951 307.999,165.919 308.340 C 155.000 308.804,149.508 311.546,136.562 322.991 C 121.420 336.378,110.961 339.146,95.120 333.959 C 88.952 331.940,77.772 325.206,80.549 325.184 C 81.378 325.177,89.574 320.846,92.719 318.752 C 98.352 315.002,102.675 310.439,104.394 306.427 L 105.077 304.835 103.993 305.561 C 94.271 312.070,79.519 313.055,68.994 307.896 C 55.015 301.044,45.949 284.572,44.196 262.843 C 43.428 253.323,40.267 244.876,34.559 237.087 C 32.461 234.225,32.418 234.248,39.834 234.248 C 47.526 234.248,49.698 234.753,55.935 237.996 C 56.068 238.065,55.953 237.399,55.681 236.517 C 52.995 227.814,50.210 212.252,50.208 205.943 C 50.208 204.008,49.934 203.678,48.047 203.339 C 45.994 202.970,40.983 201.266,38.442 200.073 L 36.153 198.998 39.237 197.173 C 47.545 192.255,51.525 186.931,54.525 176.725 C 58.922 161.766,61.553 157.240,69.072 151.698 C 71.720 149.746,71.768 149.750,66.667 151.499 C 43.586 159.409,17.911 154.563,7.164 140.266 C 5.229 137.692,5.142 137.854,8.728 137.353 C 25.299 135.039,41.238 126.899,47.308 117.649 C 48.905 115.217,48.879 115.046,46.926 115.046 C 34.412 115.046,22.940 106.707,19.250 94.929 C 18.269 91.797,18.342 91.516,20.200 91.268 C 27.568 90.284,31.843 88.124,38.777 81.884 C 48.036 73.550,52.646 70.493,60.682 67.356 L 63.009 66.447 64.505 63.736 C 78.672 38.062,115.011 31.561,142.866 49.717 C 144.682 50.901,145.626 51.360,145.455 50.977 C 140.931 40.806,141.769 31.257,147.723 25.122 L 149.354 23.441 150.571 24.928 C 165.707 43.418,170.740 43.735,202.920 28.216 C 248.299 6.331,267.009 1.581,296.259 4.519 M79.135 191.048 C 78.478 191.330,76.090 193.476,73.649 195.980 C 70.989 198.708,68.751 200.701,67.830 201.162 C 67.007 201.574,66.279 201.960,66.211 202.021 C 65.920 202.280,69.277 206.520,71.136 208.241 C 81.817 218.130,97.093 218.752,111.804 209.898 C 114.805 208.091,114.825 208.050,112.968 207.502 C 105.468 205.286,95.495 199.877,89.277 194.651 C 84.244 190.422,82.251 189.714,79.135 191.048 M84.027 195.761 C 84.505 196.264,84.789 196.488,84.657 196.259 C 84.224 195.511,84.631 195.820,85.967 197.255 C 86.919 198.277,86.984 198.397,86.201 197.691 C 84.468 196.129,84.957 196.876,86.849 198.682 C 87.799 199.590,88.377 200.033,88.132 199.667 C 87.888 199.302,88.307 199.633,89.064 200.403 C 89.821 201.173,90.441 201.732,90.441 201.645 C 90.441 201.558,91.039 201.883,91.771 202.367 C 92.502 202.851,93.101 203.402,93.101 203.591 C 93.101 203.780,93.186 203.849,93.290 203.745 C 93.394 203.641,94.853 204.205,96.532 205.000 C 98.211 205.794,100.815 206.798,102.320 207.232 C 103.824 207.665,105.171 208.147,105.312 208.303 C 105.454 208.458,105.382 208.478,105.154 208.346 C 104.925 208.215,104.738 208.274,104.738 208.479 C 104.738 208.683,104.589 208.758,104.406 208.645 C 104.223 208.532,104.073 208.607,104.073 208.811 C 104.073 209.016,103.924 209.091,103.741 208.978 C 103.558 208.865,103.408 208.919,103.408 209.098 C 103.408 209.403,101.325 210.290,100.582 210.302 C 100.399 210.305,100.163 210.424,100.058 210.566 C 99.953 210.708,99.392 210.857,98.812 210.898 C 98.232 210.939,97.757 211.094,97.756 211.243 C 97.756 211.391,97.494 211.470,97.174 211.417 C 96.854 211.365,96.391 211.447,96.146 211.601 C 94.659 212.533,83.566 211.848,83.187 210.801 C 83.130 210.641,82.868 210.594,82.605 210.694 C 82.343 210.795,82.128 210.744,82.128 210.580 C 82.128 210.417,81.821 210.260,81.447 210.231 C 80.503 210.160,76.571 207.920,76.164 207.222 C 75.981 206.907,75.826 206.795,75.821 206.972 C 75.809 207.333,71.820 203.481,71.820 203.108 C 71.820 202.916,72.626 202.552,73.469 202.362 C 73.553 202.343,74.964 200.850,76.605 199.044 C 80.527 194.727,82.299 193.943,84.027 195.761 " stroke="none" fill="#151414" fill-rule="evenodd"></path><path id="path2" d="M275.145 13.302 C 257.303 14.853,244.712 19.098,213.965 33.925 C 176.585 51.951,164.695 53.335,153.564 40.954 L 152.051 39.272 152.358 40.999 C 154.557 53.355,164.679 65.226,178.638 71.820 C 183.336 74.039,183.346 74.069,179.344 73.747 C 166.178 72.687,157.740 69.483,139.552 58.637 C 133.634 55.108,129.088 52.755,125.215 51.216 C 105.920 43.552,81.826 51.100,72.003 67.886 L 71.354 68.994 72.169 68.415 C 81.103 62.067,92.687 60.930,101.760 65.510 C 107.015 68.163,110.440 71.775,119.316 84.026 C 128.029 96.050,135.159 103.804,143.234 110.036 C 148.103 113.793,148.037 113.533,144.057 113.254 C 138.267 112.849,133.696 111.715,123.857 108.245 C 111.157 103.764,102.181 102.437,90.939 103.378 C 74.053 104.790,66.944 108.754,53.268 124.382 C 45.245 133.551,39.354 137.675,29.784 140.824 L 25.485 142.239 28.619 143.752 C 33.967 146.335,36.315 146.799,43.890 146.770 C 54.084 146.731,58.615 145.519,68.346 140.231 C 77.414 135.303,80.445 134.457,87.947 134.764 C 96.227 135.102,99.207 136.858,106.272 145.561 C 111.194 151.624,118.443 158.967,122.102 161.596 C 127.668 165.595,123.382 164.904,111.162 159.829 C 83.537 148.360,68.705 154.107,63.354 178.356 C 61.526 186.640,59.527 190.860,55.728 194.452 C 53.660 196.408,53.831 196.538,57.561 195.842 C 61.401 195.125,63.247 193.864,68.994 188.028 C 78.457 178.419,82.454 178.228,93.101 186.874 C 104.025 195.746,105.221 196.370,115.711 198.684 C 127.176 201.213,134.139 204.351,137.988 208.723 C 139.752 210.727,139.640 210.885,136.114 211.357 C 129.785 212.205,124.501 213.963,115.524 218.207 C 112.244 219.758,108.437 221.432,107.066 221.926 C 89.892 228.118,71.301 223.186,61.179 209.754 L 59.185 207.108 59.185 209.968 C 59.185 226.978,67.757 247.516,79.158 257.826 C 90.584 268.157,101.433 270.698,122.028 267.866 C 133.397 266.303,139.338 266.603,144.964 269.023 C 147.006 269.901,146.979 269.932,142.997 271.298 C 129.391 275.965,123.059 282.896,116.551 300.249 C 111.180 314.570,107.623 319.849,100.553 323.987 L 98.018 325.471 100.298 326.175 C 111.559 329.654,118.485 327.151,131.706 314.827 C 153.247 294.748,166.117 293.081,198.836 306.132 C 218.861 314.120,227.214 316.291,239.734 316.763 C 277.696 318.193,316.804 297.011,346.653 258.853 C 358.647 243.521,369.103 223.070,371.518 210.224 L 371.721 209.144 334.997 209.144 L 298.273 209.144 297.534 210.889 C 285.602 239.084,261.428 252.173,236.319 244.035 C 196.703 231.195,193.711 165.056,230.536 116.209 C 258.483 79.141,301.536 70.922,315.880 99.917 C 319.845 107.931,320.768 119.611,318.047 127.324 L 317.569 128.678 350.768 128.678 L 383.968 128.678 384.662 124.938 C 391.854 86.192,372.560 46.815,336.561 26.767 C 318.887 16.924,294.636 11.607,275.145 13.302 M70.492 74.323 C 62.789 75.784,56.787 78.932,47.081 86.600 C 38.771 93.165,35.829 94.935,31.338 96.068 L 29.143 96.622 31.114 98.627 C 41.488 109.182,61.714 108.182,79.335 96.242 C 90.527 88.658,95.547 87.367,105.736 89.453 C 107.656 89.846,109.601 90.240,110.058 90.329 C 111.369 90.582,104.143 83.682,100.487 81.188 C 91.409 74.997,80.320 72.459,70.492 74.323 M49.573 246.789 C 51.407 251.235,52.198 254.592,52.532 259.352 C 54.611 288.944,70.699 306.724,90.930 301.788 C 96.746 300.369,100.355 297.778,108.043 289.503 C 115.443 281.539,119.403 278.154,125.604 274.495 L 128.015 273.072 126.024 272.514 C 120.447 270.949,115.675 271.532,105.720 274.993 C 84.342 282.425,77.170 279.752,63.421 259.225 C 57.906 250.991,54.830 247.630,50.970 245.617 L 48.574 244.368 49.573 246.789 " stroke="none" fill="#cc1424" fill-rule="evenodd"></path><path id="path3" d="M275.897 13.203 C 276.311 13.282,276.910 13.279,277.227 13.196 C 277.545 13.113,277.207 13.048,276.475 13.051 C 275.744 13.055,275.484 13.123,275.897 13.203 M288.196 13.202 C 288.608 13.281,289.281 13.281,289.692 13.202 C 290.104 13.123,289.767 13.058,288.944 13.058 C 288.121 13.058,287.785 13.123,288.196 13.202 M153.616 41.002 C 153.616 41.059,154.102 41.545,154.697 42.082 L 155.777 43.059 154.801 41.978 C 153.890 40.971,153.616 40.745,153.616 41.002 M358.770 43.392 C 359.763 44.397,360.651 45.220,360.742 45.220 C 360.833 45.220,360.096 44.397,359.102 43.392 C 358.109 42.386,357.221 41.563,357.130 41.563 C 357.039 41.563,357.776 42.386,358.770 43.392 M107.326 48.126 C 108.292 48.193,109.789 48.192,110.651 48.124 C 111.514 48.056,110.723 48.001,108.894 48.002 C 107.066 48.003,106.360 48.058,107.326 48.126 M77.627 60.599 L 75.977 62.344 77.722 60.694 C 79.344 59.161,79.620 58.853,79.372 58.853 C 79.320 58.853,78.534 59.638,77.627 60.599 M164.256 62.282 C 164.256 62.339,164.742 62.825,165.337 63.363 L 166.417 64.339 165.441 63.259 C 164.530 62.251,164.256 62.025,164.256 62.282 M108.714 70.906 C 110.092 72.374,110.391 72.638,110.391 72.388 C 110.391 72.335,109.680 71.624,108.811 70.809 L 107.232 69.327 108.714 70.906 M75.229 73.721 C 75.732 73.797,76.554 73.797,77.057 73.721 C 77.560 73.645,77.149 73.583,76.143 73.583 C 75.137 73.583,74.726 73.645,75.229 73.721 M78.891 73.722 C 79.396 73.798,80.144 73.796,80.553 73.717 C 80.962 73.638,80.549 73.576,79.634 73.578 C 78.720 73.581,78.385 73.645,78.891 73.722 M178.637 73.712 C 178.957 73.796,179.480 73.796,179.800 73.712 C 180.121 73.629,179.859 73.560,179.219 73.560 C 178.579 73.560,178.317 73.629,178.637 73.712 M286.534 82.704 C 287.311 82.774,288.583 82.774,289.360 82.704 C 290.137 82.634,289.501 82.577,287.947 82.577 C 286.392 82.577,285.756 82.634,286.534 82.704 M308.562 90.212 C 308.562 90.269,309.048 90.756,309.643 91.293 L 310.723 92.269 309.747 91.189 C 308.836 90.181,308.562 89.955,308.562 90.212 M133.666 101.912 C 135.212 103.466,136.552 104.738,136.644 104.738 C 136.735 104.738,135.545 103.466,133.998 101.912 C 132.452 100.357,131.112 99.086,131.021 99.086 C 130.929 99.086,132.119 100.357,133.666 101.912 M385.780 101.081 C 385.780 101.721,385.848 101.983,385.932 101.663 C 386.015 101.342,386.015 100.819,385.932 100.499 C 385.848 100.179,385.780 100.441,385.780 101.081 M242.877 102.494 L 241.563 103.907 242.976 102.593 C 244.290 101.370,244.542 101.081,244.290 101.081 C 244.236 101.081,243.600 101.717,242.877 102.494 M90.361 103.311 C 90.775 103.390,91.373 103.387,91.691 103.304 C 92.009 103.221,91.671 103.156,90.939 103.159 C 90.208 103.163,89.948 103.231,90.361 103.311 M102.826 103.305 C 103.146 103.388,103.670 103.388,103.990 103.305 C 104.310 103.221,104.048 103.153,103.408 103.153 C 102.768 103.153,102.506 103.221,102.826 103.305 M55.278 105.632 C 55.599 105.716,56.122 105.716,56.442 105.632 C 56.762 105.549,56.500 105.480,55.860 105.480 C 55.220 105.480,54.958 105.549,55.278 105.632 M386.164 109.559 C 386.165 111.937,386.218 112.866,386.282 111.624 C 386.346 110.382,386.345 108.437,386.281 107.301 C 386.216 106.166,386.164 107.182,386.164 109.559 M237.721 107.648 L 236.575 108.894 237.822 107.749 C 238.983 106.682,239.222 106.401,238.968 106.401 C 238.912 106.401,238.351 106.962,237.721 107.648 M145.303 113.051 L 143.807 113.283 145.387 113.333 C 146.255 113.361,146.966 113.234,146.966 113.051 C 146.966 112.868,146.929 112.741,146.883 112.768 C 146.837 112.796,146.126 112.923,145.303 113.051 M48.699 129.094 L 47.049 130.840 48.795 129.190 C 49.755 128.282,50.540 127.497,50.540 127.444 C 50.540 127.196,50.232 127.472,48.699 129.094 M334.081 128.928 C 343.271 128.977,358.308 128.977,367.498 128.928 C 376.687 128.878,369.169 128.838,350.790 128.838 C 332.411 128.838,324.892 128.878,334.081 128.928 M83.209 134.893 C 83.529 134.976,84.052 134.976,84.372 134.893 C 84.692 134.809,84.431 134.740,83.791 134.740 C 83.150 134.740,82.889 134.809,83.209 134.893 M88.861 134.893 C 89.181 134.976,89.705 134.976,90.025 134.893 C 90.345 134.809,90.083 134.740,89.443 134.740 C 88.803 134.740,88.541 134.809,88.861 134.893 M41.821 147.210 C 42.603 147.280,43.800 147.279,44.481 147.208 C 45.162 147.136,44.522 147.079,43.059 147.080 C 41.596 147.081,41.039 147.140,41.821 147.210 M114.381 155.112 C 116.111 156.850,117.601 158.271,117.693 158.271 C 117.784 158.271,116.443 156.850,114.713 155.112 C 112.983 153.375,111.493 151.953,111.401 151.953 C 111.310 151.953,112.651 153.375,114.381 155.112 M204.898 182.544 C 204.898 183.184,204.967 183.446,205.050 183.126 C 205.134 182.805,205.134 182.282,205.050 181.962 C 204.967 181.642,204.898 181.904,204.898 182.544 M71.820 185.037 C 71.013 185.860,70.427 186.534,70.518 186.534 C 70.610 186.534,71.345 185.860,72.153 185.037 C 72.961 184.214,73.547 183.541,73.455 183.541 C 73.364 183.541,72.628 184.214,71.820 185.037 M204.603 189.692 C 204.604 191.155,204.662 191.713,204.733 190.931 C 204.803 190.148,204.802 188.951,204.730 188.271 C 204.659 187.590,204.602 188.229,204.603 189.692 M66.823 190.441 L 64.672 192.685 66.916 190.533 C 69.001 188.535,69.312 188.196,69.068 188.196 C 69.017 188.196,68.007 189.206,66.823 190.441 M58.903 209.559 C 58.954 212.391,59.094 212.064,59.258 208.728 C 59.309 207.676,59.239 206.816,59.102 206.816 C 58.965 206.816,58.875 208.051,58.903 209.559 M136.991 207.980 C 137.611 208.620,138.194 209.144,138.285 209.144 C 138.377 209.144,137.944 208.620,137.323 207.980 C 136.703 207.340,136.121 206.816,136.029 206.816 C 135.938 206.816,136.370 207.340,136.991 207.980 M298.139 209.061 C 298.000 209.286,323.573 209.285,358.603 209.056 C 365.919 209.009,355.341 208.934,335.099 208.891 C 314.856 208.847,298.224 208.924,298.139 209.061 M64.173 213.300 C 64.793 213.940,65.376 214.464,65.467 214.464 C 65.559 214.464,65.126 213.940,64.505 213.300 C 63.885 212.660,63.303 212.136,63.211 212.136 C 63.120 212.136,63.553 212.660,64.173 213.300 M219.784 233.915 C 220.777 234.921,221.665 235.744,221.756 235.744 C 221.848 235.744,221.110 234.921,220.116 233.915 C 219.123 232.909,218.236 232.086,218.144 232.086 C 218.053 232.086,218.791 232.909,219.784 233.915 M247.967 246.287 C 248.381 246.366,248.979 246.363,249.297 246.280 C 249.615 246.197,249.277 246.132,248.545 246.135 C 247.814 246.139,247.554 246.207,247.967 246.287 M254.780 246.281 C 255.100 246.364,255.623 246.364,255.943 246.281 C 256.264 246.197,256.002 246.129,255.362 246.129 C 254.722 246.129,254.460 246.197,254.780 246.281 M56.027 249.377 C 56.927 250.291,57.739 251.039,57.830 251.039 C 57.922 251.039,57.260 250.291,56.359 249.377 C 55.458 248.462,54.647 247.714,54.555 247.714 C 54.464 247.714,55.126 248.462,56.027 249.377 M77.972 257.024 C 78.872 257.938,79.684 258.687,79.776 258.687 C 79.867 258.687,79.205 257.938,78.304 257.024 C 77.404 256.110,76.592 255.362,76.500 255.362 C 76.409 255.362,77.071 256.110,77.972 257.024 M52.302 259.019 C 52.302 260.025,52.365 260.436,52.441 259.933 C 52.517 259.431,52.517 258.608,52.441 258.105 C 52.365 257.602,52.302 258.013,52.302 259.019 M128.096 267.228 C 128.416 267.312,128.940 267.312,129.260 267.228 C 129.580 267.145,129.318 267.076,128.678 267.076 C 128.038 267.076,127.776 267.145,128.096 267.228 M103.329 269.229 C 103.743 269.309,104.341 269.306,104.659 269.223 C 104.977 269.139,104.638 269.074,103.907 269.078 C 103.175 269.082,102.915 269.150,103.329 269.229 M108.984 269.235 C 109.581 269.309,110.479 269.308,110.979 269.232 C 111.478 269.156,110.989 269.095,109.892 269.097 C 108.795 269.099,108.386 269.161,108.984 269.235 M337.302 270.075 L 336.326 271.155 337.406 270.179 C 338.001 269.642,338.487 269.155,338.487 269.098 C 338.487 268.841,338.213 269.068,337.302 270.075 M331.498 276.226 L 328.346 279.468 331.588 276.316 C 334.599 273.388,334.981 272.984,334.740 272.984 C 334.691 272.984,333.232 274.443,331.498 276.226 M127.504 280.382 L 125.520 282.461 127.598 280.476 C 129.528 278.632,129.828 278.304,129.582 278.304 C 129.531 278.304,128.596 279.239,127.504 280.382 M325.332 282.045 L 324.356 283.126 325.436 282.149 C 326.031 281.612,326.517 281.126,326.517 281.068 C 326.517 280.811,326.243 281.038,325.332 282.045 M108.541 289.027 L 107.564 290.108 108.645 289.131 C 109.652 288.221,109.879 287.947,109.622 287.947 C 109.564 287.947,109.078 288.433,108.541 289.027 M103.898 294.015 L 101.579 296.426 103.990 294.107 C 106.229 291.953,106.553 291.604,106.309 291.604 C 106.258 291.604,105.173 292.689,103.898 294.015 M66.002 295.262 C 66.902 296.176,67.714 296.924,67.805 296.924 C 67.897 296.924,67.235 296.176,66.334 295.262 C 65.434 294.347,64.622 293.599,64.530 293.599 C 64.439 293.599,65.101 294.347,66.002 295.262 M165.847 298.167 C 166.813 298.235,168.309 298.234,169.172 298.166 C 170.034 298.098,169.244 298.042,167.415 298.043 C 165.586 298.044,164.880 298.100,165.847 298.167 M134.313 312.469 L 133.167 313.716 134.414 312.570 C 135.575 311.503,135.814 311.222,135.560 311.222 C 135.504 311.222,134.943 311.783,134.313 312.469 M128.829 317.623 L 127.515 319.036 128.928 317.721 C 130.242 316.499,130.494 316.209,130.242 316.209 C 130.188 316.209,129.552 316.845,128.829 317.623 M235.162 316.771 C 235.482 316.855,236.006 316.855,236.326 316.771 C 236.646 316.688,236.384 316.619,235.744 316.619 C 235.104 316.619,234.842 316.688,235.162 316.771 M241.480 317.117 C 242.165 317.188,243.288 317.188,243.973 317.117 C 244.659 317.045,244.098 316.986,242.727 316.986 C 241.355 316.986,240.794 317.045,241.480 317.117 M105.889 319.618 L 104.239 321.363 105.985 319.713 C 106.945 318.806,107.731 318.020,107.731 317.968 C 107.731 317.720,107.423 317.996,105.889 319.618 " stroke="none" fill="#d83e32" fill-rule="evenodd"></path><path id="path4" d="M364.090 34.414 C 364.710 35.054,365.293 35.578,365.384 35.578 C 365.475 35.578,365.043 35.054,364.422 34.414 C 363.802 33.774,363.220 33.250,363.128 33.250 C 363.037 33.250,363.469 33.774,364.090 34.414 M367.249 37.573 C 367.963 38.304,368.622 38.903,368.714 38.903 C 368.805 38.903,368.295 38.304,367.581 37.573 C 366.867 36.841,366.208 36.243,366.116 36.243 C 366.025 36.243,366.534 36.841,367.249 37.573 M247.870 111.139 L 245.885 113.217 247.963 111.232 C 249.106 110.141,250.042 109.206,250.042 109.154 C 250.042 108.909,249.713 109.208,247.870 111.139 M327.099 138.238 C 339.032 138.286,358.558 138.286,370.490 138.238 C 382.423 138.189,372.660 138.150,348.795 138.150 C 324.929 138.150,315.166 138.189,327.099 138.238 M40.815 155.181 C 41.226 155.260,41.899 155.260,42.311 155.181 C 42.722 155.101,42.386 155.037,41.563 155.037 C 40.740 155.037,40.403 155.101,40.815 155.181 M45.470 155.181 C 45.881 155.260,46.554 155.260,46.966 155.181 C 47.377 155.101,47.041 155.037,46.218 155.037 C 45.395 155.037,45.058 155.101,45.470 155.181 M46.368 191.937 L 45.054 193.350 46.467 192.036 C 47.781 190.813,48.033 190.524,47.782 190.524 C 47.727 190.524,47.091 191.160,46.368 191.937 M75.460 193.766 L 74.314 195.012 75.561 193.867 C 76.722 192.800,76.961 192.519,76.707 192.519 C 76.651 192.519,76.090 193.080,75.460 193.766 M90.524 216.365 C 91.027 216.441,91.850 216.441,92.352 216.365 C 92.855 216.288,92.444 216.226,91.438 216.226 C 90.432 216.226,90.021 216.288,90.524 216.365 M275.300 226.018 L 273.483 227.930 275.395 226.113 C 277.171 224.424,277.459 224.106,277.212 224.106 C 277.160 224.106,276.300 224.967,275.300 226.018 M336.486 285.204 L 333.001 288.778 336.575 285.293 C 339.895 282.055,340.301 281.629,340.061 281.629 C 340.012 281.629,338.403 283.238,336.486 285.204 M166.334 308.139 C 167.020 308.211,168.142 308.211,168.828 308.139 C 169.514 308.067,168.953 308.009,167.581 308.009 C 166.209 308.009,165.648 308.067,166.334 308.139 M99.418 313.383 C 98.610 314.206,98.024 314.879,98.116 314.879 C 98.207 314.879,98.943 314.206,99.751 313.383 C 100.558 312.560,101.144 311.887,101.053 311.887 C 100.961 311.887,100.226 312.560,99.418 313.383 M237.157 326.746 C 237.477 326.830,238.001 326.830,238.321 326.746 C 238.641 326.663,238.379 326.594,237.739 326.594 C 237.099 326.594,236.837 326.663,237.157 326.746 " stroke="none" fill="#957637" fill-rule="evenodd"></path><path id="path5" d="M280.892 3.903 C 281.859 3.970,283.355 3.970,284.217 3.901 C 285.080 3.833,284.289 3.778,282.461 3.779 C 280.632 3.780,279.926 3.836,280.892 3.903 M71.966 53.616 L 70.989 54.697 72.070 53.720 C 73.077 52.810,73.303 52.535,73.046 52.535 C 72.989 52.535,72.503 53.022,71.966 53.616 M287.205 92.677 C 287.802 92.751,288.700 92.749,289.200 92.673 C 289.699 92.597,289.210 92.537,288.113 92.539 C 287.016 92.540,286.607 92.603,287.205 92.677 M309.001 116.708 C 309.001 117.897,309.061 118.383,309.135 117.789 C 309.209 117.195,309.209 116.222,309.135 115.628 C 309.061 115.033,309.001 115.520,309.001 116.708 M81.214 190.420 C 81.534 190.504,82.057 190.504,82.377 190.420 C 82.697 190.337,82.436 190.268,81.796 190.268 C 81.155 190.268,80.894 190.337,81.214 190.420 M78.509 197.091 C 76.828 198.790,76.804 198.831,78.292 197.465 C 79.213 196.620,80.266 195.764,80.632 195.563 C 81.007 195.358,81.101 195.195,80.848 195.189 C 80.601 195.183,79.549 196.039,78.509 197.091 M85.619 197.174 C 86.334 197.905,86.993 198.504,87.084 198.504 C 87.176 198.504,86.666 197.905,85.952 197.174 C 85.237 196.442,84.578 195.844,84.487 195.844 C 84.395 195.844,84.905 196.442,85.619 197.174 M88.778 200.333 C 89.398 200.973,89.981 201.496,90.072 201.496 C 90.164 201.496,89.731 200.973,89.111 200.333 C 88.490 199.692,87.908 199.169,87.816 199.169 C 87.725 199.169,88.158 199.692,88.778 200.333 M74.964 200.914 L 73.649 202.328 75.062 201.013 C 76.377 199.791,76.628 199.501,76.377 199.501 C 76.322 199.501,75.686 200.137,74.964 200.914 M90.664 201.855 C 91.077 202.355,93.101 203.628,93.101 203.388 C 93.101 203.311,92.465 202.828,91.687 202.315 C 90.910 201.803,90.450 201.596,90.664 201.855 M71.820 203.045 C 71.820 203.227,72.232 203.738,72.735 204.181 L 73.649 204.988 72.818 203.990 C 72.361 203.441,71.949 202.930,71.904 202.854 C 71.858 202.778,71.820 202.864,71.820 203.045 M93.433 203.656 C 93.433 203.879,96.799 205.556,96.948 205.407 C 97.016 205.339,96.253 204.882,95.253 204.391 C 94.252 203.900,93.433 203.569,93.433 203.656 M88.533 212.042 C 89.039 212.119,89.787 212.117,90.196 212.038 C 90.605 211.959,90.191 211.896,89.277 211.899 C 88.362 211.901,88.028 211.966,88.533 212.042 M92.356 212.039 C 92.770 212.119,93.368 212.116,93.686 212.032 C 94.004 211.949,93.666 211.884,92.934 211.888 C 92.203 211.891,91.943 211.959,92.356 212.039 M249.460 326.746 C 249.780 326.830,250.303 326.830,250.623 326.746 C 250.943 326.663,250.682 326.594,250.042 326.594 C 249.401 326.594,249.140 326.663,249.460 326.746 " stroke="none" fill="#755c2e" fill-rule="evenodd"></path><path id="path6" d="M106.733 86.222 C 106.733 86.279,107.219 86.766,107.814 87.303 L 108.894 88.279 107.918 87.199 C 107.008 86.191,106.733 85.965,106.733 86.222 M59.331 117.456 L 58.354 118.537 59.435 117.560 C 60.442 116.650,60.668 116.376,60.411 116.376 C 60.354 116.376,59.868 116.862,59.331 117.456 M101.746 140.482 C 102.366 141.122,102.948 141.646,103.040 141.646 C 103.131 141.646,102.699 141.122,102.078 140.482 C 101.458 139.842,100.875 139.318,100.784 139.318 C 100.692 139.318,101.125 139.842,101.746 140.482 M91.359 224.674 C 91.772 224.754,92.371 224.751,92.689 224.667 C 93.007 224.584,92.668 224.519,91.937 224.523 C 91.205 224.526,90.945 224.595,91.359 224.674 M282.448 233.167 L 280.798 234.913 282.544 233.263 C 284.166 231.729,284.442 231.421,284.194 231.421 C 284.141 231.421,283.356 232.207,282.448 233.167 M132.751 266.905 C 133.254 266.981,134.077 266.981,134.580 266.905 C 135.083 266.829,134.672 266.766,133.666 266.766 C 132.660 266.766,132.249 266.829,132.751 266.905 M105.823 269.233 C 106.329 269.309,107.077 269.307,107.486 269.228 C 107.895 269.149,107.481 269.087,106.567 269.089 C 105.653 269.092,105.318 269.156,105.823 269.233 M72.319 271.322 C 73.033 272.053,73.693 272.652,73.784 272.652 C 73.876 272.652,73.366 272.053,72.652 271.322 C 71.937 270.590,71.278 269.992,71.187 269.992 C 71.095 269.992,71.605 270.590,72.319 271.322 M112.709 284.539 L 110.557 286.783 112.801 284.631 C 114.036 283.448,115.046 282.438,115.046 282.387 C 115.046 282.142,114.707 282.454,112.709 284.539 " stroke="none" fill="#cc1c2c" fill-rule="evenodd"></path><path id="path7" d="" stroke="none" fill="#b41040" fill-rule="evenodd"></path><path id="path8" d="" stroke="none" fill="#d01018" fill-rule="evenodd"></path></g></svg>