<svg id="svg" xmlns="http://www.w3.org/2000/svg" xmlns:xlink="http://www.w3.org/1999/xlink" width="400" height="348.89267461669505" viewBox="0, 0, 400,348.89267461669505"><g id="svgg"><path id="path0" d="M186.968 37.719 C 187.389 37.800,188.079 37.800,188.501 37.719 C 188.922 37.638,188.578 37.572,187.734 37.572 C 186.891 37.572,186.546 37.638,186.968 37.719 M278.950 49.913 L 286.031 57.578 290.034 57.579 L 294.037 57.581 294.037 49.915 L 294.037 42.249 282.954 42.249 L 271.870 42.249 278.950 49.913 M101.862 50.008 C 61.414 77.680,42.585 93.739,37.053 105.281 C 35.510 108.501,35.402 111.599,36.632 117.369 C 38.799 127.533,36.919 132.316,21.827 155.026 C 6.878 177.521,4.502 184.773,10.213 190.484 C 14.170 194.441,17.248 194.516,43.101 191.282 C 55.412 189.743,56.985 189.096,57.485 185.370 C 58.073 180.986,51.126 174.719,45.598 174.647 C 39.501 174.566,39.392 180.692,45.484 181.102 C 49.522 181.375,50.311 184.030,46.648 185.017 C 37.798 187.400,32.222 173.677,40.852 170.751 C 50.163 167.592,63.484 177.994,62.601 187.734 L 62.427 189.657 64.940 191.139 C 71.877 195.228,76.255 200.810,76.597 206.001 C 76.949 211.332,74.149 210.866,71.188 205.101 C 66.203 195.397,60.003 193.526,40.208 195.752 C 26.771 197.263,28.216 196.268,25.870 205.622 C 22.788 217.907,23.446 222.395,28.586 224.139 C 32.379 225.425,48.360 223.695,53.441 221.447 C 57.792 219.523,57.180 217.597,52.179 217.477 C 45.016 217.305,45.483 212.570,52.768 211.508 C 59.728 210.494,63.712 212.988,63.713 218.360 L 63.714 220.537 66.572 223.350 C 69.976 226.700,70.848 228.542,70.924 232.537 C 71.051 239.216,66.214 239.900,65.525 233.300 C 65.052 228.775,62.193 227.415,56.313 228.917 C 48.106 231.014,39.207 231.899,31.346 231.400 L 27.087 231.129 26.342 232.004 C 23.214 235.678,23.112 238.482,25.901 244.089 C 29.300 250.920,29.443 256.280,26.434 263.982 C 19.480 281.777,35.533 290.547,70.204 287.895 C 102.634 285.414,125.318 275.860,135.466 260.410 C 137.129 257.878,137.308 258.111,136.274 261.459 C 131.771 276.038,119.975 284.292,94.549 290.656 C 91.363 291.454,88.717 292.133,88.668 292.167 C 88.511 292.273,89.936 300.202,90.820 304.143 C 92.464 311.473,94.856 317.531,98.464 323.504 C 99.418 325.084,101.116 328.626,102.238 331.375 C 106.578 342.012,107.562 342.230,124.962 336.422 C 144.513 329.895,187.394 310.347,187.394 307.961 C 187.394 307.814,182.785 297.780,177.152 285.663 L 166.910 263.632 168.096 261.203 C 175.540 245.950,168.745 229.248,156.282 232.165 C 155.006 232.464,153.900 232.709,153.824 232.709 C 153.173 232.709,145.094 217.642,142.314 211.244 C 132.233 188.042,130.527 168.486,135.775 136.286 C 140.032 110.169,139.565 92.651,134.206 77.464 C 129.898 65.256,123.163 57.822,107.484 47.967 L 106.109 47.103 101.862 50.008 M107.184 58.649 C 113.487 63.056,124.020 73.105,124.020 74.712 C 124.020 75.975,122.784 77.342,121.643 77.342 C 120.860 77.342,119.821 76.489,116.131 72.813 C 111.906 68.603,105.386 63.032,104.684 63.032 C 104.516 63.032,103.655 63.547,102.770 64.176 L 101.161 65.320 105.180 68.851 C 116.708 78.979,128.215 91.286,128.041 93.301 C 127.775 96.375,125.201 96.343,122.622 93.233 C 117.838 87.467,107.137 76.922,99.411 70.362 L 97.118 68.416 95.407 69.671 C 93.438 71.117,93.385 71.268,94.577 72.049 C 95.857 72.887,105.436 82.282,107.376 84.600 C 109.146 86.717,109.398 87.734,108.433 88.874 C 106.855 90.739,106.462 90.512,100.091 84.069 C 96.855 80.796,92.636 76.785,90.716 75.156 C 85.396 70.645,85.167 71.176,95.911 63.141 C 105.186 56.204,104.231 56.585,107.184 58.649 M245.575 61.910 C 245.998 61.992,246.612 61.989,246.938 61.904 C 247.263 61.818,246.917 61.752,246.167 61.755 C 245.417 61.759,245.151 61.829,245.575 61.910 M300.170 75.210 C 300.170 76.687,297.053 82.057,295.133 83.889 L 293.186 85.746 294.309 89.977 C 294.927 92.304,296.281 97.231,297.318 100.925 C 298.354 104.620,299.090 107.825,298.953 108.048 C 298.795 108.303,298.848 108.363,299.096 108.210 C 299.461 107.984,299.624 108.458,299.580 109.625 C 299.572 109.859,299.701 110.051,299.867 110.051 C 300.034 110.051,300.170 110.251,300.170 110.496 C 300.170 110.741,301.097 113.233,302.229 116.033 C 306.739 127.188,310.823 138.483,315.140 151.739 C 319.606 165.453,330.076 186.371,339.380 200.170 C 355.009 223.351,374.342 236.898,391.878 236.956 C 396.204 236.970,395.980 237.124,395.323 234.583 C 394.854 232.770,394.844 231.487,395.235 223.249 C 396.231 202.240,393.817 188.368,386.151 171.039 C 373.449 142.325,343.614 107.986,305.655 78.390 C 300.649 74.488,300.170 74.210,300.170 75.210 M308.665 89.573 C 334.935 113.869,356.617 138.299,367.922 156.341 C 382.140 179.031,390.006 207.977,386.847 225.980 L 386.623 227.257 384.832 227.257 C 372.292 227.257,355.797 212.985,343.127 191.172 C 330.292 169.075,304.654 109.949,296.615 83.907 C 296.440 83.341,296.659 82.800,297.473 81.787 L 298.566 80.427 300.964 82.547 C 302.282 83.714,305.748 86.875,308.665 89.573 M221.043 82.353 C 221.467 82.435,222.080 82.432,222.406 82.347 C 222.732 82.261,222.385 82.195,221.635 82.198 C 220.886 82.202,220.619 82.272,221.043 82.353 M299.803 85.560 C 299.991 86.006,302.080 91.584,304.447 97.956 C 309.367 111.200,316.875 130.257,317.089 130.043 C 317.169 129.964,317.691 127.427,318.251 124.407 L 319.268 118.915 313.957 110.373 C 308.697 101.911,308.325 101.091,309.426 100.397 C 310.300 99.847,310.588 100.218,315.984 108.829 L 320.969 116.784 328.536 118.677 C 332.697 119.718,336.150 120.522,336.209 120.463 C 336.410 120.263,315.020 98.942,309.203 93.543 C 301.027 85.956,299.383 84.560,299.803 85.560 M160.563 90.801 C 160.567 91.550,160.636 91.817,160.718 91.393 C 160.799 90.969,160.796 90.356,160.711 90.030 C 160.626 89.704,160.559 90.051,160.563 90.801 M69.847 93.908 C 73.379 94.749,78.455 97.460,84.157 101.549 C 92.807 107.753,94.786 108.450,103.288 108.285 C 110.991 108.136,112.569 109.301,109.278 112.704 C 104.016 118.145,94.611 117.631,81.431 111.180 C 70.213 105.689,69.582 105.671,67.502 110.794 C 65.644 115.370,65.038 114.740,79.387 123.146 C 96.072 132.920,96.210 133.348,83.716 136.612 C 77.040 138.355,71.844 139.444,64.873 140.558 C 63.979 140.701,63.753 140.946,63.387 142.169 C 62.237 146.014,59.485 149.314,57.046 149.771 C 55.019 150.152,54.751 149.521,54.964 144.889 L 55.140 141.056 53.154 141.056 C 48.737 141.056,44.303 139.685,44.017 138.231 C 43.763 136.943,48.497 135.605,53.302 135.605 L 55.777 135.605 55.284 132.794 C 54.675 129.329,54.855 123.379,55.622 121.587 L 56.153 120.345 52.012 118.746 C 44.989 116.034,44.906 115.817,49.210 111.419 C 52.946 107.601,53.043 107.196,50.811 104.754 C 48.457 102.178,48.047 100.645,49.140 98.510 C 51.417 94.067,61.295 91.871,69.847 93.908 M160.574 95.911 C 160.577 96.848,160.643 97.191,160.721 96.673 C 160.800 96.155,160.798 95.389,160.717 94.970 C 160.636 94.551,160.572 94.974,160.574 95.911 M279.132 104.089 C 279.136 104.838,279.205 105.105,279.287 104.681 C 279.368 104.257,279.365 103.644,279.280 103.318 C 279.195 102.992,279.128 103.339,279.132 104.089 M61.158 106.171 C 51.802 108.735,51.863 108.643,57.581 111.492 C 62.703 114.045,62.740 114.038,64.416 110.267 C 66.724 105.072,66.446 104.722,61.158 106.171 M189.097 108.113 C 189.097 108.172,189.595 108.670,190.204 109.221 L 191.312 110.221 190.311 109.114 C 189.378 108.082,189.097 107.850,189.097 108.113 M284.583 113.288 C 284.587 114.037,284.657 114.304,284.738 113.880 C 284.820 113.456,284.817 112.843,284.732 112.517 C 284.646 112.192,284.580 112.538,284.583 113.288 M278.824 120.613 C 278.824 122.206,278.883 122.858,278.955 122.061 C 279.026 121.265,279.026 119.962,278.955 119.165 C 278.883 118.369,278.824 119.020,278.824 120.613 M322.998 120.070 C 322.998 120.202,340.815 148.997,341.186 149.464 C 341.341 149.659,364.655 156.413,364.771 156.296 C 365.388 155.680,352.248 138.562,343.479 128.558 L 339.542 124.067 331.866 122.156 C 327.645 121.105,323.922 120.165,323.595 120.066 C 323.267 119.967,322.998 119.969,322.998 120.070 M319.998 128.787 L 318.881 134.916 321.830 141.815 C 324.633 148.370,330.849 162.193,332.562 165.677 L 333.359 167.299 336.341 159.271 L 339.322 151.243 330.447 136.950 C 325.566 129.089,321.469 122.658,321.343 122.658 C 321.218 122.658,320.612 125.416,319.998 128.787 M281.568 128.790 C 281.568 131.695,281.620 132.883,281.684 131.431 C 281.748 129.979,281.748 127.602,281.684 126.150 C 281.620 124.698,281.568 125.886,281.568 128.790 M278.817 141.567 C 278.819 142.879,278.880 143.374,278.954 142.667 C 279.028 141.960,279.026 140.887,278.951 140.282 C 278.876 139.677,278.816 140.256,278.817 141.567 M92.872 142.436 C 94.461 143.418,95.222 145.460,94.576 147.007 C 93.585 149.378,91.312 150.444,85.179 151.414 C 77.808 152.580,73.843 154.694,73.060 157.876 L 72.820 158.852 77.722 158.707 C 83.695 158.530,86.725 157.493,94.549 152.948 C 106.016 146.287,111.278 147.171,112.316 155.934 C 113.085 162.427,110.457 163.865,97.104 164.256 C 86.026 164.581,84.128 164.933,78.620 167.684 C 75.894 169.045,75.726 169.247,76.348 170.409 C 77.690 172.916,83.264 172.684,91.043 169.795 C 96.950 167.602,100.267 167.852,101.405 170.577 C 103.275 175.052,97.641 178.575,85.930 180.256 C 71.710 182.298,63.454 175.691,69.324 166.968 L 70.482 165.246 68.792 164.519 C 63.753 162.352,62.140 156.871,65.218 152.381 C 69.759 145.758,87.769 139.282,92.872 142.436 M284.576 143.441 C 284.576 144.097,284.647 144.365,284.732 144.037 C 284.818 143.710,284.818 143.173,284.732 142.845 C 284.647 142.517,284.576 142.785,284.576 143.441 M343.653 153.407 C 344.341 154.572,362.955 184.516,363.063 184.632 C 363.173 184.750,379.029 187.717,379.621 187.729 C 380.870 187.756,370.266 164.118,367.129 159.882 C 367.035 159.756,344.026 152.981,343.691 152.981 C 343.531 152.981,343.514 153.173,343.653 153.407 M337.907 162.414 L 334.934 170.484 338.453 177.320 C 344.451 188.971,354.153 204.846,354.798 204.064 C 355.125 203.666,360.833 186.210,360.747 185.868 C 360.587 185.234,341.330 154.344,341.094 154.344 C 340.977 154.344,339.543 157.976,337.907 162.414 M170.119 164.566 C 170.119 165.596,170.183 166.018,170.261 165.503 C 170.339 164.987,170.339 164.144,170.261 163.629 C 170.183 163.113,170.119 163.535,170.119 164.566 M129.231 175.809 C 129.855 175.809,129.737 176.037,128.397 177.428 C 117.148 189.093,115.976 204.581,125.403 216.986 C 127.138 219.269,127.124 219.277,123.839 217.949 C 110.506 212.559,106.624 198.654,114.712 185.260 C 118.227 179.440,124.788 174.726,128.052 175.677 C 128.301 175.750,128.832 175.809,129.231 175.809 M365.247 187.958 C 365.247 188.081,367.341 191.552,369.901 195.670 C 374.754 203.479,375.040 204.259,373.057 204.259 C 372.376 204.259,371.521 203.075,367.477 196.534 L 362.702 188.809 359.702 197.663 L 356.702 206.517 358.040 208.115 C 364.575 215.920,373.948 222.246,382.093 224.347 C 384.747 225.031,384.656 225.273,384.663 217.479 C 384.670 208.175,382.300 192.514,380.613 190.714 C 380.217 190.292,365.247 187.607,365.247 187.958 M255.623 211.755 C 255.626 212.504,255.696 212.771,255.778 212.347 C 255.859 211.923,255.856 211.310,255.771 210.984 C 255.685 210.658,255.619 211.005,255.623 211.755 M196.252 231.452 C 196.252 231.511,196.750 232.009,197.359 232.560 L 198.467 233.560 197.466 232.453 C 196.533 231.421,196.252 231.189,196.252 231.452 M206.985 235.094 C 207.717 235.843,208.392 236.457,208.486 236.457 C 208.580 236.457,208.057 235.843,207.325 235.094 C 206.593 234.344,205.918 233.731,205.824 233.731 C 205.731 233.731,206.253 234.344,206.985 235.094 M163.080 235.805 C 170.715 240.523,169.310 258.217,160.650 266.407 C 153.496 273.173,145.506 269.808,144.142 259.455 C 142.271 245.259,154.225 230.332,163.080 235.805 M50.924 238.952 C 53.219 241.377,54.203 242.064,59.796 245.139 C 65.148 248.082,66.636 249.306,67.141 251.181 C 68.255 255.318,63.871 258.579,59.453 256.899 L 58.556 256.558 59.269 257.559 C 64.069 264.300,63.003 271.328,57.105 271.817 C 53.777 272.093,51.483 270.232,49.132 265.353 C 47.716 262.413,47.512 262.245,47.181 263.748 C 46.344 267.560,40.831 269.008,38.356 266.066 C 36.858 264.287,36.846 263.876,38.007 254.022 C 38.536 249.532,38.533 249.106,37.960 246.282 C 37.215 242.614,37.422 242.258,40.895 241.224 C 42.382 240.781,43.986 239.949,45.487 238.841 C 48.389 236.698,48.799 236.707,50.924 238.952 M155.877 241.857 C 146.791 247.438,147.261 267.348,156.369 262.702 C 161.376 260.147,164.622 248.988,161.895 243.704 C 160.676 241.340,158.037 240.530,155.877 241.857 M275.732 244.634 C 275.732 245.477,275.798 245.822,275.879 245.400 C 275.961 244.979,275.961 244.289,275.879 243.867 C 275.798 243.445,275.732 243.790,275.732 244.634 M209.199 244.804 C 209.835 245.460,210.432 245.997,210.525 245.997 C 210.619 245.997,210.176 245.460,209.540 244.804 C 208.904 244.148,208.308 243.612,208.214 243.612 C 208.120 243.612,208.564 244.148,209.199 244.804 M51.278 250.767 C 52.768 252.266,54.064 253.492,54.158 253.492 C 54.251 253.492,53.109 252.266,51.618 250.767 C 50.128 249.267,48.832 248.041,48.738 248.041 C 48.645 248.041,49.787 249.267,51.278 250.767 M47.802 259.625 C 47.802 260.656,47.866 261.078,47.944 260.562 C 48.022 260.047,48.022 259.204,47.944 258.688 C 47.866 258.173,47.802 258.595,47.802 259.625 M185.442 264.395 C 185.442 265.239,185.508 265.583,185.590 265.162 C 185.671 264.740,185.671 264.050,185.590 263.629 C 185.508 263.207,185.442 263.552,185.442 264.395 M210.660 274.106 C 210.662 275.043,210.728 275.385,210.807 274.868 C 210.885 274.350,210.883 273.583,210.802 273.164 C 210.721 272.745,210.657 273.169,210.660 274.106 " stroke="none" fill="#db8409" fill-rule="evenodd"></path><path id="path1" d="M185.520 0.380 C 183.646 0.538,178.142 1.150,173.289 1.740 L 164.466 2.812 159.661 2.251 C 136.592 -0.446,122.922 1.512,113.092 8.919 C 109.199 11.852,104.655 17.854,103.721 21.295 C 101.635 28.984,101.445 33.905,103.059 38.480 L 103.529 39.812 100.913 41.607 C 77.743 57.503,55.614 75.031,43.078 87.420 C 39.411 91.044,34.072 96.722,34.072 96.998 C 34.072 97.055,33.365 98.061,32.502 99.232 C 29.930 102.722,27.409 108.661,28.272 109.195 C 28.507 109.340,29.074 112.367,29.135 113.799 C 29.147 114.081,29.250 114.464,29.363 114.651 C 30.350 116.274,30.540 124.811,29.636 126.917 C 29.395 127.479,29.148 128.191,29.087 128.499 C 28.937 129.259,26.608 134.344,26.306 134.571 C 26.173 134.671,25.722 135.481,25.303 136.371 C 24.883 137.261,24.360 137.990,24.138 137.990 C 23.917 137.990,23.837 138.090,23.959 138.212 C 24.237 138.490,23.999 138.883,16.858 149.915 C 10.648 159.508,6.814 165.549,6.814 165.739 C 6.814 165.803,6.090 167.136,5.205 168.703 C 0.781 176.531,-1.017 184.105,0.406 188.927 C 0.627 189.676,0.822 190.366,0.839 190.460 C 1.118 191.999,3.612 194.929,6.133 196.681 C 6.976 197.266,7.718 197.871,7.780 198.023 C 7.843 198.176,8.023 198.222,8.179 198.125 C 8.335 198.028,8.700 198.186,8.989 198.476 C 9.279 198.765,9.560 198.978,9.613 198.948 C 9.667 198.919,10.950 199.286,12.465 199.765 C 13.980 200.243,16.174 200.743,17.339 200.875 L 19.458 201.114 19.292 203.619 C 19.201 204.996,19.005 206.317,18.856 206.554 C 18.708 206.791,18.630 207.253,18.684 207.581 C 18.738 207.909,18.658 208.178,18.505 208.179 C 18.353 208.180,18.200 208.734,18.165 209.410 C 18.130 210.087,17.995 210.891,17.865 211.197 C 17.530 211.990,17.433 212.907,17.173 217.757 C 16.923 222.398,17.543 225.652,19.043 227.577 C 19.667 228.377,18.917 230.039,17.342 231.346 C 15.170 233.148,15.794 239.539,18.597 244.194 C 21.762 249.448,22.006 252.322,19.778 258.092 C 18.062 262.537,18.078 262.475,17.820 265.854 C 17.709 267.312,17.493 268.582,17.340 268.677 C 17.187 268.771,17.209 269.237,17.390 269.711 C 17.570 270.185,17.720 271.291,17.723 272.169 C 17.732 274.652,18.625 278.283,19.873 280.910 C 20.498 282.227,21.036 283.420,21.067 283.560 C 21.099 283.701,21.393 284.092,21.721 284.429 C 22.049 284.766,22.930 285.728,23.680 286.567 C 26.209 289.397,34.440 293.697,37.328 293.697 C 37.598 293.697,37.819 293.859,37.819 294.058 C 37.819 294.256,37.956 294.334,38.122 294.231 C 38.289 294.128,40.014 294.288,41.955 294.586 C 46.502 295.284,63.644 295.283,65.784 294.585 C 66.051 294.498,68.876 294.257,72.061 294.051 C 75.247 293.844,78.569 293.612,79.443 293.535 L 81.032 293.395 81.243 294.994 C 81.359 295.873,81.521 297.206,81.602 297.956 C 82.442 305.689,86.938 318.486,91.106 325.005 C 91.632 325.828,92.215 326.939,92.402 327.475 C 92.588 328.011,92.889 328.450,93.069 328.450 C 93.249 328.450,93.302 328.603,93.186 328.790 C 93.070 328.978,93.117 329.131,93.289 329.131 C 93.617 329.131,95.294 332.621,95.513 333.759 C 95.582 334.118,95.733 334.642,95.848 334.923 C 95.964 335.204,96.519 336.717,97.082 338.284 C 99.923 346.185,103.175 349.033,108.462 348.248 C 112.226 347.689,118.873 345.931,126.065 343.592 C 129.344 342.525,132.181 341.619,132.368 341.577 C 132.555 341.536,133.169 341.311,133.731 341.078 C 135.958 340.155,141.256 338.258,141.738 338.210 C 142.019 338.183,142.325 338.065,142.419 337.949 C 142.608 337.714,151.246 334.276,151.789 334.220 C 151.976 334.200,152.283 334.061,152.470 333.911 C 152.658 333.760,154.832 332.777,157.303 331.726 C 168.189 327.093,181.193 320.656,190.743 315.173 L 195.625 312.370 199.261 313.402 C 208.443 316.010,216.952 316.945,230.153 316.796 C 248.469 316.589,247.521 316.478,254.174 319.607 C 261.137 322.882,262.095 322.723,266.152 317.628 C 278.337 302.321,285.367 278.360,286.657 247.739 C 287.047 238.480,287.062 238.349,287.638 239.523 C 287.961 240.179,288.527 241.166,288.897 241.716 C 289.267 242.267,289.492 242.842,289.398 242.994 C 289.304 243.146,289.393 243.271,289.595 243.271 C 289.798 243.271,290.150 243.693,290.378 244.208 C 290.606 244.723,290.988 245.349,291.226 245.598 C 291.464 245.848,291.572 246.192,291.465 246.365 C 291.359 246.537,291.443 246.678,291.652 246.678 C 291.862 246.678,291.949 246.815,291.845 246.983 C 291.741 247.151,291.885 247.376,292.166 247.483 C 292.446 247.591,292.675 247.884,292.675 248.134 C 292.675 248.385,293.053 249.103,293.515 249.729 C 293.977 250.356,294.283 250.986,294.194 251.129 C 294.106 251.272,294.181 251.441,294.361 251.504 C 294.542 251.567,295.041 252.254,295.471 253.030 C 298.875 259.181,299.830 260.988,299.830 261.278 C 299.830 261.462,299.965 261.664,300.131 261.726 C 301.767 262.344,310.416 283.079,310.516 286.625 C 310.573 288.628,310.825 288.653,313.896 286.962 C 331.158 277.460,345.367 236.785,340.585 210.562 C 340.008 207.402,339.980 207.423,341.596 209.794 C 342.330 210.871,343.258 212.136,343.659 212.605 C 344.060 213.074,345.027 214.225,345.808 215.162 C 348.047 217.846,354.620 224.367,357.240 226.504 C 358.552 227.573,359.702 228.527,359.796 228.623 C 360.244 229.083,365.298 232.402,367.036 233.378 C 368.113 233.982,368.995 234.616,368.995 234.786 C 368.995 234.955,369.302 235.094,369.676 235.094 C 370.051 235.094,370.358 235.247,370.358 235.434 C 370.358 235.622,370.473 235.741,370.613 235.700 C 370.889 235.619,377.571 238.197,377.853 238.493 C 377.947 238.591,378.254 238.691,378.535 238.716 C 378.816 238.740,380.273 239.075,381.772 239.461 C 386.753 240.742,393.802 241.290,398.041 240.727 L 400.000 240.467 400.000 238.717 C 400.000 237.755,399.746 235.741,399.435 234.242 C 399.000 232.144,398.900 230.221,399.003 225.894 C 399.465 206.292,399.008 199.367,396.602 189.527 C 388.155 154.978,361.402 119.370,315.768 81.934 C 310.592 77.688,309.515 76.661,310.058 76.489 C 310.425 76.372,310.868 76.364,311.041 76.471 C 311.214 76.578,311.407 76.542,311.470 76.392 C 311.614 76.049,321.277 73.884,321.646 74.112 C 321.796 74.205,321.970 74.125,322.033 73.936 C 322.096 73.746,322.798 73.554,323.593 73.508 C 324.388 73.462,325.040 73.291,325.041 73.129 C 325.042 72.967,325.349 72.914,325.724 73.012 C 326.099 73.110,326.405 73.025,326.405 72.824 C 326.405 71.981,317.402 42.930,317.141 42.930 C 316.984 42.930,313.180 45.383,308.688 48.382 C 304.197 51.380,300.442 53.833,300.346 53.833 C 300.249 53.833,300.170 49.923,300.170 45.145 L 300.170 36.457 283.034 36.457 L 265.897 36.457 262.165 33.499 C 258.317 30.449,257.211 29.505,247.660 21.122 C 226.593 2.630,212.938 -1.928,185.520 0.380 M156.123 24.166 C 159.368 24.996,163.079 26.850,169.304 30.750 C 183.670 39.749,191.246 39.862,203.987 31.268 C 210.163 27.103,212.794 26.207,216.912 26.870 C 223.498 27.931,226.525 31.719,230.839 44.293 C 236.392 60.478,241.646 64.349,252.641 60.358 C 257.433 58.618,259.284 58.840,259.284 61.155 C 259.284 65.809,245.143 68.150,237.904 64.695 C 232.586 62.157,229.418 57.177,225.148 44.644 C 220.079 29.768,216.395 28.294,204.763 36.487 C 192.492 45.130,183.093 44.693,166.083 34.687 C 157.495 29.635,154.873 28.613,150.547 28.628 C 140.714 28.662,140.579 38.686,150.176 56.182 C 156.245 67.246,160.136 78.044,160.136 83.821 C 160.136 84.780,160.229 84.890,160.903 84.727 C 176.503 80.956,205.846 78.069,234.583 77.479 C 246.963 77.225,247.359 77.299,247.359 79.870 C 247.359 82.124,247.555 82.091,233.025 82.264 C 207.741 82.564,185.972 84.656,165.588 88.746 C 163.245 89.216,161.237 89.602,161.124 89.604 C 161.012 89.606,160.825 92.713,160.710 96.508 C 160.468 104.520,159.892 109.160,157.082 125.749 C 148.482 176.531,150.274 188.221,170.936 216.118 C 186.378 236.966,189.546 244.354,190.636 262.050 C 191.275 272.438,192.624 278.827,195.420 284.704 C 199.696 293.694,206.673 293.832,209.298 284.977 L 209.812 283.242 207.951 281.789 C 196.576 272.905,193.665 254.967,203.704 255.609 C 211.488 256.106,215.770 263.107,215.841 275.448 L 215.874 281.220 216.875 281.488 C 220.680 282.505,224.526 278.333,224.802 272.886 C 225.262 263.818,221.205 257.254,204.555 240.125 C 175.187 209.913,169.626 197.958,170.118 166.099 C 170.933 113.404,180.880 92.326,194.393 114.661 C 198.893 122.098,199.239 121.966,200.521 112.335 C 203.425 90.507,208.766 87.578,219.827 101.746 C 221.344 103.690,222.628 105.281,222.679 105.281 C 222.857 105.281,225.204 97.926,226.049 94.719 C 227.240 90.196,228.768 88.936,230.869 90.744 C 232.088 91.792,232.046 92.448,230.336 99.012 C 226.572 113.468,222.767 114.326,214.040 102.689 C 212.132 100.145,210.158 98.119,209.599 98.131 C 208.187 98.163,207.711 99.975,206.473 110.016 C 204.275 127.851,198.639 130.008,189.467 116.525 C 188.001 114.370,186.481 112.320,186.089 111.970 C 182.566 108.821,179.142 120.369,176.860 143.101 C 172.086 190.663,175.936 202.197,207.685 235.434 C 226.587 255.222,232.024 265.042,230.022 275.773 C 228.681 282.961,221.276 288.546,215.676 286.594 C 214.778 286.281,214.592 286.313,214.434 286.810 C 210.689 298.550,199.004 300.376,192.166 290.290 C 187.851 283.926,185.906 276.295,185.349 263.543 C 184.611 246.638,181.389 239.039,166.498 219.080 C 144.838 190.047,143.095 178.903,151.789 125.043 C 157.725 88.275,157.156 82.237,145.530 58.603 C 139.314 45.966,137.761 40.987,138.056 34.642 C 138.474 25.671,145.677 21.495,156.123 24.166 M294.037 49.915 L 294.037 57.581 289.981 57.581 L 285.925 57.581 279.870 51.022 C 276.540 47.415,273.352 43.965,272.786 43.356 L 271.757 42.249 282.897 42.249 L 294.037 42.249 294.037 49.915 M110.806 49.950 C 124.458 58.845,130.838 66.538,134.931 79.039 C 137.771 87.714,138.501 93.531,138.501 107.496 C 138.501 119.939,138.407 121.022,136.105 135.264 C 130.519 169.807,132.369 189.065,143.644 213.746 C 146.072 219.062,151.827 229.736,153.815 232.611 C 153.842 232.651,154.610 232.459,155.521 232.185 C 168.299 228.340,176.020 245.663,168.375 261.023 L 167.086 263.614 177.392 285.725 C 183.061 297.886,187.707 307.920,187.716 308.022 C 187.766 308.537,173.530 316.154,164.316 320.543 C 147.838 328.393,126.985 336.502,115.856 339.388 C 107.346 341.594,105.894 340.784,102.204 331.772 C 101.081 329.030,99.381 325.436,98.426 323.785 C 93.471 315.219,91.551 309.759,89.430 298.213 C 88.186 291.442,87.694 292.178,94.613 290.446 C 119.776 284.144,131.267 276.208,135.939 261.903 C 136.890 258.991,136.711 258.791,135.194 261.068 C 124.797 276.671,100.458 286.350,66.780 288.274 C 43.174 289.623,30.408 286.116,26.142 277.109 C 24.566 273.781,24.513 268.239,26.023 264.566 C 29.225 256.776,29.115 250.665,25.652 243.897 C 22.963 238.642,22.946 236.793,25.550 232.816 L 26.625 231.173 35.204 231.174 C 44.676 231.175,48.342 230.770,55.368 228.946 C 61.087 227.461,62.071 227.607,64.506 230.303 C 65.560 231.469,65.758 231.933,65.758 233.232 C 65.758 237.254,69.031 239.174,70.380 235.944 C 71.954 232.179,70.239 226.787,66.409 223.456 C 63.826 221.208,63.612 220.803,63.542 218.018 C 63.407 212.684,58.616 210.347,51.114 211.955 C 45.782 213.099,46.237 217.081,51.725 217.300 C 55.156 217.437,55.786 217.591,56.220 218.403 C 57.385 220.578,52.420 222.748,43.441 223.987 C 24.069 226.659,21.149 223.514,25.827 205.016 C 28.068 196.155,26.711 197.138,38.671 195.703 C 59.722 193.177,66.027 194.977,71.329 205.026 C 73.966 210.027,75.891 210.982,76.525 207.604 C 77.436 202.745,71.938 195.204,64.459 191.060 L 62.325 189.876 62.253 186.657 C 62.043 177.279,51.541 168.923,42.129 170.646 C 33.082 172.302,35.914 185.009,45.330 185.009 C 47.116 185.009,48.722 184.038,48.722 182.959 C 48.722 181.999,47.394 181.261,45.665 181.259 C 41.217 181.256,39.083 176.771,42.651 174.925 C 49.075 171.603,61.057 182.529,56.686 187.723 C 54.731 190.047,53.948 190.223,36.116 192.363 C 15.708 194.813,10.931 194.030,8.054 187.765 C 5.378 181.941,8.068 175.641,22.830 153.152 C 37.084 131.436,38.516 127.709,36.485 117.600 C 35.907 114.725,35.434 111.711,35.434 110.902 C 35.434 100.531,53.747 83.034,92.845 56.047 C 97.155 53.073,101.831 49.830,103.237 48.842 C 106.387 46.627,105.509 46.499,110.806 49.950 M317.000 60.178 C 318.266 64.418,319.176 68.002,319.021 68.142 C 318.730 68.406,304.225 71.641,304.082 71.474 C 303.527 70.824,300.962 61.119,301.293 60.915 C 301.519 60.776,304.463 58.829,307.836 56.589 C 311.210 54.349,314.133 52.506,314.333 52.493 C 314.533 52.480,315.733 55.939,317.000 60.178 M95.713 63.558 C 85.503 71.207,85.660 70.848,90.703 75.020 C 94.129 77.854,100.151 83.630,103.517 87.308 C 106.328 90.381,108.688 90.383,108.688 87.313 C 108.688 85.701,101.405 77.956,94.406 72.127 C 93.775 71.601,93.395 71.054,93.563 70.910 C 95.186 69.519,96.845 68.453,97.244 68.543 C 98.798 68.896,115.506 84.839,121.552 91.738 C 124.254 94.821,124.919 95.400,125.754 95.400 C 126.967 95.400,128.109 94.332,128.109 93.197 C 128.109 91.383,116.329 78.928,106.026 69.847 C 100.434 64.918,100.726 65.477,102.909 63.875 L 104.626 62.614 106.906 64.365 C 110.498 67.123,115.898 72.022,118.190 74.601 C 120.790 77.526,122.231 77.963,123.419 76.184 C 124.814 74.094,118.554 67.309,107.873 59.334 C 104.494 56.812,104.915 56.665,95.713 63.558 M290.630 63.763 C 297.314 66.656,299.005 75.706,293.829 80.881 C 287.183 87.527,275.839 82.825,275.839 73.424 C 275.839 65.785,283.596 60.718,290.630 63.763 M270.484 80.579 C 256.073 104.492,244.368 140.886,235.136 190.483 C 234.593 193.400,233.827 196.418,233.434 197.188 C 232.824 198.383,207.872 221.465,205.017 223.474 C 203.341 224.655,203.140 224.349,194.279 207.155 C 183.963 187.137,184.502 189.641,188.592 180.743 C 208.043 138.425,235.820 101.568,267.121 76.543 L 272.061 72.593 272.402 74.712 L 272.743 76.831 270.484 80.579 M304.875 77.633 C 345.215 108.951,376.545 145.750,388.172 175.468 C 394.733 192.240,395.942 201.285,395.254 228.450 C 395.132 233.236,395.201 234.459,395.650 235.492 C 396.366 237.137,396.363 237.138,392.245 237.138 C 366.510 237.138,339.536 209.983,319.751 164.159 C 318.643 161.592,317.681 159.547,317.614 159.614 C 317.547 159.681,318.432 163.238,319.580 167.517 C 322.126 177.007,325.530 184.117,334.072 197.785 L 336.201 201.193 336.635 205.792 C 339.369 234.737,332.684 261.831,318.804 278.061 C 316.751 280.461,313.561 283.407,313.350 283.098 C 313.300 283.024,312.909 281.738,312.483 280.239 C 310.024 271.604,301.394 254.692,290.662 237.479 L 287.157 231.857 286.842 228.450 C 286.335 222.967,285.928 219.894,284.161 208.177 C 280.931 186.753,279.810 175.119,279.011 154.685 C 278.415 139.426,279.052 86.763,279.842 85.973 C 279.923 85.892,280.965 86.157,282.158 86.560 C 289.756 89.131,297.244 84.545,299.850 75.724 C 300.383 73.922,299.818 73.707,304.875 77.633 M275.932 82.480 L 277.077 83.812 276.341 86.541 C 272.010 102.591,274.445 169.516,281.474 227.598 C 283.931 247.902,283.733 257.385,280.524 273.254 C 276.343 293.928,266.436 315.503,261.123 315.503 C 257.614 315.503,251.383 305.645,247.065 293.264 C 237.794 266.679,235.211 230.771,239.890 193.526 C 244.712 155.149,258.468 108.980,272.301 84.753 C 274.687 80.574,274.431 80.734,275.932 82.480 M58.182 93.687 C 49.258 95.307,46.365 99.996,51.171 105.049 C 53.210 107.192,53.035 107.889,49.616 111.232 C 45.125 115.623,45.220 115.961,51.653 118.419 C 56.397 120.231,56.357 120.203,55.879 121.460 C 54.821 124.245,54.760 129.594,55.733 134.457 L 55.944 135.512 52.759 135.751 C 41.719 136.581,41.185 139.671,51.886 140.798 C 54.422 141.065,55.513 141.308,55.407 141.583 C 54.983 142.688,54.803 148.159,55.168 148.841 C 56.681 151.668,61.894 147.230,63.332 141.890 L 63.703 140.513 67.653 139.897 C 79.449 138.058,91.647 134.581,92.077 132.936 C 92.556 131.103,92.221 130.853,78.535 122.825 C 64.605 114.654,65.335 115.479,67.491 110.342 C 69.471 105.624,71.019 105.709,81.846 111.130 C 92.568 116.498,99.961 117.556,106.183 114.612 C 108.627 113.456,110.392 111.699,110.392 110.422 C 110.392 108.650,109.873 108.519,102.758 108.502 C 93.952 108.480,93.277 108.229,83.758 101.449 C 73.878 94.413,66.506 92.175,58.182 93.687 M65.766 105.802 C 66.390 106.553,63.881 112.805,62.651 113.568 C 61.806 114.092,53.492 110.007,53.492 109.068 C 53.492 107.509,64.706 104.525,65.766 105.802 M75.912 127.819 C 81.290 129.909,85.754 131.672,85.832 131.737 C 86.768 132.525,72.426 135.268,67.392 135.265 C 65.811 135.264,65.785 135.246,65.539 133.986 C 65.022 131.346,65.333 124.020,65.962 124.020 C 66.057 124.020,70.535 125.730,75.912 127.819 M124.702 176.377 C 117.252 178.976,110.716 189.848,110.738 199.604 C 110.757 208.221,115.977 215.030,125.006 218.216 L 126.423 218.715 124.921 216.598 C 116.082 204.138,117.169 188.407,127.573 178.206 C 128.617 177.182,129.472 176.223,129.472 176.076 C 129.472 175.617,126.308 175.816,124.702 176.377 M203.449 261.250 C 201.759 264.409,205.194 272.930,209.860 277.153 L 210.562 277.789 210.562 274.825 C 210.562 269.278,208.865 263.666,206.581 261.660 C 205.286 260.523,203.933 260.346,203.449 261.250 " stroke="none" fill="#040404" fill-rule="evenodd"></path><path id="path2" d="M307.684 56.703 C 304.227 59.000,301.333 61.077,301.252 61.319 C 301.146 61.639,303.715 70.808,304.096 71.465 C 304.180 71.611,318.873 68.294,319.085 68.081 C 319.391 67.775,314.701 52.470,314.310 52.501 C 314.123 52.516,311.141 54.407,307.684 56.703 M282.564 63.590 C 275.640 66.044,273.634 75.575,278.927 80.868 C 285.550 87.490,296.763 82.810,296.763 73.424 C 296.763 66.100,289.559 61.111,282.564 63.590 M288.376 66.859 C 289.172 67.096,290.380 67.878,291.169 68.666 C 297.149 74.637,288.900 83.946,282.175 78.816 C 276.144 74.216,281.089 64.681,288.376 66.859 M271.968 85.434 C 248.547 127.427,233.811 201.170,238.681 252.010 C 241.762 284.164,253.016 315.503,261.482 315.503 C 265.571 315.503,274.457 297.603,278.819 280.579 C 283.590 261.956,284.143 248.969,281.182 225.043 C 274.616 171.981,272.116 102.740,276.195 86.933 L 277.018 83.746 275.902 82.447 C 274.427 80.729,274.714 80.511,271.968 85.434 M258.396 88.330 C 228.731 118.456,203.790 154.220,191.849 183.756 L 190.083 188.125 197.182 203.467 C 201.086 211.904,204.393 218.831,204.531 218.859 C 204.984 218.951,230.612 195.071,230.638 194.531 C 230.653 194.240,231.362 190.483,232.215 186.183 C 240.264 145.604,251.434 109.021,262.555 86.815 C 263.944 84.041,265.030 81.772,264.968 81.772 C 264.906 81.772,261.948 84.723,258.396 88.330 M255.330 96.796 C 246.621 116.365,237.072 149.547,229.766 185.631 L 228.156 193.579 223.363 198.100 C 220.726 200.587,215.579 205.398,211.925 208.792 L 205.281 214.963 204.560 213.529 C 204.164 212.741,201.341 206.689,198.286 200.081 L 192.733 188.066 193.991 184.888 C 203.435 161.027,226.426 126.810,252.920 97.182 C 254.976 94.883,256.715 93.058,256.783 93.126 C 256.851 93.194,256.197 94.846,255.330 96.796 M270.373 113.203 C 270.394 139.326,271.403 157.575,275.152 199.659 C 277.666 227.876,278.025 232.367,278.235 238.160 C 279.250 266.262,270.326 303.564,261.149 309.578 C 256.248 312.789,246.131 281.138,242.950 252.641 C 238.150 209.639,245.911 157.852,264.448 109.199 C 265.963 105.223,270.173 95.060,270.305 95.060 C 270.334 95.060,270.364 103.224,270.373 113.203 M265.082 134.573 C 264.502 135.656,262.288 156.676,261.169 171.721 C 260.883 175.562,260.561 179.659,260.452 180.824 L 260.255 182.943 265.983 187.188 C 269.134 189.523,271.746 191.400,271.788 191.358 C 271.830 191.316,271.724 189.909,271.552 188.230 C 270.505 177.987,268.799 155.011,268.157 142.498 C 267.968 138.813,267.644 135.600,267.419 135.173 C 266.676 133.760,265.657 133.499,265.082 134.573 M258.563 135.340 C 256.386 139.407,248.462 174.852,247.168 186.310 L 246.925 188.464 251.848 184.684 L 256.770 180.903 257.364 172.990 C 258.094 163.260,259.060 152.760,260.115 143.101 C 260.636 138.337,260.805 135.567,260.599 135.179 C 260.158 134.347,259.047 134.435,258.563 135.340 M251.949 188.122 C 249.518 190.001,247.256 191.736,246.922 191.977 C 245.950 192.677,244.086 213.351,244.354 220.470 L 244.463 223.392 249.948 219.648 L 255.432 215.903 255.663 206.844 C 255.790 201.862,256.053 194.895,256.249 191.363 C 256.444 187.830,256.551 184.887,256.486 184.822 C 256.421 184.757,254.380 186.242,251.949 188.122 M259.966 188.051 C 259.966 188.997,259.819 193.184,259.640 197.355 C 259.461 201.527,259.242 207.793,259.155 211.280 L 258.995 217.620 263.484 220.704 C 265.953 222.400,269.565 224.887,271.511 226.230 L 275.049 228.672 274.809 225.154 C 274.678 223.219,274.194 217.572,273.734 212.606 C 273.275 207.641,272.725 201.694,272.512 199.392 L 272.125 195.207 266.472 191.024 C 263.362 188.723,260.626 186.726,260.392 186.586 C 260.074 186.396,259.966 186.766,259.966 188.051 M249.830 223.162 L 244.293 226.942 244.296 231.955 C 244.300 239.151,245.640 256.230,246.297 257.467 C 246.453 257.761,256.103 252.230,256.416 251.668 C 256.431 251.641,256.312 249.932,256.150 247.871 C 255.989 245.809,255.747 238.556,255.612 231.753 L 255.366 219.383 249.830 223.162 M258.944 223.068 C 258.945 226.656,259.652 245.770,259.897 248.810 L 260.136 251.794 267.291 256.561 L 274.446 261.329 274.675 260.221 C 275.403 256.701,275.953 237.478,275.433 233.690 C 275.245 232.314,275.057 232.076,273.134 230.782 C 271.982 230.007,268.318 227.510,264.991 225.233 L 258.944 221.093 258.944 223.068 M252.401 257.517 C 249.459 259.345,246.971 260.922,246.873 261.020 C 246.670 261.224,247.668 267.289,248.761 272.496 C 250.280 279.731,255.406 279.679,258.421 272.399 C 259.748 269.193,259.678 269.217,261.161 271.453 C 265.143 277.456,270.735 280.540,271.937 277.396 C 272.288 276.479,274.362 264.692,274.196 264.561 C 272.803 263.457,258.484 254.176,258.183 254.183 C 257.945 254.187,255.344 255.688,252.401 257.517 " stroke="none" fill="#05843b" fill-rule="evenodd"></path><path id="path3" d="M283.646 67.314 C 278.527 69.967,278.360 76.449,283.337 79.296 C 288.521 82.261,294.815 76.518,292.488 70.948 C 291.047 67.500,286.719 65.721,283.646 67.314 M267.121 76.543 C 235.820 101.568,208.043 138.425,188.592 180.743 C 184.502 189.641,183.963 187.137,194.279 207.155 C 203.140 224.349,203.341 224.655,205.017 223.474 C 207.872 221.465,232.824 198.383,233.434 197.188 C 233.827 196.418,234.593 193.400,235.136 190.483 C 244.368 140.886,256.073 104.492,270.484 80.579 L 272.743 76.831 272.402 74.712 L 272.061 72.593 267.121 76.543 M263.246 85.775 C 251.645 108.943,240.132 146.538,232.388 186.542 C 231.626 190.477,230.888 194.064,230.748 194.512 C 230.447 195.478,204.713 219.473,204.350 219.126 C 203.910 218.706,190.119 188.687,190.119 188.149 C 190.119 187.180,193.250 179.752,196.411 173.220 C 208.367 148.511,226.852 122.026,249.054 97.793 C 252.804 93.699,265.413 80.750,265.649 80.750 C 265.711 80.750,264.630 83.011,263.246 85.775 M251.361 99.233 C 238.550 113.719,226.315 129.573,215.699 145.446 C 213.388 148.902,212.431 150.590,212.860 150.453 C 216.059 149.438,226.442 144.391,226.725 143.714 C 231.479 132.334,238.815 117.547,239.706 117.547 C 241.688 117.547,241.534 118.132,237.213 127.006 C 232.550 136.584,227.565 147.709,227.483 148.722 C 227.395 149.805,234.528 161.950,234.831 161.234 C 234.968 160.911,235.705 158.118,236.468 155.026 C 242.133 132.077,249.638 108.699,255.309 96.337 C 255.975 94.885,256.461 93.697,256.389 93.697 C 256.317 93.697,254.055 96.188,251.361 99.233 M342.760 111.521 C 342.760 111.579,343.258 112.078,343.867 112.628 L 344.974 113.629 343.974 112.521 C 343.041 111.489,342.760 111.257,342.760 111.521 M85.690 141.876 C 77.111 143.508,68.149 148.107,65.218 152.381 C 62.140 156.871,63.753 162.352,68.792 164.519 L 70.482 165.246 69.324 166.968 C 63.454 175.691,71.710 182.298,85.930 180.256 C 97.641 178.575,103.275 175.052,101.405 170.577 C 100.267 167.852,96.950 167.602,91.043 169.795 C 78.527 174.442,71.793 171.563,78.404 164.392 L 79.749 162.933 78.157 162.391 C 68.958 159.257,72.714 153.385,85.179 151.414 C 93.018 150.174,95.929 148.012,94.515 144.479 C 93.484 141.902,90.373 140.984,85.690 141.876 M216.948 151.509 L 209.560 154.775 207.102 159.074 C 204.335 163.914,198.950 174.285,197.131 178.281 L 195.928 180.922 197.197 180.388 C 197.895 180.094,202.070 178.398,206.474 176.618 C 215.858 172.826,214.822 173.673,216.853 168.143 C 217.748 165.707,219.857 160.292,221.540 156.110 C 223.222 151.927,224.539 148.446,224.467 148.374 C 224.395 148.302,221.011 149.713,216.948 151.509 M223.408 158.093 C 222.140 161.279,220.186 166.342,219.067 169.344 L 217.031 174.803 222.395 183.824 C 225.345 188.785,227.843 192.845,227.946 192.845 C 228.049 192.845,228.559 190.660,229.079 187.990 C 229.599 185.319,230.877 179.194,231.919 174.379 L 233.814 165.623 229.958 158.961 C 227.838 155.297,226.015 152.300,225.909 152.300 C 225.802 152.300,224.677 154.907,223.408 158.093 M203.893 180.461 L 194.328 184.366 193.755 185.965 C 193.440 186.844,193.183 187.801,193.184 188.091 C 193.185 188.504,204.908 214.210,205.260 214.570 C 205.308 214.620,210.040 210.289,215.776 204.945 L 226.204 195.230 223.319 190.375 C 221.733 187.704,219.478 183.877,218.309 181.870 C 217.140 179.862,216.097 178.214,215.990 178.207 C 215.733 178.190,210.911 193.180,209.363 198.807 C 207.443 205.785,207.563 205.506,206.526 205.386 C 204.819 205.188,206.026 199.765,211.395 183.507 C 212.627 179.777,213.596 176.687,213.547 176.640 C 213.498 176.594,209.154 178.313,203.893 180.461 M157.528 234.798 C 149.564 236.202,142.735 248.780,144.142 259.455 C 145.506 269.808,153.496 273.173,160.650 266.407 C 172.010 255.663,169.737 232.645,157.528 234.798 M45.487 238.841 C 43.986 239.949,42.382 240.781,40.895 241.224 C 37.422 242.258,37.215 242.614,37.960 246.282 C 38.535 249.113,38.537 249.520,37.999 254.022 C 36.747 264.503,36.915 265.692,39.871 267.225 C 45.695 270.245,48.895 263.706,47.053 252.549 C 45.959 245.918,46.446 245.807,52.226 251.377 C 58.752 257.666,62.594 258.890,66.017 255.772 C 69.393 252.696,67.426 249.335,59.796 245.139 C 54.203 242.064,53.219 241.377,50.924 238.952 C 48.799 236.707,48.389 236.698,45.487 238.841 M160.150 241.745 C 165.300 244.408,162.571 259.538,156.369 262.702 C 152.429 264.712,149.608 262.324,149.312 256.729 C 148.840 247.813,155.113 239.140,160.150 241.745 " stroke="none" fill="#ca0d2b" fill-rule="evenodd"></path><path id="path4" d="M146.893 23.855 C 138.649 25.597,136.033 33.796,139.936 45.656 C 140.399 47.061,142.970 52.734,145.649 58.262 C 157.564 82.844,158.019 87.891,151.793 126.405 C 143.319 178.833,145.116 190.052,166.623 218.947 C 181.740 239.258,184.506 245.737,185.515 263.203 C 186.290 276.614,187.766 282.840,191.661 289.118 C 198.190 299.641,209.638 299.094,213.774 288.061 C 214.123 287.132,214.451 286.319,214.503 286.256 C 214.555 286.192,215.444 286.330,216.477 286.561 C 223.732 288.184,230.337 280.733,229.894 271.424 C 229.397 260.985,224.776 253.541,207.765 235.775 C 175.797 202.390,171.903 190.695,176.685 142.419 C 178.783 121.246,182.329 109.239,185.810 111.520 C 186.251 111.809,187.733 113.705,189.102 115.733 C 194.307 123.441,197.351 125.692,200.797 124.382 C 203.770 123.252,205.148 119.277,206.600 107.647 C 207.946 96.858,208.918 95.911,213.154 101.256 C 218.112 107.509,218.888 108.382,220.358 109.355 C 224.811 112.305,227.303 109.635,230.190 98.821 C 231.922 92.331,231.951 92.019,230.898 91.030 C 228.969 89.218,227.386 90.478,226.261 94.719 C 225.288 98.386,223.171 105.034,222.873 105.354 C 222.749 105.488,221.142 103.695,219.303 101.369 C 208.765 88.047,203.484 91.017,200.837 111.755 C 199.504 122.190,198.833 122.402,193.697 114.014 C 180.505 92.470,170.476 116.409,170.236 170.017 C 170.109 198.294,176.312 210.792,205.232 240.517 C 218.864 254.529,223.127 260.586,224.761 268.269 C 226.468 276.290,222.044 283.154,216.182 281.579 C 215.530 281.403,215.504 281.165,215.622 276.330 C 215.769 270.296,215.204 266.835,213.466 263.132 C 210.109 255.981,201.599 253.124,198.975 258.268 C 195.757 264.575,199.112 273.567,207.518 281.166 L 210.051 283.456 209.253 285.766 C 203.862 301.354,190.510 285.005,190.466 262.763 C 190.435 247.165,186.133 236.957,170.965 216.494 C 155.287 195.344,152.470 188.058,152.470 168.654 C 152.470 154.561,153.239 147.172,157.064 124.532 C 159.985 107.237,161.140 96.274,160.571 91.227 L 160.394 89.657 161.713 89.310 C 165.715 88.258,179.758 85.928,188.416 84.879 C 204.091 82.981,212.668 82.437,230.406 82.216 C 241.084 82.083,246.146 81.902,246.486 81.641 C 247.398 80.941,247.461 79.608,246.632 78.554 L 245.866 77.581 233.070 77.788 C 207.172 78.207,179.572 80.847,163.203 84.471 C 161.610 84.823,160.282 85.088,160.253 85.060 C 160.223 85.032,159.952 83.552,159.649 81.772 C 158.347 74.099,156.569 69.053,152.207 60.647 C 143.888 44.616,143.485 43.591,143.189 37.739 C 142.624 26.538,150.497 25.179,165.247 33.931 C 176.669 40.709,180.258 42.004,187.734 42.049 C 194.904 42.092,198.146 40.979,204.940 36.141 C 216.537 27.884,220.197 29.558,225.733 45.656 C 230.083 58.307,233.539 63.092,239.932 65.317 C 247.427 67.926,261.578 64.205,258.707 60.382 C 257.805 59.182,256.230 59.195,253.054 60.428 C 241.716 64.833,236.302 60.878,230.498 43.952 C 225.938 30.654,222.660 27.087,214.999 27.087 C 211.046 27.087,209.272 27.817,203.456 31.839 C 191.538 40.079,183.345 39.791,168.715 30.616 C 159.183 24.638,152.697 22.628,146.893 23.855 M279.604 92.523 C 277.786 145.019,278.915 171.781,284.524 209.179 C 285.467 215.468,286.507 223.143,286.835 226.235 L 287.431 231.857 291.814 239.012 C 302.399 256.294,309.539 270.225,312.418 279.213 C 313.017 281.085,313.565 282.673,313.634 282.743 C 313.863 282.972,317.598 279.259,319.611 276.801 C 331.485 262.302,337.552 240.549,336.851 214.991 C 336.544 203.778,336.206 201.372,334.611 199.007 C 332.685 196.154,328.895 189.634,325.385 183.135 C 323.664 179.949,322.343 177.738,322.449 178.221 C 329.104 208.573,329.046 235.941,322.281 256.296 C 321.089 259.884,318.041 266.440,317.566 266.440 C 316.741 266.440,311.182 258.875,307.705 253.022 C 287.436 218.906,278.277 162.875,282.496 98.807 C 282.711 95.528,282.905 91.567,282.926 90.005 L 282.964 87.165 281.398 86.565 L 279.831 85.965 279.604 92.523 M291.397 86.487 C 289.554 87.180,289.449 86.646,292.952 94.387 C 294.603 98.036,296.781 102.971,297.791 105.353 C 298.802 107.735,299.662 109.650,299.704 109.609 C 299.745 109.568,299.038 106.974,298.134 103.844 C 297.229 100.715,295.758 95.388,294.865 92.007 C 293.971 88.626,293.151 85.879,293.043 85.901 C 292.934 85.924,292.193 86.187,291.397 86.487 M268.711 99.063 C 246.273 152.433,237.146 211.603,243.971 259.455 C 247.308 282.855,256.033 309.710,260.299 309.710 C 262.474 309.710,267.481 301.008,270.681 291.667 C 277.427 271.971,279.444 248.762,276.854 220.613 C 271.330 160.567,270.027 138.812,270.244 110.306 C 270.307 102.108,270.334 95.400,270.305 95.400 C 270.275 95.400,269.558 97.049,268.711 99.063 M291.908 102.470 C 291.580 102.544,291.214 102.998,291.093 103.479 C 290.889 104.292,298.261 152.563,298.841 154.209 C 299.069 154.858,315.428 164.413,315.753 164.088 C 315.922 163.919,311.738 150.250,309.566 143.873 C 305.931 133.200,299.237 115.867,294.239 104.186 C 293.660 102.832,292.870 102.251,291.908 102.470 M285.728 104.440 C 284.208 105.960,284.216 151.332,285.739 162.432 L 285.937 163.877 290.805 159.366 C 294.335 156.095,295.682 154.631,295.707 154.039 C 295.757 152.852,288.281 105.594,287.900 104.685 C 287.529 103.800,286.486 103.682,285.728 104.440 M267.417 134.931 C 267.917 135.754,268.089 137.000,268.274 141.149 C 268.657 149.774,269.452 161.234,270.734 176.603 C 271.403 184.629,271.875 191.270,271.784 191.362 C 271.692 191.454,269.073 189.656,265.962 187.367 L 260.307 183.206 260.307 181.769 C 260.307 174.394,264.231 135.431,265.077 134.412 C 265.753 133.598,266.739 133.816,267.417 134.931 M260.672 134.782 C 261.043 135.230,261.018 136.263,260.523 140.830 C 259.490 150.358,258.306 163.049,257.596 172.198 C 257.219 177.051,256.870 181.047,256.820 181.076 C 256.746 181.121,248.744 187.248,247.053 188.556 C 246.505 188.979,246.517 188.864,247.910 180.239 C 249.818 168.419,253.793 150.680,257.018 139.591 C 258.455 134.652,259.463 133.325,260.672 134.782 M291.223 162.737 C 287.724 165.956,286.202 167.579,286.204 168.090 C 286.213 170.137,288.784 189.068,289.095 189.379 C 289.163 189.447,291.613 187.149,294.541 184.274 L 299.865 179.046 298.254 168.825 C 297.368 163.203,296.553 158.494,296.444 158.361 C 296.334 158.227,293.985 160.197,291.223 162.737 M299.489 158.710 C 299.489 159.878,302.624 178.399,302.862 178.637 C 304.142 179.917,321.477 189.325,321.567 188.788 C 321.687 188.075,319.751 178.914,318.151 172.614 L 317.036 168.227 310.562 164.585 C 307.002 162.582,303.054 160.365,301.789 159.659 C 300.524 158.952,299.489 158.525,299.489 158.710 M76.917 159.014 C 77.338 159.095,78.028 159.095,78.450 159.014 C 78.871 158.933,78.526 158.866,77.683 158.866 C 76.840 158.866,76.495 158.933,76.917 159.014 M303.238 182.526 C 303.243 183.405,306.962 205.883,307.130 206.051 C 307.357 206.278,324.502 215.601,324.581 215.540 C 324.940 215.267,322.809 193.946,322.357 193.281 C 322.241 193.111,318.237 190.744,313.458 188.020 C 303.090 182.110,303.236 182.189,303.238 182.526 M294.839 187.819 L 289.687 193.015 290.819 198.366 C 291.844 203.211,294.000 211.838,295.130 215.613 L 295.571 217.087 299.812 211.880 C 302.446 208.645,304.033 206.409,304.001 205.977 C 303.860 204.085,300.355 182.624,300.186 182.624 C 300.079 182.624,297.673 184.962,294.839 187.819 M256.725 186.116 C 256.422 189.111,255.881 202.252,255.845 207.496 C 255.826 210.213,255.710 213.266,255.588 214.281 L 255.366 216.126 249.613 220.043 L 243.860 223.960 244.094 218.368 C 244.357 212.068,245.131 201.683,245.752 196.118 L 246.167 192.406 251.278 188.394 C 257.247 183.708,256.956 183.830,256.725 186.116 M267.373 191.482 C 271.908 194.866,272.178 195.133,272.366 196.422 C 272.525 197.515,274.029 213.904,275.143 226.702 L 275.347 229.042 270.638 225.809 C 268.048 224.031,264.395 221.518,262.521 220.224 L 259.114 217.871 259.004 214.813 C 258.890 211.634,259.486 193.280,259.853 188.677 L 260.063 186.043 261.320 186.974 C 262.012 187.486,264.735 189.514,267.373 191.482 M308.845 214.395 C 309.445 216.878,310.763 222.333,311.774 226.518 L 313.613 234.125 318.269 238.171 L 322.925 242.217 323.299 239.592 C 324.027 234.480,324.335 230.917,324.566 224.947 L 324.799 218.907 316.420 214.394 C 311.811 211.912,307.976 209.881,307.897 209.881 C 307.818 209.881,308.245 211.912,308.845 214.395 M300.642 215.239 L 296.513 220.273 298.131 224.872 C 300.962 232.920,305.375 243.271,305.975 243.271 C 306.331 243.271,310.733 235.245,310.733 234.595 C 310.733 233.977,305.380 211.707,305.015 210.810 C 304.820 210.329,303.932 211.228,300.642 215.239 M384.754 216.865 C 384.758 217.615,384.827 217.882,384.909 217.458 C 384.990 217.034,384.987 216.421,384.902 216.095 C 384.817 215.769,384.750 216.116,384.754 216.865 M256.211 244.441 C 256.507 250.173,256.494 251.651,256.143 251.969 C 255.394 252.648,246.786 257.922,246.426 257.922 C 245.755 257.922,244.472 244.698,244.093 233.873 L 243.853 227.030 249.610 223.099 L 255.366 219.168 255.604 228.238 C 255.735 233.227,256.008 240.518,256.211 244.441 M267.462 226.699 L 275.468 232.240 275.735 235.967 C 276.085 240.867,275.392 259.411,274.792 261.217 C 274.716 261.445,271.528 259.517,267.334 256.707 L 260.009 251.799 259.815 250.346 C 259.185 245.613,258.668 221.106,259.199 221.141 C 259.340 221.150,263.058 223.651,267.462 226.699 M310.446 241.454 C 307.284 247.204,307.397 246.639,308.875 249.311 C 310.139 251.597,315.216 259.386,316.460 260.947 L 317.106 261.758 318.147 259.244 C 319.749 255.375,322.649 245.425,322.248 245.170 C 322.031 245.032,314.601 238.677,313.751 237.902 L 312.851 237.081 310.446 241.454 M266.628 259.297 L 274.362 264.460 274.151 266.256 C 273.603 270.917,272.141 277.875,271.624 278.279 C 269.389 280.027,264.904 277.215,261.259 271.779 L 259.698 269.451 259.140 271.133 C 257.094 277.291,251.989 279.988,249.581 276.184 C 249.083 275.398,247.188 266.110,246.862 262.862 L 246.657 260.818 252.375 257.323 C 255.519 255.401,258.273 253.897,258.493 253.981 C 258.714 254.065,262.375 256.457,266.628 259.297 M206.033 260.975 C 208.983 262.774,211.462 271.001,210.657 276.320 L 210.373 278.194 208.078 275.301 C 202.006 267.647,200.578 257.650,206.033 260.975 " stroke="none" fill="#fbd304" fill-rule="evenodd"></path><path id="path5" d="M297.458 81.806 L 296.350 83.185 297.286 85.800 C 320.818 151.527,342.871 196.692,359.542 213.305 C 369.610 223.339,385.982 230.938,386.845 225.980 C 388.619 215.794,386.131 197.456,381.071 183.416 C 372.019 158.299,357.382 137.945,325.231 105.762 C 314.407 94.928,309.480 90.217,301.310 82.888 L 298.567 80.427 297.458 81.806 M307.325 91.764 C 312.923 96.883,336.451 120.223,336.231 120.439 C 336.133 120.535,326.113 118.201,322.249 117.181 C 321.064 116.868,320.687 116.367,316.001 108.867 C 310.611 100.240,310.304 99.845,309.426 100.397 C 308.333 101.085,308.691 101.871,313.969 110.359 L 319.288 118.912 318.410 123.766 C 317.927 126.436,317.439 129.078,317.325 129.637 C 317.085 130.808,312.350 119.216,304.731 98.807 C 302.387 92.530,300.243 86.800,299.965 86.074 L 299.461 84.754 300.582 85.688 C 301.199 86.202,304.233 88.936,307.325 91.764 M238.711 118.293 C 238.024 119.346,231.836 132.386,228.813 139.152 L 226.391 144.573 219.140 147.840 C 212.210 150.962,211.844 151.175,210.888 152.641 C 209.511 154.750,209.514 154.749,217.555 151.155 C 221.486 149.397,224.741 147.991,224.788 148.029 C 224.835 148.068,223.868 150.539,222.639 153.522 C 221.410 156.504,219.275 161.934,217.894 165.588 C 216.513 169.242,215.290 172.469,215.177 172.759 C 215.059 173.062,210.890 174.933,205.337 177.173 L 195.703 181.061 195.126 182.411 C 194.300 184.346,194.001 184.417,204.128 180.278 C 209.228 178.194,213.462 176.552,213.538 176.627 C 213.614 176.703,212.605 180.052,211.295 184.070 C 205.977 200.387,204.856 205.281,206.436 205.281 C 207.511 205.281,207.533 205.232,209.514 198.126 C 211.628 190.541,215.609 178.194,215.939 178.196 C 216.074 178.197,218.466 182.037,221.255 186.730 L 226.327 195.263 227.144 194.495 C 228.200 193.503,228.576 194.338,222.370 183.893 L 216.971 174.808 219.091 169.091 C 221.234 163.311,223.868 156.590,225.194 153.523 L 225.917 151.851 229.906 158.732 L 233.896 165.612 234.324 163.921 L 234.752 162.230 231.005 155.752 C 228.944 152.189,227.257 149.103,227.257 148.893 C 227.257 148.272,233.531 134.313,237.363 126.410 C 239.315 122.384,240.868 118.781,240.814 118.403 C 240.669 117.395,239.343 117.325,238.711 118.293 M331.857 122.146 C 338.683 123.840,339.616 124.155,340.375 125.022 C 349.682 135.659,353.672 140.471,357.735 145.956 C 361.519 151.064,364.958 156.201,364.660 156.300 C 364.415 156.382,341.405 149.701,341.200 149.488 C 340.931 149.208,322.998 120.232,322.998 120.077 C 322.998 119.972,323.267 119.966,323.595 120.065 C 323.922 120.163,327.641 121.100,331.857 122.146 M331.019 137.838 L 339.332 151.220 336.364 159.252 L 333.397 167.284 332.404 165.329 C 330.883 162.330,324.788 148.810,321.654 141.479 L 318.848 134.917 319.919 129.043 C 321.263 121.670,321.168 121.929,322.014 123.320 C 322.394 123.945,326.446 130.477,331.019 137.838 M65.636 125.639 C 65.359 127.314,65.360 131.683,65.637 133.708 L 65.857 135.313 68.448 135.091 C 75.206 134.511,85.903 132.436,85.277 131.825 C 84.944 131.500,66.705 124.361,66.208 124.361 C 66.010 124.361,65.752 124.936,65.636 125.639 M102.385 149.013 C 100.690 149.573,98.073 150.900,95.212 152.652 C 87.941 157.102,82.785 158.889,77.257 158.873 C 75.055 158.866,73.254 158.984,73.254 159.133 C 73.254 159.627,75.597 161.347,76.907 161.815 C 77.615 162.068,78.555 162.409,78.996 162.573 L 79.798 162.872 78.585 164.214 C 77.413 165.512,75.980 167.935,75.980 168.620 C 75.980 168.803,77.551 168.210,79.472 167.302 C 84.701 164.830,86.596 164.495,96.934 164.212 C 109.957 163.856,112.989 162.337,112.304 156.511 C 111.550 150.097,107.765 147.235,102.385 149.013 M355.583 156.387 C 361.896 158.260,367.097 159.832,367.141 159.879 C 367.709 160.500,372.660 169.887,374.195 173.254 C 377.491 180.483,380.129 187.744,379.450 187.720 C 378.674 187.692,363.208 184.787,363.067 184.643 C 362.921 184.494,345.231 156.094,344.034 154.089 C 343.167 152.635,342.465 152.495,355.583 156.387 M351.073 170.045 C 356.433 178.680,360.820 185.924,360.823 186.144 C 360.828 186.531,355.028 203.774,354.795 204.064 C 354.139 204.879,343.912 188.109,338.160 176.789 L 334.936 170.443 337.901 162.393 C 339.531 157.966,340.970 154.344,341.097 154.344 C 341.224 154.344,345.713 161.409,351.073 170.045 M373.083 189.127 C 377.300 189.893,380.766 190.545,380.786 190.575 C 381.384 191.492,383.544 201.979,384.192 207.119 C 384.772 211.718,384.930 224.065,384.415 224.580 C 383.328 225.667,373.231 221.275,368.177 217.518 C 365.043 215.187,359.461 209.992,357.685 207.752 L 356.672 206.474 359.641 197.567 C 361.604 191.679,362.707 188.820,362.895 189.134 C 371.373 203.235,373.101 205.463,374.205 203.714 C 374.475 203.286,373.516 201.510,369.746 195.452 C 367.104 191.207,365.049 187.734,365.180 187.734 C 365.310 187.734,368.867 188.361,373.083 189.127 M46.678 248.807 C 46.678 249.604,46.920 251.482,47.215 252.981 C 47.510 254.480,47.800 257.404,47.859 259.479 C 48.142 269.367,56.841 275.808,61.354 269.470 C 63.663 266.228,61.215 258.373,57.069 255.721 C 56.057 255.074,53.556 252.927,51.511 250.952 C 47.326 246.909,46.678 246.621,46.678 248.807 " stroke="none" fill="#fbf6f4" fill-rule="evenodd"></path><path id="path6" d="M283.468 87.734 C 283.464 87.922,283.243 91.141,282.976 94.889 C 278.326 160.162,286.799 215.542,306.902 251.278 C 309.952 256.700,316.691 266.099,317.528 266.099 C 318.202 266.099,321.121 259.337,322.848 253.774 C 334.110 217.504,324.070 164.288,292.809 94.547 L 289.601 87.391 286.538 87.392 C 284.729 87.393,283.473 87.533,283.468 87.734 M293.835 102.981 C 294.838 104.536,302.474 123.521,306.203 133.731 C 310.249 144.809,316.433 164.089,316.060 164.462 C 315.892 164.630,299.525 155.502,298.926 154.905 C 298.049 154.032,290.510 103.982,291.117 103.056 C 291.821 101.981,293.166 101.944,293.835 102.981 M287.682 104.085 C 288.235 104.638,296.082 151.526,296.082 154.278 C 296.082 154.474,293.744 156.815,290.886 159.480 L 285.690 164.326 285.461 161.805 C 283.784 143.366,283.836 106.221,285.542 104.405 C 286.439 103.451,286.968 103.371,287.682 104.085 M296.962 159.370 C 297.095 160.260,297.863 165.051,298.670 170.017 L 300.136 179.046 294.619 184.392 C 291.160 187.743,289.018 189.586,288.877 189.332 C 288.623 188.871,286.760 176.000,286.208 170.886 C 285.851 167.574,285.860 167.477,286.618 166.724 C 288.667 164.687,296.280 157.775,296.487 157.764 C 296.616 157.757,296.830 158.480,296.962 159.370 M308.208 163.020 C 313.018 165.730,317.028 168.021,317.118 168.111 C 317.691 168.685,322.275 189.253,321.910 189.618 C 321.812 189.715,317.381 187.300,312.062 184.250 L 302.392 178.705 300.795 168.825 C 299.092 158.292,299.064 158.092,299.305 158.092 C 299.391 158.092,303.397 160.310,308.208 163.020 M312.869 187.437 C 318.159 190.459,322.522 192.960,322.565 192.994 C 323.258 193.557,325.145 215.673,324.500 215.673 C 324.247 215.673,307.237 206.488,306.929 206.185 C 306.804 206.063,305.918 200.980,304.958 194.889 C 303.999 188.799,303.131 183.394,303.028 182.879 C 302.774 181.602,302.145 181.310,312.869 187.437 M302.428 194.113 C 303.431 200.443,304.253 205.877,304.255 206.188 C 304.258 206.633,297.947 214.796,295.911 216.981 C 295.287 217.650,291.784 205.052,290.063 195.949 L 289.458 192.749 294.847 187.493 C 297.812 184.601,300.320 182.319,300.421 182.420 C 300.523 182.522,301.426 187.784,302.428 194.113 M316.280 214.055 L 324.764 218.569 324.593 225.894 C 324.431 232.826,323.592 241.413,323.019 242.012 C 322.701 242.344,313.549 234.577,313.322 233.782 C 313.234 233.473,311.922 228.083,310.406 221.806 C 308.890 215.528,307.581 210.200,307.498 209.966 C 307.248 209.264,307.474 209.369,316.280 214.055 M308.123 222.318 L 311.135 234.746 308.634 239.343 C 307.258 241.871,306.040 243.942,305.926 243.946 C 305.395 243.963,299.893 230.815,297.551 223.931 L 296.300 220.253 300.535 215.072 C 302.864 212.223,304.847 209.891,304.940 209.890 C 305.034 209.890,306.466 215.482,308.123 222.318 M321.331 244.203 L 322.561 245.359 321.934 248.048 C 321.141 251.457,319.145 257.645,318.017 260.196 L 317.150 262.157 316.493 261.317 C 314.047 258.189,307.325 247.545,307.325 246.802 C 307.325 246.629,309.815 242.055,311.986 238.238 L 312.814 236.782 316.458 239.914 C 318.462 241.637,320.655 243.567,321.331 244.203 " stroke="none" fill="#041c74" fill-rule="evenodd"></path><path id="path7" d="M187.143 42.493 C 187.661 42.572,188.427 42.569,188.846 42.489 C 189.265 42.408,188.842 42.344,187.905 42.346 C 186.968 42.349,186.625 42.415,187.143 42.493 M111.244 74.617 C 111.976 75.366,112.651 75.980,112.745 75.980 C 112.838 75.980,112.316 75.366,111.584 74.617 C 110.852 73.867,110.177 73.254,110.083 73.254 C 109.989 73.254,110.512 73.867,111.244 74.617 M96.763 74.042 C 96.763 74.101,97.261 74.599,97.871 75.149 L 98.978 76.150 97.977 75.043 C 97.044 74.010,96.763 73.779,96.763 74.042 M107.496 77.683 C 108.228 78.433,108.903 79.046,108.997 79.046 C 109.091 79.046,108.568 78.433,107.836 77.683 C 107.105 76.934,106.429 76.320,106.335 76.320 C 106.242 76.320,106.764 76.934,107.496 77.683 M236.047 77.596 C 237.602 77.659,240.055 77.659,241.498 77.595 C 242.942 77.532,241.670 77.480,238.671 77.480 C 235.673 77.481,234.492 77.533,236.047 77.596 M222.743 77.924 C 223.164 78.005,223.854 78.005,224.276 77.924 C 224.698 77.842,224.353 77.776,223.509 77.776 C 222.666 77.776,222.321 77.842,222.743 77.924 M215.417 78.259 C 215.745 78.344,216.282 78.344,216.610 78.259 C 216.938 78.173,216.670 78.103,216.014 78.103 C 215.358 78.103,215.089 78.173,215.417 78.259 M223.771 82.359 C 224.383 82.435,225.303 82.434,225.815 82.356 C 226.327 82.278,225.826 82.216,224.702 82.218 C 223.578 82.220,223.159 82.284,223.771 82.359 M215.251 82.694 C 215.675 82.776,216.288 82.773,216.614 82.687 C 216.940 82.602,216.593 82.535,215.843 82.539 C 215.094 82.543,214.827 82.613,215.251 82.694 M121.976 85.349 C 122.612 86.005,123.209 86.542,123.302 86.542 C 123.396 86.542,122.953 86.005,122.317 85.349 C 121.681 84.693,121.084 84.157,120.991 84.157 C 120.897 84.157,121.340 84.693,121.976 85.349 M50.916 88.330 L 49.915 89.438 51.022 88.437 C 52.054 87.504,52.286 87.223,52.023 87.223 C 51.964 87.223,51.466 87.721,50.916 88.330 M117.888 88.011 C 117.888 88.070,118.386 88.568,118.995 89.119 L 120.102 90.119 119.102 89.012 C 118.169 87.980,117.888 87.748,117.888 88.011 M155.496 92.164 C 155.497 94.412,155.552 95.288,155.619 94.109 C 155.686 92.931,155.685 91.091,155.618 90.021 C 155.550 88.951,155.496 89.915,155.496 92.164 M255.010 91.397 L 253.663 92.845 255.111 91.498 C 256.457 90.246,256.715 89.949,256.458 89.949 C 256.402 89.949,255.750 90.601,255.010 91.397 M279.484 91.482 C 279.487 92.419,279.553 92.762,279.631 92.244 C 279.710 91.726,279.707 90.960,279.627 90.540 C 279.546 90.121,279.482 90.545,279.484 91.482 M62.272 93.262 C 62.884 93.338,63.804 93.337,64.316 93.259 C 64.828 93.181,64.327 93.119,63.203 93.121 C 62.078 93.123,61.659 93.186,62.272 93.262 M44.101 95.145 L 43.101 96.252 44.208 95.251 C 45.240 94.319,45.472 94.037,45.209 94.037 C 45.150 94.037,44.652 94.536,44.101 95.145 M160.556 98.467 C 160.556 99.123,160.626 99.391,160.712 99.063 C 160.798 98.735,160.798 98.198,160.712 97.871 C 160.626 97.543,160.556 97.811,160.556 98.467 M270.289 99.830 C 270.289 100.860,270.353 101.282,270.431 100.767 C 270.509 100.251,270.509 99.408,270.431 98.893 C 270.353 98.377,270.289 98.799,270.289 99.830 M138.423 99.830 C 138.423 100.673,138.490 101.018,138.571 100.596 C 138.652 100.175,138.652 99.485,138.571 99.063 C 138.490 98.641,138.423 98.986,138.423 99.830 M279.152 101.022 C 279.153 102.147,279.217 102.565,279.293 101.953 C 279.369 101.341,279.367 100.421,279.289 99.909 C 279.212 99.397,279.150 99.898,279.152 101.022 M335.775 104.600 C 336.698 105.537,337.530 106.303,337.623 106.303 C 337.717 106.303,337.039 105.537,336.116 104.600 C 335.193 103.663,334.361 102.896,334.268 102.896 C 334.174 102.896,334.852 103.663,335.775 104.600 M105.366 108.251 C 105.882 108.329,106.725 108.329,107.240 108.251 C 107.756 108.173,107.334 108.109,106.303 108.109 C 105.273 108.109,104.851 108.173,105.366 108.251 M99.063 108.594 C 99.672 108.670,100.669 108.670,101.278 108.594 C 101.887 108.518,101.388 108.457,100.170 108.457 C 98.952 108.457,98.454 108.518,99.063 108.594 M109.929 109.029 C 110.143 109.310,110.394 109.847,110.486 110.221 C 110.645 110.869,110.655 110.867,110.693 110.178 C 110.715 109.779,110.464 109.243,110.136 108.986 C 109.618 108.579,109.591 108.584,109.929 109.029 M35.540 110.903 C 35.542 112.027,35.606 112.446,35.681 111.834 C 35.757 111.221,35.756 110.301,35.678 109.789 C 35.600 109.277,35.538 109.779,35.540 110.903 M50.408 110.307 L 49.233 111.584 50.511 110.410 C 51.214 109.764,51.789 109.189,51.789 109.132 C 51.789 108.872,51.500 109.117,50.408 110.307 M284.583 110.903 C 284.587 111.652,284.657 111.919,284.738 111.495 C 284.820 111.071,284.817 110.458,284.732 110.132 C 284.646 109.807,284.580 110.153,284.583 110.903 M278.830 114.651 C 278.831 116.525,278.888 117.248,278.957 116.258 C 279.026 115.268,279.025 113.734,278.955 112.851 C 278.885 111.967,278.829 112.777,278.830 114.651 M281.869 112.947 C 281.872 113.884,281.938 114.227,282.016 113.709 C 282.095 113.191,282.092 112.425,282.012 112.006 C 281.931 111.586,281.867 112.010,281.869 112.947 M138.423 114.821 C 138.423 115.664,138.490 116.009,138.571 115.588 C 138.652 115.166,138.652 114.476,138.571 114.055 C 138.490 113.633,138.423 113.978,138.423 114.821 M346.153 114.906 C 346.988 115.796,347.716 116.525,347.771 116.525 C 348.027 116.525,347.756 116.219,346.252 114.807 L 344.634 113.288 346.153 114.906 M97.693 116.430 C 98.297 116.505,99.371 116.506,100.078 116.433 C 100.784 116.359,100.290 116.297,98.978 116.296 C 97.666 116.294,97.088 116.355,97.693 116.430 M284.287 128.961 C 284.287 131.210,284.343 132.085,284.409 130.907 C 284.476 129.728,284.476 127.888,284.408 126.818 C 284.341 125.748,284.286 126.712,284.287 128.961 M270.293 127.939 C 270.295 129.063,270.358 129.482,270.434 128.870 C 270.510 128.257,270.509 127.337,270.431 126.825 C 270.353 126.313,270.291 126.814,270.293 127.939 M50.511 135.840 C 50.839 135.925,51.376 135.925,51.704 135.840 C 52.032 135.754,51.763 135.684,51.107 135.684 C 50.451 135.684,50.183 135.754,50.511 135.840 M270.621 138.330 C 270.621 139.174,270.687 139.519,270.769 139.097 C 270.850 138.675,270.850 137.986,270.769 137.564 C 270.687 137.142,270.621 137.487,270.621 138.330 M268.229 143.952 C 268.233 144.702,268.303 144.968,268.384 144.545 C 268.466 144.121,268.462 143.507,268.377 143.182 C 268.292 142.856,268.225 143.203,268.229 143.952 M281.869 144.634 C 281.872 145.571,281.938 145.914,282.016 145.396 C 282.095 144.878,282.092 144.111,282.012 143.692 C 281.931 143.273,281.867 143.697,281.869 144.634 M278.824 146.508 C 278.824 148.101,278.883 148.752,278.955 147.956 C 279.026 147.159,279.026 145.856,278.955 145.060 C 278.883 144.263,278.824 144.915,278.824 146.508 M270.955 145.656 C 270.959 146.405,271.028 146.672,271.110 146.248 C 271.191 145.824,271.188 145.211,271.103 144.885 C 271.018 144.560,270.951 144.906,270.955 145.656 M284.590 145.826 C 284.590 146.670,284.657 147.014,284.738 146.593 C 284.819 146.171,284.819 145.481,284.738 145.060 C 284.657 144.638,284.590 144.983,284.590 145.826 M55.487 149.660 C 55.658 149.832,56.161 149.915,56.605 149.846 C 57.287 149.738,57.239 149.690,56.293 149.534 C 55.615 149.421,55.298 149.471,55.487 149.660 M268.563 150.256 C 268.563 150.911,268.633 151.180,268.719 150.852 C 268.804 150.524,268.804 149.987,268.719 149.659 C 268.633 149.331,268.563 149.600,268.563 150.256 M271.289 151.959 C 271.289 152.615,271.359 152.883,271.444 152.555 C 271.530 152.227,271.530 151.691,271.444 151.363 C 271.359 151.035,271.289 151.303,271.289 151.959 M170.437 153.322 C 170.437 153.978,170.507 154.246,170.593 153.918 C 170.678 153.590,170.678 153.054,170.593 152.726 C 170.507 152.398,170.437 152.666,170.437 153.322 M133.299 154.685 C 133.299 155.341,133.369 155.609,133.455 155.281 C 133.540 154.953,133.540 154.417,133.455 154.089 C 133.369 153.761,133.299 154.029,133.299 154.685 M175.548 157.411 C 175.548 158.066,175.618 158.335,175.703 158.007 C 175.789 157.679,175.789 157.142,175.703 156.814 C 175.618 156.486,175.548 156.755,175.548 157.411 M279.139 157.751 C 279.139 158.595,279.205 158.940,279.286 158.518 C 279.368 158.096,279.368 157.406,279.286 156.985 C 279.205 156.563,279.139 156.908,279.139 157.751 M132.985 160.647 C 132.987 161.772,133.050 162.191,133.126 161.578 C 133.202 160.966,133.200 160.046,133.122 159.534 C 133.045 159.022,132.983 159.523,132.985 160.647 M170.114 161.329 C 170.117 162.266,170.183 162.609,170.262 162.091 C 170.340 161.573,170.338 160.806,170.257 160.387 C 170.176 159.968,170.112 160.392,170.114 161.329 M147.275 162.351 C 147.279 163.101,147.349 163.367,147.430 162.943 C 147.512 162.519,147.508 161.906,147.423 161.580 C 147.338 161.255,147.271 161.601,147.275 162.351 M152.386 163.032 C 152.390 163.782,152.459 164.048,152.541 163.625 C 152.622 163.201,152.619 162.588,152.534 162.262 C 152.449 161.936,152.382 162.283,152.386 163.032 M175.230 165.247 C 175.230 166.278,175.294 166.699,175.372 166.184 C 175.450 165.669,175.450 164.825,175.372 164.310 C 175.294 163.795,175.230 164.216,175.230 165.247 M279.466 164.906 C 279.466 165.562,279.536 165.830,279.622 165.503 C 279.707 165.175,279.707 164.638,279.622 164.310 C 279.536 163.982,279.466 164.250,279.466 164.906 M132.972 173.424 C 132.972 174.267,133.038 174.612,133.120 174.191 C 133.201 173.769,133.201 173.079,133.120 172.658 C 133.038 172.236,132.972 172.581,132.972 173.424 M7.241 183.816 C 7.245 184.566,7.315 184.832,7.396 184.408 C 7.477 183.984,7.474 183.371,7.389 183.045 C 7.304 182.720,7.237 183.066,7.241 183.816 M256.297 190.119 C 256.297 190.775,256.367 191.043,256.453 190.716 C 256.539 190.388,256.539 189.851,256.453 189.523 C 256.367 189.195,256.297 189.463,256.297 190.119 M259.704 191.141 C 259.704 191.797,259.774 192.066,259.860 191.738 C 259.946 191.410,259.946 190.873,259.860 190.545 C 259.774 190.217,259.704 190.486,259.704 191.141 M20.192 193.771 C 20.710 193.849,21.477 193.847,21.896 193.766 C 22.315 193.685,21.891 193.621,20.954 193.624 C 20.017 193.626,19.674 193.693,20.192 193.771 M50.852 194.799 C 51.742 194.869,53.198 194.869,54.089 194.799 C 54.979 194.729,54.250 194.671,52.470 194.671 C 50.690 194.671,49.962 194.729,50.852 194.799 M71.210 196.082 C 71.845 196.738,72.442 197.274,72.536 197.274 C 72.629 197.274,72.186 196.738,71.550 196.082 C 70.915 195.426,70.318 194.889,70.224 194.889 C 70.130 194.889,70.574 195.426,71.210 196.082 M255.970 197.274 C 255.970 198.118,256.037 198.463,256.118 198.041 C 256.199 197.619,256.199 196.929,256.118 196.508 C 256.037 196.086,255.970 196.431,255.970 197.274 M259.377 198.637 C 259.377 199.480,259.444 199.825,259.525 199.404 C 259.606 198.982,259.606 198.292,259.525 197.871 C 259.444 197.449,259.377 197.794,259.377 198.637 M110.478 199.489 C 110.482 200.239,110.551 200.505,110.633 200.081 C 110.714 199.657,110.711 199.044,110.626 198.718 C 110.541 198.393,110.474 198.739,110.478 199.489 M255.651 208.177 C 255.651 209.583,255.711 210.158,255.785 209.455 C 255.858 208.752,255.858 207.602,255.785 206.899 C 255.711 206.197,255.651 206.772,255.651 208.177 M259.061 209.710 C 259.062 211.210,259.122 211.780,259.194 210.979 C 259.266 210.178,259.265 208.951,259.191 208.253 C 259.118 207.556,259.059 208.211,259.061 209.710 M336.706 209.540 C 336.706 210.196,336.776 210.464,336.862 210.136 C 336.947 209.808,336.947 209.272,336.862 208.944 C 336.776 208.616,336.706 208.884,336.706 209.540 M241.987 210.221 C 241.987 210.877,242.057 211.146,242.143 210.818 C 242.229 210.490,242.229 209.953,242.143 209.625 C 242.057 209.297,241.987 209.566,241.987 210.221 M54.081 211.490 C 54.686 211.565,55.759 211.566,56.466 211.492 C 57.173 211.419,56.678 211.357,55.366 211.355 C 54.055 211.354,53.476 211.414,54.081 211.490 M244.379 212.436 C 244.383 213.186,244.452 213.452,244.534 213.028 C 244.615 212.605,244.612 211.991,244.527 211.666 C 244.442 211.340,244.375 211.687,244.379 212.436 M327.166 214.651 C 327.166 215.307,327.236 215.575,327.322 215.247 C 327.407 214.919,327.407 214.382,327.322 214.055 C 327.236 213.727,327.166 213.995,327.166 214.651 M241.665 217.547 C 241.667 218.484,241.733 218.827,241.812 218.309 C 241.890 217.791,241.888 217.024,241.807 216.605 C 241.726 216.186,241.662 216.610,241.665 217.547 M337.073 218.569 C 337.075 219.693,337.139 220.112,337.215 219.500 C 337.290 218.887,337.289 217.968,337.211 217.456 C 337.133 216.944,337.071 217.445,337.073 218.569 M244.064 221.295 C 244.066 222.606,244.127 223.101,244.201 222.394 C 244.275 221.688,244.273 220.614,244.198 220.009 C 244.123 219.405,244.063 219.983,244.064 221.295 M395.309 221.465 C 395.309 222.121,395.379 222.389,395.465 222.061 C 395.551 221.733,395.551 221.197,395.465 220.869 C 395.379 220.541,395.309 220.809,395.309 221.465 M31.772 224.780 C 32.474 224.853,33.624 224.853,34.327 224.780 C 35.030 224.706,34.455 224.646,33.049 224.646 C 31.644 224.646,31.069 224.706,31.772 224.780 M327.166 226.917 C 327.166 227.572,327.236 227.841,327.322 227.513 C 327.407 227.185,327.407 226.648,327.322 226.320 C 327.236 225.992,327.166 226.261,327.166 226.917 M244.098 227.027 C 244.003 227.276,243.971 228.924,244.027 230.690 L 244.128 233.901 244.296 230.238 C 244.462 226.608,244.434 226.153,244.098 227.027 M394.982 227.939 C 394.982 228.782,395.049 229.127,395.130 228.705 C 395.211 228.284,395.211 227.594,395.130 227.172 C 395.049 226.750,394.982 227.095,394.982 227.939 M201.363 229.131 C 201.999 229.787,202.595 230.324,202.689 230.324 C 202.783 230.324,202.339 229.787,201.704 229.131 C 201.068 228.475,200.471 227.939,200.377 227.939 C 200.284 227.939,200.727 228.475,201.363 229.131 M28.024 231.240 C 28.352 231.326,28.888 231.326,29.216 231.240 C 29.544 231.154,29.276 231.084,28.620 231.084 C 27.964 231.084,27.696 231.154,28.024 231.240 M259.053 233.049 C 259.053 234.267,259.115 234.766,259.190 234.157 C 259.266 233.548,259.266 232.551,259.190 231.942 C 259.115 231.333,259.053 231.831,259.053 233.049 M277.762 232.027 C 277.762 232.683,277.832 232.951,277.918 232.624 C 278.004 232.296,278.004 231.759,277.918 231.431 C 277.832 231.103,277.762 231.371,277.762 232.027 M34.660 231.592 C 35.265 231.667,36.338 231.668,37.045 231.594 C 37.752 231.521,37.257 231.459,35.945 231.458 C 34.634 231.456,34.055 231.516,34.660 231.592 M65.496 233.049 C 65.496 233.705,65.567 233.974,65.652 233.646 C 65.738 233.318,65.738 232.781,65.652 232.453 C 65.567 232.125,65.496 232.394,65.496 233.049 M255.651 234.753 C 255.651 236.158,255.711 236.733,255.785 236.031 C 255.858 235.328,255.858 234.178,255.785 233.475 C 255.711 232.773,255.651 233.348,255.651 234.753 M165.588 233.837 C 165.588 233.896,166.086 234.394,166.695 234.945 L 167.802 235.945 166.802 234.838 C 165.869 233.806,165.588 233.574,165.588 233.837 M241.660 235.775 C 241.660 236.618,241.727 236.963,241.808 236.542 C 241.889 236.120,241.889 235.430,241.808 235.009 C 241.727 234.587,241.660 234.932,241.660 235.775 M209.867 237.905 C 210.702 238.795,211.430 239.523,211.485 239.523 C 211.741 239.523,211.470 239.217,209.966 237.805 L 208.348 236.286 209.867 237.905 M23.595 238.330 C 23.599 239.080,23.669 239.347,23.750 238.923 C 23.832 238.499,23.829 237.886,23.743 237.560 C 23.658 237.234,23.592 237.581,23.595 238.330 M278.160 242.078 C 278.161 244.889,278.213 245.994,278.277 244.533 C 278.341 243.072,278.341 240.772,278.277 239.422 C 278.212 238.072,278.160 239.267,278.160 242.078 M204.940 240.545 C 206.619 242.232,208.069 243.612,208.163 243.612 C 208.257 243.612,206.960 242.232,205.281 240.545 C 203.602 238.859,202.152 237.479,202.059 237.479 C 201.965 237.479,203.262 238.859,204.940 240.545 M275.744 241.397 C 275.746 242.521,275.810 242.940,275.886 242.328 C 275.962 241.715,275.960 240.795,275.882 240.284 C 275.805 239.772,275.743 240.273,275.744 241.397 M259.370 242.760 C 259.374 243.509,259.444 243.776,259.525 243.352 C 259.607 242.928,259.604 242.315,259.519 241.989 C 259.433 241.663,259.367 242.010,259.370 242.760 M255.963 244.123 C 255.967 244.872,256.037 245.139,256.118 244.715 C 256.200 244.291,256.197 243.678,256.111 243.352 C 256.026 243.026,255.959 243.373,255.963 244.123 M171.154 248.382 C 171.154 249.787,171.214 250.362,171.287 249.659 C 171.361 248.957,171.361 247.807,171.287 247.104 C 171.214 246.401,171.154 246.976,171.154 248.382 M28.385 252.981 C 28.387 254.106,28.450 254.525,28.526 253.912 C 28.602 253.300,28.601 252.380,28.523 251.868 C 28.445 251.356,28.383 251.857,28.385 252.981 M190.546 264.566 C 190.550 265.315,190.619 265.582,190.701 265.158 C 190.782 264.734,190.779 264.121,190.694 263.795 C 190.609 263.469,190.542 263.816,190.546 264.566 M185.428 266.780 C 185.428 267.436,185.498 267.704,185.584 267.376 C 185.670 267.049,185.670 266.512,185.584 266.184 C 185.498 265.856,185.428 266.124,185.428 266.780 M224.974 272.232 C 224.974 273.262,225.038 273.684,225.116 273.169 C 225.194 272.653,225.194 271.810,225.116 271.295 C 225.038 270.779,224.974 271.201,224.974 272.232 M230.089 272.743 C 230.090 273.867,230.154 274.286,230.230 273.674 C 230.306 273.061,230.304 272.141,230.226 271.629 C 230.149 271.117,230.087 271.618,230.089 272.743 M215.797 275.128 C 215.798 277.002,215.855 277.725,215.924 276.735 C 215.994 275.745,215.993 274.211,215.923 273.328 C 215.853 272.444,215.796 273.254,215.797 275.128 M205.451 279.557 C 206.087 280.213,206.684 280.750,206.778 280.750 C 206.871 280.750,206.428 280.213,205.792 279.557 C 205.156 278.901,204.560 278.365,204.466 278.365 C 204.372 278.365,204.816 278.901,205.451 279.557 M316.525 280.239 C 315.697 281.082,315.097 281.772,315.190 281.772 C 315.284 281.772,316.038 281.082,316.865 280.239 C 317.693 279.395,318.293 278.705,318.200 278.705 C 318.106 278.705,317.352 279.395,316.525 280.239 M27.939 280.175 C 27.939 280.233,28.437 280.732,29.046 281.282 L 30.153 282.283 29.153 281.175 C 28.220 280.143,27.939 279.912,27.939 280.175 M68.062 288.146 C 68.486 288.227,69.099 288.224,69.425 288.139 C 69.751 288.053,69.404 287.987,68.654 287.991 C 67.905 287.994,67.638 288.064,68.062 288.146 M53.936 288.500 C 55.773 288.561,58.686 288.561,60.410 288.499 C 62.133 288.437,60.630 288.387,57.070 288.387 C 53.509 288.388,52.099 288.438,53.936 288.500 " stroke="none" fill="#7a6a15" fill-rule="evenodd"></path><path id="path8" d="M285.779 66.680 C 286.203 66.762,286.816 66.759,287.142 66.674 C 287.468 66.588,287.121 66.522,286.371 66.525 C 285.622 66.529,285.355 66.599,285.779 66.680 M279.473 73.424 C 279.476 74.174,279.546 74.440,279.628 74.016 C 279.709 73.593,279.706 72.979,279.621 72.654 C 279.536 72.328,279.469 72.675,279.473 73.424 M285.779 80.309 C 286.203 80.391,286.816 80.388,287.142 80.302 C 287.468 80.217,287.121 80.150,286.371 80.154 C 285.622 80.158,285.355 80.228,285.779 80.309 M260.801 85.616 L 256.388 90.119 260.494 86.104 C 262.752 83.896,264.731 82.209,264.893 82.356 C 265.054 82.503,265.084 82.445,264.959 82.227 C 264.834 82.008,264.924 81.761,265.160 81.677 C 265.395 81.593,265.504 81.432,265.401 81.319 C 265.298 81.206,263.228 83.140,260.801 85.616 M113.118 82.964 C 113.753 83.620,114.350 84.157,114.444 84.157 C 114.537 84.157,114.094 83.620,113.458 82.964 C 112.823 82.308,112.226 81.772,112.132 81.772 C 112.038 81.772,112.482 82.308,113.118 82.964 M243.697 82.347 C 244.025 82.433,244.561 82.433,244.889 82.347 C 245.217 82.262,244.949 82.191,244.293 82.191 C 243.637 82.191,243.369 82.262,243.697 82.347 M285.441 87.470 C 286.053 87.546,286.973 87.544,287.485 87.467 C 287.997 87.389,287.496 87.327,286.371 87.329 C 285.247 87.331,284.828 87.394,285.441 87.470 M251.430 95.315 L 250.256 96.593 251.533 95.419 C 252.722 94.326,252.968 94.037,252.707 94.037 C 252.650 94.037,252.075 94.612,251.430 95.315 M284.576 108.688 C 284.576 109.344,284.647 109.612,284.732 109.284 C 284.818 108.957,284.818 108.420,284.732 108.092 C 284.647 107.764,284.576 108.032,284.576 108.688 M281.865 115.843 C 281.865 116.687,281.931 117.032,282.012 116.610 C 282.093 116.188,282.093 115.498,282.012 115.077 C 281.931 114.655,281.865 115.000,281.865 115.843 M284.278 122.147 C 284.277 123.833,284.334 124.566,284.406 123.775 C 284.477 122.984,284.478 121.605,284.408 120.709 C 284.337 119.813,284.279 120.460,284.278 122.147 M65.179 129.472 C 65.179 130.503,65.243 130.924,65.321 130.409 C 65.399 129.894,65.399 129.050,65.321 128.535 C 65.243 128.020,65.179 128.441,65.179 129.472 M274.355 128.790 C 274.355 129.446,274.425 129.715,274.511 129.387 C 274.597 129.059,274.597 128.522,274.511 128.194 C 274.425 127.866,274.355 128.135,274.355 128.790 M284.274 135.434 C 284.275 136.934,284.335 137.504,284.407 136.703 C 284.479 135.902,284.478 134.675,284.404 133.977 C 284.331 133.280,284.272 133.935,284.274 135.434 M281.865 141.738 C 281.865 142.581,281.931 142.926,282.012 142.504 C 282.093 142.083,282.093 141.393,282.012 140.971 C 281.931 140.549,281.865 140.894,281.865 141.738 M284.576 148.211 C 284.576 148.867,284.647 149.135,284.732 148.807 C 284.818 148.480,284.818 147.943,284.732 147.615 C 284.647 147.287,284.576 147.555,284.576 148.211 M132.965 163.714 C 132.969 164.463,133.039 164.730,133.120 164.306 C 133.202 163.882,133.198 163.269,133.113 162.943 C 133.028 162.617,132.961 162.964,132.965 163.714 M146.950 172.743 C 146.950 173.773,147.014 174.195,147.092 173.680 C 147.170 173.164,147.170 172.321,147.092 171.806 C 147.014 171.290,146.950 171.712,146.950 172.743 M296.772 182.111 L 293.543 185.520 296.927 182.211 C 298.788 180.391,300.240 178.857,300.155 178.802 C 300.070 178.747,298.547 180.236,296.772 182.111 M293.862 188.501 L 289.438 193.015 293.952 188.591 C 298.146 184.481,298.621 183.986,298.377 183.986 C 298.327 183.986,296.296 186.018,293.862 188.501 M229.110 196.337 L 228.109 197.445 229.216 196.444 C 229.825 195.894,230.324 195.395,230.324 195.337 C 230.324 195.073,230.043 195.305,229.110 196.337 M223.658 197.700 L 222.658 198.807 223.765 197.807 C 224.374 197.256,224.872 196.758,224.872 196.699 C 224.872 196.436,224.591 196.668,223.658 197.700 M219.910 204.855 L 218.910 205.963 220.017 204.962 C 220.626 204.411,221.124 203.913,221.124 203.854 C 221.124 203.591,220.843 203.823,219.910 204.855 M213.778 206.899 L 212.777 208.007 213.884 207.006 C 214.493 206.456,214.991 205.957,214.991 205.899 C 214.991 205.636,214.710 205.867,213.778 206.899 M215.140 209.284 L 214.140 210.392 215.247 209.391 C 215.856 208.841,216.354 208.342,216.354 208.284 C 216.354 208.021,216.073 208.252,215.140 209.284 M259.023 213.288 C 259.023 213.944,259.093 214.212,259.179 213.884 C 259.264 213.556,259.264 213.020,259.179 212.692 C 259.093 212.364,259.023 212.632,259.023 213.288 M210.370 213.714 L 209.370 214.821 210.477 213.820 C 211.086 213.270,211.584 212.772,211.584 212.713 C 211.584 212.450,211.303 212.682,210.370 213.714 M327.192 217.547 C 327.194 218.671,327.258 219.090,327.334 218.478 C 327.410 217.865,327.408 216.945,327.330 216.433 C 327.253 215.921,327.191 216.422,327.192 217.547 M337.054 221.635 C 337.057 222.385,337.127 222.652,337.209 222.228 C 337.290 221.804,337.287 221.191,337.202 220.865 C 337.116 220.539,337.050 220.886,337.054 221.635 M327.189 224.191 C 327.189 225.221,327.253 225.643,327.331 225.128 C 327.409 224.612,327.409 223.769,327.331 223.254 C 327.253 222.739,327.189 223.160,327.189 224.191 M130.135 267.036 L 128.961 268.313 130.239 267.139 C 131.428 266.046,131.673 265.758,131.413 265.758 C 131.356 265.758,130.781 266.333,130.135 267.036 " stroke="none" fill="#305938" fill-rule="evenodd"></path></g></svg>