<svg id="svg" xmlns="http://www.w3.org/2000/svg" xmlns:xlink="http://www.w3.org/1999/xlink" width="400" height="300" viewBox="0, 0, 400,300"><g id="svgg"><path id="path0" d="M11.918 28.833 C 13.457 55.740,25.932 79.419,50.500 102.066 C 55.409 106.591,65.348 114.864,65.464 114.521 C 65.491 114.444,65.055 113.264,64.497 111.899 C 63.198 108.723,59.644 100.016,57.327 94.333 C 56.337 91.904,54.593 87.629,53.452 84.833 C 49.813 75.917,47.081 69.216,45.103 64.354 C 44.045 61.753,43.158 59.610,43.132 59.592 C 28.436 49.773,17.960 39.301,13.034 29.502 L 11.818 27.083 11.918 28.833 M388.002 29.797 C 383.246 39.149,372.873 49.632,359.461 58.641 C 357.851 59.722,358.679 57.995,352.517 73.125 C 347.909 84.438,346.828 87.091,344.724 92.250 C 343.490 95.275,341.579 99.962,340.477 102.667 C 339.374 105.371,337.831 109.142,337.047 111.047 C 336.263 112.952,335.657 114.545,335.699 114.588 C 335.794 114.683,341.209 110.359,344.658 107.434 C 372.673 83.675,387.172 58.608,389.177 30.471 C 389.279 29.035,389.337 27.743,389.306 27.601 C 389.275 27.459,388.689 28.447,388.002 29.797 M16.425 87.420 C 18.035 111.701,27.905 131.610,48.276 151.669 C 58.432 161.669,68.994 169.996,88.750 183.577 C 91.133 185.215,93.492 186.841,93.992 187.189 C 94.492 187.537,94.922 187.800,94.948 187.774 C 94.998 187.725,93.196 183.226,89.498 174.167 C 87.436 169.117,86.360 166.479,81.136 153.667 C 75.292 139.334,75.693 140.543,77.032 141.295 C 77.518 141.569,79.379 142.615,81.167 143.620 C 82.954 144.625,85.992 146.333,87.917 147.414 C 95.958 151.933,100.687 154.612,102.333 155.584 C 103.296 156.151,104.533 156.866,105.083 157.172 C 126.386 169.029,146.062 183.401,153.906 192.833 C 155.853 195.174,155.867 195.146,154.074 192.500 C 150.894 187.808,146.133 181.571,142.697 177.594 C 132.841 166.190,125.259 160.064,97.000 140.672 C 82.230 130.537,74.290 124.901,65.458 118.280 C 63.190 116.580,61.333 115.227,61.333 115.274 C 61.333 115.383,63.531 120.846,65.409 125.406 C 66.199 127.325,66.824 128.982,66.798 129.088 C 66.726 129.377,59.521 125.112,51.767 120.191 C 33.560 108.637,22.477 98.313,17.482 88.254 L 16.326 85.924 16.425 87.420 M383.749 88.197 C 377.830 100.313,363.923 111.984,335.583 128.620 C 334.120 129.479,334.123 129.494,335.260 126.721 C 335.780 125.454,336.902 122.692,337.754 120.583 C 338.606 118.475,339.457 116.394,339.645 115.958 C 340.088 114.937,340.111 114.928,338.028 116.555 C 332.579 120.810,321.652 128.649,309.417 137.082 C 304.814 140.254,301.675 142.419,298.375 144.697 C 271.960 162.930,264.677 169.340,252.391 185.167 C 251.203 186.698,247.888 191.333,246.849 192.917 C 245.862 194.421,245.702 194.565,248.975 191.000 C 258.900 180.186,274.627 169.271,305.333 151.885 C 315.476 146.142,324.994 140.833,325.146 140.833 C 325.245 140.833,325.172 141.178,324.978 141.625 C 324.790 142.060,323.859 144.329,322.911 146.667 C 321.963 149.004,320.254 153.204,319.114 156.000 C 317.973 158.796,316.047 163.521,314.832 166.500 C 311.487 174.701,309.172 180.376,307.595 184.238 C 306.812 186.156,306.191 187.747,306.216 187.772 C 306.306 187.862,317.617 180.034,324.167 175.349 C 360.086 149.656,377.876 126.764,383.324 99.226 C 384.101 95.298,385.100 86.545,384.805 86.250 C 384.766 86.211,384.291 87.087,383.749 88.197 M35.591 151.917 C 37.518 178.891,52.541 198.140,92.083 224.299 C 110.259 236.323,112.020 237.561,115.792 240.966 C 116.548 241.649,117.167 242.173,117.167 242.131 C 117.167 242.089,116.861 241.311,116.487 240.403 C 116.113 239.494,114.678 235.975,113.297 232.583 C 111.916 229.192,110.007 224.504,109.053 222.167 C 105.380 213.161,104.127 209.984,104.216 209.896 C 104.312 209.799,109.399 212.833,115.622 216.697 C 126.813 223.645,136.309 230.372,142.444 235.696 C 144.634 237.596,144.687 237.549,142.810 235.375 C 130.390 220.983,118.125 209.301,107.400 201.644 C 102.204 197.935,101.381 197.455,85.500 188.870 C 82.002 186.979,78.049 184.824,74.583 182.918 C 53.336 171.232,41.289 161.599,36.478 152.451 L 35.496 150.583 35.591 151.917 M364.991 152.025 C 359.628 162.712,347.584 171.681,315.000 189.252 C 300.313 197.172,298.763 198.080,293.690 201.728 C 282.881 209.501,270.245 221.536,258.662 235.087 C 256.631 237.464,256.592 237.546,258.134 236.197 C 263.763 231.272,273.429 224.325,283.333 218.088 C 288.397 214.900,296.857 209.813,297.004 209.868 C 297.121 209.912,296.272 212.043,290.474 226.250 C 289.464 228.725,287.942 232.475,287.090 234.583 C 286.239 236.692,285.196 239.257,284.771 240.285 C 284.347 241.312,284.000 242.201,284.000 242.260 C 284.000 242.318,284.725 241.680,285.611 240.842 C 288.212 238.379,293.626 234.459,301.333 229.457 C 319.539 217.640,330.097 209.883,338.833 201.906 C 355.496 186.690,364.085 171.053,365.500 153.353 C 365.711 150.717,365.683 150.645,364.991 152.025 " stroke="none" fill="#e31934" fill-rule="evenodd"></path><path id="path1" d="M195.750 110.603 C 191.054 111.323,188.385 112.350,186.413 114.195 C 184.914 115.597,184.633 116.245,183.489 120.941 C 182.934 123.219,181.655 128.458,180.647 132.583 C 179.639 136.708,178.672 140.683,178.497 141.417 C 178.322 142.150,177.236 146.612,176.084 151.333 C 171.212 171.291,165.944 192.918,165.508 194.745 C 165.291 195.655,165.362 195.639,166.021 194.627 C 166.765 193.487,183.752 168.113,187.251 162.917 C 188.732 160.717,191.994 155.847,194.499 152.094 L 199.055 145.272 199.535 145.844 C 199.957 146.348,202.117 149.153,209.339 158.575 C 211.511 161.409,218.396 170.349,220.832 173.500 C 221.718 174.646,225.206 179.183,228.583 183.583 C 236.573 193.994,236.836 194.333,236.936 194.333 C 236.982 194.333,236.980 194.269,236.931 194.190 C 236.883 194.112,234.621 188.543,231.905 181.815 C 229.190 175.088,226.029 167.258,224.882 164.417 C 223.735 161.575,222.026 157.337,221.083 155.000 C 220.140 152.662,218.488 148.575,217.412 145.917 C 213.872 137.172,213.175 135.419,213.171 135.248 C 213.162 134.886,220.280 131.508,221.491 131.301 C 223.485 130.959,225.775 131.675,228.416 133.466 C 229.572 134.250,229.499 134.306,229.972 132.250 C 232.164 122.712,229.432 118.295,220.893 117.575 L 219.536 117.460 219.438 116.847 C 218.996 114.079,214.088 111.673,207.167 110.831 C 205.687 110.651,196.618 110.470,195.750 110.603 M204.750 118.073 C 207.527 118.536,212.333 120.077,212.333 120.504 C 212.333 120.584,212.090 120.832,211.792 121.056 C 209.084 123.086,205.951 122.631,204.250 119.962 C 204.081 119.697,200.292 118.711,197.875 118.303 C 195.492 117.901,196.693 117.668,200.667 117.762 C 202.088 117.796,203.925 117.936,204.750 118.073 " stroke="none" fill="#fbfbfb" fill-rule="evenodd"></path><path id="path2" d="M11.018 8.542 C 9.139 14.928,8.167 18.387,8.167 18.686 C 8.167 18.874,8.014 19.626,7.827 20.357 C 5.402 29.854,5.586 39.151,8.439 51.417 C 9.744 57.026,14.569 68.272,18.164 74.083 C 18.561 74.725,19.474 76.210,20.192 77.383 C 20.910 78.556,21.741 79.845,22.040 80.247 C 22.339 80.649,22.921 81.476,23.333 82.085 C 23.746 82.695,24.855 84.218,25.797 85.472 C 26.740 86.725,27.752 88.071,28.047 88.464 C 28.557 89.142,29.792 90.655,32.142 93.478 C 32.725 94.177,33.849 95.456,34.641 96.320 C 35.433 97.183,36.269 98.125,36.499 98.412 C 37.148 99.223,40.142 102.287,43.167 105.236 C 44.679 106.710,46.516 108.506,47.250 109.226 L 48.583 110.536 47.250 109.543 C 46.517 108.998,45.429 108.201,44.833 107.773 C 44.237 107.345,43.375 106.691,42.917 106.319 C 42.458 105.947,41.258 104.993,40.250 104.198 C 31.747 97.501,23.868 89.924,19.533 84.278 C 16.638 80.507,15.801 79.048,13.833 74.333 C 12.535 71.226,12.506 71.232,12.172 74.667 C 12.088 75.537,11.870 77.525,11.688 79.083 C 9.705 96.085,11.877 109.559,18.874 123.667 C 20.575 127.095,22.160 130.004,23.008 131.253 C 23.258 131.621,23.725 132.409,24.046 133.003 C 24.634 134.089,27.605 138.653,29.502 141.384 L 30.522 142.851 30.303 144.801 C 28.911 157.197,32.665 173.234,39.421 183.750 C 39.716 184.208,40.223 185.071,40.548 185.667 C 40.873 186.262,41.689 187.517,42.361 188.455 C 43.033 189.393,43.992 190.743,44.491 191.455 C 45.397 192.747,46.974 194.783,47.559 195.416 C 47.728 195.600,48.064 196.012,48.304 196.333 C 48.736 196.909,50.216 198.629,51.671 200.246 C 53.881 202.702,60.814 209.479,62.939 211.261 C 63.477 211.712,64.479 212.573,65.167 213.175 C 65.854 213.777,67.542 215.160,68.917 216.249 C 70.292 217.337,71.754 218.497,72.167 218.826 C 72.579 219.155,73.592 219.903,74.417 220.488 C 75.242 221.073,76.104 221.718,76.333 221.921 C 76.563 222.123,77.350 222.688,78.083 223.175 C 78.817 223.662,79.954 224.459,80.611 224.946 C 81.268 225.433,83.893 227.214,86.444 228.905 C 92.923 233.197,97.785 236.557,100.691 238.750 C 101.299 239.208,101.961 239.696,102.163 239.833 C 102.366 239.971,102.930 240.383,103.417 240.750 C 103.905 241.117,104.952 241.904,105.745 242.500 C 106.537 243.096,107.650 243.936,108.218 244.367 C 108.786 244.798,110.140 245.801,111.228 246.596 C 116.521 250.464,123.145 257.371,128.715 264.833 C 129.365 265.704,130.343 266.979,130.888 267.665 C 131.434 268.352,132.069 269.215,132.300 269.582 C 132.531 269.949,133.221 270.925,133.835 271.750 C 134.448 272.575,135.762 274.450,136.756 275.917 C 137.749 277.383,138.806 278.921,139.105 279.333 C 139.404 279.746,139.868 280.458,140.137 280.917 C 140.405 281.375,141.379 282.887,142.301 284.277 C 143.222 285.667,144.104 287.055,144.261 287.361 C 144.417 287.666,144.785 288.292,145.078 288.750 C 146.552 291.057,147.862 293.186,148.361 294.084 C 149.919 296.890,149.945 296.910,150.395 295.625 C 151.602 292.181,153.737 289.292,156.670 287.139 C 157.229 286.729,157.274 286.618,157.619 284.812 C 157.949 283.090,158.706 280.143,159.668 276.833 C 160.475 274.056,162.678 268.719,164.494 265.140 C 165.760 262.645,169.621 256.671,170.778 255.417 C 170.947 255.233,171.471 254.595,171.942 253.998 C 174.918 250.228,181.318 245.255,185.026 243.833 C 185.516 243.645,186.067 243.425,186.250 243.344 C 186.433 243.263,186.921 243.065,187.333 242.904 C 188.051 242.624,188.100 242.560,188.465 241.443 C 188.931 240.016,189.992 238.385,191.326 237.048 L 192.327 236.043 193.594 229.147 C 195.158 220.632,195.816 216.906,196.005 215.500 C 196.086 214.904,196.346 213.367,196.585 212.083 C 198.721 200.600,199.870 194.202,200.176 192.093 C 200.282 191.364,200.417 190.635,200.478 190.472 C 200.539 190.307,201.057 192.708,201.644 195.879 C 203.909 208.109,204.123 209.295,204.308 210.667 C 204.470 211.864,205.772 219.054,207.583 228.750 C 207.822 230.033,208.086 231.608,208.168 232.250 C 208.654 236.037,208.573 235.802,209.816 237.000 C 211.467 238.592,212.334 240.010,212.821 241.917 C 212.989 242.576,213.011 242.591,214.704 243.234 C 217.417 244.263,218.873 245.089,222.907 247.885 C 223.279 248.143,224.363 249.080,225.315 249.968 C 226.268 250.857,227.221 251.733,227.433 251.917 C 227.644 252.100,228.027 252.523,228.284 252.857 C 228.540 253.191,229.331 254.145,230.041 254.977 C 235.927 261.877,242.023 275.317,243.658 285.000 C 243.759 285.596,243.876 286.245,243.920 286.443 C 243.963 286.641,244.468 287.141,245.041 287.554 C 247.430 289.273,249.407 291.973,250.671 295.242 C 251.251 296.742,251.333 296.745,252.139 295.299 C 252.511 294.630,253.188 293.483,253.644 292.750 C 254.099 292.017,254.867 290.742,255.350 289.917 C 255.833 289.092,256.459 288.074,256.739 287.656 C 257.020 287.237,257.813 286.005,258.500 284.918 C 260.007 282.536,263.930 276.576,264.754 275.417 C 265.080 274.958,265.625 274.194,265.965 273.719 C 266.305 273.244,267.125 272.081,267.787 271.136 C 268.449 270.190,269.366 268.929,269.824 268.333 C 270.283 267.737,271.180 266.537,271.818 265.667 C 272.455 264.796,273.210 263.821,273.493 263.500 C 273.777 263.179,274.438 262.365,274.963 261.690 C 279.324 256.079,285.434 249.923,289.885 246.652 C 291.059 245.789,292.371 244.825,292.801 244.510 C 293.231 244.194,294.039 243.594,294.595 243.176 C 295.152 242.759,296.314 241.886,297.178 241.236 C 301.675 237.859,304.120 236.058,304.511 235.833 C 304.750 235.696,305.877 234.926,307.015 234.122 C 308.973 232.739,315.328 228.479,316.071 228.051 C 316.261 227.942,317.279 227.250,318.333 226.515 C 319.387 225.779,320.850 224.772,321.583 224.276 C 322.317 223.780,323.892 222.648,325.083 221.762 C 326.275 220.875,327.428 220.022,327.645 219.867 C 327.862 219.711,328.897 218.908,329.944 218.083 C 330.991 217.258,332.479 216.088,333.250 215.482 C 334.021 214.876,335.227 213.864,335.929 213.232 C 336.632 212.600,337.380 211.969,337.592 211.829 C 338.428 211.278,345.772 204.304,347.416 202.501 C 347.874 201.998,348.852 200.948,349.589 200.168 C 350.325 199.388,351.411 198.150,352.002 197.417 C 352.593 196.683,353.288 195.858,353.546 195.583 C 353.805 195.308,354.406 194.558,354.883 193.915 C 355.360 193.273,355.918 192.523,356.123 192.248 C 358.856 188.596,362.503 182.832,363.845 180.046 C 366.049 175.469,367.600 171.786,367.980 170.226 C 368.067 169.873,368.439 168.598,368.809 167.393 C 370.792 160.927,371.757 150.080,370.884 144.083 L 370.714 142.917 371.357 141.947 C 371.711 141.413,372.002 140.925,372.004 140.863 C 372.006 140.801,372.160 140.563,372.345 140.333 C 372.912 139.635,375.552 135.666,376.392 134.250 C 376.826 133.517,377.542 132.354,377.981 131.667 C 378.421 130.979,379.120 129.779,379.535 129.000 C 379.950 128.221,380.849 126.533,381.533 125.250 C 384.264 120.122,387.562 111.653,388.057 108.500 C 388.107 108.179,388.371 106.942,388.643 105.750 C 390.688 96.776,390.802 86.864,389.001 74.667 C 388.818 73.429,388.668 72.317,388.667 72.194 C 388.665 71.613,388.252 72.247,387.595 73.836 C 385.779 78.231,382.721 83.586,381.504 84.500 C 381.443 84.546,380.995 85.108,380.508 85.750 C 380.022 86.392,379.012 87.554,378.264 88.333 C 377.516 89.112,376.449 90.237,375.892 90.833 C 374.698 92.112,370.797 95.908,370.082 96.488 C 369.808 96.710,369.058 97.376,368.417 97.968 C 367.775 98.559,366.688 99.496,366.000 100.049 C 365.313 100.602,364.675 101.138,364.583 101.240 C 364.492 101.342,363.817 101.910,363.083 102.504 C 362.350 103.097,361.637 103.674,361.500 103.786 C 361.142 104.078,358.769 105.920,357.319 107.031 C 356.640 107.552,355.296 108.553,354.333 109.255 L 352.583 110.531 354.988 108.224 C 361.309 102.159,367.281 95.789,371.198 90.932 C 373.475 88.108,377.249 83.073,378.768 80.833 C 380.319 78.546,383.044 74.111,384.299 71.833 C 385.849 69.019,388.000 64.765,388.000 64.513 C 388.000 64.409,388.216 63.895,388.481 63.370 C 389.740 60.873,391.329 56.412,392.560 51.917 C 395.835 39.954,395.959 29.953,392.971 18.667 C 392.595 17.246,392.191 15.671,392.072 15.167 C 391.602 13.162,389.762 6.874,389.599 6.710 C 389.425 6.536,389.351 6.728,388.647 9.178 C 387.383 13.578,384.626 19.345,381.307 24.532 C 380.680 25.512,380.167 26.353,380.167 26.399 C 380.167 26.489,379.493 27.450,377.347 30.417 C 375.852 32.484,375.957 32.351,373.122 35.759 C 366.113 44.185,356.701 52.863,346.793 60.034 C 345.944 60.648,344.800 61.484,344.250 61.892 C 342.957 62.851,335.623 67.720,334.000 68.696 C 333.313 69.110,331.956 69.940,330.986 70.541 C 330.015 71.141,328.365 72.115,327.319 72.705 C 326.273 73.295,324.704 74.191,323.833 74.695 C 322.962 75.200,320.975 76.272,319.417 77.078 C 317.858 77.884,316.508 78.601,316.417 78.671 C 316.325 78.741,314.825 79.529,313.083 80.422 C 311.342 81.315,309.242 82.439,308.417 82.920 C 307.592 83.401,306.617 83.938,306.250 84.114 C 305.883 84.291,304.401 85.106,302.956 85.926 C 301.511 86.746,299.861 87.669,299.289 87.977 C 298.718 88.286,297.106 89.223,295.707 90.061 C 294.308 90.898,292.462 91.996,291.603 92.500 C 288.423 94.367,279.112 100.550,276.942 102.234 C 276.222 102.793,275.135 103.605,274.525 104.039 C 273.915 104.473,273.063 105.131,272.630 105.502 C 272.197 105.873,271.185 106.714,270.380 107.371 C 267.461 109.754,263.612 113.383,261.495 115.750 C 259.868 117.568,256.167 122.423,256.167 122.738 C 256.167 122.781,255.589 123.702,254.883 124.783 C 252.962 127.725,249.550 134.432,247.913 138.483 C 245.263 145.042,244.614 146.706,244.329 147.667 C 244.153 148.262,243.308 150.813,242.451 153.333 C 241.595 155.854,240.722 158.554,240.512 159.333 C 240.302 160.112,239.768 161.987,239.326 163.500 C 238.139 167.562,236.926 171.878,236.486 173.606 L 236.098 175.129 235.728 174.106 C 235.330 173.004,234.573 171.230,233.373 168.583 C 232.958 167.667,232.411 166.354,232.158 165.667 C 231.754 164.568,229.182 158.465,228.316 156.551 C 228.142 156.166,228.000 155.771,228.000 155.674 C 228.000 155.576,227.931 155.365,227.847 155.206 C 227.763 155.047,227.190 153.717,226.572 152.250 C 225.955 150.783,225.203 149.043,224.901 148.383 C 224.599 147.723,224.231 146.823,224.083 146.383 C 223.807 145.565,223.052 143.727,222.077 141.500 C 221.144 139.370,220.645 138.133,220.699 138.081 C 222.692 136.172,227.038 137.417,230.240 140.814 C 230.993 141.613,231.171 141.509,232.286 139.625 C 236.570 132.386,237.609 125.106,235.134 119.667 C 233.371 115.791,228.884 112.596,224.498 112.092 C 223.699 112.000,223.531 111.914,223.198 111.429 C 218.136 104.041,194.695 101.808,184.917 107.782 C 180.423 110.527,179.625 111.962,177.340 121.417 C 176.675 124.167,175.320 129.604,174.329 133.500 C 173.338 137.396,172.435 140.996,172.322 141.500 C 172.210 142.004,171.277 145.717,170.250 149.750 C 169.223 153.783,167.960 158.771,167.443 160.833 C 166.926 162.896,166.024 166.438,165.439 168.704 L 164.376 172.824 164.085 171.871 C 163.817 170.994,163.057 168.804,160.861 162.583 C 160.409 161.300,159.886 159.762,159.699 159.167 C 159.513 158.571,158.567 155.887,157.597 153.202 C 156.627 150.517,155.833 148.254,155.833 148.173 C 155.833 148.015,153.933 142.906,152.762 139.917 C 152.367 138.908,151.758 137.333,151.410 136.417 C 147.036 124.904,141.382 116.488,133.333 109.514 C 132.554 108.839,131.692 108.090,131.417 107.851 C 129.330 106.037,123.978 101.929,121.833 100.494 C 121.237 100.095,120.150 99.340,119.417 98.815 C 117.661 97.558,110.712 93.114,109.333 92.366 C 108.737 92.043,107.837 91.502,107.333 91.165 C 106.352 90.508,103.656 88.938,101.750 87.911 C 101.108 87.566,100.133 87.006,99.583 86.668 C 98.214 85.825,97.412 85.379,95.083 84.165 C 93.983 83.592,92.858 82.989,92.583 82.825 C 91.454 82.153,89.776 81.252,87.333 80.006 C 85.912 79.281,84.412 78.495,84.000 78.259 C 83.587 78.023,82.500 77.446,81.583 76.977 C 79.651 75.988,75.609 73.750,75.000 73.333 C 74.771 73.176,74.021 72.749,73.333 72.384 C 72.646 72.019,71.146 71.135,70.000 70.420 C 68.854 69.705,67.129 68.638,66.167 68.048 C 64.077 66.769,61.097 64.775,57.942 62.547 C 56.672 61.650,55.218 60.632,54.710 60.283 C 53.769 59.638,51.818 58.176,51.667 58.004 C 51.544 57.864,49.933 56.624,49.496 56.333 C 49.117 56.081,48.154 55.331,48.000 55.167 C 47.735 54.886,45.623 53.119,44.917 52.587 C 44.458 52.242,43.627 51.538,43.070 51.022 C 42.512 50.506,41.387 49.487,40.570 48.757 C 37.402 45.930,31.544 39.890,28.302 36.106 C 27.191 34.811,24.336 31.153,23.542 30.010 C 20.563 25.721,18.631 22.659,16.702 19.167 C 15.212 16.469,12.326 9.207,11.917 7.125 C 11.762 6.334,11.586 6.610,11.018 8.542 M12.652 28.419 C 16.352 36.263,23.895 44.953,33.390 52.314 C 36.252 54.532,38.770 56.395,40.956 57.911 C 42.299 58.842,43.375 59.707,43.435 59.903 C 43.494 60.094,44.029 61.411,44.624 62.831 C 45.651 65.279,46.784 68.059,50.740 77.833 C 51.686 80.171,52.853 83.021,53.332 84.167 C 53.812 85.313,54.904 87.975,55.759 90.083 C 56.615 92.192,58.171 96.017,59.217 98.583 C 60.264 101.150,61.775 104.862,62.575 106.833 C 63.375 108.804,64.443 111.415,64.948 112.636 C 65.453 113.857,65.825 114.897,65.775 114.947 C 65.677 115.045,62.117 112.270,59.012 109.675 C 55.068 106.378,54.512 105.899,51.667 103.340 C 45.513 97.805,39.880 91.902,34.417 85.263 C 22.564 70.859,14.667 53.185,12.519 36.250 C 12.074 32.748,11.587 26.667,11.751 26.667 C 11.792 26.667,12.198 27.455,12.652 28.419 M389.429 28.875 C 388.923 38.328,387.227 46.300,383.498 56.750 C 379.902 66.831,372.621 78.563,363.058 89.690 C 359.436 93.903,353.459 99.882,348.319 104.431 C 343.361 108.819,335.606 115.162,335.423 114.978 C 335.382 114.938,336.138 112.958,337.103 110.577 C 341.342 100.113,342.053 98.367,342.860 96.449 C 343.329 95.331,344.409 92.692,345.260 90.583 C 347.969 83.865,350.498 77.660,351.576 75.083 C 352.151 73.708,352.780 72.154,352.973 71.630 C 353.167 71.106,354.067 68.893,354.974 66.714 C 355.881 64.534,356.901 62.037,357.240 61.166 L 357.857 59.582 360.470 57.758 C 366.223 53.743,377.165 44.702,377.533 43.660 C 377.561 43.581,378.228 42.857,379.016 42.050 C 382.888 38.086,387.584 31.210,389.038 27.375 C 389.473 26.227,389.554 26.537,389.429 28.875 M20.077 92.492 C 27.008 102.831,39.578 112.968,62.083 126.367 C 66.270 128.859,66.750 129.117,66.622 128.809 C 66.571 128.685,65.740 126.633,64.776 124.250 C 63.812 121.867,62.573 118.829,62.021 117.500 C 61.470 116.171,61.085 115.060,61.166 115.031 C 61.247 115.002,62.949 116.208,64.948 117.711 C 70.356 121.776,72.679 123.481,76.917 126.497 C 83.890 131.460,86.038 132.959,94.750 138.949 C 125.078 159.799,131.570 164.938,141.348 175.833 C 146.303 181.355,153.888 191.471,157.062 196.792 C 157.376 197.318,156.972 196.910,156.320 196.042 C 147.682 184.545,129.443 170.989,101.333 155.174 C 100.462 154.684,98.813 153.743,97.667 153.083 C 95.359 151.754,89.535 148.471,83.917 145.331 C 81.900 144.204,79.351 142.773,78.252 142.152 C 77.154 141.531,76.230 141.048,76.200 141.078 C 76.170 141.108,76.461 141.872,76.846 142.775 C 77.490 144.283,78.278 146.217,82.741 157.250 C 83.594 159.358,84.685 162.021,85.165 163.167 C 85.646 164.313,86.812 167.162,87.757 169.500 C 89.620 174.110,92.701 181.673,94.257 185.454 C 94.793 186.757,95.187 187.869,95.132 187.924 C 94.985 188.071,94.998 188.080,84.934 181.121 C 65.033 167.361,50.575 155.276,41.521 144.835 C 41.005 144.240,40.057 143.153,39.413 142.418 C 34.933 137.307,29.542 129.427,26.082 122.931 C 20.272 112.026,16.357 97.513,16.336 86.799 L 16.333 85.681 17.672 88.291 C 18.408 89.726,19.490 91.616,20.077 92.492 M384.911 87.375 C 383.053 115.742,368.493 140.605,340.684 162.900 C 339.895 163.532,338.837 164.401,338.333 164.830 C 334.407 168.175,323.336 176.271,312.800 183.500 C 311.531 184.371,309.521 185.753,308.333 186.572 C 305.843 188.289,305.770 188.288,306.493 186.547 C 306.790 185.834,307.739 183.502,308.602 181.366 C 309.466 179.229,310.555 176.567,311.024 175.449 C 311.492 174.331,312.589 171.654,313.461 169.500 C 316.206 162.723,321.521 149.672,323.904 143.858 C 324.519 142.359,324.998 141.111,324.969 141.086 C 324.940 141.060,324.054 141.525,323.000 142.119 C 321.946 142.713,319.471 144.103,317.500 145.209 C 310.452 149.162,307.048 151.080,304.750 152.393 C 303.467 153.126,301.367 154.319,300.083 155.043 C 295.100 157.856,285.403 163.644,280.417 166.784 C 263.766 177.267,252.611 186.299,245.979 194.667 C 244.118 197.014,244.000 197.135,244.591 196.083 C 245.416 194.614,248.990 189.478,251.663 185.917 C 258.056 177.402,266.439 168.310,271.518 164.382 C 271.849 164.126,272.793 163.354,273.617 162.667 C 276.766 160.038,282.090 155.984,286.522 152.840 C 287.496 152.149,289.034 151.052,289.939 150.404 C 290.843 149.755,293.083 148.185,294.917 146.916 C 296.750 145.647,299.188 143.957,300.333 143.161 C 301.479 142.364,303.017 141.304,303.750 140.804 C 305.011 139.945,310.248 136.336,314.833 133.165 C 322.112 128.132,328.045 123.855,335.912 117.968 C 338.202 116.255,340.099 114.877,340.128 114.906 C 340.181 114.959,338.911 118.156,336.019 125.248 C 334.348 129.346,334.392 129.146,335.271 128.646 C 361.766 113.592,377.801 100.102,383.784 87.832 C 384.951 85.439,385.040 85.403,384.911 87.375 M203.920 110.504 C 213.012 111.088,218.593 113.300,219.504 116.681 C 219.670 117.298,219.691 117.312,220.628 117.409 C 228.178 118.187,231.140 121.157,230.782 127.590 C 230.694 129.179,230.028 132.965,229.673 133.900 L 229.507 134.336 228.379 133.560 C 225.928 131.875,224.671 131.417,222.500 131.417 L 220.583 131.418 216.917 133.306 C 214.900 134.345,213.266 135.255,213.286 135.329 C 213.351 135.577,219.090 149.864,221.421 155.583 C 222.280 157.692,223.357 160.354,223.813 161.500 C 224.582 163.428,226.798 168.920,231.616 180.833 C 235.722 190.987,237.004 194.239,236.954 194.387 C 236.926 194.471,235.874 193.199,234.615 191.561 C 233.356 189.923,232.116 188.321,231.859 188.000 C 231.603 187.679,230.532 186.292,229.479 184.917 C 226.191 180.623,220.839 173.661,219.421 171.833 C 218.675 170.871,217.356 169.158,216.490 168.026 C 215.625 166.895,214.204 165.046,213.333 163.917 C 212.463 162.789,210.588 160.352,209.167 158.503 C 207.746 156.654,205.852 154.190,204.957 153.029 C 204.063 151.867,202.586 149.942,201.675 148.750 C 200.764 147.558,199.806 146.330,199.546 146.021 L 199.072 145.459 196.233 149.688 C 193.546 153.690,184.225 167.603,171.293 186.917 C 165.803 195.116,164.968 196.270,165.222 195.314 C 165.322 194.934,167.263 187.045,170.833 172.500 C 171.744 168.787,172.900 164.025,173.400 161.917 C 173.900 159.808,174.947 155.496,175.726 152.333 C 176.506 149.171,178.002 143.058,179.052 138.750 C 185.141 113.770,184.552 115.760,186.352 114.092 C 189.547 111.135,195.331 109.953,203.920 110.504 M197.667 118.000 C 197.667 118.092,197.803 118.167,197.970 118.167 C 198.593 118.167,204.253 119.675,204.313 119.857 C 205.141 122.333,209.848 122.871,212.000 120.736 C 212.408 120.331,210.128 119.445,206.500 118.598 C 203.586 117.919,197.667 117.518,197.667 118.000 M36.149 151.625 C 39.895 159.238,50.917 169.093,64.333 176.827 C 65.021 177.223,66.224 177.940,67.007 178.420 C 68.410 179.280,73.833 182.355,77.083 184.133 C 78.000 184.635,79.950 185.702,81.417 186.504 C 82.883 187.307,84.758 188.320,85.583 188.757 C 86.408 189.193,88.208 190.164,89.583 190.915 C 90.958 191.665,92.908 192.717,93.917 193.252 C 109.271 201.397,124.469 214.160,140.020 231.968 C 144.579 237.189,145.726 238.640,144.440 237.563 C 144.125 237.299,142.791 236.178,141.476 235.072 C 140.160 233.967,137.958 232.202,136.583 231.152 C 134.282 229.395,133.096 228.526,129.167 225.721 C 127.661 224.645,120.442 219.882,117.299 217.890 C 112.694 214.971,104.333 209.973,104.333 210.139 C 104.333 210.206,104.603 210.895,104.932 211.672 C 105.261 212.448,106.381 215.183,107.422 217.750 C 108.462 220.317,110.261 224.742,111.419 227.583 C 115.736 238.175,117.485 242.571,117.411 242.645 C 117.369 242.686,116.900 242.274,116.368 241.729 C 114.296 239.605,108.272 235.084,102.861 231.592 C 88.640 222.416,76.824 214.145,69.667 208.358 C 47.106 190.116,36.657 172.684,35.459 151.292 C 35.400 150.245,35.491 150.289,36.149 151.625 M365.833 150.973 C 365.833 154.726,364.339 162.897,362.759 167.785 C 358.392 181.289,348.019 195.014,333.000 207.160 C 332.496 207.568,331.483 208.400,330.750 209.010 C 326.006 212.956,316.916 219.370,304.667 227.413 C 292.016 235.720,288.309 238.389,285.130 241.481 C 284.422 242.169,283.811 242.699,283.772 242.658 C 283.695 242.578,284.362 240.848,286.116 236.583 C 287.810 232.463,291.224 224.069,292.523 220.833 C 293.167 219.229,294.406 216.204,295.278 214.112 C 296.149 212.019,296.826 210.270,296.781 210.225 C 296.697 210.141,292.780 212.356,291.583 213.164 C 291.217 213.412,289.792 214.292,288.417 215.120 C 276.321 222.408,264.606 230.672,257.693 236.793 C 255.149 239.045,255.853 238.032,260.522 232.723 C 274.010 217.385,288.266 204.534,299.288 197.777 C 300.782 196.861,307.604 193.000,307.728 193.000 C 307.766 193.000,308.836 192.429,310.107 191.731 C 311.377 191.033,313.579 189.844,315.000 189.090 C 324.427 184.083,336.664 177.117,340.417 174.621 C 340.967 174.255,342.001 173.593,342.715 173.149 C 352.820 166.865,361.946 158.079,364.991 151.702 C 365.605 150.415,365.833 150.217,365.833 150.973 " stroke="none" fill="#042c63" fill-rule="evenodd"></path><path id="path3" d="M389.159 27.181 C 389.057 27.372,389.017 27.572,389.070 27.625 C 389.123 27.679,389.176 27.616,389.186 27.486 C 389.197 27.356,389.263 27.475,389.333 27.750 C 389.453 28.219,389.462 28.206,389.480 27.542 C 389.502 26.750,389.432 26.671,389.159 27.181 M11.872 29.333 C 11.872 29.654,11.906 29.785,11.948 29.625 C 11.990 29.465,11.990 29.202,11.948 29.042 C 11.906 28.881,11.872 29.012,11.872 29.333 M389.214 30.083 C 389.216 30.542,389.248 30.709,389.286 30.456 C 389.325 30.203,389.324 29.828,389.284 29.623 C 389.244 29.418,389.213 29.625,389.214 30.083 M13.500 30.500 C 13.687 30.867,13.878 31.167,13.923 31.167 C 13.969 31.167,13.854 30.867,13.667 30.500 C 13.480 30.133,13.289 29.833,13.243 29.833 C 13.197 29.833,13.313 30.133,13.500 30.500 M379.824 41.292 L 379.250 41.917 379.875 41.342 C 380.457 40.808,380.577 40.667,380.449 40.667 C 380.422 40.667,380.140 40.948,379.824 41.292 M21.583 41.667 C 21.941 42.033,22.272 42.333,22.318 42.333 C 22.363 42.333,22.108 42.033,21.750 41.667 C 21.392 41.300,21.062 41.000,21.016 41.000 C 20.970 41.000,21.225 41.300,21.583 41.667 M377.080 44.208 L 375.250 46.083 377.125 44.253 C 378.867 42.553,379.076 42.333,378.955 42.333 C 378.931 42.333,378.087 43.177,377.080 44.208 M26.660 46.708 C 27.068 47.144,27.425 47.500,27.451 47.500 C 27.577 47.500,27.444 47.350,26.708 46.660 L 25.917 45.917 26.660 46.708 M374.000 47.083 C 373.595 47.496,373.301 47.833,373.347 47.833 C 373.393 47.833,373.762 47.496,374.167 47.083 C 374.572 46.671,374.865 46.333,374.819 46.333 C 374.774 46.333,374.405 46.671,374.000 47.083 M40.500 57.727 C 40.500 57.773,40.725 57.971,41.000 58.167 C 41.275 58.362,41.500 58.485,41.500 58.439 C 41.500 58.394,41.275 58.196,41.000 58.000 C 40.725 57.804,40.500 57.681,40.500 57.727 M357.898 59.755 C 357.746 59.987,357.652 60.207,357.689 60.244 C 357.726 60.281,357.883 60.092,358.037 59.823 C 358.381 59.223,358.279 59.174,357.898 59.755 M381.360 61.424 C 381.081 62.037,381.134 62.167,381.436 61.610 C 381.577 61.350,381.662 61.106,381.623 61.068 C 381.585 61.030,381.467 61.190,381.360 61.424 M379.000 66.333 C 378.813 66.700,378.697 67.000,378.743 67.000 C 378.789 67.000,378.980 66.700,379.167 66.333 C 379.354 65.967,379.469 65.667,379.423 65.667 C 379.378 65.667,379.187 65.967,379.000 66.333 M22.917 68.000 C 23.059 68.275,23.213 68.500,23.259 68.500 C 23.304 68.500,23.226 68.275,23.083 68.000 C 22.941 67.725,22.787 67.500,22.741 67.500 C 22.696 67.500,22.774 67.725,22.917 68.000 M377.583 69.000 C 377.441 69.275,377.362 69.500,377.408 69.500 C 377.454 69.500,377.608 69.275,377.750 69.000 C 377.892 68.725,377.971 68.500,377.925 68.500 C 377.879 68.500,377.726 68.725,377.583 69.000 M374.064 74.875 C 373.490 75.848,373.452 75.931,373.745 75.583 C 374.083 75.180,374.375 74.667,374.266 74.667 C 374.222 74.667,374.131 74.760,374.064 74.875 M16.379 87.667 C 16.379 88.079,16.411 88.248,16.451 88.042 C 16.491 87.835,16.491 87.498,16.451 87.292 C 16.411 87.085,16.379 87.254,16.379 87.667 M384.705 88.500 C 384.705 88.821,384.740 88.952,384.782 88.792 C 384.823 88.631,384.823 88.369,384.782 88.208 C 384.740 88.048,384.705 88.179,384.705 88.500 M362.406 90.208 L 361.917 90.750 362.458 90.260 C 362.963 89.804,363.077 89.667,362.948 89.667 C 362.919 89.667,362.675 89.910,362.406 90.208 M38.333 89.885 C 38.333 89.914,38.577 90.158,38.875 90.427 L 39.417 90.917 38.927 90.375 C 38.471 89.870,38.333 89.757,38.333 89.885 M361.242 91.542 L 360.583 92.250 361.292 91.591 C 361.950 90.978,362.077 90.833,361.950 90.833 C 361.923 90.833,361.605 91.152,361.242 91.542 M40.167 91.885 C 40.167 91.914,40.410 92.158,40.708 92.427 L 41.250 92.917 40.760 92.375 C 40.304 91.870,40.167 91.757,40.167 91.885 M358.667 94.250 C 357.984 94.938,357.463 95.500,357.508 95.500 C 357.554 95.500,358.150 94.938,358.833 94.250 C 359.516 93.563,360.037 93.000,359.992 93.000 C 359.946 93.000,359.350 93.563,358.667 94.250 M45.083 97.000 C 46.823 98.742,48.284 100.167,48.330 100.167 C 48.376 100.167,46.990 98.742,45.250 97.000 C 43.510 95.258,42.049 93.833,42.003 93.833 C 41.957 93.833,43.343 95.258,45.083 97.000 M377.073 97.875 L 376.583 98.417 377.125 97.927 C 377.630 97.471,377.743 97.333,377.615 97.333 C 377.586 97.333,377.342 97.577,377.073 97.875 M24.000 97.885 C 24.000 97.914,24.244 98.158,24.542 98.427 L 25.083 98.917 24.594 98.375 C 24.138 97.870,24.000 97.757,24.000 97.885 M353.413 99.542 L 351.917 101.083 353.458 99.587 C 354.306 98.764,355.000 98.070,355.000 98.045 C 355.000 97.924,354.803 98.110,353.413 99.542 M375.000 100.083 C 374.317 100.771,373.796 101.333,373.842 101.333 C 373.888 101.333,374.484 100.771,375.167 100.083 C 375.850 99.396,376.371 98.833,376.325 98.833 C 376.279 98.833,375.683 99.396,375.000 100.083 M27.498 101.542 C 28.734 102.802,29.765 103.833,29.789 103.833 C 29.909 103.833,29.670 103.586,27.542 101.498 L 25.250 99.250 27.498 101.542 M49.993 101.708 C 50.684 102.444,50.833 102.577,50.833 102.451 C 50.833 102.425,50.477 102.068,50.042 101.660 L 49.250 100.917 49.993 101.708 M350.500 102.250 C 350.095 102.662,349.801 103.000,349.847 103.000 C 349.893 103.000,350.262 102.662,350.667 102.250 C 351.072 101.837,351.365 101.500,351.319 101.500 C 351.274 101.500,350.905 101.837,350.500 102.250 M372.078 103.042 L 371.083 104.083 372.125 103.089 C 372.698 102.541,373.167 102.073,373.167 102.047 C 373.167 101.924,373.002 102.074,372.078 103.042 M51.500 103.052 C 51.500 103.081,51.744 103.325,52.042 103.594 L 52.583 104.083 52.094 103.542 C 51.638 103.037,51.500 102.923,51.500 103.052 M348.658 103.958 L 348.083 104.583 348.708 104.009 C 349.052 103.693,349.333 103.412,349.333 103.384 C 349.333 103.257,349.192 103.377,348.658 103.958 M30.667 104.552 C 30.667 104.581,30.910 104.825,31.208 105.094 L 31.750 105.583 31.260 105.042 C 30.804 104.537,30.667 104.423,30.667 104.552 M369.740 105.208 L 369.250 105.750 369.792 105.260 C 370.297 104.804,370.410 104.667,370.281 104.667 C 370.252 104.667,370.009 104.910,369.740 105.208 M198.382 110.457 C 199.004 110.489,199.979 110.489,200.549 110.457 C 201.118 110.424,200.608 110.398,199.417 110.398 C 198.225 110.398,197.759 110.425,198.382 110.457 M203.875 110.615 C 204.035 110.657,204.298 110.657,204.458 110.615 C 204.619 110.573,204.487 110.539,204.167 110.539 C 203.846 110.539,203.715 110.573,203.875 110.615 M186.075 114.375 L 185.417 115.083 186.125 114.425 C 186.784 113.812,186.910 113.667,186.784 113.667 C 186.757 113.667,186.438 113.985,186.075 114.375 M358.417 114.098 L 357.917 114.528 358.458 114.169 C 358.756 113.972,359.000 113.778,359.000 113.739 C 359.000 113.614,358.929 113.657,358.417 114.098 M377.860 116.757 C 377.581 117.370,377.634 117.501,377.936 116.944 C 378.077 116.683,378.162 116.439,378.123 116.401 C 378.085 116.363,377.967 116.523,377.860 116.757 M198.965 117.790 C 199.541 117.823,200.441 117.823,200.965 117.790 C 201.488 117.757,201.017 117.730,199.917 117.730 C 198.817 117.731,198.388 117.758,198.965 117.790 M196.667 118.000 C 196.667 118.092,196.821 118.167,197.010 118.167 C 197.199 118.167,197.307 118.092,197.250 118.000 C 197.193 117.908,197.039 117.833,196.907 117.833 C 196.775 117.833,196.667 117.908,196.667 118.000 M202.875 117.948 C 203.035 117.990,203.298 117.990,203.458 117.948 C 203.619 117.906,203.487 117.872,203.167 117.872 C 202.846 117.872,202.715 117.906,202.875 117.948 M54.750 122.086 C 54.933 122.236,55.233 122.431,55.417 122.521 L 55.750 122.685 55.417 122.414 C 55.233 122.264,54.933 122.069,54.750 121.979 L 54.417 121.815 54.750 122.086 M26.333 123.333 C 26.520 123.700,26.711 124.000,26.757 124.000 C 26.803 124.000,26.687 123.700,26.500 123.333 C 26.313 122.967,26.122 122.667,26.077 122.667 C 26.031 122.667,26.146 122.967,26.333 123.333 M230.712 126.667 C 230.712 127.079,230.745 127.248,230.784 127.042 C 230.824 126.835,230.824 126.498,230.784 126.292 C 230.745 126.085,230.712 126.254,230.712 126.667 M314.083 133.765 L 313.583 134.194 314.125 133.836 C 314.423 133.639,314.667 133.445,314.667 133.405 C 314.667 133.281,314.596 133.324,314.083 133.765 M365.977 136.958 C 365.497 137.537,365.294 137.833,365.376 137.833 C 365.423 137.833,365.661 137.571,365.905 137.250 C 366.359 136.655,366.414 136.430,365.977 136.958 M302.042 142.017 C 301.652 142.292,301.333 142.555,301.333 142.600 C 301.333 142.646,301.671 142.450,302.083 142.167 C 302.496 141.883,302.833 141.617,302.833 141.575 C 302.833 141.461,302.802 141.478,302.042 142.017 M322.958 141.929 C 322.335 142.267,322.373 142.407,323.000 142.083 C 323.275 141.941,323.500 141.789,323.500 141.746 C 323.500 141.638,323.482 141.645,322.958 141.929 M41.167 144.385 C 41.167 144.414,41.410 144.658,41.708 144.927 L 42.250 145.417 41.760 144.875 C 41.304 144.370,41.167 144.257,41.167 144.385 M358.333 146.083 C 357.928 146.496,357.635 146.833,357.681 146.833 C 357.726 146.833,358.095 146.496,358.500 146.083 C 358.905 145.671,359.199 145.333,359.153 145.333 C 359.107 145.333,358.738 145.671,358.333 146.083 M42.826 146.208 C 43.517 146.944,43.667 147.077,43.667 146.951 C 43.667 146.925,43.310 146.568,42.875 146.160 L 42.083 145.417 42.826 146.208 M353.582 151.042 L 349.917 154.750 353.625 151.085 C 355.665 149.069,357.333 147.400,357.333 147.376 C 357.333 147.258,356.988 147.596,353.582 151.042 M47.667 151.250 C 49.269 152.854,50.617 154.167,50.663 154.167 C 50.709 154.167,49.436 152.854,47.833 151.250 C 46.231 149.646,44.883 148.333,44.837 148.333 C 44.791 148.333,46.064 149.646,47.667 151.250 M309.625 149.429 C 309.002 149.767,309.040 149.907,309.667 149.583 C 309.942 149.441,310.167 149.289,310.167 149.246 C 310.167 149.138,310.149 149.145,309.625 149.429 M35.545 152.333 C 35.545 152.746,35.578 152.915,35.618 152.708 C 35.657 152.502,35.657 152.165,35.618 151.958 C 35.578 151.752,35.545 151.921,35.545 152.333 M365.548 152.917 C 365.549 153.375,365.581 153.543,365.620 153.289 C 365.658 153.036,365.657 152.661,365.617 152.456 C 365.578 152.251,365.546 152.458,365.548 152.917 M300.792 154.429 C 300.169 154.767,300.207 154.907,300.833 154.583 C 301.108 154.441,301.333 154.289,301.333 154.246 C 301.333 154.138,301.315 154.145,300.792 154.429 M51.917 155.333 C 52.275 155.700,52.605 156.000,52.651 156.000 C 52.697 156.000,52.441 155.700,52.083 155.333 C 51.725 154.967,51.395 154.667,51.349 154.667 C 51.303 154.667,51.559 154.967,51.917 155.333 M348.667 155.750 C 348.262 156.162,347.968 156.500,348.014 156.500 C 348.060 156.500,348.428 156.162,348.833 155.750 C 349.238 155.337,349.532 155.000,349.486 155.000 C 349.440 155.000,349.072 155.337,348.667 155.750 M54.000 157.250 C 54.311 157.571,54.603 157.833,54.649 157.833 C 54.695 157.833,54.478 157.571,54.167 157.250 C 53.856 156.929,53.564 156.667,53.518 156.667 C 53.472 156.667,53.689 156.929,54.000 157.250 M346.740 157.542 L 346.250 158.083 346.792 157.594 C 347.297 157.138,347.410 157.000,347.281 157.000 C 347.252 157.000,347.009 157.244,346.740 157.542 M55.000 158.052 C 55.000 158.081,55.244 158.325,55.542 158.594 L 56.083 159.083 55.594 158.542 C 55.138 158.037,55.000 157.923,55.000 158.052 M345.406 158.708 L 344.917 159.250 345.458 158.760 C 345.963 158.304,346.077 158.167,345.948 158.167 C 345.919 158.167,345.675 158.410,345.406 158.708 M359.075 160.042 L 358.417 160.750 359.125 160.091 C 359.784 159.478,359.910 159.333,359.784 159.333 C 359.757 159.333,359.438 159.652,359.075 160.042 M43.333 161.417 C 44.385 162.471,45.282 163.333,45.328 163.333 C 45.374 163.333,44.551 162.471,43.500 161.417 C 42.449 160.362,41.551 159.500,41.505 159.500 C 41.460 159.500,42.282 160.362,43.333 161.417 M356.244 162.875 L 355.417 163.750 356.292 162.923 C 356.773 162.468,357.167 162.074,357.167 162.048 C 357.167 161.924,357.012 162.062,356.244 162.875 M46.000 163.885 C 46.000 163.914,46.244 164.158,46.542 164.427 L 47.083 164.917 46.594 164.375 C 46.138 163.870,46.000 163.757,46.000 163.885 M130.333 165.052 C 130.333 165.081,130.577 165.325,130.875 165.594 L 131.417 166.083 130.927 165.542 C 130.471 165.037,130.333 164.923,130.333 165.052 M131.500 166.052 C 131.500 166.081,131.744 166.325,132.042 166.594 L 132.583 167.083 132.094 166.542 C 131.638 166.037,131.500 165.923,131.500 166.052 M268.740 166.875 L 268.250 167.417 268.792 166.927 C 269.297 166.471,269.410 166.333,269.281 166.333 C 269.252 166.333,269.009 166.577,268.740 166.875 M134.167 168.583 C 134.757 169.179,135.278 169.667,135.324 169.667 C 135.370 169.667,134.924 169.179,134.333 168.583 C 133.743 167.987,133.222 167.500,133.176 167.500 C 133.130 167.500,133.576 167.987,134.167 168.583 M264.831 170.625 L 262.417 173.083 264.875 170.669 C 267.159 168.426,267.409 168.167,267.290 168.167 C 267.265 168.167,266.159 169.273,264.831 170.625 M124.750 169.253 C 124.933 169.402,125.233 169.598,125.417 169.688 L 125.750 169.852 125.417 169.580 C 125.233 169.431,124.933 169.235,124.750 169.145 L 124.417 168.982 124.750 169.253 M68.833 169.394 C 68.833 169.440,69.058 169.638,69.333 169.833 C 69.608 170.029,69.833 170.152,69.833 170.106 C 69.833 170.060,69.608 169.862,69.333 169.667 C 69.058 169.471,68.833 169.348,68.833 169.394 M138.250 172.667 C 138.701 173.125,139.108 173.500,139.154 173.500 C 139.200 173.500,138.868 173.125,138.417 172.667 C 137.965 172.208,137.558 171.833,137.513 171.833 C 137.467 171.833,137.799 172.208,138.250 172.667 M261.409 174.208 L 260.750 174.917 261.458 174.258 C 262.117 173.645,262.243 173.500,262.117 173.500 C 262.090 173.500,261.771 173.819,261.409 174.208 M74.667 173.727 C 74.667 173.773,74.892 173.971,75.167 174.167 C 75.442 174.362,75.667 174.485,75.667 174.439 C 75.667 174.394,75.442 174.196,75.167 174.000 C 74.892 173.804,74.667 173.681,74.667 173.727 M269.083 174.098 L 268.583 174.528 269.125 174.169 C 269.423 173.972,269.667 173.778,269.667 173.739 C 269.667 173.614,269.596 173.657,269.083 174.098 M140.167 174.750 C 140.478 175.071,140.770 175.333,140.815 175.333 C 140.861 175.333,140.644 175.071,140.333 174.750 C 140.022 174.429,139.730 174.167,139.685 174.167 C 139.639 174.167,139.856 174.429,140.167 174.750 M41.500 175.226 C 41.500 175.407,42.661 177.667,42.754 177.667 C 42.800 177.667,42.565 177.123,42.233 176.458 C 41.608 175.211,41.500 175.029,41.500 175.226 M259.740 176.042 L 259.250 176.583 259.792 176.094 C 260.297 175.638,260.410 175.500,260.281 175.500 C 260.252 175.500,260.009 175.744,259.740 176.042 M141.167 175.885 C 141.167 175.914,141.410 176.158,141.708 176.427 L 142.250 176.917 141.760 176.375 C 141.304 175.870,141.167 175.757,141.167 175.885 M136.833 177.552 C 136.833 177.593,137.109 177.837,137.445 178.094 C 137.782 178.350,138.004 178.475,137.940 178.371 C 137.808 178.158,136.833 177.436,136.833 177.552 M320.583 177.931 L 320.083 178.361 320.625 178.002 C 320.923 177.805,321.167 177.612,321.167 177.572 C 321.167 177.447,321.096 177.491,320.583 177.931 M358.083 178.167 C 357.941 178.442,357.862 178.667,357.908 178.667 C 357.954 178.667,358.108 178.442,358.250 178.167 C 358.392 177.892,358.471 177.667,358.425 177.667 C 358.379 177.667,358.226 177.892,358.083 178.167 M86.000 181.727 C 86.000 181.773,86.225 181.971,86.500 182.167 C 86.775 182.362,87.000 182.485,87.000 182.439 C 87.000 182.394,86.775 182.196,86.500 182.000 C 86.225 181.804,86.000 181.681,86.000 181.727 M72.833 181.908 C 72.833 181.954,73.058 182.108,73.333 182.250 C 73.608 182.392,73.833 182.471,73.833 182.425 C 73.833 182.379,73.608 182.226,73.333 182.083 C 73.058 181.941,72.833 181.862,72.833 181.908 M353.667 185.333 C 353.471 185.608,353.348 185.833,353.394 185.833 C 353.440 185.833,353.638 185.608,353.833 185.333 C 354.029 185.058,354.152 184.833,354.106 184.833 C 354.060 184.833,353.862 185.058,353.667 185.333 M146.993 185.875 C 147.684 186.611,147.833 186.743,147.833 186.618 C 147.833 186.591,147.477 186.235,147.042 185.826 L 146.250 185.083 146.993 185.875 M79.167 185.408 C 79.167 185.454,79.392 185.608,79.667 185.750 C 79.942 185.892,80.167 185.971,80.167 185.925 C 80.167 185.879,79.942 185.726,79.667 185.583 C 79.392 185.441,79.167 185.362,79.167 185.408 M253.575 186.375 L 252.917 187.083 253.625 186.425 C 254.284 185.812,254.410 185.667,254.284 185.667 C 254.257 185.667,253.938 185.985,253.575 186.375 M319.958 186.429 C 319.335 186.767,319.373 186.907,320.000 186.583 C 320.275 186.441,320.500 186.289,320.500 186.246 C 320.500 186.138,320.482 186.145,319.958 186.429 M150.000 188.750 C 150.867 189.621,151.614 190.333,151.660 190.333 C 151.706 190.333,151.034 189.621,150.167 188.750 C 149.299 187.879,148.552 187.167,148.507 187.167 C 148.461 187.167,149.133 187.879,150.000 188.750 M87.167 189.743 C 87.167 189.789,87.467 189.980,87.833 190.167 C 88.200 190.354,88.500 190.469,88.500 190.423 C 88.500 190.378,88.200 190.187,87.833 190.000 C 87.467 189.813,87.167 189.697,87.167 189.743 M248.824 191.125 L 248.250 191.750 248.875 191.176 C 249.457 190.641,249.577 190.500,249.449 190.500 C 249.422 190.500,249.140 190.781,248.824 191.125 M311.625 190.929 C 311.002 191.267,311.040 191.407,311.667 191.083 C 311.942 190.941,312.167 190.789,312.167 190.746 C 312.167 190.638,312.149 190.645,311.625 190.929 M152.500 191.385 C 152.500 191.414,152.744 191.658,153.042 191.927 L 153.583 192.417 153.094 191.875 C 152.638 191.370,152.500 191.257,152.500 191.385 M246.692 193.542 C 246.577 193.656,246.412 193.750,246.325 193.750 C 246.238 193.750,246.155 193.825,246.142 193.917 C 246.128 194.008,246.022 194.158,245.907 194.250 C 245.792 194.342,245.418 194.867,245.077 195.417 C 244.334 196.613,244.449 196.513,245.893 194.708 C 246.932 193.410,247.167 193.066,246.692 193.542 M154.649 193.871 C 155.014 194.284,155.477 194.368,155.236 193.977 C 155.180 193.886,155.091 193.854,155.039 193.906 C 154.986 193.958,154.788 193.870,154.597 193.710 C 154.337 193.492,154.350 193.532,154.649 193.871 M346.500 194.250 C 346.095 194.662,345.801 195.000,345.847 195.000 C 345.893 195.000,346.262 194.662,346.667 194.250 C 347.072 193.838,347.365 193.500,347.319 193.500 C 347.274 193.500,346.905 193.838,346.500 194.250 M54.750 194.500 C 55.108 194.867,55.438 195.167,55.484 195.167 C 55.530 195.167,55.275 194.867,54.917 194.500 C 54.559 194.133,54.228 193.833,54.182 193.833 C 54.137 193.833,54.392 194.133,54.750 194.500 M305.792 194.095 C 305.169 194.433,305.207 194.574,305.833 194.250 C 306.108 194.108,306.333 193.956,306.333 193.912 C 306.333 193.805,306.315 193.811,305.792 194.095 M155.263 194.478 C 155.169 194.631,155.379 194.849,155.833 195.070 C 155.989 195.145,155.974 195.102,155.794 194.954 C 155.635 194.824,155.547 194.676,155.597 194.625 C 155.648 194.575,155.614 194.487,155.523 194.431 C 155.431 194.374,155.315 194.396,155.263 194.478 M343.081 197.875 L 340.750 200.250 343.125 197.919 C 344.431 196.637,345.500 195.568,345.500 195.544 C 345.500 195.425,345.247 195.669,343.081 197.875 M56.833 196.713 C 56.833 196.738,57.415 197.319,58.125 198.004 L 59.417 199.250 58.171 197.958 C 57.014 196.759,56.833 196.591,56.833 196.713 M61.493 201.208 C 61.902 201.644,62.258 202.000,62.285 202.000 C 62.410 202.000,62.278 201.850,61.542 201.160 L 60.750 200.417 61.493 201.208 M338.909 201.875 L 338.250 202.583 338.958 201.925 C 339.617 201.312,339.743 201.167,339.617 201.167 C 339.590 201.167,339.271 201.485,338.909 201.875 M293.250 201.931 L 292.750 202.361 293.292 202.002 C 293.590 201.805,293.833 201.612,293.833 201.572 C 293.833 201.447,293.763 201.491,293.250 201.931 M62.833 202.385 C 62.833 202.414,63.077 202.658,63.375 202.927 L 63.917 203.417 63.427 202.875 C 62.971 202.370,62.833 202.257,62.833 202.385 M337.406 203.208 L 336.917 203.750 337.458 203.260 C 337.963 202.804,338.077 202.667,337.948 202.667 C 337.919 202.667,337.675 202.910,337.406 203.208 M282.740 210.375 L 282.250 210.917 282.792 210.427 C 283.297 209.971,283.410 209.833,283.281 209.833 C 283.252 209.833,283.009 210.077,282.740 210.375 M281.324 211.625 L 280.750 212.250 281.375 211.676 C 281.957 211.141,282.077 211.000,281.949 211.000 C 281.922 211.000,281.640 211.281,281.324 211.625 M121.167 212.917 C 121.478 213.237,121.770 213.500,121.815 213.500 C 121.861 213.500,121.644 213.237,121.333 212.917 C 121.022 212.596,120.730 212.333,120.685 212.333 C 120.639 212.333,120.856 212.596,121.167 212.917 M279.324 213.458 L 278.750 214.083 279.375 213.509 C 279.719 213.193,280.000 212.912,280.000 212.884 C 280.000 212.757,279.859 212.877,279.324 213.458 M123.083 214.667 C 123.535 215.125,123.942 215.500,123.987 215.500 C 124.033 215.500,123.701 215.125,123.250 214.667 C 122.799 214.208,122.392 213.833,122.346 213.833 C 122.300 213.833,122.632 214.208,123.083 214.667 M277.329 215.292 L 276.250 216.417 277.375 215.338 C 278.420 214.336,278.576 214.167,278.454 214.167 C 278.428 214.167,277.922 214.673,277.329 215.292 M128.583 220.000 C 130.231 221.650,131.617 223.000,131.663 223.000 C 131.709 223.000,130.398 221.650,128.750 220.000 C 127.102 218.350,125.716 217.000,125.670 217.000 C 125.624 217.000,126.935 218.350,128.583 220.000 M81.833 217.394 C 81.833 217.440,82.058 217.638,82.333 217.833 C 82.608 218.029,82.833 218.152,82.833 218.106 C 82.833 218.060,82.608 217.862,82.333 217.667 C 82.058 217.471,81.833 217.348,81.833 217.394 M273.494 218.958 L 272.583 219.917 273.542 219.006 C 274.432 218.159,274.576 218.000,274.453 218.000 C 274.427 218.000,273.995 218.431,273.494 218.958 M267.913 224.708 L 266.583 226.083 267.958 224.754 C 269.235 223.519,269.409 223.333,269.288 223.333 C 269.263 223.333,268.644 223.952,267.913 224.708 M134.000 225.583 C 134.498 226.088,134.943 226.500,134.989 226.500 C 135.034 226.500,134.665 226.088,134.167 225.583 C 133.669 225.079,133.224 224.667,133.178 224.667 C 133.132 224.667,133.502 225.079,134.000 225.583 M271.250 226.098 L 270.750 226.528 271.292 226.169 C 271.590 225.972,271.833 225.778,271.833 225.739 C 271.833 225.614,271.763 225.657,271.250 226.098 M265.667 227.083 C 265.262 227.496,264.968 227.833,265.014 227.833 C 265.060 227.833,265.428 227.496,265.833 227.083 C 266.238 226.671,266.532 226.333,266.486 226.333 C 266.440 226.333,266.072 226.671,265.667 227.083 M136.083 227.833 C 136.441 228.200,136.772 228.500,136.818 228.500 C 136.863 228.500,136.608 228.200,136.250 227.833 C 135.892 227.467,135.562 227.167,135.516 227.167 C 135.470 227.167,135.725 227.467,136.083 227.833 M263.491 229.458 L 262.917 230.083 263.542 229.509 C 263.885 229.193,264.167 228.912,264.167 228.884 C 264.167 228.757,264.026 228.877,263.491 229.458 M137.500 229.385 C 137.500 229.414,137.744 229.658,138.042 229.927 L 138.583 230.417 138.094 229.875 C 137.638 229.370,137.500 229.257,137.500 229.385 M262.075 231.042 L 261.417 231.750 262.125 231.091 C 262.784 230.478,262.910 230.333,262.784 230.333 C 262.757 230.333,262.438 230.652,262.075 231.042 M259.573 233.875 L 259.083 234.417 259.625 233.927 C 260.130 233.471,260.243 233.333,260.115 233.333 C 260.086 233.333,259.842 233.577,259.573 233.875 M258.573 235.042 L 258.083 235.583 258.625 235.094 C 259.130 234.638,259.243 234.500,259.115 234.500 C 259.086 234.500,258.842 234.744,258.573 235.042 M257.671 236.578 C 257.459 236.805,257.231 236.956,257.165 236.915 C 257.037 236.836,256.631 237.251,256.429 237.667 C 256.363 237.804,256.474 237.729,256.676 237.500 C 256.878 237.271,257.099 237.099,257.165 237.117 C 257.232 237.136,257.498 236.929,257.758 236.659 C 258.017 236.388,258.191 236.167,258.144 236.167 C 258.097 236.167,257.884 236.352,257.671 236.578 M144.418 237.501 C 144.584 237.685,144.756 237.799,144.801 237.755 C 144.912 237.643,144.497 237.167,144.287 237.167 C 144.192 237.167,144.251 237.317,144.418 237.501 M114.333 239.719 C 114.333 239.748,114.577 239.991,114.875 240.260 L 115.417 240.750 114.927 240.208 C 114.471 239.703,114.333 239.590,114.333 239.719 M285.906 240.542 L 285.417 241.083 285.958 240.594 C 286.463 240.138,286.577 240.000,286.448 240.000 C 286.419 240.000,286.175 240.244,285.906 240.542 M116.493 241.708 C 117.331 242.602,117.333 242.603,117.333 242.222 C 117.333 242.069,117.282 241.996,117.219 242.059 C 117.156 242.122,116.800 241.891,116.427 241.545 C 115.773 240.939,115.776 240.944,116.493 241.708 " stroke="none" fill="#5f2d53" fill-rule="evenodd"></path><path id="path4" d="M11.667 27.073 C 11.667 27.584,11.762 27.625,11.882 27.167 C 11.930 26.984,11.901 26.792,11.818 26.740 C 11.735 26.689,11.667 26.839,11.667 27.073 M389.372 28.667 C 389.372 28.988,389.406 29.119,389.448 28.958 C 389.490 28.798,389.490 28.535,389.448 28.375 C 389.406 28.215,389.372 28.346,389.372 28.667 M378.328 42.792 L 377.417 43.750 378.375 42.839 C 379.265 41.993,379.410 41.833,379.286 41.833 C 379.260 41.833,378.829 42.265,378.328 42.792 M22.917 43.000 C 23.275 43.367,23.605 43.667,23.651 43.667 C 23.697 43.667,23.441 43.367,23.083 43.000 C 22.725 42.633,22.395 42.333,22.349 42.333 C 22.303 42.333,22.559 42.633,22.917 43.000 M25.160 45.208 C 25.568 45.644,25.925 46.000,25.951 46.000 C 26.077 46.000,25.944 45.850,25.208 45.160 L 24.417 44.417 25.160 45.208 M375.324 45.792 L 374.750 46.417 375.375 45.842 C 375.957 45.308,376.077 45.167,375.949 45.167 C 375.922 45.167,375.640 45.448,375.324 45.792 M27.667 47.583 C 27.978 47.904,28.270 48.167,28.315 48.167 C 28.361 48.167,28.144 47.904,27.833 47.583 C 27.522 47.262,27.230 47.000,27.185 47.000 C 27.139 47.000,27.356 47.262,27.667 47.583 M373.158 47.792 L 372.583 48.417 373.208 47.842 C 373.790 47.308,373.910 47.167,373.783 47.167 C 373.755 47.167,373.474 47.448,373.158 47.792 M384.802 86.417 C 384.839 86.737,384.899 87.000,384.935 87.000 C 384.971 87.000,385.000 86.737,385.000 86.417 C 385.000 86.096,384.940 85.833,384.867 85.833 C 384.794 85.833,384.764 86.096,384.802 86.417 M39.417 91.167 C 39.775 91.533,40.105 91.833,40.151 91.833 C 40.197 91.833,39.941 91.533,39.583 91.167 C 39.225 90.800,38.895 90.500,38.849 90.500 C 38.803 90.500,39.059 90.800,39.417 91.167 M27.000 92.552 C 27.000 92.581,27.244 92.825,27.542 93.094 L 28.083 93.583 27.594 93.042 C 27.138 92.537,27.000 92.423,27.000 92.552 M41.333 93.250 C 41.644 93.571,41.936 93.833,41.982 93.833 C 42.028 93.833,41.811 93.571,41.500 93.250 C 41.189 92.929,40.897 92.667,40.851 92.667 C 40.805 92.667,41.022 92.929,41.333 93.250 M356.248 96.875 L 353.583 99.583 356.292 96.919 C 358.808 94.443,359.075 94.167,358.956 94.167 C 358.932 94.167,357.714 95.385,356.248 96.875 M45.583 97.667 C 46.128 98.217,46.610 98.667,46.656 98.667 C 46.702 98.667,46.294 98.217,45.750 97.667 C 45.206 97.117,44.723 96.667,44.677 96.667 C 44.631 96.667,45.039 97.117,45.583 97.667 M49.167 101.083 C 49.665 101.587,50.109 102.000,50.155 102.000 C 50.201 102.000,49.831 101.587,49.333 101.083 C 48.835 100.579,48.391 100.167,48.345 100.167 C 48.299 100.167,48.669 100.579,49.167 101.083 M351.167 101.750 C 350.762 102.162,350.468 102.500,350.514 102.500 C 350.560 102.500,350.928 102.162,351.333 101.750 C 351.738 101.337,352.032 101.000,351.986 101.000 C 351.940 101.000,351.572 101.337,351.167 101.750 M30.000 103.917 C 30.311 104.237,30.603 104.500,30.649 104.500 C 30.695 104.500,30.478 104.237,30.167 103.917 C 29.856 103.596,29.564 103.333,29.518 103.333 C 29.472 103.333,29.689 103.596,30.000 103.917 M52.500 104.052 C 52.500 104.081,52.744 104.325,53.042 104.594 L 53.583 105.083 53.094 104.542 C 52.638 104.037,52.500 103.923,52.500 104.052 M358.242 105.042 L 357.583 105.750 358.292 105.091 C 358.950 104.478,359.077 104.333,358.950 104.333 C 358.923 104.333,358.605 104.652,358.242 105.042 M369.240 105.542 L 368.750 106.083 369.292 105.594 C 369.590 105.325,369.833 105.081,369.833 105.052 C 369.833 104.923,369.696 105.037,369.240 105.542 M208.042 122.282 C 208.202 122.323,208.465 122.323,208.625 122.282 C 208.785 122.240,208.654 122.205,208.333 122.205 C 208.012 122.205,207.881 122.240,208.042 122.282 M230.705 127.833 C 230.705 128.154,230.740 128.285,230.782 128.125 C 230.823 127.965,230.823 127.702,230.782 127.542 C 230.740 127.381,230.705 127.513,230.705 127.833 M222.294 131.285 C 222.501 131.324,222.801 131.323,222.960 131.281 C 223.120 131.239,222.950 131.207,222.583 131.209 C 222.217 131.211,222.086 131.245,222.294 131.285 M357.824 146.792 L 357.250 147.417 357.875 146.842 C 358.219 146.526,358.500 146.245,358.500 146.217 C 358.500 146.090,358.359 146.210,357.824 146.792 M43.917 147.500 C 44.368 147.958,44.775 148.333,44.821 148.333 C 44.867 148.333,44.535 147.958,44.083 147.500 C 43.632 147.042,43.225 146.667,43.179 146.667 C 43.133 146.667,43.465 147.042,43.917 147.500 M354.246 150.542 L 353.083 151.750 354.292 150.588 C 355.414 149.508,355.576 149.333,355.454 149.333 C 355.428 149.333,354.885 149.877,354.246 150.542 M46.583 150.333 C 46.941 150.700,47.272 151.000,47.318 151.000 C 47.363 151.000,47.108 150.700,46.750 150.333 C 46.392 149.967,46.062 149.667,46.016 149.667 C 45.970 149.667,46.225 149.967,46.583 150.333 M365.709 151.583 C 365.711 151.950,365.745 152.080,365.785 151.873 C 365.824 151.666,365.823 151.366,365.781 151.206 C 365.739 151.047,365.707 151.217,365.709 151.583 M50.667 154.219 C 50.667 154.248,50.910 154.491,51.208 154.760 L 51.750 155.250 51.260 154.708 C 50.804 154.203,50.667 154.090,50.667 154.219 M53.167 156.583 C 53.478 156.904,53.770 157.167,53.815 157.167 C 53.861 157.167,53.644 156.904,53.333 156.583 C 53.022 156.262,52.730 156.000,52.685 156.000 C 52.639 156.000,52.856 156.262,53.167 156.583 M347.406 157.042 L 346.917 157.583 347.458 157.094 C 347.963 156.638,348.077 156.500,347.948 156.500 C 347.919 156.500,347.675 156.744,347.406 157.042 M357.742 161.375 L 357.083 162.083 357.792 161.425 C 358.450 160.812,358.577 160.667,358.450 160.667 C 358.423 160.667,358.105 160.985,357.742 161.375 M136.167 170.417 C 137.218 171.471,138.115 172.333,138.161 172.333 C 138.207 172.333,137.385 171.471,136.333 170.417 C 135.282 169.362,134.385 168.500,134.339 168.500 C 134.293 168.500,135.115 169.362,136.167 170.417 M265.328 169.958 L 264.417 170.917 265.375 170.006 C 266.265 169.159,266.410 169.000,266.286 169.000 C 266.260 169.000,265.829 169.431,265.328 169.958 M261.824 173.625 L 261.250 174.250 261.875 173.676 C 262.457 173.141,262.577 173.000,262.449 173.000 C 262.422 173.000,262.140 173.281,261.824 173.625 M144.333 183.552 C 144.333 183.581,144.577 183.825,144.875 184.094 L 145.417 184.583 144.927 184.042 C 144.471 183.537,144.333 183.423,144.333 183.552 M146.000 185.052 C 146.000 185.081,146.244 185.325,146.542 185.594 L 147.083 186.083 146.594 185.542 C 146.138 185.037,146.000 184.923,146.000 185.052 M254.242 185.875 L 253.583 186.583 254.292 185.925 C 254.950 185.312,255.077 185.167,254.950 185.167 C 254.923 185.167,254.605 185.485,254.242 185.875 M150.083 189.000 C 151.364 190.283,152.450 191.333,152.496 191.333 C 152.541 191.333,151.531 190.283,150.250 189.000 C 148.969 187.717,147.884 186.667,147.838 186.667 C 147.792 186.667,148.802 187.717,150.083 189.000 M252.406 187.542 L 251.917 188.083 252.458 187.594 C 252.963 187.138,253.077 187.000,252.948 187.000 C 252.919 187.000,252.675 187.244,252.406 187.542 M250.579 189.375 L 249.417 190.583 250.625 189.421 C 251.747 188.342,251.909 188.167,251.787 188.167 C 251.762 188.167,251.218 188.710,250.579 189.375 M345.991 194.958 L 345.417 195.583 346.042 195.009 C 346.385 194.693,346.667 194.412,346.667 194.384 C 346.667 194.257,346.526 194.377,345.991 194.958 M55.833 195.750 C 56.331 196.254,56.776 196.667,56.822 196.667 C 56.868 196.667,56.498 196.254,56.000 195.750 C 55.502 195.246,55.057 194.833,55.011 194.833 C 54.966 194.833,55.335 195.246,55.833 195.750 M342.573 198.542 L 342.083 199.083 342.625 198.594 C 343.130 198.138,343.243 198.000,343.115 198.000 C 343.086 198.000,342.842 198.244,342.573 198.542 M60.250 200.167 C 60.794 200.717,61.277 201.167,61.323 201.167 C 61.369 201.167,60.961 200.717,60.417 200.167 C 59.872 199.617,59.390 199.167,59.344 199.167 C 59.298 199.167,59.706 199.617,60.250 200.167 M340.000 200.917 C 339.595 201.329,339.301 201.667,339.347 201.667 C 339.393 201.667,339.762 201.329,340.167 200.917 C 340.572 200.504,340.865 200.167,340.819 200.167 C 340.774 200.167,340.405 200.504,340.000 200.917 M62.333 202.052 C 62.333 202.081,62.577 202.325,62.875 202.594 L 63.417 203.083 62.927 202.542 C 62.471 202.037,62.333 201.923,62.333 202.052 M343.167 206.750 C 342.762 207.162,342.468 207.500,342.514 207.500 C 342.560 207.500,342.928 207.162,343.333 206.750 C 343.738 206.338,344.032 206.000,343.986 206.000 C 343.940 206.000,343.572 206.338,343.167 206.750 M278.906 213.708 L 278.417 214.250 278.958 213.760 C 279.463 213.304,279.577 213.167,279.448 213.167 C 279.419 213.167,279.175 213.410,278.906 213.708 M275.324 217.125 L 274.750 217.750 275.375 217.176 C 275.719 216.860,276.000 216.578,276.000 216.551 C 276.000 216.423,275.859 216.543,275.324 217.125 M269.333 223.083 C 268.928 223.496,268.635 223.833,268.681 223.833 C 268.726 223.833,269.095 223.496,269.500 223.083 C 269.905 222.671,270.199 222.333,270.153 222.333 C 270.107 222.333,269.738 222.671,269.333 223.083 M131.667 223.052 C 131.667 223.081,131.910 223.325,132.208 223.594 L 132.750 224.083 132.260 223.542 C 131.804 223.037,131.667 222.923,131.667 223.052 M133.333 224.750 C 133.644 225.071,133.936 225.333,133.982 225.333 C 134.028 225.333,133.811 225.071,133.500 224.750 C 133.189 224.429,132.897 224.167,132.851 224.167 C 132.805 224.167,133.022 224.429,133.333 224.750 M265.991 226.625 L 265.417 227.250 266.042 226.676 C 266.623 226.141,266.743 226.000,266.616 226.000 C 266.588 226.000,266.307 226.281,265.991 226.625 M136.833 228.552 C 136.833 228.581,137.077 228.825,137.375 229.094 L 137.917 229.583 137.427 229.042 C 136.971 228.537,136.833 228.423,136.833 228.552 M209.667 236.885 C 209.667 236.914,209.910 237.158,210.208 237.427 L 210.750 237.917 210.260 237.375 C 209.804 236.870,209.667 236.757,209.667 236.885 M256.858 237.375 C 256.744 237.490,256.566 237.583,256.464 237.583 C 256.362 237.583,256.258 237.679,256.235 237.796 C 256.211 237.913,256.230 237.931,256.277 237.836 C 256.324 237.742,256.420 237.701,256.492 237.745 C 256.564 237.789,256.756 237.677,256.920 237.496 C 257.246 237.137,257.195 237.038,256.858 237.375 M284.554 241.837 C 284.080 242.293,283.745 242.667,283.810 242.667 C 283.876 242.667,284.299 242.292,284.750 241.833 C 285.810 240.757,285.674 240.760,284.554 241.837 M116.821 242.208 C 117.249 242.695,117.500 242.792,117.500 242.472 C 117.500 242.365,117.449 242.328,117.387 242.390 C 117.325 242.452,117.082 242.334,116.846 242.127 L 116.417 241.750 116.821 242.208 M175.077 250.708 L 174.250 251.583 175.125 250.756 C 175.606 250.301,176.000 249.908,176.000 249.881 C 176.000 249.757,175.846 249.895,175.077 250.708 " stroke="none" fill="#322955" fill-rule="evenodd"></path></g></svg>