<svg id="svg" xmlns="http://www.w3.org/2000/svg" xmlns:xlink="http://www.w3.org/1999/xlink" width="400" height="478" viewBox="0, 0, 400,478"><g id="svgg"><path id="path0" d="M138.665 97.250 C 133.826 103.804,123.804 117.384,116.395 127.428 L 102.924 145.690 103.865 150.516 C 104.382 153.171,104.903 155.303,105.022 155.255 C 105.141 155.206,106.640 153.292,108.353 151.000 C 125.063 128.645,154.360 113.667,181.373 113.667 L 185.251 113.667 188.826 109.833 L 192.401 106.000 173.741 106.000 L 155.080 106.000 146.123 113.220 C 141.197 117.190,134.109 122.913,130.372 125.936 C 126.635 128.960,123.635 131.268,123.706 131.065 C 123.776 130.863,129.976 123.490,137.484 114.682 L 151.135 98.667 174.067 98.667 L 197.000 98.667 197.000 92.000 L 197.000 85.333 172.231 85.333 L 147.463 85.333 138.665 97.250 M172.000 122.368 C 139.766 125.992,107.257 153.410,99.991 183.101 C 99.099 186.744,98.014 195.125,98.386 195.497 C 98.857 195.969,121.836 197.388,122.481 196.985 C 122.851 196.754,135.682 187.259,150.994 175.886 C 187.707 148.616,186.375 149.597,186.501 149.723 C 186.593 149.817,170.243 165.883,129.814 205.426 L 121.711 213.352 120.144 210.926 C 112.946 199.779,103.042 199.252,96.908 209.691 C 91.704 218.547,92.229 234.169,98.021 242.797 C 98.903 244.111,99.494 245.314,99.349 245.500 C 99.205 245.683,97.489 248.006,95.536 250.661 L 91.985 255.489 92.170 257.328 C 93.263 268.144,93.966 298.555,93.365 309.000 C 91.941 333.732,87.722 342.512,77.272 342.494 C 75.313 342.491,73.746 342.524,73.791 342.569 C 73.922 342.700,99.967 355.316,102.303 356.380 L 104.439 357.353 104.213 343.593 C 103.341 290.420,103.993 281.065,108.494 282.195 C 113.304 283.402,115.283 296.682,117.334 341.500 C 117.695 349.383,118.151 358.233,118.348 361.167 L 118.705 366.500 121.797 369.500 C 137.273 384.520,161.811 395.331,187.667 398.523 L 189.500 398.749 186.500 396.427 C 170.011 383.663,159.629 367.317,156.589 349.333 C 154.889 339.273,157.509 308.975,161.993 286.865 C 162.547 284.132,163.000 281.791,163.000 281.663 C 163.000 281.535,160.787 281.345,158.083 281.240 C 135.749 280.377,123.209 267.735,126.932 249.834 C 127.359 247.780,127.667 247.794,124.333 249.720 C 119.430 252.554,113.327 253.691,110.167 252.361 L 109.167 251.939 110.977 251.257 C 119.401 248.083,124.803 240.613,125.746 230.833 C 125.815 230.111,126.443 231.609,128.004 236.218 L 130.167 242.604 186.333 220.135 C 217.225 207.778,242.656 197.667,242.847 197.667 C 243.039 197.667,253.089 206.277,265.181 216.801 C 277.273 227.324,287.199 235.905,287.238 235.868 C 287.278 235.831,287.093 232.133,286.827 227.651 C 286.561 223.168,286.342 219.418,286.339 219.317 C 286.336 219.216,285.812 219.195,285.176 219.269 C 282.805 219.546,278.775 218.133,273.567 215.200 C 270.343 213.384,270.359 213.406,271.509 212.569 C 272.308 211.987,272.409 211.995,275.082 212.850 C 278.198 213.846,282.589 214.075,284.767 213.356 L 286.034 212.937 285.850 210.719 C 285.748 209.498,285.502 205.667,285.302 202.204 L 284.939 195.909 260.592 162.038 C 247.201 143.409,236.220 128.135,236.190 128.095 C 236.160 128.056,233.681 128.947,230.681 130.076 L 225.228 132.128 221.197 130.692 C 202.777 124.129,184.236 120.992,172.000 122.368 M142.275 139.887 C 119.136 158.026,112.853 169.443,124.137 172.852 C 126.588 173.592,131.943 173.821,136.000 173.358 C 139.040 173.011,140.608 172.732,144.667 171.812 C 146.084 171.490,145.139 172.153,131.565 180.997 L 118.631 189.424 111.399 189.129 L 104.167 188.833 104.233 186.833 C 104.666 173.832,114.828 157.691,129.435 146.807 C 134.480 143.048,144.937 136.691,146.108 136.671 C 146.260 136.669,144.535 138.116,142.275 139.887 M226.635 149.917 C 223.600 155.834,224.130 167.848,227.740 174.986 C 231.111 181.651,238.096 185.064,244.873 183.358 C 246.923 182.842,246.950 182.961,245.249 185.047 C 234.667 198.029,212.801 176.465,218.708 158.872 C 220.045 154.890,225.633 148.000,227.526 148.000 C 227.577 148.000,227.176 148.862,226.635 149.917 M203.426 166.889 C 203.552 167.548,203.267 168.259,202.326 169.639 C 199.240 174.160,198.648 176.506,199.663 180.189 C 200.697 183.942,205.514 184.162,212.927 180.797 C 215.072 179.823,216.350 179.631,216.325 180.286 C 216.314 180.591,211.930 183.639,209.107 185.304 C 204.335 188.117,201.379 188.739,196.639 187.926 C 194.323 187.529,194.225 187.541,192.566 188.426 C 190.949 189.288,189.188 189.178,190.724 188.311 C 192.217 187.468,192.823 185.661,192.841 182.000 C 192.863 177.219,193.952 175.098,199.127 169.750 C 203.095 165.649,203.178 165.595,203.426 166.889 M262.988 176.336 C 265.020 180.335,265.355 181.878,265.302 187.001 C 265.266 190.499,265.378 191.794,265.802 192.810 C 266.538 194.571,266.038 195.039,264.661 193.880 C 263.827 193.178,263.267 193.000,261.891 192.998 C 258.854 192.995,257.730 192.474,255.163 189.881 C 250.635 185.305,248.495 180.534,252.795 184.601 C 255.970 187.603,260.457 188.456,260.526 186.070 C 260.541 185.573,260.720 184.229,260.924 183.083 C 261.374 180.566,261.000 177.779,259.814 174.816 C 259.017 172.823,258.770 171.008,259.233 170.545 C 259.519 170.259,261.281 172.977,262.988 176.336 M188.667 177.837 C 188.667 178.114,187.551 179.636,186.187 181.220 C 182.446 185.563,181.577 187.408,181.351 191.492 L 181.167 194.817 183.645 196.075 C 187.528 198.047,191.044 197.815,197.718 195.146 C 202.826 193.103,203.774 194.223,199.241 196.945 C 190.528 202.177,185.128 203.581,179.645 202.041 C 176.806 201.244,175.099 201.151,173.840 201.724 C 172.370 202.394,172.164 201.651,173.307 199.800 C 174.059 198.583,174.446 197.346,174.829 194.947 C 175.896 188.246,178.392 184.618,185.665 179.196 C 188.340 177.201,188.667 177.054,188.667 177.837 M270.315 185.167 C 274.666 190.160,276.452 194.022,277.385 200.460 C 277.727 202.822,278.287 205.386,278.629 206.159 C 279.423 207.954,279.055 208.977,277.906 208.172 C 277.054 207.575,275.519 207.526,273.510 208.032 C 270.616 208.761,266.976 206.911,262.083 202.224 C 259.789 200.026,259.702 199.850,260.656 199.339 C 261.195 199.050,261.589 199.200,262.873 200.180 C 266.362 202.843,268.192 203.331,271.020 202.353 C 272.132 201.968,273.208 201.756,273.411 201.881 C 273.657 202.034,273.701 201.903,273.542 201.489 C 273.411 201.148,273.157 199.286,272.977 197.351 C 272.492 192.116,271.673 189.662,269.123 185.799 C 266.981 182.553,267.703 182.170,270.315 185.167 M165.333 191.468 C 165.333 191.726,164.798 192.578,164.143 193.362 C 162.518 195.307,161.829 196.754,161.021 199.919 C 160.642 201.402,160.242 202.849,160.132 203.136 C 159.996 203.491,160.206 203.761,160.789 203.983 C 161.261 204.162,162.474 204.983,163.485 205.807 C 166.678 208.407,171.939 209.031,180.331 207.804 L 183.949 207.275 185.474 208.169 C 187.705 209.477,187.675 209.523,183.758 210.787 C 171.376 214.784,166.143 214.963,158.973 211.637 C 155.252 209.910,153.257 209.591,150.730 210.315 C 149.423 210.690,148.731 209.819,149.835 209.188 C 152.317 207.771,154.065 205.414,155.167 202.000 C 156.547 197.726,158.738 194.870,162.662 192.230 C 164.611 190.919,165.333 190.713,165.333 191.468 M301.333 219.981 L 301.333 244.354 302.583 245.414 C 358.057 292.478,343.292 382.485,275.748 409.005 C 272.563 410.256,272.298 410.595,268.502 418.270 C 262.290 430.828,260.083 443.480,262.597 452.114 C 263.511 455.252,263.226 455.164,268.695 454.011 C 325.239 442.087,368.267 396.322,376.671 339.167 C 385.109 281.782,356.292 224.723,305.206 197.659 L 301.333 195.608 301.333 219.981 M140.500 204.333 C 140.613 204.516,140.472 204.999,140.186 205.407 C 139.828 205.918,139.666 206.927,139.665 208.658 C 139.664 210.571,139.507 211.424,139.004 212.250 C 138.518 213.047,138.461 213.333,138.789 213.333 C 139.034 213.333,140.249 214.000,141.489 214.814 C 144.183 216.584,145.894 217.000,150.470 217.000 C 153.876 217.000,153.924 217.011,155.787 218.238 C 158.017 219.706,158.039 219.783,156.390 220.277 C 146.792 223.153,141.043 223.067,135.016 219.958 C 132.702 218.765,131.490 218.333,130.452 218.333 C 129.060 218.333,128.089 217.689,129.024 217.385 C 130.265 216.982,131.918 214.798,132.287 213.072 C 133.013 209.684,134.604 207.515,138.086 205.171 C 139.966 203.905,140.188 203.828,140.500 204.333 M117.697 215.711 C 124.081 225.112,123.345 236.399,115.864 243.856 C 109.128 250.569,102.348 248.172,98.355 237.667 L 97.658 235.833 98.412 236.833 C 103.054 242.991,107.060 243.215,112.149 237.602 C 117.622 231.568,119.126 221.834,115.818 213.862 C 115.332 212.691,116.279 213.623,117.697 215.711 M193.925 228.265 C 171.609 235.890,153.401 242.179,153.463 242.241 C 153.526 242.304,154.985 242.039,156.705 241.654 C 200.311 231.882,226.330 233.835,233.492 247.417 C 234.337 249.019,234.342 249.018,235.831 246.750 C 239.675 240.897,246.932 235.657,252.022 235.058 C 259.013 234.236,268.791 236.755,275.879 241.204 L 278.744 243.003 278.505 241.085 C 278.373 240.030,278.093 239.054,277.883 238.917 C 275.991 237.681,235.034 214.342,234.804 214.368 C 234.637 214.387,216.241 220.641,193.925 228.265 M305.541 220.177 C 317.683 225.008,323.194 229.658,321.015 233.232 C 318.662 237.091,309.480 230.391,302.918 220.027 C 302.119 218.765,301.971 218.756,305.541 220.177 M332.236 234.134 C 335.127 238.427,335.723 240.812,335.202 246.000 C 334.987 248.149,335.043 248.675,335.605 249.746 C 336.262 251.001,336.191 251.018,334.667 249.970 C 334.074 249.563,332.879 249.347,330.528 249.222 C 325.576 248.959,319.958 245.622,316.653 240.980 L 315.955 240.001 316.859 239.657 C 317.551 239.394,318.372 239.472,320.372 239.990 C 326.790 241.654,328.168 240.543,327.771 234.026 C 327.629 231.708,327.694 230.571,328.001 229.998 L 328.428 229.199 329.558 230.516 C 330.179 231.241,331.384 232.869,332.236 234.134 M344.740 249.924 C 347.081 254.893,347.368 257.849,345.939 262.283 C 345.296 264.278,345.270 265.480,345.832 267.167 C 346.026 267.748,345.997 267.768,345.611 267.326 C 344.537 266.098,343.197 265.377,341.577 265.158 C 337.175 264.560,333.572 261.970,330.041 256.861 C 327.262 252.842,327.913 252.247,332.759 254.374 C 338.299 256.805,339.759 255.945,340.511 249.806 C 341.246 243.797,341.861 243.815,344.740 249.924 M353.531 264.189 C 356.045 270.206,356.281 275.866,354.189 279.980 C 353.071 282.179,352.945 282.668,353.081 284.302 C 353.229 286.090,353.218 286.120,352.700 285.323 C 351.734 283.834,350.773 283.178,348.121 282.198 C 344.368 280.811,342.101 278.479,339.556 273.389 C 336.924 268.128,337.373 267.383,341.517 270.134 C 347.480 274.093,349.156 273.470,350.828 266.671 C 351.732 262.995,352.672 262.133,353.531 264.189 M361.265 285.026 C 362.381 291.422,361.573 296.062,358.655 300.021 C 357.569 301.494,357.275 302.191,357.228 303.407 C 357.177 304.715,356.667 305.429,356.667 304.192 C 356.667 303.344,355.258 301.986,353.031 300.685 C 349.103 298.391,347.281 295.690,345.516 289.546 C 344.502 286.020,344.481 285.667,345.283 285.667 C 345.948 285.667,348.186 287.172,349.000 288.167 C 352.203 292.082,355.187 291.502,357.501 286.517 C 359.819 281.523,360.600 281.213,361.265 285.026 M360.261 312.518 C 367.426 315.511,365.264 326.333,357.500 326.333 C 349.862 326.333,347.565 315.843,354.500 312.632 C 356.135 311.875,358.605 311.826,360.261 312.518 M358.015 335.043 C 358.244 335.478,358.858 336.325,359.380 336.926 C 362.062 340.014,362.797 343.837,361.962 350.353 C 361.357 355.068,360.587 355.028,358.322 350.167 C 355.676 344.487,353.895 344.196,349.161 348.675 C 345.547 352.094,344.751 351.792,345.868 347.423 C 347.463 341.184,349.455 338.017,353.140 335.862 C 355.511 334.475,356.539 333.429,356.909 332.029 C 357.108 331.275,357.166 331.361,357.368 332.709 C 357.496 333.558,357.787 334.608,358.015 335.043 M353.722 352.119 C 353.627 353.636,353.792 354.266,354.821 356.308 C 356.977 360.591,357.045 363.935,355.101 370.167 C 353.786 374.381,352.916 374.227,351.660 369.559 C 350.003 363.403,348.261 362.580,343.488 365.696 C 338.590 368.893,337.893 368.754,339.539 364.909 C 341.806 359.612,344.628 356.010,347.436 354.830 C 351.302 353.204,352.327 352.589,353.010 351.484 C 353.900 350.044,353.854 350.003,353.722 352.119 M260.922 361.083 C 259.535 364.795,258.451 367.886,258.512 367.950 C 258.684 368.132,266.057 369.373,266.315 369.263 C 266.549 369.165,263.921 354.810,263.613 354.502 C 263.519 354.408,262.308 357.370,260.922 361.083 M346.325 370.522 C 345.819 371.852,345.939 373.682,346.667 375.753 C 348.014 379.587,347.327 383.789,344.433 389.417 C 342.383 393.402,341.665 392.980,341.172 387.500 C 340.631 381.473,338.904 380.605,332.884 383.334 C 328.660 385.250,327.981 384.647,330.349 381.085 C 333.914 375.723,336.967 373.293,341.145 372.494 C 344.051 371.938,344.515 371.735,345.641 370.531 C 346.648 369.454,346.731 369.453,346.325 370.522 M335.608 388.583 C 335.043 389.664,334.988 390.195,335.200 392.500 C 335.668 397.580,335.166 399.755,332.613 403.715 C 328.494 410.104,327.464 410.277,327.767 404.529 C 328.116 397.923,326.781 396.772,320.598 398.351 C 315.950 399.538,315.216 399.013,317.670 396.259 C 321.949 391.458,325.137 389.679,330.118 389.310 C 333.240 389.079,333.930 388.919,334.959 388.187 C 335.619 387.718,336.182 387.333,336.210 387.333 C 336.238 387.333,335.967 387.896,335.608 388.583 M321.885 404.417 C 321.255 405.518,321.037 406.480,320.908 408.737 C 320.658 413.114,319.577 415.159,315.156 419.624 C 310.806 424.017,310.107 423.707,311.667 418.081 C 313.309 412.156,312.255 410.890,305.827 411.064 C 300.434 411.210,300.136 410.833,303.596 408.240 C 308.497 404.567,312.585 403.085,316.167 403.682 C 318.674 404.100,320.736 404.032,321.667 403.500 C 322.125 403.238,322.544 403.018,322.597 403.012 C 322.651 403.005,322.330 403.637,321.885 404.417 M299.524 416.874 C 301.972 417.719,303.506 417.800,305.078 417.166 C 305.395 417.038,305.078 417.511,304.373 418.217 C 303.316 419.274,302.992 419.933,302.531 421.960 C 301.396 426.958,298.956 429.787,292.542 433.547 C 289.554 435.298,289.320 434.378,291.562 429.695 C 294.171 424.244,293.092 422.509,286.667 421.821 C 281.906 421.311,281.669 420.431,285.767 418.489 C 291.515 415.766,295.099 415.345,299.524 416.874 M285.848 426.152 C 290.269 430.572,280.558 434.617,265.417 434.663 C 263.794 434.668,264.049 434.352,267.418 432.181 C 276.783 426.148,283.611 423.914,285.848 426.152 " stroke="none" fill="#bc940c" fill-rule="evenodd"></path><path id="path1" d="M127.500 1.028 C 83.532 17.351,62.253 73.991,67.839 159.833 C 68.210 165.526,69.915 181.996,70.161 182.264 C 70.211 182.318,72.220 181.623,74.626 180.719 C 77.032 179.816,78.998 179.172,78.996 179.288 C 78.993 179.405,78.695 180.925,78.334 182.667 C 77.461 186.871,77.155 193.049,77.630 196.894 C 77.989 199.797,77.966 200.085,77.180 202.491 C 73.167 214.786,73.779 229.479,78.787 241.047 L 79.312 242.261 76.294 246.483 L 73.276 250.704 73.298 252.769 C 73.310 253.904,73.622 263.158,73.992 273.333 C 74.362 283.508,74.665 292.994,74.665 294.413 L 74.667 296.994 73.083 298.157 C 68.838 301.278,63.272 303.218,52.041 305.493 C 32.747 309.401,27.078 312.990,23.995 323.250 C 22.743 327.415,15.793 332.106,5.769 335.550 L 3.037 336.488 2.208 338.997 C -3.704 356.885,1.752 372.892,18.307 386.225 C 31.702 397.013,50.828 406.260,86.333 419.113 C 92.658 421.403,101.433 424.578,105.833 426.169 C 140.862 438.836,156.229 446.571,166.253 456.581 C 170.938 461.260,175.638 463.721,188.341 468.147 C 271.210 497.021,362.061 452.545,389.848 369.500 C 416.838 288.832,374.950 200.625,295.833 171.528 C 294.000 170.854,292.106 170.148,291.623 169.960 C 290.968 169.705,246.558 109.841,242.628 103.915 C 242.515 103.744,238.465 105.430,233.628 107.659 L 224.833 111.714 219.833 110.364 C 217.083 109.622,214.196 108.918,213.417 108.798 C 211.642 108.527,211.646 108.490,213.667 106.500 L 215.333 104.858 215.333 87.596 L 215.333 70.333 213.199 70.333 L 211.065 70.333 211.517 68.833 C 212.202 66.557,212.604 62.873,213.008 55.167 C 214.363 29.339,223.682 16.148,251.209 1.096 L 253.167 0.026 191.667 0.032 L 130.167 0.038 127.500 1.028 M231.652 6.583 C 231.643 6.721,230.192 7.883,228.426 9.167 C 213.120 20.288,207.567 31.072,206.671 51.414 C 206.121 63.878,205.379 68.140,202.802 73.628 C 201.994 75.348,201.333 76.811,201.333 76.878 C 201.333 76.945,203.058 77.000,205.167 77.000 L 209.000 77.000 209.000 89.394 L 209.000 101.788 203.608 107.215 C 200.206 110.640,198.392 112.693,198.692 112.780 C 198.953 112.855,201.342 113.251,204.000 113.660 C 209.127 114.449,217.164 116.335,222.219 117.937 L 225.272 118.904 232.719 115.429 L 240.167 111.954 241.000 113.021 C 241.458 113.608,251.883 127.811,264.167 144.585 L 286.500 175.081 291.667 176.979 C 376.279 208.055,415.359 303.783,376.522 384.833 C 342.384 456.075,258.642 488.808,184.833 459.759 C 175.974 456.273,174.394 455.405,172.372 452.912 C 163.860 442.421,147.454 434.228,103.167 418.351 C 69.499 406.282,57.166 401.369,44.487 394.977 C 14.800 380.012,2.989 364.217,7.363 345.333 C 8.201 341.720,8.053 341.904,11.081 340.701 C 22.090 336.327,29.958 330.145,30.000 325.833 C 30.012 324.608,31.615 321.693,33.221 319.977 C 36.751 316.203,41.514 314.353,55.000 311.517 C 69.560 308.455,74.469 306.545,78.738 302.282 C 81.672 299.352,81.525 301.259,80.706 276.712 C 80.310 264.862,79.990 254.622,79.993 253.957 C 79.999 252.963,80.618 251.876,83.474 247.847 L 86.947 242.947 85.315 239.557 C 80.108 228.738,79.660 215.205,84.102 202.902 C 84.806 200.953,84.823 200.699,84.400 198.500 C 83.117 191.823,84.877 180.515,88.668 171.083 C 89.350 169.387,89.816 168.005,89.704 168.012 C 89.592 168.019,86.425 169.198,82.667 170.632 L 75.833 173.240 75.611 172.370 C 74.731 168.928,73.681 149.314,73.673 136.167 C 73.633 67.067,92.787 22.331,128.641 7.786 L 132.167 6.356 181.917 6.345 C 209.279 6.338,231.660 6.446,231.652 6.583 M253.333 241.845 C 249.109 243.027,245.647 246.191,237.369 256.438 L 232.571 262.377 231.626 260.648 C 221.451 242.041,193.205 239.205,151.962 252.648 C 144.414 255.108,144.090 255.290,143.035 257.679 C 138.541 267.849,148.243 274.420,167.746 274.417 C 174.629 274.416,174.658 274.419,174.482 275.125 C 173.726 278.157,169.740 296.851,169.830 296.941 C 169.894 297.005,174.120 297.656,179.222 298.389 C 184.325 299.122,188.564 299.786,188.642 299.864 C 188.721 299.943,188.144 301.543,187.361 303.420 C 175.871 330.954,171.540 352.358,175.339 362.833 C 176.652 366.454,197.759 386.498,204.736 390.750 L 206.788 392.000 210.812 392.000 C 224.162 392.000,238.147 388.117,240.292 383.815 C 241.991 380.409,241.129 375.035,238.442 372.277 C 232.779 366.464,210.452 367.143,201.583 373.399 C 200.418 374.221,200.385 374.460,202.316 368.044 C 204.089 362.153,204.575 361.325,206.869 360.293 C 211.517 358.203,225.125 357.735,238.179 359.218 L 239.857 359.408 239.470 354.357 C 239.008 348.327,239.427 348.860,235.628 349.471 C 232.529 349.970,232.463 349.966,225.284 348.833 L 218.060 347.693 201.138 348.195 C 184.482 348.690,184.206 348.688,183.569 348.050 C 182.723 347.204,180.888 347.611,203.500 343.632 L 222.833 340.229 227.333 341.104 L 231.833 341.979 235.466 341.060 L 239.099 340.142 237.150 338.404 C 234.870 336.373,235.305 336.466,232.766 337.461 L 230.739 338.255 230.554 337.044 C 230.452 336.378,230.266 334.371,230.139 332.583 C 230.012 330.796,229.817 329.333,229.704 329.332 C 229.237 329.330,206.242 325.353,206.147 325.258 C 206.090 325.201,210.271 323.704,215.438 321.932 L 224.833 318.709 230.702 321.030 L 236.571 323.351 241.144 321.183 C 244.926 319.390,245.684 318.913,245.527 318.419 C 245.423 318.091,243.170 309.390,240.521 299.083 L 235.705 280.343 237.769 274.301 L 239.833 268.260 253.496 263.015 L 267.158 257.770 270.783 259.385 C 275.014 261.271,275.108 261.286,274.878 260.083 C 274.781 259.579,274.525 256.818,274.307 253.948 L 273.911 248.730 271.706 247.069 C 265.551 242.432,258.450 240.414,253.333 241.845 M209.070 262.664 C 218.990 266.697,227.186 270.075,227.283 270.172 C 227.763 270.652,221.162 282.676,220.500 282.530 C 220.133 282.449,216.683 281.975,212.833 281.478 C 208.983 280.980,205.720 280.473,205.581 280.351 C 205.443 280.229,207.128 278.717,209.326 276.992 L 213.323 273.855 211.911 273.428 C 211.135 273.193,208.829 272.536,206.786 271.969 L 203.072 270.937 201.716 272.408 C 196.637 277.918,187.339 276.160,185.284 269.302 C 185.070 268.586,184.796 268.000,184.676 268.000 C 184.556 268.000,176.367 266.875,166.479 265.501 C 156.591 264.126,148.138 263.001,147.694 263.001 C 147.251 263.000,146.977 262.911,147.086 262.803 C 147.223 262.666,186.734 255.943,190.767 255.371 C 190.913 255.350,199.150 258.632,209.070 262.664 M266.566 273.001 C 263.145 273.689,263.567 273.394,262.846 275.600 C 260.846 281.720,255.312 283.448,251.051 279.282 C 250.298 278.546,249.959 278.387,249.836 278.714 C 249.743 278.963,248.928 281.835,248.026 285.096 L 246.386 291.026 249.480 301.096 C 251.864 308.851,253.079 312.222,254.767 315.755 C 255.972 318.278,257.049 320.628,257.159 320.976 C 257.319 321.479,256.535 322.304,253.366 324.973 C 251.168 326.823,249.277 328.487,249.163 328.672 C 249.049 328.857,250.414 330.619,252.196 332.588 C 255.175 335.877,256.022 337.191,257.404 340.667 C 257.835 341.752,257.399 343.012,262.852 324.946 L 267.413 309.833 271.373 303.344 C 276.434 295.050,276.435 295.824,271.352 284.441 L 268.945 279.049 269.822 276.108 C 270.305 274.490,270.763 272.979,270.840 272.750 C 271.019 272.215,270.251 272.260,266.566 273.001 M201.227 409.051 L 197.065 412.789 198.782 413.988 C 205.102 418.398,218.124 427.156,218.286 427.105 C 218.475 427.045,224.004 408.237,223.873 408.099 C 223.838 408.062,220.140 407.502,215.655 406.854 C 211.170 406.207,207.025 405.595,206.445 405.495 C 205.475 405.328,205.051 405.618,201.227 409.051 " stroke="none" fill="#fafafa" fill-rule="evenodd"></path><path id="path2" d="M140.867 22.417 C 140.681 25.066,139.355 63.239,139.295 67.667 C 139.246 71.269,138.873 69.257,135.168 45.370 C 133.252 33.015,131.600 22.823,131.498 22.720 C 131.189 22.411,127.034 24.594,123.600 26.871 C 99.394 42.917,85.676 84.262,85.668 141.194 C 85.667 147.443,85.760 152.649,85.874 152.763 C 85.988 152.876,98.100 135.503,112.790 114.155 L 139.500 75.341 164.376 75.337 L 189.251 75.333 189.939 73.735 C 191.907 69.161,192.784 63.734,193.506 51.667 C 194.618 33.089,197.109 26.180,204.668 20.704 L 206.100 19.667 173.580 19.667 L 141.060 19.667 140.867 22.417 M80.746 314.404 C 78.954 316.564,70.494 319.405,58.608 321.840 C 43.028 325.032,40.080 326.517,39.730 331.350 C 39.201 338.659,46.774 346.616,67.437 360.464 C 73.847 364.759,100.759 381.979,102.618 382.974 C 103.043 383.201,103.331 383.447,103.258 383.520 C 103.185 383.593,95.260 380.043,85.646 375.631 C 63.639 365.533,50.695 359.607,43.667 356.412 C 40.642 355.036,38.108 353.860,38.036 353.797 C 37.964 353.734,38.639 352.841,39.536 351.812 C 40.433 350.782,41.295 349.762,41.452 349.544 C 42.064 348.693,37.386 340.614,36.687 341.313 C 36.353 341.647,34.824 342.396,33.289 342.976 C 24.634 346.251,21.769 348.260,20.518 351.932 C 18.251 358.584,22.476 367.139,31.500 374.171 C 43.655 383.642,58.762 390.266,104.333 406.108 C 157.085 424.445,175.685 433.448,185.736 445.508 L 187.833 448.024 187.934 446.170 C 188.616 433.547,172.548 420.225,131.243 399.167 C 126.928 396.967,123.445 395.117,123.503 395.057 C 123.953 394.590,134.161 398.068,141.667 401.245 C 149.282 404.470,166.420 413.432,172.151 417.187 C 173.260 417.913,173.225 417.586,171.847 414.318 C 170.139 410.269,166.217 403.923,164.924 403.118 C 164.691 402.972,162.925 402.300,161.000 401.625 C 141.791 394.882,124.958 385.018,110.082 371.787 C 106.322 368.443,109.920 370.530,72.667 350.081 C 64.508 345.603,56.429 341.167,54.713 340.224 C 51.349 338.375,51.328 338.111,54.540 338.033 C 65.929 337.758,77.486 331.368,80.326 323.776 C 81.693 320.122,82.018 312.872,80.746 314.404 M282.605 318.417 C 277.336 327.981,273.603 338.141,273.581 342.973 C 273.577 343.813,274.741 352.417,276.166 362.093 C 277.592 371.769,278.685 379.759,278.596 379.848 C 278.507 379.938,275.224 379.618,271.300 379.138 L 264.167 378.265 261.690 380.883 C 249.138 394.150,240.435 411.648,237.836 428.847 C 237.335 432.162,236.755 441.982,237.078 441.667 C 237.173 441.575,237.809 440.075,238.492 438.333 C 245.284 421.023,256.219 408.780,281.678 389.988 C 311.735 367.800,319.749 356.982,320.889 337.055 L 321.094 333.463 319.446 332.406 C 316.651 330.612,305.313 325.377,298.355 322.667 L 296.543 321.961 301.529 326.897 C 308.721 334.017,310.877 337.273,309.686 339.212 C 307.822 342.246,294.235 351.994,281.853 359.182 L 280.207 360.138 281.250 358.621 C 281.824 357.787,284.949 353.819,288.195 349.802 C 300.470 334.614,300.745 333.399,293.405 326.776 C 288.480 322.331,285.000 317.632,285.000 315.426 C 285.000 314.424,284.373 315.207,282.605 318.417 " stroke="none" fill="#ca1423" fill-rule="evenodd"></path><path id="path3" d="M129.500 7.628 C 97.887 20.338,79.645 54.295,74.857 109.346 C 73.256 127.753,73.495 149.511,75.530 170.590 C 75.724 172.605,75.854 172.985,76.299 172.841 C 76.593 172.747,79.758 171.556,83.333 170.195 C 86.908 168.835,89.886 167.775,89.950 167.839 C 90.015 167.904,89.462 169.505,88.722 171.398 C 84.942 181.067,83.240 192.435,84.627 198.752 C 85.028 200.580,85.000 200.814,84.025 203.699 C 79.867 216.001,80.552 229.846,85.836 240.339 C 87.275 243.196,87.481 242.526,83.400 248.257 L 80.090 252.903 80.870 276.015 L 81.649 299.127 80.302 300.874 C 76.317 306.039,70.530 308.524,55.167 311.667 C 36.548 315.475,32.329 318.042,29.846 327.070 C 28.637 331.466,21.653 336.624,11.185 340.853 C 8.153 342.078,8.097 342.167,7.130 347.292 C 4.246 362.591,13.450 376.742,34.434 389.271 C 47.907 397.315,64.242 404.246,99.000 416.665 C 139.383 431.094,154.200 437.664,165.218 446.029 C 168.062 448.189,174.000 454.017,174.000 454.649 C 174.000 454.804,176.276 455.934,179.058 457.159 C 261.905 493.665,357.712 450.275,384.515 364.111 C 408.621 286.616,367.442 204.334,290.783 176.819 L 286.398 175.246 263.493 143.951 C 250.894 126.739,240.443 112.568,240.268 112.459 C 240.092 112.351,236.647 113.799,232.613 115.677 L 225.277 119.092 221.388 117.884 C 214.990 115.898,206.032 113.940,199.750 113.156 C 197.463 112.870,197.228 113.263,203.333 107.167 L 208.667 101.841 208.667 89.421 L 208.667 77.000 204.829 77.000 L 200.992 77.000 202.161 74.678 C 204.936 69.168,205.835 64.623,206.341 53.560 C 207.368 31.054,212.323 20.898,227.961 9.246 L 231.423 6.667 181.628 6.678 L 131.833 6.690 129.500 7.628 M205.333 20.266 C 197.090 26.632,194.681 33.042,193.658 51.333 C 193.007 62.981,192.159 68.455,190.271 73.215 L 189.496 75.167 164.528 75.333 L 139.559 75.500 112.948 114.148 C 98.312 135.405,86.204 152.929,86.041 153.092 C 85.219 153.914,85.207 135.400,86.022 122.167 C 89.172 71.026,104.238 36.137,128.477 23.852 C 130.115 23.023,131.529 22.418,131.621 22.510 C 131.712 22.601,133.388 32.912,135.345 45.421 C 138.340 64.569,138.934 67.877,139.106 66.333 C 139.218 65.325,139.626 54.525,140.014 42.333 C 140.401 30.142,140.777 19.979,140.848 19.750 C 140.952 19.420,147.812 19.337,173.740 19.349 L 206.500 19.365 205.333 20.266 M197.257 91.917 L 197.167 98.500 174.295 98.586 L 151.424 98.671 138.183 114.196 C 130.901 122.734,124.993 129.760,125.054 129.808 C 125.116 129.857,131.819 124.520,139.949 117.948 L 154.732 106.000 173.723 106.000 L 192.714 106.000 189.157 109.790 L 185.600 113.580 181.050 113.810 C 151.132 115.319,124.881 128.957,108.025 151.748 C 106.298 154.084,104.835 155.946,104.775 155.886 C 104.715 155.826,104.208 153.512,103.650 150.745 L 102.634 145.713 124.901 115.528 L 147.167 85.342 172.257 85.338 L 197.347 85.333 197.257 91.917 M188.500 122.535 C 198.846 123.652,215.153 127.755,223.552 131.356 L 224.990 131.972 230.570 129.870 L 236.151 127.768 236.687 128.468 C 236.982 128.852,248.010 144.167,261.193 162.500 L 285.163 195.833 285.382 199.000 C 285.502 200.742,285.710 204.659,285.845 207.706 L 286.089 213.246 284.334 213.667 C 281.813 214.271,277.357 213.932,274.631 212.928 C 272.477 212.135,272.411 212.131,271.667 212.734 C 271.248 213.073,270.964 213.396,271.036 213.453 C 271.488 213.808,275.443 216.063,276.833 216.758 C 279.366 218.024,282.865 219.000,284.868 219.000 L 286.667 219.000 286.695 220.750 C 286.710 221.713,286.907 225.575,287.132 229.333 C 287.358 233.092,287.506 236.218,287.463 236.280 C 287.419 236.343,277.376 227.685,265.144 217.040 C 252.912 206.396,242.801 197.751,242.673 197.829 C 241.882 198.319,131.046 242.434,130.534 242.463 C 130.004 242.494,129.588 241.573,127.989 236.833 C 126.061 231.119,125.876 230.884,125.537 233.736 C 124.683 240.908,118.858 248.298,111.794 251.169 C 109.321 252.174,109.902 252.500,114.167 252.500 C 117.908 252.500,120.946 251.574,124.718 249.282 C 126.181 248.394,127.417 247.667,127.465 247.667 C 127.513 247.667,127.345 248.904,127.090 250.417 C 124.013 268.739,135.562 279.846,159.083 281.182 C 161.421 281.315,163.333 281.466,163.333 281.518 C 163.333 281.571,162.951 283.382,162.484 285.543 C 158.258 305.087,155.295 336.494,156.638 347.511 C 158.954 366.526,170.104 383.918,189.167 398.254 L 190.167 399.006 188.333 398.812 C 163.177 396.157,137.906 385.115,121.544 369.631 L 118.588 366.833 118.308 363.667 C 118.030 360.519,117.347 347.468,116.660 332.167 C 115.061 296.567,112.536 282.333,107.818 282.333 C 104.299 282.333,103.943 286.816,104.230 327.427 L 104.443 357.686 96.472 353.821 C 92.087 351.695,84.716 348.137,80.092 345.914 C 75.467 343.691,71.733 341.823,71.793 341.762 C 71.853 341.702,72.697 341.823,73.668 342.031 C 91.113 345.773,96.092 324.180,92.220 261.574 L 91.833 255.315 95.583 250.250 C 97.646 247.464,99.333 245.143,99.333 245.093 C 99.333 245.043,98.826 244.289,98.206 243.417 C 90.839 233.068,91.494 214.181,99.508 205.839 C 105.863 199.225,114.096 201.179,120.305 210.774 L 121.777 213.049 126.972 207.910 C 129.829 205.083,143.342 191.851,157.000 178.505 C 189.394 146.851,186.296 150.005,181.667 153.401 C 179.558 154.948,165.272 165.543,149.919 176.947 L 122.005 197.680 115.752 197.195 C 112.314 196.928,107.100 196.538,104.167 196.328 C 101.233 196.118,98.680 195.901,98.493 195.846 C 98.269 195.780,98.234 194.458,98.392 191.976 C 100.656 156.296,142.600 120.659,180.833 121.931 C 182.483 121.986,185.933 122.258,188.500 122.535 M141.833 139.063 C 119.382 151.707,104.333 171.083,104.333 187.345 L 104.333 188.667 105.750 188.683 C 106.529 188.691,109.709 188.827,112.817 188.983 L 118.467 189.268 131.547 180.725 C 138.741 176.026,144.598 172.156,144.563 172.124 C 144.528 172.092,143.225 172.345,141.667 172.687 C 131.858 174.839,122.901 174.018,119.895 170.691 C 115.274 165.577,121.870 155.935,139.795 141.601 C 142.566 139.385,144.896 137.519,144.972 137.453 C 145.365 137.115,144.557 137.530,141.833 139.063 M225.092 149.990 C 222.939 151.704,220.928 154.332,219.706 157.027 C 211.749 174.576,233.958 198.621,245.288 184.723 L 246.465 183.278 245.149 183.556 C 233.010 186.116,224.531 176.702,224.533 160.667 C 224.534 155.238,224.973 152.667,226.366 149.937 C 227.168 148.363,227.133 148.364,225.092 149.990 M199.885 169.263 C 194.318 174.870,193.274 176.866,193.010 182.405 L 192.825 186.310 191.511 187.655 C 189.982 189.221,190.276 189.343,192.630 188.122 C 194.249 187.283,194.412 187.262,196.378 187.649 C 200.474 188.455,203.217 188.059,207.167 186.091 C 209.339 185.010,216.000 180.620,216.000 180.271 C 216.000 179.760,214.979 180.001,213.074 180.962 C 207.231 183.908,199.667 184.013,199.667 181.147 C 199.667 180.723,199.504 179.954,199.306 179.438 C 198.338 176.923,199.246 173.631,201.987 169.724 C 203.300 167.852,203.623 166.885,203.051 166.532 C 202.896 166.436,201.471 167.665,199.885 169.263 M259.218 171.403 C 259.093 171.877,259.414 173.178,260.064 174.833 C 261.197 177.719,261.484 181.459,260.861 185.250 C 260.279 188.797,255.970 188.358,252.188 184.367 C 250.362 182.440,250.240 183.256,251.977 185.769 C 255.445 190.786,257.980 192.667,261.274 192.667 C 262.832 192.667,263.500 192.843,264.493 193.516 C 266.037 194.564,266.235 194.406,265.543 192.677 C 265.119 191.618,265.020 190.338,265.085 186.747 C 265.181 181.352,264.744 179.688,261.948 174.802 C 259.483 170.496,259.462 170.471,259.218 171.403 M185.359 179.707 C 178.750 184.628,176.096 188.474,175.151 194.500 C 174.774 196.903,174.348 198.331,173.626 199.617 C 172.431 201.742,172.464 201.807,174.469 201.271 C 175.848 200.902,176.361 200.940,178.930 201.603 C 185.477 203.290,191.027 201.888,199.803 196.332 C 202.667 194.518,202.090 193.623,198.905 194.938 C 191.537 197.979,187.984 198.366,184.151 196.546 C 182.746 195.879,181.426 195.333,181.215 195.333 C 180.692 195.334,181.084 188.844,181.688 187.500 C 182.549 185.586,184.324 183.007,186.488 180.526 C 189.671 176.877,189.413 176.690,185.359 179.707 M268.342 183.772 C 268.337 184.105,268.692 184.855,269.130 185.439 C 271.470 188.556,272.761 192.402,273.289 197.833 C 273.467 199.667,273.712 201.418,273.833 201.726 C 274.006 202.166,273.907 202.247,273.364 202.105 C 272.985 202.005,272.070 202.166,271.331 202.462 C 268.564 203.569,265.910 202.902,262.577 200.262 C 261.569 199.464,261.150 199.313,260.611 199.554 C 259.984 199.833,260.158 200.079,262.606 202.382 C 267.268 206.768,270.117 208.272,272.956 207.847 C 273.805 207.720,275.046 207.538,275.714 207.443 C 276.521 207.328,277.205 207.452,277.757 207.814 C 278.925 208.579,279.168 207.800,278.345 205.927 C 278.001 205.142,277.479 202.752,277.185 200.614 C 276.249 193.789,274.687 190.542,269.353 184.333 C 268.584 183.438,268.349 183.308,268.342 183.772 M162.667 192.559 C 158.420 195.523,156.866 197.565,155.317 202.217 C 154.218 205.514,152.705 207.638,150.466 209.021 C 149.004 209.925,149.399 210.446,151.175 209.955 C 153.253 209.381,155.539 209.812,159.000 211.429 C 165.843 214.627,171.642 214.448,183.418 210.676 C 187.121 209.490,187.137 209.470,185.309 208.302 L 183.955 207.437 181.394 207.933 C 173.477 209.464,166.271 208.538,162.695 205.532 C 161.886 204.851,160.796 204.209,160.273 204.105 C 159.573 203.965,159.411 203.808,159.660 203.508 C 159.846 203.284,160.308 201.854,160.687 200.330 C 161.508 197.032,162.587 194.793,164.230 192.973 C 166.019 190.993,165.214 190.780,162.667 192.559 M306.667 198.195 C 369.976 233.233,395.641 309.836,366.184 375.833 C 348.146 416.247,311.648 445.342,267.514 454.490 C 262.935 455.440,263.336 455.642,262.319 451.872 C 259.849 442.719,261.980 431.007,268.512 417.833 C 272.380 410.033,272.398 410.010,275.771 408.729 C 342.939 383.215,357.660 292.424,302.250 245.414 L 301.000 244.354 301.000 219.844 C 301.000 206.363,301.112 195.334,301.250 195.334 C 301.387 195.335,303.825 196.622,306.667 198.195 M139.167 204.722 C 135.616 206.685,133.361 209.485,132.500 213.001 C 131.953 215.232,130.412 217.333,129.322 217.333 C 129.145 217.333,129.000 217.528,129.000 217.766 C 129.000 218.066,129.364 218.157,130.179 218.062 C 131.109 217.953,132.147 218.318,135.096 219.788 C 141.286 222.874,148.748 222.954,156.454 220.018 L 157.408 219.655 156.621 219.041 C 154.651 217.506,153.656 217.247,149.515 217.192 C 145.195 217.134,143.537 216.664,141.101 214.806 C 140.494 214.343,139.549 213.808,139.000 213.617 L 138.001 213.268 138.667 212.333 C 139.184 211.606,139.336 210.849,139.345 208.949 C 139.352 207.457,139.543 206.174,139.833 205.667 C 140.623 204.286,140.435 204.021,139.167 204.722 M256.756 226.505 L 278.575 239.010 278.763 241.085 C 278.999 243.687,279.087 243.643,276.776 242.075 C 268.491 236.452,255.590 233.579,249.189 235.932 C 244.753 237.563,238.417 242.939,235.667 247.406 C 234.272 249.672,234.325 249.656,233.548 248.033 C 226.805 233.953,200.968 232.013,155.524 242.174 C 151.870 242.991,148.840 243.618,148.790 243.568 C 148.741 243.518,166.955 237.266,189.267 229.675 C 211.578 222.084,230.958 215.459,232.333 214.953 C 233.708 214.446,234.857 214.025,234.885 214.016 C 234.913 214.007,244.755 219.627,256.756 226.505 M116.551 215.167 C 116.668 215.717,116.888 216.502,117.039 216.912 C 119.477 223.533,116.709 233.877,111.136 238.970 C 106.839 242.897,103.253 242.842,99.699 238.795 L 98.269 237.167 99.666 239.905 C 104.112 248.624,109.969 249.894,115.999 243.447 C 123.453 235.479,123.817 224.222,116.919 214.948 L 116.338 214.167 116.551 215.167 M303.557 220.581 C 311.807 231.712,317.770 236.260,320.515 233.515 C 323.680 230.350,316.766 224.508,304.565 220.038 L 302.629 219.329 303.557 220.581 M328.061 230.353 C 327.875 230.835,327.809 232.721,327.910 234.700 C 328.232 241.009,327.206 241.709,319.924 240.144 C 315.843 239.268,315.606 239.631,318.370 242.522 C 322.762 247.118,326.380 249.000,330.823 249.000 C 332.461 249.000,333.562 249.188,334.389 249.610 L 335.585 250.220 335.099 249.057 C 334.691 248.079,334.677 247.463,335.016 245.185 C 335.721 240.450,334.026 236.075,329.391 230.667 L 328.391 229.500 328.061 230.353 M261.847 241.848 C 266.039 242.935,273.298 247.282,273.968 249.108 C 274.283 249.964,275.156 260.955,274.928 261.184 C 274.841 261.270,273.054 260.580,270.956 259.650 L 267.140 257.960 253.680 263.137 C 246.277 265.984,240.118 268.431,239.994 268.574 C 239.871 268.716,238.893 271.408,237.823 274.556 L 235.877 280.278 240.781 299.389 C 243.479 309.900,245.682 318.665,245.676 318.866 C 245.671 319.068,243.617 320.208,241.111 321.400 L 236.556 323.568 230.878 321.284 C 227.754 320.028,225.049 319.000,224.866 319.000 C 223.482 319.000,206.715 325.178,207.554 325.379 C 208.074 325.504,213.225 326.394,219.000 327.358 C 224.775 328.322,229.618 329.210,229.761 329.333 C 229.905 329.456,230.189 331.418,230.393 333.695 C 230.597 335.971,230.791 337.870,230.824 337.915 C 230.857 337.959,231.829 337.625,232.984 337.173 L 235.083 336.350 237.229 338.234 C 239.699 340.403,239.805 340.252,235.058 341.342 L 231.617 342.132 227.247 341.274 L 222.876 340.417 203.211 343.880 C 181.897 347.634,183.087 347.381,183.840 348.005 C 184.268 348.361,187.426 348.361,201.431 348.008 L 218.500 347.578 225.487 348.677 L 232.474 349.776 235.811 349.240 C 237.647 348.945,239.174 348.733,239.205 348.769 C 239.325 348.906,240.045 359.399,239.942 359.502 C 239.882 359.563,238.673 359.482,237.255 359.323 C 221.264 357.529,206.756 358.770,204.562 362.118 C 204.066 362.875,200.909 373.020,201.107 373.218 C 201.166 373.277,202.178 372.802,203.357 372.162 C 213.137 366.858,232.562 366.659,238.259 371.806 C 241.780 374.987,242.429 382.480,239.442 385.467 C 236.195 388.714,224.352 391.662,212.304 392.222 C 204.979 392.562,203.896 391.835,185.246 374.076 C 175.597 364.888,175.067 364.167,174.122 358.976 C 172.303 348.973,176.545 329.894,185.585 307.423 C 188.050 301.296,188.474 299.987,188.033 299.865 C 187.740 299.784,183.487 299.156,178.583 298.470 C 171.198 297.436,169.667 297.131,169.667 296.694 C 169.667 296.404,170.717 291.377,172.000 285.524 C 173.283 279.670,174.333 274.795,174.334 274.690 C 174.334 274.586,171.837 274.551,168.785 274.613 C 151.193 274.971,141.543 270.178,142.073 261.348 C 142.390 256.068,143.218 255.269,151.000 252.729 C 193.186 238.961,222.222 241.855,231.898 260.792 L 232.558 262.084 237.679 255.792 C 249.008 241.873,253.016 239.560,261.847 241.848 M341.417 246.116 C 341.221 246.546,340.967 247.784,340.852 248.866 C 340.393 253.189,340.273 253.687,339.460 254.654 C 338.108 256.260,336.932 256.268,333.033 254.696 C 327.922 252.636,327.635 252.801,330.016 256.428 C 333.270 261.384,336.585 263.985,340.545 264.689 C 343.297 265.179,343.541 265.271,344.737 266.273 C 345.324 266.765,345.688 266.978,345.548 266.748 C 345.074 265.973,345.255 263.850,346.006 261.382 C 347.236 257.342,346.729 254.442,343.738 248.417 C 342.078 245.073,341.950 244.946,341.417 246.116 M169.167 259.173 C 157.800 261.071,148.425 262.648,148.333 262.677 C 148.242 262.707,156.403 263.883,166.469 265.290 C 180.308 267.225,184.836 267.970,185.036 268.341 C 185.182 268.612,185.550 269.395,185.854 270.081 C 188.591 276.258,196.116 277.431,201.324 272.492 L 203.167 270.744 208.074 272.140 C 213.057 273.559,213.759 273.854,213.127 274.268 C 211.922 275.059,205.677 280.122,205.780 280.225 C 205.959 280.404,221.027 282.421,221.143 282.282 C 221.630 281.697,227.194 270.287,227.039 270.192 C 225.864 269.475,191.185 255.674,190.608 255.694 C 190.182 255.709,180.533 257.275,169.167 259.173 M352.240 263.586 C 351.933 263.925,351.318 265.601,350.874 267.310 C 349.305 273.351,347.287 274.174,342.253 270.826 C 337.711 267.806,337.253 268.249,339.720 273.275 C 342.067 278.058,344.797 280.891,348.114 281.988 C 349.369 282.402,350.907 283.190,351.531 283.739 L 352.667 284.736 352.667 283.815 C 352.667 283.309,353.296 281.531,354.065 279.864 C 356.099 275.455,355.901 270.869,353.403 264.509 C 352.824 263.034,352.774 262.995,352.240 263.586 M270.978 272.583 C 270.965 272.904,270.544 274.517,270.040 276.167 L 269.126 279.167 270.768 282.667 C 276.675 295.259,276.666 295.052,271.703 303.135 L 267.664 309.714 262.960 325.273 C 260.373 333.831,258.135 341.058,257.985 341.333 C 257.719 341.824,257.549 341.518,255.837 337.451 C 255.595 336.874,254.079 334.924,252.469 333.117 C 250.859 331.311,249.336 329.587,249.085 329.286 C 248.680 328.800,249.108 328.333,252.932 325.096 L 257.235 321.452 254.754 316.143 C 252.529 311.378,246.346 292.940,246.336 291.039 C 246.333 290.497,249.665 278.236,249.874 278.020 C 249.952 277.940,250.248 278.205,250.531 278.610 C 253.953 283.495,260.776 281.572,262.831 275.143 L 263.371 273.453 266.769 272.766 C 271.096 271.890,271.004 271.894,270.978 272.583 M359.612 283.083 C 359.142 283.587,358.494 284.712,358.172 285.583 C 355.824 291.936,353.462 292.521,348.460 287.988 C 347.253 286.895,346.144 286.000,345.994 286.000 C 345.844 286.000,345.491 285.912,345.210 285.804 C 344.783 285.640,344.829 286.093,345.488 288.554 C 347.390 295.657,348.994 298.108,353.418 300.665 C 354.561 301.326,355.835 302.369,356.248 302.983 L 357.000 304.099 357.000 303.070 C 357.000 302.393,357.531 301.267,358.555 299.771 C 361.603 295.321,362.332 290.499,360.914 284.167 L 360.467 282.167 359.612 283.083 M355.295 312.520 C 353.186 313.170,351.229 315.321,350.685 317.590 C 349.095 324.220,357.184 328.891,362.220 324.249 C 367.740 319.160,362.509 310.299,355.295 312.520 M81.662 316.583 C 81.639 328.551,72.170 336.319,55.484 338.058 L 51.716 338.451 60.941 343.507 C 108.554 369.603,106.323 368.323,110.231 371.787 C 125.146 385.006,144.274 396.097,162.119 401.872 L 165.072 402.827 166.868 405.287 C 169.099 408.342,170.969 411.714,172.307 415.092 C 173.552 418.236,173.551 418.219,172.439 417.491 C 166.220 413.416,148.187 404.053,140.000 400.647 C 135.554 398.798,125.122 395.236,124.634 395.401 C 124.472 395.455,128.420 397.600,133.407 400.167 C 164.940 416.396,178.991 426.267,185.173 436.533 C 187.310 440.083,188.585 444.833,188.061 447.296 L 187.821 448.426 186.847 447.019 C 178.705 435.271,157.289 424.583,107.000 407.171 C 47.004 386.398,28.751 377.040,21.949 363.566 C 16.980 353.722,20.027 347.688,32.189 343.287 C 33.735 342.728,35.542 341.902,36.206 341.452 C 36.869 341.002,37.446 340.679,37.489 340.734 C 37.531 340.788,38.551 342.754,39.755 345.101 L 41.944 349.368 39.936 351.515 L 37.928 353.662 40.047 354.616 C 41.213 355.141,54.692 361.314,70.000 368.333 C 102.502 383.237,102.000 383.009,102.000 382.847 C 102.000 382.778,101.438 382.379,100.750 381.961 C 64.274 359.780,45.031 345.459,41.010 337.500 C 36.639 328.848,40.045 325.490,56.579 322.149 C 69.620 319.515,75.237 317.794,79.343 315.179 C 81.739 313.652,81.667 313.609,81.662 316.583 M287.097 319.744 C 288.308 321.811,290.590 324.267,293.741 326.895 C 300.909 332.874,300.466 334.717,288.200 349.972 C 284.870 354.112,281.785 358.013,281.343 358.640 L 280.540 359.780 281.941 358.993 C 289.466 354.764,304.433 344.456,307.885 341.126 C 311.350 337.783,310.675 336.284,301.632 327.250 C 298.559 324.179,296.088 321.667,296.141 321.667 C 296.990 321.667,312.968 328.733,317.000 330.891 C 321.091 333.081,321.000 332.960,321.000 336.185 C 321.000 347.604,315.658 359.920,306.508 369.599 C 300.862 375.571,296.599 379.070,279.500 391.765 C 255.751 409.397,244.755 422.044,238.295 439.157 L 237.167 442.147 237.067 438.490 C 236.559 419.947,246.159 397.364,261.552 380.886 C 264.353 377.888,263.487 378.029,272.333 379.134 C 275.725 379.558,278.533 379.881,278.574 379.851 C 278.615 379.821,277.443 371.630,275.970 361.648 C 273.068 341.977,273.104 342.583,274.530 337.068 C 276.002 331.378,280.375 321.478,283.842 315.986 L 284.732 314.576 285.483 316.424 C 285.896 317.440,286.622 318.934,287.097 319.744 M356.206 333.820 C 355.913 334.267,354.632 335.241,353.360 335.984 C 349.215 338.405,347.312 341.749,345.525 349.750 C 345.177 351.308,346.390 350.873,348.956 348.518 C 353.814 344.059,355.811 344.305,358.262 349.662 C 359.335 352.007,360.477 353.667,361.018 353.667 C 361.393 353.667,362.000 348.884,362.000 345.925 C 362.000 342.127,361.303 339.957,359.144 337.030 C 358.148 335.680,357.333 334.304,357.333 333.974 C 357.333 333.013,356.784 332.937,356.206 333.820 M352.258 352.682 C 351.758 353.191,350.558 353.860,349.591 354.169 C 345.148 355.588,342.007 359.216,339.319 366.038 L 338.642 367.755 339.663 367.551 C 340.224 367.438,341.542 366.765,342.592 366.055 C 348.132 362.304,350.124 362.922,351.698 368.878 C 352.120 370.475,352.780 372.149,353.165 372.596 L 353.865 373.410 354.782 370.455 C 356.764 364.070,356.760 360.488,354.768 356.733 C 354.119 355.511,353.494 353.891,353.378 353.133 L 353.167 351.756 352.258 352.682 M265.326 361.498 C 266.126 365.806,266.712 369.400,266.627 369.485 C 266.170 369.941,257.978 368.205,258.181 367.695 C 258.297 367.405,259.528 364.129,260.917 360.417 C 262.306 356.704,263.539 353.667,263.657 353.667 C 263.775 353.667,264.526 357.191,265.326 361.498 M344.752 371.494 C 344.140 371.930,342.709 372.432,341.456 372.650 C 337.260 373.380,334.516 375.433,331.085 380.404 C 328.201 384.583,328.505 384.891,333.477 382.833 C 339.210 380.460,341.009 381.645,341.474 388.100 C 341.819 392.887,342.390 393.046,344.414 388.917 C 347.356 382.914,347.795 379.876,346.368 375.383 C 345.873 373.824,345.657 372.521,345.774 371.800 C 345.875 371.177,345.930 370.680,345.896 370.695 C 345.861 370.711,345.347 371.070,344.752 371.494 M334.686 388.601 C 334.121 388.994,332.846 389.233,330.519 389.383 C 325.611 389.701,322.499 391.379,318.194 396.028 C 315.542 398.893,316.218 399.306,321.375 397.969 C 326.728 396.582,328.182 397.808,327.913 403.485 C 327.816 405.541,327.883 407.518,328.066 407.991 L 328.392 408.833 329.556 407.500 C 334.183 402.204,335.800 397.785,334.964 392.724 C 334.655 390.853,334.679 390.281,335.113 389.243 C 335.399 388.559,335.603 388.008,335.566 388.017 C 335.530 388.027,335.134 388.290,334.686 388.601 M311.879 404.016 C 309.976 404.493,305.795 406.771,303.390 408.641 C 300.640 410.779,301.115 411.183,305.976 410.835 C 312.054 410.400,313.532 412.056,312.000 417.586 C 311.321 420.035,311.115 422.667,311.602 422.667 C 312.157 422.667,317.279 417.405,318.469 415.612 C 320.032 413.259,320.667 411.161,320.667 408.351 C 320.667 406.824,320.866 405.750,321.311 404.877 C 321.883 403.755,321.892 403.642,321.395 403.878 C 320.726 404.194,318.689 404.205,315.500 403.910 C 314.217 403.791,312.587 403.838,311.879 404.016 M215.000 406.547 C 219.675 407.218,223.633 407.886,223.796 408.030 C 223.962 408.177,222.960 412.191,221.498 417.229 C 220.072 422.145,218.834 426.429,218.747 426.750 C 218.660 427.071,218.457 427.333,218.295 427.333 C 217.988 427.333,198.171 413.909,197.387 413.170 C 196.821 412.637,204.649 405.336,205.794 405.329 C 206.182 405.327,210.325 405.875,215.000 406.547 M291.833 416.480 C 289.951 416.918,286.735 418.152,283.924 419.514 C 281.877 420.506,283.387 421.293,288.426 421.862 C 293.317 422.414,294.171 424.563,291.663 430.009 C 289.465 434.779,289.678 435.062,293.637 432.625 C 298.783 429.458,301.362 426.274,302.298 421.934 C 302.523 420.889,303.061 419.513,303.493 418.876 L 304.279 417.717 303.223 417.888 C 302.540 417.998,301.345 417.749,299.843 417.183 C 296.960 416.097,294.431 415.875,291.833 416.480 M280.333 425.865 C 277.078 426.731,267.131 432.060,265.333 433.901 C 264.226 435.035,278.124 433.724,282.246 432.306 C 289.257 429.894,287.496 423.960,280.333 425.865 " stroke="none" fill="#040404" fill-rule="evenodd"></path><path id="path4" d="M208.818 89.333 C 208.818 96.208,208.862 99.021,208.916 95.583 C 208.970 92.146,208.970 86.521,208.916 83.083 C 208.862 79.646,208.818 82.458,208.818 89.333 M189.818 108.750 L 188.500 110.167 189.917 108.849 C 191.234 107.624,191.487 107.333,191.234 107.333 C 191.180 107.333,190.542 107.971,189.818 108.750 M120.160 148.750 L 117.167 151.833 120.250 148.840 C 123.114 146.060,123.485 145.667,123.243 145.667 C 123.193 145.667,121.806 147.054,120.160 148.750 M185.736 150.346 C 185.491 150.738,185.140 150.927,184.906 150.793 C 184.683 150.665,184.616 150.687,184.758 150.844 C 184.900 151.000,184.301 151.886,183.426 152.814 C 182.552 153.741,182.923 153.454,184.252 152.176 C 185.580 150.897,186.667 149.810,186.667 149.759 C 186.667 149.417,186.088 149.782,185.736 150.346 M224.437 160.500 C 224.438 161.600,224.501 162.010,224.575 161.411 C 224.649 160.812,224.648 159.912,224.572 159.411 C 224.495 158.910,224.435 159.400,224.437 160.500 M169.661 166.250 L 165.833 170.167 169.750 166.339 C 173.388 162.783,173.818 162.333,173.578 162.333 C 173.529 162.333,171.767 164.096,169.661 166.250 M217.776 165.167 C 217.778 166.450,217.838 166.934,217.910 166.243 C 217.982 165.551,217.981 164.501,217.907 163.909 C 217.834 163.317,217.775 163.883,217.776 165.167 M153.661 181.917 L 149.833 185.833 153.750 182.005 C 155.904 179.900,157.667 178.138,157.667 178.089 C 157.667 177.849,157.217 178.279,153.661 181.917 M231.000 179.833 C 231.622 180.475,232.206 181.000,232.297 181.000 C 232.389 181.000,231.955 180.475,231.333 179.833 C 230.711 179.192,230.128 178.667,230.036 178.667 C 229.944 178.667,230.378 179.192,231.000 179.833 M192.762 181.167 C 192.765 182.083,192.829 182.419,192.906 181.912 C 192.982 181.405,192.980 180.655,192.901 180.245 C 192.822 179.835,192.760 180.250,192.762 181.167 M225.653 183.417 C 227.034 184.888,227.333 185.153,227.333 184.903 C 227.333 184.849,226.621 184.137,225.750 183.319 L 224.167 181.833 225.653 183.417 M240.250 183.902 C 240.662 183.981,241.338 183.981,241.750 183.902 C 242.162 183.822,241.825 183.757,241.000 183.757 C 240.175 183.757,239.838 183.822,240.250 183.902 M244.146 186.083 L 243.167 187.167 244.250 186.188 C 244.846 185.649,245.333 185.162,245.333 185.104 C 245.333 184.847,245.058 185.074,244.146 186.083 M104.127 187.500 C 104.165 188.785,104.209 188.835,105.333 188.877 C 106.462 188.919,106.465 188.916,105.436 188.774 C 104.491 188.644,104.355 188.489,104.229 187.397 L 104.087 186.167 104.127 187.500 M111.921 189.236 C 112.335 189.315,112.935 189.312,113.254 189.229 C 113.573 189.146,113.233 189.080,112.500 189.084 C 111.767 189.088,111.506 189.156,111.921 189.236 M181.095 191.500 C 181.098 192.417,181.163 192.752,181.239 192.245 C 181.316 191.739,181.314 190.989,181.235 190.579 C 181.156 190.169,181.093 190.583,181.095 191.500 M137.661 197.583 L 133.833 201.500 137.750 197.672 C 141.388 194.117,141.818 193.667,141.578 193.667 C 141.529 193.667,139.767 195.429,137.661 197.583 M158.982 195.250 L 157.833 196.500 159.083 195.351 C 160.247 194.282,160.487 194.000,160.232 194.000 C 160.176 194.000,159.614 194.563,158.982 195.250 M301.158 220.000 C 301.158 233.475,301.199 238.987,301.250 232.250 C 301.300 225.512,301.300 214.487,301.250 207.750 C 301.199 201.012,301.158 206.525,301.158 220.000 M187.755 197.573 C 188.261 197.649,189.011 197.647,189.421 197.568 C 189.831 197.489,189.417 197.426,188.500 197.429 C 187.583 197.431,187.248 197.496,187.755 197.573 M285.077 198.333 C 285.077 198.975,285.146 199.237,285.230 198.917 C 285.314 198.596,285.314 198.071,285.230 197.750 C 285.146 197.429,285.077 197.692,285.077 198.333 M261.833 202.000 C 262.922 203.100,263.887 204.000,263.979 204.000 C 264.071 204.000,263.255 203.100,262.167 202.000 C 261.078 200.900,260.113 200.000,260.021 200.000 C 259.929 200.000,260.745 200.900,261.833 202.000 M285.411 204.000 C 285.411 204.642,285.479 204.904,285.563 204.583 C 285.647 204.262,285.647 203.737,285.563 203.417 C 285.479 203.096,285.411 203.358,285.411 204.000 M139.411 207.667 C 139.411 208.308,139.479 208.571,139.563 208.250 C 139.647 207.929,139.647 207.404,139.563 207.083 C 139.479 206.762,139.411 207.025,139.411 207.667 M171.250 208.577 C 172.029 208.648,173.304 208.648,174.083 208.577 C 174.862 208.507,174.225 208.450,172.667 208.450 C 171.108 208.450,170.471 208.507,171.250 208.577 M285.744 210.000 C 285.744 210.642,285.813 210.904,285.896 210.583 C 285.980 210.262,285.980 209.737,285.896 209.417 C 285.813 209.096,285.744 209.358,285.744 210.000 M123.490 211.417 L 121.500 213.500 123.583 211.510 C 124.729 210.416,125.667 209.479,125.667 209.427 C 125.667 209.181,125.338 209.481,123.490 211.417 M152.750 209.896 C 153.071 209.980,153.596 209.980,153.917 209.896 C 154.237 209.813,153.975 209.744,153.333 209.744 C 152.692 209.744,152.429 209.813,152.750 209.896 M115.667 213.667 C 115.667 213.850,115.826 214.000,116.020 214.000 C 116.214 214.000,116.295 214.125,116.201 214.278 C 116.107 214.431,116.248 214.556,116.516 214.556 C 116.919 214.556,116.907 214.450,116.450 213.944 C 115.820 213.248,115.667 213.194,115.667 213.667 M334.333 218.500 C 334.955 219.142,335.539 219.667,335.631 219.667 C 335.722 219.667,335.289 219.142,334.667 218.500 C 334.045 217.858,333.461 217.333,333.369 217.333 C 333.278 217.333,333.711 217.858,334.333 218.500 M286.411 220.667 C 286.411 221.308,286.479 221.571,286.563 221.250 C 286.647 220.929,286.647 220.404,286.563 220.083 C 286.479 219.762,286.411 220.025,286.411 220.667 M340.833 225.000 C 341.549 225.733,342.210 226.333,342.302 226.333 C 342.394 226.333,341.883 225.733,341.167 225.000 C 340.451 224.267,339.790 223.667,339.698 223.667 C 339.606 223.667,340.117 224.267,340.833 225.000 M93.084 225.167 C 93.088 225.900,93.156 226.161,93.236 225.746 C 93.315 225.331,93.312 224.731,93.229 224.413 C 93.146 224.094,93.080 224.433,93.084 225.167 M286.744 226.667 C 286.744 227.308,286.813 227.571,286.896 227.250 C 286.980 226.929,286.980 226.404,286.896 226.083 C 286.813 225.762,286.744 226.025,286.744 226.667 M287.077 232.667 C 287.077 233.308,287.146 233.571,287.230 233.250 C 287.314 232.929,287.314 232.404,287.230 232.083 C 287.146 231.762,287.077 232.025,287.077 232.667 M198.254 235.569 C 198.669 235.649,199.269 235.646,199.587 235.562 C 199.906 235.479,199.567 235.414,198.833 235.417 C 198.100 235.421,197.839 235.489,198.254 235.569 M207.417 235.563 C 207.737 235.647,208.262 235.647,208.583 235.563 C 208.904 235.479,208.642 235.411,208.000 235.411 C 207.358 235.411,207.096 235.479,207.417 235.563 M318.667 243.167 C 319.848 244.358,320.889 245.333,320.981 245.333 C 321.072 245.333,320.181 244.358,319.000 243.167 C 317.819 241.975,316.778 241.000,316.686 241.000 C 316.594 241.000,317.486 241.975,318.667 243.167 M230.500 244.000 C 231.216 244.733,231.877 245.333,231.969 245.333 C 232.060 245.333,231.549 244.733,230.833 244.000 C 230.117 243.267,229.456 242.667,229.365 242.667 C 229.273 242.667,229.784 243.267,230.500 244.000 M329.917 249.241 C 330.512 249.315,331.487 249.315,332.083 249.241 C 332.679 249.167,332.192 249.107,331.000 249.107 C 329.808 249.107,329.321 249.167,329.917 249.241 M113.083 252.905 C 113.587 252.982,114.412 252.982,114.917 252.905 C 115.421 252.829,115.008 252.767,114.000 252.767 C 112.992 252.767,112.579 252.829,113.083 252.905 M126.440 255.667 C 126.440 256.858,126.501 257.346,126.574 256.750 C 126.648 256.154,126.648 255.179,126.574 254.583 C 126.501 253.987,126.440 254.475,126.440 255.667 M346.744 257.667 C 346.744 258.308,346.813 258.571,346.896 258.250 C 346.980 257.929,346.980 257.404,346.896 257.083 C 346.813 256.762,346.744 257.025,346.744 257.667 M92.077 258.000 C 92.077 258.642,92.146 258.904,92.230 258.583 C 92.314 258.262,92.314 257.737,92.230 257.417 C 92.146 257.096,92.077 257.358,92.077 258.000 M92.411 263.333 C 92.411 263.975,92.479 264.237,92.563 263.917 C 92.647 263.596,92.647 263.071,92.563 262.750 C 92.479 262.429,92.411 262.692,92.411 263.333 M92.744 269.333 C 92.744 269.975,92.813 270.237,92.896 269.917 C 92.980 269.596,92.980 269.071,92.896 268.750 C 92.813 268.429,92.744 268.692,92.744 269.333 M132.653 272.083 C 134.034 273.555,134.333 273.820,134.333 273.569 C 134.333 273.516,133.621 272.803,132.750 271.986 L 131.167 270.500 132.653 272.083 M93.091 276.333 C 93.091 277.158,93.156 277.496,93.235 277.083 C 93.315 276.671,93.315 275.996,93.235 275.583 C 93.156 275.171,93.091 275.508,93.091 276.333 M93.445 286.333 C 93.445 287.708,93.504 288.271,93.576 287.583 C 93.648 286.896,93.648 285.771,93.576 285.083 C 93.504 284.396,93.445 284.958,93.445 286.333 M104.077 291.667 C 104.077 292.308,104.146 292.571,104.230 292.250 C 104.314 291.929,104.314 291.404,104.230 291.083 C 104.146 290.762,104.077 291.025,104.077 291.667 M93.440 304.333 C 93.440 305.525,93.501 306.012,93.574 305.417 C 93.648 304.821,93.648 303.846,93.574 303.250 C 93.501 302.654,93.440 303.142,93.440 304.333 M378.136 319.167 C 378.136 322.283,378.186 323.603,378.248 322.100 C 378.309 320.596,378.310 318.046,378.248 316.433 C 378.187 314.820,378.137 316.050,378.136 319.167 M116.077 319.000 C 116.077 319.642,116.146 319.904,116.230 319.583 C 116.314 319.262,116.314 318.737,116.230 318.417 C 116.146 318.096,116.077 318.358,116.077 319.000 M116.411 325.000 C 116.411 325.642,116.479 325.904,116.563 325.583 C 116.647 325.262,116.647 324.737,116.563 324.417 C 116.479 324.096,116.411 324.358,116.411 325.000 M104.139 334.167 C 104.139 337.650,104.189 339.030,104.249 337.233 C 104.309 335.436,104.308 332.586,104.248 330.899 C 104.188 329.213,104.139 330.683,104.139 334.167 M116.757 332.000 C 116.757 332.825,116.822 333.162,116.902 332.750 C 116.981 332.337,116.981 331.662,116.902 331.250 C 116.822 330.837,116.757 331.175,116.757 332.000 M156.103 337.500 C 156.105 338.600,156.167 339.010,156.242 338.411 C 156.316 337.812,156.314 336.912,156.238 336.411 C 156.162 335.910,156.101 336.400,156.103 337.500 M117.091 339.333 C 117.091 340.158,117.156 340.496,117.235 340.083 C 117.315 339.671,117.315 338.996,117.235 338.583 C 117.156 338.171,117.091 338.508,117.091 339.333 M156.084 343.833 C 156.088 344.567,156.156 344.827,156.236 344.413 C 156.315 343.998,156.312 343.398,156.229 343.079 C 156.146 342.761,156.080 343.100,156.084 343.833 M117.417 346.500 C 117.421 347.233,117.489 347.494,117.569 347.079 C 117.649 346.665,117.646 346.065,117.562 345.746 C 117.479 345.427,117.414 345.767,117.417 346.500 M353.411 352.667 C 353.411 353.308,353.479 353.571,353.563 353.250 C 353.647 352.929,353.647 352.404,353.563 352.083 C 353.479 351.762,353.411 352.025,353.411 352.667 M117.751 353.500 C 117.754 354.233,117.823 354.494,117.902 354.079 C 117.982 353.665,117.979 353.065,117.896 352.746 C 117.812 352.427,117.747 352.767,117.751 353.500 M356.417 362.500 C 356.421 363.233,356.489 363.494,356.569 363.079 C 356.649 362.665,356.646 362.065,356.562 361.746 C 356.479 361.427,356.414 361.767,356.417 362.500 M345.641 370.573 C 345.197 371.072,345.072 371.298,345.364 371.076 C 345.656 370.854,345.993 370.746,346.114 370.836 C 346.235 370.926,346.260 370.901,346.170 370.781 C 346.079 370.660,346.173 370.360,346.377 370.114 C 347.072 369.276,346.453 369.663,345.641 370.573 M308.484 387.417 L 307.167 388.833 308.583 387.516 C 309.901 386.290,310.153 386.000,309.901 386.000 C 309.847 386.000,309.209 386.637,308.484 387.417 M318.655 395.250 L 316.833 397.167 318.750 395.345 C 319.804 394.343,320.667 393.480,320.667 393.428 C 320.667 393.181,320.348 393.469,318.655 395.250 M320.762 408.833 C 320.765 409.750,320.829 410.085,320.906 409.579 C 320.982 409.072,320.980 408.322,320.901 407.912 C 320.822 407.502,320.760 407.917,320.762 408.833 M303.254 411.236 C 303.669 411.315,304.269 411.312,304.587 411.229 C 304.906 411.146,304.567 411.080,303.833 411.084 C 303.100 411.088,302.839 411.156,303.254 411.236 M333.479 420.750 L 332.500 421.833 333.583 420.854 C 334.593 419.942,334.820 419.667,334.562 419.667 C 334.505 419.667,334.017 420.154,333.479 420.750 M298.484 429.083 L 297.167 430.500 298.583 429.182 C 299.901 427.957,300.153 427.667,299.901 427.667 C 299.847 427.667,299.209 428.304,298.484 429.083 M264.333 434.414 C 264.333 434.553,265.271 434.649,266.417 434.628 C 268.668 434.586,268.450 434.427,265.917 434.264 C 265.046 434.208,264.333 434.275,264.333 434.414 M261.440 444.000 C 261.440 445.192,261.501 445.679,261.574 445.083 C 261.648 444.488,261.648 443.512,261.574 442.917 C 261.501 442.321,261.440 442.808,261.440 444.000 " stroke="none" fill="#937318" fill-rule="evenodd"></path><path id="path5" d="M149.833 6.580 C 197.546 6.808,231.667 6.809,231.667 6.583 C 231.667 6.446,209.204 6.370,181.750 6.414 C 154.296 6.458,139.933 6.533,149.833 6.580 M221.315 14.917 L 220.167 16.167 221.417 15.018 C 222.580 13.949,222.820 13.667,222.565 13.667 C 222.510 13.667,221.947 14.229,221.315 14.917 M206.424 53.333 C 206.424 54.158,206.489 54.496,206.569 54.083 C 206.648 53.671,206.648 52.996,206.569 52.583 C 206.489 52.171,206.424 52.508,206.424 53.333 M203.246 107.254 C 198.108 112.400,197.600 113.000,198.389 113.000 C 198.603 113.000,198.672 112.895,198.544 112.766 C 198.415 112.637,200.675 110.162,203.567 107.266 C 206.459 104.370,208.751 102.000,208.659 102.000 C 208.567 102.000,206.131 104.364,203.246 107.254 M73.762 124.833 C 73.765 125.750,73.829 126.085,73.906 125.579 C 73.982 125.072,73.980 124.322,73.901 123.912 C 73.822 123.502,73.760 123.917,73.762 124.833 M73.757 147.000 C 73.757 147.825,73.822 148.162,73.902 147.750 C 73.981 147.337,73.981 146.662,73.902 146.250 C 73.822 145.837,73.757 146.175,73.757 147.000 M74.077 154.667 C 74.077 155.308,74.146 155.571,74.230 155.250 C 74.314 154.929,74.314 154.404,74.230 154.083 C 74.146 153.762,74.077 154.025,74.077 154.667 M81.077 223.000 C 81.077 223.642,81.146 223.904,81.230 223.583 C 81.314 223.262,81.314 222.737,81.230 222.417 C 81.146 222.096,81.077 222.358,81.077 223.000 M191.750 244.230 C 192.071 244.314,192.596 244.314,192.917 244.230 C 193.237 244.146,192.975 244.077,192.333 244.077 C 191.692 244.077,191.429 244.146,191.750 244.230 M245.333 246.833 C 244.524 247.658,243.936 248.333,244.028 248.333 C 244.120 248.333,244.857 247.658,245.667 246.833 C 246.476 246.008,247.064 245.333,246.972 245.333 C 246.880 245.333,246.143 246.008,245.333 246.833 M80.095 258.500 C 80.098 259.417,80.163 259.752,80.239 259.245 C 80.316 258.739,80.314 257.989,80.235 257.579 C 80.156 257.169,80.093 257.583,80.095 258.500 M80.429 268.500 C 80.431 269.417,80.496 269.752,80.573 269.245 C 80.649 268.739,80.647 267.989,80.568 267.579 C 80.489 267.169,80.426 267.583,80.429 268.500 M162.921 274.569 C 163.335 274.649,163.935 274.646,164.254 274.562 C 164.573 274.479,164.233 274.414,163.500 274.417 C 162.767 274.421,162.506 274.489,162.921 274.569 M170.254 274.569 C 170.669 274.649,171.269 274.646,171.587 274.562 C 171.906 274.479,171.567 274.414,170.833 274.417 C 170.100 274.421,169.839 274.489,170.254 274.569 M193.921 275.902 C 194.335 275.982,194.935 275.979,195.254 275.896 C 195.573 275.812,195.233 275.747,194.500 275.751 C 193.767 275.754,193.506 275.823,193.921 275.902 M80.762 278.833 C 80.765 279.750,80.829 280.085,80.906 279.579 C 80.982 279.072,80.980 278.322,80.901 277.912 C 80.822 277.502,80.760 277.917,80.762 278.833 M81.095 288.833 C 81.098 289.750,81.163 290.085,81.239 289.579 C 81.316 289.072,81.314 288.322,81.235 287.912 C 81.156 287.502,81.093 287.917,81.095 288.833 M391.463 318.833 C 391.463 321.217,391.517 322.148,391.581 320.903 C 391.645 319.658,391.645 317.708,391.580 316.569 C 391.515 315.431,391.462 316.450,391.463 318.833 M211.083 347.905 C 211.588 347.982,212.412 347.982,212.917 347.905 C 213.421 347.829,213.008 347.767,212.000 347.767 C 210.992 347.767,210.579 347.829,211.083 347.905 M198.923 348.242 C 199.522 348.316,200.422 348.314,200.923 348.238 C 201.424 348.162,200.933 348.101,199.833 348.103 C 198.733 348.105,198.324 348.167,198.923 348.242 M187.256 348.575 C 187.855 348.649,188.755 348.648,189.256 348.572 C 189.757 348.495,189.267 348.435,188.167 348.437 C 187.067 348.438,186.657 348.501,187.256 348.575 M6.440 352.667 C 6.440 353.858,6.501 354.346,6.574 353.750 C 6.648 353.154,6.648 352.179,6.574 351.583 C 6.501 350.988,6.440 351.475,6.440 352.667 M173.751 351.833 C 173.754 352.567,173.823 352.827,173.902 352.413 C 173.982 351.998,173.979 351.398,173.896 351.079 C 173.812 350.761,173.747 351.100,173.751 351.833 M173.757 355.000 C 173.757 355.825,173.822 356.162,173.902 355.750 C 173.981 355.337,173.981 354.662,173.902 354.250 C 173.822 353.837,173.757 354.175,173.757 355.000 M227.254 358.569 C 227.669 358.649,228.269 358.646,228.587 358.562 C 228.906 358.479,228.567 358.414,227.833 358.417 C 227.100 358.421,226.839 358.489,227.254 358.569 M222.921 368.236 C 223.335 368.315,223.935 368.312,224.254 368.229 C 224.573 368.146,224.233 368.080,223.500 368.084 C 222.767 368.088,222.506 368.156,222.921 368.236 M186.167 375.000 C 186.883 375.733,187.544 376.333,187.635 376.333 C 187.727 376.333,187.216 375.733,186.500 375.000 C 185.784 374.267,185.123 373.667,185.031 373.667 C 184.940 373.667,185.451 374.267,186.167 375.000 M208.583 392.244 C 209.362 392.314,210.637 392.314,211.417 392.244 C 212.196 392.174,211.558 392.116,210.000 392.116 C 208.442 392.116,207.804 392.174,208.583 392.244 M347.154 426.083 L 345.500 427.833 347.250 426.179 C 348.212 425.269,349.000 424.482,349.000 424.429 C 349.000 424.180,348.691 424.457,347.154 426.083 M246.583 470.235 C 246.996 470.315,247.671 470.315,248.083 470.235 C 248.496 470.156,248.158 470.091,247.333 470.091 C 246.508 470.091,246.171 470.156,246.583 470.235 " stroke="none" fill="#545454" fill-rule="evenodd"></path><path id="path6" d="M140.799 19.802 C 140.701 20.059,140.681 20.772,140.757 21.385 C 140.880 22.392,140.898 22.363,140.947 21.085 L 141.000 19.670 173.750 19.583 L 206.500 19.497 173.740 19.415 C 145.859 19.346,140.952 19.403,140.799 19.802 M140.440 30.000 C 140.440 31.192,140.501 31.679,140.574 31.083 C 140.648 30.488,140.648 29.512,140.574 28.917 C 140.501 28.321,140.440 28.808,140.440 30.000 M115.324 33.583 L 113.167 35.833 115.417 33.676 C 116.654 32.490,117.667 31.477,117.667 31.426 C 117.667 31.181,117.327 31.493,115.324 33.583 M140.103 39.500 C 140.105 40.600,140.167 41.010,140.242 40.411 C 140.316 39.812,140.314 38.912,140.238 38.411 C 140.162 37.910,140.101 38.400,140.103 39.500 M193.744 47.000 C 193.744 47.642,193.813 47.904,193.896 47.583 C 193.980 47.262,193.980 46.737,193.896 46.417 C 193.813 46.096,193.744 46.358,193.744 47.000 M139.773 49.000 C 139.773 50.192,139.834 50.679,139.908 50.083 C 139.982 49.487,139.982 48.512,139.908 47.917 C 139.834 47.321,139.773 47.808,139.773 49.000 M193.424 52.667 C 193.424 53.492,193.489 53.829,193.569 53.417 C 193.648 53.004,193.648 52.329,193.569 51.917 C 193.489 51.504,193.424 51.842,193.424 52.667 M139.440 58.667 C 139.440 59.858,139.501 60.346,139.574 59.750 C 139.648 59.154,139.648 58.179,139.574 57.583 C 139.501 56.987,139.440 57.475,139.440 58.667 M138.915 67.417 C 138.826 68.012,138.875 68.800,139.023 69.167 C 139.211 69.635,139.297 69.314,139.312 68.083 C 139.336 66.106,139.155 65.801,138.915 67.417 M197.140 91.833 C 197.140 95.500,197.188 97.045,197.248 95.268 C 197.308 93.490,197.308 90.490,197.249 88.601 C 197.189 86.712,197.140 88.167,197.140 91.833 M186.484 112.417 L 185.167 113.833 186.583 112.516 C 187.901 111.290,188.153 111.000,187.901 111.000 C 187.847 111.000,187.209 111.638,186.484 112.417 M178.583 113.902 C 178.996 113.981,179.671 113.981,180.083 113.902 C 180.496 113.822,180.158 113.757,179.333 113.757 C 178.508 113.757,178.171 113.822,178.583 113.902 M86.077 120.667 C 86.077 121.308,86.146 121.571,86.230 121.250 C 86.314 120.929,86.314 120.404,86.230 120.083 C 86.146 119.763,86.077 120.025,86.077 120.667 M85.757 126.333 C 85.757 127.158,85.822 127.496,85.902 127.083 C 85.981 126.671,85.981 125.996,85.902 125.583 C 85.822 125.171,85.757 125.508,85.757 126.333 M85.473 140.500 C 85.473 144.167,85.522 145.712,85.582 143.934 C 85.641 142.157,85.642 139.157,85.582 137.268 C 85.523 135.379,85.474 136.833,85.473 140.500 M116.667 141.500 C 115.301 142.875,114.258 144.000,114.350 144.000 C 114.442 144.000,115.634 142.875,117.000 141.500 C 118.366 140.125,119.408 139.000,119.317 139.000 C 119.225 139.000,118.032 140.125,116.667 141.500 M127.993 151.917 L 125.167 154.833 128.083 152.007 C 130.792 149.383,131.152 149.000,130.909 149.000 C 130.859 149.000,129.547 150.313,127.993 151.917 M120.826 154.417 L 118.167 157.167 120.917 154.508 C 122.429 153.045,123.667 151.808,123.667 151.758 C 123.667 151.515,123.295 151.863,120.826 154.417 M176.994 158.917 L 173.500 162.500 177.083 159.006 C 180.412 155.761,180.818 155.333,180.577 155.333 C 180.528 155.333,178.916 156.946,176.994 158.917 M118.411 167.000 C 118.411 167.642,118.479 167.904,118.563 167.583 C 118.647 167.262,118.647 166.737,118.563 166.417 C 118.479 166.096,118.411 166.358,118.411 167.000 M201.146 167.750 L 200.167 168.833 201.250 167.854 C 201.846 167.316,202.333 166.828,202.333 166.771 C 202.333 166.513,202.058 166.740,201.146 167.750 M198.484 170.417 L 197.167 171.833 198.583 170.516 C 199.901 169.290,200.153 169.000,199.901 169.000 C 199.847 169.000,199.209 169.637,198.484 170.417 M160.994 174.583 L 157.500 178.167 161.083 174.673 C 163.054 172.751,164.667 171.138,164.667 171.089 C 164.667 170.849,164.239 171.255,160.994 174.583 M129.750 173.909 C 130.438 173.981,131.563 173.981,132.250 173.909 C 132.938 173.838,132.375 173.779,131.000 173.779 C 129.625 173.779,129.063 173.838,129.750 173.909 M187.315 179.583 L 186.167 180.833 187.417 179.685 C 188.580 178.615,188.820 178.333,188.565 178.333 C 188.510 178.333,187.947 178.896,187.315 179.583 M252.319 184.417 C 253.137 185.287,253.849 186.000,253.903 186.000 C 254.153 186.000,253.888 185.701,252.417 184.319 L 250.833 182.833 252.319 184.417 M144.994 190.250 L 141.500 193.833 145.083 190.339 C 148.412 187.094,148.818 186.667,148.577 186.667 C 148.528 186.667,146.916 188.279,144.994 190.250 M106.917 188.902 C 107.329 188.981,108.004 188.981,108.417 188.902 C 108.829 188.822,108.492 188.757,107.667 188.757 C 106.842 188.757,106.504 188.822,106.917 188.902 M114.421 189.239 C 114.928 189.316,115.678 189.314,116.088 189.235 C 116.498 189.156,116.083 189.093,115.167 189.095 C 114.250 189.098,113.915 189.163,114.421 189.239 M264.913 193.999 C 265.535 194.673,265.729 194.732,266.080 194.355 C 266.419 193.989,266.416 193.950,266.062 194.150 C 265.811 194.293,265.314 194.141,264.896 193.795 C 264.183 193.205,264.183 193.209,264.913 193.999 M273.077 197.667 C 273.077 198.308,273.146 198.571,273.230 198.250 C 273.314 197.929,273.314 197.404,273.230 197.083 C 273.146 196.762,273.077 197.025,273.077 197.667 M285.411 202.000 C 285.411 202.642,285.479 202.904,285.563 202.583 C 285.647 202.262,285.647 201.737,285.563 201.417 C 285.479 201.096,285.411 201.358,285.411 202.000 M128.994 205.917 L 125.500 209.500 129.083 206.006 C 132.412 202.761,132.818 202.333,132.577 202.333 C 132.528 202.333,130.916 203.946,128.994 205.917 M183.088 202.573 C 183.595 202.649,184.345 202.647,184.755 202.568 C 185.165 202.489,184.750 202.426,183.833 202.429 C 182.917 202.431,182.581 202.496,183.088 202.573 M116.500 206.333 C 117.216 207.067,117.877 207.667,117.969 207.667 C 118.060 207.667,117.549 207.067,116.833 206.333 C 116.117 205.600,115.456 205.000,115.365 205.000 C 115.273 205.000,115.784 205.600,116.500 206.333 M285.744 208.000 C 285.744 208.642,285.813 208.904,285.896 208.583 C 285.980 208.262,285.980 207.737,285.896 207.417 C 285.813 207.096,285.744 207.358,285.744 208.000 M139.417 209.833 C 139.421 210.567,139.489 210.827,139.569 210.413 C 139.649 209.998,139.646 209.398,139.562 209.079 C 139.479 208.761,139.414 209.100,139.417 209.833 M167.421 213.906 C 167.928 213.982,168.678 213.980,169.088 213.901 C 169.498 213.822,169.083 213.760,168.167 213.762 C 167.250 213.765,166.915 213.829,167.421 213.906 M148.259 217.244 C 149.043 217.315,150.243 217.314,150.925 217.242 C 151.608 217.171,150.967 217.113,149.500 217.114 C 148.033 217.115,147.475 217.174,148.259 217.244 M337.667 221.500 C 338.289 222.142,338.872 222.667,338.964 222.667 C 339.056 222.667,338.622 222.142,338.000 221.500 C 337.378 220.858,336.794 220.333,336.703 220.333 C 336.611 220.333,337.045 220.858,337.667 221.500 M93.077 223.000 C 93.077 223.642,93.146 223.904,93.230 223.583 C 93.314 223.262,93.314 222.737,93.230 222.417 C 93.146 222.096,93.077 222.358,93.077 223.000 M117.751 223.167 C 117.754 223.900,117.823 224.161,117.902 223.746 C 117.982 223.331,117.979 222.731,117.896 222.413 C 117.812 222.094,117.747 222.433,117.751 223.167 M286.744 224.667 C 286.744 225.308,286.813 225.571,286.896 225.250 C 286.980 224.929,286.980 224.404,286.896 224.083 C 286.813 223.762,286.744 224.025,286.744 224.667 M93.084 227.500 C 93.088 228.233,93.156 228.494,93.236 228.079 C 93.315 227.665,93.312 227.065,93.229 226.746 C 93.146 226.427,93.080 226.767,93.084 227.500 M310.833 229.667 C 311.736 230.583,312.550 231.333,312.642 231.333 C 312.733 231.333,312.070 230.583,311.167 229.667 C 310.264 228.750,309.450 228.000,309.358 228.000 C 309.267 228.000,309.930 228.750,310.833 229.667 M287.077 230.667 C 287.077 231.308,287.146 231.571,287.230 231.250 C 287.314 230.929,287.314 230.404,287.230 230.083 C 287.146 229.762,287.077 230.025,287.077 230.667 M201.762 235.580 C 202.823 235.646,204.473 235.646,205.429 235.579 C 206.385 235.512,205.517 235.457,203.500 235.458 C 201.483 235.459,200.701 235.514,201.762 235.580 M240.000 241.833 C 239.190 242.658,238.603 243.333,238.695 243.333 C 238.786 243.333,239.524 242.658,240.333 241.833 C 241.143 241.008,241.730 240.333,241.639 240.333 C 241.547 240.333,240.810 241.008,240.000 241.833 M115.479 244.083 L 114.500 245.167 115.583 244.188 C 116.593 243.275,116.820 243.000,116.562 243.000 C 116.505 243.000,116.017 243.487,115.479 244.083 M118.982 246.250 L 117.833 247.500 119.083 246.351 C 120.247 245.282,120.487 245.000,120.232 245.000 C 120.176 245.000,119.614 245.563,118.982 246.250 M334.744 247.333 C 334.744 247.975,334.813 248.237,334.896 247.917 C 334.980 247.596,334.980 247.071,334.896 246.750 C 334.813 246.429,334.744 246.692,334.744 247.333 M308.167 251.000 C 309.809 252.650,311.228 254.000,311.319 254.000 C 311.411 254.000,310.142 252.650,308.500 251.000 C 306.858 249.350,305.439 248.000,305.347 248.000 C 305.256 248.000,306.524 249.350,308.167 251.000 M92.411 265.333 C 92.411 265.975,92.479 266.237,92.563 265.917 C 92.647 265.596,92.647 265.071,92.563 264.750 C 92.479 264.429,92.411 264.692,92.411 265.333 M92.757 271.667 C 92.757 272.492,92.822 272.829,92.902 272.417 C 92.981 272.004,92.981 271.329,92.902 270.917 C 92.822 270.504,92.757 270.842,92.757 271.667 M93.100 279.333 C 93.100 280.342,93.162 280.754,93.239 280.250 C 93.315 279.746,93.315 278.921,93.239 278.417 C 93.162 277.912,93.100 278.325,93.100 279.333 M156.921 281.236 C 157.335 281.315,157.935 281.312,158.254 281.229 C 158.573 281.146,158.233 281.080,157.500 281.084 C 156.767 281.088,156.506 281.156,156.921 281.236 M93.474 295.500 C 93.475 299.350,93.523 300.879,93.582 298.899 C 93.641 296.918,93.641 293.768,93.582 291.899 C 93.522 290.029,93.474 291.650,93.474 295.500 M104.091 294.000 C 104.091 294.825,104.156 295.162,104.235 294.750 C 104.315 294.337,104.315 293.662,104.235 293.250 C 104.156 292.837,104.091 293.175,104.091 294.000 M93.077 310.000 C 93.077 310.642,93.146 310.904,93.230 310.583 C 93.314 310.262,93.314 309.737,93.230 309.417 C 93.146 309.096,93.077 309.358,93.077 310.000 M378.084 312.500 C 378.088 313.233,378.156 313.494,378.236 313.079 C 378.315 312.665,378.312 312.065,378.229 311.746 C 378.146 311.427,378.080 311.767,378.084 312.500 M336.417 313.833 C 336.421 314.567,336.489 314.827,336.569 314.413 C 336.649 313.998,336.646 313.398,336.562 313.079 C 336.479 312.761,336.414 313.100,336.417 313.833 M115.744 315.667 C 115.744 316.308,115.813 316.571,115.896 316.250 C 115.980 315.929,115.980 315.404,115.896 315.083 C 115.813 314.762,115.744 315.025,115.744 315.667 M104.138 322.167 C 104.138 325.467,104.188 326.772,104.249 325.066 C 104.309 323.361,104.309 320.661,104.248 319.066 C 104.187 317.472,104.137 318.867,104.138 322.167 M116.077 321.000 C 116.077 321.642,116.146 321.904,116.230 321.583 C 116.314 321.262,116.314 320.737,116.230 320.417 C 116.146 320.096,116.077 320.358,116.077 321.000 M296.667 322.500 C 297.484 323.370,298.021 323.662,297.377 322.886 C 297.173 322.640,297.117 322.316,297.253 322.166 C 297.389 322.016,297.313 322.001,297.083 322.133 C 296.854 322.265,296.667 322.214,296.667 322.020 C 296.667 321.826,296.491 321.667,296.275 321.667 C 296.060 321.667,296.236 322.042,296.667 322.500 M336.411 324.667 C 336.411 325.308,336.479 325.571,336.563 325.250 C 336.647 324.929,336.647 324.404,336.563 324.083 C 336.479 323.762,336.411 324.025,336.411 324.667 M378.084 325.833 C 378.088 326.567,378.156 326.827,378.236 326.413 C 378.315 325.998,378.312 325.398,378.229 325.079 C 378.146 324.761,378.080 325.100,378.084 325.833 M302.167 327.667 C 303.255 328.767,304.221 329.667,304.312 329.667 C 304.404 329.667,303.589 328.767,302.500 327.667 C 301.411 326.567,300.446 325.667,300.354 325.667 C 300.263 325.667,301.078 326.567,302.167 327.667 M116.424 327.333 C 116.424 328.158,116.489 328.496,116.569 328.083 C 116.648 327.671,116.648 326.996,116.569 326.583 C 116.489 326.171,116.424 326.508,116.424 327.333 M295.667 328.833 C 296.289 329.475,296.872 330.000,296.964 330.000 C 297.056 330.000,296.622 329.475,296.000 328.833 C 295.378 328.192,294.794 327.667,294.703 327.667 C 294.611 327.667,295.045 328.192,295.667 328.833 M39.417 331.833 C 39.421 332.567,39.489 332.827,39.569 332.413 C 39.649 331.998,39.646 331.398,39.562 331.079 C 39.479 330.761,39.414 331.100,39.417 331.833 M156.417 331.833 C 156.421 332.567,156.489 332.827,156.569 332.413 C 156.649 331.998,156.646 331.398,156.562 331.079 C 156.479 330.761,156.414 331.100,156.417 331.833 M116.757 334.667 C 116.757 335.492,116.822 335.829,116.902 335.417 C 116.981 335.004,116.981 334.329,116.902 333.917 C 116.822 333.504,116.757 333.842,116.757 334.667 M156.100 341.000 C 156.100 342.008,156.162 342.421,156.239 341.917 C 156.315 341.412,156.315 340.587,156.239 340.083 C 156.162 339.579,156.100 339.992,156.100 341.000 M117.091 342.000 C 117.091 342.825,117.156 343.162,117.235 342.750 C 117.315 342.337,117.315 341.662,117.235 341.250 C 117.156 340.837,117.091 341.175,117.091 342.000 M46.333 344.500 C 47.514 345.692,48.556 346.667,48.647 346.667 C 48.739 346.667,47.848 345.692,46.667 344.500 C 45.486 343.308,44.444 342.333,44.353 342.333 C 44.261 342.333,45.152 343.308,46.333 344.500 M76.755 342.573 C 77.261 342.649,78.011 342.647,78.421 342.568 C 78.831 342.489,78.417 342.426,77.500 342.429 C 76.583 342.431,76.248 342.496,76.755 342.573 M362.084 345.833 C 362.088 346.567,362.156 346.827,362.236 346.413 C 362.315 345.998,362.312 345.398,362.229 345.079 C 362.146 344.761,362.080 345.100,362.084 345.833 M349.649 347.917 L 348.500 349.167 349.750 348.018 C 350.438 347.386,351.000 346.824,351.000 346.768 C 351.000 346.513,350.718 346.753,349.649 347.917 M117.417 348.833 C 117.421 349.567,117.489 349.827,117.569 349.413 C 117.649 348.998,117.646 348.398,117.562 348.079 C 117.479 347.761,117.414 348.100,117.417 348.833 M40.146 351.083 L 39.167 352.167 40.250 351.188 C 40.846 350.649,41.333 350.162,41.333 350.104 C 41.333 349.847,41.058 350.074,40.146 351.083 M19.757 355.333 C 19.757 356.158,19.822 356.496,19.902 356.083 C 19.981 355.671,19.981 354.996,19.902 354.583 C 19.822 354.171,19.757 354.508,19.757 355.333 M117.744 355.667 C 117.744 356.308,117.813 356.571,117.896 356.250 C 117.980 355.929,117.980 355.404,117.896 355.083 C 117.813 354.762,117.744 355.025,117.744 355.667 M118.077 361.000 C 118.077 361.642,118.146 361.904,118.230 361.583 C 118.314 361.262,118.314 360.738,118.230 360.417 C 118.146 360.096,118.077 360.358,118.077 361.000 M27.000 370.500 C 27.622 371.142,28.206 371.667,28.297 371.667 C 28.389 371.667,27.955 371.142,27.333 370.500 C 26.711 369.858,26.128 369.333,26.036 369.333 C 25.944 369.333,26.378 369.858,27.000 370.500 M174.333 385.104 C 174.333 385.162,174.821 385.649,175.417 386.188 L 176.500 387.167 175.521 386.083 C 174.608 385.074,174.333 384.847,174.333 385.104 M305.479 390.083 L 304.500 391.167 305.583 390.188 C 306.179 389.649,306.667 389.162,306.667 389.104 C 306.667 388.847,306.392 389.074,305.479 390.083 M334.744 391.000 C 334.744 391.642,334.813 391.904,334.896 391.583 C 334.980 391.262,334.980 390.738,334.896 390.417 C 334.813 390.096,334.744 390.358,334.744 391.000 M323.750 397.563 C 324.071 397.647,324.596 397.647,324.917 397.563 C 325.237 397.479,324.975 397.411,324.333 397.411 C 323.692 397.411,323.429 397.479,323.750 397.563 M306.923 410.908 C 307.522 410.982,308.422 410.981,308.923 410.905 C 309.424 410.829,308.933 410.768,307.833 410.770 C 306.733 410.772,306.324 410.834,306.923 410.908 M312.417 414.500 C 312.421 415.233,312.489 415.494,312.569 415.079 C 312.649 414.665,312.646 414.065,312.562 413.746 C 312.479 413.427,312.414 413.767,312.417 414.500 M337.826 416.750 L 335.167 419.500 337.917 416.841 C 339.429 415.379,340.667 414.141,340.667 414.091 C 340.667 413.848,340.295 414.196,337.826 416.750 M302.083 417.896 C 302.404 417.980,302.929 417.980,303.250 417.896 C 303.571 417.813,303.308 417.744,302.667 417.744 C 302.025 417.744,301.762 417.813,302.083 417.896 M179.167 429.333 C 179.883 430.067,180.544 430.667,180.635 430.667 C 180.727 430.667,180.216 430.067,179.500 429.333 C 178.784 428.600,178.123 428.000,178.031 428.000 C 177.940 428.000,178.451 428.600,179.167 429.333 M237.077 434.333 C 237.077 434.975,237.146 435.238,237.230 434.917 C 237.314 434.596,237.314 434.071,237.230 433.750 C 237.146 433.429,237.077 433.692,237.077 434.333 M270.750 434.230 C 271.071 434.314,271.596 434.314,271.917 434.230 C 272.237 434.146,271.975 434.077,271.333 434.077 C 270.692 434.077,270.429 434.146,270.750 434.230 M261.411 441.000 C 261.411 441.642,261.479 441.904,261.563 441.583 C 261.647 441.262,261.647 440.738,261.563 440.417 C 261.479 440.096,261.411 440.358,261.411 441.000 M183.333 443.167 C 184.329 444.175,185.219 445.000,185.311 445.000 C 185.402 445.000,184.662 444.175,183.667 443.167 C 182.671 442.158,181.781 441.333,181.689 441.333 C 181.598 441.333,182.338 442.158,183.333 443.167 " stroke="none" fill="#41280e" fill-rule="evenodd"></path><path id="path7" d="" stroke="none" fill="#4c4c4c" fill-rule="evenodd"></path><path id="path8" d="M73.757 128.333 C 73.757 129.158,73.822 129.496,73.902 129.083 C 73.981 128.671,73.981 127.996,73.902 127.583 C 73.822 127.171,73.757 127.508,73.757 128.333 M73.751 143.500 C 73.754 144.233,73.823 144.494,73.902 144.079 C 73.982 143.665,73.979 143.065,73.896 142.746 C 73.812 142.427,73.747 142.767,73.751 143.500 M224.750 358.563 C 225.071 358.647,225.596 358.647,225.917 358.563 C 226.237 358.479,225.975 358.411,225.333 358.411 C 224.692 358.411,224.429 358.479,224.750 358.563 M179.667 368.771 C 179.667 368.828,180.154 369.316,180.750 369.854 L 181.833 370.833 180.854 369.750 C 179.942 368.740,179.667 368.513,179.667 368.771 M17.667 376.771 C 17.667 376.828,18.154 377.316,18.750 377.854 L 19.833 378.833 18.854 377.750 C 17.942 376.740,17.667 376.513,17.667 376.771 M235.417 470.230 C 235.737 470.314,236.262 470.314,236.583 470.230 C 236.904 470.146,236.642 470.077,236.000 470.077 C 235.358 470.077,235.096 470.146,235.417 470.230 " stroke="none" fill="#2c2c2c" fill-rule="evenodd"></path></g></svg>