<svg id="svg" xmlns="http://www.w3.org/2000/svg" xmlns:xlink="http://www.w3.org/1999/xlink" width="400" height="372.7024567788899" viewBox="0, 0, 400,372.7024567788899"><g id="svgg"><path id="path0" d="" stroke="none" fill="#042c6c" fill-rule="evenodd"></path><path id="path1" d="M379.072 0.610 C 378.071 0.893,377.006 1.186,376.706 1.262 C 376.406 1.338,376.078 1.432,375.978 1.471 C 375.878 1.510,375.684 1.526,375.547 1.507 C 375.410 1.487,374.608 1.715,373.765 2.012 C 372.923 2.309,371.806 2.642,371.285 2.751 C 370.167 2.986,369.316 3.192,369.063 3.291 C 368.963 3.330,368.771 3.347,368.637 3.328 C 368.503 3.310,367.479 3.609,366.362 3.994 C 365.245 4.378,364.331 4.599,364.331 4.485 C 364.331 4.372,364.111 4.461,363.843 4.684 C 363.574 4.907,363.251 4.985,363.124 4.859 C 362.997 4.732,362.669 4.814,362.396 5.041 C 362.122 5.267,361.818 5.372,361.719 5.273 C 361.620 5.175,360.611 5.413,359.477 5.803 C 358.344 6.193,357.416 6.419,357.416 6.305 C 357.416 6.191,357.196 6.281,356.927 6.504 C 356.659 6.727,356.335 6.805,356.208 6.678 C 356.081 6.551,355.754 6.633,355.480 6.860 C 355.207 7.087,354.902 7.192,354.803 7.093 C 354.704 6.994,353.737 7.219,352.653 7.591 C 351.569 7.964,350.560 8.292,350.409 8.320 C 350.259 8.348,350.096 8.383,350.045 8.396 C 349.995 8.410,349.490 8.482,348.922 8.557 C 348.355 8.631,346.799 9.046,345.465 9.478 C 344.131 9.910,342.556 10.325,341.966 10.401 C 341.375 10.477,339.819 10.887,338.508 11.313 C 337.197 11.739,335.796 12.130,335.396 12.182 C 334.382 12.313,331.583 13.062,330.431 13.511 C 329.902 13.718,329.083 13.933,328.611 13.991 C 327.504 14.126,324.749 14.851,323.516 15.331 C 322.987 15.537,322.168 15.753,321.696 15.811 C 320.589 15.946,317.833 16.671,316.600 17.151 C 316.072 17.357,315.253 17.573,314.780 17.630 C 313.582 17.777,310.897 18.503,309.322 19.107 C 308.594 19.387,307.924 19.540,307.832 19.449 C 307.741 19.357,306.961 19.531,306.101 19.835 C 305.240 20.139,304.109 20.476,303.587 20.586 C 302.469 20.820,301.618 21.027,301.365 21.125 C 301.265 21.164,301.071 21.180,300.933 21.161 C 300.796 21.142,299.995 21.369,299.152 21.666 C 298.309 21.964,297.193 22.296,296.672 22.406 C 295.554 22.640,294.703 22.846,294.449 22.945 C 294.349 22.984,294.158 23.001,294.023 22.983 C 293.889 22.964,292.866 23.264,291.749 23.648 C 290.632 24.032,289.718 24.253,289.718 24.140 C 289.718 24.026,289.498 24.115,289.229 24.338 C 288.961 24.561,288.637 24.640,288.510 24.513 C 288.383 24.386,288.056 24.468,287.782 24.695 C 287.509 24.922,287.204 25.027,287.105 24.928 C 287.007 24.829,285.998 25.067,284.864 25.457 C 283.730 25.847,282.803 26.073,282.803 25.959 C 282.803 25.846,282.583 25.935,282.314 26.158 C 282.045 26.381,281.722 26.459,281.595 26.333 C 281.468 26.206,281.141 26.288,280.867 26.515 C 280.594 26.742,280.289 26.847,280.191 26.748 C 280.092 26.650,278.962 26.914,277.679 27.335 C 276.396 27.756,274.862 28.162,274.270 28.237 C 273.678 28.312,272.121 28.722,270.810 29.148 C 269.499 29.573,268.098 29.964,267.698 30.016 C 266.684 30.147,263.886 30.897,262.733 31.346 C 262.204 31.552,261.386 31.768,260.913 31.825 C 259.806 31.960,257.051 32.685,255.818 33.166 C 255.289 33.372,254.470 33.587,253.998 33.645 C 252.891 33.780,250.135 34.505,248.902 34.986 C 248.374 35.192,247.555 35.407,247.083 35.465 C 245.976 35.600,243.220 36.325,241.987 36.805 C 241.458 37.011,240.639 37.227,240.167 37.285 C 239.695 37.342,238.571 37.603,237.671 37.864 C 236.770 38.125,235.869 38.384,235.669 38.439 C 235.469 38.493,234.895 38.652,234.395 38.792 C 233.471 39.049,232.136 39.099,216.067 39.469 C 211.091 39.584,206.895 39.754,206.744 39.848 C 206.592 39.942,205.258 40.104,203.780 40.209 C 199.707 40.497,196.844 40.757,195.632 40.948 C 195.032 41.043,193.885 41.193,193.085 41.282 C 192.284 41.370,190.974 41.536,190.173 41.651 C 189.372 41.765,188.036 41.927,187.203 42.010 C 185.460 42.186,180.430 43.074,175.432 44.088 C 173.530 44.475,171.401 44.879,170.701 44.988 C 170.000 45.096,168.772 45.366,167.971 45.587 C 167.170 45.808,166.420 45.969,166.303 45.945 C 166.187 45.921,164.877 46.230,163.392 46.632 C 161.907 47.034,160.264 47.428,159.742 47.508 C 159.220 47.588,158.073 47.897,157.194 48.194 C 156.315 48.491,155.029 48.833,154.337 48.953 C 153.645 49.074,152.892 49.327,152.666 49.515 C 152.439 49.703,152.177 49.780,152.083 49.687 C 151.870 49.474,145.914 51.276,145.371 51.718 C 145.153 51.896,144.889 51.956,144.785 51.852 C 144.681 51.748,144.123 51.857,143.545 52.093 C 142.966 52.330,142.276 52.567,142.010 52.621 C 141.744 52.675,141.253 52.838,140.918 52.984 C 140.583 53.129,140.010 53.307,139.645 53.378 C 139.279 53.449,138.624 53.703,138.189 53.942 C 137.754 54.182,137.094 54.428,136.723 54.490 C 136.019 54.607,132.870 55.782,128.844 57.429 C 127.543 57.962,126.274 58.428,126.023 58.466 C 125.772 58.504,124.861 58.877,123.997 59.295 C 123.134 59.713,122.233 60.055,121.996 60.055 C 121.759 60.055,121.565 60.218,121.565 60.419 C 121.565 60.619,121.442 60.750,121.292 60.710 C 120.847 60.593,119.395 61.152,115.924 62.780 C 114.122 63.625,112.279 64.433,111.829 64.575 C 111.379 64.718,111.010 64.998,111.010 65.196 C 111.010 65.395,110.846 65.456,110.646 65.332 C 110.446 65.208,110.282 65.308,110.282 65.553 C 110.282 65.799,110.184 65.901,110.063 65.781 C 109.822 65.540,104.714 68.054,104.519 68.510 C 104.451 68.666,104.247 68.702,104.064 68.589 C 103.880 68.475,103.731 68.556,103.731 68.768 C 103.731 68.980,103.435 69.154,103.074 69.154 C 102.713 69.154,101.643 69.645,100.696 70.246 C 99.749 70.846,98.816 71.338,98.622 71.338 C 98.429 71.338,98.271 71.501,98.271 71.702 C 98.271 71.902,98.040 72.066,97.757 72.066 C 97.164 72.066,91.962 74.981,91.780 75.415 C 91.714 75.575,91.464 75.705,91.226 75.705 C 90.988 75.705,89.923 76.278,88.859 76.979 C 87.795 77.680,86.793 78.253,86.631 78.253 C 86.470 78.253,86.243 78.500,86.127 78.802 C 86.011 79.104,85.789 79.311,85.633 79.261 C 85.202 79.124,80.801 81.895,80.801 82.304 C 80.801 82.502,80.636 82.562,80.434 82.437 C 80.233 82.312,79.970 82.466,79.850 82.777 C 79.730 83.089,79.519 83.274,79.380 83.188 C 79.169 83.058,77.266 84.366,75.448 85.891 C 75.206 86.094,74.877 86.260,74.716 86.260 C 74.555 86.260,73.982 86.670,73.443 87.170 C 72.903 87.671,72.361 88.080,72.237 88.080 C 72.114 88.080,71.800 88.285,71.538 88.535 C 71.277 88.785,70.700 89.236,70.256 89.536 C 69.813 89.836,69.151 90.328,68.785 90.628 C 68.420 90.928,67.688 91.491,67.158 91.879 C 66.629 92.267,65.854 92.881,65.435 93.244 C 65.017 93.607,64.577 93.904,64.458 93.905 C 64.338 93.906,63.630 94.467,62.885 95.152 C 62.140 95.836,61.193 96.632,60.781 96.921 C 59.635 97.723,55.777 101.123,53.362 103.458 C 52.171 104.609,51.128 105.551,51.043 105.551 C 50.654 105.551,38.328 118.325,38.501 118.549 C 38.558 118.621,38.107 119.099,37.500 119.609 C 36.893 120.120,36.397 120.779,36.397 121.073 C 36.397 121.367,36.233 121.507,36.033 121.383 C 35.833 121.259,35.669 121.295,35.669 121.462 C 35.669 121.630,35.218 122.265,34.668 122.873 C 34.117 123.482,33.339 124.437,32.939 124.996 C 32.539 125.556,32.009 126.226,31.762 126.487 C 31.515 126.747,30.416 128.162,29.320 129.631 C 28.223 131.100,27.059 132.630,26.732 133.030 C 26.405 133.430,25.962 134.126,25.749 134.577 C 25.536 135.027,25.214 135.396,25.034 135.396 C 24.854 135.396,24.797 135.542,24.908 135.722 C 25.019 135.901,24.841 136.150,24.514 136.276 C 24.186 136.402,24.006 136.593,24.114 136.701 C 24.221 136.808,23.920 137.317,23.445 137.830 C 22.969 138.343,22.669 138.907,22.778 139.084 C 22.887 139.260,22.720 139.503,22.407 139.623 C 22.094 139.743,21.838 139.998,21.838 140.191 C 21.838 140.383,21.429 141.077,20.928 141.733 C 20.428 142.389,20.018 143.061,20.018 143.227 C 20.018 143.392,19.786 143.786,19.502 144.102 C 18.487 145.231,12.986 155.774,13.406 155.784 C 13.540 155.787,13.465 155.909,13.240 156.057 C 12.774 156.362,10.629 160.849,9.025 164.877 C 8.001 167.449,5.810 173.327,5.806 173.518 C 5.801 173.700,5.541 174.584,4.975 176.342 C 4.652 177.343,4.317 178.571,4.230 179.072 C 4.142 179.572,3.911 180.391,3.717 180.892 C 3.522 181.392,3.346 181.925,3.326 182.076 C 3.265 182.529,2.979 183.853,2.403 186.351 C 2.103 187.652,1.756 189.454,1.633 190.355 C 1.225 193.329,1.022 194.538,0.893 194.747 C 0.271 195.764,-0.096 217.589,0.432 222.202 C 1.220 229.097,2.305 235.161,3.525 239.490 C 4.570 243.199,6.367 248.407,6.645 248.530 C 6.796 248.597,6.816 248.820,6.689 249.025 C 6.562 249.231,6.612 249.503,6.800 249.631 C 6.989 249.759,7.434 250.805,7.791 251.956 C 8.147 253.106,8.587 254.140,8.769 254.252 C 8.951 254.364,9.099 254.741,9.099 255.090 C 9.099 255.438,9.304 255.928,9.554 256.178 C 9.804 256.429,10.024 256.748,10.042 256.888 C 10.120 257.495,11.397 260.075,11.719 260.277 C 11.914 260.400,12.048 260.564,12.016 260.641 C 11.894 260.947,12.717 262.728,13.086 262.956 C 13.302 263.089,13.384 263.351,13.269 263.537 C 13.154 263.724,13.261 263.876,13.506 263.876 C 13.751 263.876,13.841 263.987,13.706 264.122 C 13.571 264.258,13.779 264.708,14.169 265.123 C 14.559 265.538,14.882 266.005,14.885 266.160 C 14.897 266.645,16.157 268.608,16.457 268.608 C 16.614 268.608,16.742 268.935,16.742 269.336 C 16.742 269.736,16.906 270.064,17.106 270.064 C 17.307 270.064,17.470 270.285,17.470 270.556 C 17.470 270.828,17.872 271.483,18.363 272.012 C 18.854 272.542,19.176 272.975,19.079 272.975 C 18.793 272.975,21.923 277.135,22.448 277.452 C 22.713 277.612,22.930 277.981,22.930 278.271 C 22.930 278.561,23.058 278.799,23.215 278.799 C 23.372 278.799,23.770 279.249,24.099 279.800 C 24.428 280.350,25.646 281.783,26.807 282.985 C 27.967 284.186,28.921 285.264,28.926 285.381 C 28.938 285.645,37.518 294.160,39.531 295.905 C 42.366 298.365,44.488 300.094,45.080 300.429 C 45.409 300.614,45.842 300.960,46.042 301.198 C 46.558 301.810,50.422 304.641,50.742 304.641 C 50.888 304.641,51.236 304.845,51.515 305.096 C 52.875 306.316,54.667 307.562,56.779 308.757 C 59.040 310.037,59.202 309.749,50.821 319.305 C 46.691 324.014,43.312 327.944,43.312 328.039 C 43.312 328.133,42.647 328.927,41.834 329.801 C 41.021 330.676,39.874 331.910,39.286 332.544 C 38.698 333.177,38.217 333.783,38.217 333.889 C 38.217 333.996,37.111 335.242,35.760 336.659 C 34.409 338.075,33.290 339.354,33.274 339.499 C 33.259 339.644,32.081 340.988,30.658 342.485 C 29.235 343.982,28.109 345.246,28.157 345.294 C 28.205 345.342,27.059 346.648,25.612 348.198 C 24.164 349.747,23.060 351.145,23.159 351.304 C 23.257 351.462,23.175 351.592,22.977 351.592 C 22.656 351.592,17.987 356.786,14.013 361.564 C 13.212 362.526,12.136 363.747,11.622 364.277 C 10.790 365.135,6.167 370.400,4.784 372.066 C 3.925 373.099,5.072 372.878,6.369 371.761 C 6.970 371.243,7.912 370.553,8.462 370.227 C 9.013 369.901,9.463 369.505,9.463 369.348 C 9.463 369.191,9.682 369.063,9.948 369.063 C 10.215 369.063,10.911 368.576,11.495 367.981 C 12.079 367.386,12.697 366.895,12.868 366.889 C 13.166 366.879,15.682 365.016,16.665 364.076 C 16.922 363.830,17.618 363.342,18.212 362.992 C 18.805 362.641,19.290 362.226,19.290 362.069 C 19.290 361.912,19.509 361.783,19.776 361.783 C 20.042 361.783,20.739 361.297,21.322 360.702 C 21.906 360.107,22.524 359.615,22.696 359.610 C 22.959 359.601,25.644 357.652,26.206 357.061 C 26.794 356.443,29.491 354.504,29.763 354.504 C 29.942 354.504,30.566 354.017,31.150 353.422 C 31.733 352.827,32.351 352.336,32.523 352.330 C 32.787 352.322,35.471 350.373,36.033 349.782 C 36.621 349.164,39.318 347.225,39.590 347.225 C 39.769 347.225,40.393 346.738,40.977 346.143 C 41.561 345.548,42.178 345.057,42.350 345.051 C 42.614 345.042,45.298 343.094,45.860 342.503 C 46.418 341.915,49.138 339.945,49.391 339.945 C 49.555 339.945,50.097 339.577,50.595 339.126 C 51.094 338.676,52.170 337.854,52.988 337.299 C 53.805 336.744,54.794 336.007,55.184 335.661 C 56.663 334.350,58.932 332.666,59.218 332.666 C 59.382 332.666,59.924 332.298,60.422 331.847 C 60.921 331.397,61.997 330.574,62.815 330.020 C 63.632 329.465,64.621 328.728,65.011 328.382 C 66.490 327.071,68.759 325.387,69.045 325.387 C 69.209 325.387,69.751 325.018,70.249 324.568 C 70.748 324.117,71.824 323.295,72.642 322.740 C 73.459 322.186,74.448 321.449,74.838 321.103 C 76.317 319.792,78.586 318.107,78.872 318.107 C 79.036 318.107,79.578 317.739,80.077 317.288 C 80.575 316.838,81.679 315.997,82.530 315.419 C 83.380 314.841,84.076 314.227,84.076 314.054 C 84.076 313.881,84.308 313.740,84.592 313.740 C 84.876 313.740,85.162 313.617,85.229 313.467 C 85.407 313.066,88.350 310.828,88.699 310.828 C 88.863 310.828,89.405 310.460,89.904 310.009 C 90.402 309.559,91.506 308.717,92.357 308.140 C 93.207 307.562,93.904 306.948,93.904 306.775 C 93.904 306.602,94.136 306.460,94.419 306.460 C 94.703 306.460,94.989 306.338,95.056 306.187 C 95.234 305.787,98.178 303.549,98.527 303.549 C 98.690 303.549,99.232 303.180,99.731 302.730 C 100.229 302.279,101.333 301.438,102.184 300.860 C 103.035 300.283,103.731 299.668,103.731 299.496 C 103.731 299.323,103.963 299.181,104.246 299.181 C 104.530 299.181,104.816 299.048,104.883 298.885 C 104.950 298.722,106.151 297.796,107.552 296.827 C 108.954 295.858,110.182 294.967,110.282 294.847 C 110.382 294.728,111.160 294.157,112.011 293.580 C 112.862 293.003,113.558 292.389,113.558 292.216 C 113.558 292.043,113.720 291.902,113.918 291.902 C 114.278 291.902,114.784 291.530,117.067 289.589 C 117.739 289.018,118.289 288.659,118.289 288.792 C 118.289 289.047,122.586 285.892,123.203 285.184 C 123.403 284.954,124.386 284.212,125.387 283.535 C 126.388 282.858,127.323 282.130,127.466 281.917 C 127.609 281.703,127.858 281.529,128.019 281.529 C 128.466 281.529,133.212 277.972,133.212 277.637 C 133.212 277.475,133.381 277.343,133.587 277.343 C 133.793 277.343,134.762 276.729,135.741 275.978 C 136.721 275.227,138.454 273.958,139.594 273.157 C 140.734 272.357,142.029 271.374,142.472 270.974 C 142.915 270.573,144.083 269.679,145.069 268.986 C 146.054 268.294,147.060 267.475,147.304 267.166 C 147.548 266.858,147.753 266.738,147.759 266.899 C 147.771 267.198,156.478 260.713,156.948 260.055 C 157.090 259.854,157.339 259.691,157.500 259.691 C 157.947 259.691,162.693 256.134,162.693 255.799 C 162.693 255.637,162.875 255.505,163.098 255.505 C 163.320 255.505,164.285 254.850,165.241 254.049 C 166.198 253.248,167.093 252.593,167.230 252.593 C 167.492 252.593,170.225 250.554,174.522 247.151 C 175.924 246.042,177.166 245.134,177.284 245.133 C 177.402 245.132,179.531 243.612,182.016 241.754 C 184.500 239.896,188.662 236.789,191.265 234.851 C 193.867 232.912,196.051 231.198,196.118 231.041 C 196.184 230.884,196.435 230.755,196.674 230.755 C 196.912 230.755,197.646 230.264,198.303 229.663 C 198.961 229.063,199.570 228.571,199.656 228.571 C 199.958 228.571,207.280 223.026,207.401 222.706 C 207.467 222.529,207.670 222.384,207.852 222.384 C 208.104 222.384,216.416 216.379,218.562 214.647 C 218.763 214.485,220.482 213.205,222.384 211.801 C 224.286 210.397,226.224 208.928,226.692 208.537 C 227.159 208.145,227.682 207.825,227.854 207.825 C 228.026 207.825,228.421 207.461,228.733 207.016 C 229.044 206.571,229.299 206.325,229.299 206.470 C 229.299 206.714,234.620 202.880,236.519 201.268 C 236.986 200.871,237.454 200.546,237.558 200.546 C 237.760 200.546,240.326 198.584,241.424 197.589 C 242.109 196.969,241.519 197.009,238.035 197.822 C 237.534 197.938,236.551 198.114,235.851 198.211 C 235.150 198.309,230.482 199.195,225.478 200.181 C 220.473 201.167,209.172 203.377,200.364 205.092 C 191.556 206.807,183.204 208.438,181.803 208.717 C 178.991 209.276,178.423 209.142,179.800 208.244 C 180.300 207.918,181.173 207.199,181.739 206.646 C 182.305 206.094,182.835 205.641,182.917 205.641 C 183.000 205.641,183.356 205.406,183.708 205.119 C 186.453 202.882,189.175 200.609,189.836 200.000 C 190.599 199.297,191.873 198.243,193.498 196.970 C 196.266 194.801,197.156 194.065,198.093 193.176 C 198.672 192.625,199.213 192.175,199.296 192.175 C 199.378 192.175,199.734 191.939,200.087 191.651 C 200.439 191.363,201.465 190.529,202.366 189.797 C 205.656 187.123,207.222 185.784,208.205 184.804 C 208.757 184.254,209.389 183.803,209.609 183.803 C 209.829 183.803,210.009 183.667,210.009 183.501 C 210.009 183.335,210.418 182.980,210.918 182.712 C 211.419 182.444,211.750 182.148,211.656 182.053 C 211.561 181.959,212.222 181.413,213.123 180.842 C 214.025 180.270,214.857 179.556,214.973 179.255 C 215.088 178.954,215.411 178.708,215.690 178.708 C 215.968 178.708,216.197 178.548,216.197 178.353 C 216.197 178.158,216.647 177.760,217.197 177.469 C 217.748 177.177,219.005 176.190,219.990 175.276 C 220.976 174.361,221.834 173.612,221.897 173.612 C 222.101 173.612,223.596 172.364,224.550 171.398 C 225.060 170.880,225.663 170.389,225.890 170.306 C 226.322 170.148,228.976 167.952,230.803 166.242 C 231.391 165.692,231.947 165.241,232.038 165.241 C 232.226 165.241,232.530 165.001,236.033 162.085 C 237.434 160.919,238.900 159.718,239.290 159.418 C 239.680 159.117,240.418 158.448,240.928 157.931 C 241.439 157.413,242.042 156.922,242.268 156.839 C 242.700 156.681,245.355 154.485,247.181 152.775 C 247.770 152.225,248.325 151.774,248.416 151.774 C 248.605 151.774,248.908 151.535,252.411 148.618 C 253.813 147.452,255.278 146.251,255.669 145.951 C 256.059 145.651,256.821 144.955,257.362 144.404 C 257.902 143.854,258.484 143.401,258.654 143.398 C 258.824 143.395,259.647 142.781,260.484 142.033 C 262.864 139.905,264.028 138.926,265.343 137.944 C 266.013 137.443,267.635 136.133,268.949 135.032 C 270.263 133.931,271.656 132.785,272.044 132.484 C 272.433 132.184,273.224 131.488,273.801 130.937 C 274.379 130.387,274.938 129.936,275.044 129.936 C 275.371 129.936,277.418 128.117,277.098 128.110 C 276.932 128.107,277.370 127.742,278.071 127.298 C 278.772 126.855,279.643 126.121,280.008 125.667 C 280.373 125.212,280.835 124.841,281.035 124.841 C 281.235 124.841,281.610 124.636,281.868 124.386 C 282.126 124.136,282.963 123.439,283.728 122.839 C 287.864 119.590,294.791 113.813,296.209 112.429 C 296.743 111.908,297.361 111.417,297.583 111.337 C 298.067 111.163,301.119 108.679,302.568 107.279 C 303.138 106.729,303.672 106.278,303.755 106.278 C 303.837 106.278,304.193 106.040,304.545 105.750 C 304.898 105.459,306.253 104.353,307.557 103.293 C 308.860 102.232,310.279 101.037,310.710 100.637 C 311.140 100.237,311.957 99.538,312.525 99.085 C 313.093 98.632,313.908 97.977,314.336 97.629 C 314.763 97.282,315.742 96.506,316.509 95.905 C 317.277 95.305,318.401 94.350,319.007 93.783 L 320.109 92.753 318.835 92.986 C 318.135 93.114,316.988 93.284,316.288 93.364 C 314.897 93.523,312.265 93.879,310.828 94.103 C 310.328 94.181,309.017 94.335,307.916 94.446 C 306.815 94.557,305.505 94.726,305.005 94.822 C 304.504 94.918,303.358 95.091,302.457 95.207 C 301.556 95.322,300.409 95.480,299.909 95.558 C 299.409 95.635,298.262 95.790,297.361 95.902 C 296.460 96.013,295.232 96.177,294.631 96.265 C 294.031 96.353,292.884 96.506,292.084 96.606 C 291.283 96.705,289.891 96.888,288.990 97.012 C 285.870 97.441,285.522 97.485,283.348 97.733 C 282.147 97.870,281.068 98.040,280.951 98.111 C 280.833 98.183,279.851 98.333,278.767 98.446 C 277.684 98.559,276.306 98.724,275.705 98.813 C 275.105 98.901,273.876 99.065,272.975 99.177 C 272.075 99.289,270.846 99.453,270.246 99.541 C 269.645 99.629,268.417 99.793,267.516 99.905 C 266.615 100.017,265.387 100.179,264.786 100.264 C 264.186 100.350,262.806 100.524,261.721 100.652 C 260.636 100.780,259.407 100.952,258.991 101.034 C 255.806 101.665,254.345 101.616,255.021 100.900 C 255.387 100.512,255.790 100.213,255.915 100.234 C 256.040 100.255,256.622 99.864,257.206 99.363 C 257.791 98.863,258.999 97.882,259.890 97.184 C 262.386 95.230,262.811 94.876,263.723 93.995 C 264.190 93.544,264.734 93.176,264.934 93.176 C 265.133 93.176,265.427 92.963,265.587 92.702 C 265.747 92.442,266.451 91.837,267.152 91.357 C 267.853 90.878,268.790 90.104,269.235 89.638 C 269.681 89.172,270.172 88.776,270.327 88.758 C 270.643 88.722,273.038 86.853,274.279 85.676 C 274.723 85.255,275.349 84.810,275.669 84.687 C 275.989 84.564,276.251 84.299,276.251 84.097 C 276.251 83.896,276.711 83.493,277.274 83.202 C 278.190 82.728,283.479 78.609,285.009 77.177 C 285.339 76.868,286.142 76.206,286.792 75.705 C 287.442 75.205,288.191 74.591,288.456 74.340 C 288.721 74.090,289.044 73.885,289.175 73.885 C 289.368 73.885,293.271 70.806,295.538 68.865 C 296.291 68.220,300.083 65.243,302.123 63.694 C 303.782 62.435,306.095 60.558,307.728 59.145 C 308.190 58.744,309.112 58.007,309.777 57.507 C 310.442 57.006,311.278 56.310,311.635 55.960 C 311.992 55.610,312.284 55.420,312.284 55.539 C 312.284 55.723,314.893 53.694,316.652 52.143 C 316.952 51.878,317.607 51.334,318.107 50.933 C 320.303 49.176,321.504 48.182,322.148 47.589 C 322.528 47.238,322.839 47.045,322.839 47.160 C 322.839 47.274,323.059 47.151,323.327 46.887 C 323.596 46.622,324.362 45.996,325.030 45.496 C 326.372 44.490,328.379 42.884,328.662 42.588 C 328.763 42.484,329.462 41.937,330.218 41.374 C 330.973 40.811,331.956 39.993,332.401 39.556 C 332.847 39.119,333.703 38.448,334.304 38.065 C 335.296 37.432,339.971 33.726,341.457 32.393 C 341.792 32.093,342.582 31.438,343.212 30.937 C 343.842 30.437,344.676 29.710,345.064 29.322 C 345.451 28.934,345.769 28.741,345.769 28.893 C 345.769 29.045,345.989 28.953,346.257 28.688 C 346.526 28.424,347.292 27.798,347.960 27.298 C 348.628 26.797,349.673 25.978,350.283 25.478 C 350.892 24.977,351.663 24.344,351.996 24.071 C 352.329 23.798,353.013 23.208,353.516 22.759 C 354.020 22.311,354.693 21.843,355.014 21.720 C 355.334 21.597,355.596 21.332,355.596 21.131 C 355.596 20.930,356.046 20.532,356.597 20.247 C 357.481 19.789,362.894 15.605,364.443 14.182 C 364.762 13.889,365.537 13.239,366.165 12.739 C 366.793 12.238,367.620 11.542,368.002 11.192 C 368.385 10.842,368.794 10.570,368.911 10.589 C 369.027 10.607,369.562 10.239,370.099 9.770 C 370.635 9.301,371.646 8.486,372.344 7.960 C 373.041 7.433,374.052 6.614,374.590 6.140 C 375.128 5.666,376.080 4.868,376.705 4.368 C 377.331 3.867,378.161 3.140,378.549 2.752 C 378.936 2.364,379.254 2.158,379.254 2.294 C 379.254 2.429,379.540 2.305,379.891 2.018 C 380.241 1.730,380.911 1.195,381.379 0.827 C 382.492 -0.046,381.669 -0.124,379.072 0.610 M217.288 52.661 C 217.288 52.837,216.527 53.753,215.596 54.698 C 214.664 55.642,213.986 56.415,214.088 56.415 C 214.189 56.415,213.518 57.202,212.596 58.165 C 210.522 60.329,208.353 62.716,205.278 66.217 C 203.976 67.698,202.594 69.210,202.206 69.578 C 201.818 69.945,201.604 70.246,201.731 70.246 C 201.857 70.246,201.192 71.030,200.253 71.989 C 199.313 72.948,197.826 74.545,196.947 75.538 C 194.633 78.154,192.295 80.771,190.774 82.447 C 186.573 87.077,183.730 90.272,182.537 91.705 C 181.793 92.598,180.985 93.499,180.740 93.707 C 180.290 94.090,175.873 99.045,174.291 100.941 C 173.818 101.509,172.898 102.477,172.247 103.093 C 171.597 103.708,171.065 104.344,171.065 104.506 C 171.065 104.669,170.287 105.601,169.336 106.577 C 167.263 108.707,165.383 110.770,162.693 113.870 C 161.592 115.139,160.200 116.706,159.600 117.353 C 156.183 121.033,152.926 124.691,152.874 124.906 C 152.841 125.042,152.047 125.942,151.110 126.908 C 149.496 128.569,145.606 132.880,142.464 136.488 C 141.679 137.389,140.792 138.325,140.491 138.569 C 140.191 138.813,140.075 139.018,140.234 139.024 C 140.393 139.030,139.880 139.650,139.095 140.400 C 138.310 141.151,136.788 142.760,135.713 143.977 C 134.638 145.193,132.537 147.541,131.044 149.195 C 129.551 150.849,127.991 152.660,127.577 153.221 C 127.164 153.781,126.338 154.713,125.742 155.291 C 123.868 157.109,121.201 160.231,121.201 160.606 C 121.201 160.946,122.259 160.858,125.023 160.286 C 125.623 160.162,126.360 160.062,126.661 160.063 C 126.961 160.064,127.862 159.932,128.662 159.769 C 130.902 159.314,132.973 158.980,133.576 158.977 C 133.876 158.975,134.777 158.840,135.578 158.677 C 137.818 158.222,139.888 157.888,140.491 157.885 C 140.792 157.883,141.692 157.748,142.493 157.586 C 144.472 157.184,146.570 156.854,148.317 156.671 C 149.117 156.587,150.182 156.431,150.682 156.324 C 152.705 155.892,153.476 155.760,154.868 155.609 C 156.894 155.388,163.514 154.307,163.763 154.156 C 163.875 154.088,165.032 153.919,166.333 153.780 C 167.634 153.642,169.518 153.373,170.519 153.182 C 171.520 152.991,173.135 152.746,174.108 152.637 L 175.878 152.439 174.836 153.745 C 174.263 154.463,173.640 155.050,173.451 155.050 C 173.263 155.050,170.594 157.589,167.521 160.692 C 164.448 163.794,161.841 166.333,161.727 166.333 C 161.614 166.333,159.074 168.749,156.083 171.702 C 153.092 174.654,148.155 179.469,145.113 182.401 C 130.796 196.201,127.609 199.297,122.223 204.641 C 119.045 207.793,116.341 210.373,116.214 210.373 C 116.087 210.373,113.544 212.830,110.563 215.833 C 107.582 218.835,105.043 221.292,104.922 221.292 C 104.801 221.292,102.264 223.708,99.284 226.661 C 96.305 229.613,91.378 234.431,88.335 237.368 C 85.292 240.304,80.202 245.217,77.024 248.287 C 73.846 251.356,70.181 254.891,68.879 256.142 C 66.158 258.757,66.146 258.750,71.702 257.693 C 75.608 256.949,81.889 255.802,90.628 254.238 C 99.110 252.720,100.846 252.401,104.641 251.664 C 110.521 250.523,111.243 250.536,109.968 251.760 C 109.595 252.118,107.942 253.967,106.296 255.869 C 104.649 257.771,102.933 259.736,102.482 260.237 C 102.031 260.737,96.857 266.633,90.985 273.339 C 85.112 280.045,80.191 285.497,80.048 285.455 C 78.991 285.138,75.223 283.204,71.747 281.193 C 69.469 279.876,67.475 278.799,67.314 278.799 C 67.153 278.799,66.806 278.591,66.541 278.337 C 66.276 278.083,64.340 276.739,62.238 275.349 C 57.396 272.148,54.458 269.964,51.865 267.638 C 51.065 266.920,49.681 265.738,48.790 265.013 C 46.914 263.485,40.121 256.633,40.303 256.452 C 40.370 256.385,39.846 255.822,39.139 255.201 C 38.431 254.580,37.853 253.936,37.853 253.770 C 37.853 253.604,37.238 252.821,36.488 252.030 C 35.737 251.239,34.898 250.156,34.624 249.624 C 34.350 249.092,33.672 248.159,33.117 247.552 C 32.562 246.945,32.174 246.382,32.254 246.302 C 32.335 246.222,31.993 245.717,31.496 245.180 C 30.999 244.644,30.619 244.168,30.651 244.122 C 30.684 244.077,30.066 242.924,29.277 241.559 C 28.489 240.194,27.613 238.638,27.332 238.101 C 27.051 237.564,26.642 237.004,26.422 236.857 C 26.203 236.710,26.138 236.587,26.277 236.584 C 26.417 236.581,26.048 235.661,25.458 234.540 C 24.868 233.419,24.386 232.272,24.386 231.992 C 24.386 231.712,24.257 231.483,24.099 231.483 C 23.942 231.483,23.790 231.179,23.762 230.808 C 23.734 230.436,23.391 229.413,23.000 228.533 C 22.048 226.394,21.654 225.254,20.745 222.020 C 20.324 220.519,19.883 219.045,19.766 218.744 C 19.649 218.444,19.514 217.953,19.467 217.652 C 19.420 217.352,19.022 215.141,18.584 212.739 C 17.131 204.779,16.772 188.796,17.966 185.259 C 18.068 184.959,18.247 183.832,18.364 182.755 C 18.482 181.678,18.645 180.688,18.727 180.556 C 18.809 180.423,18.965 179.667,19.075 178.874 C 19.373 176.719,20.782 171.043,21.345 169.736 C 21.616 169.105,21.838 168.276,21.838 167.893 C 21.838 167.511,22.155 166.542,22.542 165.740 C 22.930 164.938,23.364 163.813,23.508 163.239 C 23.652 162.665,23.982 161.787,24.241 161.288 C 24.501 160.788,24.629 160.245,24.528 160.081 C 24.426 159.916,24.516 159.782,24.728 159.782 C 24.940 159.782,25.114 159.609,25.114 159.398 C 25.114 158.956,26.337 156.072,27.151 154.595 C 27.454 154.045,27.616 153.594,27.511 153.594 C 27.406 153.594,27.722 153.002,28.213 152.277 C 28.705 151.553,29.018 150.816,28.909 150.639 C 28.800 150.463,28.894 150.318,29.117 150.318 C 29.341 150.318,29.423 150.155,29.299 149.955 C 29.176 149.754,29.235 149.591,29.432 149.591 C 29.628 149.591,29.978 149.017,30.209 148.317 C 30.441 147.616,30.770 147.043,30.941 147.043 C 31.112 147.043,31.361 146.700,31.494 146.281 C 31.627 145.862,32.194 144.838,32.754 144.006 C 33.313 143.174,34.150 141.756,34.613 140.855 C 35.076 139.955,35.644 139.054,35.875 138.854 C 36.353 138.440,38.751 134.950,38.758 134.659 C 38.762 134.478,39.256 133.850,40.335 132.653 C 40.600 132.360,40.682 132.118,40.517 132.115 C 40.353 132.111,40.406 131.989,40.635 131.842 C 40.865 131.694,42.389 129.936,44.023 127.934 C 49.145 121.661,56.815 113.684,63.020 108.177 C 64.151 107.173,65.404 106.049,65.804 105.678 C 67.013 104.560,68.624 103.225,69.655 102.489 C 70.191 102.107,71.023 101.452,71.504 101.034 C 71.985 100.615,73.086 99.765,73.951 99.144 C 74.816 98.523,76.915 97.016,78.617 95.797 C 80.318 94.577,81.984 93.338,82.317 93.044 C 82.651 92.749,83.019 92.604,83.136 92.721 C 83.253 92.837,83.348 92.742,83.348 92.508 C 83.348 92.275,83.577 92.084,83.856 92.084 C 84.134 92.084,84.461 91.828,84.581 91.515 C 84.701 91.202,84.964 91.048,85.166 91.172 C 85.367 91.297,85.532 91.225,85.532 91.013 C 85.532 90.801,85.758 90.628,86.034 90.628 C 86.309 90.628,86.753 90.365,87.020 90.044 C 87.286 89.723,87.839 89.314,88.247 89.135 C 89.174 88.729,90.262 88.038,90.911 87.443 C 91.184 87.193,91.562 86.988,91.750 86.988 C 91.938 86.988,93.548 86.087,95.328 84.986 C 97.108 83.885,98.673 82.985,98.807 82.985 C 98.941 82.985,99.735 82.513,100.571 81.938 C 102.065 80.910,102.297 80.801,102.977 80.801 C 103.163 80.801,103.532 80.596,103.797 80.346 C 104.416 79.762,111.853 76.069,112.409 76.069 C 112.641 76.069,112.830 75.905,112.830 75.705 C 112.830 75.505,112.953 75.379,113.103 75.425 C 113.253 75.472,114.195 75.128,115.196 74.662 C 119.272 72.765,122.198 71.503,123.840 70.935 C 124.591 70.676,125.205 70.367,125.205 70.250 C 125.205 70.133,125.491 70.013,125.842 69.984 C 126.192 69.955,127.298 69.558,128.298 69.101 C 129.299 68.643,130.773 68.081,131.574 67.851 C 133.683 67.244,136.639 66.101,136.861 65.807 C 136.966 65.667,137.621 65.458,138.317 65.341 C 139.012 65.224,141.338 64.547,143.485 63.838 C 145.632 63.129,147.472 62.553,147.573 62.559 C 147.675 62.566,148.334 62.330,149.038 62.036 C 149.742 61.741,150.318 61.576,150.318 61.668 C 150.318 61.760,151.219 61.525,152.320 61.146 C 153.421 60.768,154.322 60.541,154.322 60.642 C 154.322 60.743,154.527 60.697,154.777 60.540 C 155.027 60.383,155.641 60.204,156.142 60.142 C 156.642 60.080,157.953 59.758,159.054 59.428 C 160.155 59.097,161.435 58.784,161.900 58.733 C 162.364 58.681,163.265 58.476,163.902 58.278 C 164.946 57.954,171.787 56.596,174.522 56.171 C 175.123 56.077,177.006 55.756,178.708 55.458 C 180.409 55.160,182.375 54.840,183.076 54.748 C 183.776 54.656,184.759 54.520,185.259 54.446 C 189.012 53.891,197.243 53.124,201.820 52.901 C 204.222 52.785,206.215 52.668,206.248 52.641 C 206.553 52.401,217.288 52.420,217.288 52.661 M329.572 63.759 C 329.372 63.935,327.819 65.158,326.122 66.476 C 324.424 67.794,322.745 69.206,322.391 69.615 C 322.037 70.023,321.747 70.209,321.747 70.028 C 321.746 69.848,321.337 70.176,320.837 70.757 C 320.336 71.339,319.927 71.697,319.927 71.553 C 319.927 71.315,315.931 74.457,313.658 76.481 L 312.735 77.303 314.144 78.324 C 314.919 78.886,315.719 79.345,315.920 79.345 C 316.122 79.345,316.288 79.471,316.288 79.626 C 316.288 79.781,316.861 80.216,317.561 80.593 C 318.262 80.971,318.835 81.417,318.835 81.586 C 318.835 81.755,318.989 81.893,319.177 81.893 C 319.365 81.893,320.051 82.380,320.703 82.975 C 321.355 83.570,321.955 83.989,322.038 83.907 C 322.121 83.824,322.551 84.115,322.995 84.553 C 323.439 84.992,324.911 86.251,326.267 87.352 C 327.622 88.453,329.582 90.173,330.621 91.174 C 331.660 92.175,333.135 93.526,333.897 94.177 C 334.660 94.827,335.145 95.363,334.976 95.367 C 334.807 95.371,335.517 96.231,336.555 97.278 C 339.628 100.377,340.951 101.876,340.771 102.055 C 340.678 102.148,340.946 102.439,341.366 102.701 C 341.786 102.963,342.129 103.375,342.129 103.616 C 342.129 103.856,342.493 104.308,342.938 104.620 C 343.383 104.932,343.624 105.187,343.473 105.187 C 343.322 105.187,343.830 106.046,344.603 107.097 C 345.375 108.148,346.630 109.991,347.392 111.192 C 348.154 112.393,348.933 113.476,349.124 113.598 C 349.315 113.721,349.479 113.967,349.489 114.144 C 349.524 114.764,350.256 116.106,350.559 116.106 C 350.727 116.106,350.864 116.367,350.864 116.687 C 350.864 117.007,351.501 118.522,352.278 120.054 C 354.407 124.249,355.379 126.401,355.504 127.194 C 355.565 127.588,355.851 128.269,356.139 128.708 C 356.426 129.148,356.736 129.917,356.827 130.418 C 356.918 130.919,357.164 131.649,357.373 132.040 C 357.583 132.432,357.676 132.831,357.580 132.926 C 357.485 133.022,357.656 133.699,357.962 134.430 C 358.267 135.161,358.441 135.760,358.347 135.760 C 358.253 135.760,358.407 136.415,358.690 137.216 C 358.972 138.016,359.136 138.672,359.054 138.672 C 358.971 138.672,359.130 139.312,359.406 140.094 C 359.682 140.877,359.833 141.592,359.741 141.684 C 359.650 141.776,359.730 142.568,359.921 143.446 C 361.328 149.944,361.568 161.037,360.489 169.699 C 360.395 170.450,360.253 171.596,360.172 172.247 C 359.956 173.986,358.286 181.208,357.216 185.030 C 356.704 186.858,356.227 188.599,356.155 188.899 C 356.083 189.199,355.819 189.936,355.568 190.537 C 355.317 191.137,355.083 191.711,355.049 191.811 C 355.015 191.911,354.878 192.279,354.746 192.630 C 354.613 192.980,354.395 193.553,354.263 193.904 C 354.130 194.254,354.001 194.622,353.977 194.722 C 353.952 194.823,353.753 195.232,353.533 195.632 C 353.314 196.033,353.023 196.881,352.886 197.518 C 352.749 198.155,352.402 198.871,352.115 199.109 C 351.828 199.348,351.592 199.713,351.592 199.921 C 351.592 200.514,348.455 206.583,346.284 210.191 C 345.200 211.993,343.963 214.118,343.536 214.913 C 342.844 216.202,339.905 220.375,337.666 223.247 C 337.218 223.821,336.428 224.912,335.910 225.671 C 335.391 226.429,334.736 227.281,334.454 227.564 C 334.171 227.847,333.449 228.707,332.848 229.476 C 332.247 230.245,331.347 231.309,330.846 231.842 C 330.346 232.376,328.872 234.006,327.571 235.465 C 324.550 238.853,318.851 244.586,318.504 244.586 C 318.358 244.586,317.912 244.955,317.512 245.405 C 317.113 245.855,315.745 247.125,314.473 248.226 C 313.201 249.327,311.612 250.757,310.942 251.404 C 310.272 252.052,309.629 252.567,309.514 252.550 C 309.398 252.533,308.582 253.187,307.700 254.003 C 306.818 254.819,306.096 255.378,306.096 255.245 C 306.096 255.112,305.791 255.321,305.417 255.709 C 305.044 256.097,304.430 256.622,304.052 256.874 C 301.396 258.654,294.973 263.351,294.874 263.587 C 294.807 263.746,294.581 263.876,294.372 263.876 C 294.162 263.876,293.193 264.449,292.217 265.150 C 291.242 265.851,290.337 266.424,290.206 266.424 C 290.076 266.424,289.432 266.833,288.776 267.334 C 288.120 267.834,287.408 268.244,287.194 268.244 C 286.981 268.244,286.806 268.405,286.806 268.601 C 286.806 268.797,286.397 269.061,285.896 269.186 C 285.396 269.312,284.986 269.543,284.986 269.700 C 284.986 269.857,284.577 270.088,284.076 270.213 C 283.576 270.339,283.167 270.602,283.167 270.799 C 283.167 270.995,282.921 271.156,282.621 271.156 C 282.320 271.156,282.075 271.319,282.075 271.520 C 282.075 271.720,281.838 271.884,281.549 271.884 C 281.014 271.884,278.402 273.281,278.070 273.745 C 277.969 273.886,277.191 274.280,276.341 274.620 C 275.491 274.960,274.795 275.364,274.795 275.517 C 274.795 275.671,274.324 275.891,273.747 276.006 C 273.171 276.121,272.445 276.469,272.135 276.779 C 271.825 277.089,271.380 277.343,271.146 277.343 C 270.780 277.343,265.748 279.765,261.256 282.102 C 260.516 282.487,259.743 282.803,259.537 282.803 C 259.332 282.803,258.300 283.200,257.244 283.686 C 254.047 285.155,249.906 286.806,249.415 286.806 C 249.161 286.806,248.954 286.970,248.954 287.170 C 248.954 287.370,248.621 287.534,248.214 287.534 C 247.807 287.534,246.865 287.804,246.121 288.133 C 245.377 288.463,244.453 288.794,244.069 288.868 C 243.684 288.943,243.152 289.185,242.886 289.406 C 242.620 289.626,242.402 289.685,242.402 289.536 C 242.402 289.387,242.157 289.469,241.856 289.718 C 241.556 289.967,241.310 290.070,241.310 289.946 C 241.310 289.822,240.450 290.059,239.399 290.471 C 238.348 290.884,237.325 291.260,237.125 291.307 C 236.534 291.445,232.577 292.650,230.027 293.469 C 228.726 293.887,227.334 294.281,226.934 294.344 C 226.533 294.407,225.610 294.694,224.882 294.981 C 224.154 295.268,223.462 295.406,223.344 295.288 C 223.226 295.170,222.906 295.259,222.632 295.486 C 222.359 295.713,222.038 295.802,221.920 295.684 C 221.801 295.565,221.492 295.600,221.232 295.761 C 220.972 295.921,220.510 296.087,220.207 296.128 C 219.903 296.170,219.245 296.300,218.744 296.417 C 218.244 296.535,217.261 296.734,216.561 296.861 C 215.860 296.988,215.082 297.255,214.832 297.453 C 214.581 297.652,214.377 297.736,214.377 297.641 C 214.377 297.545,212.452 297.858,210.100 298.335 C 207.748 298.813,205.414 299.261,204.914 299.332 C 204.413 299.402,203.512 299.551,202.912 299.663 C 202.311 299.775,201.083 299.963,200.182 300.081 C 199.281 300.199,198.135 300.370,197.634 300.460 C 195.864 300.780,194.517 300.972,192.539 301.187 C 191.438 301.307,189.964 301.472,189.263 301.554 C 184.894 302.063,183.982 302.145,176.524 302.693 C 169.063 303.241,150.820 302.997,144.313 302.263 C 143.512 302.172,141.793 302.014,140.491 301.911 C 139.190 301.808,137.552 301.639,136.852 301.536 C 136.151 301.433,135.005 301.280,134.304 301.197 C 133.603 301.113,132.498 300.932,131.847 300.795 C 131.066 300.631,130.664 300.685,130.664 300.955 C 130.664 301.181,130.494 301.365,130.285 301.365 C 130.076 301.365,129.708 301.534,129.466 301.740 C 129.224 301.946,127.675 303.110,126.024 304.326 C 124.372 305.542,123.021 306.693,123.021 306.884 C 123.021 307.075,122.857 307.130,122.657 307.006 C 122.457 306.883,122.293 306.955,122.293 307.167 C 122.293 307.379,122.125 307.552,121.920 307.552 C 121.427 307.552,117.925 310.173,117.925 310.542 C 117.925 310.699,117.750 310.828,117.535 310.828 C 117.321 310.828,116.932 311.033,116.670 311.283 C 116.409 311.533,115.834 311.984,115.394 312.284 C 112.741 314.093,109.719 316.391,109.615 316.679 C 109.548 316.864,109.298 317.015,109.059 317.015 C 108.820 317.015,108.087 317.507,107.429 318.107 C 106.771 318.708,106.155 319.199,106.059 319.199 C 105.962 319.199,105.686 319.371,105.444 319.580 C 105.202 319.790,102.875 321.516,100.273 323.416 C 95.794 326.686,95.125 327.341,96.182 327.424 C 96.430 327.443,96.879 327.561,97.179 327.685 C 98.702 328.316,105.400 330.330,107.006 330.640 C 107.307 330.698,107.798 330.836,108.098 330.946 C 108.550 331.113,111.663 331.901,115.844 332.907 C 118.305 333.499,121.201 334.009,121.201 333.851 C 121.201 333.751,121.406 333.832,121.656 334.031 C 121.906 334.231,122.904 334.509,123.873 334.649 C 124.842 334.790,125.927 334.961,126.283 335.029 C 128.711 335.497,129.894 335.681,130.868 335.743 C 131.481 335.782,132.136 335.906,132.324 336.019 C 132.512 336.132,133.649 336.341,134.850 336.484 C 136.051 336.626,137.607 336.817,138.308 336.908 C 139.008 336.998,140.155 337.135,140.855 337.211 C 141.556 337.288,143.603 337.518,145.405 337.723 C 158.173 339.177,183.727 338.937,197.816 337.230 C 198.417 337.157,199.891 336.998,201.092 336.876 C 202.293 336.754,203.767 336.581,204.368 336.492 C 204.968 336.404,206.278 336.242,207.279 336.134 C 208.280 336.025,209.591 335.830,210.191 335.699 C 210.792 335.568,211.611 335.421,212.011 335.371 C 215.398 334.953,216.452 334.789,216.924 334.609 C 217.225 334.494,218.044 334.334,218.744 334.254 C 220.659 334.035,225.483 333.058,228.679 332.242 C 230.239 331.843,232.005 331.455,232.603 331.379 C 233.200 331.304,234.954 330.887,236.499 330.453 C 238.044 330.019,239.508 329.635,239.753 329.598 C 239.997 329.562,240.300 329.430,240.425 329.305 C 240.551 329.179,240.883 329.165,241.164 329.272 C 241.445 329.380,241.675 329.328,241.675 329.156 C 241.675 328.985,242.185 328.809,242.807 328.765 C 243.429 328.721,244.165 328.496,244.444 328.265 C 244.722 328.034,244.950 327.939,244.950 328.054 C 244.950 328.170,245.728 328.018,246.679 327.718 C 247.630 327.418,248.780 327.095,249.236 326.999 C 250.756 326.680,263.172 322.481,264.260 321.919 C 264.850 321.614,265.332 321.442,265.332 321.537 C 265.332 321.691,266.708 321.203,268.790 320.310 C 269.190 320.139,270.500 319.629,271.702 319.178 C 272.903 318.727,274.041 318.220,274.231 318.051 C 274.421 317.882,274.872 317.743,275.232 317.743 C 275.592 317.743,275.887 317.580,275.887 317.379 C 275.887 317.179,276.010 317.056,276.160 317.106 C 276.582 317.247,280.983 315.426,280.983 315.111 C 280.983 314.957,281.310 314.832,281.711 314.832 C 282.111 314.832,282.439 314.658,282.439 314.446 C 282.439 314.234,282.578 314.147,282.749 314.252 C 282.919 314.358,284.189 313.896,285.569 313.225 C 294.814 308.737,296.815 307.742,299.886 306.108 C 301.775 305.103,303.452 304.075,303.611 303.824 C 303.771 303.572,303.904 303.501,303.907 303.664 C 303.910 303.828,304.363 303.658,304.914 303.285 C 305.464 302.913,306.529 302.291,307.279 301.904 C 308.030 301.516,308.644 301.073,308.644 300.918 C 308.644 300.763,308.858 300.637,309.119 300.637 C 309.380 300.637,310.404 300.111,311.394 299.467 C 313.606 298.030,313.914 297.840,316.453 296.353 C 317.571 295.699,318.810 294.839,319.206 294.442 C 319.603 294.046,319.927 293.815,319.927 293.928 C 319.927 294.220,322.201 292.590,322.736 291.915 C 322.980 291.607,323.185 291.485,323.191 291.643 C 323.203 291.927,323.684 291.593,325.049 290.355 C 325.435 290.005,325.756 289.841,325.762 289.991 C 325.769 290.141,326.014 289.946,326.308 289.557 C 326.602 289.169,326.843 288.971,326.843 289.117 C 326.843 289.263,327.047 289.204,327.298 288.987 C 327.548 288.769,329.204 287.516,330.977 286.202 C 332.751 284.889,334.492 283.545,334.847 283.217 C 335.201 282.889,335.927 282.293,336.459 281.893 C 336.991 281.492,337.822 280.796,338.305 280.346 C 338.789 279.895,339.319 279.527,339.484 279.527 C 339.649 279.527,340.040 279.240,340.353 278.890 C 340.667 278.540,341.722 277.598,342.698 276.797 C 343.675 275.996,345.264 274.563,346.230 273.612 C 347.197 272.662,348.085 271.884,348.203 271.884 C 348.492 271.884,360.307 260.120,360.319 259.821 C 360.324 259.693,361.106 258.787,362.056 257.809 C 364.146 255.659,365.363 254.249,367.105 251.959 C 367.830 251.007,368.530 250.146,368.661 250.045 C 369.295 249.560,372.726 244.948,372.461 244.938 C 372.293 244.932,372.474 244.686,372.863 244.392 C 373.252 244.099,373.420 243.858,373.237 243.858 C 373.054 243.858,373.271 243.601,373.719 243.287 C 374.168 242.973,374.440 242.564,374.325 242.377 C 374.210 242.191,374.294 242.038,374.512 242.038 C 374.731 242.038,375.010 241.775,375.134 241.453 C 375.257 241.130,375.741 240.455,376.208 239.951 C 376.674 239.447,376.979 238.909,376.883 238.755 C 376.788 238.601,376.965 238.377,377.277 238.257 C 377.589 238.138,377.748 237.885,377.631 237.696 C 377.514 237.506,377.649 237.218,377.931 237.056 C 378.500 236.728,382.894 229.553,382.894 228.952 C 382.894 228.743,383.023 228.571,383.181 228.571 C 383.339 228.571,383.865 227.671,384.349 226.570 C 384.834 225.469,385.328 224.568,385.448 224.568 C 385.567 224.568,386.207 223.380,386.869 221.929 C 387.531 220.478,388.341 218.726,388.668 218.036 C 388.995 217.346,389.227 216.666,389.184 216.524 C 389.140 216.382,389.345 216.067,389.639 215.823 C 389.932 215.579,390.178 215.195,390.185 214.969 C 390.192 214.743,390.514 213.904,390.901 213.103 C 391.288 212.302,391.610 211.440,391.616 211.187 C 391.623 210.934,391.781 210.443,391.966 210.095 C 392.248 209.567,392.573 208.779,392.903 207.825 C 392.937 207.725,393.072 207.398,393.203 207.097 C 393.919 205.452,394.870 202.241,394.715 201.990 C 394.617 201.831,394.708 201.643,394.918 201.573 C 395.128 201.503,395.353 201.038,395.418 200.541 C 395.483 200.043,395.638 199.390,395.762 199.090 C 395.886 198.790,396.035 198.217,396.094 197.816 C 396.152 197.416,396.327 196.884,396.483 196.633 C 396.639 196.383,396.673 196.026,396.558 195.840 C 396.443 195.653,396.496 195.409,396.677 195.298 C 397.002 195.097,397.241 194.103,397.648 191.265 C 397.762 190.464,397.996 189.318,398.167 188.717 C 398.339 188.116,398.483 187.379,398.487 187.079 C 398.492 186.779,398.734 184.895,399.025 182.894 C 399.315 180.892,399.584 179.008,399.622 178.708 C 399.860 176.826,399.853 162.005,399.613 159.600 C 399.165 155.101,398.736 152.053,398.333 150.500 C 398.281 150.300,398.135 149.481,398.008 148.681 C 397.881 147.880,397.512 146.324,397.187 145.223 C 396.863 144.122,396.626 143.099,396.660 142.949 C 396.734 142.630,393.644 133.090,393.034 131.756 C 392.260 130.062,391.675 128.669,390.856 126.570 C 390.407 125.419,389.896 124.477,389.720 124.477 C 389.545 124.477,389.491 124.332,389.600 124.156 C 389.710 123.979,389.474 123.421,389.076 122.915 C 388.678 122.410,388.353 121.809,388.353 121.581 C 388.353 121.130,387.299 118.949,386.937 118.653 C 386.815 118.553,386.435 117.898,386.093 117.197 C 385.338 115.649,384.249 113.806,383.943 113.558 C 383.820 113.458,383.366 112.680,382.935 111.829 C 382.504 110.978,381.981 110.282,381.773 110.282 C 381.565 110.282,381.496 110.118,381.620 109.918 C 381.743 109.718,381.671 109.554,381.459 109.554 C 381.247 109.554,381.074 109.308,381.074 109.008 C 381.074 108.708,380.947 108.462,380.793 108.462 C 380.638 108.462,380.203 107.889,379.825 107.188 C 379.448 106.488,379.020 105.914,378.875 105.914 C 378.730 105.914,378.529 105.628,378.429 105.278 C 378.174 104.384,372.565 97.527,369.466 94.320 C 368.043 92.847,366.879 91.529,366.879 91.391 C 366.879 90.867,364.089 88.442,363.795 88.710 C 363.625 88.864,363.600 88.792,363.739 88.551 C 363.888 88.291,363.591 87.851,363.014 87.472 C 362.477 87.120,361.187 86.007,360.149 84.999 C 357.592 82.518,356.392 81.529,355.936 81.529 C 355.725 81.529,355.654 81.365,355.778 81.165 C 355.902 80.965,355.860 80.801,355.686 80.801 C 355.512 80.801,355.052 80.514,354.664 80.164 C 352.615 78.314,350.169 76.433,349.813 76.433 C 349.591 76.433,349.409 76.299,349.409 76.136 C 349.409 75.760,343.862 71.860,343.494 71.978 C 343.344 72.026,343.221 71.923,343.221 71.750 C 343.221 71.576,342.566 71.001,341.765 70.471 C 340.965 69.941,340.309 69.620,340.309 69.758 C 340.309 69.896,339.941 69.670,339.490 69.256 C 337.509 67.436,330.075 63.316,329.572 63.759 " stroke="none" fill="#042467" fill-rule="evenodd"></path><path id="path2" d="" stroke="none" fill="#042c64" fill-rule="evenodd"></path><path id="path3" d="" stroke="none" fill="#082c6c" fill-rule="evenodd"></path><path id="path4" d="" stroke="none" fill="#082c6c" fill-rule="evenodd"></path><path id="path5" d="" stroke="none" fill="#082c6c" fill-rule="evenodd"></path><path id="path6" d="" stroke="none" fill="#082c6c" fill-rule="evenodd"></path><path id="path7" d="" stroke="none" fill="#082c6c" fill-rule="evenodd"></path><path id="path8" d="" stroke="none" fill="#082c6c" fill-rule="evenodd"></path></g></svg>