<svg id="svg" xmlns="http://www.w3.org/2000/svg" xmlns:xlink="http://www.w3.org/1999/xlink" width="400" height="447.16157205240177" viewBox="0, 0, 400,447.16157205240177"><g id="svgg"><path id="path0" d="M175.600 16.848 C 118.018 19.717,56.428 34.576,19.100 54.605 L 16.400 56.054 16.400 98.734 C 16.400 122.962,16.575 144.178,16.804 147.807 C 22.824 243.132,67.784 332.959,136.000 385.950 C 155.606 401.181,175.600 414.170,195.480 424.591 L 199.159 426.520 202.080 424.997 C 230.800 410.019,260.106 389.482,280.600 369.972 C 282.360 368.296,284.679 366.132,285.753 365.163 C 287.974 363.159,298.919 351.412,303.051 346.598 C 349.443 292.551,378.184 218.192,381.591 143.400 C 381.812 138.560,381.994 116.902,381.996 95.270 L 382.000 55.941 374.900 52.518 C 349.538 40.293,322.884 31.803,286.600 24.393 C 256.383 18.222,210.546 15.106,175.600 16.848 M215.800 29.203 C 269.198 31.303,324.746 43.331,363.900 61.274 L 369.200 63.703 369.200 97.494 C 369.200 124.369,369.098 131.244,368.700 131.083 C 368.425 130.971,365.590 129.761,362.400 128.394 C 304.792 103.706,229.968 93.210,157.000 99.582 C 113.208 103.406,69.816 113.773,34.895 128.753 C 31.757 130.099,29.102 131.200,28.995 131.200 C 28.481 131.200,28.809 64.091,29.324 63.663 C 30.148 62.979,38.370 59.369,45.600 56.517 C 95.294 36.914,157.597 26.915,215.800 29.203 M194.300 41.098 C 196.555 41.170,200.245 41.170,202.500 41.098 C 204.755 41.027,202.910 40.969,198.400 40.969 C 193.890 40.969,192.045 41.027,194.300 41.098 M269.384 47.300 C 269.278 47.575,269.240 57.610,269.300 69.600 L 269.407 91.400 269.504 69.333 C 269.579 52.127,269.710 47.222,270.100 47.065 C 270.492 46.907,270.489 46.856,270.087 46.832 C 269.806 46.814,269.489 47.025,269.384 47.300 M169.381 64.200 C 169.381 72.340,169.434 75.613,169.500 71.474 C 169.565 67.334,169.565 60.674,169.499 56.674 C 169.434 52.673,169.381 56.060,169.381 64.200 M201.916 50.297 C 203.299 50.375,205.459 50.374,206.716 50.295 C 207.972 50.216,206.840 50.152,204.200 50.153 C 201.560 50.153,200.532 50.218,201.916 50.297 M160.179 65.000 C 160.179 72.260,160.233 75.286,160.299 71.725 C 160.365 68.164,160.366 62.224,160.299 58.525 C 160.233 54.826,160.179 57.740,160.179 65.000 M150.591 65.767 C 150.599 77.126,150.682 78.956,151.200 79.097 C 151.638 79.217,151.667 79.166,151.306 78.910 C 150.935 78.647,150.783 75.320,150.697 65.580 L 150.583 52.600 150.591 65.767 M278.592 70.595 C 278.599 82.922,278.647 83.794,279.308 83.854 C 279.792 83.898,279.826 83.859,279.413 83.731 C 278.896 83.570,278.795 81.697,278.697 70.472 L 278.583 57.400 278.592 70.595 M296.981 74.400 C 296.981 82.650,297.034 86.025,297.099 81.900 C 297.164 77.775,297.164 71.025,297.099 66.900 C 297.034 62.775,296.981 66.150,296.981 74.400 M335.750 76.600 C 335.751 79.020,335.816 79.958,335.896 78.685 C 335.976 77.412,335.975 75.432,335.894 74.285 C 335.814 73.138,335.749 74.180,335.750 76.600 M344.400 92.280 C 344.290 102.444,344.337 110.623,344.504 110.456 C 344.671 110.289,344.761 101.973,344.704 91.976 L 344.600 73.800 344.400 92.280 M120.398 88.282 C 120.289 90.747,120.342 92.621,120.515 92.447 C 120.688 92.273,120.777 90.256,120.712 87.965 L 120.596 83.800 120.398 88.282 M192.500 85.496 C 193.765 85.575,195.835 85.575,197.100 85.496 C 198.365 85.416,197.330 85.351,194.800 85.351 C 192.270 85.351,191.235 85.416,192.500 85.496 M335.680 98.676 C 335.636 103.558,335.735 107.637,335.900 107.739 C 336.065 107.841,336.154 105.197,336.097 101.863 C 335.909 90.815,335.762 89.689,335.680 98.676 M220.400 110.808 C 255.677 112.461,298.435 119.592,324.400 128.152 C 326.050 128.696,329.290 129.715,331.600 130.418 C 340.625 133.161,356.851 139.343,364.949 143.123 L 368.898 144.967 368.627 149.183 C 368.027 158.525,365.350 179.913,363.793 187.800 C 360.372 205.140,356.864 218.738,352.158 232.900 C 350.715 237.245,349.392 240.800,349.219 240.800 C 349.047 240.800,346.844 238.325,344.324 235.300 C 332.416 221.003,318.154 206.800,315.706 206.800 C 315.263 206.800,314.113 207.081,313.150 207.424 C 308.595 209.047,287.850 213.750,286.251 213.521 C 285.540 213.420,285.730 213.171,287.400 212.015 C 291.770 208.988,296.224 205.331,300.328 201.398 L 304.635 197.271 307.105 189.535 C 312.390 172.984,317.231 151.719,316.674 147.501 C 315.941 141.948,312.044 137.317,306.726 135.680 C 294.442 131.898,290.056 132.850,270.400 143.564 C 256.090 151.365,248.989 154.675,237.352 158.968 C 229.960 161.696,229.068 161.790,231.400 159.600 C 233.302 157.813,238.132 151.172,237.765 150.848 C 236.814 150.008,230.278 148.532,222.200 147.332 C 215.333 146.312,193.997 146.300,186.800 147.313 C 178.716 148.450,174.555 149.200,168.419 150.627 C 160.574 152.452,160.507 152.280,167.495 148.274 C 171.510 145.972,173.684 144.941,177.303 143.620 L 178.407 143.217 176.545 140.509 C 174.427 137.425,172.000 132.594,172.000 131.460 C 172.000 130.737,167.894 130.724,166.730 131.443 C 165.055 132.479,157.866 146.248,156.192 151.628 C 155.501 153.852,155.492 153.860,151.650 156.000 C 145.871 159.219,139.886 163.067,135.256 166.538 C 130.655 169.988,130.499 170.020,131.167 167.367 C 131.817 164.783,131.759 164.787,126.915 167.611 C 117.659 173.008,116.000 174.237,116.004 175.691 C 116.008 177.075,117.434 180.481,118.829 182.441 L 119.662 183.610 115.531 185.541 C 103.682 191.081,91.243 200.882,84.030 210.359 C 81.105 214.204,81.020 213.852,85.400 216.093 C 92.720 219.840,93.389 219.877,104.400 217.140 C 113.404 214.903,112.851 215.244,121.263 206.742 C 127.952 199.982,130.078 198.164,129.496 199.700 C 129.043 200.896,125.095 218.027,125.240 218.168 C 125.328 218.253,129.630 218.083,134.800 217.790 C 139.970 217.496,145.686 217.183,147.501 217.094 L 150.803 216.932 155.101 220.337 C 157.466 222.209,161.711 226.004,164.536 228.771 L 169.673 233.800 169.412 235.800 C 168.719 241.125,162.056 258.629,157.411 267.328 C 155.970 270.026,155.326 271.600,155.665 271.600 C 155.959 271.600,157.640 271.324,159.400 270.986 C 165.036 269.905,172.439 269.200,178.158 269.200 L 183.720 269.200 186.852 271.209 C 191.704 274.321,198.891 278.083,205.020 280.718 C 224.017 288.886,247.719 293.395,259.359 291.055 C 263.517 290.219,276.407 274.738,283.184 262.441 L 285.696 257.882 285.225 253.688 C 284.802 249.930,281.972 230.325,281.343 226.800 L 281.094 225.400 282.193 226.400 C 291.213 234.607,304.235 263.807,303.408 273.973 C 300.224 313.140,283.433 351.535,261.200 370.487 C 254.053 376.580,243.741 384.669,238.210 388.522 C 225.092 397.660,200.150 412.683,199.378 411.911 C 199.287 411.821,199.736 410.390,200.374 408.733 C 201.999 404.514,203.905 397.884,204.384 394.784 C 205.524 387.411,199.442 368.914,193.631 362.080 L 192.508 360.760 190.586 363.880 C 184.175 374.287,175.778 383.077,166.962 388.613 L 163.539 390.762 160.269 388.510 C 156.722 386.067,150.230 381.170,145.841 377.627 C 144.324 376.402,142.524 374.954,141.841 374.409 C 86.128 329.934,45.619 257.671,33.197 180.600 C 31.252 168.528,28.737 145.428,29.318 144.965 C 29.363 144.929,31.380 143.992,33.800 142.883 C 72.568 125.116,129.830 112.485,179.800 110.677 C 188.289 110.370,212.738 110.448,220.400 110.808 M303.530 143.279 L 307.261 144.457 308.430 146.929 C 309.073 148.288,309.600 149.821,309.600 150.335 C 309.601 152.801,303.690 176.337,300.424 186.873 L 298.400 193.400 296.100 195.527 C 290.979 200.263,279.214 209.200,278.100 209.200 C 277.806 209.200,275.604 204.288,273.678 199.333 L 273.030 197.666 274.884 193.733 C 278.656 185.731,282.317 176.584,281.911 176.178 C 281.799 176.066,279.604 176.250,277.033 176.587 C 272.207 177.220,270.000 177.349,270.000 176.998 C 270.000 176.886,271.688 173.421,273.751 169.298 C 278.504 159.795,278.495 159.823,276.744 160.130 C 275.159 160.409,270.032 161.039,266.500 161.391 C 265.125 161.528,264.000 161.491,264.000 161.309 C 264.000 160.107,282.525 147.406,287.970 144.875 C 295.454 141.396,297.046 141.233,303.530 143.279 M189.526 169.859 C 191.815 170.021,193.082 170.268,192.925 170.521 C 192.788 170.743,192.875 170.801,193.118 170.651 C 193.361 170.500,195.234 171.032,197.280 171.832 C 199.326 172.631,201.945 173.639,203.100 174.071 C 205.835 175.095,205.751 175.361,202.500 175.954 C 201.015 176.225,198.585 176.720,197.100 177.055 L 194.400 177.664 194.400 179.981 C 194.400 184.938,180.525 201.298,175.273 202.534 C 161.703 205.727,150.873 205.521,143.308 201.925 C 136.204 198.548,136.452 198.890,138.756 195.663 C 152.584 176.296,152.855 175.981,156.820 174.704 C 168.752 170.860,180.049 169.186,189.526 169.859 M219.354 182.450 C 222.708 184.155,227.250 187.134,229.470 189.084 L 230.741 190.200 229.270 196.683 C 227.531 204.353,228.289 203.420,221.159 206.654 C 217.991 208.091,213.690 210.042,211.600 210.989 C 209.510 211.936,205.370 213.824,202.400 215.184 C 195.512 218.338,195.865 218.198,196.045 217.709 C 196.130 217.479,198.209 214.975,200.663 212.145 C 203.118 209.315,206.347 205.470,207.837 203.600 C 209.328 201.730,211.199 199.390,211.993 198.400 C 215.469 194.071,215.289 194.674,215.289 187.376 C 215.289 183.160,215.436 180.800,215.698 180.800 C 215.923 180.800,217.568 181.543,219.354 182.450 " stroke="none" fill="#bb935c" fill-rule="evenodd"></path><path id="path1" d="M176.200 0.262 C 175.100 0.327,170.780 0.577,166.600 0.817 C 153.438 1.575,132.303 3.676,130.600 4.396 C 130.160 4.582,126.560 5.200,122.600 5.769 C 113.666 7.053,103.467 8.856,103.200 9.198 C 103.090 9.340,101.380 9.765,99.400 10.144 C 93.320 11.308,83.147 13.629,82.455 14.011 C 82.095 14.210,78.200 15.304,73.800 16.442 C 69.400 17.579,65.710 18.632,65.600 18.781 C 65.490 18.929,63.780 19.518,61.800 20.088 C 55.873 21.794,51.013 23.352,50.800 23.615 C 50.690 23.750,47.814 24.803,44.409 25.954 C 41.004 27.106,38.124 28.179,38.009 28.340 C 37.894 28.500,35.910 29.320,33.600 30.161 C 31.290 31.002,27.960 32.371,26.200 33.202 C 24.440 34.034,21.335 35.389,19.300 36.214 C 17.265 37.039,15.600 37.844,15.600 38.003 C 15.600 38.161,14.745 38.614,13.700 39.008 C 12.655 39.401,9.145 41.069,5.900 42.714 L 0.000 45.704 0.006 95.152 C 0.010 123.010,0.183 147.220,0.404 150.600 C 1.242 163.431,3.559 183.987,4.371 185.800 C 4.568 186.240,5.032 188.580,5.402 191.000 C 6.391 197.473,8.840 209.769,9.186 210.000 C 9.350 210.110,9.612 210.920,9.768 211.800 C 10.326 214.950,13.703 228.204,13.998 228.400 C 14.164 228.510,14.433 229.230,14.597 230.000 C 15.051 232.139,18.420 243.235,18.835 243.960 C 19.037 244.312,20.111 247.386,21.223 250.790 C 22.335 254.195,23.380 257.075,23.546 257.190 C 23.711 257.306,24.542 259.380,25.393 261.800 C 26.243 264.220,27.693 267.820,28.615 269.800 C 29.538 271.780,30.432 273.850,30.602 274.400 C 30.773 274.950,32.327 278.329,34.056 281.910 C 35.785 285.490,37.200 288.580,37.200 288.776 C 37.200 288.973,37.335 289.193,37.500 289.267 C 37.665 289.340,38.790 291.470,40.000 294.000 C 41.210 296.530,42.312 298.690,42.449 298.800 C 42.586 298.910,43.641 300.845,44.792 303.100 C 45.944 305.355,47.046 307.200,47.243 307.200 C 47.439 307.200,47.600 307.380,47.600 307.599 C 47.600 308.210,51.540 315.169,52.422 316.115 C 52.850 316.575,53.200 317.106,53.200 317.295 C 53.200 317.484,53.830 318.623,54.600 319.827 C 55.370 321.031,56.000 322.100,56.000 322.204 C 56.000 322.308,56.625 323.212,57.389 324.213 C 58.153 325.213,59.069 326.646,59.425 327.397 C 59.782 328.148,60.465 329.185,60.944 329.702 C 61.423 330.219,62.425 331.592,63.171 332.754 C 64.920 335.481,69.200 341.385,70.788 343.262 C 71.468 344.066,72.493 345.415,73.066 346.259 C 73.639 347.103,74.797 348.605,75.640 349.597 C 76.484 350.589,78.926 353.470,81.069 356.000 C 91.037 367.770,109.847 386.484,117.600 392.342 C 118.369 392.924,119.629 394.007,120.400 394.749 C 121.170 395.492,122.462 396.521,123.272 397.037 C 124.082 397.553,125.162 398.409,125.672 398.939 C 126.182 399.470,127.590 400.576,128.800 401.397 C 130.010 402.219,131.180 403.096,131.400 403.346 C 131.856 403.863,137.529 408.000,137.784 408.000 C 137.876 408.000,138.518 408.518,139.212 409.152 C 139.906 409.786,140.952 410.543,141.537 410.835 C 142.121 411.127,143.405 412.004,144.389 412.783 C 145.960 414.026,147.406 414.974,151.166 417.222 C 151.698 417.540,152.444 418.096,152.824 418.458 C 153.204 418.819,154.839 419.884,156.458 420.823 C 158.076 421.763,159.504 422.688,159.631 422.878 C 159.868 423.233,165.972 426.800,166.342 426.800 C 166.456 426.800,166.920 427.144,167.374 427.563 C 167.828 427.983,169.640 429.087,171.400 430.017 C 173.160 430.946,174.870 431.934,175.200 432.213 C 175.530 432.492,177.600 433.672,179.800 434.836 C 182.000 435.999,183.890 437.065,184.000 437.205 C 184.110 437.344,186.090 438.412,188.400 439.578 C 190.710 440.744,192.870 441.920,193.200 442.192 C 196.290 444.740,199.522 445.161,202.600 443.419 C 203.920 442.671,206.973 441.051,209.383 439.819 C 211.794 438.586,213.864 437.447,213.983 437.289 C 214.103 437.130,215.910 436.118,218.000 435.040 C 220.090 433.962,222.086 432.835,222.435 432.537 C 222.784 432.238,224.546 431.219,226.349 430.274 C 228.153 429.328,229.970 428.261,230.387 427.904 C 230.804 427.547,232.193 426.674,233.473 425.965 C 234.753 425.256,237.060 423.839,238.600 422.815 C 240.140 421.791,242.210 420.486,243.200 419.915 C 244.190 419.344,245.450 418.482,246.000 418.000 C 246.550 417.518,247.540 416.846,248.200 416.507 C 249.456 415.861,252.855 413.580,253.200 413.151 C 253.310 413.015,254.693 412.069,256.274 411.049 C 257.855 410.029,259.460 408.881,259.841 408.497 C 260.223 408.114,261.475 407.170,262.624 406.400 C 263.772 405.630,265.317 404.520,266.056 403.933 C 266.795 403.346,269.380 401.328,271.800 399.448 C 287.376 387.351,312.093 363.513,317.861 355.024 C 318.393 354.241,318.976 353.600,319.156 353.600 C 319.337 353.600,320.217 352.565,321.113 351.300 C 322.009 350.035,323.250 348.427,323.871 347.726 C 324.492 347.026,325.630 345.599,326.400 344.556 C 327.170 343.512,327.988 342.466,328.217 342.229 C 328.447 341.993,329.617 340.361,330.817 338.601 C 332.018 336.842,333.208 335.222,333.461 335.001 C 333.715 334.781,334.775 333.250,335.816 331.600 C 336.858 329.950,337.846 328.510,338.012 328.400 C 338.179 328.290,339.227 326.670,340.343 324.800 C 341.459 322.930,342.639 321.124,342.965 320.786 C 343.292 320.448,344.400 318.648,345.428 316.786 C 346.456 314.924,347.428 313.310,347.588 313.200 C 347.749 313.090,348.841 311.200,350.015 309.000 C 351.190 306.800,352.274 304.910,352.425 304.800 C 352.577 304.690,353.642 302.710,354.794 300.400 C 355.945 298.090,357.120 295.930,357.406 295.600 C 357.691 295.270,358.769 293.110,359.800 290.800 C 360.831 288.490,361.897 286.330,362.168 286.000 C 362.439 285.670,363.545 283.330,364.626 280.800 C 365.707 278.270,366.706 276.110,366.846 276.000 C 366.986 275.890,368.061 273.370,369.234 270.400 C 370.408 267.430,371.487 264.910,371.634 264.800 C 371.780 264.690,372.761 262.170,373.814 259.200 C 374.866 256.230,375.889 253.589,376.087 253.331 C 376.494 252.800,380.399 240.850,380.400 240.133 C 380.400 239.877,380.557 239.607,380.749 239.533 C 381.041 239.421,384.144 228.903,385.036 225.000 C 385.187 224.340,385.451 223.619,385.624 223.397 C 385.989 222.927,387.967 214.849,389.198 208.800 C 389.668 206.490,390.218 204.240,390.419 203.800 C 390.939 202.666,392.965 191.367,394.005 183.800 C 394.489 180.280,395.037 177.040,395.224 176.600 C 395.584 175.748,396.409 168.637,397.472 157.200 C 398.023 151.276,398.148 142.169,398.284 97.964 L 398.446 45.728 395.423 44.410 C 393.760 43.685,392.400 42.958,392.400 42.795 C 392.400 42.631,391.815 42.264,391.100 41.979 C 390.385 41.695,387.096 40.165,383.790 38.580 C 380.485 36.995,376.525 35.199,374.990 34.588 C 373.456 33.978,372.110 33.355,372.000 33.204 C 371.890 33.052,369.550 32.076,366.800 31.033 C 364.050 29.991,360.900 28.720,359.800 28.208 C 358.700 27.697,355.460 26.496,352.600 25.539 C 349.740 24.583,347.309 23.681,347.199 23.536 C 346.959 23.221,333.805 19.200,333.015 19.200 C 332.713 19.200,332.407 19.039,332.333 18.842 C 332.215 18.522,322.398 15.737,318.800 15.002 C 318.030 14.844,316.860 14.479,316.200 14.190 C 314.782 13.569,308.404 12.067,300.600 10.515 C 297.520 9.903,294.906 9.277,294.790 9.124 C 294.567 8.827,274.767 5.458,270.400 4.973 C 268.970 4.815,267.710 4.554,267.600 4.395 C 267.102 3.673,241.134 1.255,224.800 0.409 C 217.954 0.055,181.591 -0.055,176.200 0.262 M223.241 6.002 C 266.402 8.128,309.627 16.371,346.600 29.528 C 362.046 35.024,375.654 40.811,387.800 47.049 L 392.600 49.515 392.723 92.657 C 392.841 133.854,392.602 147.491,391.601 156.876 C 389.577 175.848,388.184 185.288,385.388 198.960 C 383.278 209.281,382.578 212.135,378.858 225.600 C 372.250 249.512,360.208 278.968,348.688 299.400 C 336.531 320.960,329.033 331.942,313.200 351.374 C 303.162 363.694,285.363 381.021,270.233 393.203 C 251.690 408.133,227.168 423.963,203.491 436.288 L 199.181 438.532 195.491 436.606 C 167.770 422.144,144.536 406.839,122.005 388.200 C 108.167 376.752,91.900 360.201,80.335 345.800 C 56.321 315.900,37.182 280.235,23.989 240.800 C 21.195 232.448,20.089 228.779,17.177 218.200 C 14.546 208.640,11.625 194.396,9.630 181.400 C 5.764 156.208,5.897 158.964,5.715 100.189 L 5.558 49.378 13.120 45.691 C 73.522 16.239,147.478 2.270,223.241 6.002 M190.400 63.200 L 190.400 85.200 194.800 85.200 L 199.200 85.200 199.200 76.400 L 199.200 67.600 200.386 67.600 C 201.747 67.600,201.900 67.824,203.583 72.276 C 204.233 73.994,205.659 77.560,206.752 80.200 L 208.740 85.000 212.470 85.304 C 218.542 85.800,218.233 86.236,215.999 80.309 C 214.943 77.508,213.431 73.709,212.640 71.866 C 210.836 67.667,210.836 67.507,212.639 67.663 C 214.071 67.786,214.087 67.769,216.033 64.193 L 217.988 60.600 217.980 54.800 L 217.971 49.000 216.085 45.400 L 214.200 41.800 210.000 41.549 C 207.690 41.411,202.335 41.276,198.100 41.249 L 190.400 41.200 190.400 63.200 M157.400 43.229 C 154.518 43.519,150.422 44.065,146.919 44.624 C 145.778 44.807,145.420 45.234,143.619 48.564 L 141.600 52.299 141.600 67.051 L 141.600 81.803 143.656 85.136 C 145.632 88.337,145.761 88.459,146.956 88.250 C 148.302 88.015,160.267 86.876,163.193 86.705 L 164.986 86.600 167.083 82.600 L 169.181 78.600 169.190 64.480 C 169.201 48.947,169.404 50.381,166.475 45.300 L 165.034 42.800 162.817 42.853 C 161.598 42.882,159.160 43.052,157.400 43.229 M239.600 65.119 L 239.600 87.106 242.700 87.375 C 244.405 87.523,246.387 87.745,247.103 87.868 L 248.407 88.090 248.303 66.162 L 248.200 44.233 246.868 43.960 C 246.136 43.811,244.201 43.563,242.568 43.410 L 239.600 43.132 239.600 65.119 M269.600 69.127 L 269.600 91.054 276.220 92.161 C 282.074 93.141,290.038 94.777,292.035 95.411 C 292.579 95.584,293.195 94.891,294.769 92.334 L 296.800 89.033 296.800 74.381 L 296.800 59.728 294.797 55.795 C 293.696 53.631,292.738 51.805,292.669 51.736 C 292.474 51.541,271.089 47.208,270.300 47.204 C 269.642 47.200,269.600 48.509,269.600 69.127 M209.200 54.600 L 209.200 59.200 207.861 59.200 C 207.125 59.200,204.875 59.083,202.861 58.940 L 199.200 58.680 199.200 54.607 C 199.200 49.627,198.774 50.000,204.467 50.000 L 209.200 50.000 209.200 54.600 M101.200 52.532 L 97.400 53.400 97.297 75.345 L 97.193 97.290 98.697 97.016 C 99.523 96.865,103.170 96.045,106.800 95.194 C 110.430 94.342,114.570 93.451,116.000 93.214 C 120.888 92.402,120.400 92.958,120.400 88.192 C 120.400 83.213,121.206 83.530,112.800 85.200 C 109.478 85.860,106.589 86.400,106.380 86.400 C 106.146 86.400,106.000 79.716,106.000 69.000 C 106.000 55.330,105.893 51.607,105.500 51.632 C 105.225 51.649,103.290 52.054,101.200 52.532 M160.305 65.086 L 160.411 78.306 157.705 78.570 C 156.217 78.715,153.965 78.940,152.700 79.069 L 150.400 79.303 150.400 66.093 L 150.400 52.883 153.700 52.446 C 158.538 51.806,159.357 51.719,159.800 51.796 C 160.055 51.841,160.238 56.669,160.305 65.086 M284.086 58.399 C 286.349 58.838,288.245 59.198,288.300 59.199 C 288.355 59.199,288.400 65.140,288.400 72.400 C 288.400 84.705,288.353 85.600,287.700 85.600 C 287.315 85.600,285.065 85.215,282.700 84.744 L 278.400 83.888 278.400 70.744 C 278.400 57.946,278.421 57.600,279.186 57.600 C 279.618 57.600,281.823 57.959,284.086 58.399 M70.000 61.187 C 66.590 62.239,61.550 63.888,58.800 64.850 L 53.800 66.600 53.697 88.548 C 53.599 109.334,53.630 110.484,54.297 110.277 C 54.683 110.156,56.664 109.460,58.697 108.729 L 62.395 107.400 62.397 98.563 L 62.400 89.727 66.700 88.433 C 69.065 87.721,71.315 87.050,71.700 86.942 C 72.604 86.689,72.783 78.400,71.884 78.400 C 71.477 78.400,65.593 80.109,62.887 81.013 C 62.486 81.148,62.399 80.218,62.487 76.750 L 62.600 72.316 65.756 71.166 C 67.492 70.533,70.597 69.538,72.656 68.953 L 76.400 67.891 76.400 63.545 C 76.400 61.155,76.355 59.216,76.300 59.236 C 76.245 59.256,73.410 60.134,70.000 61.187 M320.785 60.722 C 320.243 61.510,319.306 62.975,318.703 63.977 L 317.607 65.800 317.603 83.839 L 317.600 101.879 321.100 102.792 C 323.025 103.295,324.915 103.868,325.300 104.067 C 325.956 104.405,326.000 103.902,326.006 96.114 C 326.009 91.541,326.144 87.596,326.306 87.346 C 326.573 86.934,334.207 88.939,335.566 89.779 C 335.857 89.959,336.000 92.939,336.000 98.816 L 336.000 107.585 337.100 107.849 C 337.705 107.994,339.510 108.628,341.110 109.257 C 342.711 109.886,344.106 110.400,344.210 110.400 C 344.315 110.400,344.400 102.216,344.400 92.213 L 344.400 74.027 342.423 69.713 L 340.445 65.400 336.923 64.097 C 334.985 63.380,330.970 62.067,328.000 61.179 C 325.030 60.292,322.413 59.504,322.185 59.428 C 321.956 59.352,321.326 59.935,320.785 60.722 M331.400 70.756 L 335.800 72.267 335.914 76.781 C 336.007 80.488,335.928 81.258,335.475 81.084 C 335.171 80.968,333.050 80.295,330.762 79.590 C 328.473 78.885,326.468 78.104,326.306 77.854 C 325.939 77.286,325.904 69.830,326.267 69.467 C 326.630 69.103,326.460 69.060,331.400 70.756 M177.801 170.443 C 170.368 171.225,156.194 174.597,153.601 176.199 C 153.184 176.457,155.570 181.600,156.106 181.600 C 156.289 181.600,156.969 181.326,157.616 180.992 C 159.331 180.105,170.678 175.809,173.379 175.023 C 179.238 173.320,187.933 171.167,189.962 170.916 L 192.200 170.640 190.600 170.343 C 188.538 169.960,181.896 170.012,177.801 170.443 M190.800 181.836 C 187.232 185.850,177.185 195.806,175.198 197.294 C 172.465 199.343,153.507 200.604,141.600 199.529 L 138.600 199.258 143.600 201.729 L 148.600 204.200 156.200 204.163 C 163.287 204.129,169.542 203.547,175.457 202.370 C 179.725 201.521,194.400 184.247,194.400 180.072 C 194.400 177.858,194.286 177.914,190.800 181.836 M81.466 227.643 C 81.081 228.609,79.855 231.803,78.743 234.740 L 76.719 240.080 78.416 244.540 C 80.103 248.975,86.604 262.718,87.693 264.150 C 88.225 264.851,88.410 264.691,90.472 261.750 C 91.687 260.018,93.695 257.413,94.935 255.962 L 97.189 253.323 95.825 249.362 C 91.815 237.713,91.752 237.577,89.055 234.800 C 86.825 232.503,83.791 228.658,82.583 226.596 C 82.223 225.981,82.072 226.123,81.466 227.643 M130.400 226.256 C 128.970 226.326,123.750 226.770,118.800 227.241 L 109.800 228.099 107.093 230.093 C 105.604 231.189,103.293 233.282,101.957 234.743 L 99.527 237.400 99.762 241.200 C 99.890 243.290,99.997 246.728,99.998 248.841 L 100.000 252.682 102.700 253.905 C 104.185 254.578,107.020 255.805,109.000 256.632 C 110.980 257.458,112.785 258.273,113.011 258.442 C 113.987 259.174,138.513 268.325,139.662 268.386 C 139.806 268.394,140.411 267.570,141.005 266.555 C 142.291 264.361,142.611 264.819,136.600 260.235 C 131.211 256.125,131.378 256.274,131.948 256.084 C 132.212 255.996,134.897 256.146,137.914 256.417 C 145.851 257.131,145.253 257.184,145.862 255.710 L 146.394 254.419 143.297 252.220 C 141.594 251.011,138.760 249.271,137.000 248.353 C 135.240 247.436,133.715 246.612,133.612 246.521 C 132.912 245.910,135.550 245.611,141.700 245.606 L 148.800 245.600 148.800 244.221 C 148.800 242.517,145.388 240.492,136.852 237.130 C 130.587 234.663,130.614 234.583,138.191 233.093 L 142.846 232.177 140.781 229.789 C 139.645 228.475,138.509 227.192,138.258 226.939 C 137.718 226.394,134.055 226.076,130.400 226.256 M98.896 262.928 C 93.892 271.408,96.691 281.326,106.694 290.564 L 108.788 292.498 110.894 291.680 C 117.907 288.955,131.714 285.688,139.200 284.982 C 143.801 284.548,143.738 284.337,138.329 282.069 C 128.455 277.929,110.898 268.705,103.426 263.731 C 99.641 261.212,99.882 261.255,98.896 262.928 M171.400 300.547 C 193.888 323.429,206.821 351.132,206.797 376.369 C 206.788 385.167,203.884 400.795,200.929 407.941 C 199.205 412.109,199.024 412.036,204.229 409.262 C 224.610 398.399,246.239 383.391,263.766 367.951 C 265.003 366.860,254.128 348.354,246.315 338.254 C 239.574 329.541,224.142 313.324,223.348 314.119 C 223.255 314.212,223.701 315.708,224.339 317.444 C 227.026 324.755,229.231 338.570,228.156 341.369 C 227.975 341.841,226.363 340.439,221.856 335.886 C 208.479 322.375,192.957 310.580,174.000 299.520 C 165.598 294.619,165.581 294.626,171.400 300.547 " stroke="none" fill="#fbfafb" fill-rule="evenodd"></path><path id="path2" d="M185.200 29.066 C 136.951 30.536,86.126 40.530,45.600 56.517 C 38.370 59.369,30.148 62.979,29.324 63.663 C 28.809 64.091,28.481 131.200,28.995 131.200 C 29.102 131.200,31.757 130.099,34.895 128.753 C 130.781 87.621,266.911 87.472,362.400 128.394 C 365.590 129.761,368.425 130.971,368.700 131.083 C 369.098 131.244,369.200 124.369,369.200 97.494 L 369.200 63.703 363.900 61.274 C 316.529 39.566,247.708 27.162,185.200 29.066 M214.167 41.573 C 214.427 41.789,215.486 43.570,216.520 45.531 L 218.400 49.097 218.391 54.848 C 218.380 61.962,215.862 67.992,212.900 67.997 C 211.268 68.001,211.075 67.135,214.772 76.380 C 218.977 86.892,219.115 85.797,213.600 85.659 C 208.087 85.521,208.739 86.130,205.635 78.223 C 201.988 68.936,201.332 67.600,200.413 67.600 C 199.643 67.600,199.612 67.912,199.508 76.500 L 199.400 85.400 194.900 85.513 L 190.400 85.626 190.400 63.149 L 190.400 40.671 202.047 40.926 C 208.661 41.071,213.899 41.350,214.167 41.573 M167.346 46.196 L 169.600 49.993 169.600 64.210 L 169.600 78.428 167.397 82.554 L 165.193 86.680 159.897 87.160 C 156.983 87.424,152.620 87.901,150.200 88.221 C 145.069 88.899,145.532 89.150,142.811 84.220 L 141.200 81.302 141.200 67.056 L 141.200 52.810 143.278 48.632 L 145.356 44.454 147.378 44.174 C 149.766 43.845,162.536 42.524,164.046 42.451 C 164.961 42.406,165.378 42.880,167.346 46.196 M247.900 43.808 C 248.292 43.939,248.400 48.779,248.400 66.219 L 248.400 88.464 247.300 88.248 C 246.695 88.129,245.120 87.924,243.800 87.791 C 242.480 87.659,240.905 87.457,240.300 87.343 L 239.200 87.136 239.200 65.235 C 239.200 53.189,239.282 43.251,239.382 43.151 C 239.579 42.954,247.074 43.532,247.900 43.808 M276.000 48.009 C 278.750 48.472,283.602 49.379,286.782 50.025 C 289.963 50.671,292.616 51.200,292.679 51.200 C 292.742 51.200,293.785 53.177,294.997 55.593 L 297.200 59.987 297.200 74.419 L 297.200 88.852 295.138 92.226 C 294.004 94.082,292.879 95.603,292.638 95.607 C 292.397 95.610,287.025 94.584,280.700 93.325 L 269.200 91.037 269.200 69.185 C 269.200 47.173,269.228 46.637,270.371 46.980 C 270.717 47.083,273.250 47.546,276.000 48.009 M199.600 54.600 L 199.600 58.800 204.400 58.800 L 209.200 58.800 209.200 54.600 L 209.200 50.400 204.400 50.400 L 199.600 50.400 199.600 54.600 M106.904 86.260 C 120.683 82.813,120.572 82.799,120.715 87.965 C 120.856 93.098,121.717 92.462,111.997 94.405 C 107.489 95.307,102.420 96.394,100.733 96.822 C 99.047 97.250,97.472 97.600,97.233 97.600 C 96.927 97.600,96.800 91.090,96.800 75.460 L 96.800 53.321 101.300 52.335 L 105.800 51.349 105.904 68.917 L 106.008 86.485 106.904 86.260 M157.600 52.223 C 157.270 52.294,155.605 52.469,153.900 52.611 L 150.800 52.868 150.800 65.880 L 150.800 78.892 152.900 78.663 C 154.055 78.538,156.125 78.319,157.500 78.178 L 160.000 77.921 160.000 64.961 L 160.000 52.000 159.100 52.046 C 158.605 52.072,157.930 52.151,157.600 52.223 M278.800 70.564 L 278.800 83.543 281.100 84.013 C 282.365 84.272,284.300 84.713,285.400 84.994 C 288.166 85.701,288.000 86.506,288.000 72.392 L 288.000 59.631 286.500 59.253 C 285.199 58.926,283.055 58.458,279.700 57.769 L 278.800 57.585 278.800 70.564 M76.114 68.025 C 75.869 68.253,67.132 71.091,63.100 72.252 C 62.371 72.462,61.980 80.812,62.700 80.792 C 62.865 80.787,64.800 80.159,67.000 79.395 C 72.808 77.380,72.447 77.170,72.313 82.473 L 72.200 86.946 67.300 88.561 L 62.400 90.176 62.400 99.034 L 62.400 107.893 58.446 109.146 C 56.271 109.836,54.291 110.400,54.046 110.400 C 53.723 110.400,53.600 104.302,53.600 88.390 L 53.600 66.380 54.700 65.934 C 55.305 65.688,60.390 64.003,66.000 62.189 L 76.200 58.891 76.314 63.312 C 76.376 65.743,76.286 67.864,76.114 68.025 M332.660 62.353 C 336.873 63.711,340.482 65.041,340.681 65.311 C 340.880 65.580,341.888 67.716,342.921 70.057 L 344.800 74.314 344.800 92.290 C 344.800 102.177,344.714 110.353,344.608 110.459 C 344.502 110.564,342.477 110.000,340.108 109.205 L 335.800 107.759 335.692 98.926 L 335.585 90.093 331.292 88.694 C 328.932 87.925,326.865 87.375,326.700 87.471 C 326.535 87.568,326.400 91.417,326.400 96.024 C 326.400 105.738,326.921 104.983,321.400 103.272 L 317.800 102.157 317.696 83.677 L 317.592 65.197 318.659 63.498 C 319.246 62.564,320.145 61.133,320.657 60.317 L 321.588 58.835 323.294 59.360 C 324.232 59.649,328.447 60.996,332.660 62.353 M326.565 70.146 C 326.456 70.431,326.419 72.269,326.483 74.232 L 326.600 77.800 330.400 79.087 C 332.490 79.795,334.515 80.482,334.900 80.614 C 335.537 80.832,335.600 80.479,335.600 76.660 L 335.600 72.466 332.300 71.402 C 330.485 70.817,328.497 70.178,327.882 69.983 C 327.071 69.726,326.709 69.771,326.565 70.146 M171.400 185.239 C 167.494 185.794,167.330 185.878,166.402 187.796 C 164.675 191.364,160.256 192.610,156.724 190.526 L 155.264 189.665 154.202 191.269 C 152.936 193.182,152.819 193.016,156.021 193.837 C 164.207 195.936,176.800 190.590,176.800 185.016 C 176.800 184.722,174.309 184.825,171.400 185.239 " stroke="none" fill="#cb142c" fill-rule="evenodd"></path><path id="path3" d="M180.600 6.252 C 168.313 6.739,145.633 8.545,138.600 9.597 C 118.971 12.532,111.104 13.841,106.000 15.019 C 103.690 15.552,98.200 16.798,93.800 17.789 C 66.305 23.977,38.126 33.893,13.100 46.187 L 6.000 49.675 6.002 94.938 C 6.004 137.544,6.167 146.066,7.220 158.400 C 7.854 165.826,9.588 180.315,9.964 181.322 C 10.144 181.805,10.416 183.100,10.568 184.200 C 12.405 197.474,21.343 234.445,24.009 239.800 C 24.228 240.240,25.295 243.210,26.380 246.400 C 31.931 262.718,41.953 285.123,50.481 300.277 C 51.866 302.739,53.790 306.159,54.756 307.877 C 56.543 311.056,56.858 311.556,63.316 321.435 C 69.878 331.471,76.758 340.881,82.741 348.000 C 83.943 349.430,85.753 351.582,86.763 352.783 C 93.501 360.790,109.094 376.724,114.400 381.026 C 115.170 381.650,116.702 382.979,117.805 383.980 C 123.181 388.859,131.382 395.422,140.800 402.384 C 147.903 407.635,160.631 416.126,168.151 420.631 C 178.192 426.646,182.568 429.150,190.800 433.592 C 193.550 435.075,196.574 436.712,197.519 437.229 C 199.049 438.065,199.335 438.107,200.119 437.608 C 200.604 437.299,203.250 435.849,206.000 434.385 C 212.340 431.010,217.981 427.890,220.800 426.201 C 222.010 425.476,224.024 424.279,225.275 423.541 C 231.911 419.628,234.350 418.151,235.800 417.169 C 236.680 416.573,240.280 414.177,243.800 411.846 C 249.800 407.873,252.534 405.957,260.264 400.308 C 272.502 391.363,288.223 377.635,298.177 367.202 C 300.170 365.114,302.610 362.581,303.600 361.575 C 338.696 325.892,370.216 264.571,383.258 206.600 C 391.267 171.002,392.517 154.744,392.318 88.800 L 392.200 49.800 386.000 46.667 C 361.391 34.229,330.023 23.271,300.400 16.762 C 275.911 11.381,255.946 8.606,228.600 6.784 C 222.263 6.362,187.538 5.977,180.600 6.252 M229.400 16.770 C 284.628 20.620,337.776 33.763,377.200 53.320 L 382.200 55.800 382.198 99.000 C 382.196 146.835,381.921 153.363,378.997 174.843 C 376.177 195.565,368.240 228.179,362.411 243.000 C 361.805 244.540,360.990 246.790,360.599 248.000 C 359.704 250.772,354.511 263.716,352.862 267.287 C 352.180 268.765,351.159 271.071,350.595 272.412 C 333.829 312.246,299.712 356.267,262.436 386.161 C 244.978 400.163,220.588 415.942,201.073 425.862 L 199.145 426.841 194.073 424.172 C 189.194 421.605,178.979 415.795,173.313 412.365 C 161.532 405.231,141.826 391.405,134.356 385.032 C 133.562 384.354,131.416 382.540,129.587 381.000 C 116.095 369.641,99.421 352.805,90.600 341.633 C 89.500 340.240,87.725 337.997,86.655 336.650 C 71.568 317.644,58.471 295.881,46.662 270.197 C 40.668 257.161,32.544 234.837,29.196 222.200 C 28.497 219.560,27.497 215.913,26.974 214.096 C 26.451 212.279,25.384 207.779,24.602 204.096 C 23.820 200.413,22.915 196.312,22.592 194.981 C 21.267 189.533,18.803 173.031,17.399 160.200 C 16.188 149.132,16.004 141.027,16.002 98.773 L 16.000 55.745 22.700 52.493 C 30.082 48.910,35.134 46.669,40.600 44.554 C 42.580 43.788,45.100 42.783,46.200 42.321 C 57.770 37.459,87.517 28.878,104.051 25.632 C 119.259 22.647,123.031 21.969,129.600 21.039 C 140.640 19.475,161.481 17.283,169.800 16.811 C 173.980 16.574,178.300 16.316,179.400 16.239 C 183.772 15.931,223.396 16.352,229.400 16.770 M185.000 110.652 C 175.423 110.968,152.683 112.877,140.000 114.429 C 129.794 115.678,109.855 119.266,99.800 121.663 C 74.811 127.619,55.552 133.769,37.505 141.554 C 29.380 145.058,29.522 144.959,29.764 146.919 C 29.877 147.844,30.078 150.310,30.210 152.400 C 33.775 208.813,56.353 272.370,88.608 316.793 C 91.487 320.758,95.224 325.786,95.874 326.571 C 96.226 326.994,97.085 328.091,97.785 329.008 C 107.537 341.784,126.975 361.854,139.422 372.000 C 147.132 378.284,149.226 379.940,153.800 383.369 C 159.712 387.801,162.391 389.760,163.069 390.144 C 164.087 390.720,171.539 385.487,176.827 380.482 C 182.045 375.544,187.337 368.813,191.763 361.487 C 192.609 360.087,192.769 360.197,195.268 363.900 C 199.138 369.636,202.418 377.782,203.763 385.000 C 204.842 390.788,204.873 390.874,205.240 389.000 C 206.836 380.838,206.221 365.008,204.004 357.200 C 203.598 355.770,202.699 352.626,202.006 350.213 C 197.430 334.271,185.928 316.054,170.700 300.628 C 164.003 293.845,163.752 293.436,167.500 295.417 C 188.388 306.453,210.380 322.823,224.171 337.602 C 225.915 339.471,227.512 341.180,227.721 341.400 C 229.665 343.451,225.380 319.403,222.971 314.744 C 221.457 311.816,222.373 312.185,226.835 316.300 C 240.200 328.626,253.597 345.816,260.939 360.061 C 262.113 362.337,263.379 364.790,263.752 365.511 C 264.605 367.155,264.886 366.988,268.681 362.584 C 287.491 340.758,299.294 311.275,302.629 277.788 L 303.307 270.976 301.798 265.388 C 297.909 250.993,290.416 235.859,283.385 228.200 C 281.612 226.269,281.557 226.241,281.777 227.400 C 282.401 230.675,284.476 245.369,285.138 251.200 L 285.888 257.800 284.498 260.600 C 280.551 268.553,273.868 277.915,266.941 285.193 C 261.180 291.247,261.187 291.243,255.479 291.642 C 235.319 293.050,206.419 284.348,185.000 270.420 L 183.000 269.120 176.600 269.386 C 169.814 269.668,169.286 269.729,160.712 271.209 C 157.693 271.731,155.135 272.068,155.026 271.960 C 154.918 271.851,156.040 269.341,157.521 266.381 C 163.652 254.124,167.956 242.574,168.990 235.600 L 169.257 233.800 165.128 229.736 C 160.690 225.367,155.790 221.076,152.590 218.757 L 150.600 217.315 141.000 217.830 C 135.720 218.114,129.915 218.464,128.100 218.609 C 124.047 218.932,124.149 219.871,127.013 208.602 C 128.231 203.812,129.166 199.832,129.091 199.758 C 128.908 199.575,120.421 207.877,117.044 211.544 L 114.332 214.488 109.866 215.898 C 95.567 220.413,93.146 220.451,85.100 216.287 C 80.476 213.894,80.571 214.319,83.748 210.257 C 92.012 199.691,106.543 188.461,117.200 184.405 C 119.209 183.640,119.316 183.455,118.408 182.301 C 117.072 180.603,115.608 177.098,115.608 175.600 C 115.609 174.051,115.507 174.129,124.800 168.491 C 132.617 163.748,132.640 163.742,131.780 166.601 C 130.952 169.352,131.120 169.434,133.532 167.455 C 137.513 164.190,148.684 157.000,153.200 154.796 C 154.984 153.926,155.020 153.867,157.200 148.303 C 161.781 136.610,165.667 131.008,169.464 130.620 L 171.928 130.368 172.419 131.884 C 173.181 134.233,175.821 139.196,177.431 141.306 L 178.885 143.212 177.545 143.679 C 175.303 144.461,166.290 149.052,164.822 150.160 C 163.301 151.309,163.402 151.364,165.945 150.778 C 192.874 144.569,214.707 144.219,235.300 149.667 C 239.248 150.712,239.165 151.031,233.125 158.031 C 232.066 159.258,231.200 160.371,231.200 160.505 C 231.200 161.833,254.393 151.893,266.000 145.590 C 281.331 137.264,283.709 136.168,291.122 134.004 L 295.644 132.683 299.722 133.596 C 310.712 136.055,311.633 136.552,314.685 141.652 C 317.719 146.724,317.757 149.388,314.965 161.392 C 311.421 176.636,311.036 178.065,306.951 191.119 L 305.162 196.838 302.281 199.877 C 299.029 203.308,294.167 207.483,289.414 210.927 L 286.202 213.254 288.363 212.967 C 291.899 212.498,300.079 210.647,308.503 208.409 L 316.406 206.309 318.303 207.832 C 324.896 213.127,334.775 223.349,343.925 234.343 C 349.604 241.167,349.003 240.983,350.653 236.400 C 359.214 212.630,365.774 180.945,367.995 152.642 C 368.671 144.034,369.460 145.368,361.700 142.001 C 345.756 135.083,324.724 128.038,307.800 123.947 C 292.079 120.147,289.211 119.524,279.400 117.781 C 261.336 114.571,252.623 113.491,231.200 111.806 C 218.430 110.801,196.826 110.262,185.000 110.652 M293.600 142.928 C 288.015 144.593,279.770 149.446,269.930 156.860 C 264.488 160.961,264.296 161.178,266.300 160.963 C 272.190 160.332,275.608 159.936,276.900 159.733 C 279.061 159.394,278.955 159.783,274.500 168.516 C 272.355 172.722,270.540 176.306,270.467 176.481 C 270.240 177.023,274.007 176.801,278.200 176.026 C 280.400 175.619,282.322 175.401,282.470 175.543 C 282.784 175.842,278.147 187.585,275.447 193.328 C 273.178 198.154,273.172 198.108,277.251 207.104 L 278.024 208.808 279.312 208.158 C 281.803 206.900,292.344 198.736,296.491 194.852 C 298.517 192.954,302.433 180.678,306.187 164.456 C 306.968 161.082,308.055 156.584,308.604 154.460 C 309.718 150.144,309.635 149.315,307.787 146.366 C 306.396 144.145,306.499 144.206,302.415 143.241 C 297.109 141.987,296.794 141.976,293.600 142.928 M191.000 171.221 C 187.415 171.699,182.522 172.871,175.577 174.914 C 169.149 176.805,168.482 177.042,160.861 180.149 C 155.184 182.463,155.533 182.505,154.118 179.341 L 152.930 176.683 151.933 178.041 C 151.384 178.789,148.717 182.460,146.004 186.200 C 143.292 189.940,140.196 194.168,139.125 195.595 L 137.176 198.189 138.177 198.457 C 143.010 199.750,157.774 199.806,168.387 198.572 L 173.773 197.946 176.232 195.787 C 179.508 192.911,185.292 187.151,190.200 181.876 C 194.576 177.174,194.821 177.045,202.200 175.578 L 204.600 175.100 202.400 174.127 C 200.298 173.198,193.611 170.745,193.468 170.851 C 193.431 170.879,192.320 171.045,191.000 171.221 M215.758 187.300 C 215.754 191.509,215.592 193.694,215.236 194.347 C 213.924 196.760,206.450 206.056,198.351 215.351 C 196.434 217.550,196.799 217.605,200.600 215.688 C 202.586 214.686,206.259 213.014,217.000 208.221 C 220.080 206.846,223.709 205.160,225.064 204.473 L 227.527 203.225 228.341 199.713 C 228.789 197.781,229.412 194.810,229.727 193.110 L 230.300 190.020 228.250 188.456 C 224.484 185.583,217.142 181.200,216.096 181.200 C 215.914 181.200,215.762 183.945,215.758 187.300 M176.933 184.666 C 177.079 184.812,176.725 185.757,176.146 186.766 C 172.537 193.056,162.703 196.400,155.057 193.936 C 153.054 193.291,152.923 192.822,154.187 190.820 L 155.231 189.166 156.268 189.982 C 159.700 192.682,164.666 191.412,166.450 187.379 C 167.277 185.512,166.633 185.756,173.600 184.665 C 175.350 184.392,176.658 184.392,176.933 184.666 M84.485 228.505 C 85.521 230.097,87.734 232.836,89.401 234.591 C 92.312 237.654,92.483 237.941,93.674 241.791 C 94.356 243.996,95.415 247.060,96.027 248.600 C 97.906 253.326,97.912 253.196,95.671 255.758 C 94.577 257.008,92.476 259.733,91.000 261.815 C 89.524 263.897,88.198 265.600,88.052 265.600 C 87.324 265.600,78.695 247.292,77.211 242.600 L 76.326 239.800 78.138 235.000 C 82.289 224.001,81.847 224.454,84.485 228.505 M138.485 226.500 C 139.465 227.269,143.200 231.914,143.200 232.364 C 143.200 232.584,142.525 232.873,141.700 233.006 C 132.136 234.548,131.572 234.842,135.631 236.173 C 138.949 237.260,147.081 241.104,148.789 242.392 C 149.523 242.945,149.619 243.290,149.388 244.526 L 149.111 246.000 142.455 246.006 C 135.220 246.013,133.988 246.264,136.146 247.294 C 138.006 248.180,146.800 253.917,146.800 254.243 C 146.800 254.388,146.592 255.203,146.337 256.054 C 145.807 257.822,145.966 257.791,140.668 257.171 C 138.651 256.935,136.130 256.800,135.066 256.871 L 133.132 257.000 136.477 259.489 C 138.317 260.858,140.416 262.591,141.142 263.340 L 142.463 264.703 141.425 266.751 C 140.854 267.878,140.221 268.800,140.018 268.800 C 138.692 268.800,118.584 261.536,115.374 259.898 C 114.728 259.568,112.395 258.574,110.190 257.689 C 106.789 256.324,102.795 254.506,100.400 253.234 C 99.915 252.976,99.745 251.444,99.513 245.223 L 99.226 237.532 100.849 235.382 C 102.190 233.606,105.757 230.354,108.798 228.135 C 109.322 227.752,116.158 226.923,124.200 226.265 C 128.886 225.882,137.886 226.030,138.485 226.500 M103.052 262.911 C 106.555 265.780,126.879 276.692,135.400 280.279 C 136.720 280.835,139.059 281.899,140.599 282.645 C 142.138 283.390,143.623 284.000,143.899 284.000 C 144.174 284.000,144.400 284.177,144.400 284.392 C 144.400 284.858,143.489 285.068,140.000 285.403 C 132.006 286.172,122.473 288.355,111.059 292.030 C 108.229 292.941,108.153 292.908,104.717 289.265 C 95.929 279.950,93.776 271.998,97.845 263.892 C 99.593 260.409,99.922 260.347,103.052 262.911 " stroke="none" fill="#041c44" fill-rule="evenodd"></path><path id="path4" d="M185.100 16.295 C 186.255 16.376,188.145 16.376,189.300 16.295 C 190.455 16.214,189.510 16.148,187.200 16.148 C 184.890 16.148,183.945 16.214,185.100 16.295 M209.113 16.295 C 210.276 16.376,212.076 16.376,213.113 16.293 C 214.151 16.211,213.200 16.145,211.000 16.146 C 208.800 16.147,207.951 16.214,209.113 16.295 M175.700 16.691 C 176.525 16.778,177.875 16.778,178.700 16.691 C 179.525 16.605,178.850 16.534,177.200 16.534 C 175.550 16.534,174.875 16.605,175.700 16.691 M219.511 16.693 C 220.451 16.778,221.891 16.777,222.711 16.691 C 223.530 16.605,222.760 16.536,221.000 16.537 C 219.240 16.539,218.570 16.609,219.511 16.693 M168.707 17.090 C 169.426 17.179,170.506 17.177,171.107 17.086 C 171.708 16.995,171.120 16.922,169.800 16.924 C 168.480 16.926,167.988 17.001,168.707 17.090 M227.300 17.087 C 227.905 17.178,228.895 17.178,229.500 17.087 C 230.105 16.995,229.610 16.920,228.400 16.920 C 227.190 16.920,226.695 16.995,227.300 17.087 M163.100 17.482 C 163.595 17.578,164.405 17.578,164.900 17.482 C 165.395 17.387,164.990 17.309,164.000 17.309 C 163.010 17.309,162.605 17.387,163.100 17.482 M233.500 17.482 C 233.995 17.578,234.805 17.578,235.300 17.482 C 235.795 17.387,235.390 17.309,234.400 17.309 C 233.410 17.309,233.005 17.387,233.500 17.482 M5.793 91.800 C 5.793 114.900,5.841 124.291,5.900 112.669 C 5.959 101.048,5.959 82.148,5.900 70.669 C 5.841 59.191,5.793 68.700,5.793 91.800 M185.100 110.682 C 185.595 110.778,186.405 110.778,186.900 110.682 C 187.395 110.587,186.990 110.509,186.000 110.509 C 185.010 110.509,184.605 110.587,185.100 110.682 M211.305 110.687 C 211.914 110.779,212.814 110.777,213.305 110.682 C 213.797 110.587,213.300 110.511,212.200 110.514 C 211.100 110.517,210.697 110.595,211.305 110.687 M163.105 111.883 C 163.602 111.979,164.322 111.975,164.705 111.875 C 165.087 111.775,164.680 111.696,163.800 111.701 C 162.920 111.705,162.607 111.787,163.105 111.883 M234.100 111.876 C 234.485 111.976,235.115 111.976,235.500 111.876 C 235.885 111.775,235.570 111.693,234.800 111.693 C 234.030 111.693,233.715 111.775,234.100 111.876 M158.305 112.283 C 158.802 112.379,159.522 112.375,159.905 112.275 C 160.287 112.175,159.880 112.096,159.000 112.101 C 158.120 112.105,157.807 112.187,158.305 112.283 M238.705 112.283 C 239.202 112.379,239.922 112.375,240.305 112.275 C 240.687 112.175,240.280 112.096,239.400 112.101 C 238.520 112.105,238.207 112.187,238.705 112.283 M153.905 112.683 C 154.402 112.779,155.122 112.775,155.505 112.675 C 155.887 112.575,155.480 112.496,154.600 112.501 C 153.720 112.505,153.407 112.587,153.905 112.683 M243.105 112.683 C 243.602 112.779,244.322 112.775,244.705 112.675 C 245.087 112.575,244.680 112.496,243.800 112.501 C 242.920 112.505,242.607 112.587,243.105 112.683 M150.500 113.076 C 150.885 113.176,151.515 113.176,151.900 113.076 C 152.285 112.975,151.970 112.893,151.200 112.893 C 150.430 112.893,150.115 112.975,150.500 113.076 M246.500 113.076 C 246.885 113.176,247.515 113.176,247.900 113.076 C 248.285 112.975,247.970 112.893,247.200 112.893 C 246.430 112.893,246.115 112.975,246.500 113.076 M16.158 137.400 C 16.158 140.480,16.221 141.687,16.297 140.082 C 16.373 138.478,16.373 135.958,16.296 134.482 C 16.219 133.007,16.157 134.320,16.158 137.400 M381.714 141.400 C 381.717 142.500,381.795 142.903,381.887 142.295 C 381.979 141.686,381.977 140.786,381.882 140.295 C 381.787 139.803,381.711 140.300,381.714 141.400 M286.700 145.429 C 285.205 146.240,285.296 146.578,286.800 145.800 C 287.460 145.459,288.000 145.094,288.000 144.990 C 288.000 144.732,287.957 144.747,286.700 145.429 M368.509 146.400 C 368.509 147.390,368.587 147.795,368.682 147.300 C 368.778 146.805,368.778 145.995,368.682 145.500 C 368.587 145.005,368.509 145.410,368.509 146.400 M16.524 148.200 C 16.526 149.520,16.601 150.012,16.690 149.293 C 16.779 148.574,16.777 147.494,16.686 146.893 C 16.595 146.292,16.522 146.880,16.524 148.200 M195.305 146.287 C 195.914 146.379,196.814 146.377,197.305 146.282 C 197.797 146.187,197.300 146.111,196.200 146.114 C 195.100 146.117,194.697 146.195,195.305 146.287 M211.300 146.287 C 211.905 146.378,212.895 146.378,213.500 146.287 C 214.105 146.195,213.610 146.120,212.400 146.120 C 211.190 146.120,210.695 146.195,211.300 146.287 M191.105 146.683 C 191.602 146.779,192.322 146.775,192.705 146.675 C 193.087 146.575,192.680 146.496,191.800 146.501 C 190.920 146.505,190.607 146.587,191.105 146.683 M216.300 146.682 C 216.795 146.778,217.605 146.778,218.100 146.682 C 218.595 146.587,218.190 146.509,217.200 146.509 C 216.210 146.509,215.805 146.587,216.300 146.682 M187.300 147.076 C 187.685 147.176,188.315 147.176,188.700 147.076 C 189.085 146.975,188.770 146.893,188.000 146.893 C 187.230 146.893,186.915 146.975,187.300 147.076 M29.709 150.800 C 29.709 151.790,29.787 152.195,29.882 151.700 C 29.978 151.205,29.978 150.395,29.882 149.900 C 29.787 149.405,29.709 149.810,29.709 150.800 M163.029 151.009 C 162.605 151.329,162.405 151.729,162.584 151.896 C 162.763 152.063,162.984 151.994,163.074 151.742 C 163.164 151.491,163.545 151.330,163.919 151.385 C 164.294 151.440,164.373 151.407,164.095 151.312 C 163.817 151.217,163.693 150.973,163.819 150.770 C 164.132 150.264,163.936 150.323,163.029 151.009 M368.093 152.000 C 368.093 152.770,368.175 153.085,368.276 152.700 C 368.376 152.315,368.376 151.685,368.276 151.300 C 368.175 150.915,368.093 151.230,368.093 152.000 M16.909 153.600 C 16.909 154.590,16.987 154.995,17.082 154.500 C 17.178 154.005,17.178 153.195,17.082 152.700 C 16.987 152.205,16.909 152.610,16.909 153.600 M30.101 155.800 C 30.105 156.680,30.187 156.993,30.283 156.495 C 30.379 155.998,30.375 155.278,30.275 154.895 C 30.175 154.513,30.096 154.920,30.101 155.800 M17.293 158.000 C 17.293 158.770,17.375 159.085,17.476 158.700 C 17.576 158.315,17.576 157.685,17.476 157.300 C 17.375 156.915,17.293 157.230,17.293 158.000 M30.501 160.200 C 30.505 161.080,30.587 161.393,30.683 160.895 C 30.779 160.398,30.775 159.678,30.675 159.295 C 30.575 158.913,30.496 159.320,30.501 160.200 M267.505 161.083 C 268.002 161.179,268.722 161.175,269.105 161.075 C 269.487 160.975,269.080 160.896,268.200 160.901 C 267.320 160.905,267.007 160.987,267.505 161.083 M30.893 163.600 C 30.893 164.370,30.975 164.685,31.076 164.300 C 31.176 163.915,31.176 163.285,31.076 162.900 C 30.975 162.515,30.893 162.830,30.893 163.600 M215.260 182.300 C 215.314 183.660,215.336 183.688,215.496 182.601 C 215.593 181.942,215.881 181.270,216.136 181.107 C 216.437 180.916,216.354 180.810,215.900 180.806 C 215.346 180.801,215.213 181.113,215.260 182.300 M174.400 184.556 C 174.400 184.642,175.017 184.785,175.772 184.873 C 176.527 184.961,177.056 184.890,176.948 184.716 C 176.755 184.403,174.400 184.255,174.400 184.556 M171.700 185.076 C 172.085 185.176,172.715 185.176,173.100 185.076 C 173.485 184.975,173.170 184.893,172.400 184.893 C 171.630 184.893,171.315 184.975,171.700 185.076 M173.775 189.700 L 172.600 191.000 173.900 189.825 C 175.112 188.730,175.384 188.400,175.075 188.400 C 175.006 188.400,174.421 188.985,173.775 189.700 M154.911 189.700 C 154.155 190.678,153.943 191.384,154.675 190.490 C 155.289 189.738,155.519 189.668,155.990 190.090 C 156.480 190.527,156.486 190.500,156.032 189.900 C 155.400 189.065,155.402 189.066,154.911 189.700 M215.301 192.200 C 215.305 193.080,215.387 193.393,215.483 192.895 C 215.579 192.398,215.575 191.678,215.475 191.295 C 215.375 190.913,215.296 191.320,215.301 192.200 M297.029 194.362 L 295.858 195.800 297.209 194.513 C 297.951 193.805,298.478 193.158,298.379 193.075 C 298.281 192.992,297.673 193.571,297.029 194.362 M159.091 194.689 C 159.801 194.777,161.061 194.779,161.891 194.692 C 162.721 194.605,162.140 194.533,160.600 194.531 C 159.060 194.529,158.381 194.600,159.091 194.689 M300.591 201.300 L 297.400 204.600 300.700 201.409 C 303.765 198.446,304.182 198.000,303.891 198.000 C 303.830 198.000,302.345 199.485,300.591 201.300 M116.581 211.700 L 115.000 213.400 116.700 211.819 C 117.635 210.949,118.400 210.184,118.400 210.119 C 118.400 209.816,118.052 210.119,116.581 211.700 M327.600 216.600 C 329.017 218.030,330.267 219.200,330.377 219.200 C 330.487 219.200,329.417 218.030,328.000 216.600 C 326.583 215.170,325.333 214.000,325.223 214.000 C 325.113 214.000,326.183 215.170,327.600 216.600 M196.863 216.533 C 196.190 217.249,196.127 217.467,196.593 217.467 C 196.927 217.467,197.110 217.376,196.999 217.266 C 196.889 217.155,197.097 216.735,197.461 216.332 C 198.435 215.256,197.891 215.439,196.863 216.533 M143.705 217.487 C 144.314 217.579,145.214 217.577,145.705 217.482 C 146.197 217.387,145.700 217.311,144.600 217.314 C 143.500 217.317,143.097 217.395,143.705 217.487 M136.307 217.890 C 137.026 217.979,138.106 217.977,138.707 217.886 C 139.308 217.795,138.720 217.722,137.400 217.724 C 136.080 217.726,135.588 217.801,136.307 217.890 M129.700 218.287 C 130.305 218.378,131.295 218.378,131.900 218.287 C 132.505 218.195,132.010 218.120,130.800 218.120 C 129.590 218.120,129.095 218.195,129.700 218.287 M334.000 223.400 C 334.746 224.170,335.447 224.800,335.557 224.800 C 335.667 224.800,335.146 224.170,334.400 223.400 C 333.654 222.630,332.953 222.000,332.843 222.000 C 332.733 222.000,333.254 222.630,334.000 223.400 M162.783 227.300 C 164.441 229.066,164.800 229.384,164.800 229.083 C 164.800 229.019,163.945 228.164,162.900 227.183 L 161.000 225.400 162.783 227.300 M281.384 226.427 C 281.239 226.661,281.228 226.961,281.360 227.093 C 281.492 227.225,281.600 227.090,281.600 226.792 C 281.600 226.466,282.119 226.719,282.900 227.425 L 284.200 228.600 283.025 227.300 C 281.695 225.828,281.739 225.851,281.384 226.427 M168.265 232.800 C 168.741 233.350,169.211 234.250,169.310 234.800 L 169.491 235.800 169.546 234.770 C 169.581 234.101,169.213 233.399,168.500 232.770 L 167.400 231.800 168.265 232.800 M58.428 264.600 C 58.428 264.820,58.686 265.450,59.000 266.000 C 59.314 266.550,59.572 266.820,59.572 266.600 C 59.572 266.380,59.314 265.750,59.000 265.200 C 58.686 264.650,58.428 264.380,58.428 264.600 M303.293 271.600 C 303.293 272.370,303.375 272.685,303.476 272.300 C 303.576 271.915,303.576 271.285,303.476 270.900 C 303.375 270.515,303.293 270.830,303.293 271.600 M302.493 280.400 C 302.493 281.170,302.575 281.485,302.676 281.100 C 302.776 280.715,302.776 280.085,302.676 279.700 C 302.575 279.315,302.493 279.630,302.493 280.400 M344.400 284.400 C 343.951 285.280,343.674 286.000,343.784 286.000 C 343.894 286.000,344.351 285.280,344.800 284.400 C 345.249 283.520,345.526 282.800,345.416 282.800 C 345.306 282.800,344.849 283.520,344.400 284.400 M265.381 286.500 L 263.800 288.200 265.500 286.619 C 267.081 285.148,267.384 284.800,267.081 284.800 C 267.016 284.800,266.251 285.565,265.381 286.500 M108.000 341.725 C 108.000 341.794,108.585 342.379,109.300 343.025 L 110.600 344.200 109.425 342.900 C 108.330 341.688,108.000 341.416,108.000 341.725 M112.783 346.900 C 114.441 348.666,114.800 348.984,114.800 348.683 C 114.800 348.619,113.945 347.764,112.900 346.783 L 111.000 345.000 112.783 346.900 M96.400 348.525 C 96.400 348.594,96.985 349.179,97.700 349.825 L 99.000 351.000 97.825 349.700 C 96.730 348.488,96.400 348.216,96.400 348.525 M100.000 352.525 C 100.000 352.594,100.585 353.179,101.300 353.825 L 102.600 355.000 101.425 353.700 C 100.330 352.488,100.000 352.216,100.000 352.525 M120.000 354.600 C 120.746 355.370,121.447 356.000,121.557 356.000 C 121.667 356.000,121.146 355.370,120.400 354.600 C 119.654 353.830,118.953 353.200,118.843 353.200 C 118.733 353.200,119.254 353.830,120.000 354.600 M294.981 355.700 L 293.400 357.400 295.100 355.819 C 296.681 354.348,296.984 354.000,296.681 354.000 C 296.616 354.000,295.851 354.765,294.981 355.700 M110.400 363.400 C 113.584 366.590,116.280 369.200,116.390 369.200 C 116.500 369.200,113.984 366.590,110.800 363.400 C 107.616 360.210,104.920 357.600,104.810 357.600 C 104.700 357.600,107.216 360.210,110.400 363.400 M128.600 362.800 C 129.683 363.900,130.660 364.800,130.770 364.800 C 130.880 364.800,130.083 363.900,129.000 362.800 C 127.917 361.700,126.940 360.800,126.830 360.800 C 126.720 360.800,127.517 361.700,128.600 362.800 M132.000 365.725 C 132.000 365.794,132.585 366.379,133.300 367.025 L 134.600 368.200 133.425 366.900 C 132.330 365.688,132.000 365.416,132.000 365.725 M280.000 370.600 C 279.028 371.590,278.323 372.400,278.433 372.400 C 278.543 372.400,279.428 371.590,280.400 370.600 C 281.372 369.610,282.077 368.800,281.967 368.800 C 281.857 368.800,280.972 369.610,280.000 370.600 M119.800 372.400 C 120.659 373.280,121.452 374.000,121.562 374.000 C 121.672 374.000,121.059 373.280,120.200 372.400 C 119.341 371.520,118.548 370.800,118.438 370.800 C 118.328 370.800,118.941 371.520,119.800 372.400 M122.800 374.925 C 122.800 374.994,123.385 375.579,124.100 376.225 L 125.400 377.400 124.225 376.100 C 123.130 374.888,122.800 374.616,122.800 374.925 M177.791 379.700 L 174.600 383.000 177.900 379.809 C 180.965 376.846,181.382 376.400,181.091 376.400 C 181.030 376.400,179.545 377.885,177.791 379.700 " stroke="none" fill="#424952" fill-rule="evenodd"></path><path id="path5" d="M190.716 5.897 C 192.099 5.975,194.259 5.974,195.516 5.895 C 196.772 5.816,195.640 5.752,193.000 5.753 C 190.360 5.753,189.332 5.818,190.716 5.897 M202.700 5.896 C 204.075 5.974,206.325 5.974,207.700 5.896 C 209.075 5.818,207.950 5.754,205.200 5.754 C 202.450 5.754,201.325 5.818,202.700 5.896 M195.100 16.298 C 197.355 16.370,201.045 16.370,203.300 16.298 C 205.555 16.227,203.710 16.169,199.200 16.169 C 194.690 16.169,192.845 16.227,195.100 16.298 M16.192 94.200 C 16.192 115.100,16.241 123.709,16.300 113.330 C 16.359 102.952,16.359 85.852,16.300 75.330 C 16.241 64.809,16.192 73.300,16.192 94.200 M5.731 136.200 C 5.733 137.740,5.805 138.321,5.892 137.491 C 5.979 136.661,5.977 135.401,5.889 134.691 C 5.800 133.981,5.729 134.660,5.731 136.200 M201.119 146.298 C 202.944 146.372,205.824 146.372,207.519 146.297 C 209.214 146.222,207.720 146.161,204.200 146.162 C 200.680 146.162,199.294 146.224,201.119 146.298 M188.778 183.500 L 187.400 185.000 188.900 183.622 C 189.725 182.863,190.400 182.188,190.400 182.122 C 190.400 181.816,190.062 182.104,188.778 183.500 M215.293 184.800 C 215.293 185.570,215.375 185.885,215.476 185.500 C 215.576 185.115,215.576 184.485,215.476 184.100 C 215.375 183.715,215.293 184.030,215.293 184.800 M122.575 205.300 L 121.400 206.600 122.700 205.425 C 123.415 204.779,124.000 204.194,124.000 204.125 C 124.000 203.816,123.670 204.088,122.575 205.300 M323.600 213.000 C 324.346 213.770,325.047 214.400,325.157 214.400 C 325.267 214.400,324.746 213.770,324.000 213.000 C 323.254 212.230,322.553 211.600,322.443 211.600 C 322.333 211.600,322.854 212.230,323.600 213.000 M330.400 219.725 C 330.400 219.794,330.985 220.379,331.700 221.025 L 333.000 222.200 331.825 220.900 C 330.730 219.688,330.400 219.416,330.400 219.725 M244.900 291.476 C 245.285 291.576,245.915 291.576,246.300 291.476 C 246.685 291.375,246.370 291.293,245.600 291.293 C 244.830 291.293,244.515 291.375,244.900 291.476 M116.783 351.300 C 118.441 353.066,118.800 353.384,118.800 353.083 C 118.800 353.019,117.945 352.164,116.900 351.183 L 115.000 349.400 116.783 351.300 M123.400 358.000 C 124.483 359.100,125.460 360.000,125.570 360.000 C 125.680 360.000,124.883 359.100,123.800 358.000 C 122.717 356.900,121.740 356.000,121.630 356.000 C 121.520 356.000,122.317 356.900,123.400 358.000 M282.975 367.700 L 281.800 369.000 283.100 367.825 C 283.815 367.179,284.400 366.594,284.400 366.525 C 284.400 366.216,284.070 366.488,282.975 367.700 " stroke="none" fill="#51647c" fill-rule="evenodd"></path><path id="path6" d="M184.700 5.889 C 185.415 5.978,186.585 5.978,187.300 5.889 C 188.015 5.801,187.430 5.728,186.000 5.728 C 184.570 5.728,183.985 5.801,184.700 5.889 M211.107 5.890 C 211.826 5.979,212.906 5.977,213.507 5.886 C 214.108 5.795,213.520 5.722,212.200 5.724 C 210.880 5.726,210.388 5.801,211.107 5.890 M174.500 6.287 C 175.105 6.378,176.095 6.378,176.700 6.287 C 177.305 6.195,176.810 6.120,175.600 6.120 C 174.390 6.120,173.895 6.195,174.500 6.287 M221.705 6.287 C 222.314 6.379,223.214 6.377,223.705 6.282 C 224.197 6.187,223.700 6.111,222.600 6.114 C 221.500 6.117,221.097 6.195,221.705 6.287 M167.500 6.682 C 167.995 6.778,168.805 6.778,169.300 6.682 C 169.795 6.587,169.390 6.509,168.400 6.509 C 167.410 6.509,167.005 6.587,167.500 6.682 M229.100 6.682 C 229.595 6.778,230.405 6.778,230.900 6.682 C 231.395 6.587,230.990 6.509,230.000 6.509 C 229.010 6.509,228.605 6.587,229.100 6.682 M162.500 7.076 C 162.885 7.176,163.515 7.176,163.900 7.076 C 164.285 6.975,163.970 6.893,163.200 6.893 C 162.430 6.893,162.115 6.975,162.500 7.076 M234.500 7.076 C 234.885 7.176,235.515 7.176,235.900 7.076 C 236.285 6.975,235.970 6.893,235.200 6.893 C 234.430 6.893,234.115 6.975,234.500 7.076 M5.720 140.800 C 5.720 142.010,5.795 142.505,5.887 141.900 C 5.978 141.295,5.978 140.305,5.887 139.700 C 5.795 139.095,5.720 139.590,5.720 140.800 M392.093 142.000 C 392.093 142.770,392.175 143.085,392.276 142.700 C 392.376 142.315,392.376 141.685,392.276 141.300 C 392.175 140.915,392.093 141.230,392.093 142.000 M6.101 149.000 C 6.105 149.880,6.187 150.193,6.283 149.695 C 6.379 149.198,6.375 148.478,6.275 148.095 C 6.175 147.713,6.096 148.120,6.101 149.000 M6.501 154.200 C 6.505 155.080,6.587 155.393,6.683 154.895 C 6.779 154.398,6.775 153.678,6.675 153.295 C 6.575 152.913,6.496 153.320,6.501 154.200 M183.387 189.300 L 181.000 191.800 183.500 189.413 C 185.822 187.195,186.183 186.800,185.887 186.800 C 185.826 186.800,184.701 187.925,183.387 189.300 M162.500 199.476 C 162.885 199.576,163.515 199.576,163.900 199.476 C 164.285 199.375,163.970 199.293,163.200 199.293 C 162.430 199.293,162.115 199.375,162.500 199.476 M150.118 199.898 C 151.833 199.973,154.533 199.972,156.118 199.897 C 157.703 199.821,156.300 199.759,153.000 199.760 C 149.700 199.761,148.403 199.822,150.118 199.898 M89.800 235.600 C 90.883 236.700,91.860 237.600,91.970 237.600 C 92.080 237.600,91.283 236.700,90.200 235.600 C 89.117 234.500,88.140 233.600,88.030 233.600 C 87.920 233.600,88.717 234.500,89.800 235.600 M99.720 250.000 C 99.720 251.210,99.795 251.705,99.887 251.100 C 99.978 250.495,99.978 249.505,99.887 248.900 C 99.795 248.295,99.720 248.790,99.720 250.000 M137.105 256.683 C 137.602 256.779,138.322 256.775,138.705 256.675 C 139.087 256.575,138.680 256.496,137.800 256.501 C 136.920 256.505,136.607 256.587,137.105 256.683 M165.232 294.638 C 165.214 294.879,165.602 295.419,166.093 295.838 C 166.640 296.305,166.797 296.353,166.497 295.963 C 166.227 295.613,166.140 295.179,166.303 294.999 C 166.467 294.819,166.390 294.792,166.134 294.938 C 165.878 295.085,165.577 294.979,165.466 294.702 C 165.350 294.415,165.250 294.387,165.232 294.638 M231.400 321.200 C 233.150 322.960,234.671 324.400,234.781 324.400 C 234.891 324.400,233.550 322.960,231.800 321.200 C 230.050 319.440,228.529 318.000,228.419 318.000 C 228.309 318.000,229.650 319.440,231.400 321.200 M220.800 334.600 C 222.660 336.470,224.272 338.000,224.382 338.000 C 224.492 338.000,223.060 336.470,221.200 334.600 C 219.340 332.730,217.728 331.200,217.618 331.200 C 217.508 331.200,218.940 332.730,220.800 334.600 M92.000 359.325 C 92.000 359.394,92.585 359.979,93.300 360.625 L 94.600 361.800 93.425 360.500 C 92.330 359.288,92.000 359.016,92.000 359.325 M302.175 363.300 L 301.000 364.600 302.300 363.425 C 303.015 362.779,303.600 362.194,303.600 362.125 C 303.600 361.816,303.270 362.088,302.175 363.300 M102.800 370.600 C 104.881 372.690,106.674 374.400,106.784 374.400 C 106.894 374.400,105.281 372.690,103.200 370.600 C 101.119 368.510,99.326 366.800,99.216 366.800 C 99.106 366.800,100.719 368.510,102.800 370.600 M288.575 376.900 L 287.400 378.200 288.700 377.025 C 289.415 376.379,290.000 375.794,290.000 375.725 C 290.000 375.416,289.670 375.688,288.575 376.900 " stroke="none" fill="#546c84" fill-rule="evenodd"></path><path id="path7" d="M180.700 5.882 C 181.195 5.978,182.005 5.978,182.500 5.882 C 182.995 5.787,182.590 5.709,181.600 5.709 C 180.610 5.709,180.205 5.787,180.700 5.882 M215.900 5.882 C 216.395 5.978,217.205 5.978,217.700 5.882 C 218.195 5.787,217.790 5.709,216.800 5.709 C 215.810 5.709,215.405 5.787,215.900 5.882 M225.300 6.276 C 225.685 6.376,226.315 6.376,226.700 6.276 C 227.085 6.175,226.770 6.093,226.000 6.093 C 225.230 6.093,224.915 6.175,225.300 6.276 M159.700 7.076 C 160.085 7.176,160.715 7.176,161.100 7.076 C 161.485 6.975,161.170 6.893,160.400 6.893 C 159.630 6.893,159.315 6.975,159.700 7.076 M237.300 7.076 C 237.685 7.176,238.315 7.176,238.700 7.076 C 239.085 6.975,238.770 6.893,238.000 6.893 C 237.230 6.893,236.915 6.975,237.300 7.076 M155.105 7.483 C 155.602 7.579,156.322 7.575,156.705 7.475 C 157.087 7.375,156.680 7.296,155.800 7.301 C 154.920 7.305,154.607 7.387,155.105 7.483 M241.905 7.483 C 242.402 7.579,243.122 7.575,243.505 7.475 C 243.887 7.375,243.480 7.296,242.600 7.301 C 241.720 7.305,241.407 7.387,241.905 7.483 M150.700 7.882 C 151.195 7.978,152.005 7.978,152.500 7.882 C 152.995 7.787,152.590 7.709,151.600 7.709 C 150.610 7.709,150.205 7.787,150.700 7.882 M245.900 7.882 C 246.395 7.978,247.205 7.978,247.700 7.882 C 248.195 7.787,247.790 7.709,246.800 7.709 C 245.810 7.709,245.405 7.787,245.900 7.882 M249.700 8.276 C 250.085 8.376,250.715 8.376,251.100 8.276 C 251.485 8.175,251.170 8.093,250.400 8.093 C 249.630 8.093,249.315 8.175,249.700 8.276 M208.100 41.491 C 208.925 41.578,210.275 41.578,211.100 41.491 C 211.925 41.405,211.250 41.334,209.600 41.334 C 207.950 41.334,207.275 41.405,208.100 41.491 M376.400 41.800 C 376.950 42.114,377.580 42.372,377.800 42.372 C 378.020 42.372,377.750 42.114,377.200 41.800 C 376.650 41.486,376.020 41.228,375.800 41.228 C 375.580 41.228,375.850 41.486,376.400 41.800 M164.400 42.696 C 164.730 42.825,165.235 43.216,165.522 43.565 C 165.965 44.104,165.978 44.063,165.608 43.300 C 165.368 42.805,164.863 42.414,164.486 42.432 C 163.930 42.457,163.914 42.507,164.400 42.696 M239.387 65.200 C 239.387 77.410,239.438 82.405,239.500 76.300 C 239.562 70.195,239.562 60.205,239.500 54.100 C 239.438 47.995,239.387 52.990,239.387 65.200 M217.999 55.081 C 217.889 58.426,217.940 61.022,218.111 60.850 C 218.283 60.678,218.372 57.941,218.310 54.769 L 218.197 49.000 217.999 55.081 M392.400 95.320 L 392.600 141.400 392.702 95.622 C 392.758 70.444,392.668 49.708,392.502 49.542 C 392.336 49.376,392.290 69.976,392.400 95.320 M199.350 54.600 C 199.351 57.020,199.416 57.958,199.496 56.685 C 199.576 55.412,199.575 53.432,199.494 52.285 C 199.414 51.138,199.349 52.180,199.350 54.600 M292.800 51.753 C 292.800 52.182,293.990 54.400,294.221 54.400 C 294.331 54.400,294.123 53.815,293.759 53.100 C 293.017 51.640,292.800 51.336,292.800 51.753 M141.381 67.200 C 141.381 75.230,141.434 78.515,141.499 74.500 C 141.565 70.485,141.565 63.915,141.499 59.900 C 141.434 55.885,141.381 59.170,141.381 67.200 M96.891 75.476 C 96.841 87.398,96.935 97.236,97.100 97.338 C 97.372 97.507,97.368 81.704,97.090 61.600 C 97.031 57.310,96.941 63.554,96.891 75.476 M205.091 59.089 C 205.801 59.177,207.061 59.179,207.891 59.092 C 208.721 59.005,208.140 58.933,206.600 58.931 C 205.060 58.929,204.381 59.000,205.091 59.089 M288.179 72.400 C 288.179 79.770,288.233 82.785,288.299 79.100 C 288.365 75.415,288.365 69.385,288.299 65.700 C 288.233 62.015,288.179 65.030,288.179 72.400 M199.371 76.400 C 199.371 81.350,199.428 83.375,199.499 80.900 C 199.569 78.425,199.569 74.375,199.499 71.900 C 199.428 69.425,199.371 71.450,199.371 76.400 M211.700 67.876 C 212.085 67.976,212.715 67.976,213.100 67.876 C 213.485 67.775,213.170 67.693,212.400 67.693 C 211.630 67.693,211.315 67.775,211.700 67.876 M326.172 69.730 C 326.060 70.022,326.028 71.957,326.101 74.030 L 326.234 77.800 326.317 73.733 C 326.374 70.920,326.554 69.604,326.900 69.465 C 327.292 69.307,327.289 69.256,326.887 69.232 C 326.606 69.214,326.283 69.439,326.172 69.730 M155.100 78.682 C 155.595 78.778,156.405 78.778,156.900 78.682 C 157.395 78.587,156.990 78.509,156.000 78.509 C 155.010 78.509,154.605 78.587,155.100 78.682 M208.759 85.321 C 208.936 85.497,210.233 85.585,211.641 85.516 L 214.200 85.391 211.318 85.195 C 209.733 85.088,208.581 85.144,208.759 85.321 M326.170 96.000 C 326.170 100.730,326.228 102.665,326.298 100.300 C 326.369 97.935,326.369 94.065,326.298 91.700 C 326.228 89.335,326.170 91.270,326.170 96.000 M5.693 144.400 C 5.693 145.170,5.775 145.485,5.876 145.100 C 5.976 144.715,5.976 144.085,5.876 143.700 C 5.775 143.315,5.693 143.630,5.693 144.400 M392.131 146.600 C 392.133 148.140,392.205 148.721,392.292 147.891 C 392.379 147.061,392.377 145.801,392.289 145.091 C 392.200 144.381,392.129 145.060,392.131 146.600 M391.720 152.800 C 391.720 154.010,391.795 154.505,391.887 153.900 C 391.978 153.295,391.978 152.305,391.887 151.700 C 391.795 151.095,391.720 151.590,391.720 152.800 M391.301 157.800 C 391.305 158.680,391.387 158.993,391.483 158.495 C 391.579 157.998,391.575 157.278,391.475 156.895 C 391.375 156.513,391.296 156.920,391.301 157.800 M6.893 161.200 C 6.893 161.970,6.975 162.285,7.076 161.900 C 7.176 161.515,7.176 160.885,7.076 160.500 C 6.975 160.115,6.893 160.430,6.893 161.200 M7.693 168.000 C 7.693 168.770,7.775 169.085,7.876 168.700 C 7.976 168.315,7.976 167.685,7.876 167.300 C 7.775 166.915,7.693 167.230,7.693 168.000 M183.312 169.895 C 184.364 169.977,185.984 169.976,186.912 169.892 C 187.840 169.808,186.980 169.741,185.000 169.742 C 183.020 169.743,182.260 169.812,183.312 169.895 M174.400 170.453 C 171.408 170.941,170.892 171.249,173.600 170.931 C 174.810 170.789,176.970 170.547,178.400 170.393 L 181.000 170.114 178.800 170.104 C 177.590 170.098,175.610 170.255,174.400 170.453 M191.000 170.408 C 191.898 170.586,192.767 170.566,192.980 170.362 C 193.209 170.144,192.574 170.018,191.380 170.046 L 189.400 170.092 191.000 170.408 M155.800 175.014 C 154.185 175.754,155.151 175.755,156.854 175.016 C 157.594 174.694,157.930 174.439,157.600 174.448 C 157.270 174.457,156.460 174.712,155.800 175.014 M192.175 180.100 L 191.000 181.400 192.300 180.225 C 193.015 179.579,193.600 178.994,193.600 178.925 C 193.600 178.616,193.270 178.888,192.175 180.100 M192.800 184.000 C 192.330 184.660,192.036 185.200,192.146 185.200 C 192.256 185.200,192.730 184.660,193.200 184.000 C 193.670 183.340,193.964 182.800,193.854 182.800 C 193.744 182.800,193.270 183.340,192.800 184.000 M187.381 185.300 L 185.800 187.000 187.500 185.419 C 189.081 183.948,189.384 183.600,189.081 183.600 C 189.016 183.600,188.251 184.365,187.381 185.300 M178.800 193.800 C 177.828 194.790,177.123 195.600,177.233 195.600 C 177.343 195.600,178.228 194.790,179.200 193.800 C 180.172 192.810,180.877 192.000,180.767 192.000 C 180.657 192.000,179.772 192.810,178.800 193.800 M180.992 198.500 L 177.400 202.200 181.100 198.608 C 183.135 196.633,184.800 194.968,184.800 194.908 C 184.800 194.618,184.328 195.064,180.992 198.500 M137.600 198.992 C 137.600 199.286,140.854 200.880,141.052 200.682 C 141.147 200.586,140.682 200.283,140.018 200.007 C 139.354 199.732,138.909 199.348,139.029 199.154 C 139.149 198.959,138.877 198.800,138.424 198.800 C 137.971 198.800,137.600 198.886,137.600 198.992 M146.400 203.400 C 147.390 203.930,148.740 204.351,149.400 204.336 C 150.568 204.309,150.563 204.300,149.200 204.026 C 148.430 203.870,147.224 203.441,146.520 203.072 C 145.816 202.702,145.096 202.408,144.920 202.418 C 144.744 202.428,145.410 202.870,146.400 203.400 M167.200 203.600 C 165.551 203.856,165.517 203.883,166.800 203.917 C 167.570 203.937,168.920 203.805,169.800 203.623 C 171.866 203.196,169.912 203.178,167.200 203.600 M161.500 204.289 C 162.215 204.378,163.385 204.378,164.100 204.289 C 164.815 204.201,164.230 204.128,162.800 204.128 C 161.370 204.128,160.785 204.201,161.500 204.289 M153.513 204.695 C 154.676 204.776,156.476 204.776,157.513 204.693 C 158.551 204.611,157.600 204.545,155.400 204.546 C 153.200 204.547,152.351 204.614,153.513 204.695 M129.507 226.290 C 130.226 226.379,131.306 226.377,131.907 226.286 C 132.508 226.195,131.920 226.122,130.600 226.124 C 129.280 226.126,128.788 226.201,129.507 226.290 M136.398 226.297 C 137.168 226.389,138.068 226.676,138.398 226.933 C 138.922 227.340,138.929 227.310,138.451 226.700 C 138.086 226.235,137.415 226.021,136.451 226.064 L 135.000 226.128 136.398 226.297 M123.300 226.676 C 123.685 226.776,124.315 226.776,124.700 226.676 C 125.085 226.575,124.770 226.493,124.000 226.493 C 123.230 226.493,122.915 226.575,123.300 226.676 M118.705 227.083 C 119.202 227.179,119.922 227.175,120.305 227.075 C 120.687 226.975,120.280 226.896,119.400 226.901 C 118.520 226.905,118.207 226.987,118.705 227.083 M99.731 245.000 C 99.733 246.540,99.805 247.121,99.892 246.291 C 99.979 245.461,99.977 244.201,99.889 243.491 C 99.800 242.781,99.729 243.460,99.731 245.000 M132.500 256.287 C 133.105 256.378,134.095 256.378,134.700 256.287 C 135.305 256.195,134.810 256.120,133.600 256.120 C 132.390 256.120,131.895 256.195,132.500 256.287 M106.600 290.800 C 107.459 291.680,108.252 292.400,108.362 292.400 C 108.472 292.400,107.859 291.680,107.000 290.800 C 106.141 289.920,105.348 289.200,105.238 289.200 C 105.128 289.200,105.741 289.920,106.600 290.800 M167.044 295.928 C 166.933 296.109,168.587 297.954,170.721 300.028 L 174.600 303.800 170.887 299.980 C 168.845 297.878,167.300 296.033,167.454 295.880 C 167.608 295.726,167.624 295.600,167.490 295.600 C 167.357 295.600,167.156 295.748,167.044 295.928 M235.800 326.000 C 236.883 327.100,237.860 328.000,237.970 328.000 C 238.080 328.000,237.283 327.100,236.200 326.000 C 235.117 324.900,234.140 324.000,234.030 324.000 C 233.920 324.000,234.717 324.900,235.800 326.000 M214.800 328.925 C 214.800 328.994,215.385 329.579,216.100 330.225 L 217.400 331.400 216.225 330.100 C 215.130 328.888,214.800 328.616,214.800 328.925 M196.400 335.600 C 196.849 336.480,197.306 337.200,197.416 337.200 C 197.526 337.200,197.249 336.480,196.800 335.600 C 196.351 334.720,195.894 334.000,195.784 334.000 C 195.674 334.000,195.951 334.720,196.400 335.600 M228.109 336.800 C 228.109 337.790,228.187 338.195,228.282 337.700 C 228.378 337.205,228.378 336.395,228.282 335.900 C 228.187 335.405,228.109 335.810,228.109 336.800 M224.000 338.125 C 224.000 338.194,224.585 338.779,225.300 339.425 L 226.600 340.600 225.425 339.300 C 224.330 338.088,224.000 337.816,224.000 338.125 M86.800 353.725 C 86.800 353.794,87.385 354.379,88.100 355.025 L 89.400 356.200 88.225 354.900 C 87.130 353.688,86.800 353.416,86.800 353.725 M305.200 360.200 C 304.228 361.190,303.523 362.000,303.633 362.000 C 303.743 362.000,304.628 361.190,305.600 360.200 C 306.572 359.210,307.277 358.400,307.167 358.400 C 307.057 358.400,306.172 359.210,305.200 360.200 M94.000 361.725 C 94.000 361.794,94.585 362.379,95.300 363.025 L 96.600 364.200 95.425 362.900 C 94.330 361.688,94.000 361.416,94.000 361.725 M295.392 370.500 L 291.400 374.600 295.500 370.608 C 297.755 368.412,299.600 366.567,299.600 366.508 C 299.600 366.218,299.101 366.692,295.392 370.500 M206.093 368.000 C 206.093 368.770,206.175 369.085,206.276 368.700 C 206.376 368.315,206.376 367.685,206.276 367.300 C 206.175 366.915,206.093 367.230,206.093 368.000 M261.775 369.700 L 260.600 371.000 261.900 369.825 C 262.615 369.179,263.200 368.594,263.200 368.525 C 263.200 368.216,262.870 368.488,261.775 369.700 M206.555 376.200 C 206.556 379.060,206.620 380.178,206.697 378.683 C 206.774 377.189,206.774 374.849,206.696 373.483 C 206.618 372.118,206.555 373.340,206.555 376.200 M108.600 376.400 C 109.683 377.500,110.660 378.400,110.770 378.400 C 110.880 378.400,110.083 377.500,109.000 376.400 C 107.917 375.300,106.940 374.400,106.830 374.400 C 106.720 374.400,107.517 375.300,108.600 376.400 M253.200 376.834 L 251.400 378.465 253.300 376.984 C 254.966 375.686,255.459 375.197,255.100 375.201 C 255.045 375.202,254.190 375.936,253.200 376.834 M113.800 381.200 C 114.659 382.080,115.452 382.800,115.562 382.800 C 115.672 382.800,115.059 382.080,114.200 381.200 C 113.341 380.320,112.548 379.600,112.438 379.600 C 112.328 379.600,112.941 380.320,113.800 381.200 M247.400 381.444 L 245.800 382.876 247.500 381.604 C 248.963 380.510,249.491 379.983,249.100 380.006 C 249.045 380.009,248.280 380.656,247.400 381.444 M206.093 384.000 C 206.093 384.770,206.175 385.085,206.276 384.700 C 206.376 384.315,206.376 383.685,206.276 383.300 C 206.175 382.915,206.093 383.230,206.093 384.000 M240.647 386.398 C 238.745 387.837,238.344 388.247,239.400 387.674 C 240.317 387.176,242.701 385.230,242.400 385.226 C 242.290 385.224,241.501 385.751,240.647 386.398 M234.646 390.596 C 233.572 391.339,232.492 392.165,232.246 392.430 C 232.001 392.695,232.925 392.161,234.300 391.241 C 235.675 390.322,236.800 389.487,236.800 389.385 C 236.800 389.111,236.763 389.132,234.646 390.596 M226.500 396.046 C 225.137 396.919,224.695 397.506,225.900 396.843 C 226.818 396.339,228.256 395.227,228.000 395.219 C 227.890 395.216,227.215 395.588,226.500 396.046 M202.629 401.829 C 202.481 402.415,202.438 402.972,202.532 403.066 C 202.627 403.160,202.824 402.758,202.971 402.171 C 203.119 401.585,203.162 401.028,203.068 400.934 C 202.973 400.840,202.776 401.242,202.629 401.829 M201.680 405.080 C 201.088 407.009,201.375 407.295,202.000 405.400 C 202.264 404.601,202.402 403.869,202.307 403.774 C 202.212 403.678,201.930 404.266,201.680 405.080 M210.300 405.829 C 208.805 406.640,208.896 406.978,210.400 406.200 C 211.060 405.859,211.600 405.494,211.600 405.390 C 211.600 405.132,211.557 405.147,210.300 405.829 M201.900 410.427 C 201.075 410.863,200.400 411.308,200.400 411.418 C 200.400 411.527,201.120 411.249,202.000 410.800 C 202.880 410.351,203.600 409.897,203.600 409.792 C 203.600 409.530,203.597 409.531,201.900 410.427 " stroke="none" fill="#dccca4" fill-rule="evenodd"></path><path id="path8" d="M198.500 5.876 C 198.885 5.976,199.515 5.976,199.900 5.876 C 200.285 5.775,199.970 5.693,199.200 5.693 C 198.430 5.693,198.115 5.775,198.500 5.876 M180.707 6.290 C 181.426 6.379,182.506 6.377,183.107 6.286 C 183.708 6.195,183.120 6.122,181.800 6.124 C 180.480 6.126,179.988 6.201,180.707 6.290 M215.507 6.290 C 216.226 6.379,217.306 6.377,217.907 6.286 C 218.508 6.195,217.920 6.122,216.600 6.124 C 215.280 6.126,214.788 6.201,215.507 6.290 M171.700 6.676 C 172.085 6.776,172.715 6.776,173.100 6.676 C 173.485 6.575,173.170 6.493,172.400 6.493 C 171.630 6.493,171.315 6.575,171.700 6.676 M224.900 6.676 C 225.285 6.776,225.915 6.776,226.300 6.676 C 226.685 6.575,226.370 6.493,225.600 6.493 C 224.830 6.493,224.515 6.575,224.900 6.676 M157.300 17.876 C 157.685 17.976,158.315 17.976,158.700 17.876 C 159.085 17.775,158.770 17.693,158.000 17.693 C 157.230 17.693,156.915 17.775,157.300 17.876 M382.193 97.000 C 382.193 119.660,382.241 128.871,382.300 117.469 C 382.359 106.068,382.359 87.528,382.300 76.269 C 382.241 65.011,382.193 74.340,382.193 97.000 M170.705 111.483 C 171.202 111.579,171.922 111.575,172.305 111.475 C 172.687 111.375,172.280 111.296,171.400 111.301 C 170.520 111.305,170.207 111.387,170.705 111.483 M226.305 111.483 C 226.802 111.579,227.522 111.575,227.905 111.475 C 228.287 111.375,227.880 111.296,227.000 111.301 C 226.120 111.305,225.807 111.387,226.305 111.483 M231.700 111.876 C 232.085 111.976,232.715 111.976,233.100 111.876 C 233.485 111.775,233.170 111.693,232.400 111.693 C 231.630 111.693,231.315 111.775,231.700 111.876 M392.120 136.800 C 392.120 138.010,392.195 138.505,392.287 137.900 C 392.378 137.295,392.378 136.305,392.287 135.700 C 392.195 135.095,392.120 135.590,392.120 136.800 M6.101 144.200 C 6.105 145.080,6.187 145.393,6.283 144.895 C 6.379 144.398,6.375 143.678,6.275 143.295 C 6.175 142.913,6.096 143.320,6.101 144.200 M381.693 144.400 C 381.693 145.170,381.775 145.485,381.876 145.100 C 381.976 144.715,381.976 144.085,381.876 143.700 C 381.775 143.315,381.693 143.630,381.693 144.400 M202.713 145.895 C 203.876 145.976,205.676 145.976,206.713 145.893 C 207.751 145.811,206.800 145.745,204.600 145.746 C 202.400 145.747,201.551 145.814,202.713 145.895 M29.693 148.000 C 29.693 148.770,29.775 149.085,29.876 148.700 C 29.976 148.315,29.976 147.685,29.876 147.300 C 29.775 146.915,29.693 147.230,29.693 148.000 M215.731 187.400 C 215.733 188.940,215.805 189.521,215.892 188.691 C 215.979 187.861,215.977 186.601,215.889 185.891 C 215.800 185.181,215.729 185.860,215.731 187.400 M182.778 189.500 L 181.400 191.000 182.900 189.622 C 184.296 188.338,184.584 188.000,184.278 188.000 C 184.212 188.000,183.537 188.675,182.778 189.500 M91.978 201.100 L 90.600 202.600 92.100 201.222 C 93.496 199.938,93.784 199.600,93.478 199.600 C 93.412 199.600,92.737 200.275,91.978 201.100 M147.100 217.482 C 147.595 217.578,148.405 217.578,148.900 217.482 C 149.395 217.387,148.990 217.309,148.000 217.309 C 147.010 217.309,146.605 217.387,147.100 217.482 M102.575 233.300 L 101.400 234.600 102.700 233.425 C 103.912 232.330,104.184 232.000,103.875 232.000 C 103.806 232.000,103.221 232.585,102.575 233.300 M99.328 239.600 C 99.328 241.030,99.401 241.615,99.489 240.900 C 99.578 240.185,99.578 239.015,99.489 238.300 C 99.401 237.585,99.328 238.170,99.328 239.600 M139.300 245.897 C 140.785 245.974,143.215 245.974,144.700 245.897 C 146.185 245.820,144.970 245.757,142.000 245.757 C 139.030 245.757,137.815 245.820,139.300 245.897 M132.567 256.746 C 132.766 257.069,134.800 256.893,134.800 256.553 C 134.800 256.469,134.249 256.400,133.576 256.400 C 132.903 256.400,132.449 256.556,132.567 256.746 M102.800 287.325 C 102.800 287.394,103.385 287.979,104.100 288.625 L 105.400 289.800 104.225 288.500 C 103.130 287.288,102.800 287.016,102.800 287.325 M249.507 291.890 C 250.226 291.979,251.306 291.977,251.907 291.886 C 252.508 291.795,251.920 291.722,250.600 291.724 C 249.280 291.726,248.788 291.801,249.507 291.890 M170.400 300.200 C 171.817 301.630,173.067 302.800,173.177 302.800 C 173.287 302.800,172.217 301.630,170.800 300.200 C 169.383 298.770,168.133 297.600,168.023 297.600 C 167.913 297.600,168.983 298.770,170.400 300.200 M226.000 315.800 C 226.746 316.570,227.447 317.200,227.557 317.200 C 227.667 317.200,227.146 316.570,226.400 315.800 C 225.654 315.030,224.953 314.400,224.843 314.400 C 224.733 314.400,225.254 315.030,226.000 315.800 M307.978 356.700 L 306.600 358.200 308.100 356.822 C 309.496 355.538,309.784 355.200,309.478 355.200 C 309.412 355.200,308.737 355.875,307.978 356.700 M95.200 362.525 C 95.200 362.594,95.785 363.179,96.500 363.825 L 97.800 365.000 96.625 363.700 C 95.530 362.488,95.200 362.216,95.200 362.525 M283.775 367.300 L 282.600 368.600 283.900 367.425 C 284.615 366.779,285.200 366.194,285.200 366.125 C 285.200 365.816,284.870 366.088,283.775 367.300 M206.093 373.200 C 206.093 373.970,206.175 374.285,206.276 373.900 C 206.376 373.515,206.376 372.885,206.276 372.500 C 206.175 372.115,206.093 372.430,206.093 373.200 M287.375 377.700 L 286.200 379.000 287.500 377.825 C 288.215 377.179,288.800 376.594,288.800 376.525 C 288.800 376.216,288.470 376.488,287.375 377.700 M281.978 382.700 L 280.600 384.200 282.100 382.822 C 282.925 382.063,283.600 381.388,283.600 381.322 C 283.600 381.016,283.262 381.304,281.978 382.700 M115.600 382.125 C 115.600 382.194,116.185 382.779,116.900 383.425 L 118.200 384.600 117.025 383.300 C 115.930 382.088,115.600 381.816,115.600 382.125 " stroke="none" fill="#2c445e" fill-rule="evenodd"></path></g></svg>