<svg id="svg" xmlns="http://www.w3.org/2000/svg" xmlns:xlink="http://www.w3.org/1999/xlink" width="400" height="378.55822550831795" viewBox="0, 0, 400,378.55822550831795"><g id="svgg"><path id="path0" d="M125.878 0.906 C 119.823 2.490,115.098 4.803,102.403 12.400 C 87.235 21.478,83.360 25.772,77.754 39.718 C 75.877 44.388,73.403 48.041,68.819 52.914 L 65.735 56.192 32.824 56.192 C 1.661 56.192,-0.077 56.227,0.087 56.839 C 0.183 57.195,25.230 100.906,55.748 153.974 L 111.235 250.462 73.120 250.647 L 35.005 250.832 22.869 272.643 C 16.194 284.640,10.730 294.583,10.727 294.741 C 10.724 294.898,36.798 294.979,68.669 294.921 C 132.474 294.805,127.821 294.972,132.987 292.613 C 134.407 291.964,134.995 291.846,135.197 292.168 C 135.350 292.409,146.573 311.904,160.138 335.490 C 182.935 375.126,184.876 378.373,185.765 378.373 C 186.655 378.373,188.564 375.177,210.998 336.137 L 235.268 293.900 255.897 293.900 L 276.525 293.900 276.525 281.701 L 276.525 269.501 275.112 269.501 L 273.700 269.501 273.269 266.730 C 272.514 261.875,269.708 255.817,265.595 250.164 C 262.784 246.301,262.805 246.190,268.188 236.759 C 271.810 230.412,273.038 228.559,273.838 228.230 C 274.401 227.999,286.922 223.365,301.664 217.933 C 316.405 212.501,329.358 207.552,330.450 206.934 C 335.906 203.846,340.637 198.045,342.339 192.354 C 342.773 190.902,342.917 190.780,344.691 190.359 C 347.600 189.668,350.340 188.227,352.505 186.249 L 354.475 184.448 358.220 185.211 C 371.940 188.007,381.934 184.156,385.679 174.630 C 386.026 173.748,387.419 171.944,388.981 170.355 C 392.028 167.254,394.968 162.587,396.693 158.117 C 397.945 154.869,399.149 150.588,398.879 150.343 C 398.784 150.257,383.439 145.133,364.778 138.956 L 330.850 127.726 351.060 92.606 C 362.175 73.290,371.348 57.195,371.445 56.839 C 371.610 56.232,370.832 56.192,358.828 56.192 L 346.037 56.192 344.884 53.882 C 338.281 40.649,320.425 37.002,314.934 47.765 L 314.218 49.168 312.705 48.213 C 311.872 47.687,310.494 46.958,309.640 46.593 C 308.254 45.998,307.904 45.565,306.339 42.503 C 299.354 28.837,288.858 24.075,278.121 29.701 C 277.147 30.212,277.017 30.167,275.039 28.645 C 267.566 22.894,255.951 16.568,248.312 14.087 C 231.152 8.514,221.764 10.076,191.312 23.569 C 172.400 31.948,174.351 32.219,163.927 19.778 C 149.518 2.582,139.145 -2.563,125.878 0.906 M139.459 9.209 C 144.365 11.111,148.804 14.990,157.515 24.987 C 171.563 41.110,172.031 41.176,196.118 30.498 C 223.744 18.252,231.603 16.934,246.386 22.073 C 255.351 25.190,264.253 30.561,275.594 39.695 C 276.443 40.378,276.471 40.375,277.710 39.429 C 279.587 37.998,282.910 36.643,285.728 36.159 C 291.601 35.152,294.724 37.738,299.815 47.821 L 302.218 52.580 304.067 53.220 C 309.717 55.174,313.139 58.328,313.798 62.187 L 314.055 63.689 317.776 59.663 C 321.013 56.161,321.500 55.465,321.523 54.307 C 321.580 51.516,323.577 49.534,326.328 49.540 C 332.390 49.552,340.119 58.123,338.738 63.300 L 338.368 64.683 347.938 64.781 L 357.508 64.880 325.889 119.870 C 308.498 150.114,294.270 175.179,294.270 175.570 C 294.270 176.618,294.660 177.449,295.152 177.449 C 296.032 177.449,300.811 179.991,303.049 181.649 L 305.358 183.361 311.034 183.021 C 320.286 182.467,321.501 181.074,319.601 173.198 C 318.593 169.018,318.131 161.602,318.607 157.241 C 319.307 150.829,320.677 148.983,324.734 148.983 L 326.802 148.983 326.802 146.291 L 326.802 143.599 322.551 142.200 C 320.213 141.430,318.299 140.687,318.299 140.549 C 318.299 139.277,320.676 133.457,321.195 133.457 C 322.332 133.457,388.540 155.695,388.540 156.077 C 388.540 157.976,383.597 164.608,380.464 166.913 C 379.211 167.835,378.889 168.342,378.556 169.914 C 376.906 177.723,369.610 179.728,355.617 176.218 L 350.863 175.025 349.421 177.288 C 346.603 181.707,341.471 183.826,337.367 182.266 C 336.516 181.943,336.403 182.007,336.219 182.913 C 334.851 189.672,333.185 193.507,330.234 196.696 C 327.456 199.696,329.059 199.015,296.740 210.929 C 281.047 216.713,267.958 221.587,267.655 221.760 C 266.828 222.230,255.137 242.560,255.108 243.577 C 255.002 247.337,256.289 251.513,258.456 254.435 C 262.188 259.469,264.749 264.613,265.259 268.099 L 265.514 269.840 262.280 271.334 C 260.501 272.156,258.737 272.828,258.359 272.828 C 257.531 272.828,257.533 273.197,258.378 275.601 L 259.027 277.449 263.525 277.553 L 268.022 277.657 268.022 281.712 L 268.022 285.767 249.255 285.767 L 230.488 285.767 208.156 324.594 C 195.873 345.948,185.712 363.291,185.575 363.134 C 185.403 362.935,146.083 294.546,137.650 279.778 C 137.569 279.636,136.648 280.334,135.603 281.330 C 133.526 283.311,130.697 284.952,127.542 286.006 C 125.148 286.805,24.769 287.302,24.769 286.515 C 24.769 286.305,28.195 279.979,32.383 272.457 L 39.998 258.780 82.700 258.780 C 120.282 258.780,125.377 258.714,125.192 258.232 C 125.077 257.931,100.108 214.448,69.706 161.605 C 39.304 108.761,14.326 65.255,14.199 64.925 C 13.988 64.375,16.252 64.325,41.477 64.325 L 68.986 64.325 73.237 59.982 C 80.964 52.085,82.491 49.910,85.404 42.653 C 90.202 30.695,93.179 27.597,109.057 18.035 C 124.759 8.580,132.236 6.409,139.459 9.209 M101.221 31.305 C 100.788 31.419,100.523 32.010,100.370 33.203 C 99.768 37.874,99.235 40.537,97.939 45.337 C 96.078 52.236,96.040 52.650,97.263 52.792 C 98.076 52.886,98.409 52.596,99.435 50.903 C 103.151 44.773,111.028 49.140,107.736 55.506 C 107.007 56.915,107.116 57.014,109.050 56.705 C 110.438 56.483,110.700 56.278,111.310 54.937 C 113.240 50.685,111.416 47.255,105.856 44.685 C 101.316 42.586,101.371 41.960,106.632 35.685 C 108.340 33.648,108.224 33.166,105.721 31.885 C 104.201 31.108,102.702 30.915,101.221 31.305 M288.858 40.112 C 288.300 41.567,290.733 45.578,292.889 46.756 C 294.837 47.821,294.841 47.457,292.928 43.306 C 291.166 39.482,289.578 38.235,288.858 40.112 M281.196 41.062 C 279.504 42.393,279.285 42.094,290.155 53.341 C 293.087 56.374,294.513 57.200,294.418 55.808 C 294.353 54.853,283.433 40.296,282.781 40.296 C 282.445 40.296,281.732 40.641,281.196 41.062 M274.861 46.152 C 272.357 47.684,272.136 47.324,280.610 55.503 C 288.573 63.188,289.518 63.847,290.704 62.537 C 291.330 61.845,291.131 61.572,284.438 53.924 C 276.083 44.376,276.806 44.963,274.861 46.152 M267.681 52.343 C 265.930 53.817,265.984 53.874,275.323 60.469 C 280.152 63.879,284.311 66.828,284.566 67.021 C 285.196 67.502,286.137 66.678,286.137 65.644 C 286.137 64.042,280.904 58.802,275.231 54.722 C 270.168 51.081,269.450 50.855,267.681 52.343 M73.752 65.308 C 54.974 82.265,54.662 82.722,53.399 95.135 L 53.142 97.663 68.810 84.229 C 87.877 67.880,86.051 69.355,85.218 70.980 C 84.853 71.691,82.000 76.956,78.876 82.679 C 75.753 88.402,73.198 93.186,73.198 93.310 C 73.198 93.592,81.978 89.211,85.952 86.947 C 92.494 83.218,96.491 80.041,96.485 78.574 C 96.476 76.533,88.935 65.048,84.021 59.591 L 82.255 57.630 73.752 65.308 M262.536 59.722 C 261.226 62.597,261.113 62.493,271.958 68.366 L 281.808 73.700 282.494 72.853 C 284.320 70.598,281.328 68.166,267.987 61.062 C 263.089 58.454,263.111 58.459,262.536 59.722 M301.075 60.578 C 293.891 65.637,288.090 73.929,285.558 82.756 C 284.414 86.743,284.457 87.138,286.131 88.035 C 288.699 89.410,289.602 89.066,291.359 86.044 C 296.160 77.783,301.070 71.543,305.005 68.700 C 309.960 65.122,310.485 64.224,309.203 61.522 C 307.691 58.337,304.744 57.994,301.075 60.578 M321.996 59.807 C 318.877 61.805,314.989 66.570,315.466 67.812 C 316.428 70.319,324.786 66.058,327.011 61.927 C 328.402 59.343,324.980 57.897,321.996 59.807 M260.289 68.335 C 259.164 70.438,259.258 70.512,268.854 75.006 C 273.785 77.316,278.005 79.277,278.233 79.365 C 278.808 79.587,279.852 78.467,279.852 77.628 C 279.852 76.823,275.153 74.072,267.509 70.403 C 261.540 67.537,260.826 67.333,260.289 68.335 M306.643 72.366 C 302.553 75.807,294.640 86.642,294.640 88.802 C 294.640 91.699,299.584 90.892,303.520 87.353 C 312.213 79.538,315.208 65.162,306.643 72.366 M317.383 72.447 C 317.261 72.643,318.746 75.596,320.683 79.008 C 324.239 85.272,324.688 85.668,323.637 81.612 C 322.210 76.107,318.490 70.655,317.383 72.447 M170.553 73.251 C 145.539 75.634,129.980 96.913,135.248 121.534 C 140.347 145.368,159.565 167.197,191.531 185.465 L 197.106 188.651 198.685 187.024 C 199.553 186.130,211.626 173.420,225.513 158.780 C 239.399 144.140,251.596 131.297,252.615 130.239 L 254.469 128.316 253.434 126.823 C 238.768 105.660,214.270 84.670,195.564 77.239 C 189.265 74.737,177.969 72.422,174.307 72.882 C 174.104 72.908,172.414 73.074,170.553 73.251 M257.301 75.878 C 257.301 78.472,266.293 82.002,271.947 81.628 L 273.648 81.516 269.264 79.520 C 265.086 77.619,258.411 75.046,257.656 75.046 C 257.461 75.046,257.301 75.421,257.301 75.878 M314.422 78.365 L 313.485 80.213 317.429 86.133 C 320.638 90.948,321.534 92.052,322.232 92.052 C 325.297 92.052,322.213 84.480,316.396 77.723 L 315.358 76.518 314.422 78.365 M309.871 86.211 C 308.710 87.372,311.339 93.841,314.090 96.591 C 316.404 98.905,317.154 98.148,316.442 94.218 C 315.485 88.944,311.723 84.359,309.871 86.211 M303.718 93.808 C 305.176 100.546,307.674 105.190,310.466 106.357 C 312.149 107.060,312.235 106.881,311.709 103.778 C 310.910 99.062,307.994 94.092,305.461 93.129 C 303.885 92.530,303.476 92.689,303.718 93.808 M281.977 94.471 C 281.615 96.361,282.416 98.803,283.309 98.531 C 283.746 98.398,284.795 98.197,285.640 98.084 C 287.154 97.881,287.171 97.863,286.801 96.802 C 285.843 94.052,282.377 92.377,281.977 94.471 M293.333 96.100 C 291.675 96.772,291.655 97.233,293.123 100.965 C 296.140 108.637,299.996 113.054,304.529 114.032 C 305.714 114.288,305.731 114.273,305.784 112.876 C 305.982 107.653,304.321 103.102,300.319 97.900 L 298.663 95.749 296.374 95.772 C 295.115 95.785,293.747 95.933,293.333 96.100 M285.397 101.405 C 284.296 101.959,192.115 198.630,191.314 200.072 C 189.878 202.654,193.844 206.461,197.710 206.212 L 199.441 206.100 244.084 156.377 C 268.637 129.030,288.986 106.185,289.303 105.611 C 290.692 103.099,287.934 100.129,285.397 101.405 M322.063 137.859 L 321.680 138.959 325.773 140.322 L 329.866 141.686 329.650 145.492 L 329.435 149.299 331.142 149.880 C 332.081 150.200,332.897 150.462,332.957 150.462 C 333.016 150.462,333.924 149.173,334.974 147.597 C 336.025 146.021,337.014 144.589,337.171 144.413 C 337.329 144.238,342.042 145.622,347.645 147.490 L 357.831 150.885 357.936 154.798 L 358.041 158.711 359.974 159.367 L 361.908 160.024 364.175 156.883 C 365.422 155.156,366.632 153.812,366.863 153.897 C 367.094 153.981,368.644 154.501,370.307 155.051 L 373.331 156.051 373.698 157.785 C 373.900 158.739,374.282 160.584,374.548 161.884 C 375.118 164.672,376.639 165.808,378.480 164.823 C 380.254 163.873,385.372 157.837,384.813 157.353 C 384.687 157.245,325.968 137.837,323.238 137.002 C 322.595 136.805,322.375 136.965,322.063 137.859 M238.244 168.470 C 224.835 183.457,213.816 195.898,213.759 196.117 C 213.399 197.489,237.973 205.536,249.538 207.834 C 278.376 213.564,287.807 195.925,273.888 162.292 C 270.974 155.253,263.649 141.220,262.888 141.220 C 262.743 141.220,251.653 153.482,238.244 168.470 M337.220 149.399 C 335.717 151.691,334.616 150.996,345.602 154.688 L 354.931 157.823 354.822 155.375 L 354.713 152.926 347.135 150.397 C 342.967 149.006,339.307 147.791,339.002 147.697 C 338.644 147.586,338.012 148.189,337.220 149.399 M366.170 158.970 C 365.412 160.003,364.853 160.900,364.928 160.963 C 366.038 161.900,371.953 163.275,371.773 162.555 C 371.661 162.106,371.456 161.023,371.317 160.150 C 371.126 158.948,370.830 158.443,370.098 158.071 C 367.843 156.925,367.636 156.972,366.170 158.970 M365.434 169.114 C 361.634 170.512,361.895 173.752,365.808 173.752 C 369.075 173.752,372.246 170.979,370.721 169.454 C 369.903 168.636,367.205 168.462,365.434 169.114 M160.936 181.423 C 159.357 185.202,162.016 192.022,164.671 191.003 C 165.387 190.728,165.419 188.379,164.759 184.621 C 163.970 180.128,162.123 178.582,160.936 181.423 M169.655 181.978 C 169.124 183.924,169.523 194.948,170.172 196.269 C 170.761 197.466,171.606 197.937,172.678 197.667 L 173.567 197.443 173.539 191.050 C 173.509 184.215,173.303 183.181,171.626 181.423 C 170.342 180.077,170.160 180.129,169.655 181.978 M151.948 181.189 C 148.056 182.742,148.234 185.018,152.714 190.988 C 154.322 193.130,155.638 195.102,155.638 195.369 C 155.638 195.938,156.445 196.303,157.701 196.303 C 158.781 196.303,158.860 195.547,157.996 193.483 C 157.633 192.617,157.292 190.301,157.131 187.614 C 156.764 181.461,155.425 179.802,151.948 181.189 M176.717 186.744 C 176.731 195.288,177.241 197.026,179.738 197.037 C 181.607 197.045,181.676 196.820,181.555 191.137 C 181.415 184.571,180.804 183.182,177.726 182.425 L 176.710 182.175 176.717 186.744 M185.738 188.378 C 185.089 191.838,186.469 199.059,187.733 198.816 C 189.022 198.568,189.419 190.855,188.262 188.540 C 187.322 186.657,186.076 186.577,185.738 188.378 M142.984 189.556 C 140.776 194.514,144.839 204.806,149.005 204.806 C 151.174 204.806,153.422 203.794,153.408 202.825 C 153.370 200.159,148.362 191.084,145.734 188.917 C 143.977 187.469,143.906 187.485,142.984 189.556 M162.683 202.621 C 156.481 203.837,150.132 209.381,150.562 213.203 C 150.815 215.441,150.890 215.451,153.219 213.554 C 158.188 209.506,163.345 207.024,166.786 207.024 L 168.577 207.024 168.577 205.360 C 168.577 202.435,167.110 201.753,162.683 202.621 M175.612 203.430 C 171.915 205.301,173.052 211.191,177.565 213.548 C 180.372 215.014,185.214 209.095,184.062 205.606 C 183.336 203.404,178.251 202.095,175.612 203.430 M188.616 208.541 C 186.801 209.226,185.752 214.334,187.080 216.022 C 188.816 218.228,190.722 216.624,191.054 212.679 C 191.339 209.302,190.476 207.839,188.616 208.541 M163.651 212.736 C 161.686 213.437,161.713 213.331,162.626 216.725 C 166.980 232.919,173.930 249.135,175.974 247.872 C 176.685 247.433,177.800 236.064,177.813 229.123 C 177.832 219.448,170.057 210.452,163.651 212.736 M195.295 213.572 C 194.741 214.419,194.651 215.324,194.711 219.395 C 194.758 222.597,194.625 224.585,194.315 225.320 C 193.495 227.262,195.098 231.423,196.666 231.423 C 199.229 231.423,200.676 224.486,199.698 216.886 C 199.156 212.680,196.959 211.026,195.295 213.572 M202.843 216.531 C 202.587 219.009,202.546 218.940,204.293 218.996 C 206.281 219.059,206.780 217.540,205.376 215.700 C 203.869 213.723,203.107 213.973,202.843 216.531 M155.032 219.146 C 153.349 221.875,153.360 221.733,154.412 227.172 C 156.420 237.548,164.848 251.090,168.214 249.349 C 169.557 248.655,169.634 249.214,167.600 244.878 C 164.875 239.070,160.988 229.166,158.876 222.651 C 156.617 215.682,156.970 216.004,155.032 219.146 M183.473 220.884 C 182.682 221.443,182.658 221.665,182.661 228.398 C 182.664 236.110,182.314 239.110,180.914 243.362 C 178.723 250.017,183.194 249.524,186.503 242.746 C 191.395 232.724,189.193 216.837,183.473 220.884 M145.273 249.311 C 134.470 260.016,132.253 261.434,124.828 262.388 L 122.697 262.662 118.095 272.809 C 115.564 278.390,113.494 283.006,113.494 283.068 C 113.494 283.129,115.788 283.179,118.591 283.179 C 125.320 283.179,129.002 282.206,132.112 279.605 C 134.220 277.843,160.466 249.021,160.317 248.632 C 160.108 248.087,154.882 240.699,154.568 240.505 C 154.429 240.419,150.246 244.382,145.273 249.311 M207.832 263.209 C 204.563 265.577,204.385 268.225,207.498 268.186 C 209.536 268.161,211.415 266.871,212.381 264.835 C 213.674 262.109,210.779 261.075,207.832 263.209 M41.644 263.309 C 41.360 263.766,38.839 268.299,36.042 273.383 C 33.246 278.466,30.886 282.750,30.799 282.902 C 30.712 283.055,33.603 283.175,37.224 283.171 L 43.808 283.162 49.445 273.035 C 52.546 267.465,55.083 262.810,55.083 262.692 C 55.083 261.915,42.142 262.508,41.644 263.309 M203.064 274.585 C 201.651 276.675,200.101 279.993,199.774 281.631 L 199.538 282.810 232.486 282.810 L 265.434 282.810 265.434 281.701 L 265.434 280.591 261.188 280.591 L 256.942 280.591 255.754 276.710 L 254.565 272.828 252.807 272.828 L 251.048 272.828 250.316 275.323 C 249.914 276.696,249.439 278.401,249.260 279.113 L 248.936 280.407 238.111 280.407 L 227.286 280.407 225.934 276.710 L 224.582 273.013 222.679 272.902 L 220.776 272.792 219.508 276.599 L 218.239 280.407 214.559 280.511 L 210.879 280.616 208.703 276.722 C 206.020 271.920,205.102 271.572,203.064 274.585 M236.523 275.244 L 235.154 277.653 240.944 277.551 L 246.734 277.449 247.203 275.826 C 247.461 274.934,247.771 273.894,247.891 273.516 C 248.096 272.868,247.813 272.828,243.001 272.832 L 237.893 272.835 236.523 275.244 " stroke="none" fill="#fbfbfb" fill-rule="evenodd"></path><path id="path1" d="M24.030 70.370 C 24.030 70.522,130.866 256.309,131.074 256.519 C 131.717 257.169,134.812 254.536,143.301 246.115 L 152.960 236.534 151.747 233.140 C 150.635 230.030,150.005 227.278,149.027 221.257 C 148.829 220.037,148.232 217.625,147.700 215.896 C 147.119 214.005,146.777 212.116,146.842 211.151 C 146.940 209.700,146.797 209.386,145.324 207.824 C 140.244 202.437,137.556 195.415,138.579 190.203 L 138.941 188.355 135.502 182.994 C 121.008 160.405,111.212 137.940,109.800 124.058 C 109.097 117.150,109.777 113.791,113.214 107.181 L 115.459 102.864 115.631 99.003 C 115.947 91.890,112.933 85.503,108.171 83.198 C 104.416 81.380,101.805 82.574,76.943 97.482 C 69.345 102.038,63.051 105.688,62.956 105.594 C 62.862 105.499,64.479 101.540,66.549 96.796 C 68.620 92.052,70.396 87.921,70.497 87.616 C 70.598 87.311,66.192 91.636,60.705 97.227 C 55.219 102.819,50.603 107.272,50.449 107.124 C 49.829 106.527,49.805 94.559,50.416 91.055 C 51.712 83.629,53.756 79.709,59.293 74.030 L 62.987 70.240 43.508 70.240 C 32.795 70.240,24.030 70.299,24.030 70.370 M240.585 70.887 C 238.365 73.433,238.754 74.913,242.830 79.423 C 252.059 89.635,259.686 99.665,265.680 109.473 C 267.032 111.684,268.238 113.494,268.361 113.494 C 268.483 113.494,271.217 110.746,274.436 107.388 L 280.289 101.282 279.321 95.465 C 278.728 91.899,277.972 88.740,277.367 87.299 L 276.381 84.949 274.142 85.115 C 268.989 85.495,263.056 84.234,256.987 81.469 C 252.537 79.441,252.113 78.570,253.491 74.301 L 254.118 72.361 252.931 71.301 L 251.744 70.240 246.447 70.240 C 241.863 70.240,241.074 70.327,240.585 70.887 M323.527 71.109 L 322.711 71.978 324.018 73.921 C 327.783 79.515,327.523 92.791,323.648 92.791 C 323.366 92.791,323.141 93.810,323.014 95.663 C 322.654 100.915,319.678 104.974,316.846 104.074 C 316.276 103.894,316.158 104.164,315.988 106.041 C 315.097 115.870,306.749 118.216,290.995 113.066 L 288.644 112.297 287.787 113.173 C 283.828 117.216,275.777 126.711,275.918 127.170 C 276.012 127.476,277.578 130.887,279.397 134.750 C 283.378 143.204,286.907 151.991,289.803 160.661 L 291.949 167.086 319.605 118.940 C 334.816 92.460,347.325 70.670,347.404 70.518 C 347.484 70.365,342.327 70.240,335.946 70.240 L 324.343 70.240 323.527 71.109 M206.283 205.231 C 204.843 206.107,204.882 206.494,206.667 208.986 C 209.349 212.731,209.921 216.295,208.704 221.677 C 207.609 226.520,207.241 227.161,205.264 227.669 C 203.655 228.082,203.383 228.328,201.931 230.674 C 198.634 236.001,195.357 239.173,192.954 239.362 C 191.954 239.440,191.593 239.796,190.262 242.011 C 185.435 250.045,182.735 252.151,176.226 252.956 C 172.281 253.444,168.834 253.006,165.841 251.636 L 163.794 250.699 154.078 261.301 C 148.734 267.133,143.732 272.595,142.962 273.439 L 141.562 274.974 163.622 313.284 C 175.756 334.354,185.765 351.511,185.866 351.411 C 185.967 351.310,194.492 336.540,204.810 318.590 L 223.571 285.952 209.896 285.855 L 196.221 285.758 196.466 284.007 C 196.872 281.105,197.772 278.341,199.261 275.416 C 200.185 273.601,200.761 271.879,200.928 270.432 C 201.906 261.960,205.738 259.249,218.137 258.258 C 228.158 257.457,228.254 257.378,228.141 250.005 L 228.066 245.102 229.908 245.102 C 230.921 245.102,231.814 244.977,231.893 244.824 C 232.470 243.713,231.324 235.116,229.812 229.202 C 228.311 223.334,227.903 220.888,228.046 218.625 C 228.074 218.193,228.772 217.195,229.598 216.406 C 233.327 212.846,233.449 212.964,222.366 209.441 C 218.096 208.084,212.980 206.430,210.996 205.766 C 207.426 204.570,207.378 204.565,206.283 205.231 M253.533 228.290 C 251.359 229.362,249.392 230.301,249.162 230.378 C 248.853 230.481,248.872 231.821,249.234 235.499 L 249.725 240.481 253.733 233.523 C 255.938 229.696,257.684 226.515,257.614 226.454 C 257.544 226.392,255.707 227.219,253.533 228.290 M209.982 273.039 C 209.982 273.155,210.522 274.235,211.183 275.438 L 212.384 277.625 214.250 277.630 L 216.115 277.634 216.897 275.231 L 217.678 272.828 213.830 272.828 C 211.713 272.828,209.982 272.923,209.982 273.039 M227.736 273.290 C 227.741 273.544,228.033 274.381,228.383 275.150 L 229.020 276.548 230.058 274.688 L 231.096 272.828 229.411 272.828 C 228.305 272.828,227.730 272.987,227.736 273.290 " stroke="none" fill="#fbb313" fill-rule="evenodd"></path><path id="path2" d="M129.945 8.667 C 123.526 9.890,115.383 13.997,101.156 23.187 C 92.887 28.529,89.721 32.562,85.393 43.265 C 82.666 50.008,80.874 52.528,73.245 60.351 L 69.009 64.695 41.714 64.695 C 26.701 64.695,14.418 64.776,14.418 64.875 C 14.418 64.974,39.460 108.583,70.067 161.783 C 100.674 214.984,125.613 258.613,125.489 258.738 C 125.364 258.863,106.086 259.009,82.648 259.062 L 40.034 259.159 32.425 272.840 L 24.816 286.522 75.532 286.422 L 126.248 286.322 128.411 285.497 C 131.223 284.425,132.793 283.468,135.417 281.229 C 136.597 280.222,137.621 279.459,137.693 279.533 C 137.764 279.607,148.336 297.967,161.184 320.333 C 174.033 342.699,184.826 361.452,185.170 362.006 L 185.794 363.014 207.943 324.483 C 220.125 303.291,230.266 285.830,230.480 285.680 C 230.694 285.531,239.228 285.406,249.445 285.403 L 268.022 285.397 268.022 281.701 L 268.022 278.004 263.469 278.004 L 258.915 278.004 258.245 275.878 C 257.877 274.709,257.496 273.544,257.399 273.290 C 257.297 273.024,257.510 272.828,257.903 272.828 C 259.778 272.828,265.065 269.772,265.065 268.689 C 265.065 265.862,262.162 259.803,258.335 254.641 C 256.148 251.692,256.091 251.554,255.366 247.454 L 254.628 243.274 260.863 232.465 L 267.098 221.656 296.685 210.724 C 317.890 202.889,326.748 199.450,327.953 198.584 C 331.677 195.910,334.468 190.723,335.708 184.172 L 336.150 181.838 337.668 182.139 C 342.867 183.168,347.046 181.172,349.805 176.342 C 350.802 174.596,350.372 174.649,354.616 175.749 C 369.569 179.626,378.558 176.996,378.558 168.745 C 378.558 168.180,378.978 167.638,379.819 167.119 C 382.650 165.368,388.170 158.245,388.170 156.340 C 388.170 155.880,323.068 133.812,321.326 133.682 C 320.843 133.646,318.669 139.062,318.669 140.299 C 318.669 140.522,320.425 141.272,322.571 141.966 C 327.234 143.473,327.096 143.324,326.889 146.632 L 326.723 149.272 325.376 149.099 C 320.247 148.439,318.356 152.646,318.780 163.771 C 318.907 167.092,319.291 170.600,319.791 172.993 C 321.623 181.764,320.619 182.874,310.510 183.256 L 305.124 183.460 302.747 181.709 C 300.195 179.830,297.862 178.555,295.681 177.849 C 294.117 177.343,293.529 175.879,294.305 174.421 C 294.555 173.952,308.726 149.279,325.796 119.593 C 342.867 89.908,356.915 65.411,357.015 65.157 C 357.156 64.795,355.171 64.695,347.821 64.695 L 338.447 64.695 338.441 62.200 C 338.416 52.353,322.157 44.549,321.773 54.200 C 321.715 55.676,321.436 56.084,317.892 59.876 L 314.075 63.961 313.479 61.784 C 312.487 58.162,309.616 55.508,304.735 53.704 L 301.968 52.680 299.550 47.874 C 295.020 38.869,292.375 36.251,287.800 36.242 C 284.626 36.235,279.963 37.882,277.361 39.929 L 276.430 40.661 275.091 39.546 C 258.909 26.064,243.142 19.109,230.129 19.714 C 221.879 20.097,214.659 22.427,196.673 30.508 C 172.268 41.474,171.606 41.388,157.583 25.440 C 144.241 10.268,138.818 6.977,129.945 8.667 M106.980 32.289 C 108.703 33.603,108.688 33.692,106.316 36.394 C 101.914 41.408,101.870 42.537,105.994 44.547 C 110.699 46.840,112.063 48.494,112.094 51.945 C 112.123 55.239,111.151 56.703,108.777 56.942 C 107.707 57.050,106.875 57.049,106.928 56.940 C 110.532 49.535,104.027 44.026,99.744 50.857 C 98.285 53.185,97.889 53.465,96.703 53.010 C 95.846 52.681,95.961 51.760,97.601 45.836 C 98.417 42.891,99.369 38.484,99.717 36.044 C 100.065 33.604,100.520 31.476,100.729 31.315 C 101.627 30.622,105.608 31.243,106.980 32.289 M293.115 43.360 C 295.249 47.642,295.290 48.049,293.514 47.313 C 290.524 46.075,287.556 41.148,288.956 39.748 C 290.229 38.474,291.024 39.164,293.115 43.360 M289.224 47.874 C 292.430 52.246,294.950 55.989,294.824 56.192 C 293.996 57.532,289.428 53.460,280.652 43.558 C 279.445 42.196,280.915 40.106,283.194 39.941 C 283.304 39.933,286.017 43.503,289.224 47.874 M277.467 45.754 C 278.447 46.441,291.312 61.460,291.312 61.918 C 291.312 62.499,289.926 63.586,289.184 63.586 C 288.568 63.586,272.828 48.411,272.828 47.816 C 272.828 46.528,276.342 44.966,277.467 45.754 M273.752 53.377 C 281.913 58.771,287.638 65.206,285.860 66.985 L 285.116 67.728 275.645 60.994 C 270.436 57.290,266.174 54.134,266.174 53.982 C 266.174 53.435,267.770 51.689,268.535 51.398 C 269.483 51.037,271.195 51.687,273.752 53.377 M85.164 60.598 C 89.675 65.754,95.077 73.967,96.584 77.958 C 97.161 79.486,95.833 80.900,90.584 84.346 C 85.415 87.740,72.617 94.247,72.976 93.299 C 73.120 92.918,75.891 87.743,79.133 81.798 C 82.375 75.854,85.028 70.902,85.028 70.793 C 85.028 70.685,78.080 76.547,69.588 83.819 C 61.096 91.092,53.860 97.270,53.507 97.549 C 52.686 98.199,52.892 95.463,54.142 89.091 C 55.432 82.517,56.072 81.461,62.409 75.458 C 70.151 68.122,81.819 57.674,82.255 57.685 C 82.458 57.691,83.768 59.002,85.164 60.598 M268.295 61.004 C 272.944 63.437,280.946 68.287,282.840 69.821 C 283.572 70.414,283.639 70.669,283.339 71.715 C 282.569 74.399,282.467 74.370,271.627 68.475 C 260.643 62.502,260.882 62.728,262.334 59.668 C 263.079 58.097,262.486 57.964,268.295 61.004 M306.814 58.952 C 311.159 61.199,311.058 64.722,306.561 67.767 C 301.878 70.936,296.151 77.975,291.529 86.240 C 290.010 88.956,289.419 89.310,287.341 88.750 C 284.059 87.866,283.896 87.056,285.821 81.181 C 289.774 69.122,301.818 56.368,306.814 58.952 M326.720 59.356 C 329.559 61.344,324.025 67.248,318.169 68.476 C 314.238 69.301,314.029 67.469,317.594 63.440 C 321.394 59.147,324.462 57.774,326.720 59.356 M268.165 70.540 C 280.096 76.343,281.286 77.244,279.377 79.039 L 278.531 79.833 269.333 75.483 C 259.266 70.722,259.052 70.564,259.990 68.597 C 260.810 66.876,260.458 66.793,268.165 70.540 M311.878 71.595 C 313.712 78.901,299.854 94.156,295.122 90.040 L 294.085 89.138 295.194 86.991 C 300.984 75.778,310.682 66.830,311.878 71.595 M59.190 74.483 C 53.306 80.504,51.270 84.969,50.252 94.085 C 49.852 97.670,50.064 104.719,50.617 106.215 C 50.830 106.791,52.623 105.129,60.927 96.657 C 66.456 91.017,70.980 86.559,70.980 86.751 C 70.980 86.943,69.638 90.169,67.997 93.920 C 66.357 97.671,64.542 101.844,63.965 103.194 L 62.914 105.649 66.485 103.528 C 68.449 102.361,74.048 99.000,78.928 96.059 C 104.491 80.653,107.054 79.874,111.927 86.026 C 116.973 92.398,117.357 99.455,113.107 107.712 C 109.656 114.416,109.051 119.065,110.518 127.597 C 112.878 141.316,123.150 163.812,135.983 183.364 L 138.773 187.616 138.801 192.052 C 138.840 198.289,140.387 202.068,145.004 207.209 C 146.890 209.308,146.999 209.537,147.036 211.489 C 147.058 212.659,147.556 215.059,148.186 217.034 C 148.797 218.950,149.480 221.957,149.703 223.717 C 150.174 227.421,151.234 231.684,152.303 234.178 C 152.714 235.137,153.050 236.122,153.050 236.368 C 153.050 237.881,131.831 257.648,131.048 256.865 C 130.920 256.737,126.625 249.273,65.451 142.884 C 43.238 104.251,24.734 72.103,24.332 71.442 L 23.600 70.240 43.468 70.240 L 63.336 70.240 59.190 74.483 M253.289 71.407 C 254.006 72.175,254.290 72.775,254.120 73.163 C 252.023 77.941,252.630 79.333,257.803 81.606 C 263.449 84.088,266.694 84.827,271.988 84.835 L 276.508 84.843 277.477 87.061 C 278.083 88.451,278.823 91.517,279.458 95.272 L 280.471 101.266 274.577 107.472 C 267.528 114.894,268.461 114.462,266.531 111.197 C 260.800 101.502,249.670 86.803,241.956 78.743 C 238.942 75.593,238.327 73.282,239.953 71.214 L 240.719 70.240 246.459 70.240 L 252.199 70.240 253.289 71.407 M347.423 71.072 C 347.128 71.530,334.608 93.281,319.600 119.409 C 304.593 145.536,292.198 167.045,292.057 167.205 C 291.916 167.366,291.173 165.536,290.407 163.139 C 287.311 153.449,282.898 142.418,278.014 132.158 L 275.416 126.701 277.911 123.901 C 285.356 115.550,288.433 112.200,288.658 112.200 C 288.796 112.200,290.074 112.559,291.497 112.999 C 307.131 117.830,314.199 115.936,315.757 106.501 C 316.185 103.911,316.203 103.882,317.337 103.880 C 320.254 103.877,322.124 101.191,322.834 95.982 C 323.190 93.373,323.402 92.757,324.068 92.401 C 327.653 90.482,327.186 78.303,323.333 73.220 L 322.369 71.949 323.171 71.094 L 323.974 70.240 335.966 70.240 L 347.959 70.240 347.423 71.072 M320.087 73.353 C 322.415 76.595,325.047 83.823,324.499 85.468 C 324.323 85.996,317.190 73.591,317.190 72.757 C 317.190 71.116,318.704 71.428,320.087 73.353 M185.645 73.893 C 207.141 78.843,231.082 97.057,251.648 124.108 L 254.800 128.254 251.337 131.931 C 249.432 133.954,236.479 147.591,222.551 162.236 L 197.227 188.864 194.085 187.160 C 157.289 167.200,135.888 140.897,133.987 113.294 C 132.203 87.393,158.191 67.572,185.645 73.893 M262.123 76.291 C 273.546 80.644,275.908 82.391,269.440 81.705 C 262.485 80.968,256.343 77.853,257.105 75.451 C 257.422 74.452,257.199 74.414,262.123 76.291 M315.856 76.649 C 321.838 83.849,324.811 90.199,323.031 91.978 C 321.927 93.082,321.242 92.407,317.224 86.256 L 313.196 80.090 314.161 78.123 C 315.219 75.967,315.259 75.932,315.856 76.649 M313.185 86.943 C 316.102 90.103,318.314 98.336,316.246 98.336 C 314.550 98.336,309.896 91.533,309.196 88.030 C 308.668 85.389,311.131 84.718,313.185 86.943 M305.481 92.925 C 308.861 94.338,313.862 104.770,312.034 106.598 C 309.860 108.772,303.201 98.224,303.143 92.514 C 303.141 92.256,304.415 92.480,305.481 92.925 M284.461 93.735 C 285.224 94.096,286.024 94.958,286.628 96.068 L 287.586 97.827 285.845 98.230 C 284.887 98.451,283.750 98.746,283.319 98.885 C 282.396 99.182,281.701 97.684,281.701 95.398 C 281.701 93.229,282.447 92.779,284.461 93.735 M300.691 98.059 C 303.006 101.159,304.673 104.337,305.532 107.293 C 309.273 120.162,297.272 113.415,292.419 99.921 C 291.196 96.520,292.202 95.423,296.572 95.393 L 298.689 95.379 300.691 98.059 M288.926 101.832 C 291.374 104.279,294.743 100.142,245.819 154.752 C 196.544 209.752,199.422 206.654,197.607 206.654 C 194.553 206.654,190.758 203.650,190.758 201.232 C 190.758 200.166,266.142 120.018,282.235 103.974 C 285.731 100.489,287.135 100.040,288.926 101.832 M359.797 148.775 C 373.775 153.399,385.213 157.316,385.213 157.479 C 385.213 159.608,378.391 165.773,376.671 165.198 C 374.853 164.591,374.839 164.564,373.971 160.222 L 373.178 156.253 370.062 155.206 C 368.349 154.630,366.823 154.159,366.672 154.159 C 366.521 154.159,365.445 155.490,364.280 157.116 C 361.956 160.363,362.038 160.320,359.624 159.498 L 357.934 158.922 357.675 154.952 L 357.415 150.983 347.739 147.765 C 336.138 143.907,337.765 143.921,335.217 147.657 L 333.096 150.767 331.243 150.174 L 329.390 149.582 329.390 145.658 L 329.390 141.735 325.508 140.481 C 321.559 139.204,321.355 139.026,321.975 137.394 L 322.324 136.477 328.352 138.422 C 331.668 139.491,345.818 144.150,359.797 148.775 M265.047 144.085 C 282.021 173.151,285.133 197.614,272.899 205.815 C 265.721 210.626,255.037 210.281,235.668 204.612 C 227.595 202.250,213.309 196.953,213.309 196.323 C 213.309 195.946,262.567 140.850,262.904 140.850 C 263.043 140.850,264.008 142.306,265.047 144.085 M355.268 155.511 L 355.268 158.167 345.749 155.007 C 334.488 151.269,335.387 151.858,337.052 149.311 L 338.403 147.245 346.836 150.050 L 355.268 152.855 355.268 155.511 M370.941 158.261 C 371.529 158.783,372.249 163.401,371.743 163.401 C 371.246 163.401,364.851 161.278,364.604 161.030 C 364.516 160.942,365.139 159.949,365.988 158.824 L 367.532 156.779 369.071 157.373 C 369.918 157.700,370.759 158.099,370.941 158.261 M370.795 169.316 C 371.813 170.335,371.723 171.061,370.426 172.273 C 367.514 174.993,361.528 174.153,362.479 171.158 C 363.176 168.962,369.123 167.644,370.795 169.316 M163.701 180.587 C 165.114 182.383,166.021 190.517,164.877 191.129 C 162.335 192.489,159.309 186.470,160.434 182.292 C 161.141 179.666,162.442 178.987,163.701 180.587 M171.630 181.054 C 173.546 183.053,173.796 184.301,173.687 191.320 C 173.577 198.396,173.438 198.750,171.183 197.669 C 168.937 196.593,168.152 180.037,170.347 180.037 C 170.517 180.037,171.095 180.494,171.630 181.054 M156.113 181.859 C 156.908 182.803,157.059 183.453,157.296 186.927 C 157.446 189.118,157.808 191.750,158.102 192.775 C 159.085 196.211,159.084 196.186,158.295 196.392 C 156.814 196.779,155.629 196.258,155.096 194.984 C 154.814 194.308,153.412 192.241,151.981 190.389 C 148.383 185.733,148.076 183.455,150.799 181.620 C 152.674 180.356,154.934 180.458,156.113 181.859 M179.310 182.816 C 181.276 183.832,181.674 185.164,181.821 191.213 L 181.953 196.658 181.028 197.080 C 180.405 197.363,179.640 197.392,178.688 197.167 C 176.930 196.751,176.813 196.270,176.472 188.078 L 176.230 182.255 177.227 182.255 C 177.776 182.255,178.713 182.507,179.310 182.816 M187.680 187.240 C 189.836 188.750,189.703 199.615,187.533 199.191 C 186.481 198.985,185.495 195.353,185.444 191.497 C 185.381 186.718,185.798 185.922,187.680 187.240 M146.448 189.422 C 149.273 192.261,153.731 200.522,153.778 203.004 C 153.792 203.731,150.640 205.176,149.042 205.176 C 144.769 205.176,140.533 194.494,142.823 189.492 C 143.980 186.965,144.003 186.964,146.448 189.422 M168.317 203.050 C 168.791 203.601,168.950 204.297,168.872 205.479 L 168.762 207.135 166.698 207.224 C 163.152 207.378,158.211 209.777,153.561 213.602 C 150.893 215.796,150.603 215.794,150.272 213.577 C 149.357 207.451,164.502 198.615,168.317 203.050 M180.819 203.001 C 184.613 203.815,185.538 206.449,183.363 210.242 C 181.114 214.162,178.280 214.917,175.665 212.292 C 170.353 206.958,173.427 201.416,180.819 203.001 M211.460 205.702 C 213.595 206.398,218.336 207.911,221.996 209.064 C 233.095 212.561,233.351 212.748,230.653 215.359 C 227.590 218.326,227.478 219.867,229.729 228.107 C 231.371 234.113,231.763 236.319,232.044 241.128 L 232.276 245.102 230.262 245.102 L 228.247 245.102 228.401 249.723 C 228.660 257.483,228.098 257.919,217.006 258.579 C 206.349 259.213,201.963 262.367,201.258 269.902 C 201.095 271.652,200.610 273.146,199.408 275.601 C 197.713 279.064,196.673 282.468,196.673 284.551 L 196.673 285.767 210.166 285.767 C 217.588 285.767,223.660 285.859,223.660 285.972 C 223.660 286.602,185.799 351.930,185.577 351.683 C 185.262 351.333,141.617 275.510,141.491 275.093 C 141.424 274.872,157.721 256.816,162.694 251.602 L 163.723 250.524 166.057 251.602 C 168.271 252.625,168.650 252.680,173.383 252.680 C 181.939 252.680,185.097 250.622,190.247 241.689 C 191.529 239.467,191.805 239.200,192.828 239.194 C 195.009 239.180,197.612 236.765,201.197 231.430 C 203.381 228.179,203.677 227.889,205.279 227.437 C 206.968 226.960,207.021 226.899,207.709 224.658 C 210.021 217.126,209.670 213.643,206.071 208.410 C 204.727 206.457,204.759 205.797,206.236 204.994 C 207.487 204.315,207.002 204.249,211.460 205.702 M191.045 209.242 C 192.127 211.287,190.713 217.065,189.073 217.299 C 186.689 217.640,185.482 213.844,186.888 210.432 C 187.899 207.979,190.051 207.363,191.045 209.242 M169.686 212.979 C 176.579 217.118,178.966 225.756,177.438 241.035 C 176.593 249.487,175.689 249.901,172.099 243.481 C 168.955 237.859,160.721 214.217,161.649 213.477 C 163.473 212.023,167.661 211.764,169.686 212.979 M199.039 213.427 C 200.301 215.123,200.411 226.813,199.187 229.204 C 197.234 233.021,193.914 231.595,194.034 226.990 C 194.267 218.020,194.674 213.717,195.360 212.959 C 196.357 211.859,198.031 212.072,199.039 213.427 M205.411 215.423 C 206.104 216.180,206.583 217.027,206.476 217.306 C 206.369 217.585,206.181 218.214,206.058 218.703 C 205.524 220.831,202.403 219.492,202.528 217.189 C 202.722 213.577,203.361 213.185,205.411 215.423 M158.227 220.055 C 160.042 225.943,163.888 235.999,166.896 242.722 L 169.632 248.836 168.401 249.423 C 163.978 251.532,153.420 232.538,153.420 222.472 C 153.420 221.433,156.238 216.277,156.810 216.269 C 156.947 216.268,157.585 217.971,158.227 220.055 M187.232 220.840 C 191.370 224.978,189.347 241.341,184.039 246.673 C 180.475 250.252,179.050 248.678,180.776 243.069 C 182.115 238.719,182.708 233.245,182.576 226.450 L 182.476 221.292 183.567 220.630 C 185.050 219.729,186.187 219.794,187.232 220.840 M257.872 226.525 C 257.416 227.717,249.819 240.700,249.667 240.548 C 249.272 240.153,248.591 230.626,248.940 230.387 C 249.297 230.142,257.711 225.980,257.988 225.911 C 258.060 225.893,258.008 226.169,257.872 226.525 M157.872 244.592 L 160.888 248.871 159.802 250.036 C 159.204 250.677,153.054 257.357,146.134 264.880 C 128.389 284.172,129.713 283.278,119.153 283.096 L 113.230 282.994 117.781 273.013 C 120.283 267.523,122.383 262.900,122.446 262.739 C 122.509 262.578,123.687 262.286,125.064 262.091 C 132.459 261.044,135.025 259.368,145.658 248.644 C 150.396 243.864,154.405 240.034,154.565 240.133 C 154.725 240.232,156.213 242.239,157.872 244.592 M212.495 262.181 C 213.788 263.473,212.116 266.720,209.509 267.983 C 206.758 269.314,205.176 268.892,205.176 266.826 C 205.176 263.902,210.707 260.392,212.495 262.181 M53.832 265.561 C 52.907 267.257,50.340 271.873,48.126 275.819 L 44.101 282.994 37.193 283.095 L 30.286 283.196 30.810 282.356 C 31.098 281.894,33.694 277.232,36.580 271.996 L 41.826 262.477 48.669 262.477 L 55.513 262.477 53.832 265.561 M208.864 276.535 L 210.889 280.222 214.478 280.222 L 218.066 280.222 219.283 276.509 L 220.500 272.797 222.681 272.905 L 224.861 273.013 226.152 276.617 L 227.443 280.222 238.076 280.222 L 248.708 280.222 249.746 276.509 L 250.783 272.795 252.828 272.904 L 254.874 273.013 255.963 276.617 L 257.052 280.222 261.243 280.222 L 265.434 280.222 265.434 281.701 L 265.434 283.179 232.348 283.179 C 203.411 283.179,199.261 283.111,199.261 282.633 C 199.261 281.713,200.983 277.451,202.046 275.740 C 204.783 271.335,206.092 271.488,208.864 276.535 M217.745 273.126 C 217.745 273.290,217.397 274.454,216.972 275.714 L 216.198 278.004 214.291 278.001 L 212.384 277.999 210.976 275.413 L 209.568 272.828 213.657 272.828 C 215.905 272.828,217.745 272.962,217.745 273.126 M231.047 273.105 C 231.024 274.130,228.857 277.006,228.616 276.331 C 228.473 275.929,228.132 275.040,227.857 274.354 C 227.582 273.668,227.357 273.045,227.357 272.968 C 227.357 272.891,228.189 272.828,229.205 272.828 C 230.222 272.828,231.051 272.953,231.047 273.105 M247.589 275.416 L 246.834 278.004 240.765 278.004 L 234.696 278.004 235.891 275.878 C 236.548 274.709,237.246 273.544,237.442 273.290 C 237.698 272.959,239.290 272.828,243.071 272.828 L 248.344 272.828 247.589 275.416 " stroke="none" fill="#040404" fill-rule="evenodd"></path><path id="path3" d="M284.658 59.704 C 286.377 61.433,287.867 62.847,287.969 62.847 C 288.071 62.847,286.747 61.433,285.028 59.704 C 283.308 57.976,281.819 56.562,281.717 56.562 C 281.615 56.562,282.939 57.976,284.658 59.704 M318.831 58.503 L 317.745 59.704 318.946 58.618 C 319.607 58.021,320.148 57.481,320.148 57.417 C 320.148 57.131,319.843 57.383,318.831 58.503 M71.537 61.735 L 68.971 64.321 41.417 64.418 L 13.863 64.515 41.414 64.605 L 68.965 64.695 71.719 61.922 C 73.234 60.397,74.390 59.150,74.288 59.150 C 74.186 59.150,72.948 60.313,71.537 61.735 M338.718 62.107 C 338.718 62.819,338.794 63.110,338.887 62.754 C 338.980 62.398,338.980 61.816,338.887 61.460 C 338.794 61.104,338.718 61.396,338.718 62.107 M295.749 64.880 C 294.851 65.795,294.199 66.543,294.301 66.543 C 294.402 66.543,295.220 65.795,296.118 64.880 C 297.016 63.965,297.668 63.216,297.566 63.216 C 297.464 63.216,296.647 63.965,295.749 64.880 M176.802 73.083 C 177.158 73.176,177.740 73.176,178.096 73.083 C 178.452 72.990,178.161 72.914,177.449 72.914 C 176.738 72.914,176.446 72.990,176.802 73.083 M58.947 78.835 L 57.486 80.407 59.057 78.945 C 59.921 78.142,60.628 77.435,60.628 77.374 C 60.628 77.094,60.307 77.374,58.947 78.835 M296.026 95.640 C 296.483 95.728,297.232 95.728,297.689 95.640 C 298.147 95.552,297.773 95.480,296.858 95.480 C 295.943 95.480,295.568 95.552,296.026 95.640 M283.529 102.680 L 282.255 104.067 283.641 102.793 C 284.932 101.607,285.198 101.294,284.915 101.294 C 284.854 101.294,284.230 101.918,283.529 102.680 M276.135 110.444 L 274.861 111.830 276.248 110.556 C 277.538 109.370,277.804 109.057,277.522 109.057 C 277.460 109.057,276.836 109.681,276.135 110.444 M268.923 118.022 L 267.837 119.224 269.039 118.138 C 269.700 117.541,270.240 117.000,270.240 116.936 C 270.240 116.651,269.935 116.902,268.923 118.022 M261.529 125.786 L 260.444 126.987 261.645 125.901 C 262.306 125.304,262.847 124.763,262.847 124.700 C 262.847 124.414,262.542 124.666,261.529 125.786 M251.548 131.331 L 250.462 132.532 251.664 131.447 C 252.324 130.849,252.865 130.309,252.865 130.245 C 252.865 129.959,252.560 130.211,251.548 131.331 M254.505 133.179 L 253.420 134.381 254.621 133.295 C 255.282 132.698,255.823 132.157,255.823 132.093 C 255.823 131.808,255.518 132.059,254.505 133.179 M244.524 138.725 L 243.438 139.926 244.640 138.840 C 245.300 138.243,245.841 137.702,245.841 137.639 C 245.841 137.353,245.536 137.605,244.524 138.725 M247.112 140.943 L 246.026 142.144 247.227 141.058 C 247.888 140.461,248.429 139.921,248.429 139.857 C 248.429 139.571,248.124 139.823,247.112 140.943 M329.517 144.362 C 329.518 145.989,329.583 146.608,329.661 145.739 C 329.739 144.869,329.738 143.538,329.659 142.781 C 329.579 142.024,329.515 142.736,329.517 144.362 M237.318 146.303 L 236.044 147.689 237.431 146.415 C 238.721 145.230,238.987 144.917,238.705 144.917 C 238.643 144.917,238.019 145.541,237.318 146.303 M239.906 148.521 L 238.632 149.908 240.018 148.634 C 241.309 147.448,241.575 147.135,241.292 147.135 C 241.231 147.135,240.607 147.759,239.906 148.521 M230.106 153.882 L 229.020 155.083 230.222 153.997 C 230.883 153.400,231.423 152.860,231.423 152.796 C 231.423 152.510,231.118 152.762,230.106 153.882 M354.894 155.377 L 355.075 158.041 355.191 155.675 C 355.254 154.374,355.173 153.176,355.010 153.012 C 354.847 152.848,354.795 153.912,354.894 155.377 M232.694 156.100 L 231.608 157.301 232.810 156.215 C 233.470 155.618,234.011 155.078,234.011 155.014 C 234.011 154.728,233.706 154.980,232.694 156.100 M318.433 161.553 C 318.433 163.484,318.495 164.274,318.571 163.309 C 318.647 162.343,318.647 160.762,318.571 159.797 C 318.495 158.831,318.433 159.621,318.433 161.553 M222.901 161.460 L 221.627 162.847 223.013 161.573 C 224.303 160.387,224.569 160.074,224.287 160.074 C 224.225 160.074,223.601 160.698,222.901 161.460 M225.488 163.678 L 224.214 165.065 225.601 163.791 C 226.891 162.605,227.157 162.292,226.875 162.292 C 226.813 162.292,226.189 162.916,225.488 163.678 M215.688 169.039 L 214.603 170.240 215.804 169.154 C 216.465 168.557,217.006 168.017,217.006 167.953 C 217.006 167.667,216.701 167.919,215.688 169.039 M218.276 171.257 L 217.190 172.458 218.392 171.373 C 219.053 170.775,219.593 170.235,219.593 170.171 C 219.593 169.886,219.288 170.137,218.276 171.257 M208.664 176.433 L 207.579 177.634 208.780 176.548 C 209.441 175.951,209.982 175.410,209.982 175.347 C 209.982 175.061,209.676 175.313,208.664 176.433 M320.249 177.819 C 320.249 178.734,320.321 179.108,320.409 178.651 C 320.497 178.193,320.497 177.445,320.409 176.987 C 320.321 176.530,320.249 176.904,320.249 177.819 M211.071 178.835 L 209.797 180.222 211.183 178.948 C 212.473 177.762,212.739 177.449,212.457 177.449 C 212.395 177.449,211.771 178.073,211.071 178.835 M201.459 184.011 L 200.185 185.397 201.571 184.123 C 202.862 182.938,203.127 182.625,202.845 182.625 C 202.783 182.625,202.160 183.249,201.459 184.011 M308.785 183.260 C 309.347 183.345,310.179 183.342,310.634 183.255 C 311.088 183.167,310.628 183.097,309.612 183.100 C 308.595 183.103,308.223 183.175,308.785 183.260 M176.455 186.506 C 176.457 187.726,176.526 188.181,176.608 187.516 C 176.690 186.852,176.689 185.854,176.604 185.298 C 176.520 184.743,176.453 185.287,176.455 186.506 M203.858 186.414 L 202.773 187.616 203.974 186.530 C 204.635 185.933,205.176 185.392,205.176 185.328 C 205.176 185.043,204.871 185.294,203.858 186.414 M196.653 193.993 L 195.379 195.379 196.765 194.105 C 198.056 192.919,198.322 192.606,198.039 192.606 C 197.977 192.606,197.354 193.230,196.653 193.993 M152.842 207.856 L 151.756 209.057 152.957 207.972 C 154.077 206.959,154.329 206.654,154.043 206.654 C 153.980 206.654,153.439 207.195,152.842 207.856 M177.535 235.120 C 177.535 235.832,177.611 236.123,177.704 235.767 C 177.797 235.411,177.797 234.829,177.704 234.473 C 177.611 234.117,177.535 234.409,177.535 235.120 M39.798 259.057 C 39.643 259.308,68.549 259.306,108.503 259.053 C 116.839 259.000,104.830 258.917,81.815 258.868 C 58.800 258.820,39.893 258.905,39.798 259.057 M240.850 277.634 L 234.935 277.847 240.736 277.926 C 244.291 277.973,246.625 277.861,246.765 277.634 C 246.891 277.431,246.942 277.299,246.879 277.342 C 246.817 277.385,244.104 277.517,240.850 277.634 M259.105 277.739 C 259.265 277.898,261.379 277.980,263.802 277.922 L 268.207 277.815 263.511 277.632 C 260.928 277.532,258.945 277.579,259.105 277.739 M199.261 282.902 C 199.261 283.055,214.191 283.140,232.440 283.092 C 250.689 283.044,260.296 282.961,253.789 282.908 C 222.827 282.653,199.260 282.651,199.261 282.902 M49.261 286.784 C 62.833 286.837,85.042 286.837,98.614 286.784 C 112.186 286.730,101.081 286.686,73.937 286.686 C 46.793 286.686,35.689 286.730,49.261 286.784 " stroke="none" fill="#999999" fill-rule="evenodd"></path><path id="path4" d="M58.218 99.538 L 54.898 102.957 58.318 99.638 C 61.494 96.555,61.906 96.118,61.637 96.118 C 61.582 96.118,60.044 97.657,58.218 99.538 M115.812 97.967 C 115.812 98.882,115.884 99.256,115.973 98.799 C 116.061 98.341,116.061 97.592,115.973 97.135 C 115.884 96.677,115.812 97.052,115.812 97.967 M273.937 107.763 C 273.039 108.678,272.388 109.427,272.489 109.427 C 272.591 109.427,273.409 108.678,274.307 107.763 C 275.205 106.848,275.856 106.100,275.755 106.100 C 275.653 106.100,274.835 106.848,273.937 107.763 M109.538 120.148 C 109.538 121.266,109.607 121.724,109.692 121.165 C 109.776 120.605,109.776 119.690,109.692 119.131 C 109.607 118.572,109.538 119.030,109.538 120.148 M138.368 192.791 C 138.371 193.808,138.443 194.180,138.528 193.618 C 138.613 193.056,138.610 192.224,138.523 191.769 C 138.435 191.315,138.365 191.774,138.368 192.791 M197.204 236.691 L 196.118 237.893 197.320 236.807 C 197.981 236.210,198.521 235.669,198.521 235.606 C 198.521 235.320,198.216 235.571,197.204 236.691 M231.899 242.329 C 231.901 243.346,231.973 243.718,232.058 243.156 C 232.143 242.594,232.141 241.762,232.053 241.307 C 231.965 240.853,231.896 241.312,231.899 242.329 M139.926 249.538 C 137.492 251.978,135.585 253.974,135.686 253.974 C 135.788 253.974,137.862 251.978,140.296 249.538 C 142.729 247.098,144.637 245.102,144.536 245.102 C 144.434 245.102,142.360 247.098,139.926 249.538 M228.214 250.277 C 228.214 251.599,228.282 252.140,228.364 251.479 C 228.446 250.818,228.446 249.737,228.364 249.076 C 228.282 248.415,228.214 248.956,228.214 250.277 M171.803 253.132 C 172.459 253.214,173.624 253.215,174.391 253.135 C 175.158 253.055,174.621 252.988,173.198 252.986 C 171.774 252.985,171.147 253.050,171.803 253.132 M200.825 271.349 C 200.825 272.061,200.901 272.352,200.994 271.996 C 201.087 271.640,201.087 271.058,200.994 270.702 C 200.901 270.347,200.825 270.638,200.825 271.349 M213.401 277.899 C 213.960 277.984,214.875 277.984,215.434 277.899 C 215.994 277.814,215.536 277.745,214.418 277.745 C 213.299 277.745,212.842 277.814,213.401 277.899 " stroke="none" fill="#90680c" fill-rule="evenodd"></path><path id="path5" d="M148.608 240.943 L 144.362 245.287 148.706 241.041 C 151.095 238.706,153.050 236.751,153.050 236.697 C 153.050 236.431,152.551 236.908,148.608 240.943 M150.260 244.085 L 148.799 245.656 150.370 244.195 C 151.831 242.836,152.111 242.514,151.831 242.514 C 151.771 242.514,151.064 243.221,150.260 244.085 " stroke="none" fill="#564e3c" fill-rule="evenodd"></path><path id="path6" d="M185.298 191.128 C 185.298 191.839,185.374 192.130,185.467 191.774 C 185.560 191.419,185.560 190.836,185.467 190.481 C 185.374 190.125,185.298 190.416,185.298 191.128 M181.601 192.237 C 181.601 192.948,181.678 193.239,181.771 192.884 C 181.864 192.528,181.864 191.945,181.771 191.590 C 181.678 191.234,181.601 191.525,181.601 192.237 " stroke="none" fill="#747474" fill-rule="evenodd"></path><path id="path7" d="M133.912 110.166 C 133.912 110.878,133.988 111.169,134.081 110.813 C 134.174 110.457,134.174 109.875,134.081 109.519 C 133.988 109.164,133.912 109.455,133.912 110.166 M169.032 185.952 C 169.032 186.664,169.108 186.955,169.201 186.599 C 169.294 186.243,169.294 185.661,169.201 185.305 C 169.108 184.949,169.032 185.240,169.032 185.952 M181.621 189.464 C 181.624 190.481,181.696 190.853,181.781 190.291 C 181.866 189.729,181.864 188.897,181.776 188.442 C 181.688 187.988,181.619 188.447,181.621 189.464 M153.030 241.312 L 151.756 242.699 153.142 241.425 C 154.433 240.239,154.699 239.926,154.416 239.926 C 154.355 239.926,153.731 240.550,153.030 241.312 " stroke="none" fill="#6c6c6c" fill-rule="evenodd"></path><path id="path8" d="M275.231 50.647 C 276.643 52.070,277.882 53.235,277.984 53.235 C 278.086 53.235,277.013 52.070,275.601 50.647 C 274.188 49.224,272.950 48.059,272.848 48.059 C 272.746 48.059,273.819 49.224,275.231 50.647 M304.419 74.030 L 302.957 75.601 304.529 74.139 C 305.990 72.780,306.270 72.458,305.990 72.458 C 305.930 72.458,305.223 73.165,304.419 74.030 M58.760 74.584 L 57.486 75.970 58.872 74.696 C 60.163 73.511,60.429 73.198,60.146 73.198 C 60.085 73.198,59.461 73.822,58.760 74.584 M67.450 89.926 L 65.989 91.497 67.560 90.036 C 68.424 89.232,69.131 88.525,69.131 88.465 C 69.131 88.185,68.809 88.465,67.450 89.926 M234.196 104.251 C 235.197 105.268,236.100 106.100,236.201 106.100 C 236.303 106.100,235.567 105.268,234.566 104.251 C 233.564 103.235,232.662 102.403,232.560 102.403 C 232.458 102.403,233.195 103.235,234.196 104.251 M51.736 106.007 L 50.462 107.394 51.848 106.120 C 52.611 105.419,53.235 104.795,53.235 104.733 C 53.235 104.451,52.922 104.717,51.736 106.007 M264.857 122.089 L 263.771 123.290 264.972 122.204 C 265.633 121.607,266.174 121.067,266.174 121.003 C 266.174 120.717,265.869 120.969,264.857 122.089 M243.045 145.009 L 241.959 146.211 243.161 145.125 C 243.822 144.528,244.362 143.987,244.362 143.923 C 244.362 143.638,244.057 143.889,243.045 145.009 M228.627 160.166 L 227.542 161.368 228.743 160.282 C 229.404 159.685,229.945 159.144,229.945 159.081 C 229.945 158.795,229.640 159.046,228.627 160.166 M160.160 184.104 C 160.160 184.815,160.236 185.106,160.329 184.750 C 160.422 184.395,160.422 183.812,160.329 183.457 C 160.236 183.101,160.160 183.392,160.160 184.104 M177.357 202.849 C 177.814 202.937,178.563 202.937,179.020 202.849 C 179.478 202.761,179.104 202.688,178.189 202.688 C 177.274 202.688,176.899 202.761,177.357 202.849 M144.362 249.908 C 141.929 252.348,140.021 254.344,140.122 254.344 C 140.224 254.344,142.298 252.348,144.732 249.908 C 147.166 247.468,149.073 245.471,148.972 245.471 C 148.870 245.471,146.796 247.468,144.362 249.908 M164.510 247.874 C 165.200 248.586,165.847 249.168,165.949 249.168 C 166.051 249.168,165.570 248.586,164.880 247.874 C 164.190 247.163,163.543 246.580,163.441 246.580 C 163.339 246.580,163.820 247.163,164.510 247.874 M212.859 280.495 C 213.933 280.570,215.597 280.569,216.556 280.493 C 217.515 280.417,216.636 280.356,214.603 280.357 C 212.569 280.358,211.785 280.420,212.859 280.495 M232.810 280.498 C 235.707 280.561,240.448 280.561,243.346 280.498 C 246.243 280.436,243.872 280.385,238.078 280.385 C 232.283 280.385,229.912 280.436,232.810 280.498 M259.242 280.495 C 260.411 280.568,262.324 280.568,263.494 280.495 C 264.663 280.422,263.706 280.362,261.368 280.362 C 259.030 280.362,258.073 280.422,259.242 280.495 M240.044 285.674 C 245.294 285.732,253.778 285.732,258.898 285.674 C 264.018 285.616,259.723 285.569,249.353 285.569 C 238.983 285.569,234.794 285.617,240.044 285.674 " stroke="none" fill="#3c3c3c" fill-rule="evenodd"></path></g></svg>