<svg id="svg" xmlns="http://www.w3.org/2000/svg" xmlns:xlink="http://www.w3.org/1999/xlink" width="400" height="400" viewBox="0, 0, 400,400"><g id="svgg"><path id="path0" d="M183.800 0.261 C 173.292 1.091,170.800 1.344,170.800 1.577 C 170.800 1.728,168.640 2.083,166.000 2.367 C 163.360 2.651,161.200 3.007,161.200 3.159 C 161.200 3.310,159.178 3.753,156.707 4.143 C 154.236 4.534,152.121 4.989,152.007 5.154 C 151.893 5.320,150.496 5.684,148.901 5.964 C 147.307 6.243,145.914 6.615,145.806 6.790 C 145.698 6.965,144.438 7.329,143.005 7.599 C 141.572 7.869,140.400 8.222,140.400 8.382 C 140.400 8.542,139.365 8.900,138.100 9.177 C 136.835 9.454,135.260 9.918,134.600 10.206 C 133.940 10.495,132.680 10.950,131.800 11.218 C 130.920 11.485,130.020 11.843,129.800 12.013 C 129.580 12.183,128.635 12.526,127.700 12.776 C 126.765 13.026,126.000 13.375,126.000 13.552 C 126.000 13.728,124.989 14.115,123.754 14.411 C 122.518 14.708,121.295 15.163,121.035 15.422 C 120.775 15.682,120.121 16.019,119.581 16.172 C 118.454 16.490,114.299 18.448,114.000 18.802 C 113.890 18.932,113.035 19.262,112.100 19.536 C 111.165 19.809,110.400 20.191,110.400 20.384 C 110.400 20.578,109.882 20.850,109.249 20.989 C 108.616 21.128,107.501 21.682,106.772 22.221 C 106.042 22.759,105.222 23.200,104.951 23.200 C 104.679 23.200,104.215 23.425,103.919 23.700 C 103.624 23.975,101.992 24.920,100.294 25.800 C 98.596 26.680,97.205 27.515,97.203 27.657 C 97.202 27.798,96.784 28.018,96.275 28.145 C 95.767 28.273,94.822 28.832,94.175 29.388 C 93.529 29.944,92.775 30.399,92.500 30.400 C 92.225 30.400,92.000 30.536,92.000 30.702 C 92.000 30.869,91.456 31.246,90.791 31.540 C 90.126 31.834,89.361 32.287,89.091 32.547 C 88.821 32.807,87.700 33.595,86.600 34.299 C 85.500 35.003,84.347 35.797,84.039 36.063 C 83.730 36.329,82.560 37.171,81.439 37.934 C 80.317 38.698,78.764 39.880,77.987 40.561 C 77.210 41.243,76.052 42.160,75.415 42.600 C 74.778 43.040,73.831 43.805,73.310 44.300 C 72.790 44.795,72.229 45.200,72.065 45.200 C 71.901 45.200,71.105 45.920,70.296 46.800 C 69.487 47.680,68.656 48.400,68.450 48.400 C 67.405 48.400,49.617 66.252,47.325 69.600 C 46.948 70.150,46.316 70.835,45.920 71.123 C 45.524 71.410,45.200 71.807,45.200 72.004 C 45.200 72.202,44.795 72.799,44.300 73.331 C 43.179 74.536,41.652 76.458,38.714 80.362 C 37.457 82.033,36.266 83.591,36.068 83.825 C 35.870 84.059,35.480 84.678,35.200 85.200 C 34.920 85.722,34.356 86.510,33.946 86.950 C 33.536 87.391,33.200 87.987,33.200 88.275 C 33.200 88.564,33.028 88.800,32.819 88.800 C 32.609 88.800,32.124 89.475,31.740 90.300 C 31.357 91.125,30.808 91.944,30.522 92.120 C 30.235 92.296,30.000 92.664,30.000 92.939 C 30.000 93.213,29.730 93.789,29.400 94.219 C 28.245 95.723,26.943 97.829,26.376 99.109 C 26.062 99.819,25.676 100.400,25.518 100.400 C 25.361 100.400,25.016 101.120,24.753 102.000 C 24.489 102.880,24.139 103.600,23.974 103.600 C 23.630 103.600,17.600 115.593,17.600 116.278 C 17.600 116.529,17.465 116.793,17.300 116.867 C 16.923 117.034,15.306 120.787,14.528 123.300 C 14.205 124.345,13.802 125.200,13.634 125.200 C 13.465 125.200,13.090 126.190,12.800 127.400 C 12.510 128.610,12.160 129.600,12.023 129.600 C 11.887 129.600,11.529 130.455,11.229 131.500 C 10.929 132.545,10.542 133.583,10.370 133.808 C 10.197 134.032,9.743 135.472,9.362 137.008 C 8.981 138.543,8.552 139.890,8.410 140.000 C 8.267 140.110,7.917 141.280,7.631 142.600 C 7.345 143.920,6.970 145.180,6.799 145.400 C 6.627 145.620,6.183 147.150,5.812 148.800 C 3.976 156.971,3.630 158.683,3.616 159.676 C 3.607 160.268,3.447 160.847,3.261 160.962 C 3.074 161.078,2.688 163.113,2.403 165.486 C 2.118 167.859,1.752 169.980,1.589 170.200 C -0.245 172.678,-0.246 228.400,1.588 228.400 C 1.739 228.400,2.093 230.425,2.374 232.900 C 2.656 235.375,3.009 237.490,3.159 237.600 C 3.308 237.710,3.759 239.780,4.160 242.200 C 4.561 244.620,5.026 246.780,5.192 247.000 C 5.358 247.220,5.719 248.617,5.994 250.105 C 6.268 251.593,6.632 252.896,6.802 253.001 C 6.972 253.107,7.345 254.364,7.629 255.796 C 7.914 257.228,8.264 258.400,8.408 258.400 C 8.552 258.400,8.998 259.840,9.400 261.600 C 9.802 263.360,10.261 264.800,10.421 264.800 C 10.580 264.800,10.834 265.475,10.985 266.300 C 11.136 267.125,11.509 268.188,11.814 268.663 C 12.120 269.137,12.578 270.352,12.832 271.363 C 13.087 272.373,13.414 273.200,13.560 273.200 C 13.706 273.200,14.076 274.055,14.383 275.100 C 14.690 276.145,15.359 277.836,15.870 278.858 C 16.382 279.880,16.800 281.005,16.800 281.358 C 16.800 281.711,16.951 282.000,17.136 282.000 C 17.321 282.000,17.710 282.720,18.000 283.600 C 18.290 284.480,18.672 285.200,18.848 285.200 C 19.024 285.200,19.384 285.920,19.647 286.800 C 19.911 287.680,20.264 288.400,20.431 288.400 C 20.599 288.400,21.031 289.289,21.392 290.375 C 21.752 291.461,22.172 292.406,22.324 292.475 C 22.476 292.544,23.213 293.770,23.962 295.200 C 24.712 296.630,25.432 297.890,25.562 298.000 C 25.693 298.110,26.198 299.010,26.684 300.000 C 27.961 302.601,28.928 304.154,29.500 304.520 C 29.775 304.696,30.000 305.064,30.000 305.339 C 30.000 305.613,30.272 306.189,30.605 306.619 C 30.938 307.048,32.333 309.087,33.705 311.149 C 35.077 313.212,36.560 315.391,37.000 315.993 C 37.440 316.595,38.160 317.605,38.600 318.237 C 39.040 318.869,39.670 319.683,40.000 320.046 C 40.330 320.408,40.960 321.181,41.400 321.763 C 41.840 322.344,42.380 323.041,42.600 323.311 C 42.820 323.580,43.720 324.699,44.600 325.796 C 45.480 326.893,46.470 328.089,46.800 328.453 C 47.130 328.818,48.120 329.968,49.000 331.009 C 50.742 333.071,63.984 346.338,67.082 349.126 C 69.057 350.903,70.007 351.695,72.368 353.535 C 73.120 354.121,74.015 354.915,74.357 355.300 C 74.698 355.685,75.201 356.000,75.475 356.000 C 75.748 356.000,76.165 356.360,76.400 356.800 C 76.635 357.240,77.082 357.600,77.391 357.600 C 77.701 357.600,78.190 357.931,78.477 358.337 C 78.765 358.742,79.419 359.296,79.932 359.568 C 80.805 360.031,81.206 360.333,83.295 362.100 C 83.750 362.485,84.262 362.800,84.433 362.800 C 84.603 362.800,84.981 363.032,85.271 363.314 C 86.091 364.112,89.597 366.400,90.000 366.400 C 90.198 366.400,90.504 366.625,90.680 366.901 C 90.856 367.176,91.540 367.671,92.200 368.000 C 92.860 368.329,93.490 368.709,93.600 368.844 C 93.710 368.978,94.430 369.409,95.200 369.800 C 95.970 370.191,96.690 370.639,96.800 370.794 C 96.995 371.069,97.930 371.604,100.800 373.080 C 101.570 373.476,102.290 373.906,102.400 374.036 C 102.510 374.165,103.365 374.605,104.300 375.013 C 105.235 375.420,106.000 375.871,106.000 376.013 C 106.000 376.155,106.720 376.510,107.600 376.800 C 108.480 377.090,109.200 377.450,109.200 377.600 C 109.200 377.750,109.920 378.110,110.800 378.400 C 111.680 378.690,112.400 379.065,112.400 379.233 C 112.400 379.401,113.075 379.753,113.900 380.017 C 114.725 380.280,116.840 381.180,118.600 382.016 C 120.360 382.853,122.338 383.672,122.996 383.836 C 123.654 384.001,124.398 384.341,124.650 384.592 C 124.901 384.844,126.118 385.292,127.354 385.589 C 128.589 385.885,129.600 386.261,129.600 386.424 C 129.600 386.587,130.501 386.936,131.601 387.200 C 132.702 387.464,133.691 387.824,133.800 388.000 C 133.909 388.176,134.943 388.541,136.099 388.812 C 137.254 389.083,138.380 389.438,138.600 389.600 C 138.820 389.762,139.990 390.122,141.200 390.400 C 142.410 390.678,143.580 391.040,143.800 391.205 C 144.020 391.371,145.730 391.825,147.600 392.215 C 149.470 392.605,151.180 393.060,151.400 393.227 C 151.620 393.393,153.330 393.759,155.200 394.039 C 157.070 394.319,158.690 394.672,158.800 394.823 C 158.910 394.973,160.620 395.311,162.600 395.573 C 164.580 395.835,166.560 396.211,167.000 396.408 C 167.959 396.838,179.264 398.002,182.467 398.001 C 183.729 398.000,184.797 398.191,184.877 398.430 C 185.059 398.977,214.402 399.033,214.759 398.487 C 214.892 398.285,216.980 397.996,219.400 397.846 C 225.449 397.470,231.240 396.818,232.200 396.405 C 232.640 396.215,234.755 395.843,236.900 395.578 C 239.045 395.314,240.800 394.980,240.800 394.837 C 240.800 394.694,242.283 394.343,244.095 394.058 C 245.907 393.773,247.482 393.399,247.595 393.227 C 247.708 393.054,249.400 392.619,251.356 392.259 C 253.312 391.899,255.112 391.444,255.356 391.248 C 255.600 391.051,256.536 390.769,257.436 390.621 C 258.336 390.473,259.525 390.116,260.078 389.829 C 260.631 389.542,262.010 389.085,263.142 388.814 C 264.274 388.542,265.200 388.178,265.200 388.005 C 265.200 387.831,265.875 387.563,266.700 387.408 C 267.525 387.254,268.920 386.809,269.800 386.419 C 270.680 386.030,272.255 385.467,273.300 385.168 C 274.345 384.870,275.200 384.508,275.200 384.365 C 275.200 384.221,276.010 383.877,277.000 383.600 C 277.990 383.323,278.800 382.963,278.800 382.800 C 278.800 382.637,279.610 382.277,280.600 382.000 C 281.590 381.723,282.400 381.339,282.400 381.148 C 282.400 380.957,282.635 380.800,282.923 380.800 C 283.211 380.800,284.696 380.171,286.223 379.401 C 287.750 378.632,289.225 378.002,289.500 378.001 C 289.775 378.001,290.000 377.834,290.000 377.631 C 290.000 377.428,290.630 377.054,291.400 376.800 C 292.170 376.546,292.800 376.200,292.800 376.032 C 292.800 375.864,293.499 375.517,294.353 375.261 C 295.206 375.006,296.121 374.536,296.385 374.219 C 296.648 373.901,297.480 373.438,298.232 373.189 C 298.984 372.941,299.600 372.606,299.600 372.444 C 299.600 372.282,300.230 371.902,301.000 371.600 C 301.770 371.298,302.400 370.932,302.400 370.786 C 302.400 370.641,303.120 370.197,304.000 369.800 C 304.880 369.403,305.600 368.943,305.600 368.778 C 305.600 368.613,306.140 368.290,306.800 368.060 C 307.460 367.830,308.000 367.452,308.000 367.221 C 308.000 366.989,308.208 366.800,308.462 366.800 C 308.716 366.800,309.481 366.382,310.162 365.871 C 310.843 365.359,311.670 364.816,312.000 364.664 C 312.330 364.511,313.320 363.844,314.200 363.181 C 315.080 362.518,316.250 361.670,316.800 361.297 C 317.350 360.924,317.944 360.390,318.120 360.110 C 318.296 359.829,318.694 359.600,319.006 359.600 C 319.317 359.600,319.765 359.240,320.000 358.800 C 320.235 358.360,320.621 358.000,320.856 358.000 C 321.092 358.000,321.850 357.536,322.542 356.968 C 323.234 356.401,324.300 355.546,324.911 355.068 C 325.522 354.591,326.752 353.525,327.644 352.700 C 328.536 351.875,329.393 351.200,329.549 351.200 C 329.705 351.200,330.495 350.480,331.304 349.600 C 332.113 348.720,332.929 348.000,333.117 348.000 C 333.508 348.000,346.419 335.258,348.136 333.177 C 349.942 330.989,352.504 327.985,353.711 326.639 C 355.990 324.099,358.400 321.017,358.400 320.642 C 358.400 320.509,358.715 320.061,359.100 319.648 C 359.485 319.234,360.160 318.419,360.600 317.837 C 361.040 317.256,361.581 316.559,361.802 316.290 C 362.023 316.020,362.923 314.721,363.802 313.403 C 364.681 312.084,365.625 310.766,365.900 310.474 C 366.175 310.182,366.400 309.789,366.400 309.600 C 366.400 309.411,366.631 309.019,366.914 308.729 C 367.196 308.438,367.959 307.300,368.608 306.200 C 369.258 305.100,370.010 303.840,370.278 303.400 C 370.547 302.960,371.090 301.970,371.484 301.200 C 371.878 300.430,372.425 299.656,372.700 299.480 C 372.975 299.304,373.200 298.912,373.200 298.609 C 373.200 298.305,373.437 297.819,373.728 297.529 C 374.018 297.238,374.592 296.235,375.005 295.300 C 375.417 294.365,375.871 293.600,376.013 293.600 C 376.155 293.600,376.510 292.880,376.800 292.000 C 377.090 291.120,377.450 290.400,377.600 290.400 C 377.750 290.400,378.110 289.680,378.400 288.800 C 378.690 287.920,379.044 287.200,379.185 287.200 C 379.326 287.200,379.766 286.300,380.161 285.200 C 380.557 284.100,381.023 283.200,381.197 283.200 C 381.371 283.200,381.636 282.711,381.786 282.113 C 381.936 281.515,382.496 280.103,383.029 278.974 C 383.563 277.846,384.000 276.625,384.000 276.261 C 384.000 275.898,384.158 275.600,384.350 275.600 C 384.543 275.600,385.036 274.430,385.445 273.000 C 385.855 271.570,386.311 270.400,386.458 270.400 C 386.605 270.400,386.957 269.500,387.239 268.400 C 387.521 267.300,387.873 266.400,388.021 266.400 C 388.169 266.400,388.520 265.320,388.800 264.000 C 389.080 262.680,389.445 261.600,389.611 261.600 C 389.777 261.600,390.146 260.430,390.430 259.000 C 390.714 257.570,391.071 256.400,391.222 256.400 C 391.374 256.400,391.824 254.825,392.222 252.900 C 392.621 250.975,393.071 249.310,393.223 249.200 C 393.375 249.090,393.730 247.650,394.013 246.000 C 394.296 244.350,394.663 242.820,394.828 242.600 C 394.994 242.380,395.337 240.670,395.592 238.800 C 395.847 236.930,396.213 235.040,396.405 234.600 C 396.787 233.729,397.408 228.963,397.838 223.600 C 397.988 221.730,398.311 220.072,398.556 219.915 C 399.186 219.510,399.184 179.554,398.553 178.762 C 398.307 178.453,397.989 176.760,397.845 175.000 C 397.385 169.346,396.684 164.000,396.403 164.000 C 396.252 164.000,395.900 162.200,395.620 160.000 C 395.339 157.800,394.985 156.000,394.833 156.000 C 394.681 156.000,394.323 154.605,394.038 152.900 C 393.754 151.195,393.385 149.620,393.218 149.400 C 393.051 149.180,392.591 147.425,392.195 145.500 C 391.799 143.575,391.339 142.000,391.173 142.000 C 391.006 142.000,390.746 141.235,390.594 140.300 C 390.442 139.365,390.074 138.060,389.776 137.400 C 389.478 136.740,389.026 135.345,388.770 134.300 C 388.514 133.255,388.159 132.400,387.981 132.400 C 387.803 132.400,387.436 131.410,387.165 130.200 C 386.894 128.990,386.536 128.000,386.368 128.000 C 386.201 128.000,385.936 127.415,385.780 126.700 C 385.623 125.985,384.979 124.270,384.348 122.890 C 383.717 121.509,383.200 120.114,383.200 119.790 C 383.200 119.465,383.048 119.200,382.863 119.200 C 382.678 119.200,382.311 118.480,382.047 117.600 C 381.784 116.720,381.395 116.000,381.184 116.000 C 380.973 116.000,380.801 115.685,380.801 115.300 C 380.803 114.381,376.417 105.600,375.956 105.600 C 375.760 105.600,375.599 105.375,375.598 105.100 C 375.596 104.559,372.892 99.129,372.461 98.800 C 372.317 98.690,371.929 98.060,371.600 97.400 C 371.271 96.740,370.902 96.110,370.781 96.000 C 370.468 95.715,368.256 91.936,367.913 91.100 C 367.755 90.715,367.440 90.400,367.213 90.400 C 366.986 90.400,366.800 90.210,366.800 89.979 C 366.800 89.620,365.065 86.988,361.427 81.828 C 360.635 80.705,359.842 79.740,358.581 78.366 C 358.262 78.018,358.000 77.574,358.000 77.381 C 358.000 77.187,357.637 76.662,357.193 76.214 C 356.749 75.766,355.444 74.225,354.293 72.790 C 351.154 68.875,351.185 68.911,348.500 66.109 C 347.125 64.674,346.000 63.374,346.000 63.221 C 346.000 62.712,332.742 50.037,329.243 47.200 C 328.293 46.430,326.860 45.216,326.058 44.502 C 325.256 43.788,324.375 43.203,324.100 43.202 C 323.825 43.201,323.600 43.044,323.600 42.853 C 323.600 42.403,316.279 36.800,315.690 36.800 C 315.442 36.800,315.096 36.575,314.920 36.300 C 314.488 35.625,310.979 33.200,310.435 33.200 C 310.196 33.200,310.000 33.016,310.000 32.790 C 310.000 32.565,309.595 32.220,309.100 32.025 C 308.605 31.829,307.580 31.204,306.822 30.635 C 306.065 30.066,305.210 29.600,304.922 29.600 C 304.635 29.600,304.400 29.422,304.400 29.205 C 304.400 28.988,303.815 28.532,303.100 28.191 C 302.385 27.851,301.080 27.132,300.200 26.594 C 299.320 26.057,297.970 25.298,297.200 24.908 C 296.430 24.519,295.710 24.110,295.600 24.000 C 295.490 23.890,293.960 23.080,292.200 22.200 C 290.440 21.320,288.910 20.500,288.800 20.377 C 288.690 20.255,287.970 19.905,287.200 19.600 C 286.430 19.295,285.710 18.938,285.600 18.806 C 285.490 18.674,284.635 18.320,283.700 18.019 C 282.765 17.718,282.000 17.341,282.000 17.180 C 282.000 17.020,281.190 16.649,280.200 16.357 C 279.210 16.065,278.400 15.704,278.400 15.556 C 278.400 15.408,277.320 14.963,276.000 14.568 C 274.680 14.172,273.600 13.725,273.600 13.574 C 273.600 13.423,273.060 13.192,272.400 13.060 C 271.740 12.928,270.400 12.456,269.422 12.010 C 268.444 11.565,267.444 11.200,267.200 11.200 C 266.956 11.200,266.001 10.860,265.078 10.444 C 264.155 10.028,262.320 9.454,261.000 9.169 C 259.680 8.883,258.510 8.540,258.400 8.405 C 258.108 8.048,255.048 7.200,254.054 7.200 C 253.584 7.200,253.200 7.053,253.200 6.873 C 253.200 6.694,251.985 6.310,250.500 6.021 C 249.015 5.732,247.620 5.356,247.400 5.186 C 247.180 5.015,244.930 4.552,242.400 4.156 C 239.870 3.761,237.710 3.312,237.600 3.160 C 237.490 3.007,235.600 2.670,233.400 2.412 C 231.200 2.154,229.040 1.780,228.600 1.580 C 226.133 0.458,193.468 -0.503,183.800 0.261 M188.400 9.457 C 188.400 9.681,183.945 16.761,177.929 26.096 C 161.041 52.302,156.824 61.654,155.766 75.251 C 154.453 92.126,165.213 110.041,180.758 116.862 C 182.211 117.500,183.700 118.189,184.066 118.393 C 188.848 121.060,203.931 121.962,210.348 119.965 C 237.934 111.380,250.030 87.215,240.365 60.000 C 237.998 53.336,233.036 44.307,223.879 30.000 C 221.696 26.590,219.256 22.757,218.455 21.482 C 217.655 20.207,215.605 17.014,213.900 14.385 C 212.195 11.756,210.800 9.514,210.800 9.403 C 210.800 8.003,236.405 11.852,247.800 14.965 C 355.038 44.262,414.261 154.173,379.616 259.600 C 377.389 266.376,375.681 270.651,371.865 279.000 C 345.387 336.922,288.545 379.162,226.000 387.395 C 223.470 387.728,219.960 388.225,218.200 388.500 C 213.765 389.193,185.518 389.186,180.600 388.491 C 178.620 388.212,175.020 387.719,172.600 387.396 C 161.154 385.870,150.572 383.383,139.000 379.500 C 133.346 377.603,131.613 376.968,128.400 375.613 C 126.750 374.918,124.749 374.107,123.953 373.811 C 123.157 373.515,122.167 373.086,121.753 372.859 C 121.339 372.631,118.570 371.272,115.600 369.839 C 102.822 363.673,86.436 353.009,76.819 344.600 C 51.172 322.174,34.302 298.703,22.196 268.600 C 18.292 258.891,13.194 240.954,12.192 233.400 C 12.046 232.300,11.773 230.770,11.584 230.000 C 7.631 213.854,8.731 179.626,13.950 156.400 C 28.348 92.324,76.923 39.166,140.061 18.393 C 147.329 16.002,159.551 12.796,163.600 12.219 C 164.590 12.078,166.295 11.764,167.389 11.520 C 172.898 10.294,188.400 8.772,188.400 9.457 M204.749 23.595 C 207.653 29.355,210.815 34.599,216.810 43.600 C 229.173 62.162,231.633 67.965,231.633 78.561 C 231.633 114.513,177.451 120.730,168.589 85.795 C 165.520 73.697,168.359 64.939,182.009 44.400 C 190.046 32.307,194.699 24.030,198.975 14.220 L 199.663 12.640 201.038 15.801 C 201.794 17.539,203.464 21.047,204.749 23.595 M152.000 33.195 C 150.790 33.597,148.090 34.474,146.000 35.143 C 142.678 36.208,137.101 38.284,131.200 40.654 C 92.517 56.190,55.341 94.252,39.831 134.200 C 39.233 135.740,38.502 137.540,38.207 138.200 C 33.876 147.871,28.871 170.416,27.596 186.000 C 25.661 209.633,30.679 243.800,38.620 261.060 C 38.939 261.754,39.200 262.439,39.200 262.582 C 39.200 262.726,39.539 263.599,39.953 264.522 C 40.367 265.445,41.288 267.550,42.000 269.200 C 44.387 274.736,49.585 284.745,52.178 288.800 C 67.352 312.532,84.238 329.909,105.656 343.833 C 110.054 346.692,110.941 347.233,115.000 349.534 C 117.708 351.069,129.060 356.800,129.392 356.800 C 129.511 356.800,130.372 357.151,131.304 357.580 C 135.438 359.481,145.825 363.258,151.000 364.742 C 159.075 367.057,162.992 367.954,170.600 369.230 C 178.859 370.616,179.950 370.746,187.367 371.236 C 250.461 375.400,310.459 345.655,343.963 293.600 C 345.592 291.070,347.236 288.540,347.617 287.977 C 348.605 286.518,353.655 277.083,355.097 274.000 C 357.851 268.114,358.424 266.798,360.146 262.400 C 370.281 236.513,374.032 209.107,371.228 181.412 C 370.739 176.579,370.274 172.520,370.196 172.393 C 370.117 172.266,369.764 170.460,369.412 168.381 C 367.370 156.339,363.604 143.958,357.675 129.800 C 341.616 91.450,305.579 55.847,267.000 40.216 C 265.020 39.414,262.854 38.508,262.187 38.202 C 260.821 37.575,247.249 33.064,245.400 32.622 L 244.200 32.335 245.056 33.267 C 246.710 35.069,251.434 42.644,253.497 46.800 C 272.969 86.042,253.707 128.502,212.077 138.101 C 206.809 139.315,192.740 139.419,188.000 138.278 C 174.212 134.958,165.429 130.219,156.366 121.206 C 134.090 99.054,132.069 65.884,151.280 37.715 C 154.223 33.400,154.834 32.395,154.494 32.432 C 154.332 32.449,153.210 32.792,152.000 33.195 M95.783 149.176 C 99.772 151.139,102.453 154.481,103.456 158.741 C 104.215 161.966,104.225 309.940,103.466 314.260 C 101.810 323.692,95.285 323.989,87.819 314.971 C 69.844 293.262,59.457 268.058,57.003 240.200 C 56.122 230.198,56.115 161.662,56.995 158.284 C 58.160 153.809,61.992 149.648,66.048 148.451 C 69.253 147.505,93.594 148.099,95.783 149.176 M134.800 161.213 C 134.800 173.067,134.748 174.041,134.100 174.238 C 129.294 175.700,129.600 173.239,129.600 210.400 C 129.600 247.570,129.291 245.095,134.109 246.566 C 135.258 246.916,134.988 341.417,133.832 343.747 C 132.815 345.797,131.108 346.797,128.625 346.799 C 124.529 346.802,110.180 337.331,100.524 328.250 C 97.265 325.186,97.128 324.911,98.700 324.591 C 102.134 323.892,104.443 321.813,106.090 317.939 L 107.000 315.800 107.200 281.225 L 107.400 246.651 108.600 246.321 C 110.017 245.931,110.790 245.358,111.718 244.011 C 112.347 243.099,112.400 240.476,112.400 210.325 L 112.400 177.628 111.159 176.215 C 110.477 175.438,109.352 174.655,108.659 174.476 L 107.400 174.149 107.294 161.275 L 107.189 148.400 120.994 148.400 L 134.800 148.400 134.800 161.213 M165.600 161.213 C 165.600 173.066,165.548 174.041,164.900 174.242 C 163.362 174.719,162.157 175.582,161.300 176.819 L 160.400 178.118 160.400 210.279 C 160.400 245.297,160.300 243.719,162.646 245.565 C 164.048 246.667,166.500 246.668,168.047 245.567 C 170.242 244.003,170.400 243.010,170.400 230.751 L 170.400 219.600 176.800 219.600 L 183.200 219.600 183.200 287.385 C 183.200 354.879,183.196 355.179,182.375 357.375 C 180.876 361.381,177.347 363.423,172.000 363.379 C 163.005 363.305,129.684 351.500,132.959 349.547 C 134.370 348.705,135.888 347.009,136.846 345.200 L 137.800 343.400 138.000 295.025 L 138.200 246.651 139.459 246.324 C 140.152 246.145,141.277 245.362,141.959 244.585 L 143.200 243.172 143.200 210.548 C 143.200 172.895,143.549 175.713,138.700 174.238 C 138.052 174.041,138.000 173.067,138.000 161.213 L 138.000 148.400 151.800 148.400 L 165.600 148.400 165.600 161.213 M235.504 169.500 L 235.400 190.600 229.200 190.600 L 223.000 190.600 222.788 185.200 C 222.566 179.563,222.327 178.684,220.470 176.694 C 217.621 173.640,211.733 174.659,209.986 178.508 C 209.315 179.986,209.216 181.173,209.209 187.891 L 209.200 195.582 216.300 195.691 L 223.400 195.800 223.507 205.300 L 223.614 214.800 216.407 214.800 L 209.200 214.800 209.200 227.915 C 209.200 244.315,209.948 246.371,215.920 246.393 C 221.639 246.415,222.795 243.611,222.798 229.700 L 222.800 219.600 229.200 219.600 L 235.600 219.600 235.600 285.585 L 235.600 351.570 234.738 353.875 C 231.139 363.493,215.667 367.175,187.068 365.219 C 181.160 364.815,181.083 364.783,182.737 363.392 C 183.417 362.819,184.565 361.151,185.287 359.684 L 186.600 357.017 186.800 301.834 L 187.000 246.651 188.200 246.336 C 192.220 245.281,192.057 246.828,191.918 211.200 L 191.800 181.000 190.665 179.069 C 189.369 176.864,186.739 174.995,184.369 174.595 L 182.800 174.330 182.800 161.365 L 182.800 148.400 209.204 148.400 L 235.607 148.400 235.504 169.500 M282.600 149.736 C 286.565 151.988,288.761 154.899,289.791 159.265 C 290.704 163.139,290.678 195.442,289.759 198.138 C 289.159 199.899,286.377 203.200,285.493 203.200 C 285.284 203.200,286.030 204.024,287.151 205.032 C 290.377 207.932,290.400 208.091,290.400 227.313 L 290.400 243.680 291.760 245.040 C 292.508 245.788,293.505 246.400,293.976 246.400 L 294.832 246.400 294.692 286.700 C 294.545 328.874,294.567 328.352,292.765 332.186 C 291.146 335.629,269.713 350.210,270.929 347.041 C 272.153 343.852,272.200 341.296,272.200 278.200 L 272.200 215.000 271.268 213.694 C 268.825 210.269,264.157 210.474,262.243 214.091 C 261.618 215.272,261.562 216.709,261.675 228.800 L 261.800 242.200 262.800 243.539 C 263.882 244.987,265.501 245.988,267.400 246.383 L 268.600 246.633 268.717 293.616 C 268.851 347.597,268.969 345.841,264.880 350.475 C 262.024 353.712,234.800 363.486,234.800 361.274 C 234.800 361.035,235.039 360.696,235.332 360.520 C 236.348 359.908,238.026 356.985,238.811 354.458 C 239.580 351.981,239.600 350.555,239.600 299.158 L 239.600 246.400 240.438 246.400 C 241.690 246.400,243.617 244.858,244.245 243.353 C 244.702 242.259,244.800 236.446,244.800 210.307 C 244.800 174.225,245.027 176.647,241.473 174.858 L 239.600 173.915 239.600 161.144 L 239.600 148.372 260.100 148.486 L 280.600 148.600 282.600 149.736 M335.400 149.666 C 337.808 150.950,340.376 153.549,341.658 156.000 L 342.600 157.800 342.600 174.200 L 342.600 190.600 334.879 190.800 C 330.248 190.920,327.006 190.848,326.779 190.620 C 326.570 190.411,326.400 187.477,326.400 184.100 C 326.400 176.062,325.528 174.397,321.320 174.401 C 316.929 174.406,315.612 177.046,315.633 185.800 C 315.656 195.820,314.943 194.659,329.000 207.560 C 343.558 220.920,342.811 219.726,342.772 229.572 C 342.670 254.676,335.761 278.132,322.046 299.934 C 316.548 308.675,305.449 322.099,299.700 326.963 L 298.800 327.724 298.800 273.862 L 298.800 220.000 305.200 220.000 L 311.600 220.000 311.602 229.900 C 311.605 242.446,312.033 243.976,316.121 246.062 C 322.149 249.137,326.000 245.030,326.000 235.524 C 326.000 227.325,326.546 228.182,314.200 217.011 C 302.101 206.063,301.110 205.067,300.140 202.889 L 299.200 200.777 299.200 180.515 C 299.200 155.444,299.416 154.411,305.474 150.535 C 308.750 148.440,308.749 148.440,321.600 148.523 L 333.400 148.600 335.400 149.666 M265.000 175.154 C 262.052 176.511,260.843 181.877,261.785 189.422 C 262.357 193.999,266.648 196.524,270.400 194.491 C 272.919 193.126,273.242 191.916,273.113 184.325 L 273.000 177.650 271.823 176.423 C 269.906 174.424,267.541 173.984,265.000 175.154 M77.517 175.195 C 75.318 175.858,74.035 177.156,73.392 179.369 C 72.403 182.769,72.685 240.825,73.700 242.679 C 76.348 247.523,83.350 247.613,85.870 242.837 L 86.800 241.074 86.800 210.763 C 86.800 190.362,86.661 180.084,86.375 179.326 C 85.102 175.947,81.144 174.102,77.517 175.195 " stroke="none" fill="#fafafb" fill-rule="evenodd"></path><path id="path1" d="M198.975 14.220 C 194.699 24.030,190.046 32.307,182.009 44.400 C 168.359 64.939,165.520 73.697,168.589 85.795 C 177.448 120.717,231.633 114.500,231.633 78.561 C 231.633 67.965,229.173 62.162,216.810 43.600 C 209.008 31.886,204.831 24.523,201.038 15.801 L 199.663 12.640 198.975 14.220 " stroke="none" fill="#fc4c04" fill-rule="evenodd"></path><path id="path2" d="M182.800 10.038 C 175.596 10.772,168.939 11.659,168.200 11.983 C 167.760 12.176,165.960 12.537,164.200 12.786 C 162.440 13.034,160.640 13.395,160.200 13.587 C 159.760 13.779,157.690 14.246,155.600 14.624 C 153.510 15.002,151.620 15.447,151.400 15.612 C 151.180 15.778,149.920 16.132,148.600 16.400 C 147.280 16.668,146.008 17.042,145.773 17.232 C 145.538 17.422,144.368 17.783,143.173 18.035 C 141.978 18.287,140.817 18.640,140.592 18.819 C 140.368 18.998,138.973 19.449,137.492 19.821 C 136.012 20.193,134.800 20.634,134.800 20.801 C 134.800 20.968,133.947 21.320,132.905 21.582 C 131.863 21.845,130.828 22.202,130.605 22.377 C 130.382 22.553,129.480 22.926,128.600 23.209 C 127.720 23.491,126.640 23.948,126.200 24.226 C 125.760 24.504,124.635 24.955,123.700 25.229 C 122.765 25.503,122.000 25.855,122.000 26.011 C 122.000 26.168,121.190 26.523,120.200 26.800 C 119.210 27.077,118.400 27.453,118.400 27.636 C 118.400 27.819,117.680 28.184,116.800 28.447 C 115.920 28.711,115.200 29.060,115.200 29.223 C 115.200 29.386,114.300 29.843,113.200 30.239 C 112.100 30.634,111.200 31.083,111.200 31.236 C 111.200 31.388,110.525 31.808,109.700 32.169 C 108.875 32.530,107.480 33.263,106.600 33.798 C 105.720 34.333,104.550 35.003,104.000 35.287 C 103.450 35.571,102.460 36.149,101.800 36.572 C 101.140 36.995,99.391 38.120,97.913 39.071 C 96.435 40.022,95.130 40.800,95.013 40.800 C 94.896 40.800,94.468 41.115,94.063 41.500 C 93.657 41.885,92.802 42.510,92.163 42.889 C 90.297 43.993,89.414 44.582,89.200 44.862 C 89.090 45.007,88.010 45.805,86.800 46.636 C 85.590 47.467,84.405 48.339,84.166 48.574 C 83.927 48.808,83.226 49.360,82.606 49.800 C 81.539 50.559,79.926 51.878,78.449 53.200 C 78.080 53.530,77.154 54.319,76.389 54.954 C 69.799 60.425,60.425 69.799,54.954 76.389 C 54.319 77.154,53.572 78.054,53.293 78.389 C 53.014 78.725,52.294 79.561,51.693 80.246 C 51.092 80.932,50.240 81.993,49.800 82.605 C 48.619 84.247,45.723 88.104,45.122 88.835 C 44.835 89.184,44.420 89.744,44.200 90.079 C 43.980 90.414,43.451 91.208,43.025 91.844 C 42.599 92.480,41.383 94.350,40.322 96.000 C 39.262 97.650,38.237 99.195,38.045 99.432 C 37.695 99.865,34.697 105.098,33.638 107.125 C 33.329 107.716,32.965 108.290,32.828 108.400 C 32.472 108.686,26.920 120.022,26.607 121.100 C 26.464 121.595,26.193 122.000,26.005 122.000 C 25.817 122.000,25.536 122.585,25.379 123.300 C 25.223 124.015,24.683 125.503,24.179 126.606 C 23.675 127.710,23.139 129.105,22.988 129.706 C 22.837 130.308,22.582 130.800,22.421 130.800 C 22.260 130.800,21.890 131.790,21.600 133.000 C 21.310 134.210,20.956 135.200,20.813 135.200 C 20.671 135.200,20.226 136.464,19.826 138.008 C 19.425 139.552,18.956 140.903,18.784 141.010 C 18.611 141.117,18.345 141.968,18.193 142.902 C 18.042 143.836,17.682 145.140,17.394 145.800 C 17.106 146.460,16.662 147.990,16.406 149.200 C 16.151 150.410,15.781 151.760,15.584 152.200 C 15.195 153.067,13.960 159.019,12.845 165.400 C 12.461 167.600,12.031 169.670,11.889 170.000 C 11.572 170.741,10.503 181.399,9.964 189.200 C 9.532 195.440,9.842 214.484,10.392 215.552 C 10.575 215.908,10.997 218.900,11.330 222.200 C 11.663 225.500,12.299 230.180,12.744 232.600 C 14.225 240.656,15.222 245.393,15.569 246.024 C 15.757 246.367,16.131 247.717,16.399 249.024 C 16.667 250.331,17.024 251.580,17.191 251.800 C 17.358 252.020,17.722 253.190,18.000 254.400 C 18.278 255.610,18.639 256.780,18.804 257.000 C 18.969 257.220,19.405 258.480,19.774 259.800 C 20.143 261.120,20.704 262.767,21.022 263.460 C 21.340 264.154,21.606 264.964,21.613 265.260 C 21.619 265.557,22.068 266.700,22.609 267.800 C 23.150 268.900,23.594 270.104,23.596 270.476 C 23.598 270.848,23.773 271.260,23.984 271.390 C 24.195 271.521,24.678 272.611,25.057 273.814 C 25.436 275.016,25.893 276.000,26.073 276.000 C 26.253 276.000,26.400 276.189,26.400 276.421 C 26.400 276.652,27.390 278.901,28.600 281.418 C 29.810 283.935,30.800 286.175,30.800 286.397 C 30.800 286.619,30.960 286.800,31.157 286.800 C 31.353 286.800,31.805 287.475,32.163 288.300 C 32.520 289.125,33.350 290.700,34.008 291.800 C 34.665 292.900,35.400 294.295,35.641 294.900 C 35.881 295.505,36.219 296.000,36.391 296.000 C 36.562 296.000,36.939 296.585,37.228 297.300 C 37.517 298.015,37.989 298.744,38.277 298.920 C 38.564 299.096,38.800 299.403,38.800 299.602 C 38.800 299.914,40.142 302.139,41.094 303.407 C 41.262 303.631,42.120 304.890,43.000 306.205 C 45.745 310.309,52.009 318.427,56.400 323.571 C 58.593 326.139,71.991 339.556,74.669 341.864 C 77.195 344.041,79.657 346.100,80.334 346.600 C 80.632 346.820,81.284 347.405,81.784 347.900 C 82.283 348.395,82.817 348.800,82.969 348.800 C 83.203 348.800,85.183 350.250,87.066 351.800 C 87.334 352.020,88.205 352.650,89.004 353.200 C 89.802 353.750,90.964 354.605,91.585 355.100 C 92.207 355.595,92.825 356.000,92.960 356.000 C 93.094 356.000,94.362 356.810,95.779 357.800 C 97.195 358.790,98.535 359.600,98.757 359.600 C 98.979 359.600,99.304 359.836,99.480 360.123 C 99.656 360.411,100.385 360.883,101.100 361.172 C 101.815 361.461,102.400 361.838,102.400 362.009 C 102.400 362.181,102.940 362.510,103.600 362.740 C 104.260 362.970,104.800 363.319,104.800 363.515 C 104.800 363.711,105.523 364.110,106.406 364.402 C 107.289 364.693,108.203 365.163,108.438 365.445 C 108.672 365.728,109.480 366.162,110.232 366.411 C 110.984 366.659,111.600 366.999,111.600 367.167 C 111.600 367.335,112.320 367.710,113.200 368.000 C 114.080 368.290,114.800 368.643,114.800 368.784 C 114.800 368.924,115.475 369.281,116.300 369.576 C 117.125 369.871,117.890 370.224,118.000 370.359 C 118.110 370.495,119.640 371.213,121.400 371.955 C 123.160 372.697,125.237 373.618,126.016 374.002 C 126.795 374.386,128.010 374.826,128.716 374.982 C 129.422 375.137,130.000 375.392,130.000 375.549 C 130.000 375.706,130.847 376.061,131.883 376.338 C 132.919 376.615,134.314 377.087,134.983 377.386 C 135.652 377.686,136.920 378.150,137.800 378.418 C 138.680 378.685,139.580 379.037,139.800 379.200 C 140.020 379.362,141.190 379.727,142.400 380.009 C 143.610 380.292,144.870 380.674,145.200 380.857 C 145.954 381.277,151.254 382.638,155.200 383.426 C 156.850 383.755,158.560 384.190,159.000 384.393 C 159.440 384.596,161.240 384.966,163.000 385.214 C 164.760 385.463,166.560 385.824,167.000 386.016 C 170.484 387.538,195.366 389.066,207.408 388.498 C 216.230 388.081,230.974 386.610,232.006 386.044 C 232.339 385.861,234.229 385.478,236.206 385.193 C 238.183 384.909,239.980 384.545,240.200 384.384 C 240.420 384.224,241.950 383.863,243.600 383.583 C 245.250 383.302,246.780 382.941,247.000 382.780 C 247.220 382.619,248.840 382.172,250.600 381.787 C 252.360 381.401,253.890 380.958,254.000 380.801 C 254.110 380.644,255.190 380.282,256.400 379.996 C 257.610 379.710,258.870 379.327,259.200 379.145 C 259.946 378.732,263.876 377.360,266.800 376.492 C 268.010 376.132,269.090 375.714,269.200 375.563 C 269.310 375.412,270.165 375.060,271.100 374.781 C 272.035 374.502,272.800 374.141,272.800 373.980 C 272.800 373.819,273.295 373.567,273.900 373.421 C 274.505 373.275,275.810 372.742,276.800 372.237 C 277.790 371.732,279.138 371.188,279.796 371.028 C 280.454 370.868,281.084 370.603,281.196 370.439 C 281.308 370.276,282.660 369.538,284.200 368.800 C 285.740 368.062,287.090 367.346,287.200 367.209 C 287.310 367.072,288.750 366.271,290.400 365.427 C 295.718 362.710,296.594 362.209,296.920 361.700 C 297.096 361.425,297.402 361.200,297.600 361.200 C 297.798 361.200,298.760 360.660,299.738 360.000 C 300.716 359.340,301.700 358.800,301.925 358.800 C 302.149 358.800,302.393 358.665,302.467 358.500 C 302.650 358.088,306.341 355.600,306.769 355.600 C 306.959 355.600,307.218 355.330,307.345 355.000 C 307.471 354.670,307.806 354.393,308.087 354.384 C 308.369 354.375,309.223 353.835,309.985 353.184 C 310.747 352.533,311.558 352.000,311.789 352.000 C 312.019 352.000,312.432 351.640,312.707 351.200 C 312.982 350.760,313.385 350.400,313.603 350.400 C 313.822 350.400,314.333 350.085,314.740 349.700 C 315.520 348.962,315.912 348.644,318.801 346.408 C 319.791 345.642,320.835 344.697,321.123 344.308 C 321.410 343.919,321.817 343.600,322.027 343.600 C 322.811 343.600,338.794 327.957,342.200 323.855 C 343.080 322.795,344.475 321.210,345.300 320.333 C 346.125 319.455,346.800 318.640,346.800 318.521 C 346.800 318.273,348.788 315.802,349.988 314.558 C 350.434 314.095,350.800 313.519,350.800 313.278 C 350.800 313.037,351.025 312.696,351.300 312.520 C 351.575 312.344,352.172 311.660,352.627 311.000 C 353.081 310.340,354.476 308.325,355.727 306.521 C 356.977 304.718,358.000 303.068,358.000 302.854 C 358.000 302.641,358.146 302.407,358.324 302.333 C 358.503 302.260,359.356 301.030,360.221 299.600 C 361.085 298.170,361.885 296.910,361.997 296.800 C 362.109 296.690,362.471 296.060,362.800 295.400 C 363.129 294.740,363.505 294.110,363.635 294.000 C 363.764 293.890,364.916 291.820,366.193 289.400 C 367.470 286.980,368.669 284.940,368.857 284.867 C 369.046 284.793,369.200 284.541,369.200 284.305 C 369.200 284.070,369.664 282.870,370.231 281.639 C 370.799 280.407,371.675 278.500,372.178 277.400 C 372.682 276.300,373.465 274.590,373.919 273.600 C 374.373 272.610,374.867 271.305,375.016 270.700 C 375.165 270.095,375.425 269.600,375.593 269.600 C 375.762 269.600,376.016 269.019,376.158 268.310 C 376.300 267.600,376.760 266.295,377.180 265.410 C 377.599 264.524,378.153 262.990,378.411 262.000 C 378.668 261.010,379.020 260.020,379.193 259.800 C 379.366 259.580,379.641 258.770,379.805 258.000 C 379.968 257.230,380.286 256.150,380.512 255.600 C 381.127 254.100,382.766 248.174,383.443 245.000 C 383.772 243.460,384.202 241.840,384.397 241.400 C 384.593 240.960,384.954 239.250,385.200 237.600 C 385.446 235.950,385.805 234.240,385.999 233.800 C 386.192 233.360,386.641 230.480,386.995 227.400 C 387.851 219.971,387.888 219.705,388.136 219.304 C 389.274 217.462,389.153 182.554,387.992 178.000 C 387.796 177.230,387.347 173.990,386.995 170.800 C 386.643 167.610,386.195 164.640,386.001 164.200 C 385.806 163.760,385.446 162.050,385.200 160.400 C 384.954 158.750,384.587 157.040,384.383 156.600 C 384.180 156.160,383.754 154.630,383.437 153.200 C 382.378 148.415,381.176 143.853,380.862 143.425 C 380.690 143.191,380.314 142.032,380.025 140.850 C 379.737 139.667,379.254 138.227,378.953 137.650 C 378.651 137.072,378.404 136.365,378.402 136.078 C 378.401 135.791,378.065 134.801,377.656 133.878 C 377.246 132.955,376.667 131.345,376.368 130.300 C 376.070 129.255,375.699 128.400,375.544 128.400 C 375.390 128.400,375.137 127.815,374.982 127.100 C 374.827 126.385,374.375 125.170,373.979 124.400 C 372.541 121.608,370.800 117.691,370.800 117.251 C 370.800 117.003,370.620 116.800,370.400 116.800 C 370.180 116.800,370.000 116.597,370.000 116.349 C 370.000 115.646,364.565 105.176,363.142 103.138 C 362.734 102.554,362.400 101.962,362.400 101.821 C 362.400 101.681,362.217 101.349,361.993 101.083 C 361.207 100.151,359.214 96.997,359.207 96.673 C 359.203 96.494,358.750 95.757,358.200 95.036 C 357.650 94.314,357.200 93.516,357.200 93.262 C 357.200 93.008,357.058 92.800,356.885 92.800 C 356.587 92.800,353.600 88.612,353.600 88.195 C 353.600 88.088,353.285 87.661,352.900 87.248 C 352.515 86.834,351.840 86.012,351.400 85.422 C 350.960 84.832,350.299 84.014,349.930 83.605 C 349.562 83.195,349.038 82.442,348.767 81.930 C 348.495 81.419,347.942 80.765,347.537 80.477 C 347.131 80.190,346.800 79.793,346.800 79.596 C 346.800 79.398,346.395 78.805,345.900 78.277 C 345.405 77.750,344.101 76.257,343.003 74.959 C 340.537 72.046,326.999 58.457,324.000 55.885 C 320.544 52.921,317.045 50.080,315.027 48.600 C 314.427 48.160,312.322 46.585,310.349 45.100 C 308.377 43.615,306.613 42.400,306.431 42.400 C 306.248 42.400,305.888 42.147,305.631 41.837 C 305.374 41.527,304.541 40.979,303.782 40.618 C 303.022 40.257,302.400 39.791,302.400 39.581 C 302.400 39.372,302.207 39.200,301.972 39.200 C 301.737 39.200,300.759 38.660,299.800 38.000 C 298.841 37.340,297.878 36.800,297.661 36.800 C 297.444 36.800,297.207 36.661,297.133 36.490 C 297.060 36.320,295.290 35.234,293.200 34.077 C 291.110 32.920,289.130 31.811,288.800 31.613 C 287.522 30.845,279.353 26.888,278.500 26.624 C 278.005 26.471,277.600 26.198,277.600 26.016 C 277.600 25.835,277.105 25.567,276.500 25.420 C 275.895 25.273,274.680 24.830,273.800 24.435 C 271.485 23.397,267.163 21.704,266.000 21.380 C 265.450 21.227,264.820 20.961,264.600 20.789 C 264.380 20.617,263.120 20.167,261.800 19.790 C 260.480 19.412,259.220 18.969,259.000 18.804 C 258.780 18.639,257.610 18.278,256.400 18.000 C 255.190 17.722,254.020 17.358,253.800 17.191 C 253.580 17.024,252.320 16.666,251.000 16.397 C 249.680 16.127,248.510 15.791,248.400 15.649 C 248.169 15.351,241.612 13.901,235.800 12.863 C 233.600 12.470,231.530 12.035,231.200 11.895 C 230.095 11.428,211.983 9.484,211.668 9.799 C 211.586 9.880,211.898 10.353,212.360 10.849 C 212.822 11.345,213.200 11.987,213.200 12.275 C 213.200 12.564,213.339 12.800,213.509 12.800 C 213.679 12.800,214.172 13.475,214.605 14.300 C 215.038 15.125,215.502 15.890,215.636 16.000 C 215.770 16.110,216.112 16.639,216.394 17.175 C 216.677 17.711,217.069 18.341,217.265 18.575 C 217.461 18.809,218.185 19.900,218.874 21.000 C 219.563 22.100,221.237 24.710,222.592 26.800 C 226.321 32.547,227.200 33.961,227.200 34.208 C 227.200 34.332,227.388 34.651,227.617 34.917 C 227.847 35.183,228.649 36.390,229.400 37.600 C 230.151 38.810,230.931 39.994,231.134 40.231 C 231.336 40.468,231.626 41.052,231.777 41.528 C 231.929 42.005,232.280 42.623,232.558 42.901 C 233.165 43.508,233.656 44.393,235.966 49.044 C 236.938 51.000,237.883 52.660,238.066 52.733 C 238.250 52.807,238.400 53.065,238.400 53.307 C 238.400 53.549,238.751 54.479,239.180 55.374 C 240.464 58.051,242.281 63.277,242.596 65.200 C 242.758 66.190,243.038 67.184,243.219 67.409 C 244.458 68.953,244.456 85.607,243.217 87.921 C 243.017 88.294,242.649 89.493,242.399 90.585 C 242.150 91.677,241.508 93.527,240.973 94.697 C 240.438 95.867,240.000 96.998,240.000 97.212 C 240.000 97.425,239.820 97.600,239.600 97.600 C 239.380 97.600,239.197 97.825,239.193 98.100 C 239.185 98.649,237.183 101.827,236.212 102.834 C 235.875 103.182,235.600 103.664,235.600 103.906 C 235.600 104.704,228.219 111.769,225.586 113.492 C 224.164 114.422,222.820 115.331,222.600 115.512 C 222.380 115.692,220.940 116.428,219.400 117.147 C 217.860 117.866,216.240 118.654,215.800 118.898 C 215.004 119.339,210.819 120.465,207.000 121.265 C 204.523 121.784,191.092 121.527,190.338 120.947 C 190.042 120.719,188.751 120.306,187.469 120.031 C 184.802 119.457,178.367 116.769,176.615 115.499 C 176.387 115.333,175.300 114.594,174.200 113.857 C 169.559 110.748,162.400 103.357,162.400 101.675 C 162.400 101.414,162.236 101.200,162.035 101.200 C 161.630 101.200,158.800 95.685,158.800 94.896 C 158.800 94.623,158.620 94.400,158.400 94.400 C 158.180 94.400,158.000 94.232,158.000 94.026 C 158.000 93.820,157.791 93.145,157.535 92.526 C 157.280 91.907,157.106 91.246,157.149 91.058 C 157.193 90.870,157.063 90.510,156.861 90.258 C 156.482 89.786,155.861 86.382,155.225 81.282 C 154.777 77.691,155.652 68.629,156.814 64.833 C 157.246 63.421,157.601 62.071,157.602 61.833 C 157.604 61.595,157.854 60.922,158.159 60.339 C 158.463 59.755,158.940 58.585,159.218 57.739 C 159.496 56.892,160.035 55.570,160.416 54.800 C 162.514 50.562,163.411 48.817,164.354 47.141 C 167.242 42.008,168.661 39.632,169.872 37.904 C 170.602 36.861,171.203 35.871,171.207 35.704 C 171.211 35.537,171.754 34.590,172.413 33.600 C 173.072 32.610,173.786 31.530,173.998 31.200 C 174.211 30.870,174.839 29.917,175.393 29.082 C 175.947 28.247,176.400 27.470,176.400 27.356 C 176.400 27.241,176.850 26.557,177.400 25.836 C 177.950 25.114,178.400 24.344,178.400 24.124 C 178.400 23.904,178.760 23.398,179.200 23.000 C 179.640 22.602,180.000 22.112,180.000 21.911 C 180.000 21.711,180.450 20.957,181.000 20.236 C 181.550 19.514,182.000 18.821,182.000 18.694 C 182.000 18.462,185.276 13.381,185.953 12.562 C 186.152 12.322,186.609 11.557,186.968 10.862 C 187.719 9.410,188.144 9.494,182.800 10.038 M155.600 32.429 C 155.600 32.664,155.375 33.085,155.100 33.363 C 152.557 35.933,144.642 49.725,143.832 52.996 C 143.670 53.654,143.413 54.284,143.262 54.396 C 142.525 54.943,139.975 64.978,139.144 70.600 C 138.641 74.004,138.901 87.349,139.484 88.080 C 139.712 88.366,140.018 89.500,140.163 90.600 C 140.427 92.606,142.788 100.425,143.242 100.800 C 143.375 100.910,143.716 101.720,144.000 102.600 C 144.284 103.480,144.625 104.290,144.758 104.400 C 144.891 104.510,145.705 105.950,146.568 107.600 C 147.430 109.250,148.240 110.690,148.368 110.800 C 148.495 110.910,149.230 111.917,150.000 113.037 C 153.813 118.586,162.841 127.261,166.100 128.507 C 166.485 128.654,166.800 128.941,166.800 129.144 C 166.800 129.347,167.237 129.623,167.772 129.757 C 168.307 129.891,168.982 130.234,169.272 130.518 C 169.753 130.989,172.842 132.547,176.400 134.114 C 177.170 134.453,178.520 134.939,179.400 135.193 C 180.280 135.448,181.360 135.828,181.800 136.039 C 185.408 137.767,197.618 139.094,204.300 138.485 C 209.086 138.049,217.072 136.590,217.799 136.018 C 218.020 135.845,219.145 135.466,220.300 135.176 C 221.455 134.886,222.400 134.526,222.400 134.376 C 222.400 134.227,223.215 133.876,224.210 133.597 C 225.206 133.318,226.113 132.940,226.227 132.757 C 226.340 132.573,227.191 132.062,228.117 131.621 C 229.042 131.181,230.149 130.590,230.577 130.310 C 231.004 130.029,232.297 129.217,233.451 128.504 C 237.651 125.909,243.302 120.707,247.249 115.800 C 248.311 114.480,249.454 113.085,249.790 112.700 C 250.125 112.315,250.400 111.922,250.400 111.827 C 250.400 111.492,253.003 107.399,253.300 107.267 C 253.465 107.193,253.600 106.953,253.600 106.732 C 253.600 106.512,254.161 105.132,254.846 103.666 C 256.869 99.338,257.134 98.689,257.649 96.800 C 257.919 95.810,258.272 94.820,258.433 94.600 C 260.155 92.251,261.183 76.203,260.047 69.400 C 258.927 62.697,258.655 61.412,258.145 60.435 C 257.848 59.866,257.598 59.040,257.589 58.600 C 257.580 58.160,257.225 57.080,256.800 56.200 C 256.375 55.320,256.021 54.420,256.015 54.200 C 255.999 53.710,253.495 47.879,253.180 47.600 C 253.056 47.490,252.705 46.770,252.400 46.000 C 252.095 45.230,251.745 44.510,251.621 44.400 C 251.220 44.041,248.800 39.955,248.800 39.636 C 248.800 39.464,248.350 38.801,247.800 38.162 C 247.251 37.523,246.801 36.775,246.800 36.500 C 246.800 36.225,246.644 36.000,246.454 36.000 C 246.013 36.000,244.000 33.112,244.000 32.478 C 244.000 31.774,245.526 31.894,248.104 32.800 C 249.356 33.240,250.610 33.601,250.890 33.602 C 251.171 33.604,251.869 33.850,252.442 34.149 C 253.015 34.448,254.411 34.915,255.543 35.186 C 256.676 35.458,257.703 35.842,257.825 36.040 C 257.947 36.238,258.310 36.400,258.632 36.400 C 259.298 36.400,266.390 39.110,267.000 39.598 C 267.220 39.774,268.165 40.144,269.100 40.422 C 270.035 40.700,270.800 41.050,270.800 41.200 C 270.800 41.350,271.520 41.689,272.400 41.953 C 273.280 42.216,274.000 42.605,274.000 42.816 C 274.000 43.027,274.246 43.200,274.548 43.200 C 275.549 43.200,289.539 50.703,290.729 51.878 C 291.019 52.165,291.411 52.400,291.600 52.400 C 291.789 52.400,292.181 52.625,292.471 52.901 C 292.762 53.176,293.675 53.757,294.500 54.192 C 295.325 54.626,296.000 55.121,296.000 55.291 C 296.000 55.461,296.172 55.600,296.382 55.600 C 296.757 55.600,301.530 58.950,302.900 60.174 C 303.285 60.518,303.701 60.800,303.823 60.800 C 304.044 60.800,306.706 62.829,308.023 64.000 C 308.394 64.330,309.474 65.230,310.422 66.000 C 317.141 71.454,325.913 80.198,332.400 87.907 C 333.170 88.822,334.295 90.149,334.900 90.857 C 335.505 91.565,336.000 92.338,336.000 92.576 C 336.000 92.813,336.360 93.232,336.800 93.507 C 337.240 93.782,337.600 94.185,337.600 94.403 C 337.600 94.622,337.915 95.147,338.300 95.571 C 340.160 97.620,342.800 101.362,342.800 101.948 C 342.800 102.149,343.070 102.418,343.400 102.545 C 343.730 102.671,344.000 102.973,344.000 103.214 C 344.000 103.456,344.405 104.226,344.901 104.927 C 345.891 106.326,346.383 107.101,347.611 109.200 C 348.061 109.970,348.857 111.320,349.379 112.200 C 351.334 115.496,353.693 120.056,357.440 127.779 C 357.968 128.867,358.400 130.082,358.400 130.479 C 358.400 130.875,358.577 131.200,358.794 131.200 C 359.011 131.200,359.392 132.010,359.642 133.000 C 359.891 133.990,360.231 134.800,360.397 134.800 C 360.564 134.800,360.808 135.340,360.940 136.000 C 361.072 136.660,361.523 137.965,361.942 138.900 C 362.362 139.835,362.830 141.050,362.984 141.600 C 363.138 142.150,363.505 143.140,363.799 143.800 C 364.093 144.460,364.565 146.125,364.847 147.500 C 365.129 148.875,365.481 150.000,365.628 150.000 C 365.775 150.000,366.116 151.125,366.386 152.500 C 366.655 153.875,367.017 155.180,367.191 155.400 C 367.365 155.620,367.736 157.150,368.016 158.800 C 368.297 160.450,368.687 162.121,368.885 162.514 C 369.198 163.138,369.773 166.417,371.215 175.800 C 372.390 183.443,373.095 206.580,372.299 211.400 C 372.154 212.280,371.824 215.659,371.565 218.909 C 371.307 222.159,370.939 224.914,370.748 225.032 C 370.556 225.151,370.394 225.822,370.386 226.524 C 370.362 228.658,367.909 241.175,367.236 242.600 C 367.028 243.040,366.652 244.390,366.400 245.600 C 366.148 246.810,365.790 248.160,365.603 248.600 C 365.417 249.040,364.592 251.560,363.770 254.200 C 362.949 256.840,362.148 259.180,361.990 259.400 C 361.833 259.620,361.477 260.520,361.200 261.400 C 360.923 262.280,360.558 263.180,360.389 263.400 C 360.221 263.620,359.856 264.565,359.578 265.500 C 359.300 266.435,358.941 267.200,358.780 267.200 C 358.619 267.200,358.366 267.695,358.217 268.300 C 358.069 268.905,357.420 270.525,356.774 271.901 C 356.128 273.277,355.600 274.582,355.600 274.801 C 355.600 275.020,355.449 275.200,355.264 275.200 C 355.079 275.200,354.690 275.920,354.400 276.800 C 354.110 277.680,353.733 278.400,353.563 278.400 C 353.393 278.400,353.132 278.805,352.983 279.300 C 352.712 280.197,348.856 287.220,348.425 287.600 C 348.301 287.710,347.929 288.337,347.599 288.994 C 347.270 289.651,346.231 291.361,345.292 292.794 C 344.352 294.227,343.362 295.738,343.092 296.152 C 342.530 297.011,338.384 302.796,337.897 303.400 C 337.720 303.620,336.293 305.420,334.727 307.400 C 333.160 309.380,331.555 311.360,331.159 311.800 C 330.764 312.240,329.577 313.583,328.520 314.784 C 325.765 317.918,316.904 326.711,314.166 329.028 C 312.885 330.113,311.526 331.270,311.147 331.600 C 309.494 333.038,308.836 333.566,305.025 336.511 C 302.811 338.222,298.936 341.012,296.413 342.711 C 291.589 345.959,291.427 346.063,288.954 347.508 C 288.099 348.008,286.500 348.944,285.400 349.589 C 284.300 350.233,282.230 351.355,280.800 352.080 C 279.370 352.806,278.110 353.510,278.000 353.644 C 277.890 353.778,277.125 354.129,276.300 354.424 C 275.475 354.719,274.800 355.105,274.800 355.280 C 274.800 355.456,274.612 355.600,274.383 355.600 C 274.154 355.600,272.836 356.129,271.455 356.775 C 270.073 357.420,268.460 358.070,267.871 358.218 C 267.282 358.366,266.800 358.647,266.800 358.843 C 266.800 359.040,266.535 359.200,266.212 359.200 C 265.888 359.200,264.640 359.650,263.437 360.200 C 262.235 360.750,261.015 361.201,260.726 361.202 C 260.437 361.204,259.731 361.450,259.157 361.749 C 257.672 362.524,249.347 365.200,248.421 365.200 C 247.996 365.200,247.552 365.354,247.435 365.543 C 247.319 365.731,246.093 366.118,244.712 366.403 C 243.330 366.687,242.020 367.052,241.800 367.213 C 241.580 367.375,240.050 367.723,238.400 367.986 C 236.750 368.250,235.114 368.614,234.765 368.796 C 234.415 368.977,231.805 369.422,228.965 369.785 C 226.124 370.147,223.260 370.606,222.600 370.804 C 218.537 372.025,186.470 372.338,179.400 371.226 C 178.080 371.018,175.020 370.566,172.600 370.221 C 170.180 369.877,167.390 369.405,166.400 369.173 C 165.410 368.941,163.250 368.496,161.600 368.184 C 159.950 367.872,158.240 367.442,157.800 367.229 C 157.360 367.016,155.920 366.633,154.600 366.377 C 153.280 366.122,152.020 365.779,151.800 365.615 C 151.580 365.451,150.143 365.008,148.608 364.631 C 147.072 364.253,145.632 363.803,145.408 363.630 C 145.183 363.457,144.102 363.096,143.005 362.828 C 141.908 362.560,140.828 362.198,140.605 362.023 C 140.382 361.847,139.480 361.477,138.600 361.200 C 137.720 360.923,136.820 360.557,136.600 360.387 C 136.380 360.217,135.435 359.874,134.500 359.624 C 133.565 359.374,132.800 358.996,132.800 358.785 C 132.800 358.573,132.475 358.400,132.079 358.400 C 131.682 358.400,130.467 357.975,129.379 357.455 C 128.290 356.935,125.600 355.654,123.400 354.608 C 118.044 352.063,107.922 346.322,106.115 344.804 C 105.848 344.580,105.173 344.188,104.615 343.934 C 104.057 343.680,103.600 343.333,103.600 343.163 C 103.600 342.993,103.256 342.745,102.835 342.611 C 102.414 342.478,101.445 341.880,100.680 341.284 C 99.916 340.688,98.890 339.930,98.400 339.600 C 97.910 339.270,96.855 338.502,96.055 337.894 C 95.255 337.285,94.184 336.475,93.675 336.094 C 93.166 335.712,92.440 335.130,92.061 334.800 C 91.683 334.470,90.750 333.727,89.987 333.148 C 89.224 332.569,88.134 331.669,87.565 331.148 C 86.996 330.627,85.292 329.120,83.779 327.800 C 80.390 324.843,73.815 318.243,70.600 314.572 C 69.280 313.065,67.644 311.194,66.964 310.416 C 66.284 309.637,64.168 306.930,62.262 304.400 C 60.357 301.870,58.590 299.552,58.336 299.250 C 57.726 298.522,54.161 293.097,52.400 290.216 C 51.630 288.956,50.633 287.357,50.185 286.663 C 49.737 285.968,49.118 284.770,48.808 284.000 C 48.499 283.230,48.095 282.496,47.910 282.369 C 47.431 282.038,43.200 273.554,43.200 272.924 C 43.200 272.636,43.043 272.400,42.852 272.400 C 42.661 272.400,42.277 271.590,42.000 270.600 C 41.723 269.610,41.346 268.800,41.163 268.800 C 40.981 268.800,40.625 268.035,40.374 267.100 C 40.123 266.165,39.792 265.310,39.639 265.200 C 39.294 264.953,37.771 260.951,36.899 258.000 C 36.541 256.790,36.102 255.740,35.924 255.667 C 35.746 255.593,35.600 255.328,35.600 255.078 C 35.600 254.679,34.379 250.498,32.600 244.800 C 32.290 243.810,31.823 241.830,31.561 240.400 C 31.300 238.970,30.955 237.620,30.796 237.400 C 30.636 237.180,30.289 235.470,30.023 233.600 C 29.758 231.730,29.378 229.840,29.179 229.400 C 28.980 228.960,28.526 226.080,28.170 223.000 C 27.813 219.920,27.344 216.140,27.126 214.600 C 26.615 210.980,26.612 187.050,27.122 183.400 C 27.338 181.860,27.808 178.170,28.167 175.200 C 28.526 172.230,28.977 169.440,29.169 169.000 C 29.361 168.560,29.733 166.672,29.994 164.805 C 30.256 162.937,30.590 161.227,30.735 161.005 C 30.881 160.782,31.386 158.890,31.858 156.800 C 32.897 152.193,33.901 148.478,34.398 147.400 C 34.601 146.960,34.957 145.850,35.190 144.933 C 35.422 144.017,35.879 142.757,36.204 142.133 C 36.529 141.510,36.796 140.789,36.798 140.530 C 36.799 140.272,37.350 138.652,38.021 136.930 C 39.349 133.529,39.460 133.262,40.920 130.000 C 41.461 128.790,42.028 127.395,42.179 126.900 C 42.330 126.405,42.622 126.000,42.827 126.000 C 43.032 126.000,43.199 125.775,43.199 125.500 C 43.197 124.911,47.619 115.899,48.062 115.587 C 48.229 115.470,48.599 114.840,48.884 114.187 C 49.388 113.031,52.670 107.400,53.305 106.600 C 53.479 106.380,54.742 104.513,56.111 102.451 C 57.480 100.388,58.960 98.209,59.400 97.607 C 59.840 97.005,60.558 95.992,60.995 95.356 C 61.831 94.140,62.043 93.865,63.510 92.097 C 64.011 91.494,65.064 90.190,65.850 89.200 C 69.493 84.611,79.946 73.801,85.384 69.000 C 89.569 65.304,97.243 59.240,98.064 58.980 C 98.469 58.851,98.800 58.574,98.800 58.363 C 98.800 58.153,99.205 57.806,99.700 57.593 C 100.195 57.381,101.770 56.390,103.200 55.392 C 104.630 54.394,106.070 53.406,106.400 53.196 C 106.730 52.986,107.630 52.399,108.400 51.891 C 110.820 50.294,117.076 46.800,117.514 46.800 C 117.745 46.800,117.993 46.665,118.067 46.500 C 118.239 46.113,124.126 43.200,124.737 43.200 C 124.991 43.200,125.200 43.020,125.200 42.800 C 125.200 42.580,125.411 42.400,125.668 42.400 C 126.119 42.400,130.257 40.554,132.462 39.370 C 133.046 39.057,133.731 38.800,133.984 38.800 C 134.237 38.800,135.199 38.458,136.122 38.041 C 137.045 37.624,138.610 37.047,139.600 36.761 C 140.590 36.474,141.490 36.127,141.600 35.990 C 141.710 35.853,142.700 35.494,143.800 35.192 C 144.900 34.891,146.250 34.410,146.800 34.124 C 147.350 33.839,148.077 33.604,148.415 33.602 C 148.754 33.601,150.014 33.246,151.215 32.814 C 153.637 31.944,155.600 31.771,155.600 32.429 M69.600 148.358 C 69.270 148.542,68.107 148.808,67.016 148.950 C 64.904 149.224,62.686 150.518,60.622 152.678 C 56.735 156.745,57.000 153.359,57.000 199.000 C 57.000 228.161,57.131 239.654,57.497 242.600 C 58.048 247.024,58.499 251.130,58.520 251.900 C 58.527 252.175,58.660 252.400,58.815 252.400 C 58.970 252.400,59.222 253.510,59.376 254.867 C 59.529 256.224,59.917 258.107,60.238 259.052 C 60.559 259.997,61.013 261.812,61.248 263.085 C 61.482 264.358,61.809 265.580,61.975 265.800 C 62.140 266.020,62.503 267.100,62.781 268.200 C 63.059 269.300,63.521 270.740,63.807 271.400 C 64.094 272.060,64.542 273.410,64.803 274.400 C 65.064 275.390,65.417 276.380,65.587 276.600 C 65.757 276.820,66.103 277.645,66.357 278.433 C 66.610 279.221,67.174 280.564,67.609 281.417 C 68.044 282.271,68.400 283.201,68.400 283.485 C 68.400 283.768,68.543 284.000,68.717 284.000 C 68.892 284.000,69.371 284.990,69.782 286.200 C 70.193 287.410,70.681 288.400,70.865 288.400 C 71.049 288.400,71.200 288.598,71.200 288.840 C 71.200 289.083,72.338 291.288,73.729 293.740 C 77.276 299.996,77.342 300.106,77.900 300.713 C 78.175 301.012,78.400 301.384,78.400 301.540 C 78.400 301.868,82.232 307.299,84.908 310.765 C 92.600 320.725,96.563 322.886,100.391 319.209 C 101.748 317.905,102.134 317.188,102.533 315.232 C 102.801 313.920,103.150 312.716,103.310 312.557 C 103.729 312.138,103.671 160.400,103.252 160.400 C 103.060 160.400,102.789 159.545,102.650 158.500 C 102.321 156.040,98.614 150.800,97.202 150.800 C 97.048 150.800,96.511 150.443,96.008 150.007 C 95.505 149.570,94.213 149.097,93.138 148.954 C 92.062 148.811,91.085 148.538,90.967 148.347 C 90.693 147.903,70.400 147.913,69.600 148.358 M108.000 161.200 C 108.000 171.956,108.080 173.600,108.600 173.600 C 108.930 173.600,109.200 173.760,109.200 173.957 C 109.200 174.153,109.612 174.417,110.115 174.543 C 110.618 174.669,111.473 175.364,112.015 176.086 L 113.000 177.400 113.000 210.471 C 113.000 247.955,113.282 244.876,109.694 246.600 L 108.029 247.400 108.007 279.600 C 107.985 309.868,107.782 316.572,106.847 317.769 C 106.662 318.006,106.395 318.684,106.254 319.275 C 105.833 321.038,102.380 324.265,100.249 324.886 L 98.393 325.428 100.321 327.214 C 103.905 330.535,107.907 333.883,110.584 335.800 C 111.198 336.240,112.173 336.970,112.750 337.421 C 113.328 337.873,114.700 338.819,115.800 339.524 C 118.353 341.160,118.675 341.369,120.574 342.631 C 121.439 343.205,122.519 343.851,122.974 344.066 C 123.428 344.280,124.430 344.803,125.200 345.227 C 127.977 346.758,131.673 346.115,133.034 343.866 C 133.776 342.640,133.803 341.089,133.906 294.941 L 134.013 247.283 132.906 246.891 C 131.365 246.344,129.600 244.598,129.600 243.619 C 129.600 243.169,129.420 242.800,129.200 242.800 C 128.937 242.800,128.800 231.813,128.800 210.638 C 128.800 173.923,128.577 176.263,132.256 174.371 L 134.000 173.474 134.000 161.137 L 134.000 148.800 121.000 148.800 L 108.000 148.800 108.000 161.200 M138.805 161.100 L 138.809 173.400 140.361 174.143 C 141.215 174.552,142.338 175.452,142.857 176.143 L 143.800 177.400 143.800 210.400 L 143.800 243.400 142.890 244.675 C 142.390 245.377,141.269 246.265,140.400 246.648 L 138.819 247.346 138.709 295.488 C 138.631 329.843,138.474 343.711,138.162 343.915 C 137.920 344.072,137.610 344.662,137.472 345.226 C 137.335 345.791,136.857 346.673,136.411 347.187 C 135.965 347.702,135.600 348.246,135.600 348.397 C 135.600 348.548,135.150 348.877,134.600 349.127 C 132.887 349.908,134.118 351.185,137.733 352.378 C 138.540 352.644,139.200 352.984,139.200 353.134 C 139.200 353.283,139.958 353.642,140.883 353.931 C 141.809 354.220,143.329 354.803,144.261 355.228 C 145.194 355.653,146.066 356.000,146.200 356.000 C 146.334 356.000,147.199 356.344,148.122 356.764 C 149.045 357.184,150.475 357.654,151.300 357.808 C 152.125 357.963,152.800 358.221,152.800 358.383 C 152.800 358.544,154.184 358.981,155.876 359.353 C 157.568 359.724,159.143 360.178,159.376 360.362 C 159.609 360.545,161.060 360.922,162.600 361.200 C 164.140 361.478,165.580 361.838,165.800 362.000 C 167.733 363.422,175.916 363.240,178.291 361.721 C 183.604 358.325,183.200 364.507,183.200 286.508 L 183.200 220.000 177.200 220.000 L 171.200 220.000 171.200 230.506 C 171.200 241.206,170.688 245.034,169.191 245.536 C 168.968 245.610,168.514 245.943,168.182 246.275 C 166.398 248.059,162.491 246.922,160.907 244.158 L 160.013 242.600 160.007 210.292 L 160.000 177.984 161.000 176.400 C 161.567 175.503,162.434 174.706,163.000 174.564 C 163.550 174.426,164.000 174.153,164.000 173.957 C 164.000 173.760,164.270 173.600,164.600 173.600 C 165.120 173.600,165.200 171.956,165.200 161.200 L 165.200 148.800 152.000 148.800 L 138.800 148.800 138.805 161.100 M183.200 161.600 L 183.200 174.400 184.555 174.400 C 186.466 174.400,189.504 176.557,190.988 178.969 L 192.200 180.937 192.200 212.369 C 192.200 247.885,192.458 245.126,188.976 246.811 L 187.219 247.662 187.110 302.646 C 187.030 342.813,186.879 357.706,186.550 357.915 C 186.303 358.072,185.976 358.775,185.823 359.478 C 185.671 360.180,184.919 361.577,184.152 362.582 C 182.928 364.184,182.842 364.441,183.448 364.674 C 185.893 365.612,221.200 364.591,221.200 363.582 C 221.200 363.428,221.909 363.189,222.777 363.050 C 226.728 362.418,231.906 358.619,233.392 355.263 C 233.748 354.458,234.255 353.440,234.519 353.000 C 234.887 352.388,235.025 336.688,235.107 286.100 L 235.214 220.000 229.236 220.000 L 223.257 220.000 223.129 230.900 L 223.000 241.800 221.786 243.600 C 219.059 247.642,214.391 248.263,210.862 245.053 C 208.824 243.199,208.800 243.007,208.800 228.220 L 208.800 214.400 216.008 214.400 L 223.215 214.400 223.108 205.500 L 223.000 196.600 215.879 196.491 L 208.758 196.381 208.879 187.419 C 208.991 179.095,209.059 178.378,209.825 177.353 C 212.315 174.021,217.446 173.309,220.251 175.906 C 222.666 178.142,222.930 178.949,223.124 184.696 L 223.304 190.000 229.252 190.000 L 235.200 190.000 235.200 169.400 L 235.200 148.800 209.200 148.800 L 183.200 148.800 183.200 161.600 M240.400 161.029 C 240.400 173.713,240.483 174.374,242.071 174.413 C 242.789 174.430,243.671 175.182,244.506 176.486 C 245.150 177.494,245.200 179.915,245.200 210.354 C 245.200 247.237,245.421 244.640,242.129 246.439 L 240.417 247.374 240.308 300.702 C 240.229 339.644,240.079 354.106,239.750 354.315 C 239.503 354.472,239.180 355.156,239.033 355.836 C 238.885 356.516,238.142 358.017,237.382 359.171 L 236.000 361.270 237.700 360.990 C 238.635 360.836,239.580 360.574,239.800 360.409 C 240.020 360.244,241.550 359.790,243.200 359.400 C 244.850 359.010,246.380 358.568,246.600 358.417 C 246.820 358.267,247.810 357.899,248.800 357.600 C 249.790 357.301,250.780 356.932,251.000 356.780 C 251.220 356.628,252.120 356.277,253.000 356.000 C 253.880 355.723,254.780 355.363,255.000 355.200 C 255.220 355.037,256.113 354.674,256.984 354.393 C 263.451 352.308,266.974 348.767,267.976 343.346 C 268.805 338.861,268.543 247.619,267.700 247.360 C 265.346 246.639,263.487 245.437,262.395 243.930 L 261.171 242.240 261.285 228.253 C 261.374 217.502,261.516 214.228,261.900 214.100 C 262.175 214.008,262.400 213.673,262.400 213.354 C 262.400 213.036,262.715 212.657,263.100 212.512 C 263.485 212.368,264.008 211.971,264.263 211.631 C 265.617 209.823,272.000 211.693,272.000 213.899 C 272.000 214.174,272.180 214.400,272.400 214.400 C 272.923 214.400,272.956 343.278,272.434 343.820 C 271.279 345.017,271.897 347.322,273.142 346.461 C 273.504 346.210,274.700 345.437,275.800 344.743 C 279.304 342.530,280.994 341.409,281.200 341.161 C 281.310 341.028,281.839 340.688,282.375 340.406 C 282.911 340.123,283.541 339.731,283.775 339.535 C 284.009 339.339,285.907 337.915,287.993 336.372 C 290.352 334.626,292.029 333.065,292.429 332.242 C 294.174 328.655,294.148 329.272,294.294 287.568 L 294.432 247.737 292.572 246.568 C 289.768 244.807,289.838 245.288,289.608 226.200 C 289.441 212.392,289.288 208.803,288.833 208.000 C 288.293 207.045,286.000 204.673,286.000 205.068 C 286.000 205.172,285.730 204.987,285.400 204.657 C 284.733 203.990,284.591 202.800,285.178 202.800 C 285.732 202.800,288.226 200.360,288.856 199.200 C 289.569 197.889,289.870 164.166,289.207 159.828 C 288.606 155.894,285.927 152.028,282.873 150.687 C 282.283 150.428,281.701 150.080,281.579 149.913 C 280.955 149.055,275.726 148.800,258.745 148.800 L 240.400 148.800 240.400 161.029 M309.400 149.084 C 305.780 150.023,301.199 154.710,300.582 158.104 C 300.432 158.932,300.150 159.707,299.955 159.828 C 299.756 159.951,299.600 168.914,299.600 180.200 C 299.600 191.486,299.756 200.449,299.955 200.572 C 300.150 200.693,300.420 201.378,300.554 202.096 C 300.829 203.558,302.285 205.217,307.140 209.600 C 313.862 215.668,315.823 217.457,318.581 220.040 C 320.132 221.491,322.146 223.340,323.057 224.147 C 326.255 226.980,326.876 229.023,326.728 236.213 C 326.655 239.746,326.427 242.554,326.200 242.715 C 325.980 242.872,325.504 243.527,325.143 244.171 C 322.786 248.371,315.662 248.019,312.600 243.551 L 311.400 241.800 311.271 230.900 L 311.143 220.000 305.359 220.000 C 301.100 220.000,299.525 220.132,299.385 220.500 C 299.280 220.775,299.241 244.740,299.297 273.756 L 299.400 326.512 302.600 323.301 C 304.360 321.535,306.970 318.696,308.400 316.992 C 309.830 315.288,311.450 313.402,312.000 312.801 C 312.550 312.200,313.360 311.204,313.800 310.589 C 314.240 309.974,315.050 308.890,315.600 308.180 C 316.150 307.471,316.870 306.480,317.200 305.979 C 317.530 305.478,318.115 304.738,318.500 304.334 C 318.885 303.930,319.200 303.506,319.200 303.390 C 319.200 303.196,321.602 299.501,322.313 298.600 C 322.487 298.380,322.870 297.615,323.163 296.900 C 323.457 296.185,323.833 295.600,324.000 295.600 C 324.167 295.600,324.527 295.060,324.800 294.400 C 325.073 293.740,325.455 293.200,325.649 293.200 C 325.842 293.200,326.000 292.963,326.000 292.674 C 326.000 292.384,327.168 289.828,328.595 286.994 C 330.022 284.161,331.399 281.203,331.654 280.421 C 331.909 279.639,332.451 278.373,332.859 277.606 C 333.266 276.839,333.600 275.974,333.600 275.684 C 333.600 275.394,333.947 274.395,334.371 273.464 C 334.795 272.534,335.270 271.238,335.426 270.586 C 335.582 269.934,335.886 269.177,336.100 268.905 C 336.314 268.633,336.389 268.150,336.267 267.831 C 336.145 267.512,336.185 267.195,336.355 267.126 C 336.670 266.998,338.001 262.479,338.165 260.980 C 338.214 260.529,338.356 259.989,338.481 259.780 C 338.606 259.571,338.839 258.590,338.999 257.600 C 339.159 256.610,339.430 255.620,339.600 255.400 C 339.771 255.180,340.136 253.020,340.412 250.600 C 340.687 248.180,341.065 246.005,341.251 245.766 C 341.436 245.527,341.565 244.447,341.536 243.366 C 341.508 242.285,341.601 241.130,341.744 240.800 C 342.397 239.288,341.823 220.965,341.100 220.242 C 340.715 219.858,340.395 219.331,340.389 219.071 C 340.384 218.812,339.373 217.700,338.143 216.600 C 336.914 215.500,334.752 213.475,333.340 212.100 C 331.928 210.725,330.644 209.599,330.486 209.597 C 330.329 209.596,329.137 208.506,327.837 207.176 C 326.537 205.845,325.103 204.497,324.650 204.180 C 322.298 202.533,316.345 196.223,316.130 195.150 C 316.002 194.508,315.740 193.886,315.548 193.768 C 315.116 193.501,315.081 177.600,315.512 177.600 C 315.684 177.600,316.033 177.049,316.287 176.375 C 316.580 175.598,317.198 174.980,317.975 174.687 C 318.649 174.433,319.200 174.084,319.200 173.912 C 319.200 173.741,320.190 173.600,321.400 173.600 C 322.610 173.600,323.600 173.780,323.600 174.000 C 323.600 174.220,323.838 174.400,324.128 174.400 C 324.791 174.400,326.317 176.130,326.820 177.452 C 327.029 178.002,327.200 181.168,327.200 184.488 L 327.200 190.524 332.663 190.262 C 335.668 190.118,339.094 190.000,340.276 190.000 L 342.426 190.000 342.313 173.900 C 342.184 155.536,342.314 156.286,338.614 152.586 C 335.025 148.997,335.081 149.009,321.800 148.938 C 315.420 148.904,309.840 148.969,309.400 149.084 M84.249 175.427 C 84.848 175.874,85.532 176.591,85.769 177.020 C 86.006 177.449,86.380 177.928,86.600 178.085 C 86.859 178.270,87.038 189.579,87.107 210.254 L 87.214 242.137 86.160 243.658 C 82.749 248.580,75.734 248.039,73.300 242.666 C 72.514 240.931,72.579 179.180,73.368 177.680 C 75.053 174.479,81.259 173.194,84.249 175.427 M270.172 174.854 C 273.057 175.922,274.940 185.805,273.416 191.878 C 272.183 196.792,265.040 197.217,261.969 192.558 C 260.645 190.551,260.827 178.661,262.210 176.786 C 263.934 174.450,267.041 173.696,270.172 174.854 " stroke="none" fill="#041c44" fill-rule="evenodd"></path><path id="path3" d="M332.600 63.600 C 333.459 64.480,334.252 65.200,334.362 65.200 C 334.472 65.200,333.859 64.480,333.000 63.600 C 332.141 62.720,331.348 62.000,331.238 62.000 C 331.128 62.000,331.741 62.720,332.600 63.600 M60.975 68.900 L 59.800 70.200 61.100 69.025 C 62.312 67.930,62.584 67.600,62.275 67.600 C 62.206 67.600,61.621 68.185,60.975 68.900 M198.112 139.095 C 199.164 139.177,200.784 139.176,201.712 139.092 C 202.640 139.008,201.780 138.941,199.800 138.942 C 197.820 138.943,197.060 139.012,198.112 139.095 M235.386 169.400 C 235.386 180.840,235.437 185.462,235.500 179.672 C 235.562 173.882,235.562 164.522,235.500 158.872 C 235.437 153.222,235.386 157.960,235.386 169.400 M112.591 210.600 C 112.591 228.420,112.640 235.768,112.700 226.930 C 112.760 218.091,112.760 203.511,112.700 194.530 C 112.640 185.548,112.591 192.780,112.591 210.600 M129.391 210.400 C 129.391 227.890,129.440 235.045,129.500 226.300 C 129.560 217.555,129.560 203.245,129.500 194.500 C 129.440 185.755,129.391 192.910,129.391 210.400 M328.307 190.690 C 329.026 190.779,330.106 190.777,330.707 190.686 C 331.308 190.595,330.720 190.522,329.400 190.524 C 328.080 190.526,327.588 190.601,328.307 190.690 M26.920 192.800 C 26.920 194.010,26.995 194.505,27.087 193.900 C 27.178 193.295,27.178 192.305,27.087 191.700 C 26.995 191.095,26.920 191.590,26.920 192.800 M223.372 205.400 C 223.372 210.460,223.429 212.475,223.499 209.877 C 223.569 207.280,223.568 203.140,223.498 200.677 C 223.428 198.215,223.371 200.340,223.372 205.400 M9.324 199.400 C 9.326 200.720,9.401 201.212,9.490 200.493 C 9.579 199.774,9.577 198.694,9.486 198.093 C 9.395 197.492,9.322 198.080,9.324 199.400 M26.920 205.200 C 26.920 206.410,26.995 206.905,27.087 206.300 C 27.178 205.695,27.178 204.705,27.087 204.100 C 26.995 203.495,26.920 203.990,26.920 205.200 M235.395 284.800 C 235.395 320.550,235.442 335.175,235.500 317.300 C 235.558 299.425,235.558 270.175,235.500 252.300 C 235.442 234.425,235.395 249.050,235.395 284.800 M298.984 220.500 C 298.880 220.775,298.840 241.430,298.897 266.400 L 299.000 311.800 299.200 265.900 C 299.310 240.655,299.349 220.000,299.287 220.000 C 299.226 220.000,299.089 220.225,298.984 220.500 M342.557 228.800 C 342.557 231.770,342.620 232.985,342.697 231.500 C 342.774 230.015,342.774 227.585,342.697 226.100 C 342.620 224.615,342.557 225.830,342.557 228.800 M239.792 295.200 C 239.792 315.990,239.841 324.495,239.900 314.100 C 239.959 303.705,239.959 286.695,239.900 276.300 C 239.841 265.905,239.792 274.410,239.792 295.200 M301.950 324.206 C 300.273 325.853,299.018 327.200,299.160 327.200 C 299.303 327.200,300.761 325.850,302.400 324.200 C 304.039 322.550,305.294 321.203,305.190 321.206 C 305.085 321.210,303.628 322.560,301.950 324.206 M193.900 389.093 C 194.835 389.177,196.365 389.177,197.300 389.093 C 198.235 389.009,197.470 388.940,195.600 388.940 C 193.730 388.940,192.965 389.009,193.900 389.093 M201.511 389.093 C 202.451 389.178,203.891 389.177,204.711 389.091 C 205.530 389.005,204.760 388.936,203.000 388.937 C 201.240 388.939,200.570 389.009,201.511 389.093 " stroke="none" fill="#596c82" fill-rule="evenodd"></path><path id="path4" d="M184.105 9.487 C 184.714 9.579,185.614 9.577,186.105 9.482 C 186.597 9.387,186.100 9.311,185.000 9.314 C 183.900 9.317,183.497 9.395,184.105 9.487 M213.300 9.487 C 213.905 9.578,214.895 9.578,215.500 9.487 C 216.105 9.395,215.610 9.320,214.400 9.320 C 213.190 9.320,212.695 9.395,213.300 9.487 M180.100 9.876 C 180.485 9.976,181.115 9.976,181.500 9.876 C 181.885 9.775,181.570 9.693,180.800 9.693 C 180.030 9.693,179.715 9.775,180.100 9.876 M328.000 58.925 C 328.000 58.994,328.585 59.579,329.300 60.225 L 330.600 61.400 329.425 60.100 C 328.330 58.888,328.000 58.616,328.000 58.925 M64.592 64.900 L 61.000 68.600 64.700 65.008 C 68.136 61.672,68.582 61.200,68.292 61.200 C 68.232 61.200,66.567 62.865,64.592 64.900 M138.493 70.800 C 138.493 71.570,138.575 71.885,138.676 71.500 C 138.776 71.115,138.776 70.485,138.676 70.100 C 138.575 69.715,138.493 70.030,138.493 70.800 M82.378 72.300 L 81.000 73.800 82.500 72.422 C 83.896 71.138,84.184 70.800,83.878 70.800 C 83.812 70.800,83.137 71.475,82.378 72.300 M260.909 72.800 C 260.909 73.790,260.987 74.195,261.082 73.700 C 261.178 73.205,261.178 72.395,261.082 71.900 C 260.987 71.405,260.909 71.810,260.909 72.800 M155.701 73.400 C 155.705 74.280,155.787 74.593,155.883 74.095 C 155.979 73.598,155.975 72.878,155.875 72.495 C 155.775 72.113,155.696 72.520,155.701 73.400 M138.109 75.600 C 138.109 76.590,138.187 76.995,138.282 76.500 C 138.378 76.005,138.378 75.195,138.282 74.700 C 138.187 74.205,138.109 74.610,138.109 75.600 M243.740 78.000 C 243.740 79.870,243.809 80.635,243.893 79.700 C 243.977 78.765,243.977 77.235,243.893 76.300 C 243.809 75.365,243.740 76.130,243.740 78.000 M138.101 80.600 C 138.105 81.480,138.187 81.793,138.283 81.295 C 138.379 80.798,138.375 80.078,138.275 79.695 C 138.175 79.313,138.096 79.720,138.101 80.600 M73.578 81.100 L 72.200 82.600 73.700 81.222 C 75.096 79.938,75.384 79.600,75.078 79.600 C 75.012 79.600,74.337 80.275,73.578 81.100 M155.693 82.400 C 155.693 83.170,155.775 83.485,155.876 83.100 C 155.976 82.715,155.976 82.085,155.876 81.700 C 155.775 81.315,155.693 81.630,155.693 82.400 M260.909 83.200 C 260.909 84.190,260.987 84.595,261.082 84.100 C 261.178 83.605,261.178 82.795,261.082 82.300 C 260.987 81.805,260.909 82.210,260.909 83.200 M327.200 83.000 C 327.946 83.770,328.647 84.400,328.757 84.400 C 328.867 84.400,328.346 83.770,327.600 83.000 C 326.854 82.230,326.153 81.600,326.043 81.600 C 325.933 81.600,326.454 82.230,327.200 83.000 M31.800 108.800 C 31.459 109.460,31.269 110.000,31.379 110.000 C 31.489 110.000,31.859 109.460,32.200 108.800 C 32.541 108.140,32.731 107.600,32.621 107.600 C 32.511 107.600,32.141 108.140,31.800 108.800 M242.989 121.300 L 240.200 124.200 243.100 121.411 C 244.695 119.877,246.000 118.572,246.000 118.511 C 246.000 118.217,245.580 118.606,242.989 121.300 M190.100 138.676 C 190.485 138.776,191.115 138.776,191.500 138.676 C 191.885 138.575,191.570 138.493,190.800 138.493 C 190.030 138.493,189.715 138.575,190.100 138.676 M193.300 139.076 C 193.685 139.176,194.315 139.176,194.700 139.076 C 195.085 138.975,194.770 138.893,194.000 138.893 C 193.230 138.893,192.915 138.975,193.300 139.076 M107.286 161.076 C 107.239 168.158,107.335 174.036,107.500 174.139 C 107.665 174.241,107.754 170.517,107.698 165.862 C 107.504 149.784,107.372 148.247,107.286 161.076 M134.400 161.280 C 134.290 168.475,134.338 174.223,134.506 174.055 C 134.674 173.886,134.764 168.000,134.705 160.974 L 134.599 148.200 134.400 161.280 M138.191 161.167 C 138.199 172.348,138.283 174.156,138.800 174.297 C 139.238 174.417,139.267 174.366,138.906 174.110 C 138.535 173.848,138.383 170.560,138.297 160.980 L 138.183 148.200 138.191 161.167 M302.975 152.500 L 301.800 153.800 303.100 152.625 C 303.815 151.979,304.400 151.394,304.400 151.325 C 304.400 151.016,304.070 151.288,302.975 152.500 M103.796 236.200 C 103.796 278.000,103.843 295.041,103.900 274.068 C 103.957 253.096,103.957 218.896,103.900 198.068 C 103.843 177.241,103.796 194.400,103.796 236.200 M290.184 179.000 C 290.184 188.900,290.236 192.893,290.300 187.873 C 290.363 182.853,290.363 174.753,290.300 169.873 C 290.236 164.993,290.184 169.100,290.184 179.000 M320.500 174.276 C 320.885 174.376,321.515 174.376,321.900 174.276 C 322.285 174.175,321.970 174.093,321.200 174.093 C 320.430 174.093,320.115 174.175,320.500 174.276 M83.600 175.725 C 83.600 175.794,84.185 176.379,84.900 177.025 L 86.200 178.200 85.025 176.900 C 83.930 175.688,83.600 175.416,83.600 175.725 M326.488 184.251 C 326.410 189.603,326.481 190.365,327.100 190.851 C 327.717 191.335,327.742 191.326,327.311 190.772 C 326.990 190.360,326.780 188.096,326.700 184.172 L 326.577 178.200 326.488 184.251 M273.360 185.000 C 273.361 188.300,273.422 189.597,273.498 187.882 C 273.573 186.167,273.572 183.467,273.497 181.882 C 273.421 180.297,273.359 181.700,273.360 185.000 M208.986 188.000 L 209.000 195.800 216.263 196.000 C 220.257 196.110,223.441 196.065,223.339 195.900 C 223.237 195.735,220.017 195.600,216.185 195.600 L 209.217 195.600 209.095 187.900 L 208.973 180.200 208.986 188.000 M86.990 210.600 C 86.990 227.100,87.039 233.908,87.100 225.730 C 87.160 217.551,87.160 204.051,87.100 195.730 C 87.039 187.408,86.990 194.100,86.990 210.600 M371.301 182.200 C 371.305 183.080,371.387 183.393,371.483 182.895 C 371.579 182.398,371.575 181.678,371.475 181.295 C 371.375 180.913,371.296 181.320,371.301 182.200 M9.709 184.000 C 9.709 184.990,9.787 185.395,9.882 184.900 C 9.978 184.405,9.978 183.595,9.882 183.100 C 9.787 182.605,9.709 183.010,9.709 184.000 M371.701 186.200 C 371.705 187.080,371.787 187.393,371.883 186.895 C 371.979 186.398,371.975 185.678,371.875 185.295 C 371.775 184.913,371.696 185.320,371.701 186.200 M9.334 190.400 C 9.334 192.050,9.405 192.725,9.491 191.900 C 9.578 191.075,9.578 189.725,9.491 188.900 C 9.405 188.075,9.334 188.750,9.334 190.400 M229.200 190.400 L 223.000 190.632 229.076 190.716 C 232.789 190.767,235.249 190.644,235.400 190.400 C 235.536 190.180,235.592 190.038,235.524 190.084 C 235.456 190.130,232.610 190.273,229.200 190.400 M336.300 190.695 C 337.455 190.776,339.345 190.776,340.500 190.695 C 341.655 190.614,340.710 190.548,338.400 190.548 C 336.090 190.548,335.145 190.614,336.300 190.695 M372.114 193.400 C 372.117 194.500,372.195 194.903,372.287 194.295 C 372.379 193.686,372.377 192.786,372.282 192.295 C 372.187 191.803,372.111 192.300,372.114 193.400 M262.400 192.525 C 262.400 192.594,262.985 193.179,263.700 193.825 L 265.000 195.000 263.825 193.700 C 262.730 192.488,262.400 192.216,262.400 192.525 M389.314 195.800 C 389.317 196.900,389.395 197.303,389.487 196.695 C 389.579 196.086,389.577 195.186,389.482 194.695 C 389.387 194.203,389.311 194.700,389.314 195.800 M321.200 200.525 C 321.200 200.594,321.785 201.179,322.500 201.825 L 323.800 203.000 322.625 201.700 C 321.530 200.488,321.200 200.216,321.200 200.525 M389.301 201.800 C 389.305 202.680,389.387 202.993,389.483 202.495 C 389.579 201.998,389.575 201.278,389.475 200.895 C 389.375 200.513,389.296 200.920,389.301 201.800 M372.101 204.600 C 372.105 205.480,372.187 205.793,372.283 205.295 C 372.379 204.798,372.375 204.078,372.275 203.695 C 372.175 203.313,372.096 203.720,372.101 204.600 M302.600 206.400 C 303.683 207.500,304.660 208.400,304.770 208.400 C 304.880 208.400,304.083 207.500,303.000 206.400 C 301.917 205.300,300.940 204.400,300.830 204.400 C 300.720 204.400,301.517 205.300,302.600 206.400 M9.337 208.200 C 9.339 209.960,9.409 210.630,9.493 209.689 C 9.578 208.749,9.577 207.309,9.491 206.489 C 9.405 205.670,9.336 206.440,9.337 208.200 M290.183 226.800 C 290.183 235.930,290.235 239.665,290.300 235.100 C 290.364 230.535,290.364 223.065,290.300 218.500 C 290.235 213.935,290.183 217.670,290.183 226.800 M308.400 211.800 C 309.146 212.570,309.847 213.200,309.957 213.200 C 310.067 213.200,309.546 212.570,308.800 211.800 C 308.054 211.030,307.353 210.400,307.243 210.400 C 307.133 210.400,307.654 211.030,308.400 211.800 M371.709 212.000 C 371.709 212.990,371.787 213.395,371.882 212.900 C 371.978 212.405,371.978 211.595,371.882 211.100 C 371.787 210.605,371.709 211.010,371.709 212.000 M9.709 214.400 C 9.709 215.390,9.787 215.795,9.882 215.300 C 9.978 214.805,9.978 213.995,9.882 213.500 C 9.787 213.005,9.709 213.410,9.709 214.400 M312.600 215.600 C 313.459 216.480,314.252 217.200,314.362 217.200 C 314.472 217.200,313.859 216.480,313.000 215.600 C 312.141 214.720,311.348 214.000,311.238 214.000 C 311.128 214.000,311.741 214.720,312.600 215.600 M212.880 214.698 C 214.794 214.771,218.034 214.771,220.080 214.698 C 222.126 214.626,220.560 214.566,216.600 214.565 C 212.640 214.565,210.966 214.624,212.880 214.698 M371.301 215.800 C 371.305 216.680,371.387 216.993,371.483 216.495 C 371.579 215.998,371.575 215.278,371.475 214.895 C 371.375 214.513,371.296 214.920,371.301 215.800 M208.979 227.600 C 208.979 234.750,209.033 237.675,209.099 234.100 C 209.166 230.525,209.166 224.675,209.099 221.100 C 209.033 217.525,208.979 220.450,208.979 227.600 M261.377 228.200 C 261.377 234.800,261.432 237.556,261.499 234.325 C 261.566 231.093,261.566 225.693,261.499 222.325 C 261.432 218.956,261.377 221.600,261.377 228.200 M316.000 218.525 C 316.000 218.594,316.585 219.179,317.300 219.825 L 318.600 221.000 317.425 219.700 C 316.330 218.488,316.000 218.216,316.000 218.525 M322.200 224.400 C 323.283 225.500,324.260 226.400,324.370 226.400 C 324.480 226.400,323.683 225.500,322.600 224.400 C 321.517 223.300,320.540 222.400,320.430 222.400 C 320.320 222.400,321.117 223.300,322.200 224.400 M326.155 235.800 C 326.156 238.660,326.220 239.778,326.297 238.283 C 326.374 236.789,326.374 234.449,326.296 233.083 C 326.218 231.718,326.155 232.940,326.155 235.800 M56.514 233.400 C 56.517 234.500,56.595 234.903,56.687 234.295 C 56.779 233.686,56.777 232.786,56.682 232.295 C 56.587 231.803,56.511 232.300,56.514 233.400 M342.501 236.200 C 342.505 237.080,342.587 237.393,342.683 236.895 C 342.779 236.398,342.775 235.678,342.675 235.295 C 342.575 234.913,342.496 235.320,342.501 236.200 M342.114 241.000 C 342.117 242.100,342.195 242.503,342.287 241.895 C 342.379 241.286,342.377 240.386,342.282 239.895 C 342.187 239.403,342.111 239.900,342.114 241.000 M107.384 246.900 C 107.279 247.175,107.241 261.800,107.299 279.400 L 107.405 311.400 107.502 279.133 C 107.579 253.768,107.707 246.824,108.100 246.665 C 108.492 246.507,108.489 246.456,108.087 246.432 C 107.806 246.414,107.489 246.625,107.384 246.900 M138.184 246.900 C 138.080 247.175,138.040 268.280,138.097 293.800 L 138.200 340.200 138.400 293.300 C 138.510 267.505,138.549 246.400,138.487 246.400 C 138.426 246.400,138.289 246.625,138.184 246.900 M134.593 293.600 C 134.593 319.450,134.641 330.025,134.700 317.100 C 134.758 304.175,134.758 283.025,134.700 270.100 C 134.641 257.175,134.593 267.750,134.593 293.600 M325.578 317.100 L 324.200 318.600 325.700 317.222 C 326.525 316.463,327.200 315.788,327.200 315.722 C 327.200 315.416,326.862 315.704,325.578 317.100 M77.600 321.400 C 79.681 323.490,81.474 325.200,81.584 325.200 C 81.694 325.200,80.081 323.490,78.000 321.400 C 75.919 319.310,74.126 317.600,74.016 317.600 C 73.906 317.600,75.519 319.310,77.600 321.400 M317.375 325.300 L 316.200 326.600 317.500 325.425 C 318.215 324.779,318.800 324.194,318.800 324.125 C 318.800 323.816,318.470 324.088,317.375 325.300 M333.387 333.700 L 331.000 336.200 333.500 333.813 C 334.875 332.499,336.000 331.374,336.000 331.313 C 336.000 331.017,335.605 331.378,333.387 333.700 M70.400 339.000 C 71.146 339.770,71.847 340.400,71.957 340.400 C 72.067 340.400,71.546 339.770,70.800 339.000 C 70.054 338.230,69.353 337.600,69.243 337.600 C 69.133 337.600,69.654 338.230,70.400 339.000 M272.093 340.400 C 272.093 341.170,272.175 341.485,272.276 341.100 C 272.376 340.715,272.376 340.085,272.276 339.700 C 272.175 339.315,272.093 339.630,272.093 340.400 M186.900 371.487 C 187.505 371.578,188.495 371.578,189.100 371.487 C 189.705 371.395,189.210 371.320,188.000 371.320 C 186.790 371.320,186.295 371.395,186.900 371.487 M210.100 371.487 C 210.705 371.578,211.695 371.578,212.300 371.487 C 212.905 371.395,212.410 371.320,211.200 371.320 C 209.990 371.320,209.495 371.395,210.100 371.487 M195.500 371.898 C 197.755 371.970,201.445 371.970,203.700 371.898 C 205.955 371.827,204.110 371.769,199.600 371.769 C 195.090 371.769,193.245 371.827,195.500 371.898 M182.300 388.682 C 182.795 388.778,183.605 388.778,184.100 388.682 C 184.595 388.587,184.190 388.509,183.200 388.509 C 182.210 388.509,181.805 388.587,182.300 388.682 M214.700 388.682 C 215.195 388.778,216.005 388.778,216.500 388.682 C 216.995 388.587,216.590 388.509,215.600 388.509 C 214.610 388.509,214.205 388.587,214.700 388.682 M187.900 389.082 C 188.395 389.178,189.205 389.178,189.700 389.082 C 190.195 388.987,189.790 388.909,188.800 388.909 C 187.810 388.909,187.405 388.987,187.900 389.082 M208.905 389.087 C 209.514 389.179,210.414 389.177,210.905 389.082 C 211.397 388.987,210.900 388.911,209.800 388.914 C 208.700 388.917,208.297 388.995,208.905 389.087 " stroke="none" fill="#7c8b9c" fill-rule="evenodd"></path><path id="path5" d="M318.000 72.910 C 318.000 72.971,319.395 74.366,321.100 76.010 L 324.200 79.000 321.210 75.900 C 318.433 73.021,318.000 72.617,318.000 72.910 M138.528 78.400 C 138.528 79.830,138.601 80.415,138.689 79.700 C 138.778 78.985,138.778 77.815,138.689 77.100 C 138.601 76.385,138.528 76.970,138.528 78.400 M168.000 108.600 C 169.195 109.810,170.263 110.800,170.373 110.800 C 170.483 110.800,169.595 109.810,168.400 108.600 C 167.205 107.390,166.137 106.400,166.027 106.400 C 165.917 106.400,166.805 107.390,168.000 108.600 M107.686 161.076 C 107.638 167.938,107.735 173.636,107.900 173.739 C 108.065 173.841,108.154 170.207,108.098 165.662 C 107.906 150.103,107.771 148.605,107.686 161.076 M165.200 161.280 C 165.090 168.255,165.138 173.823,165.306 173.655 C 165.474 173.486,165.564 167.780,165.506 160.974 L 165.399 148.600 165.200 161.280 M342.495 175.079 L 342.400 189.958 340.300 190.105 L 338.200 190.252 340.313 190.326 C 343.031 190.421,342.828 191.740,342.700 174.798 L 342.590 160.200 342.495 175.079 M56.591 195.600 C 56.591 214.410,56.640 222.105,56.700 212.700 C 56.760 203.295,56.760 187.905,56.700 178.500 C 56.640 169.095,56.591 176.790,56.591 195.600 M182.957 168.800 C 182.957 171.770,183.020 172.985,183.097 171.500 C 183.174 170.015,183.174 167.585,183.097 166.100 C 183.020 164.615,182.957 165.830,182.957 168.800 M319.452 173.916 C 319.344 174.090,319.918 174.167,320.728 174.087 C 322.942 173.869,323.205 173.667,321.324 173.632 C 320.402 173.614,319.559 173.742,319.452 173.916 M244.991 210.400 C 244.991 228.330,245.040 235.665,245.100 226.700 C 245.160 217.735,245.160 203.065,245.100 194.100 C 245.040 185.135,244.991 192.470,244.991 210.400 M10.509 180.000 C 10.509 180.990,10.587 181.395,10.682 180.900 C 10.778 180.405,10.778 179.595,10.682 179.100 C 10.587 178.605,10.509 179.010,10.509 180.000 M160.191 210.400 C 160.191 228.110,160.240 235.355,160.300 226.500 C 160.360 217.645,160.360 203.155,160.300 194.300 C 160.240 185.445,160.191 192.690,160.191 210.400 M143.791 210.400 C 143.791 227.890,143.840 235.045,143.900 226.300 C 143.960 217.555,143.960 203.245,143.900 194.500 C 143.840 185.755,143.791 192.910,143.791 210.400 M326.959 184.400 C 326.959 187.590,327.021 188.895,327.097 187.300 C 327.173 185.705,327.173 183.095,327.097 181.500 C 327.021 179.905,326.959 181.210,326.959 184.400 M222.950 185.800 C 222.951 188.220,223.016 189.158,223.096 187.885 C 223.176 186.612,223.175 184.632,223.094 183.485 C 223.014 182.338,222.949 183.380,222.950 185.800 M226.300 190.297 C 227.895 190.373,230.505 190.373,232.100 190.297 C 233.695 190.221,232.390 190.159,229.200 190.159 C 226.010 190.159,224.705 190.221,226.300 190.297 M388.893 192.000 C 388.893 192.770,388.975 193.085,389.076 192.700 C 389.176 192.315,389.176 191.685,389.076 191.300 C 388.975 190.915,388.893 191.230,388.893 192.000 M372.563 199.200 C 372.563 202.830,372.623 204.315,372.698 202.500 C 372.772 200.685,372.772 197.715,372.698 195.900 C 372.623 194.085,372.563 195.570,372.563 199.200 M388.893 206.400 C 388.893 207.170,388.975 207.485,389.076 207.100 C 389.176 206.715,389.176 206.085,389.076 205.700 C 388.975 205.315,388.893 205.630,388.893 206.400 M272.595 278.400 C 272.595 313.270,272.642 327.535,272.700 310.100 C 272.758 292.665,272.758 264.135,272.700 246.700 C 272.642 229.265,272.595 243.530,272.595 278.400 M10.493 218.400 C 10.493 219.170,10.575 219.485,10.676 219.100 C 10.776 218.715,10.776 218.085,10.676 217.700 C 10.575 217.315,10.493 217.630,10.493 218.400 M170.576 231.000 C 170.576 237.160,170.632 239.624,170.699 236.476 C 170.767 233.327,170.767 228.287,170.699 225.276 C 170.631 222.264,170.576 224.840,170.576 231.000 M222.974 230.000 C 222.974 235.610,223.030 237.905,223.099 235.100 C 223.168 232.295,223.168 227.705,223.099 224.900 C 223.030 222.095,222.974 224.390,222.974 230.000 M311.373 230.200 C 311.373 235.700,311.430 238.005,311.499 235.323 C 311.568 232.641,311.568 228.141,311.499 225.323 C 311.430 222.505,311.374 224.700,311.373 230.200 M107.791 279.600 C 107.791 297.310,107.840 304.555,107.900 295.700 C 107.960 286.845,107.960 272.355,107.900 263.500 C 107.840 254.645,107.791 261.890,107.791 279.600 M268.593 293.600 C 268.593 319.010,268.641 329.405,268.700 316.700 C 268.759 303.995,268.759 283.205,268.700 270.500 C 268.641 257.795,268.593 268.190,268.593 293.600 M294.592 284.800 C 294.592 305.370,294.640 313.785,294.700 303.500 C 294.759 293.215,294.759 276.385,294.700 266.100 C 294.640 255.815,294.592 264.230,294.592 284.800 M240.192 313.400 C 240.192 334.300,240.241 342.909,240.300 332.530 C 240.359 322.152,240.359 305.052,240.300 294.530 C 240.241 284.009,240.192 292.500,240.192 313.400 M62.600 330.800 C 63.683 331.900,64.660 332.800,64.770 332.800 C 64.880 332.800,64.083 331.900,63.000 330.800 C 61.917 329.700,60.940 328.800,60.830 328.800 C 60.720 328.800,61.517 329.700,62.600 330.800 M67.183 335.300 C 68.164 336.345,69.019 337.200,69.083 337.200 C 69.384 337.200,69.066 336.841,67.300 335.183 L 65.400 333.400 67.183 335.300 M134.093 340.400 C 134.093 341.170,134.175 341.485,134.276 341.100 C 134.376 340.715,134.376 340.085,134.276 339.700 C 134.175 339.315,134.093 339.630,134.093 340.400 M194.100 365.487 C 194.705 365.578,195.695 365.578,196.300 365.487 C 196.905 365.395,196.410 365.320,195.200 365.320 C 193.990 365.320,193.495 365.395,194.100 365.487 M200.912 365.495 C 201.964 365.577,203.584 365.576,204.512 365.492 C 205.440 365.408,204.580 365.341,202.600 365.342 C 200.620 365.343,199.860 365.412,200.912 365.495 " stroke="none" fill="#1c3554" fill-rule="evenodd"></path><path id="path6" d="M64.778 65.100 L 63.400 66.600 64.900 65.222 C 66.296 63.938,66.584 63.600,66.278 63.600 C 66.212 63.600,65.537 64.275,64.778 65.100 M138.493 74.800 C 138.493 75.570,138.575 75.885,138.676 75.500 C 138.776 75.115,138.776 74.485,138.676 74.100 C 138.575 73.715,138.493 74.030,138.493 74.800 M114.525 148.699 C 118.224 148.766,124.164 148.765,127.725 148.699 C 131.286 148.633,128.260 148.579,121.000 148.579 C 113.740 148.579,110.826 148.633,114.525 148.699 M138.582 148.904 C 138.475 149.181,138.439 154.986,138.500 161.804 L 138.612 174.200 138.706 161.505 L 138.800 148.811 151.900 148.700 L 165.000 148.589 151.887 148.494 C 141.642 148.421,138.733 148.510,138.582 148.904 M182.978 148.913 C 182.869 149.196,182.835 152.661,182.900 156.613 L 183.020 163.800 183.110 156.303 L 183.200 148.806 209.300 148.700 L 235.400 148.594 209.287 148.497 C 188.331 148.419,183.136 148.501,182.978 148.913 M249.728 148.700 C 254.968 148.763,263.428 148.763,268.528 148.700 C 273.627 148.636,269.340 148.585,259.000 148.585 C 248.660 148.585,244.487 148.637,249.728 148.700 M239.778 161.200 C 239.778 168.130,239.833 170.965,239.899 167.500 C 239.966 164.035,239.966 158.365,239.899 154.900 C 239.833 151.435,239.778 154.270,239.778 161.200 M261.361 184.800 C 261.361 188.210,261.422 189.605,261.497 187.900 C 261.572 186.195,261.572 183.405,261.497 181.700 C 261.422 179.995,261.361 181.390,261.361 184.800 M192.190 213.000 C 192.190 229.060,192.239 235.572,192.300 227.471 C 192.360 219.369,192.360 206.229,192.300 198.271 C 192.239 190.312,192.190 196.940,192.190 213.000 M26.893 189.600 C 26.893 190.370,26.975 190.685,27.076 190.300 C 27.176 189.915,27.176 189.285,27.076 188.900 C 26.975 188.515,26.893 188.830,26.893 189.600 M26.893 208.400 C 26.893 209.170,26.975 209.485,27.076 209.100 C 27.176 208.715,27.176 208.085,27.076 207.700 C 26.975 207.315,26.893 207.630,26.893 208.400 M326.554 235.600 C 326.554 238.350,326.618 239.475,326.696 238.100 C 326.774 236.725,326.774 234.475,326.696 233.100 C 326.618 231.725,326.554 232.850,326.554 235.600 M138.593 293.200 C 138.593 318.610,138.641 329.005,138.700 316.300 C 138.759 303.595,138.759 282.805,138.700 270.100 C 138.641 257.395,138.593 267.790,138.593 293.200 M239.757 252.400 C 239.757 255.370,239.820 256.585,239.897 255.100 C 239.974 253.615,239.974 251.185,239.897 249.700 C 239.820 248.215,239.757 249.430,239.757 252.400 M186.994 301.000 C 186.994 330.480,187.042 342.481,187.100 327.669 C 187.158 312.857,187.158 288.737,187.100 274.069 C 187.042 259.401,186.994 271.520,186.994 301.000 M298.966 319.600 C 298.966 323.670,299.025 325.335,299.098 323.300 C 299.171 321.265,299.171 317.935,299.098 315.900 C 299.025 313.865,298.966 315.530,298.966 319.600 M77.400 321.600 C 78.259 322.480,79.052 323.200,79.162 323.200 C 79.272 323.200,78.659 322.480,77.800 321.600 C 76.941 320.720,76.148 320.000,76.038 320.000 C 75.928 320.000,76.541 320.720,77.400 321.600 M69.200 337.325 C 69.200 337.394,69.785 337.979,70.500 338.625 L 71.800 339.800 70.625 338.500 C 69.530 337.288,69.200 337.016,69.200 337.325 " stroke="none" fill="#3c526c" fill-rule="evenodd"></path><path id="path7" d="M159.000 13.600 L 157.800 13.905 158.876 13.953 C 159.468 13.979,160.064 13.820,160.200 13.600 C 160.336 13.380,160.392 13.221,160.324 13.247 C 160.256 13.273,159.660 13.432,159.000 13.600 M260.093 70.000 C 260.093 70.770,260.175 71.085,260.276 70.700 C 260.376 70.315,260.376 69.685,260.276 69.300 C 260.175 68.915,260.093 69.230,260.093 70.000 M244.093 76.400 C 244.093 77.170,244.175 77.485,244.276 77.100 C 244.376 76.715,244.376 76.085,244.276 75.700 C 244.175 75.315,244.093 75.630,244.093 76.400 M231.381 108.500 L 229.800 110.200 231.500 108.619 C 233.081 107.148,233.384 106.800,233.081 106.800 C 233.016 106.800,232.251 107.565,231.381 108.500 M316.923 148.699 C 319.520 148.769,323.660 148.768,326.123 148.698 C 328.585 148.628,326.460 148.571,321.400 148.572 C 316.340 148.572,314.325 148.629,316.923 148.699 M134.178 161.200 C 134.178 168.130,134.233 170.965,134.299 167.500 C 134.366 164.035,134.366 158.365,134.299 154.900 C 134.233 151.435,134.178 154.270,134.178 161.200 M240.191 161.167 C 240.199 171.993,240.283 173.756,240.800 173.897 C 241.238 174.017,241.267 173.966,240.906 173.710 C 240.536 173.448,240.383 170.240,240.297 160.980 L 240.182 148.600 240.191 161.167 M289.783 178.800 C 289.783 188.150,289.836 191.975,289.900 187.300 C 289.964 182.625,289.964 174.975,289.900 170.300 C 289.836 165.625,289.783 169.450,289.783 178.800 M128.984 178.100 C 128.879 178.375,128.840 193.090,128.897 210.800 L 129.000 243.000 129.200 210.300 C 129.310 192.315,129.349 177.600,129.287 177.600 C 129.226 177.600,129.089 177.825,128.984 178.100 M315.369 185.600 C 315.369 190.110,315.427 191.955,315.498 189.700 C 315.570 187.445,315.570 183.755,315.498 181.500 C 315.427 179.245,315.369 181.090,315.369 185.600 M112.990 210.400 C 112.990 227.670,113.040 234.735,113.100 226.100 C 113.160 217.465,113.160 203.335,113.100 194.700 C 113.040 186.065,112.990 193.130,112.990 210.400 M27.309 182.400 C 27.309 183.390,27.387 183.795,27.482 183.300 C 27.578 182.805,27.578 181.995,27.482 181.500 C 27.387 181.005,27.309 181.410,27.309 182.400 M372.524 190.600 C 372.526 191.920,372.601 192.412,372.690 191.693 C 372.779 190.974,372.777 189.894,372.686 189.293 C 372.595 188.692,372.522 189.280,372.524 190.600 M335.300 190.287 C 335.905 190.378,336.895 190.378,337.500 190.287 C 338.105 190.195,337.610 190.120,336.400 190.120 C 335.190 190.120,334.695 190.195,335.300 190.287 M26.558 199.000 C 26.558 202.080,26.621 203.287,26.697 201.682 C 26.773 200.078,26.773 197.558,26.696 196.082 C 26.619 194.607,26.557 195.920,26.558 199.000 M211.000 196.273 C 216.825 196.561,223.110 196.575,222.939 196.300 C 222.837 196.135,219.568 196.035,215.676 196.077 C 211.784 196.119,209.680 196.208,211.000 196.273 M372.520 207.600 C 372.520 208.810,372.595 209.305,372.687 208.700 C 372.778 208.095,372.778 207.105,372.687 206.500 C 372.595 205.895,372.520 206.390,372.520 207.600 M289.782 226.800 C 289.782 235.490,289.835 239.045,289.900 234.700 C 289.964 230.355,289.964 223.245,289.900 218.900 C 289.835 214.555,289.782 218.110,289.782 226.800 M27.309 215.600 C 27.309 216.590,27.387 216.995,27.482 216.500 C 27.578 216.005,27.578 215.195,27.482 214.700 C 27.387 214.205,27.309 214.610,27.309 215.600 M170.975 230.800 C 170.975 236.850,171.031 239.325,171.099 236.300 C 171.167 233.275,171.167 228.325,171.099 225.300 C 171.031 222.275,170.975 224.750,170.975 230.800 M323.200 224.600 C 323.946 225.370,324.647 226.000,324.757 226.000 C 324.867 226.000,324.346 225.370,323.600 224.600 C 322.854 223.830,322.153 223.200,322.043 223.200 C 321.933 223.200,322.454 223.830,323.200 224.600 M342.158 228.600 C 342.158 231.680,342.221 232.887,342.297 231.282 C 342.373 229.678,342.373 227.158,342.296 225.682 C 342.219 224.207,342.157 225.520,342.158 228.600 M56.901 235.400 C 56.905 236.280,56.987 236.593,57.083 236.095 C 57.179 235.598,57.175 234.878,57.075 234.495 C 56.975 234.113,56.896 234.520,56.901 235.400 M240.671 246.900 C 240.046 247.358,239.998 248.602,240.100 261.600 L 240.211 275.800 240.305 261.561 L 240.400 247.322 241.300 246.888 C 241.795 246.649,242.009 246.442,241.776 246.427 C 241.544 246.412,241.046 246.625,240.671 246.900 M133.498 247.092 C 133.890 247.370,134.019 257.276,134.101 293.423 L 134.205 339.400 134.203 293.233 C 134.200 252.537,134.129 247.047,133.600 246.903 C 133.158 246.782,133.131 246.832,133.498 247.092 M272.352 342.713 C 272.221 343.507,272.279 343.881,272.501 343.659 C 272.703 343.457,272.801 342.867,272.719 342.346 C 272.593 341.545,272.537 341.602,272.352 342.713 M128.100 346.276 C 128.485 346.376,129.115 346.376,129.500 346.276 C 129.885 346.175,129.570 346.093,128.800 346.093 C 128.030 346.093,127.715 346.175,128.100 346.276 M179.105 387.883 C 179.602 387.979,180.322 387.975,180.705 387.875 C 181.087 387.775,180.680 387.696,179.800 387.701 C 178.920 387.705,178.607 387.787,179.105 387.883 M217.900 387.882 C 218.395 387.978,219.205 387.978,219.700 387.882 C 220.195 387.787,219.790 387.709,218.800 387.709 C 217.810 387.709,217.405 387.787,217.900 387.882 M190.100 388.676 C 190.485 388.776,191.115 388.776,191.500 388.676 C 191.885 388.575,191.570 388.493,190.800 388.493 C 190.030 388.493,189.715 388.575,190.100 388.676 M207.105 388.683 C 207.602 388.779,208.322 388.775,208.705 388.675 C 209.087 388.575,208.680 388.496,207.800 388.501 C 206.920 388.505,206.607 388.587,207.105 388.683 " stroke="none" fill="#0a2444" fill-rule="evenodd"></path><path id="path8" d="M196.900 121.476 C 197.285 121.576,197.915 121.576,198.300 121.476 C 198.685 121.375,198.370 121.293,197.600 121.293 C 196.830 121.293,196.515 121.375,196.900 121.476 M299.385 180.600 C 299.385 191.160,299.437 195.423,299.500 190.072 C 299.563 184.722,299.563 176.082,299.500 170.872 C 299.436 165.663,299.385 170.040,299.385 180.600 M143.390 210.400 C 143.390 227.670,143.440 234.735,143.500 226.100 C 143.560 217.465,143.560 203.335,143.500 194.700 C 143.440 186.065,143.390 193.130,143.390 210.400 M332.305 190.683 C 332.802 190.779,333.522 190.775,333.905 190.675 C 334.287 190.575,333.880 190.496,333.000 190.501 C 332.120 190.505,331.807 190.587,332.305 190.683 M9.320 195.200 C 9.320 196.410,9.395 196.905,9.487 196.300 C 9.578 195.695,9.578 194.705,9.487 194.100 C 9.395 193.495,9.320 193.990,9.320 195.200 M26.950 199.000 C 26.951 201.420,27.016 202.358,27.096 201.085 C 27.176 199.812,27.175 197.832,27.094 196.685 C 27.014 195.538,26.949 196.580,26.950 199.000 M389.301 199.000 C 389.305 199.880,389.387 200.193,389.483 199.695 C 389.579 199.198,389.575 198.478,389.475 198.095 C 389.375 197.713,389.296 198.120,389.301 199.000 M9.314 203.400 C 9.317 204.500,9.395 204.903,9.487 204.295 C 9.579 203.686,9.577 202.786,9.482 202.295 C 9.387 201.803,9.311 202.300,9.314 203.400 M173.700 219.897 C 175.405 219.972,178.195 219.972,179.900 219.897 C 181.605 219.822,180.210 219.761,176.800 219.761 C 173.390 219.761,171.995 219.822,173.700 219.897 M226.100 219.897 C 227.805 219.972,230.595 219.972,232.300 219.897 C 234.005 219.822,232.610 219.761,229.200 219.761 C 225.790 219.761,224.395 219.822,226.100 219.897 M239.765 342.200 C 239.766 346.160,239.826 347.726,239.898 345.680 C 239.971 343.634,239.971 340.394,239.898 338.480 C 239.824 336.566,239.765 338.240,239.765 342.200 " stroke="none" fill="#748494" fill-rule="evenodd"></path></g></svg>